  0
SECTION
  2
HEADER
  0
ENDSEC
  0
SECTION
  2
TABLES
  0
TABLE
  2
LAYER
  70
    153
  0
LAYER
  2
Cylinder
 70
0
 62
15
  6
CONTINUOUS
  0
LAYER
  2
Cylinder1
 70
0
 62
15
  6
CONTINUOUS
  0
LAYER
  2
Cube4
 70
0
 62
15
  6
CONTINUOUS
  0
LAYER
  2
Cylinder6
 70
0
 62
15
  6
CONTINUOUS
  0
LAYER
  2
Cylinder5
 70
0
 62
15
  6
CONTINUOUS
  0
LAYER
  2
Cylinder7
 70
0
 62
15
  6
CONTINUOUS
  0
LAYER
  2
NoName12
 70
0
 62
15
  6
CONTINUOUS
  0
LAYER
  2
NoName3
 70
0
 62
15
  6
CONTINUOUS
  0
LAYER
  2
NoName4
 70
0
 62
15
  6
CONTINUOUS
  0
LAYER
  2
NoName1
 70
0
 62
15
  6
CONTINUOUS
  0
LAYER
  2
NoName3001
 70
0
 62
15
  6
CONTINUOUS
  0
LAYER
  2
NoName4001
 70
0
 62
15
  6
CONTINUOUS
  0
LAYER
  2
NoName2
 70
0
 62
15
  6
CONTINUOUS
  0
LAYER
  2
NoName3002
 70
0
 62
15
  6
CONTINUOUS
  0
LAYER
  2
NoName4002
 70
0
 62
15
  6
CONTINUOUS
  0
LAYER
  2
NoName11
 70
0
 62
15
  6
CONTINUOUS
  0
LAYER
  2
NoName3003
 70
0
 62
15
  6
CONTINUOUS
  0
LAYER
  2
NoName4003
 70
0
 62
15
  6
CONTINUOUS
  0
ENDTAB
  0
ENDSEC
  0
SECTION
  2
ENTITIES
  0
3DFACE
  8
Cylinder
 10
-1.710353
 20
-0.391217
 30
-0.630043
 11
-1.710356
 21
-0.309188
 31
-0.630041
 12
-1.052066
 22
0.388557
 32
-1.328774
 13
-1.052055
 23
0.293889
 33
-1.328774
 62
0
  0
3DFACE
  8
Cylinder
 10
-1.052055
 20
0.293889
 30
-1.328774
 11
-1.052066
 21
0.388557
 31
-1.328774
 12
-1.093351
 22
0.785464
 32
-0.821274
 13
-1.093354
 23
0.640240
 33
-0.821270
 62
0
  0
3DFACE
  8
Cylinder
 10
-1.093354
 20
0.640240
 30
-0.821270
 11
-1.093351
 21
0.785464
 31
-0.821274
 12
-1.710356
 22
-0.309188
 32
-0.630041
 13
-1.710353
 23
-0.391217
 33
-0.630043
 62
0
  0
3DFACE
  8
Cylinder
 10
-1.710353
 20
-0.391217
 30
-0.630043
 11
-1.052055
 21
0.293889
 31
-1.328774
 12
-1.093354
 22
0.640240
 32
-0.821270
 13
-1.093354
 23
0.640240
 33
-0.821270
 62
0
  0
3DFACE
  8
Cylinder
 10
-1.093351
 20
0.785464
 30
-0.821274
 11
-1.052066
 21
0.388557
 31
-1.328774
 12
-1.710356
 22
-0.309188
 32
-0.630041
 13
-1.710356
 23
-0.309188
 33
-0.630041
 62
0
  0
3DFACE
  8
Cylinder1
 10
1.052889
 20
0.293888
 30
-1.328774
 11
1.052900
 21
0.388556
 31
-1.328774
 12
1.711190
 22
-0.309188
 32
-0.630041
 13
1.711187
 23
-0.391217
 33
-0.630043
 62
0
  0
3DFACE
  8
Cylinder1
 10
1.094188
 20
0.640240
 30
-0.821270
 11
1.094185
 21
0.785464
 31
-0.821274
 12
1.052900
 22
0.388556
 32
-1.328774
 13
1.052889
 23
0.293888
 33
-1.328774
 62
0
  0
3DFACE
  8
Cylinder1
 10
1.711187
 20
-0.391217
 30
-0.630043
 11
1.711190
 21
-0.309188
 31
-0.630041
 12
1.094185
 22
0.785464
 32
-0.821274
 13
1.094188
 23
0.640240
 33
-0.821270
 62
0
  0
3DFACE
  8
Cylinder1
 10
1.094188
 20
0.640240
 30
-0.821270
 11
1.052889
 21
0.293888
 31
-1.328774
 12
1.711187
 22
-0.391217
 32
-0.630043
 13
1.711187
 23
-0.391217
 33
-0.630043
 62
0
  0
3DFACE
  8
Cylinder1
 10
1.711190
 20
-0.309188
 30
-0.630041
 11
1.052900
 21
0.388556
 31
-1.328774
 12
1.094185
 22
0.785464
 32
-0.821274
 13
1.094185
 23
0.785464
 33
-0.821274
 62
0
  0
3DFACE
  8
Cube4
 10
0.866710
 20
-1.987399
 30
-0.657565
 11
-0.866547
 21
-1.987399
 31
-0.657565
 12
0.000082
 22
-2.368162
 32
-0.014574
 13
0.000082
 23
-2.368162
 33
-0.014574
 62
0
  0
3DFACE
  8
Cube4
 10
0.866713
 20
0.622166
 30
-1.694406
 11
0.867103
 21
1.833923
 31
-0.437370
 12
-0.866547
 22
1.833924
 32
-0.437370
 13
-0.866547
 23
0.622166
 33
-1.694640
 62
0
  0
3DFACE
  8
Cube4
 10
2.059834
 20
-0.693744
 30
-0.432246
 11
2.059830
 21
-0.693744
 31
0.365427
 12
0.867103
 22
1.870621
 32
0.659644
 13
0.867103
 23
1.833923
 33
-0.437370
 62
0
  0
3DFACE
  8
Cube4
 10
0.866710
 20
-1.891062
 30
0.659024
 11
0.867103
 21
1.870621
 31
0.659644
 12
2.059830
 22
-0.693744
 32
0.365427
 13
2.059830
 23
-0.693744
 33
0.365427
 62
0
  0
3DFACE
  8
Cube4
 10
0.867103
 20
1.870621
 30
0.659644
 11
-0.866547
 21
1.870623
 31
0.659644
 12
0.000082
 22
2.274316
 32
-0.015327
 13
0.000082
 23
2.274316
 33
-0.015327
 62
0
  0
3DFACE
  8
Cube4
 10
-0.866547
 20
-1.987399
 30
-0.657565
 11
-2.060123
 21
-0.693104
 31
-0.432787
 12
-2.060117
 22
-0.693105
 32
0.365553
 13
-0.866547
 23
-1.891062
 33
0.659024
 62
0
  0
3DFACE
  8
Cube4
 10
2.059830
 20
-0.693744
 30
0.365427
 11
2.059834
 21
-0.693744
 31
-0.432246
 12
0.866710
 22
-1.987399
 32
-0.657565
 13
0.866710
 23
-1.891062
 33
0.659024
 62
0
  0
3DFACE
  8
Cube4
 10
-0.866547
 20
1.870623
 30
0.659644
 11
-2.060117
 21
-0.693105
 31
0.365553
 12
-2.060123
 22
-0.693104
 32
-0.432787
 13
-0.866547
 23
1.833924
 33
-0.437370
 62
0
  0
3DFACE
  8
Cube4
 10
0.867103
 20
1.870621
 30
0.659644
 11
0.000082
 21
2.274316
 31
-0.015327
 12
0.867103
 22
1.833923
 32
-0.437370
 13
0.867103
 23
1.833923
 33
-0.437370
 62
0
  0
3DFACE
  8
Cube4
 10
-0.866547
 20
1.833924
 30
-0.437370
 11
0.000082
 21
2.274316
 31
-0.015327
 12
-0.866547
 22
1.870623
 32
0.659644
 13
-0.866547
 23
1.870623
 33
0.659644
 62
0
  0
3DFACE
  8
Cube4
 10
-0.866547
 20
1.833924
 30
-0.437370
 11
0.867103
 21
1.833923
 31
-0.437370
 12
0.000082
 22
2.274316
 32
-0.015327
 13
0.000082
 23
2.274316
 33
-0.015327
 62
0
  0
3DFACE
  8
Cube4
 10
0.866710
 20
-1.987399
 30
-0.657565
 11
0.000082
 21
-2.368162
 31
-0.014574
 12
0.866710
 22
-1.891062
 32
0.659024
 13
0.866710
 23
-1.891062
 33
0.659024
 62
0
  0
3DFACE
  8
Cube4
 10
-0.866547
 20
-1.891062
 30
0.659024
 11
0.866710
 21
-1.891062
 31
0.659024
 12
0.000082
 22
-2.368162
 32
-0.014574
 13
0.000082
 23
-2.368162
 33
-0.014574
 62
0
  0
3DFACE
  8
Cube4
 10
-0.866547
 20
-1.891062
 30
0.659024
 11
0.000082
 21
-2.368162
 31
-0.014574
 12
-0.866547
 22
-1.987399
 32
-0.657565
 13
-0.866547
 23
-1.987399
 33
-0.657565
 62
0
  0
3DFACE
  8
Cube4
 10
-0.866547
 20
0.622166
 30
-1.694640
 11
-2.060123
 21
-0.693104
 31
-0.432787
 12
-0.866547
 22
-1.987399
 32
-0.657565
 13
-0.866547
 23
-1.987399
 33
-0.657565
 62
0
  0
3DFACE
  8
Cube4
 10
-1.870850
 20
-0.361470
 30
-0.501075
 11
-0.866547
 21
1.833924
 31
-0.437370
 12
-2.060123
 22
-0.693104
 32
-0.432787
 13
-2.060123
 23
-0.693104
 33
-0.432787
 62
1
  0
3DFACE
  8
Cube4
 10
-0.938520
 20
0.660025
 30
-1.499107
 11
-1.870850
 21
-0.361470
 31
-0.501075
 12
-2.060123
 22
-0.693104
 32
-0.432787
 13
-2.060123
 23
-0.693104
 33
-0.432787
 62
1
  0
3DFACE
  8
Cube4
 10
-0.866547
 20
0.622166
 30
-1.694640
 11
-0.938520
 21
0.660025
 31
-1.499107
 12
-2.060123
 22
-0.693104
 32
-0.432787
 13
-2.060123
 23
-0.693104
 33
-0.432787
 62
1
  0
3DFACE
  8
Cube4
 10
-1.029251
 20
1.157476
 30
-0.779523
 11
-0.866547
 21
1.833924
 31
-0.437370
 12
-1.870850
 22
-0.361470
 32
-0.501075
 13
-1.870850
 23
-0.361470
 33
-0.501075
 62
1
  0
3DFACE
  8
Cube4
 10
-0.938520
 20
0.660025
 30
-1.499107
 11
-0.866547
 21
1.833924
 31
-0.437370
 12
-1.029251
 22
1.157476
 32
-0.779523
 13
-1.029251
 23
1.157476
 33
-0.779523
 62
1
  0
3DFACE
  8
Cube4
 10
-0.866547
 20
0.622166
 30
-1.694640
 11
-0.866547
 21
1.833924
 31
-0.437370
 12
-0.938520
 22
0.660025
 32
-1.499107
 13
-0.938520
 23
0.660025
 33
-1.499107
 62
1
  0
3DFACE
  8
Cube4
 10
0.866710
 20
-1.987399
 30
-0.657565
 11
2.059834
 21
-0.693744
 31
-0.432246
 12
0.866713
 22
0.622166
 32
-1.694406
 13
0.866713
 23
0.622166
 33
-1.694406
 62
0
  0
3DFACE
  8
Cube4
 10
1.029960
 20
1.157619
 30
-0.779984
 11
1.871747
 21
-0.361269
 31
-0.501602
 12
0.867103
 22
1.833923
 32
-0.437370
 13
0.867103
 23
1.833923
 33
-0.437370
 62
1
  0
3DFACE
  8
Cube4
 10
0.938207
 20
0.659330
 30
-1.498507
 11
1.029960
 21
1.157619
 31
-0.779984
 12
0.867103
 22
1.833923
 32
-0.437370
 13
0.867103
 23
1.833923
 33
-0.437370
 62
1
  0
3DFACE
  8
Cube4
 10
0.866713
 20
0.622166
 30
-1.694406
 11
0.938207
 21
0.659330
 31
-1.498507
 12
0.867103
 22
1.833923
 32
-0.437370
 13
0.867103
 23
1.833923
 33
-0.437370
 62
1
  0
3DFACE
  8
Cube4
 10
1.871747
 20
-0.361269
 30
-0.501602
 11
2.059834
 21
-0.693744
 31
-0.432246
 12
0.867103
 22
1.833923
 32
-0.437370
 13
0.867103
 23
1.833923
 33
-0.437370
 62
1
  0
3DFACE
  8
Cube4
 10
0.938207
 20
0.659330
 30
-1.498507
 11
2.059834
 21
-0.693744
 31
-0.432246
 12
1.871747
 22
-0.361269
 32
-0.501602
 13
1.871747
 23
-0.361269
 33
-0.501602
 62
1
  0
3DFACE
  8
Cube4
 10
0.866713
 20
0.622166
 30
-1.694406
 11
2.059834
 21
-0.693744
 31
-0.432246
 12
0.938207
 22
0.659330
 32
-1.498507
 13
0.938207
 23
0.659330
 33
-1.498507
 62
1
  0
3DFACE
  8
Cube4
 10
0.866710
 20
-1.987399
 30
-0.657565
 11
0.866713
 21
0.622166
 31
-1.694406
 12
-0.866547
 22
0.622166
 32
-1.694640
 13
-0.866547
 23
-1.987399
 33
-0.657565
 62
0
  0
3DFACE
  8
Cube4
 10
0.866710
 20
-1.891062
 30
0.659024
 11
-0.866547
 21
-1.891062
 31
0.659024
 12
-0.866547
 22
1.870623
 32
0.659644
 13
0.867103
 23
1.870621
 33
0.659644
 62
0
  0
3DFACE
  8
Cube4
 10
-0.866547
 20
1.870623
 30
0.659644
 11
-0.866547
 21
-1.891062
 31
0.659024
 12
-2.060117
 22
-0.693105
 32
0.365553
 13
-2.060117
 23
-0.693105
 33
0.365553
 62
0
  0
3DFACE
  8
Cube4
 10
1.083526
 20
0.293562
 30
-1.255372
 11
0.938207
 21
0.659330
 31
-1.498507
 12
1.871747
 22
-0.361269
 32
-0.501602
 13
1.620122
 23
-0.278638
 33
-0.682354
 62
1
  0
3DFACE
  8
Cube4
 10
1.083526
 20
0.293562
 30
-1.255372
 11
1.620122
 21
-0.278638
 31
-0.682354
 12
1.136266
 22
0.683814
 32
-0.842367
 13
1.136266
 23
0.683814
 33
-0.842367
 62
1
  0
3DFACE
  8
Cube4
 10
1.136266
 20
0.683814
 30
-0.842367
 11
1.029960
 21
1.157619
 31
-0.779984
 12
0.938207
 22
0.659330
 32
-1.498507
 13
1.083526
 23
0.293562
 33
-1.255372
 62
1
  0
3DFACE
  8
Cube4
 10
1.620122
 20
-0.278638
 30
-0.682354
 11
1.871747
 21
-0.361269
 31
-0.501602
 12
1.029960
 22
1.157619
 32
-0.779984
 13
1.136266
 23
0.683814
 33
-0.842367
 62
1
  0
3DFACE
  8
Cube4
 10
-0.938520
 20
0.294265
 30
-1.499107
 11
-1.084001
 21
0.293976
 31
-1.255074
 12
-1.620561
 22
-0.278562
 32
-0.682536
 13
-1.870850
 23
-0.727230
 33
-0.501075
 62
2
  0
3DFACE
  8
Cube4
 10
-1.029251
 20
0.791716
 30
-0.779523
 11
-1.135624
 21
0.683490
 31
-0.842095
 12
-1.084001
 22
0.293976
 32
-1.255074
 13
-0.938520
 23
0.294265
 33
-1.499107
 62
2
  0
3DFACE
  8
Cube4
 10
-1.870850
 20
-0.727230
 30
-0.501075
 11
-1.620561
 21
-0.278562
 31
-0.682536
 12
-1.135624
 22
0.683490
 32
-0.842095
 13
-1.029251
 23
0.791716
 33
-0.779523
 62
2
  0
3DFACE
  8
Cube4
 10
-1.084001
 20
0.293976
 30
-1.255074
 11
-1.135624
 21
0.683490
 31
-0.842095
 12
-1.620561
 22
-0.278562
 32
-0.682536
 13
-1.620561
 23
-0.278562
 33
-0.682536
 62
2
  0
3DFACE
  8
Cube4
 10
-0.938520
 20
0.294265
 30
-1.499107
 11
-1.870850
 21
-0.727230
 31
-0.501075
 12
-1.870850
 22
-0.361470
 32
-0.501075
 13
-0.938520
 23
0.660025
 33
-1.499107
 62
2
  0
3DFACE
  8
Cube4
 10
-1.870850
 20
-0.727230
 30
-0.501075
 11
-1.029251
 21
0.791716
 31
-0.779523
 12
-1.029251
 22
1.157476
 32
-0.779523
 13
-1.870850
 23
-0.361470
 33
-0.501075
 62
2
  0
3DFACE
  8
Cube4
 10
-1.029251
 20
0.791716
 30
-0.779523
 11
-0.938520
 21
0.294265
 31
-1.499107
 12
-0.938520
 22
0.660025
 32
-1.499107
 13
-1.029251
 23
1.157476
 33
-0.779523
 62
2
  0
3DFACE
  8
Cylinder6
 10
-0.712980
 20
3.207888
 30
-0.946071
 11
-0.733580
 21
3.207888
 31
-0.842605
 12
-0.733580
 22
1.032966
 32
-0.842605
 13
-0.712980
 23
1.032966
 33
-0.946071
 62
0
  0
3DFACE
  8
Cylinder6
 10
-0.654316
 20
3.207888
 30
-1.033785
 11
-0.712980
 21
3.207888
 31
-0.946071
 12
-0.712980
 22
1.032966
 32
-0.946071
 13
-0.654316
 23
1.032966
 33
-1.033784
 62
0
  0
3DFACE
  8
Cylinder6
 10
-0.566519
 20
3.207888
 30
-1.092393
 11
-0.654316
 21
3.207888
 31
-1.033785
 12
-0.654316
 22
1.032966
 32
-1.033784
 13
-0.566518
 23
1.032966
 33
-1.092393
 62
0
  0
3DFACE
  8
Cylinder6
 10
-0.462955
 20
3.207888
 30
-1.112974
 11
-0.566519
 21
3.207888
 31
-1.092393
 12
-0.566518
 22
1.032966
 32
-1.092393
 13
-0.462955
 23
1.032966
 33
-1.112974
 62
0
  0
3DFACE
  8
Cylinder6
 10
-0.359391
 20
3.207888
 30
-1.092393
 11
-0.462955
 21
3.207888
 31
-1.112974
 12
-0.462955
 22
1.032966
 32
-1.112974
 13
-0.359391
 23
1.032966
 33
-1.092393
 62
0
  0
3DFACE
  8
Cylinder6
 10
-0.271593
 20
3.207888
 30
-1.033785
 11
-0.359391
 21
3.207888
 31
-1.092393
 12
-0.359391
 22
1.032966
 32
-1.092393
 13
-0.271594
 23
1.032966
 33
-1.033784
 62
0
  0
3DFACE
  8
Cylinder6
 10
-0.212929
 20
3.207888
 30
-0.946071
 11
-0.271593
 21
3.207888
 31
-1.033785
 12
-0.271594
 22
1.032966
 32
-1.033784
 13
-0.212930
 23
1.032966
 33
-0.946071
 62
0
  0
3DFACE
  8
Cylinder6
 10
-0.192329
 20
3.207888
 30
-0.842605
 11
-0.212929
 21
3.207888
 31
-0.946071
 12
-0.212930
 22
1.032966
 32
-0.946071
 13
-0.192329
 23
1.032966
 33
-0.842605
 62
0
  0
3DFACE
  8
Cylinder6
 10
-0.212929
 20
3.207888
 30
-0.739139
 11
-0.192329
 21
3.207888
 31
-0.842605
 12
-0.192329
 22
1.032966
 32
-0.842605
 13
-0.212930
 23
1.032966
 33
-0.739139
 62
0
  0
3DFACE
  8
Cylinder6
 10
-0.271593
 20
3.207888
 30
-0.651425
 11
-0.212929
 21
3.207888
 31
-0.739139
 12
-0.212930
 22
1.032966
 32
-0.739139
 13
-0.271594
 23
1.032966
 33
-0.651426
 62
0
  0
3DFACE
  8
Cylinder6
 10
-0.359391
 20
3.207888
 30
-0.592817
 11
-0.271593
 21
3.207888
 31
-0.651425
 12
-0.271594
 22
1.032966
 32
-0.651426
 13
-0.359391
 23
1.032966
 33
-0.592817
 62
0
  0
3DFACE
  8
Cylinder6
 10
-0.462955
 20
3.207888
 30
-0.572236
 11
-0.359391
 21
3.207888
 31
-0.592817
 12
-0.359391
 22
1.032966
 32
-0.592817
 13
-0.462955
 23
1.032966
 33
-0.572236
 62
0
  0
3DFACE
  8
Cylinder6
 10
-0.566519
 20
3.207888
 30
-0.592817
 11
-0.462955
 21
3.207888
 31
-0.572236
 12
-0.462955
 22
1.032966
 32
-0.572236
 13
-0.566518
 23
1.032966
 33
-0.592817
 62
0
  0
3DFACE
  8
Cylinder6
 10
-0.654316
 20
3.207888
 30
-0.651425
 11
-0.566519
 21
3.207888
 31
-0.592817
 12
-0.566518
 22
1.032966
 32
-0.592817
 13
-0.654316
 23
1.032966
 33
-0.651426
 62
0
  0
3DFACE
  8
Cylinder6
 10
-0.712980
 20
3.207888
 30
-0.739139
 11
-0.654316
 21
3.207888
 31
-0.651425
 12
-0.654316
 22
1.032966
 32
-0.651426
 13
-0.712980
 23
1.032966
 33
-0.739139
 62
0
  0
3DFACE
  8
Cylinder6
 10
-0.733580
 20
3.207888
 30
-0.842605
 11
-0.712980
 21
3.207888
 31
-0.739139
 12
-0.712980
 22
1.032966
 32
-0.739139
 13
-0.733580
 23
1.032966
 33
-0.842605
 62
0
  0
3DFACE
  8
Cylinder6
 10
-0.566518
 20
1.032966
 30
-1.092393
 11
-0.359391
 21
1.032966
 31
-1.092393
 12
-0.462955
 22
1.032966
 32
-1.112974
 13
-0.462955
 23
1.032966
 33
-1.112974
 62
0
  0
3DFACE
  8
Cylinder6
 10
-0.271594
 20
1.032966
 30
-1.033784
 11
-0.359391
 21
1.032966
 31
-1.092393
 12
-0.566518
 22
1.032966
 32
-1.092393
 13
-0.566518
 23
1.032966
 33
-1.092393
 62
0
  0
3DFACE
  8
Cylinder6
 10
-0.654316
 20
1.032966
 30
-1.033784
 11
-0.271594
 21
1.032966
 31
-1.033784
 12
-0.566518
 22
1.032966
 32
-1.092393
 13
-0.566518
 23
1.032966
 33
-1.092393
 62
0
  0
3DFACE
  8
Cylinder6
 10
-0.212930
 20
1.032966
 30
-0.946071
 11
-0.271594
 21
1.032966
 31
-1.033784
 12
-0.654316
 22
1.032966
 32
-1.033784
 13
-0.654316
 23
1.032966
 33
-1.033784
 62
0
  0
3DFACE
  8
Cylinder6
 10
-0.712980
 20
1.032966
 30
-0.946071
 11
-0.212930
 21
1.032966
 31
-0.946071
 12
-0.654316
 22
1.032966
 32
-1.033784
 13
-0.654316
 23
1.032966
 33
-1.033784
 62
0
  0
3DFACE
  8
Cylinder6
 10
-0.733580
 20
1.032966
 30
-0.842605
 11
-0.212930
 21
1.032966
 31
-0.946071
 12
-0.712980
 22
1.032966
 32
-0.946071
 13
-0.712980
 23
1.032966
 33
-0.946071
 62
0
  0
3DFACE
  8
Cylinder6
 10
-0.192329
 20
1.032966
 30
-0.842605
 11
-0.212930
 21
1.032966
 31
-0.946071
 12
-0.733580
 22
1.032966
 32
-0.842605
 13
-0.733580
 23
1.032966
 33
-0.842605
 62
0
  0
3DFACE
  8
Cylinder6
 10
-0.212930
 20
1.032966
 30
-0.739139
 11
-0.192329
 21
1.032966
 31
-0.842605
 12
-0.733580
 22
1.032966
 32
-0.842605
 13
-0.733580
 23
1.032966
 33
-0.842605
 62
0
  0
3DFACE
  8
Cylinder6
 10
-0.712980
 20
1.032966
 30
-0.739139
 11
-0.212930
 21
1.032966
 31
-0.739139
 12
-0.733580
 22
1.032966
 32
-0.842605
 13
-0.733580
 23
1.032966
 33
-0.842605
 62
0
  0
3DFACE
  8
Cylinder6
 10
-0.271594
 20
1.032966
 30
-0.651426
 11
-0.212930
 21
1.032966
 31
-0.739139
 12
-0.712980
 22
1.032966
 32
-0.739139
 13
-0.712980
 23
1.032966
 33
-0.739139
 62
0
  0
3DFACE
  8
Cylinder6
 10
-0.654316
 20
1.032966
 30
-0.651426
 11
-0.271594
 21
1.032966
 31
-0.651426
 12
-0.712980
 22
1.032966
 32
-0.739139
 13
-0.712980
 23
1.032966
 33
-0.739139
 62
0
  0
3DFACE
  8
Cylinder6
 10
-0.359391
 20
1.032966
 30
-0.592817
 11
-0.271594
 21
1.032966
 31
-0.651426
 12
-0.654316
 22
1.032966
 32
-0.651426
 13
-0.654316
 23
1.032966
 33
-0.651426
 62
0
  0
3DFACE
  8
Cylinder6
 10
-0.566518
 20
1.032966
 30
-0.592817
 11
-0.359391
 21
1.032966
 31
-0.592817
 12
-0.654316
 22
1.032966
 32
-0.651426
 13
-0.654316
 23
1.032966
 33
-0.651426
 62
0
  0
3DFACE
  8
Cylinder6
 10
-0.462955
 20
1.032966
 30
-0.572236
 11
-0.359391
 21
1.032966
 31
-0.592817
 12
-0.566518
 22
1.032966
 32
-0.592817
 13
-0.566518
 23
1.032966
 33
-0.592817
 62
0
  0
3DFACE
  8
Cylinder6
 10
-0.529531
 20
3.207888
 30
-1.003183
 11
-0.654316
 21
3.207888
 31
-1.033785
 12
-0.462955
 22
3.207888
 32
-1.016414
 13
-0.462955
 23
3.207888
 33
-1.016414
 62
0
  0
3DFACE
  8
Cylinder6
 10
-0.585973
 20
3.207888
 30
-0.965506
 11
-0.654316
 21
3.207888
 31
-1.033785
 12
-0.529531
 22
3.207888
 32
-1.003183
 13
-0.529531
 23
3.207888
 33
-1.003183
 62
0
  0
3DFACE
  8
Cylinder6
 10
-0.712980
 20
3.207888
 30
-0.946071
 11
-0.654316
 21
3.207888
 31
-1.033785
 12
-0.585973
 22
3.207888
 32
-0.965506
 13
-0.585973
 23
3.207888
 33
-0.965506
 62
0
  0
3DFACE
  8
Cylinder6
 10
-0.623685
 20
3.207888
 30
-0.909119
 11
-0.712980
 21
3.207888
 31
-0.946071
 12
-0.585973
 22
3.207888
 32
-0.965506
 13
-0.585973
 23
3.207888
 33
-0.965506
 62
0
  0
3DFACE
  8
Cylinder6
 10
-0.733580
 20
3.207888
 30
-0.842605
 11
-0.712980
 21
3.207888
 31
-0.946071
 12
-0.623685
 22
3.207888
 32
-0.909119
 13
-0.623685
 23
3.207888
 33
-0.909119
 62
0
  0
3DFACE
  8
Cylinder6
 10
-0.636928
 20
3.207888
 30
-0.842605
 11
-0.733580
 21
3.207888
 31
-0.842605
 12
-0.623685
 22
3.207888
 32
-0.909119
 13
-0.623685
 23
3.207888
 33
-0.909119
 62
0
  0
3DFACE
  8
Cylinder6
 10
-0.623685
 20
3.207888
 30
-0.776091
 11
-0.733580
 21
3.207888
 31
-0.842605
 12
-0.636928
 22
3.207888
 32
-0.842605
 13
-0.636928
 23
3.207888
 33
-0.842605
 62
0
  0
3DFACE
  8
Cylinder6
 10
-0.712980
 20
3.207888
 30
-0.739139
 11
-0.733580
 21
3.207888
 31
-0.842605
 12
-0.623685
 22
3.207888
 32
-0.776091
 13
-0.623685
 23
3.207888
 33
-0.776091
 62
0
  0
3DFACE
  8
Cylinder6
 10
-0.585973
 20
3.207888
 30
-0.719704
 11
-0.712980
 21
3.207888
 31
-0.739139
 12
-0.623685
 22
3.207888
 32
-0.776091
 13
-0.623685
 23
3.207888
 33
-0.776091
 62
0
  0
3DFACE
  8
Cylinder6
 10
-0.529531
 20
3.207888
 30
-0.682027
 11
-0.712980
 21
3.207888
 31
-0.739139
 12
-0.585973
 22
3.207888
 32
-0.719704
 13
-0.585973
 23
3.207888
 33
-0.719704
 62
0
  0
3DFACE
  8
Cylinder6
 10
-0.654316
 20
3.207888
 30
-0.651425
 11
-0.712980
 21
3.207888
 31
-0.739139
 12
-0.529531
 22
3.207888
 32
-0.682027
 13
-0.529531
 23
3.207888
 33
-0.682027
 62
0
  0
3DFACE
  8
Cylinder6
 10
-0.654316
 20
3.207888
 30
-0.651425
 11
-0.529531
 21
3.207888
 31
-0.682027
 12
-0.462955
 22
3.207888
 32
-0.668796
 13
-0.462955
 23
3.207888
 33
-0.668796
 62
0
  0
3DFACE
  8
Cylinder6
 10
-0.271593
 20
3.207888
 30
-0.651425
 11
-0.654316
 21
3.207888
 31
-0.651425
 12
-0.462955
 22
3.207888
 32
-0.668796
 13
-0.462955
 23
3.207888
 33
-0.668796
 62
0
  0
3DFACE
  8
Cylinder6
 10
-0.566519
 20
3.207888
 30
-0.592817
 11
-0.654316
 21
3.207888
 31
-0.651425
 12
-0.271593
 22
3.207888
 32
-0.651425
 13
-0.271593
 23
3.207888
 33
-0.651425
 62
0
  0
3DFACE
  8
Cylinder6
 10
-0.359391
 20
3.207888
 30
-0.592817
 11
-0.566519
 21
3.207888
 31
-0.592817
 12
-0.271593
 22
3.207888
 32
-0.651425
 13
-0.271593
 23
3.207888
 33
-0.651425
 62
0
  0
3DFACE
  8
Cylinder6
 10
-0.462955
 20
3.207888
 30
-0.572236
 11
-0.566519
 21
3.207888
 31
-0.592817
 12
-0.359391
 22
3.207888
 32
-0.592817
 13
-0.359391
 23
3.207888
 33
-0.592817
 62
0
  0
3DFACE
  8
Cylinder6
 10
-0.359391
 20
3.207888
 30
-1.092393
 11
-0.566519
 21
3.207888
 31
-1.092393
 12
-0.462955
 22
3.207888
 32
-1.112974
 13
-0.462955
 23
3.207888
 33
-1.112974
 62
0
  0
3DFACE
  8
Cylinder6
 10
-0.654316
 20
3.207888
 30
-1.033785
 11
-0.566519
 21
3.207888
 31
-1.092393
 12
-0.359391
 22
3.207888
 32
-1.092393
 13
-0.359391
 23
3.207888
 33
-1.092393
 62
0
  0
3DFACE
  8
Cylinder6
 10
-0.271593
 20
3.207888
 30
-1.033785
 11
-0.654316
 21
3.207888
 31
-1.033785
 12
-0.359391
 22
3.207888
 32
-1.092393
 13
-0.359391
 23
3.207888
 33
-1.092393
 62
0
  0
3DFACE
  8
Cylinder6
 10
-0.462955
 20
3.207888
 30
-1.016414
 11
-0.654316
 21
3.207888
 31
-1.033785
 12
-0.271593
 22
3.207888
 32
-1.033785
 13
-0.271593
 23
3.207888
 33
-1.033785
 62
0
  0
3DFACE
  8
Cylinder6
 10
-0.396378
 20
3.207888
 30
-1.003183
 11
-0.462955
 21
3.207888
 31
-1.016414
 12
-0.271593
 22
3.207888
 32
-1.033785
 13
-0.271593
 23
3.207888
 33
-1.033785
 62
0
  0
3DFACE
  8
Cylinder6
 10
-0.339937
 20
3.207888
 30
-0.965506
 11
-0.396378
 21
3.207888
 31
-1.003183
 12
-0.271593
 22
3.207888
 32
-1.033785
 13
-0.271593
 23
3.207888
 33
-1.033785
 62
0
  0
3DFACE
  8
Cylinder6
 10
-0.212929
 20
3.207888
 30
-0.946071
 11
-0.339937
 21
3.207888
 31
-0.965506
 12
-0.271593
 22
3.207888
 32
-1.033785
 13
-0.271593
 23
3.207888
 33
-1.033785
 62
0
  0
3DFACE
  8
Cylinder6
 10
-0.302224
 20
3.207888
 30
-0.909119
 11
-0.339937
 21
3.207888
 31
-0.965506
 12
-0.212929
 22
3.207888
 32
-0.946071
 13
-0.212929
 23
3.207888
 33
-0.946071
 62
0
  0
3DFACE
  8
Cylinder6
 10
-0.288981
 20
3.207888
 30
-0.842605
 11
-0.302224
 21
3.207888
 31
-0.909119
 12
-0.212929
 22
3.207888
 32
-0.946071
 13
-0.212929
 23
3.207888
 33
-0.946071
 62
0
  0
3DFACE
  8
Cylinder6
 10
-0.192329
 20
3.207888
 30
-0.842605
 11
-0.288981
 21
3.207888
 31
-0.842605
 12
-0.212929
 22
3.207888
 32
-0.946071
 13
-0.212929
 23
3.207888
 33
-0.946071
 62
0
  0
3DFACE
  8
Cylinder6
 10
-0.302224
 20
3.207888
 30
-0.776091
 11
-0.288981
 21
3.207888
 31
-0.842605
 12
-0.192329
 22
3.207888
 32
-0.842605
 13
-0.192329
 23
3.207888
 33
-0.842605
 62
0
  0
3DFACE
  8
Cylinder6
 10
-0.212929
 20
3.207888
 30
-0.739139
 11
-0.302224
 21
3.207888
 31
-0.776091
 12
-0.192329
 22
3.207888
 32
-0.842605
 13
-0.192329
 23
3.207888
 33
-0.842605
 62
0
  0
3DFACE
  8
Cylinder6
 10
-0.339937
 20
3.207888
 30
-0.719704
 11
-0.302224
 21
3.207888
 31
-0.776091
 12
-0.212929
 22
3.207888
 32
-0.739139
 13
-0.212929
 23
3.207888
 33
-0.739139
 62
0
  0
3DFACE
  8
Cylinder6
 10
-0.396378
 20
3.207888
 30
-0.682027
 11
-0.339937
 21
3.207888
 31
-0.719704
 12
-0.212929
 22
3.207888
 32
-0.739139
 13
-0.212929
 23
3.207888
 33
-0.739139
 62
0
  0
3DFACE
  8
Cylinder6
 10
-0.271593
 20
3.207888
 30
-0.651425
 11
-0.396378
 21
3.207888
 31
-0.682027
 12
-0.212929
 22
3.207888
 32
-0.739139
 13
-0.212929
 23
3.207888
 33
-0.739139
 62
0
  0
3DFACE
  8
Cylinder6
 10
-0.271593
 20
3.207888
 30
-0.651425
 11
-0.462955
 21
3.207888
 31
-0.668796
 12
-0.396378
 22
3.207888
 32
-0.682027
 13
-0.396378
 23
3.207888
 33
-0.682027
 62
0
  0
3DFACE
  8
Cylinder6
 10
-0.302225
 20
1.637576
 30
-0.776091
 11
-0.288982
 21
1.637576
 31
-0.842605
 12
-0.288981
 22
3.207888
 32
-0.842605
 13
-0.302224
 23
3.207888
 33
-0.776091
 62
1
  0
3DFACE
  8
Cylinder6
 10
-0.339938
 20
1.637576
 30
-0.719703
 11
-0.302225
 21
1.637576
 31
-0.776091
 12
-0.302224
 22
3.207888
 32
-0.776091
 13
-0.339937
 23
3.207888
 33
-0.719704
 62
1
  0
3DFACE
  8
Cylinder6
 10
-0.396378
 20
1.637576
 30
-0.682026
 11
-0.339938
 21
1.637576
 31
-0.719703
 12
-0.339937
 22
3.207888
 32
-0.719704
 13
-0.396378
 23
3.207888
 33
-0.682027
 62
1
  0
3DFACE
  8
Cylinder6
 10
-0.462955
 20
1.637576
 30
-0.668796
 11
-0.396378
 21
1.637576
 31
-0.682026
 12
-0.396378
 22
3.207888
 32
-0.682027
 13
-0.462955
 23
3.207888
 33
-0.668796
 62
1
  0
3DFACE
  8
Cylinder6
 10
-0.529531
 20
1.637576
 30
-0.682026
 11
-0.462955
 21
1.637576
 31
-0.668796
 12
-0.462955
 22
3.207888
 32
-0.668796
 13
-0.529531
 23
3.207888
 33
-0.682027
 62
1
  0
3DFACE
  8
Cylinder6
 10
-0.585972
 20
1.637576
 30
-0.719703
 11
-0.529531
 21
1.637576
 31
-0.682026
 12
-0.529531
 22
3.207888
 32
-0.682027
 13
-0.585973
 23
3.207888
 33
-0.719704
 62
1
  0
3DFACE
  8
Cylinder6
 10
-0.623684
 20
1.637576
 30
-0.776091
 11
-0.585972
 21
1.637576
 31
-0.719703
 12
-0.585973
 22
3.207888
 32
-0.719704
 13
-0.623685
 23
3.207888
 33
-0.776091
 62
1
  0
3DFACE
  8
Cylinder6
 10
-0.636927
 20
1.637576
 30
-0.842605
 11
-0.623684
 21
1.637576
 31
-0.776091
 12
-0.623685
 22
3.207888
 32
-0.776091
 13
-0.636928
 23
3.207888
 33
-0.842605
 62
1
  0
3DFACE
  8
Cylinder6
 10
-0.396378
 20
1.637576
 30
-1.003184
 11
-0.529531
 21
1.637576
 31
-1.003184
 12
-0.462955
 22
1.637576
 32
-1.016414
 13
-0.462955
 23
1.637576
 33
-1.016414
 62
1
  0
3DFACE
  8
Cylinder6
 10
-0.585972
 20
1.637576
 30
-0.965507
 11
-0.529531
 21
1.637576
 31
-1.003184
 12
-0.396378
 22
1.637576
 32
-1.003184
 13
-0.396378
 23
1.637576
 33
-1.003184
 62
1
  0
3DFACE
  8
Cylinder6
 10
-0.339938
 20
1.637576
 30
-0.965507
 11
-0.585972
 21
1.637576
 31
-0.965507
 12
-0.396378
 22
1.637576
 32
-1.003184
 13
-0.396378
 23
1.637576
 33
-1.003184
 62
1
  0
3DFACE
  8
Cylinder6
 10
-0.623684
 20
1.637576
 30
-0.909119
 11
-0.585972
 21
1.637576
 31
-0.965507
 12
-0.339938
 22
1.637576
 32
-0.965507
 13
-0.339938
 23
1.637576
 33
-0.965507
 62
1
  0
3DFACE
  8
Cylinder6
 10
-0.302225
 20
1.637576
 30
-0.909119
 11
-0.623684
 21
1.637576
 31
-0.909119
 12
-0.339938
 22
1.637576
 32
-0.965507
 13
-0.339938
 23
1.637576
 33
-0.965507
 62
1
  0
3DFACE
  8
Cylinder6
 10
-0.636927
 20
1.637576
 30
-0.842605
 11
-0.623684
 21
1.637576
 31
-0.909119
 12
-0.302225
 22
1.637576
 32
-0.909119
 13
-0.302225
 23
1.637576
 33
-0.909119
 62
1
  0
3DFACE
  8
Cylinder6
 10
-0.288982
 20
1.637576
 30
-0.842605
 11
-0.636927
 21
1.637576
 31
-0.842605
 12
-0.302225
 22
1.637576
 32
-0.909119
 13
-0.302225
 23
1.637576
 33
-0.909119
 62
1
  0
3DFACE
  8
Cylinder6
 10
-0.623684
 20
1.637576
 30
-0.776091
 11
-0.636927
 21
1.637576
 31
-0.842605
 12
-0.288982
 22
1.637576
 32
-0.842605
 13
-0.288982
 23
1.637576
 33
-0.842605
 62
1
  0
3DFACE
  8
Cylinder6
 10
-0.302225
 20
1.637576
 30
-0.776091
 11
-0.623684
 21
1.637576
 31
-0.776091
 12
-0.288982
 22
1.637576
 32
-0.842605
 13
-0.288982
 23
1.637576
 33
-0.842605
 62
1
  0
3DFACE
  8
Cylinder6
 10
-0.585972
 20
1.637576
 30
-0.719703
 11
-0.623684
 21
1.637576
 31
-0.776091
 12
-0.302225
 22
1.637576
 32
-0.776091
 13
-0.302225
 23
1.637576
 33
-0.776091
 62
1
  0
3DFACE
  8
Cylinder6
 10
-0.339938
 20
1.637576
 30
-0.719703
 11
-0.585972
 21
1.637576
 31
-0.719703
 12
-0.302225
 22
1.637576
 32
-0.776091
 13
-0.302225
 23
1.637576
 33
-0.776091
 62
1
  0
3DFACE
  8
Cylinder6
 10
-0.529531
 20
1.637576
 30
-0.682026
 11
-0.585972
 21
1.637576
 31
-0.719703
 12
-0.339938
 22
1.637576
 32
-0.719703
 13
-0.339938
 23
1.637576
 33
-0.719703
 62
1
  0
3DFACE
  8
Cylinder6
 10
-0.396378
 20
1.637576
 30
-0.682026
 11
-0.529531
 21
1.637576
 31
-0.682026
 12
-0.339938
 22
1.637576
 32
-0.719703
 13
-0.339938
 23
1.637576
 33
-0.719703
 62
1
  0
3DFACE
  8
Cylinder6
 10
-0.462955
 20
1.637576
 30
-0.668796
 11
-0.529531
 21
1.637576
 31
-0.682026
 12
-0.396378
 22
1.637576
 32
-0.682026
 13
-0.396378
 23
1.637576
 33
-0.682026
 62
1
  0
3DFACE
  8
Cylinder6
 10
-0.302225
 20
1.637576
 30
-0.909119
 11
-0.339938
 21
1.637576
 31
-0.965507
 12
-0.339937
 22
3.207888
 32
-0.965506
 13
-0.302224
 23
3.207888
 33
-0.909119
 62
1
  0
3DFACE
  8
Cylinder6
 10
-0.288982
 20
1.637576
 30
-0.842605
 11
-0.302225
 21
1.637576
 31
-0.909119
 12
-0.302224
 22
3.207888
 32
-0.909119
 13
-0.288981
 23
3.207888
 33
-0.842605
 62
1
  0
3DFACE
  8
Cylinder6
 10
-0.339938
 20
1.637576
 30
-0.965507
 11
-0.396378
 21
1.637576
 31
-1.003184
 12
-0.396378
 22
3.207888
 32
-1.003183
 13
-0.339937
 23
3.207888
 33
-0.965506
 62
1
  0
3DFACE
  8
Cylinder6
 10
-0.396378
 20
1.637576
 30
-1.003184
 11
-0.462955
 21
1.637576
 31
-1.016414
 12
-0.462955
 22
3.207888
 32
-1.016414
 13
-0.396378
 23
3.207888
 33
-1.003183
 62
1
  0
3DFACE
  8
Cylinder6
 10
-0.462955
 20
1.637576
 30
-1.016414
 11
-0.529531
 21
1.637576
 31
-1.003184
 12
-0.529531
 22
3.207888
 32
-1.003183
 13
-0.462955
 23
3.207888
 33
-1.016414
 62
1
  0
3DFACE
  8
Cylinder6
 10
-0.529531
 20
1.637576
 30
-1.003184
 11
-0.585972
 21
1.637576
 31
-0.965507
 12
-0.585973
 22
3.207888
 32
-0.965506
 13
-0.529531
 23
3.207888
 33
-1.003183
 62
1
  0
3DFACE
  8
Cylinder6
 10
-0.585972
 20
1.637576
 30
-0.965507
 11
-0.623684
 21
1.637576
 31
-0.909119
 12
-0.623685
 22
3.207888
 32
-0.909119
 13
-0.585973
 23
3.207888
 33
-0.965506
 62
1
  0
3DFACE
  8
Cylinder6
 10
-0.623684
 20
1.637576
 30
-0.909119
 11
-0.636927
 21
1.637576
 31
-0.842605
 12
-0.636928
 22
3.207888
 32
-0.842605
 13
-0.623685
 23
3.207888
 33
-0.909119
 62
1
  0
3DFACE
  8
Cylinder5
 10
0.213386
 20
3.207888
 30
-0.946071
 11
0.192786
 21
3.207888
 31
-0.842605
 12
0.192786
 22
1.032966
 32
-0.842605
 13
0.213386
 23
1.032966
 33
-0.946071
 62
0
  0
3DFACE
  8
Cylinder5
 10
0.272050
 20
3.207888
 30
-1.033785
 11
0.213386
 21
3.207888
 31
-0.946071
 12
0.213386
 22
1.032966
 32
-0.946071
 13
0.272050
 23
1.032966
 33
-1.033784
 62
0
  0
3DFACE
  8
Cylinder5
 10
0.359847
 20
3.207888
 30
-1.092393
 11
0.272050
 21
3.207888
 31
-1.033785
 12
0.272050
 22
1.032966
 32
-1.033784
 13
0.359848
 23
1.032966
 33
-1.092393
 62
0
  0
3DFACE
  8
Cylinder5
 10
0.463411
 20
3.207888
 30
-1.112974
 11
0.359847
 21
3.207888
 31
-1.092393
 12
0.359848
 22
1.032966
 32
-1.092393
 13
0.463411
 23
1.032966
 33
-1.112974
 62
0
  0
3DFACE
  8
Cylinder5
 10
0.566975
 20
3.207888
 30
-1.092393
 11
0.463411
 21
3.207888
 31
-1.112974
 12
0.463411
 22
1.032966
 32
-1.112974
 13
0.566975
 23
1.032966
 33
-1.092393
 62
0
  0
3DFACE
  8
Cylinder5
 10
0.654773
 20
3.207888
 30
-1.033785
 11
0.566975
 21
3.207888
 31
-1.092393
 12
0.566975
 22
1.032966
 32
-1.092393
 13
0.654772
 23
1.032966
 33
-1.033784
 62
0
  0
3DFACE
  8
Cylinder5
 10
0.713437
 20
3.207888
 30
-0.946071
 11
0.654773
 21
3.207888
 31
-1.033785
 12
0.654772
 22
1.032966
 32
-1.033784
 13
0.713436
 23
1.032966
 33
-0.946071
 62
0
  0
3DFACE
  8
Cylinder5
 10
0.734037
 20
3.207888
 30
-0.842605
 11
0.713437
 21
3.207888
 31
-0.946071
 12
0.713436
 22
1.032966
 32
-0.946071
 13
0.734037
 23
1.032966
 33
-0.842605
 62
0
  0
3DFACE
  8
Cylinder5
 10
0.713437
 20
3.207888
 30
-0.739139
 11
0.734037
 21
3.207888
 31
-0.842605
 12
0.734037
 22
1.032966
 32
-0.842605
 13
0.713436
 23
1.032966
 33
-0.739139
 62
0
  0
3DFACE
  8
Cylinder5
 10
0.654773
 20
3.207888
 30
-0.651425
 11
0.713437
 21
3.207888
 31
-0.739139
 12
0.713436
 22
1.032966
 32
-0.739139
 13
0.654772
 23
1.032966
 33
-0.651426
 62
0
  0
3DFACE
  8
Cylinder5
 10
0.566975
 20
3.207888
 30
-0.592817
 11
0.654773
 21
3.207888
 31
-0.651425
 12
0.654772
 22
1.032966
 32
-0.651426
 13
0.566975
 23
1.032966
 33
-0.592817
 62
0
  0
3DFACE
  8
Cylinder5
 10
0.463411
 20
3.207888
 30
-0.572236
 11
0.566975
 21
3.207888
 31
-0.592817
 12
0.566975
 22
1.032966
 32
-0.592817
 13
0.463411
 23
1.032966
 33
-0.572236
 62
0
  0
3DFACE
  8
Cylinder5
 10
0.359847
 20
3.207888
 30
-0.592817
 11
0.463411
 21
3.207888
 31
-0.572236
 12
0.463411
 22
1.032966
 32
-0.572236
 13
0.359848
 23
1.032966
 33
-0.592817
 62
0
  0
3DFACE
  8
Cylinder5
 10
0.272050
 20
3.207888
 30
-0.651425
 11
0.359847
 21
3.207888
 31
-0.592817
 12
0.359848
 22
1.032966
 32
-0.592817
 13
0.272050
 23
1.032966
 33
-0.651426
 62
0
  0
3DFACE
  8
Cylinder5
 10
0.213386
 20
3.207888
 30
-0.739139
 11
0.272050
 21
3.207888
 31
-0.651425
 12
0.272050
 22
1.032966
 32
-0.651426
 13
0.213386
 23
1.032966
 33
-0.739139
 62
0
  0
3DFACE
  8
Cylinder5
 10
0.192786
 20
3.207888
 30
-0.842605
 11
0.213386
 21
3.207888
 31
-0.739139
 12
0.213386
 22
1.032966
 32
-0.739139
 13
0.192786
 23
1.032966
 33
-0.842605
 62
0
  0
3DFACE
  8
Cylinder5
 10
0.359848
 20
1.032966
 30
-1.092393
 11
0.566975
 21
1.032966
 31
-1.092393
 12
0.463411
 22
1.032966
 32
-1.112974
 13
0.463411
 23
1.032966
 33
-1.112974
 62
0
  0
3DFACE
  8
Cylinder5
 10
0.654772
 20
1.032966
 30
-1.033784
 11
0.566975
 21
1.032966
 31
-1.092393
 12
0.359848
 22
1.032966
 32
-1.092393
 13
0.359848
 23
1.032966
 33
-1.092393
 62
0
  0
3DFACE
  8
Cylinder5
 10
0.272050
 20
1.032966
 30
-1.033784
 11
0.654772
 21
1.032966
 31
-1.033784
 12
0.359848
 22
1.032966
 32
-1.092393
 13
0.359848
 23
1.032966
 33
-1.092393
 62
0
  0
3DFACE
  8
Cylinder5
 10
0.713436
 20
1.032966
 30
-0.946071
 11
0.654772
 21
1.032966
 31
-1.033784
 12
0.272050
 22
1.032966
 32
-1.033784
 13
0.272050
 23
1.032966
 33
-1.033784
 62
0
  0
3DFACE
  8
Cylinder5
 10
0.213386
 20
1.032966
 30
-0.946071
 11
0.713436
 21
1.032966
 31
-0.946071
 12
0.272050
 22
1.032966
 32
-1.033784
 13
0.272050
 23
1.032966
 33
-1.033784
 62
0
  0
3DFACE
  8
Cylinder5
 10
0.192786
 20
1.032966
 30
-0.842605
 11
0.713436
 21
1.032966
 31
-0.946071
 12
0.213386
 22
1.032966
 32
-0.946071
 13
0.213386
 23
1.032966
 33
-0.946071
 62
0
  0
3DFACE
  8
Cylinder5
 10
0.734037
 20
1.032966
 30
-0.842605
 11
0.713436
 21
1.032966
 31
-0.946071
 12
0.192786
 22
1.032966
 32
-0.842605
 13
0.192786
 23
1.032966
 33
-0.842605
 62
0
  0
3DFACE
  8
Cylinder5
 10
0.713436
 20
1.032966
 30
-0.739139
 11
0.734037
 21
1.032966
 31
-0.842605
 12
0.192786
 22
1.032966
 32
-0.842605
 13
0.192786
 23
1.032966
 33
-0.842605
 62
0
  0
3DFACE
  8
Cylinder5
 10
0.213386
 20
1.032966
 30
-0.739139
 11
0.713436
 21
1.032966
 31
-0.739139
 12
0.192786
 22
1.032966
 32
-0.842605
 13
0.192786
 23
1.032966
 33
-0.842605
 62
0
  0
3DFACE
  8
Cylinder5
 10
0.654772
 20
1.032966
 30
-0.651426
 11
0.713436
 21
1.032966
 31
-0.739139
 12
0.213386
 22
1.032966
 32
-0.739139
 13
0.213386
 23
1.032966
 33
-0.739139
 62
0
  0
3DFACE
  8
Cylinder5
 10
0.272050
 20
1.032966
 30
-0.651426
 11
0.654772
 21
1.032966
 31
-0.651426
 12
0.213386
 22
1.032966
 32
-0.739139
 13
0.213386
 23
1.032966
 33
-0.739139
 62
0
  0
3DFACE
  8
Cylinder5
 10
0.566975
 20
1.032966
 30
-0.592817
 11
0.654772
 21
1.032966
 31
-0.651426
 12
0.272050
 22
1.032966
 32
-0.651426
 13
0.272050
 23
1.032966
 33
-0.651426
 62
0
  0
3DFACE
  8
Cylinder5
 10
0.359848
 20
1.032966
 30
-0.592817
 11
0.566975
 21
1.032966
 31
-0.592817
 12
0.272050
 22
1.032966
 32
-0.651426
 13
0.272050
 23
1.032966
 33
-0.651426
 62
0
  0
3DFACE
  8
Cylinder5
 10
0.463411
 20
1.032966
 30
-0.572236
 11
0.566975
 21
1.032966
 31
-0.592817
 12
0.359848
 22
1.032966
 32
-0.592817
 13
0.359848
 23
1.032966
 33
-0.592817
 62
0
  0
3DFACE
  8
Cylinder5
 10
0.396834
 20
3.207888
 30
-1.003183
 11
0.272050
 21
3.207888
 31
-1.033785
 12
0.463411
 22
3.207888
 32
-1.016414
 13
0.463411
 23
3.207888
 33
-1.016414
 62
0
  0
3DFACE
  8
Cylinder5
 10
0.340393
 20
3.207888
 30
-0.965506
 11
0.272050
 21
3.207888
 31
-1.033785
 12
0.396834
 22
3.207888
 32
-1.003183
 13
0.396834
 23
3.207888
 33
-1.003183
 62
0
  0
3DFACE
  8
Cylinder5
 10
0.213386
 20
3.207888
 30
-0.946071
 11
0.272050
 21
3.207888
 31
-1.033785
 12
0.340393
 22
3.207888
 32
-0.965506
 13
0.340393
 23
3.207888
 33
-0.965506
 62
0
  0
3DFACE
  8
Cylinder5
 10
0.302681
 20
3.207888
 30
-0.909119
 11
0.213386
 21
3.207888
 31
-0.946071
 12
0.340393
 22
3.207888
 32
-0.965506
 13
0.340393
 23
3.207888
 33
-0.965506
 62
0
  0
3DFACE
  8
Cylinder5
 10
0.192786
 20
3.207888
 30
-0.842605
 11
0.213386
 21
3.207888
 31
-0.946071
 12
0.302681
 22
3.207888
 32
-0.909119
 13
0.302681
 23
3.207888
 33
-0.909119
 62
0
  0
3DFACE
  8
Cylinder5
 10
0.289438
 20
3.207888
 30
-0.842605
 11
0.192786
 21
3.207888
 31
-0.842605
 12
0.302681
 22
3.207888
 32
-0.909119
 13
0.302681
 23
3.207888
 33
-0.909119
 62
0
  0
3DFACE
  8
Cylinder5
 10
0.302681
 20
3.207888
 30
-0.776091
 11
0.192786
 21
3.207888
 31
-0.842605
 12
0.289438
 22
3.207888
 32
-0.842605
 13
0.289438
 23
3.207888
 33
-0.842605
 62
0
  0
3DFACE
  8
Cylinder5
 10
0.213386
 20
3.207888
 30
-0.739139
 11
0.192786
 21
3.207888
 31
-0.842605
 12
0.302681
 22
3.207888
 32
-0.776091
 13
0.302681
 23
3.207888
 33
-0.776091
 62
0
  0
3DFACE
  8
Cylinder5
 10
0.340393
 20
3.207888
 30
-0.719704
 11
0.213386
 21
3.207888
 31
-0.739139
 12
0.302681
 22
3.207888
 32
-0.776091
 13
0.302681
 23
3.207888
 33
-0.776091
 62
0
  0
3DFACE
  8
Cylinder5
 10
0.396834
 20
3.207888
 30
-0.682027
 11
0.213386
 21
3.207888
 31
-0.739139
 12
0.340393
 22
3.207888
 32
-0.719704
 13
0.340393
 23
3.207888
 33
-0.719704
 62
0
  0
3DFACE
  8
Cylinder5
 10
0.272050
 20
3.207888
 30
-0.651425
 11
0.213386
 21
3.207888
 31
-0.739139
 12
0.396834
 22
3.207888
 32
-0.682027
 13
0.396834
 23
3.207888
 33
-0.682027
 62
0
  0
3DFACE
  8
Cylinder5
 10
0.272050
 20
3.207888
 30
-0.651425
 11
0.396834
 21
3.207888
 31
-0.682027
 12
0.463411
 22
3.207888
 32
-0.668796
 13
0.463411
 23
3.207888
 33
-0.668796
 62
0
  0
3DFACE
  8
Cylinder5
 10
0.654773
 20
3.207888
 30
-0.651425
 11
0.272050
 21
3.207888
 31
-0.651425
 12
0.463411
 22
3.207888
 32
-0.668796
 13
0.463411
 23
3.207888
 33
-0.668796
 62
0
  0
3DFACE
  8
Cylinder5
 10
0.359847
 20
3.207888
 30
-0.592817
 11
0.272050
 21
3.207888
 31
-0.651425
 12
0.654773
 22
3.207888
 32
-0.651425
 13
0.654773
 23
3.207888
 33
-0.651425
 62
0
  0
3DFACE
  8
Cylinder5
 10
0.566975
 20
3.207888
 30
-0.592817
 11
0.359847
 21
3.207888
 31
-0.592817
 12
0.654773
 22
3.207888
 32
-0.651425
 13
0.654773
 23
3.207888
 33
-0.651425
 62
0
  0
3DFACE
  8
Cylinder5
 10
0.463411
 20
3.207888
 30
-0.572236
 11
0.359847
 21
3.207888
 31
-0.592817
 12
0.566975
 22
3.207888
 32
-0.592817
 13
0.566975
 23
3.207888
 33
-0.592817
 62
0
  0
3DFACE
  8
Cylinder5
 10
0.566975
 20
3.207888
 30
-1.092393
 11
0.359847
 21
3.207888
 31
-1.092393
 12
0.463411
 22
3.207888
 32
-1.112974
 13
0.463411
 23
3.207888
 33
-1.112974
 62
0
  0
3DFACE
  8
Cylinder5
 10
0.272050
 20
3.207888
 30
-1.033785
 11
0.359847
 21
3.207888
 31
-1.092393
 12
0.566975
 22
3.207888
 32
-1.092393
 13
0.566975
 23
3.207888
 33
-1.092393
 62
0
  0
3DFACE
  8
Cylinder5
 10
0.654773
 20
3.207888
 30
-1.033785
 11
0.272050
 21
3.207888
 31
-1.033785
 12
0.566975
 22
3.207888
 32
-1.092393
 13
0.566975
 23
3.207888
 33
-1.092393
 62
0
  0
3DFACE
  8
Cylinder5
 10
0.463411
 20
3.207888
 30
-1.016414
 11
0.272050
 21
3.207888
 31
-1.033785
 12
0.654773
 22
3.207888
 32
-1.033785
 13
0.654773
 23
3.207888
 33
-1.033785
 62
0
  0
3DFACE
  8
Cylinder5
 10
0.529988
 20
3.207888
 30
-1.003183
 11
0.463411
 21
3.207888
 31
-1.016414
 12
0.654773
 22
3.207888
 32
-1.033785
 13
0.654773
 23
3.207888
 33
-1.033785
 62
0
  0
3DFACE
  8
Cylinder5
 10
0.586429
 20
3.207888
 30
-0.965506
 11
0.529988
 21
3.207888
 31
-1.003183
 12
0.654773
 22
3.207888
 32
-1.033785
 13
0.654773
 23
3.207888
 33
-1.033785
 62
0
  0
3DFACE
  8
Cylinder5
 10
0.713437
 20
3.207888
 30
-0.946071
 11
0.586429
 21
3.207888
 31
-0.965506
 12
0.654773
 22
3.207888
 32
-1.033785
 13
0.654773
 23
3.207888
 33
-1.033785
 62
0
  0
3DFACE
  8
Cylinder5
 10
0.624142
 20
3.207888
 30
-0.909119
 11
0.586429
 21
3.207888
 31
-0.965506
 12
0.713437
 22
3.207888
 32
-0.946071
 13
0.713437
 23
3.207888
 33
-0.946071
 62
0
  0
3DFACE
  8
Cylinder5
 10
0.637385
 20
3.207888
 30
-0.842605
 11
0.624142
 21
3.207888
 31
-0.909119
 12
0.713437
 22
3.207888
 32
-0.946071
 13
0.713437
 23
3.207888
 33
-0.946071
 62
0
  0
3DFACE
  8
Cylinder5
 10
0.734037
 20
3.207888
 30
-0.842605
 11
0.637385
 21
3.207888
 31
-0.842605
 12
0.713437
 22
3.207888
 32
-0.946071
 13
0.713437
 23
3.207888
 33
-0.946071
 62
0
  0
3DFACE
  8
Cylinder5
 10
0.624142
 20
3.207888
 30
-0.776091
 11
0.637385
 21
3.207888
 31
-0.842605
 12
0.734037
 22
3.207888
 32
-0.842605
 13
0.734037
 23
3.207888
 33
-0.842605
 62
0
  0
3DFACE
  8
Cylinder5
 10
0.713437
 20
3.207888
 30
-0.739139
 11
0.624142
 21
3.207888
 31
-0.776091
 12
0.734037
 22
3.207888
 32
-0.842605
 13
0.734037
 23
3.207888
 33
-0.842605
 62
0
  0
3DFACE
  8
Cylinder5
 10
0.586429
 20
3.207888
 30
-0.719704
 11
0.624142
 21
3.207888
 31
-0.776091
 12
0.713437
 22
3.207888
 32
-0.739139
 13
0.713437
 23
3.207888
 33
-0.739139
 62
0
  0
3DFACE
  8
Cylinder5
 10
0.529988
 20
3.207888
 30
-0.682027
 11
0.586429
 21
3.207888
 31
-0.719704
 12
0.713437
 22
3.207888
 32
-0.739139
 13
0.713437
 23
3.207888
 33
-0.739139
 62
0
  0
3DFACE
  8
Cylinder5
 10
0.654773
 20
3.207888
 30
-0.651425
 11
0.529988
 21
3.207888
 31
-0.682027
 12
0.713437
 22
3.207888
 32
-0.739139
 13
0.713437
 23
3.207888
 33
-0.739139
 62
0
  0
3DFACE
  8
Cylinder5
 10
0.654773
 20
3.207888
 30
-0.651425
 11
0.463411
 21
3.207888
 31
-0.668796
 12
0.529988
 22
3.207888
 32
-0.682027
 13
0.529988
 23
3.207888
 33
-0.682027
 62
0
  0
3DFACE
  8
Cylinder5
 10
0.624141
 20
1.637576
 30
-0.776091
 11
0.637384
 21
1.637576
 31
-0.842605
 12
0.637385
 22
3.207888
 32
-0.842605
 13
0.624142
 23
3.207888
 33
-0.776091
 62
1
  0
3DFACE
  8
Cylinder5
 10
0.586428
 20
1.637576
 30
-0.719703
 11
0.624141
 21
1.637576
 31
-0.776091
 12
0.624142
 22
3.207888
 32
-0.776091
 13
0.586429
 23
3.207888
 33
-0.719704
 62
1
  0
3DFACE
  8
Cylinder5
 10
0.529988
 20
1.637576
 30
-0.682026
 11
0.586428
 21
1.637576
 31
-0.719703
 12
0.586429
 22
3.207888
 32
-0.719704
 13
0.529988
 23
3.207888
 33
-0.682027
 62
1
  0
3DFACE
  8
Cylinder5
 10
0.463411
 20
1.637576
 30
-0.668796
 11
0.529988
 21
1.637576
 31
-0.682026
 12
0.529988
 22
3.207888
 32
-0.682027
 13
0.463411
 23
3.207888
 33
-0.668796
 62
1
  0
3DFACE
  8
Cylinder5
 10
0.396835
 20
1.637576
 30
-0.682026
 11
0.463411
 21
1.637576
 31
-0.668796
 12
0.463411
 22
3.207888
 32
-0.668796
 13
0.396834
 23
3.207888
 33
-0.682027
 62
1
  0
3DFACE
  8
Cylinder5
 10
0.340394
 20
1.637576
 30
-0.719703
 11
0.396835
 21
1.637576
 31
-0.682026
 12
0.396834
 22
3.207888
 32
-0.682027
 13
0.340393
 23
3.207888
 33
-0.719704
 62
1
  0
3DFACE
  8
Cylinder5
 10
0.302682
 20
1.637576
 30
-0.776091
 11
0.340394
 21
1.637576
 31
-0.719703
 12
0.340393
 22
3.207888
 32
-0.719704
 13
0.302681
 23
3.207888
 33
-0.776091
 62
1
  0
3DFACE
  8
Cylinder5
 10
0.289439
 20
1.637576
 30
-0.842605
 11
0.302682
 21
1.637576
 31
-0.776091
 12
0.302681
 22
3.207888
 32
-0.776091
 13
0.289438
 23
3.207888
 33
-0.842605
 62
1
  0
3DFACE
  8
Cylinder5
 10
0.529988
 20
1.637576
 30
-1.003184
 11
0.396835
 21
1.637576
 31
-1.003184
 12
0.463411
 22
1.637576
 32
-1.016414
 13
0.463411
 23
1.637576
 33
-1.016414
 62
1
  0
3DFACE
  8
Cylinder5
 10
0.340394
 20
1.637576
 30
-0.965507
 11
0.396835
 21
1.637576
 31
-1.003184
 12
0.529988
 22
1.637576
 32
-1.003184
 13
0.529988
 23
1.637576
 33
-1.003184
 62
1
  0
3DFACE
  8
Cylinder5
 10
0.586428
 20
1.637576
 30
-0.965507
 11
0.340394
 21
1.637576
 31
-0.965507
 12
0.529988
 22
1.637576
 32
-1.003184
 13
0.529988
 23
1.637576
 33
-1.003184
 62
1
  0
3DFACE
  8
Cylinder5
 10
0.302682
 20
1.637576
 30
-0.909119
 11
0.340394
 21
1.637576
 31
-0.965507
 12
0.586428
 22
1.637576
 32
-0.965507
 13
0.586428
 23
1.637576
 33
-0.965507
 62
1
  0
3DFACE
  8
Cylinder5
 10
0.624141
 20
1.637576
 30
-0.909119
 11
0.302682
 21
1.637576
 31
-0.909119
 12
0.586428
 22
1.637576
 32
-0.965507
 13
0.586428
 23
1.637576
 33
-0.965507
 62
1
  0
3DFACE
  8
Cylinder5
 10
0.289439
 20
1.637576
 30
-0.842605
 11
0.302682
 21
1.637576
 31
-0.909119
 12
0.624141
 22
1.637576
 32
-0.909119
 13
0.624141
 23
1.637576
 33
-0.909119
 62
1
  0
3DFACE
  8
Cylinder5
 10
0.637384
 20
1.637576
 30
-0.842605
 11
0.289439
 21
1.637576
 31
-0.842605
 12
0.624141
 22
1.637576
 32
-0.909119
 13
0.624141
 23
1.637576
 33
-0.909119
 62
1
  0
3DFACE
  8
Cylinder5
 10
0.302682
 20
1.637576
 30
-0.776091
 11
0.289439
 21
1.637576
 31
-0.842605
 12
0.637384
 22
1.637576
 32
-0.842605
 13
0.637384
 23
1.637576
 33
-0.842605
 62
1
  0
3DFACE
  8
Cylinder5
 10
0.624141
 20
1.637576
 30
-0.776091
 11
0.302682
 21
1.637576
 31
-0.776091
 12
0.637384
 22
1.637576
 32
-0.842605
 13
0.637384
 23
1.637576
 33
-0.842605
 62
1
  0
3DFACE
  8
Cylinder5
 10
0.340394
 20
1.637576
 30
-0.719703
 11
0.302682
 21
1.637576
 31
-0.776091
 12
0.624141
 22
1.637576
 32
-0.776091
 13
0.624141
 23
1.637576
 33
-0.776091
 62
1
  0
3DFACE
  8
Cylinder5
 10
0.586428
 20
1.637576
 30
-0.719703
 11
0.340394
 21
1.637576
 31
-0.719703
 12
0.624141
 22
1.637576
 32
-0.776091
 13
0.624141
 23
1.637576
 33
-0.776091
 62
1
  0
3DFACE
  8
Cylinder5
 10
0.396835
 20
1.637576
 30
-0.682026
 11
0.340394
 21
1.637576
 31
-0.719703
 12
0.586428
 22
1.637576
 32
-0.719703
 13
0.586428
 23
1.637576
 33
-0.719703
 62
1
  0
3DFACE
  8
Cylinder5
 10
0.529988
 20
1.637576
 30
-0.682026
 11
0.396835
 21
1.637576
 31
-0.682026
 12
0.586428
 22
1.637576
 32
-0.719703
 13
0.586428
 23
1.637576
 33
-0.719703
 62
1
  0
3DFACE
  8
Cylinder5
 10
0.463411
 20
1.637576
 30
-0.668796
 11
0.396835
 21
1.637576
 31
-0.682026
 12
0.529988
 22
1.637576
 32
-0.682026
 13
0.529988
 23
1.637576
 33
-0.682026
 62
1
  0
3DFACE
  8
Cylinder5
 10
0.624141
 20
1.637576
 30
-0.909119
 11
0.586428
 21
1.637576
 31
-0.965507
 12
0.586429
 22
3.207888
 32
-0.965506
 13
0.624142
 23
3.207888
 33
-0.909119
 62
1
  0
3DFACE
  8
Cylinder5
 10
0.637384
 20
1.637576
 30
-0.842605
 11
0.624141
 21
1.637576
 31
-0.909119
 12
0.624142
 22
3.207888
 32
-0.909119
 13
0.637385
 23
3.207888
 33
-0.842605
 62
1
  0
3DFACE
  8
Cylinder5
 10
0.586428
 20
1.637576
 30
-0.965507
 11
0.529988
 21
1.637576
 31
-1.003184
 12
0.529988
 22
3.207888
 32
-1.003183
 13
0.586429
 23
3.207888
 33
-0.965506
 62
1
  0
3DFACE
  8
Cylinder5
 10
0.529988
 20
1.637576
 30
-1.003184
 11
0.463411
 21
1.637576
 31
-1.016414
 12
0.463411
 22
3.207888
 32
-1.016414
 13
0.529988
 23
3.207888
 33
-1.003183
 62
1
  0
3DFACE
  8
Cylinder5
 10
0.463411
 20
1.637576
 30
-1.016414
 11
0.396835
 21
1.637576
 31
-1.003184
 12
0.396834
 22
3.207888
 32
-1.003183
 13
0.463411
 23
3.207888
 33
-1.016414
 62
1
  0
3DFACE
  8
Cylinder5
 10
0.396835
 20
1.637576
 30
-1.003184
 11
0.340394
 21
1.637576
 31
-0.965507
 12
0.340393
 22
3.207888
 32
-0.965506
 13
0.396834
 23
3.207888
 33
-1.003183
 62
1
  0
3DFACE
  8
Cylinder5
 10
0.340394
 20
1.637576
 30
-0.965507
 11
0.302682
 21
1.637576
 31
-0.909119
 12
0.302681
 22
3.207888
 32
-0.909119
 13
0.340393
 23
3.207888
 33
-0.965506
 62
1
  0
3DFACE
  8
Cylinder5
 10
0.302682
 20
1.637576
 30
-0.909119
 11
0.289439
 21
1.637576
 31
-0.842605
 12
0.289438
 22
3.207888
 32
-0.842605
 13
0.302681
 23
3.207888
 33
-0.909119
 62
1
  0
3DFACE
  8
Cylinder7
 10
-0.249944
 20
2.441788
 30
-1.450687
 11
-0.270544
 21
2.441788
 31
-1.347221
 12
-0.270544
 22
0.624687
 32
-1.347221
 13
-0.249943
 23
0.624687
 33
-1.450687
 62
0
  0
3DFACE
  8
Cylinder7
 10
-0.191280
 20
2.441788
 30
-1.538401
 11
-0.249944
 21
2.441788
 31
-1.450687
 12
-0.249943
 22
0.624687
 32
-1.450687
 13
-0.191280
 23
0.624687
 33
-1.538400
 62
0
  0
3DFACE
  8
Cylinder7
 10
-0.103482
 20
2.441788
 30
-1.597010
 11
-0.191280
 21
2.441788
 31
-1.538401
 12
-0.191280
 22
0.624687
 32
-1.538400
 13
-0.103482
 23
0.624687
 33
-1.597008
 62
0
  0
3DFACE
  8
Cylinder7
 10
0.000082
 20
2.441788
 30
-1.617590
 11
-0.103482
 21
2.441788
 31
-1.597010
 12
-0.103482
 22
0.624687
 32
-1.597008
 13
0.000082
 23
0.624687
 33
-1.617588
 62
0
  0
3DFACE
  8
Cylinder7
 10
0.103646
 20
2.441788
 30
-1.597010
 11
0.000082
 21
2.441788
 31
-1.617590
 12
0.000082
 22
0.624687
 32
-1.617588
 13
0.103645
 23
0.624687
 33
-1.597008
 62
0
  0
3DFACE
  8
Cylinder7
 10
0.191443
 20
2.441788
 30
-1.538401
 11
0.103646
 21
2.441788
 31
-1.597010
 12
0.103645
 22
0.624687
 32
-1.597008
 13
0.191443
 23
0.624687
 33
-1.538400
 62
0
  0
3DFACE
  8
Cylinder7
 10
0.250107
 20
2.441788
 30
-1.450687
 11
0.191443
 21
2.441788
 31
-1.538401
 12
0.191443
 22
0.624687
 32
-1.538400
 13
0.250107
 23
0.624687
 33
-1.450687
 62
0
  0
3DFACE
  8
Cylinder7
 10
0.270707
 20
2.441788
 30
-1.347221
 11
0.250107
 21
2.441788
 31
-1.450687
 12
0.250107
 22
0.624687
 32
-1.450687
 13
0.270707
 23
0.624687
 33
-1.347221
 62
0
  0
3DFACE
  8
Cylinder7
 10
0.250107
 20
2.441787
 30
-1.243756
 11
0.270707
 21
2.441788
 31
-1.347221
 12
0.270707
 22
0.624687
 32
-1.347221
 13
0.250107
 23
0.624687
 33
-1.243756
 62
0
  0
3DFACE
  8
Cylinder7
 10
0.191443
 20
2.441787
 30
-1.156042
 11
0.250107
 21
2.441787
 31
-1.243756
 12
0.250107
 22
0.624687
 32
-1.243756
 13
0.191443
 23
0.624687
 33
-1.156043
 62
0
  0
3DFACE
  8
Cylinder7
 10
0.103646
 20
2.441787
 30
-1.097433
 11
0.191443
 21
2.441787
 31
-1.156042
 12
0.191443
 22
0.624687
 32
-1.156043
 13
0.103645
 23
0.624687
 33
-1.097435
 62
0
  0
3DFACE
  8
Cylinder7
 10
0.000082
 20
2.441787
 30
-1.076853
 11
0.103646
 21
2.441787
 31
-1.097433
 12
0.103645
 22
0.624687
 32
-1.097435
 13
0.000082
 23
0.624687
 33
-1.076854
 62
0
  0
3DFACE
  8
Cylinder7
 10
-0.103482
 20
2.441787
 30
-1.097433
 11
0.000082
 21
2.441787
 31
-1.076853
 12
0.000082
 22
0.624687
 32
-1.076854
 13
-0.103482
 23
0.624687
 33
-1.097435
 62
0
  0
3DFACE
  8
Cylinder7
 10
-0.191280
 20
2.441787
 30
-1.156042
 11
-0.103482
 21
2.441787
 31
-1.097433
 12
-0.103482
 22
0.624687
 32
-1.097435
 13
-0.191280
 23
0.624687
 33
-1.156043
 62
0
  0
3DFACE
  8
Cylinder7
 10
-0.249944
 20
2.441787
 30
-1.243756
 11
-0.191280
 21
2.441787
 31
-1.156042
 12
-0.191280
 22
0.624687
 32
-1.156043
 13
-0.249943
 23
0.624687
 33
-1.243756
 62
0
  0
3DFACE
  8
Cylinder7
 10
-0.270544
 20
2.441788
 30
-1.347221
 11
-0.249944
 21
2.441787
 31
-1.243756
 12
-0.249943
 22
0.624687
 32
-1.243756
 13
-0.270544
 23
0.624687
 33
-1.347221
 62
0
  0
3DFACE
  8
Cylinder7
 10
-0.103482
 20
0.624687
 30
-1.597008
 11
0.103645
 21
0.624687
 31
-1.597008
 12
0.000082
 22
0.624687
 32
-1.617588
 13
0.000082
 23
0.624687
 33
-1.617588
 62
0
  0
3DFACE
  8
Cylinder7
 10
0.191443
 20
0.624687
 30
-1.538400
 11
0.103645
 21
0.624687
 31
-1.597008
 12
-0.103482
 22
0.624687
 32
-1.597008
 13
-0.103482
 23
0.624687
 33
-1.597008
 62
0
  0
3DFACE
  8
Cylinder7
 10
-0.191280
 20
0.624687
 30
-1.538400
 11
0.191443
 21
0.624687
 31
-1.538400
 12
-0.103482
 22
0.624687
 32
-1.597008
 13
-0.103482
 23
0.624687
 33
-1.597008
 62
0
  0
3DFACE
  8
Cylinder7
 10
0.250107
 20
0.624687
 30
-1.450687
 11
0.191443
 21
0.624687
 31
-1.538400
 12
-0.191280
 22
0.624687
 32
-1.538400
 13
-0.191280
 23
0.624687
 33
-1.538400
 62
0
  0
3DFACE
  8
Cylinder7
 10
-0.249943
 20
0.624687
 30
-1.450687
 11
0.250107
 21
0.624687
 31
-1.450687
 12
-0.191280
 22
0.624687
 32
-1.538400
 13
-0.191280
 23
0.624687
 33
-1.538400
 62
0
  0
3DFACE
  8
Cylinder7
 10
-0.270544
 20
0.624687
 30
-1.347221
 11
0.250107
 21
0.624687
 31
-1.450687
 12
-0.249943
 22
0.624687
 32
-1.450687
 13
-0.249943
 23
0.624687
 33
-1.450687
 62
0
  0
3DFACE
  8
Cylinder7
 10
0.270707
 20
0.624687
 30
-1.347221
 11
0.250107
 21
0.624687
 31
-1.450687
 12
-0.270544
 22
0.624687
 32
-1.347221
 13
-0.270544
 23
0.624687
 33
-1.347221
 62
0
  0
3DFACE
  8
Cylinder7
 10
0.250107
 20
0.624687
 30
-1.243756
 11
0.270707
 21
0.624687
 31
-1.347221
 12
-0.270544
 22
0.624687
 32
-1.347221
 13
-0.270544
 23
0.624687
 33
-1.347221
 62
0
  0
3DFACE
  8
Cylinder7
 10
-0.249943
 20
0.624687
 30
-1.243756
 11
0.250107
 21
0.624687
 31
-1.243756
 12
-0.270544
 22
0.624687
 32
-1.347221
 13
-0.270544
 23
0.624687
 33
-1.347221
 62
0
  0
3DFACE
  8
Cylinder7
 10
0.191443
 20
0.624687
 30
-1.156043
 11
0.250107
 21
0.624687
 31
-1.243756
 12
-0.249943
 22
0.624687
 32
-1.243756
 13
-0.249943
 23
0.624687
 33
-1.243756
 62
0
  0
3DFACE
  8
Cylinder7
 10
-0.191280
 20
0.624687
 30
-1.156043
 11
0.191443
 21
0.624687
 31
-1.156043
 12
-0.249943
 22
0.624687
 32
-1.243756
 13
-0.249943
 23
0.624687
 33
-1.243756
 62
0
  0
3DFACE
  8
Cylinder7
 10
0.103645
 20
0.624687
 30
-1.097435
 11
0.191443
 21
0.624687
 31
-1.156043
 12
-0.191280
 22
0.624687
 32
-1.156043
 13
-0.191280
 23
0.624687
 33
-1.156043
 62
0
  0
3DFACE
  8
Cylinder7
 10
-0.103482
 20
0.624687
 30
-1.097435
 11
0.103645
 21
0.624687
 31
-1.097435
 12
-0.191280
 22
0.624687
 32
-1.156043
 13
-0.191280
 23
0.624687
 33
-1.156043
 62
0
  0
3DFACE
  8
Cylinder7
 10
0.000082
 20
0.624687
 30
-1.076854
 11
0.103645
 21
0.624687
 31
-1.097435
 12
-0.103482
 22
0.624687
 32
-1.097435
 13
-0.103482
 23
0.624687
 33
-1.097435
 62
0
  0
3DFACE
  8
Cylinder7
 10
-0.066495
 20
2.441788
 30
-1.507800
 11
-0.191280
 21
2.441788
 31
-1.538401
 12
0.000082
 22
2.441788
 32
-1.521030
 13
0.000082
 23
2.441788
 33
-1.521030
 62
0
  0
3DFACE
  8
Cylinder7
 10
-0.122936
 20
2.441788
 30
-1.470123
 11
-0.191280
 21
2.441788
 31
-1.538401
 12
-0.066495
 22
2.441788
 32
-1.507800
 13
-0.066495
 23
2.441788
 33
-1.507800
 62
0
  0
3DFACE
  8
Cylinder7
 10
-0.249944
 20
2.441788
 30
-1.450687
 11
-0.191280
 21
2.441788
 31
-1.538401
 12
-0.122936
 22
2.441788
 32
-1.470123
 13
-0.122936
 23
2.441788
 33
-1.470123
 62
0
  0
3DFACE
  8
Cylinder7
 10
-0.160649
 20
2.441788
 30
-1.413735
 11
-0.249944
 21
2.441788
 31
-1.450687
 12
-0.122936
 22
2.441788
 32
-1.470123
 13
-0.122936
 23
2.441788
 33
-1.470123
 62
0
  0
3DFACE
  8
Cylinder7
 10
-0.270544
 20
2.441788
 30
-1.347221
 11
-0.249944
 21
2.441788
 31
-1.450687
 12
-0.160649
 22
2.441788
 32
-1.413735
 13
-0.160649
 23
2.441788
 33
-1.413735
 62
0
  0
3DFACE
  8
Cylinder7
 10
-0.173892
 20
2.441788
 30
-1.347221
 11
-0.270544
 21
2.441788
 31
-1.347221
 12
-0.160649
 22
2.441788
 32
-1.413735
 13
-0.160649
 23
2.441788
 33
-1.413735
 62
0
  0
3DFACE
  8
Cylinder7
 10
-0.160649
 20
2.441787
 30
-1.280708
 11
-0.270544
 21
2.441788
 31
-1.347221
 12
-0.173892
 22
2.441788
 32
-1.347221
 13
-0.173892
 23
2.441788
 33
-1.347221
 62
0
  0
3DFACE
  8
Cylinder7
 10
-0.249944
 20
2.441787
 30
-1.243756
 11
-0.270544
 21
2.441788
 31
-1.347221
 12
-0.160649
 22
2.441787
 32
-1.280708
 13
-0.160649
 23
2.441787
 33
-1.280708
 62
0
  0
3DFACE
  8
Cylinder7
 10
-0.122936
 20
2.441787
 30
-1.224320
 11
-0.249944
 21
2.441787
 31
-1.243756
 12
-0.160649
 22
2.441787
 32
-1.280708
 13
-0.160649
 23
2.441787
 33
-1.280708
 62
0
  0
3DFACE
  8
Cylinder7
 10
-0.066495
 20
2.441787
 30
-1.186643
 11
-0.249944
 21
2.441787
 31
-1.243756
 12
-0.122936
 22
2.441787
 32
-1.224320
 13
-0.122936
 23
2.441787
 33
-1.224320
 62
0
  0
3DFACE
  8
Cylinder7
 10
-0.191280
 20
2.441787
 30
-1.156042
 11
-0.249944
 21
2.441787
 31
-1.243756
 12
-0.066495
 22
2.441787
 32
-1.186643
 13
-0.066495
 23
2.441787
 33
-1.186643
 62
0
  0
3DFACE
  8
Cylinder7
 10
-0.191280
 20
2.441787
 30
-1.156042
 11
-0.066495
 21
2.441787
 31
-1.186643
 12
0.000082
 22
2.441787
 32
-1.173413
 13
0.000082
 23
2.441787
 33
-1.173413
 62
0
  0
3DFACE
  8
Cylinder7
 10
0.191443
 20
2.441787
 30
-1.156042
 11
-0.191280
 21
2.441787
 31
-1.156042
 12
0.000082
 22
2.441787
 32
-1.173413
 13
0.000082
 23
2.441787
 33
-1.173413
 62
0
  0
3DFACE
  8
Cylinder7
 10
-0.103482
 20
2.441787
 30
-1.097433
 11
-0.191280
 21
2.441787
 31
-1.156042
 12
0.191443
 22
2.441787
 32
-1.156042
 13
0.191443
 23
2.441787
 33
-1.156042
 62
0
  0
3DFACE
  8
Cylinder7
 10
0.103646
 20
2.441787
 30
-1.097433
 11
-0.103482
 21
2.441787
 31
-1.097433
 12
0.191443
 22
2.441787
 32
-1.156042
 13
0.191443
 23
2.441787
 33
-1.156042
 62
0
  0
3DFACE
  8
Cylinder7
 10
0.000082
 20
2.441787
 30
-1.076853
 11
-0.103482
 21
2.441787
 31
-1.097433
 12
0.103646
 22
2.441787
 32
-1.097433
 13
0.103646
 23
2.441787
 33
-1.097433
 62
0
  0
3DFACE
  8
Cylinder7
 10
0.103646
 20
2.441788
 30
-1.597010
 11
-0.103482
 21
2.441788
 31
-1.597010
 12
0.000082
 22
2.441788
 32
-1.617590
 13
0.000082
 23
2.441788
 33
-1.617590
 62
0
  0
3DFACE
  8
Cylinder7
 10
-0.191280
 20
2.441788
 30
-1.538401
 11
-0.103482
 21
2.441788
 31
-1.597010
 12
0.103646
 22
2.441788
 32
-1.597010
 13
0.103646
 23
2.441788
 33
-1.597010
 62
0
  0
3DFACE
  8
Cylinder7
 10
0.191443
 20
2.441788
 30
-1.538401
 11
-0.191280
 21
2.441788
 31
-1.538401
 12
0.103646
 22
2.441788
 32
-1.597010
 13
0.103646
 23
2.441788
 33
-1.597010
 62
0
  0
3DFACE
  8
Cylinder7
 10
0.000082
 20
2.441788
 30
-1.521030
 11
-0.191280
 21
2.441788
 31
-1.538401
 12
0.191443
 22
2.441788
 32
-1.538401
 13
0.191443
 23
2.441788
 33
-1.538401
 62
0
  0
3DFACE
  8
Cylinder7
 10
0.066658
 20
2.441788
 30
-1.507800
 11
0.000082
 21
2.441788
 31
-1.521030
 12
0.191443
 22
2.441788
 32
-1.538401
 13
0.191443
 23
2.441788
 33
-1.538401
 62
0
  0
3DFACE
  8
Cylinder7
 10
0.123100
 20
2.441788
 30
-1.470123
 11
0.066658
 21
2.441788
 31
-1.507800
 12
0.191443
 22
2.441788
 32
-1.538401
 13
0.191443
 23
2.441788
 33
-1.538401
 62
0
  0
3DFACE
  8
Cylinder7
 10
0.250107
 20
2.441788
 30
-1.450687
 11
0.123100
 21
2.441788
 31
-1.470123
 12
0.191443
 22
2.441788
 32
-1.538401
 13
0.191443
 23
2.441788
 33
-1.538401
 62
0
  0
3DFACE
  8
Cylinder7
 10
0.160812
 20
2.441788
 30
-1.413735
 11
0.123100
 21
2.441788
 31
-1.470123
 12
0.250107
 22
2.441788
 32
-1.450687
 13
0.250107
 23
2.441788
 33
-1.450687
 62
0
  0
3DFACE
  8
Cylinder7
 10
0.174055
 20
2.441788
 30
-1.347221
 11
0.160812
 21
2.441788
 31
-1.413735
 12
0.250107
 22
2.441788
 32
-1.450687
 13
0.250107
 23
2.441788
 33
-1.450687
 62
0
  0
3DFACE
  8
Cylinder7
 10
0.270707
 20
2.441788
 30
-1.347221
 11
0.174055
 21
2.441788
 31
-1.347221
 12
0.250107
 22
2.441788
 32
-1.450687
 13
0.250107
 23
2.441788
 33
-1.450687
 62
0
  0
3DFACE
  8
Cylinder7
 10
0.160812
 20
2.441787
 30
-1.280708
 11
0.174055
 21
2.441788
 31
-1.347221
 12
0.270707
 22
2.441788
 32
-1.347221
 13
0.270707
 23
2.441788
 33
-1.347221
 62
0
  0
3DFACE
  8
Cylinder7
 10
0.250107
 20
2.441787
 30
-1.243756
 11
0.160812
 21
2.441787
 31
-1.280708
 12
0.270707
 22
2.441788
 32
-1.347221
 13
0.270707
 23
2.441788
 33
-1.347221
 62
0
  0
3DFACE
  8
Cylinder7
 10
0.123100
 20
2.441787
 30
-1.224320
 11
0.160812
 21
2.441787
 31
-1.280708
 12
0.250107
 22
2.441787
 32
-1.243756
 13
0.250107
 23
2.441787
 33
-1.243756
 62
0
  0
3DFACE
  8
Cylinder7
 10
0.066658
 20
2.441787
 30
-1.186643
 11
0.123100
 21
2.441787
 31
-1.224320
 12
0.250107
 22
2.441787
 32
-1.243756
 13
0.250107
 23
2.441787
 33
-1.243756
 62
0
  0
3DFACE
  8
Cylinder7
 10
0.191443
 20
2.441787
 30
-1.156042
 11
0.066658
 21
2.441787
 31
-1.186643
 12
0.250107
 22
2.441787
 32
-1.243756
 13
0.250107
 23
2.441787
 33
-1.243756
 62
0
  0
3DFACE
  8
Cylinder7
 10
0.191443
 20
2.441787
 30
-1.156042
 11
0.000082
 21
2.441787
 31
-1.173413
 12
0.066658
 22
2.441787
 32
-1.186643
 13
0.066658
 23
2.441787
 33
-1.186643
 62
0
  0
3DFACE
  8
Cylinder7
 10
0.160811
 20
1.178833
 30
-1.280707
 11
0.174054
 21
1.178833
 31
-1.347221
 12
0.174055
 22
2.441788
 32
-1.347221
 13
0.160812
 23
2.441787
 33
-1.280708
 62
1
  0
3DFACE
  8
Cylinder7
 10
0.123099
 20
1.178833
 30
-1.224320
 11
0.160811
 21
1.178833
 31
-1.280707
 12
0.160812
 22
2.441787
 32
-1.280708
 13
0.123100
 23
2.441787
 33
-1.224320
 62
1
  0
3DFACE
  8
Cylinder7
 10
0.066658
 20
1.178833
 30
-1.186643
 11
0.123099
 21
1.178833
 31
-1.224320
 12
0.123100
 22
2.441787
 32
-1.224320
 13
0.066658
 23
2.441787
 33
-1.186643
 62
1
  0
3DFACE
  8
Cylinder7
 10
0.000082
 20
1.178833
 30
-1.173413
 11
0.066658
 21
1.178833
 31
-1.186643
 12
0.066658
 22
2.441787
 32
-1.186643
 13
0.000082
 23
2.441787
 33
-1.173413
 62
1
  0
3DFACE
  8
Cylinder7
 10
-0.066495
 20
1.178833
 30
-1.186643
 11
0.000082
 21
1.178833
 31
-1.173413
 12
0.000082
 22
2.441787
 32
-1.173413
 13
-0.066495
 23
2.441787
 33
-1.186643
 62
1
  0
3DFACE
  8
Cylinder7
 10
-0.122936
 20
1.178833
 30
-1.224320
 11
-0.066495
 21
1.178833
 31
-1.186643
 12
-0.066495
 22
2.441787
 32
-1.186643
 13
-0.122936
 23
2.441787
 33
-1.224320
 62
1
  0
3DFACE
  8
Cylinder7
 10
-0.160648
 20
1.178833
 30
-1.280707
 11
-0.122936
 21
1.178833
 31
-1.224320
 12
-0.122936
 22
2.441787
 32
-1.224320
 13
-0.160649
 23
2.441787
 33
-1.280708
 62
1
  0
3DFACE
  8
Cylinder7
 10
-0.173891
 20
1.178833
 30
-1.347221
 11
-0.160648
 21
1.178833
 31
-1.280707
 12
-0.160649
 22
2.441787
 32
-1.280708
 13
-0.173892
 23
2.441788
 33
-1.347221
 62
1
  0
3DFACE
  8
Cylinder7
 10
0.066658
 20
1.178833
 30
-1.507799
 11
-0.066495
 21
1.178833
 31
-1.507799
 12
0.000082
 22
1.178833
 32
-1.521029
 13
0.000082
 23
1.178833
 33
-1.521029
 62
1
  0
3DFACE
  8
Cylinder7
 10
-0.122936
 20
1.178833
 30
-1.470122
 11
-0.066495
 21
1.178833
 31
-1.507799
 12
0.066658
 22
1.178833
 32
-1.507799
 13
0.066658
 23
1.178833
 33
-1.507799
 62
1
  0
3DFACE
  8
Cylinder7
 10
0.123099
 20
1.178833
 30
-1.470122
 11
-0.122936
 21
1.178833
 31
-1.470122
 12
0.066658
 22
1.178833
 32
-1.507799
 13
0.066658
 23
1.178833
 33
-1.507799
 62
1
  0
3DFACE
  8
Cylinder7
 10
-0.160648
 20
1.178833
 30
-1.413735
 11
-0.122936
 21
1.178833
 31
-1.470122
 12
0.123099
 22
1.178833
 32
-1.470122
 13
0.123099
 23
1.178833
 33
-1.470122
 62
1
  0
3DFACE
  8
Cylinder7
 10
0.160811
 20
1.178833
 30
-1.413735
 11
-0.160648
 21
1.178833
 31
-1.413735
 12
0.123099
 22
1.178833
 32
-1.470122
 13
0.123099
 23
1.178833
 33
-1.470122
 62
1
  0
3DFACE
  8
Cylinder7
 10
-0.173891
 20
1.178833
 30
-1.347221
 11
-0.160648
 21
1.178833
 31
-1.413735
 12
0.160811
 22
1.178833
 32
-1.413735
 13
0.160811
 23
1.178833
 33
-1.413735
 62
1
  0
3DFACE
  8
Cylinder7
 10
0.174054
 20
1.178833
 30
-1.347221
 11
-0.173891
 21
1.178833
 31
-1.347221
 12
0.160811
 22
1.178833
 32
-1.413735
 13
0.160811
 23
1.178833
 33
-1.413735
 62
1
  0
3DFACE
  8
Cylinder7
 10
-0.160648
 20
1.178833
 30
-1.280707
 11
-0.173891
 21
1.178833
 31
-1.347221
 12
0.174054
 22
1.178833
 32
-1.347221
 13
0.174054
 23
1.178833
 33
-1.347221
 62
1
  0
3DFACE
  8
Cylinder7
 10
0.160811
 20
1.178833
 30
-1.280707
 11
-0.160648
 21
1.178833
 31
-1.280707
 12
0.174054
 22
1.178833
 32
-1.347221
 13
0.174054
 23
1.178833
 33
-1.347221
 62
1
  0
3DFACE
  8
Cylinder7
 10
-0.122936
 20
1.178833
 30
-1.224320
 11
-0.160648
 21
1.178833
 31
-1.280707
 12
0.160811
 22
1.178833
 32
-1.280707
 13
0.160811
 23
1.178833
 33
-1.280707
 62
1
  0
3DFACE
  8
Cylinder7
 10
0.123099
 20
1.178833
 30
-1.224320
 11
-0.122936
 21
1.178833
 31
-1.224320
 12
0.160811
 22
1.178833
 32
-1.280707
 13
0.160811
 23
1.178833
 33
-1.280707
 62
1
  0
3DFACE
  8
Cylinder7
 10
-0.066495
 20
1.178833
 30
-1.186643
 11
-0.122936
 21
1.178833
 31
-1.224320
 12
0.123099
 22
1.178833
 32
-1.224320
 13
0.123099
 23
1.178833
 33
-1.224320
 62
1
  0
3DFACE
  8
Cylinder7
 10
0.066658
 20
1.178833
 30
-1.186643
 11
-0.066495
 21
1.178833
 31
-1.186643
 12
0.123099
 22
1.178833
 32
-1.224320
 13
0.123099
 23
1.178833
 33
-1.224320
 62
1
  0
3DFACE
  8
Cylinder7
 10
0.000082
 20
1.178833
 30
-1.173413
 11
-0.066495
 21
1.178833
 31
-1.186643
 12
0.066658
 22
1.178833
 32
-1.186643
 13
0.066658
 23
1.178833
 33
-1.186643
 62
1
  0
3DFACE
  8
Cylinder7
 10
0.160811
 20
1.178833
 30
-1.413735
 11
0.123099
 21
1.178833
 31
-1.470122
 12
0.123100
 22
2.441788
 32
-1.470123
 13
0.160812
 23
2.441788
 33
-1.413735
 62
1
  0
3DFACE
  8
Cylinder7
 10
0.174054
 20
1.178833
 30
-1.347221
 11
0.160811
 21
1.178833
 31
-1.413735
 12
0.160812
 22
2.441788
 32
-1.413735
 13
0.174055
 23
2.441788
 33
-1.347221
 62
1
  0
3DFACE
  8
Cylinder7
 10
0.123099
 20
1.178833
 30
-1.470122
 11
0.066658
 21
1.178833
 31
-1.507799
 12
0.066658
 22
2.441788
 32
-1.507800
 13
0.123100
 23
2.441788
 33
-1.470123
 62
1
  0
3DFACE
  8
Cylinder7
 10
0.066658
 20
1.178833
 30
-1.507799
 11
0.000082
 21
1.178833
 31
-1.521029
 12
0.000082
 22
2.441788
 32
-1.521030
 13
0.066658
 23
2.441788
 33
-1.507800
 62
1
  0
3DFACE
  8
Cylinder7
 10
0.000082
 20
1.178833
 30
-1.521029
 11
-0.066495
 21
1.178833
 31
-1.507799
 12
-0.066495
 22
2.441788
 32
-1.507800
 13
0.000082
 23
2.441788
 33
-1.521030
 62
1
  0
3DFACE
  8
Cylinder7
 10
-0.066495
 20
1.178833
 30
-1.507799
 11
-0.122936
 21
1.178833
 31
-1.470122
 12
-0.122936
 22
2.441788
 32
-1.470123
 13
-0.066495
 23
2.441788
 33
-1.507800
 62
1
  0
3DFACE
  8
Cylinder7
 10
-0.122936
 20
1.178833
 30
-1.470122
 11
-0.160648
 21
1.178833
 31
-1.413735
 12
-0.160649
 22
2.441788
 32
-1.413735
 13
-0.122936
 23
2.441788
 33
-1.470123
 62
1
  0
3DFACE
  8
Cylinder7
 10
-0.160648
 20
1.178833
 30
-1.413735
 11
-0.173891
 21
1.178833
 31
-1.347221
 12
-0.173892
 22
2.441788
 32
-1.347221
 13
-0.160649
 23
2.441788
 33
-1.413735
 62
1
  0
3DFACE
  8
NoName12
 10
-2.990563
 20
-3.004551
 30
1.744790
 11
-0.867061
 21
-1.891405
 31
0.659698
 12
-0.000407
 22
-2.368604
 32
-0.014427
 13
-0.000407
 23
-2.368604
 33
-0.014427
 62
0
  0
3DFACE
  8
NoName12
 10
-0.867061
 20
-1.891405
 30
0.659698
 11
-2.060520
 21
-0.693070
 31
0.365461
 12
-2.060451
 22
-0.693098
 32
-0.432339
 13
-0.866953
 23
-1.986875
 33
-0.657449
 62
0
  0
3DFACE
  8
NoName12
 10
-0.866953
 20
-1.986875
 30
-0.657449
 11
-2.990563
 21
-3.004551
 31
1.744790
 12
-0.000407
 22
-2.368604
 32
-0.014427
 13
-0.000407
 23
-2.368604
 33
-0.014427
 62
0
  0
3DFACE
  8
NoName12
 10
-2.990563
 20
-3.004551
 30
1.744790
 11
-2.060520
 21
-0.693070
 31
0.365461
 12
-0.867061
 22
-1.891405
 32
0.659698
 13
-0.867061
 23
-1.891405
 33
0.659698
 62
0
  0
3DFACE
  8
NoName12
 10
-2.060451
 20
-0.693098
 30
-0.432339
 11
-2.990563
 21
-3.004551
 31
1.744790
 12
-0.866953
 22
-1.986875
 32
-0.657449
 13
-0.866953
 23
-1.986875
 33
-0.657449
 62
0
  0
3DFACE
  8
NoName12
 10
-2.990563
 20
-3.004551
 30
1.744790
 11
-2.060451
 21
-0.693098
 31
-0.432339
 12
-2.060520
 22
-0.693070
 32
0.365461
 13
-2.060520
 23
-0.693070
 33
0.365461
 62
0
  0
3DFACE
  8
NoName12
 10
-0.866953
 20
-1.986875
 30
-0.657449
 11
-0.000407
 21
-2.368604
 31
-0.014427
 12
-0.867061
 22
-1.891405
 32
0.659698
 13
-0.867061
 23
-1.891405
 33
0.659698
 62
0
  0
3DFACE
  8
NoName3
 10
-2.950210
 20
-2.964674
 30
2.028868
 11
-3.353913
 21
-2.611457
 31
-2.607215
 12
-2.569224
 22
-2.698778
 32
-1.685146
 13
-2.569224
 23
-2.698778
 33
-1.685146
 62
0
  0
3DFACE
  8
NoName3
 10
-2.569224
 20
-2.698778
 30
-1.685146
 11
-3.353913
 21
-2.611457
 31
-2.607215
 12
-2.537121
 22
-3.381966
 32
-2.606631
 13
-2.537121
 23
-3.381966
 33
-2.606631
 62
0
  0
3DFACE
  8
NoName3
 10
-2.537121
 20
-3.381966
 30
-2.606631
 11
-3.353913
 21
-2.611457
 31
-2.607215
 12
-2.950210
 22
-2.964674
 32
2.028868
 13
-2.950210
 23
-2.964674
 33
2.028868
 62
0
  0
3DFACE
  8
NoName3
 10
-2.950210
 20
-2.964674
 30
2.028868
 11
-2.569224
 21
-2.698778
 31
-1.685146
 12
-2.537121
 22
-3.381966
 32
-2.606631
 13
-2.537121
 23
-3.381966
 33
-2.606631
 62
0
  0
3DFACE
  8
NoName4
 10
-2.711438
 20
-2.698778
 30
-2.790714
 11
-3.353913
 21
-2.611459
 31
-2.465009
 12
-2.950207
 22
-2.964665
 32
-4.315529
 13
-2.950207
 23
-2.964665
 33
-4.315529
 62
0
  0
3DFACE
  8
NoName4
 10
-2.537122
 20
-3.381967
 30
-2.464424
 11
-3.353913
 21
-2.611459
 31
-2.465009
 12
-2.711438
 22
-2.698778
 32
-2.790714
 13
-2.711438
 23
-2.698778
 33
-2.790714
 62
0
  0
3DFACE
  8
NoName4
 10
-2.950207
 20
-2.964665
 30
-4.315529
 11
-3.353913
 21
-2.611459
 31
-2.465009
 12
-2.537122
 22
-3.381967
 32
-2.464424
 13
-2.537122
 23
-3.381967
 33
-2.464424
 62
0
  0
3DFACE
  8
NoName4
 10
-2.537122
 20
-3.381967
 30
-2.464424
 11
-2.711438
 21
-2.698778
 31
-2.790714
 12
-2.950207
 22
-2.964665
 32
-4.315529
 13
-2.950207
 23
-2.964665
 33
-4.315529
 62
0
  0
3DFACE
  8
NoName1
 10
0.000065
 20
-2.368605
 30
-0.014427
 11
0.866720
 21
-1.891406
 31
0.659699
 12
2.990224
 22
-3.004551
 32
1.744791
 13
2.990224
 23
-3.004551
 33
1.744791
 62
0
  0
3DFACE
  8
NoName1
 10
0.866612
 20
-1.986876
 30
-0.657448
 11
2.060111
 21
-0.693099
 31
-0.432338
 12
2.060181
 22
-0.693071
 32
0.365461
 13
0.866720
 23
-1.891406
 33
0.659699
 62
0
  0
3DFACE
  8
NoName1
 10
0.000065
 20
-2.368605
 30
-0.014427
 11
2.990224
 21
-3.004551
 31
1.744791
 12
0.866612
 22
-1.986876
 32
-0.657448
 13
0.866612
 23
-1.986876
 33
-0.657448
 62
0
  0
3DFACE
  8
NoName1
 10
0.866720
 20
-1.891406
 30
0.659699
 11
2.060181
 21
-0.693071
 31
0.365461
 12
2.990224
 22
-3.004551
 32
1.744791
 13
2.990224
 23
-3.004551
 33
1.744791
 62
0
  0
3DFACE
  8
NoName1
 10
0.866612
 20
-1.986876
 30
-0.657448
 11
2.990224
 21
-3.004551
 31
1.744791
 12
2.060111
 22
-0.693099
 32
-0.432338
 13
2.060111
 23
-0.693099
 33
-0.432338
 62
0
  0
3DFACE
  8
NoName1
 10
2.060181
 20
-0.693071
 30
0.365461
 11
2.060111
 21
-0.693099
 31
-0.432338
 12
2.990224
 22
-3.004551
 32
1.744791
 13
2.990224
 23
-3.004551
 33
1.744791
 62
0
  0
3DFACE
  8
NoName1
 10
0.866720
 20
-1.891406
 30
0.659699
 11
0.000065
 21
-2.368605
 31
-0.014427
 12
0.866612
 22
-1.986876
 32
-0.657448
 13
0.866612
 23
-1.986876
 33
-0.657448
 62
0
  0
3DFACE
  8
NoName3001
 10
2.568793
 20
-2.698778
 30
-1.685146
 11
3.353481
 21
-2.611457
 31
-2.607215
 12
2.949779
 22
-2.964674
 32
2.028868
 13
2.949779
 23
-2.964674
 33
2.028868
 62
0
  0
3DFACE
  8
NoName3001
 10
2.536689
 20
-3.381966
 30
-2.606631
 11
3.353481
 21
-2.611457
 31
-2.607215
 12
2.568793
 22
-2.698778
 32
-1.685146
 13
2.568793
 23
-2.698778
 33
-1.685146
 62
0
  0
3DFACE
  8
NoName3001
 10
2.949779
 20
-2.964674
 30
2.028868
 11
3.353481
 21
-2.611457
 31
-2.607215
 12
2.536689
 22
-3.381966
 32
-2.606631
 13
2.536689
 23
-3.381966
 33
-2.606631
 62
0
  0
3DFACE
  8
NoName3001
 10
2.536689
 20
-3.381966
 30
-2.606631
 11
2.568793
 21
-2.698778
 31
-1.685146
 12
2.949779
 22
-2.964674
 32
2.028868
 13
2.949779
 23
-2.964674
 33
2.028868
 62
0
  0
3DFACE
  8
NoName4001
 10
2.949775
 20
-2.964665
 30
-4.315529
 11
3.353481
 21
-2.611458
 31
-2.465009
 12
2.711006
 22
-2.698778
 32
-2.790714
 13
2.711006
 23
-2.698778
 33
-2.790714
 62
0
  0
3DFACE
  8
NoName4001
 10
2.711006
 20
-2.698778
 30
-2.790714
 11
3.353481
 21
-2.611458
 31
-2.465009
 12
2.536690
 22
-3.381966
 32
-2.464424
 13
2.536690
 23
-3.381966
 33
-2.464424
 62
0
  0
3DFACE
  8
NoName4001
 10
2.536690
 20
-3.381966
 30
-2.464424
 11
3.353481
 21
-2.611458
 31
-2.465009
 12
2.949775
 22
-2.964665
 32
-4.315529
 13
2.949775
 23
-2.964665
 33
-4.315529
 62
0
  0
3DFACE
  8
NoName4001
 10
2.949775
 20
-2.964665
 30
-4.315529
 11
2.711006
 21
-2.698778
 31
-2.790714
 12
2.536690
 22
-3.381966
 32
-2.464424
 13
2.536690
 23
-3.381966
 33
-2.464424
 62
0
  0
3DFACE
  8
NoName2
 10
0.000102
 20
2.274388
 30
-0.014648
 11
2.989848
 21
2.972272
 31
1.744997
 12
0.866691
 22
1.870787
 32
0.659613
 13
0.866691
 23
1.870787
 33
0.659613
 62
0
  0
3DFACE
  8
NoName2
 10
0.866765
 20
1.833282
 30
-0.436969
 11
0.000102
 21
2.274388
 31
-0.014648
 12
0.866691
 22
1.870787
 32
0.659613
 13
0.866691
 23
1.870787
 33
0.659613
 62
0
  0
3DFACE
  8
NoName2
 10
0.000102
 20
2.274388
 30
-0.014648
 11
0.866765
 21
1.833282
 31
-0.436969
 12
2.989848
 22
2.972272
 32
1.744997
 13
2.989848
 23
2.972272
 33
1.744997
 62
0
  0
3DFACE
  8
NoName2
 10
0.866691
 20
1.870787
 30
0.659613
 11
2.989848
 21
2.972272
 31
1.744997
 12
2.060321
 22
-0.693089
 32
0.365507
 13
2.060321
 23
-0.693089
 33
0.365507
 62
0
  0
3DFACE
  8
NoName2
 10
0.866765
 20
1.833282
 30
-0.436969
 11
2.060375
 21
-0.693061
 31
-0.432292
 12
2.989848
 22
2.972272
 32
1.744997
 13
2.989848
 23
2.972272
 33
1.744997
 62
0
  0
3DFACE
  8
NoName2
 10
2.060321
 20
-0.693089
 30
0.365507
 11
2.989848
 21
2.972272
 31
1.744997
 12
2.060375
 22
-0.693061
 32
-0.432292
 13
2.060375
 23
-0.693061
 33
-0.432292
 62
0
  0
3DFACE
  8
NoName2
 10
0.866691
 20
1.870787
 30
0.659613
 11
2.060321
 21
-0.693089
 31
0.365507
 12
2.060375
 22
-0.693061
 32
-0.432292
 13
0.866765
 23
1.833282
 33
-0.436969
 62
0
  0
3DFACE
  8
NoName3002
 10
2.949779
 20
2.911961
 30
2.028868
 11
3.353481
 21
2.558744
 31
-2.607215
 12
2.568793
 22
2.646065
 32
-1.685146
 13
2.568793
 23
2.646065
 33
-1.685146
 62
0
  0
3DFACE
  8
NoName3002
 10
2.568793
 20
2.646065
 30
-1.685146
 11
3.353481
 21
2.558744
 31
-2.607215
 12
2.536689
 22
3.329253
 32
-2.606631
 13
2.536689
 23
3.329253
 33
-2.606631
 62
0
  0
3DFACE
  8
NoName3002
 10
2.536689
 20
3.329253
 30
-2.606631
 11
3.353481
 21
2.558744
 31
-2.607215
 12
2.949779
 22
2.911961
 32
2.028868
 13
2.949779
 23
2.911961
 33
2.028868
 62
0
  0
3DFACE
  8
NoName3002
 10
2.949779
 20
2.911961
 30
2.028868
 11
2.568793
 21
2.646065
 31
-1.685146
 12
2.536689
 22
3.329253
 32
-2.606631
 13
2.536689
 23
3.329253
 33
-2.606631
 62
0
  0
3DFACE
  8
NoName4002
 10
2.711006
 20
2.646065
 30
-2.790714
 11
3.353481
 21
2.558745
 31
-2.465009
 12
2.949775
 22
2.911952
 32
-4.315529
 13
2.949775
 23
2.911952
 33
-4.315529
 62
0
  0
3DFACE
  8
NoName4002
 10
2.536690
 20
3.329254
 30
-2.464424
 11
3.353481
 21
2.558745
 31
-2.465009
 12
2.711006
 22
2.646065
 32
-2.790714
 13
2.711006
 23
2.646065
 33
-2.790714
 62
0
  0
3DFACE
  8
NoName4002
 10
2.949775
 20
2.911952
 30
-4.315529
 11
3.353481
 21
2.558745
 31
-2.465009
 12
2.536690
 22
3.329254
 32
-2.464424
 13
2.536690
 23
3.329254
 33
-2.464424
 62
0
  0
3DFACE
  8
NoName4002
 10
2.536690
 20
3.329254
 30
-2.464424
 11
2.711006
 21
2.646065
 31
-2.790714
 12
2.949775
 22
2.911952
 32
-4.315529
 13
2.949775
 23
2.911952
 33
-4.315529
 62
0
  0
3DFACE
  8
NoName11
 10
-0.867032
 20
1.870789
 30
0.659612
 11
-2.990189
 21
2.972273
 31
1.744996
 12
-0.000443
 22
2.274390
 32
-0.014649
 13
-0.000443
 23
2.274390
 33
-0.014649
 62
0
  0
3DFACE
  8
NoName11
 10
-0.867032
 20
1.870789
 30
0.659612
 11
-0.000443
 21
2.274390
 31
-0.014649
 12
-0.867106
 22
1.833284
 32
-0.436971
 13
-0.867106
 23
1.833284
 33
-0.436971
 62
0
  0
3DFACE
  8
NoName11
 10
-2.990189
 20
2.972273
 30
1.744996
 11
-0.867106
 21
1.833284
 31
-0.436971
 12
-0.000443
 22
2.274390
 32
-0.014649
 13
-0.000443
 23
2.274390
 33
-0.014649
 62
0
  0
3DFACE
  8
NoName11
 10
-2.060663
 20
-0.693089
 30
0.365507
 11
-2.990189
 21
2.972273
 31
1.744996
 12
-0.867032
 22
1.870789
 32
0.659612
 13
-0.867032
 23
1.870789
 33
0.659612
 62
0
  0
3DFACE
  8
NoName11
 10
-2.990189
 20
2.972273
 30
1.744996
 11
-2.060717
 21
-0.693060
 31
-0.432293
 12
-0.867106
 22
1.833284
 32
-0.436971
 13
-0.867106
 23
1.833284
 33
-0.436971
 62
0
  0
3DFACE
  8
NoName11
 10
-2.060717
 20
-0.693060
 30
-0.432293
 11
-2.990189
 21
2.972273
 31
1.744996
 12
-2.060663
 22
-0.693089
 32
0.365507
 13
-2.060663
 23
-0.693089
 33
0.365507
 62
0
  0
3DFACE
  8
NoName11
 10
-0.867106
 20
1.833284
 30
-0.436971
 11
-2.060717
 21
-0.693060
 31
-0.432293
 12
-2.060663
 22
-0.693089
 32
0.365507
 13
-0.867032
 23
1.870789
 33
0.659612
 62
0
  0
3DFACE
  8
NoName3003
 10
-2.569224
 20
2.646065
 30
-1.685146
 11
-3.353913
 21
2.558743
 31
-2.607215
 12
-2.950210
 22
2.911961
 32
2.028868
 13
-2.950210
 23
2.911961
 33
2.028868
 62
0
  0
3DFACE
  8
NoName3003
 10
-2.537121
 20
3.329252
 30
-2.606631
 11
-3.353913
 21
2.558743
 31
-2.607215
 12
-2.569224
 22
2.646065
 32
-1.685146
 13
-2.569224
 23
2.646065
 33
-1.685146
 62
0
  0
3DFACE
  8
NoName3003
 10
-2.950210
 20
2.911961
 30
2.028868
 11
-3.353913
 21
2.558743
 31
-2.607215
 12
-2.537121
 22
3.329252
 32
-2.606631
 13
-2.537121
 23
3.329252
 33
-2.606631
 62
0
  0
3DFACE
  8
NoName3003
 10
-2.537121
 20
3.329252
 30
-2.606631
 11
-2.569224
 21
2.646065
 31
-1.685146
 12
-2.950210
 22
2.911961
 32
2.028868
 13
-2.950210
 23
2.911961
 33
2.028868
 62
0
  0
3DFACE
  8
NoName4003
 10
-2.950207
 20
2.911952
 30
-4.315529
 11
-3.353913
 21
2.558745
 31
-2.465009
 12
-2.711438
 22
2.646065
 32
-2.790714
 13
-2.711438
 23
2.646065
 33
-2.790714
 62
0
  0
3DFACE
  8
NoName4003
 10
-2.711438
 20
2.646065
 30
-2.790714
 11
-3.353913
 21
2.558745
 31
-2.465009
 12
-2.537122
 22
3.329253
 32
-2.464424
 13
-2.537122
 23
3.329253
 33
-2.464424
 62
0
  0
3DFACE
  8
NoName4003
 10
-2.537122
 20
3.329253
 30
-2.464424
 11
-3.353913
 21
2.558745
 31
-2.465009
 12
-2.950207
 22
2.911952
 32
-4.315529
 13
-2.950207
 23
2.911952
 33
-4.315529
 62
0
  0
3DFACE
  8
NoName4003
 10
-2.950207
 20
2.911952
 30
-4.315529
 11
-2.711438
 21
2.646065
 31
-2.790714
 12
-2.537122
 22
3.329253
 32
-2.464424
 13
-2.537122
 23
3.329253
 33
-2.464424
 62
0
 0
ENDSEC
 0
EOF
