  0
SECTION
  2
HEADER
  0
ENDSEC
  0
SECTION
  2
TABLES
  0
TABLE
  2
LAYER
  70
    153
  0
LAYER
  2
Cylinder
 70
0
 62
15
  6
CONTINUOUS
  0
LAYER
  2
Cylinder1
 70
0
 62
15
  6
CONTINUOUS
  0
LAYER
  2
Cylinder2
 70
0
 62
15
  6
CONTINUOUS
  0
LAYER
  2
Cube
 70
0
 62
15
  6
CONTINUOUS
  0
LAYER
  2
Cylinder4
 70
0
 62
15
  6
CONTINUOUS
  0
LAYER
  2
Cube2
 70
0
 62
15
  6
CONTINUOUS
  0
LAYER
  2
Cube001
 70
0
 62
15
  6
CONTINUOUS
  0
LAYER
  2
NoName6
 70
0
 62
15
  6
CONTINUOUS
  0
LAYER
  2
NoName9
 70
0
 62
15
  6
CONTINUOUS
  0
LAYER
  2
NoName11
 70
0
 62
15
  6
CONTINUOUS
  0
LAYER
  2
NoName10
 70
0
 62
15
  6
CONTINUOUS
  0
ENDTAB
  0
ENDSEC
  0
SECTION
  2
ENTITIES
  0
3DFACE
  8
Cylinder
 10
1.239109
 20
-1.375196
 30
-0.365286
 11
-1.239109
 21
-1.375196
 31
-0.365286
 12
-1.239109
 22
0.143250
 32
1.239110
 13
1.239109
 23
0.143250
 33
1.239110
 62
0
  0
3DFACE
  8
Cylinder
 10
1.239109
 20
-0.572998
 30
-1.224783
 11
-1.239109
 21
-0.572998
 31
-1.224783
 12
-1.239109
 22
-1.375196
 32
-0.365286
 13
1.239109
 23
-1.375196
 33
-0.365286
 62
0
  0
3DFACE
  8
Cylinder
 10
1.239109
 20
0.859498
 30
-1.224783
 11
-1.239109
 21
0.859498
 31
-1.224783
 12
-1.239109
 22
-0.572998
 32
-1.224783
 13
1.239109
 23
-0.572998
 33
-1.224783
 62
0
  0
3DFACE
  8
Cylinder
 10
1.239109
 20
1.375196
 30
0.064463
 11
-1.239109
 21
1.375196
 31
0.064463
 12
-1.239109
 22
0.859498
 32
-1.224783
 13
1.239109
 23
0.859498
 33
-1.224783
 62
0
  0
3DFACE
  8
Cylinder
 10
1.239109
 20
0.143250
 30
1.239110
 11
-1.239109
 21
0.143250
 31
1.239110
 12
-1.239109
 22
1.375196
 32
0.064463
 13
1.239109
 23
1.375196
 33
0.064463
 62
0
  0
3DFACE
  8
Cylinder
 10
1.239109
 20
0.143250
 30
1.239110
 11
1.239109
 21
-0.572998
 31
-1.224783
 12
1.239109
 22
-1.375196
 32
-0.365286
 13
1.239109
 23
-1.375196
 33
-0.365286
 62
0
  0
3DFACE
  8
Cylinder
 10
1.239109
 20
0.859498
 30
-1.224783
 11
1.239109
 21
-0.572998
 31
-1.224783
 12
1.239109
 22
0.143250
 32
1.239110
 13
1.239109
 23
0.143250
 33
1.239110
 62
0
  0
3DFACE
  8
Cylinder
 10
1.239109
 20
1.375196
 30
0.064463
 11
1.239109
 21
0.859498
 31
-1.224783
 12
1.239109
 22
0.143250
 32
1.239110
 13
1.239109
 23
0.143250
 33
1.239110
 62
0
  0
3DFACE
  8
Cylinder
 10
-1.239109
 20
0.143250
 30
1.239110
 11
-1.239109
 21
-1.375196
 31
-0.365286
 12
-1.239109
 22
-0.572998
 32
-1.224783
 13
-1.239109
 23
-0.572998
 33
-1.224783
 62
0
  0
3DFACE
  8
Cylinder
 10
-1.239109
 20
0.859498
 30
-1.224783
 11
-1.239109
 21
0.143250
 31
1.239110
 12
-1.239109
 22
-0.572998
 32
-1.224783
 13
-1.239109
 23
-0.572998
 33
-1.224783
 62
0
  0
3DFACE
  8
Cylinder
 10
-1.239109
 20
1.375196
 30
0.064463
 11
-1.239109
 21
0.143250
 31
1.239110
 12
-1.239109
 22
0.859498
 32
-1.224783
 13
-1.239109
 23
0.859498
 33
-1.224783
 62
0
  0
3DFACE
  8
Cylinder1
 10
-1.238833
 20
-0.572999
 30
-1.224784
 11
-1.860794
 21
0.146018
 31
-0.140836
 12
-1.238833
 22
-1.375196
 32
-0.365286
 13
-1.238833
 23
-1.375196
 33
-0.365286
 62
0
  0
3DFACE
  8
Cylinder1
 10
-1.238833
 20
-1.375196
 30
-0.365286
 11
-1.860794
 21
0.146018
 31
-0.140836
 12
-1.238833
 22
0.143250
 32
1.239109
 13
-1.238833
 23
0.143250
 33
1.239109
 62
0
  0
3DFACE
  8
Cylinder1
 10
-1.238833
 20
0.859498
 30
-1.224784
 11
-1.860794
 21
0.146018
 31
-0.140836
 12
-1.238833
 22
-0.572999
 32
-1.224784
 13
-1.238833
 23
-0.572999
 33
-1.224784
 62
0
  0
3DFACE
  8
Cylinder1
 10
-1.238833
 20
0.143250
 30
1.239109
 11
-1.860794
 21
0.146018
 31
-0.140836
 12
-1.238833
 22
1.375197
 32
0.064462
 13
-1.238833
 23
1.375197
 33
0.064462
 62
0
  0
3DFACE
  8
Cylinder1
 10
-1.238833
 20
1.375197
 30
0.064462
 11
-1.860794
 21
0.146018
 31
-0.140836
 12
-1.238833
 22
0.859498
 32
-1.224784
 13
-1.238833
 23
0.859498
 33
-1.224784
 62
0
  0
3DFACE
  8
Cylinder1
 10
-1.238833
 20
0.143250
 30
1.239109
 11
-1.238833
 21
-0.572999
 31
-1.224784
 12
-1.238833
 22
-1.375196
 32
-0.365286
 13
-1.238833
 23
-1.375196
 33
-0.365286
 62
0
  0
3DFACE
  8
Cylinder1
 10
-1.238833
 20
0.859498
 30
-1.224784
 11
-1.238833
 21
-0.572999
 31
-1.224784
 12
-1.238833
 22
0.143250
 32
1.239109
 13
-1.238833
 23
0.143250
 33
1.239109
 62
0
  0
3DFACE
  8
Cylinder1
 10
-1.238833
 20
1.375197
 30
0.064462
 11
-1.238833
 21
0.859498
 31
-1.224784
 12
-1.238833
 22
0.143250
 32
1.239109
 13
-1.238833
 23
0.143250
 33
1.239109
 62
0
  0
3DFACE
  8
Cylinder2
 10
1.239109
 20
0.859498
 30
-1.225148
 11
2.390817
 21
0.146018
 31
-0.362836
 12
1.239109
 22
1.375196
 32
0.064462
 13
1.239109
 23
1.375196
 33
0.064462
 62
0
  0
3DFACE
  8
Cylinder2
 10
1.239109
 20
1.375196
 30
0.064462
 11
2.390817
 21
0.146018
 31
-0.362836
 12
1.239109
 22
0.143250
 32
1.238606
 13
1.239109
 23
0.143250
 33
1.238606
 62
0
  0
3DFACE
  8
Cylinder2
 10
1.239109
 20
-0.572998
 30
-1.225148
 11
2.390817
 21
0.146018
 31
-0.362836
 12
1.239109
 22
0.859498
 32
-1.225148
 13
1.239109
 23
0.859498
 33
-1.225148
 62
0
  0
3DFACE
  8
Cylinder2
 10
1.239109
 20
-1.375196
 30
-0.365286
 11
2.390817
 21
0.146018
 31
-0.362836
 12
1.239109
 22
-0.572998
 32
-1.225148
 13
1.239109
 23
-0.572998
 33
-1.225148
 62
0
  0
3DFACE
  8
Cylinder2
 10
1.239109
 20
0.143250
 30
1.238606
 11
2.390817
 21
0.146018
 31
-0.362836
 12
1.239109
 22
-1.375196
 32
-0.365286
 13
1.239109
 23
-1.375196
 33
-0.365286
 62
0
  0
3DFACE
  8
Cylinder2
 10
1.239109
 20
0.143250
 30
1.238606
 11
1.239109
 21
-1.375196
 31
-0.365286
 12
1.239109
 22
-0.572998
 32
-1.225148
 13
1.239109
 23
-0.572998
 33
-1.225148
 62
0
  0
3DFACE
  8
Cylinder2
 10
1.239109
 20
0.859498
 30
-1.225148
 11
1.239109
 21
0.143250
 31
1.238606
 12
1.239109
 22
-0.572998
 32
-1.225148
 13
1.239109
 23
-0.572998
 33
-1.225148
 62
0
  0
3DFACE
  8
Cylinder2
 10
1.239109
 20
1.375196
 30
0.064462
 11
1.239109
 21
0.143250
 31
1.238606
 12
1.239109
 22
0.859498
 32
-1.225148
 13
1.239109
 23
0.859498
 33
-1.225148
 62
0
  0
3DFACE
  8
Cube
 10
-1.108421
 20
1.662598
 30
-1.102827
 11
0.001569
 21
1.662598
 31
-1.102827
 12
0.001569
 22
1.662598
 32
0.007163
 13
-1.108421
 23
1.662598
 33
0.007163
 62
0
  0
3DFACE
  8
Cube
 10
0.001569
 20
0.305944
 30
-1.102827
 11
0.001569
 21
1.662598
 31
-1.102827
 12
-1.108421
 22
1.662598
 32
-1.102827
 13
-1.108421
 23
0.305944
 33
-1.102827
 62
0
  0
3DFACE
  8
Cube
 10
-1.108421
 20
0.305944
 30
-1.102827
 11
-1.108421
 21
1.662598
 31
-1.102827
 12
-1.108421
 22
1.662598
 32
0.007163
 13
-1.108421
 23
0.305944
 33
0.007163
 62
0
  0
3DFACE
  8
Cube
 10
-1.108421
 20
0.305944
 30
0.007163
 11
-1.108421
 21
1.662598
 31
0.007163
 12
0.001569
 22
1.662598
 32
0.007163
 13
0.001569
 23
0.305944
 33
0.007163
 62
0
  0
3DFACE
  8
Cube
 10
0.001569
 20
0.305944
 30
-1.102827
 11
-1.108421
 21
0.305944
 31
-1.102827
 12
-1.108421
 22
0.305944
 32
0.007163
 13
0.001569
 23
0.305944
 33
0.007163
 62
0
  0
3DFACE
  8
Cube
 10
0.001569
 20
1.662598
 30
-1.102827
 11
0.001569
 21
0.305944
 31
-1.102827
 12
0.001569
 22
0.305944
 32
0.007163
 13
0.001569
 23
1.662598
 33
0.007163
 62
0
  0
3DFACE
  8
Cylinder4
 10
-0.849679
 20
3.080507
 30
-0.670544
 11
-0.874088
 21
3.080507
 31
-0.547832
 12
-0.874089
 22
1.613099
 32
-0.547831
 13
-0.849680
 23
1.613099
 33
-0.670544
 62
0
  0
3DFACE
  8
Cylinder4
 10
-0.780169
 20
3.080507
 30
-0.774575
 11
-0.849679
 21
3.080507
 31
-0.670544
 12
-0.849680
 22
1.613099
 32
-0.670544
 13
-0.780169
 23
1.613099
 33
-0.774574
 62
0
  0
3DFACE
  8
Cylinder4
 10
-0.676138
 20
3.080507
 30
-0.844086
 11
-0.780169
 21
3.080507
 31
-0.774575
 12
-0.780169
 22
1.613099
 32
-0.774574
 13
-0.676138
 23
1.613099
 33
-0.844084
 62
0
  0
3DFACE
  8
Cylinder4
 10
-0.553426
 20
3.080507
 30
-0.868495
 11
-0.676138
 21
3.080507
 31
-0.844086
 12
-0.676138
 22
1.613099
 32
-0.844084
 13
-0.553426
 23
1.613099
 33
-0.868493
 62
0
  0
3DFACE
  8
Cylinder4
 10
-0.430715
 20
3.080507
 30
-0.844086
 11
-0.553426
 21
3.080507
 31
-0.868495
 12
-0.553426
 22
1.613099
 32
-0.868493
 13
-0.430714
 23
1.613099
 33
-0.844084
 62
0
  0
3DFACE
  8
Cylinder4
 10
-0.326684
 20
3.080507
 30
-0.774575
 11
-0.430715
 21
3.080507
 31
-0.844086
 12
-0.430714
 22
1.613099
 32
-0.844084
 13
-0.326683
 23
1.613099
 33
-0.774574
 62
0
  0
3DFACE
  8
Cylinder4
 10
-0.257174
 20
3.080507
 30
-0.670544
 11
-0.326684
 21
3.080507
 31
-0.774575
 12
-0.326683
 22
1.613099
 32
-0.774574
 13
-0.257172
 23
1.613099
 33
-0.670544
 62
0
  0
3DFACE
  8
Cylinder4
 10
-0.232765
 20
3.080507
 30
-0.547832
 11
-0.257174
 21
3.080507
 31
-0.670544
 12
-0.257172
 22
1.613099
 32
-0.670544
 13
-0.232763
 23
1.613099
 33
-0.547831
 62
0
  0
3DFACE
  8
Cylinder4
 10
-0.257174
 20
3.080507
 30
-0.425119
 11
-0.232765
 21
3.080507
 31
-0.547832
 12
-0.232763
 22
1.613099
 32
-0.547831
 13
-0.257172
 23
1.613099
 33
-0.425119
 62
0
  0
3DFACE
  8
Cylinder4
 10
-0.326684
 20
3.080507
 30
-0.321089
 11
-0.257174
 21
3.080507
 31
-0.425119
 12
-0.257172
 22
1.613099
 32
-0.425119
 13
-0.326683
 23
1.613099
 33
-0.321089
 62
0
  0
3DFACE
  8
Cylinder4
 10
-0.430715
 20
3.080507
 30
-0.251578
 11
-0.326684
 21
3.080507
 31
-0.321089
 12
-0.326683
 22
1.613099
 32
-0.321089
 13
-0.430714
 23
1.613099
 33
-0.251579
 62
0
  0
3DFACE
  8
Cylinder4
 10
-0.553426
 20
3.080507
 30
-0.227169
 11
-0.430715
 21
3.080507
 31
-0.251578
 12
-0.430714
 22
1.613099
 32
-0.251579
 13
-0.553426
 23
1.613099
 33
-0.227169
 62
0
  0
3DFACE
  8
Cylinder4
 10
-0.676138
 20
3.080507
 30
-0.251578
 11
-0.553426
 21
3.080507
 31
-0.227169
 12
-0.553426
 22
1.613099
 32
-0.227169
 13
-0.676138
 23
1.613099
 33
-0.251579
 62
0
  0
3DFACE
  8
Cylinder4
 10
-0.780169
 20
3.080507
 30
-0.321089
 11
-0.676138
 21
3.080507
 31
-0.251578
 12
-0.676138
 22
1.613099
 32
-0.251579
 13
-0.780169
 23
1.613099
 33
-0.321089
 62
0
  0
3DFACE
  8
Cylinder4
 10
-0.849679
 20
3.080507
 30
-0.425119
 11
-0.780169
 21
3.080507
 31
-0.321089
 12
-0.780169
 22
1.613099
 32
-0.321089
 13
-0.849680
 23
1.613099
 33
-0.425119
 62
0
  0
3DFACE
  8
Cylinder4
 10
-0.874088
 20
3.080507
 30
-0.547832
 11
-0.849679
 21
3.080507
 31
-0.425119
 12
-0.849680
 22
1.613099
 32
-0.425119
 13
-0.874089
 23
1.613099
 33
-0.547831
 62
0
  0
3DFACE
  8
Cylinder4
 10
-0.676138
 20
1.613099
 30
-0.844084
 11
-0.430714
 21
1.613099
 31
-0.844084
 12
-0.553426
 22
1.613099
 32
-0.868493
 13
-0.553426
 23
1.613099
 33
-0.868493
 62
0
  0
3DFACE
  8
Cylinder4
 10
-0.326683
 20
1.613099
 30
-0.774574
 11
-0.430714
 21
1.613099
 31
-0.844084
 12
-0.676138
 22
1.613099
 32
-0.844084
 13
-0.676138
 23
1.613099
 33
-0.844084
 62
0
  0
3DFACE
  8
Cylinder4
 10
-0.780169
 20
1.613099
 30
-0.774574
 11
-0.326683
 21
1.613099
 31
-0.774574
 12
-0.676138
 22
1.613099
 32
-0.844084
 13
-0.676138
 23
1.613099
 33
-0.844084
 62
0
  0
3DFACE
  8
Cylinder4
 10
-0.257172
 20
1.613099
 30
-0.670544
 11
-0.326683
 21
1.613099
 31
-0.774574
 12
-0.780169
 22
1.613099
 32
-0.774574
 13
-0.780169
 23
1.613099
 33
-0.774574
 62
0
  0
3DFACE
  8
Cylinder4
 10
-0.849680
 20
1.613099
 30
-0.670544
 11
-0.257172
 21
1.613099
 31
-0.670544
 12
-0.780169
 22
1.613099
 32
-0.774574
 13
-0.780169
 23
1.613099
 33
-0.774574
 62
0
  0
3DFACE
  8
Cylinder4
 10
-0.874089
 20
1.613099
 30
-0.547831
 11
-0.257172
 21
1.613099
 31
-0.670544
 12
-0.849680
 22
1.613099
 32
-0.670544
 13
-0.849680
 23
1.613099
 33
-0.670544
 62
0
  0
3DFACE
  8
Cylinder4
 10
-0.232763
 20
1.613099
 30
-0.547831
 11
-0.257172
 21
1.613099
 31
-0.670544
 12
-0.874089
 22
1.613099
 32
-0.547831
 13
-0.874089
 23
1.613099
 33
-0.547831
 62
0
  0
3DFACE
  8
Cylinder4
 10
-0.257172
 20
1.613099
 30
-0.425119
 11
-0.232763
 21
1.613099
 31
-0.547831
 12
-0.874089
 22
1.613099
 32
-0.547831
 13
-0.874089
 23
1.613099
 33
-0.547831
 62
0
  0
3DFACE
  8
Cylinder4
 10
-0.849680
 20
1.613099
 30
-0.425119
 11
-0.257172
 21
1.613099
 31
-0.425119
 12
-0.874089
 22
1.613099
 32
-0.547831
 13
-0.874089
 23
1.613099
 33
-0.547831
 62
0
  0
3DFACE
  8
Cylinder4
 10
-0.326683
 20
1.613099
 30
-0.321089
 11
-0.257172
 21
1.613099
 31
-0.425119
 12
-0.849680
 22
1.613099
 32
-0.425119
 13
-0.849680
 23
1.613099
 33
-0.425119
 62
0
  0
3DFACE
  8
Cylinder4
 10
-0.780169
 20
1.613099
 30
-0.321089
 11
-0.326683
 21
1.613099
 31
-0.321089
 12
-0.849680
 22
1.613099
 32
-0.425119
 13
-0.849680
 23
1.613099
 33
-0.425119
 62
0
  0
3DFACE
  8
Cylinder4
 10
-0.430714
 20
1.613099
 30
-0.251579
 11
-0.326683
 21
1.613099
 31
-0.321089
 12
-0.780169
 22
1.613099
 32
-0.321089
 13
-0.780169
 23
1.613099
 33
-0.321089
 62
0
  0
3DFACE
  8
Cylinder4
 10
-0.676138
 20
1.613099
 30
-0.251579
 11
-0.430714
 21
1.613099
 31
-0.251579
 12
-0.780169
 22
1.613099
 32
-0.321089
 13
-0.780169
 23
1.613099
 33
-0.321089
 62
0
  0
3DFACE
  8
Cylinder4
 10
-0.553426
 20
1.613099
 30
-0.227169
 11
-0.430714
 21
1.613099
 31
-0.251579
 12
-0.676138
 22
1.613099
 32
-0.251579
 13
-0.676138
 23
1.613099
 33
-0.251579
 62
0
  0
3DFACE
  8
Cylinder4
 10
-0.649657
 20
3.080507
 30
-0.780180
 11
-0.676138
 21
3.080507
 31
-0.844086
 12
-0.553419
 22
3.080507
 32
-0.799325
 13
-0.553419
 23
3.080507
 33
-0.799325
 62
0
  0
3DFACE
  8
Cylinder4
 10
-0.780169
 20
3.080507
 30
-0.774575
 11
-0.676138
 21
3.080507
 31
-0.844086
 12
-0.649657
 22
3.080507
 32
-0.780180
 13
-0.649657
 23
3.080507
 33
-0.780180
 62
0
  0
3DFACE
  8
Cylinder4
 10
-0.731244
 20
3.080507
 30
-0.725663
 11
-0.780169
 21
3.080507
 31
-0.774575
 12
-0.649657
 22
3.080507
 32
-0.780180
 13
-0.649657
 23
3.080507
 33
-0.780180
 62
0
  0
3DFACE
  8
Cylinder4
 10
-0.849679
 20
3.080507
 30
-0.670544
 11
-0.780169
 21
3.080507
 31
-0.774575
 12
-0.731244
 22
3.080507
 32
-0.725663
 13
-0.731244
 23
3.080507
 33
-0.725663
 62
0
  0
3DFACE
  8
Cylinder4
 10
-0.785760
 20
3.080507
 30
-0.644072
 11
-0.849679
 21
3.080507
 31
-0.670544
 12
-0.731244
 22
3.080507
 32
-0.725663
 13
-0.731244
 23
3.080507
 33
-0.725663
 62
0
  0
3DFACE
  8
Cylinder4
 10
-0.874088
 20
3.080507
 30
-0.547832
 11
-0.849679
 21
3.080507
 31
-0.670544
 12
-0.785760
 22
3.080507
 32
-0.644072
 13
-0.785760
 23
3.080507
 33
-0.644072
 62
0
  0
3DFACE
  8
Cylinder4
 10
-0.804903
 20
3.080507
 30
-0.547830
 11
-0.874088
 21
3.080507
 31
-0.547832
 12
-0.785760
 22
3.080507
 32
-0.644072
 13
-0.785760
 23
3.080507
 33
-0.644072
 62
0
  0
3DFACE
  8
Cylinder4
 10
-0.785761
 20
3.080507
 30
-0.451588
 11
-0.874088
 21
3.080507
 31
-0.547832
 12
-0.804903
 22
3.080507
 32
-0.547830
 13
-0.804903
 23
3.080507
 33
-0.547830
 62
0
  0
3DFACE
  8
Cylinder4
 10
-0.849679
 20
3.080507
 30
-0.425119
 11
-0.874088
 21
3.080507
 31
-0.547832
 12
-0.785761
 22
3.080507
 32
-0.451588
 13
-0.785761
 23
3.080507
 33
-0.451588
 62
0
  0
3DFACE
  8
Cylinder4
 10
-0.731247
 20
3.080507
 30
-0.369998
 11
-0.849679
 21
3.080507
 31
-0.425119
 12
-0.785761
 22
3.080507
 32
-0.451588
 13
-0.785761
 23
3.080507
 33
-0.451588
 62
0
  0
3DFACE
  8
Cylinder4
 10
-0.780169
 20
3.080507
 30
-0.321089
 11
-0.849679
 21
3.080507
 31
-0.425119
 12
-0.731247
 22
3.080507
 32
-0.369998
 13
-0.731247
 23
3.080507
 33
-0.369998
 62
0
  0
3DFACE
  8
Cylinder4
 10
-0.649661
 20
3.080507
 30
-0.315482
 11
-0.780169
 21
3.080507
 31
-0.321089
 12
-0.731247
 22
3.080507
 32
-0.369998
 13
-0.731247
 23
3.080507
 33
-0.369998
 62
0
  0
3DFACE
  8
Cylinder4
 10
-0.553423
 20
3.080507
 30
-0.296338
 11
-0.780169
 21
3.080507
 31
-0.321089
 12
-0.649661
 22
3.080507
 32
-0.315482
 13
-0.649661
 23
3.080507
 33
-0.315482
 62
0
  0
3DFACE
  8
Cylinder4
 10
-0.676138
 20
3.080507
 30
-0.251578
 11
-0.780169
 21
3.080507
 31
-0.321089
 12
-0.553423
 22
3.080507
 32
-0.296338
 13
-0.553423
 23
3.080507
 33
-0.296338
 62
0
  0
3DFACE
  8
Cylinder4
 10
-0.430715
 20
3.080507
 30
-0.251578
 11
-0.676138
 21
3.080507
 31
-0.251578
 12
-0.553423
 22
3.080507
 32
-0.296338
 13
-0.553423
 23
3.080507
 33
-0.296338
 62
0
  0
3DFACE
  8
Cylinder4
 10
-0.553426
 20
3.080507
 30
-0.227169
 11
-0.676138
 21
3.080507
 31
-0.251578
 12
-0.430715
 22
3.080507
 32
-0.251578
 13
-0.430715
 23
3.080507
 33
-0.251578
 62
0
  0
3DFACE
  8
Cylinder4
 10
-0.430715
 20
3.080507
 30
-0.844086
 11
-0.676138
 21
3.080507
 31
-0.844086
 12
-0.553426
 22
3.080507
 32
-0.868495
 13
-0.553426
 23
3.080507
 33
-0.868495
 62
0
  0
3DFACE
  8
Cylinder4
 10
-0.553419
 20
3.080507
 30
-0.799325
 11
-0.676138
 21
3.080507
 31
-0.844086
 12
-0.430715
 22
3.080507
 32
-0.844086
 13
-0.430715
 23
3.080507
 33
-0.844086
 62
0
  0
3DFACE
  8
Cylinder4
 10
-0.457181
 20
3.080508
 30
-0.780182
 11
-0.553419
 21
3.080507
 31
-0.799325
 12
-0.430715
 22
3.080507
 32
-0.844086
 13
-0.430715
 23
3.080507
 33
-0.844086
 62
0
  0
3DFACE
  8
Cylinder4
 10
-0.326684
 20
3.080507
 30
-0.774575
 11
-0.457181
 21
3.080508
 31
-0.780182
 12
-0.430715
 22
3.080507
 32
-0.844086
 13
-0.430715
 23
3.080507
 33
-0.844086
 62
0
  0
3DFACE
  8
Cylinder4
 10
-0.375594
 20
3.080508
 30
-0.725666
 11
-0.457181
 21
3.080508
 31
-0.780182
 12
-0.326684
 22
3.080507
 32
-0.774575
 13
-0.326684
 23
3.080507
 33
-0.774575
 62
0
  0
3DFACE
  8
Cylinder4
 10
-0.257174
 20
3.080507
 30
-0.670544
 11
-0.375594
 21
3.080508
 31
-0.725666
 12
-0.326684
 22
3.080507
 32
-0.774575
 13
-0.326684
 23
3.080507
 33
-0.774575
 62
0
  0
3DFACE
  8
Cylinder4
 10
-0.321080
 20
3.080508
 30
-0.644076
 11
-0.375594
 21
3.080508
 31
-0.725666
 12
-0.257174
 22
3.080507
 32
-0.670544
 13
-0.257174
 23
3.080507
 33
-0.670544
 62
0
  0
3DFACE
  8
Cylinder4
 10
-0.301938
 20
3.080508
 30
-0.547834
 11
-0.321080
 21
3.080508
 31
-0.644076
 12
-0.257174
 22
3.080507
 32
-0.670544
 13
-0.257174
 23
3.080507
 33
-0.670544
 62
0
  0
3DFACE
  8
Cylinder4
 10
-0.232765
 20
3.080507
 30
-0.547832
 11
-0.301938
 21
3.080508
 31
-0.547834
 12
-0.257174
 22
3.080507
 32
-0.670544
 13
-0.257174
 23
3.080507
 33
-0.670544
 62
0
  0
3DFACE
  8
Cylinder4
 10
-0.321081
 20
3.080508
 30
-0.451591
 11
-0.301938
 21
3.080508
 31
-0.547834
 12
-0.232765
 22
3.080507
 32
-0.547832
 13
-0.232765
 23
3.080507
 33
-0.547832
 62
0
  0
3DFACE
  8
Cylinder4
 10
-0.257174
 20
3.080507
 30
-0.425119
 11
-0.321081
 21
3.080508
 31
-0.451591
 12
-0.232765
 22
3.080507
 32
-0.547832
 13
-0.232765
 23
3.080507
 33
-0.547832
 62
0
  0
3DFACE
  8
Cylinder4
 10
-0.375597
 20
3.080508
 30
-0.370000
 11
-0.321081
 21
3.080508
 31
-0.451591
 12
-0.257174
 22
3.080507
 32
-0.425119
 13
-0.257174
 23
3.080507
 33
-0.425119
 62
0
  0
3DFACE
  8
Cylinder4
 10
-0.326684
 20
3.080507
 30
-0.321089
 11
-0.375597
 21
3.080508
 31
-0.370000
 12
-0.257174
 22
3.080507
 32
-0.425119
 13
-0.257174
 23
3.080507
 33
-0.425119
 62
0
  0
3DFACE
  8
Cylinder4
 10
-0.457184
 20
3.080508
 30
-0.315483
 11
-0.375597
 21
3.080508
 31
-0.370000
 12
-0.326684
 22
3.080507
 32
-0.321089
 13
-0.326684
 23
3.080507
 33
-0.321089
 62
0
  0
3DFACE
  8
Cylinder4
 10
-0.553423
 20
3.080507
 30
-0.296338
 11
-0.457184
 21
3.080508
 31
-0.315483
 12
-0.326684
 22
3.080507
 32
-0.321089
 13
-0.326684
 23
3.080507
 33
-0.321089
 62
0
  0
3DFACE
  8
Cylinder4
 10
-0.430715
 20
3.080507
 30
-0.251578
 11
-0.553423
 21
3.080507
 31
-0.296338
 12
-0.326684
 22
3.080507
 32
-0.321089
 13
-0.326684
 23
3.080507
 33
-0.321089
 62
0
  0
3DFACE
  8
Cylinder4
 10
-0.321094
 20
1.726846
 30
-0.451590
 11
-0.301950
 21
1.726846
 31
-0.547833
 12
-0.301938
 22
3.080508
 32
-0.547834
 13
-0.321081
 23
3.080508
 33
-0.451591
 62
1
  0
3DFACE
  8
Cylinder4
 10
-0.375609
 20
1.726846
 30
-0.369999
 11
-0.321094
 21
1.726846
 31
-0.451590
 12
-0.321081
 22
3.080508
 32
-0.451591
 13
-0.375597
 23
3.080508
 33
-0.370000
 62
1
  0
3DFACE
  8
Cylinder4
 10
-0.457196
 20
1.726845
 30
-0.315482
 11
-0.375609
 21
1.726846
 31
-0.369999
 12
-0.375597
 22
3.080508
 32
-0.370000
 13
-0.457184
 23
3.080508
 33
-0.315483
 62
1
  0
3DFACE
  8
Cylinder4
 10
-0.553434
 20
1.726845
 30
-0.296338
 11
-0.457196
 21
1.726845
 31
-0.315482
 12
-0.457184
 22
3.080508
 32
-0.315483
 13
-0.553423
 23
3.080507
 33
-0.296338
 62
1
  0
3DFACE
  8
Cylinder4
 10
-0.649672
 20
1.726845
 30
-0.315481
 11
-0.553434
 21
1.726845
 31
-0.296338
 12
-0.553423
 22
3.080507
 32
-0.296338
 13
-0.649661
 23
3.080507
 33
-0.315482
 62
1
  0
3DFACE
  8
Cylinder4
 10
-0.731258
 20
1.726844
 30
-0.369997
 11
-0.649672
 21
1.726845
 31
-0.315481
 12
-0.649661
 22
3.080507
 32
-0.315482
 13
-0.731247
 23
3.080507
 33
-0.369998
 62
1
  0
3DFACE
  8
Cylinder4
 10
-0.785772
 20
1.726844
 30
-0.451587
 11
-0.731258
 21
1.726844
 31
-0.369997
 12
-0.731247
 22
3.080507
 32
-0.369998
 13
-0.785761
 23
3.080507
 33
-0.451588
 62
1
  0
3DFACE
  8
Cylinder4
 10
-0.804914
 20
1.726844
 30
-0.547829
 11
-0.785772
 21
1.726844
 31
-0.451587
 12
-0.785761
 22
3.080507
 32
-0.451588
 13
-0.804903
 23
3.080507
 33
-0.547830
 62
1
  0
3DFACE
  8
Cylinder4
 10
-0.649669
 20
1.726845
 30
-0.780180
 11
-0.553430
 21
1.726845
 31
-0.799324
 12
-0.457192
 22
1.726845
 32
-0.780181
 13
-0.457192
 23
1.726845
 33
-0.780181
 62
1
  0
3DFACE
  8
Cylinder4
 10
-0.375606
 20
1.726846
 30
-0.725665
 11
-0.649669
 21
1.726845
 31
-0.780180
 12
-0.457192
 22
1.726845
 32
-0.780181
 13
-0.457192
 23
1.726845
 33
-0.780181
 62
1
  0
3DFACE
  8
Cylinder4
 10
-0.731256
 20
1.726844
 30
-0.725663
 11
-0.649669
 21
1.726845
 31
-0.780180
 12
-0.375606
 22
1.726846
 32
-0.725665
 13
-0.375606
 23
1.726846
 33
-0.725665
 62
1
  0
3DFACE
  8
Cylinder4
 10
-0.321093
 20
1.726846
 30
-0.644075
 11
-0.731256
 21
1.726844
 31
-0.725663
 12
-0.375606
 22
1.726846
 32
-0.725665
 13
-0.375606
 23
1.726846
 33
-0.725665
 62
1
  0
3DFACE
  8
Cylinder4
 10
-0.785770
 20
1.726844
 30
-0.644072
 11
-0.731256
 21
1.726844
 31
-0.725663
 12
-0.321093
 22
1.726846
 32
-0.644075
 13
-0.321093
 23
1.726846
 33
-0.644075
 62
1
  0
3DFACE
  8
Cylinder4
 10
-0.301950
 20
1.726846
 30
-0.547833
 11
-0.785770
 21
1.726844
 31
-0.644072
 12
-0.321093
 22
1.726846
 32
-0.644075
 13
-0.321093
 23
1.726846
 33
-0.644075
 62
1
  0
3DFACE
  8
Cylinder4
 10
-0.804914
 20
1.726844
 30
-0.547829
 11
-0.785770
 21
1.726844
 31
-0.644072
 12
-0.301950
 22
1.726846
 32
-0.547833
 13
-0.301950
 23
1.726846
 33
-0.547833
 62
1
  0
3DFACE
  8
Cylinder4
 10
-0.321094
 20
1.726846
 30
-0.451590
 11
-0.804914
 21
1.726844
 31
-0.547829
 12
-0.301950
 22
1.726846
 32
-0.547833
 13
-0.301950
 23
1.726846
 33
-0.547833
 62
1
  0
3DFACE
  8
Cylinder4
 10
-0.785772
 20
1.726844
 30
-0.451587
 11
-0.804914
 21
1.726844
 31
-0.547829
 12
-0.321094
 22
1.726846
 32
-0.451590
 13
-0.321094
 23
1.726846
 33
-0.451590
 62
1
  0
3DFACE
  8
Cylinder4
 10
-0.375609
 20
1.726846
 30
-0.369999
 11
-0.785772
 21
1.726844
 31
-0.451587
 12
-0.321094
 22
1.726846
 32
-0.451590
 13
-0.321094
 23
1.726846
 33
-0.451590
 62
1
  0
3DFACE
  8
Cylinder4
 10
-0.731258
 20
1.726844
 30
-0.369997
 11
-0.785772
 21
1.726844
 31
-0.451587
 12
-0.375609
 22
1.726846
 32
-0.369999
 13
-0.375609
 23
1.726846
 33
-0.369999
 62
1
  0
3DFACE
  8
Cylinder4
 10
-0.457196
 20
1.726845
 30
-0.315482
 11
-0.731258
 21
1.726844
 31
-0.369997
 12
-0.375609
 22
1.726846
 32
-0.369999
 13
-0.375609
 23
1.726846
 33
-0.369999
 62
1
  0
3DFACE
  8
Cylinder4
 10
-0.649672
 20
1.726845
 30
-0.315481
 11
-0.731258
 21
1.726844
 31
-0.369997
 12
-0.457196
 22
1.726845
 32
-0.315482
 13
-0.457196
 23
1.726845
 33
-0.315482
 62
1
  0
3DFACE
  8
Cylinder4
 10
-0.553434
 20
1.726845
 30
-0.296338
 11
-0.649672
 21
1.726845
 31
-0.315481
 12
-0.457196
 22
1.726845
 32
-0.315482
 13
-0.457196
 23
1.726845
 33
-0.315482
 62
1
  0
3DFACE
  8
Cylinder4
 10
-0.321093
 20
1.726846
 30
-0.644075
 11
-0.375606
 21
1.726846
 31
-0.725665
 12
-0.375594
 22
3.080508
 32
-0.725666
 13
-0.321080
 23
3.080508
 33
-0.644076
 62
1
  0
3DFACE
  8
Cylinder4
 10
-0.301950
 20
1.726846
 30
-0.547833
 11
-0.321093
 21
1.726846
 31
-0.644075
 12
-0.321080
 22
3.080508
 32
-0.644076
 13
-0.301938
 23
3.080508
 33
-0.547834
 62
1
  0
3DFACE
  8
Cylinder4
 10
-0.375606
 20
1.726846
 30
-0.725665
 11
-0.457192
 21
1.726845
 31
-0.780181
 12
-0.457181
 22
3.080508
 32
-0.780182
 13
-0.375594
 23
3.080508
 33
-0.725666
 62
1
  0
3DFACE
  8
Cylinder4
 10
-0.457192
 20
1.726845
 30
-0.780181
 11
-0.553430
 21
1.726845
 31
-0.799324
 12
-0.553419
 22
3.080507
 32
-0.799325
 13
-0.457181
 23
3.080508
 33
-0.780182
 62
1
  0
3DFACE
  8
Cylinder4
 10
-0.553430
 20
1.726845
 30
-0.799324
 11
-0.649669
 21
1.726845
 31
-0.780180
 12
-0.649657
 22
3.080507
 32
-0.780180
 13
-0.553419
 23
3.080507
 33
-0.799325
 62
1
  0
3DFACE
  8
Cylinder4
 10
-0.649669
 20
1.726845
 30
-0.780180
 11
-0.731256
 21
1.726844
 31
-0.725663
 12
-0.731244
 22
3.080507
 32
-0.725663
 13
-0.649657
 23
3.080507
 33
-0.780180
 62
1
  0
3DFACE
  8
Cylinder4
 10
-0.731256
 20
1.726844
 30
-0.725663
 11
-0.785770
 21
1.726844
 31
-0.644072
 12
-0.785760
 22
3.080507
 32
-0.644072
 13
-0.731244
 23
3.080507
 33
-0.725663
 62
1
  0
3DFACE
  8
Cylinder4
 10
-0.785770
 20
1.726844
 30
-0.644072
 11
-0.804914
 21
1.726844
 31
-0.547829
 12
-0.804903
 22
3.080507
 32
-0.547830
 13
-0.785760
 23
3.080507
 33
-0.644072
 62
1
  0
3DFACE
  8
Cube2
 10
-1.108226
 20
0.380086
 30
0.229160
 11
-1.108226
 21
0.380086
 31
0.907481
 12
1.111369
 22
0.380085
 32
0.907480
 13
1.111369
 23
0.380085
 33
0.229159
 62
0
  0
3DFACE
  8
Cube2
 10
-1.108226
 20
1.490069
 30
0.229162
 11
-1.108226
 21
0.380086
 31
0.229160
 12
1.111369
 22
0.380085
 32
0.229159
 13
1.111369
 23
1.490067
 33
0.229161
 62
0
  0
3DFACE
  8
Cube2
 10
1.111369
 20
1.490067
 30
0.229161
 11
1.111369
 21
0.380085
 31
0.229159
 12
1.111369
 22
0.380085
 32
0.907480
 13
1.111369
 23
1.490067
 33
0.907482
 62
0
  0
3DFACE
  8
Cube2
 10
1.111369
 20
1.490067
 30
0.907482
 11
1.111369
 21
0.380085
 31
0.907480
 12
-1.108226
 22
0.380086
 32
0.907481
 13
-1.108226
 23
1.490069
 33
0.907483
 62
0
  0
3DFACE
  8
Cube2
 10
-1.108226
 20
1.490069
 30
0.907483
 11
-1.108226
 21
0.380086
 31
0.907481
 12
-1.108226
 22
0.380086
 32
0.229160
 13
-1.108226
 23
1.490069
 33
0.229162
 62
0
  0
3DFACE
  8
Cube2
 10
1.036268
 20
0.953021
 30
0.658530
 11
-1.033157
 21
0.953214
 31
0.658618
 12
-1.033127
 22
0.953129
 32
0.466714
 13
1.036295
 23
0.952923
 33
0.466617
 62
0
  0
3DFACE
  8
Cube2
 10
1.036295
 20
0.952923
 30
0.466617
 11
-1.033127
 21
0.953129
 31
0.466714
 12
-1.108226
 22
1.490069
 32
0.229162
 13
1.111369
 23
1.490067
 33
0.229161
 62
0
  0
3DFACE
  8
Cube2
 10
1.036268
 20
0.953021
 30
0.658530
 11
1.036295
 21
0.952923
 31
0.466617
 12
1.111369
 22
1.490067
 32
0.229161
 13
1.111369
 23
1.490067
 33
0.907482
 62
0
  0
3DFACE
  8
Cube2
 10
-1.033157
 20
0.953214
 30
0.658618
 11
1.036268
 21
0.953021
 31
0.658530
 12
1.111369
 22
1.490067
 32
0.907482
 13
-1.108226
 23
1.490069
 33
0.907483
 62
0
  0
3DFACE
  8
Cube2
 10
-1.033127
 20
0.953129
 30
0.466714
 11
-1.033157
 21
0.953214
 31
0.658618
 12
-1.108226
 22
1.490069
 32
0.907483
 13
-1.108226
 23
1.490069
 33
0.229162
 62
0
  0
3DFACE
  8
Cube001
 10
1.049891
 20
1.367006
 30
0.285687
 11
-1.046754
 21
1.367006
 31
0.285687
 12
-1.046754
 22
0.380349
 32
0.285687
 13
1.049891
 23
0.380349
 33
0.285687
 62
0
  0
3DFACE
  8
Cube001
 10
-1.046754
 20
1.367006
 30
0.850959
 11
-1.046754
 21
1.367006
 31
0.285687
 12
1.049891
 22
1.367006
 32
0.285687
 13
1.049891
 23
1.367006
 33
0.850959
 62
1
  0
3DFACE
  8
Cube001
 10
1.049891
 20
1.367006
 30
0.850959
 11
1.049891
 21
1.367006
 31
0.285687
 12
1.049891
 22
0.380349
 32
0.285687
 13
1.049891
 23
0.380349
 33
0.850959
 62
0
  0
3DFACE
  8
Cube001
 10
1.049891
 20
0.380349
 30
0.850959
 11
1.049891
 21
0.380349
 31
0.285687
 12
-1.046754
 22
0.380349
 32
0.285687
 13
-1.046754
 23
0.380349
 33
0.850959
 62
0
  0
3DFACE
  8
Cube001
 10
-1.046754
 20
1.367006
 30
0.850959
 11
1.049891
 21
1.367006
 31
0.850959
 12
1.049891
 22
0.380349
 32
0.850959
 13
-1.046754
 23
0.380349
 33
0.850959
 62
0
  0
3DFACE
  8
Cube001
 10
-1.046754
 20
1.367006
 30
0.285687
 11
-1.046754
 21
1.367006
 31
0.850959
 12
-1.046754
 22
0.380349
 32
0.850959
 13
-1.046754
 23
0.380349
 33
0.285687
 62
0
  0
3DFACE
  8
NoName6
 10
1.833051
 20
0.164518
 30
-2.294212
 11
1.833051
 21
0.349517
 31
-0.541669
 12
2.088328
 22
0.164518
 32
-0.541669
 13
2.088328
 23
0.164518
 33
-0.541669
 62
0
  0
3DFACE
  8
NoName6
 10
1.833052
 20
-0.020480
 30
-0.541669
 11
1.833051
 21
0.349517
 31
-0.541669
 12
1.833051
 22
0.164518
 32
-2.294212
 13
1.833051
 23
0.164518
 33
-2.294212
 62
0
  0
3DFACE
  8
NoName6
 10
2.088328
 20
0.164518
 30
-0.541669
 11
1.833051
 21
0.349517
 31
-0.541669
 12
1.833052
 22
-0.020480
 32
-0.541669
 13
1.833052
 23
-0.020480
 33
-0.541669
 62
0
  0
3DFACE
  8
NoName6
 10
1.833051
 20
0.164518
 30
-2.294212
 11
2.088328
 21
0.164518
 31
-0.541669
 12
1.833052
 22
-0.020480
 32
-0.541669
 13
1.833052
 23
-0.020480
 33
-0.541669
 62
0
  0
3DFACE
  8
NoName9
 10
1.833051
 20
0.164518
 30
-1.933583
 11
1.833051
 21
-0.405252
 31
-2.478774
 12
1.953929
 22
0.104740
 32
-2.337682
 13
1.953929
 23
0.104740
 33
-2.337682
 62
0
  0
3DFACE
  8
NoName9
 10
1.751679
 20
0.420066
 30
-2.478734
 11
1.833051
 21
-0.405252
 31
-2.478774
 12
1.833051
 22
0.164518
 32
-1.933583
 13
1.833051
 23
0.164518
 33
-1.933583
 62
0
  0
3DFACE
  8
NoName9
 10
1.953929
 20
0.104740
 30
-2.337682
 11
1.833051
 21
-0.405252
 31
-2.478774
 12
1.751679
 22
0.420066
 32
-2.478734
 13
1.751679
 23
0.420066
 33
-2.478734
 62
0
  0
3DFACE
  8
NoName9
 10
1.833051
 20
0.164518
 30
-1.933583
 11
1.953929
 21
0.104740
 31
-2.337682
 12
1.751679
 22
0.420066
 32
-2.478734
 13
1.751679
 23
0.420066
 33
-2.478734
 62
0
  0
3DFACE
  8
NoName11
 10
-0.247650
 20
0.297269
 30
-3.282631
 11
1.958750
 21
0.061782
 31
-2.329479
 12
1.849117
 22
0.233378
 32
-2.521639
 13
1.849117
 23
0.233378
 33
-2.521639
 62
0
  0
3DFACE
  8
NoName11
 10
1.983120
 20
0.372110
 30
-2.328875
 11
1.958750
 21
0.061782
 31
-2.329479
 12
-0.247650
 22
0.297269
 32
-3.282631
 13
-0.247650
 23
0.297269
 33
-3.282631
 62
0
  0
3DFACE
  8
NoName11
 10
1.849117
 20
0.233378
 30
-2.521639
 11
1.958750
 21
0.061782
 31
-2.329479
 12
1.983120
 22
0.372110
 32
-2.328875
 13
1.983120
 23
0.372110
 33
-2.328875
 62
0
  0
3DFACE
  8
NoName11
 10
-0.247650
 20
0.297269
 30
-3.282631
 11
1.849117
 21
0.233378
 31
-2.521639
 12
1.983120
 22
0.372110
 32
-2.328875
 13
1.983120
 23
0.372110
 33
-2.328875
 62
0
  0
3DFACE
  8
NoName10
 10
-0.247650
 20
-0.155055
 30
-3.282631
 11
1.958750
 21
-0.390542
 31
-2.329479
 12
1.849117
 22
-0.218946
 32
-2.521639
 13
1.849117
 23
-0.218946
 33
-2.521639
 62
0
  0
3DFACE
  8
NoName10
 10
1.983120
 20
-0.080214
 30
-2.328875
 11
1.958750
 21
-0.390542
 31
-2.329479
 12
-0.247650
 22
-0.155055
 32
-3.282631
 13
-0.247650
 23
-0.155055
 33
-3.282631
 62
0
  0
3DFACE
  8
NoName10
 10
1.849117
 20
-0.218946
 30
-2.521639
 11
1.958750
 21
-0.390542
 31
-2.329479
 12
1.983120
 22
-0.080214
 32
-2.328875
 13
1.983120
 23
-0.080214
 33
-2.328875
 62
0
  0
3DFACE
  8
NoName10
 10
-0.247650
 20
-0.155055
 30
-3.282631
 11
1.849117
 21
-0.218946
 31
-2.521639
 12
1.983120
 22
-0.080214
 32
-2.328875
 13
1.983120
 23
-0.080214
 33
-2.328875
 62
0
 0
ENDSEC
 0
EOF
