  0
SECTION
  2
HEADER
  0
ENDSEC
  0
SECTION
  2
TABLES
  0
TABLE
  2
LAYER
  70
    153
  0
LAYER
  2
Cylinder1
 70
0
 62
15
  6
CONTINUOUS
  0
LAYER
  2
Cube
 70
0
 62
15
  6
CONTINUOUS
  0
LAYER
  2
Cylinder1001
 70
0
 62
15
  6
CONTINUOUS
  0
LAYER
  2
Cylinder2
 70
0
 62
15
  6
CONTINUOUS
  0
LAYER
  2
Cylinder1002
 70
0
 62
15
  6
CONTINUOUS
  0
LAYER
  2
Cylinder1003
 70
0
 62
15
  6
CONTINUOUS
  0
LAYER
  2
Cylinder2001
 70
0
 62
15
  6
CONTINUOUS
  0
LAYER
  2
Cylinder1004
 70
0
 62
15
  6
CONTINUOUS
  0
ENDTAB
  0
ENDSEC
  0
SECTION
  2
ENTITIES
  0
3DFACE
  8
Cylinder1
 10
-1.254768
 20
2.287453
 30
1.244302
 11
1.261290
 21
2.171216
 31
2.223695
 12
-1.261290
 22
2.171216
 32
2.223686
 13
-1.261290
 23
2.171216
 33
2.223686
 62
0
  0
3DFACE
  8
Cylinder1
 10
1.254536
 20
2.287453
 30
1.244302
 11
1.261290
 21
2.171216
 31
2.223695
 12
-1.254768
 22
2.287453
 32
1.244302
 13
-1.254768
 23
2.287453
 33
1.244302
 62
0
  0
3DFACE
  8
Cylinder1
 10
1.254536
 20
2.371799
 30
0.533624
 11
1.261290
 21
2.171216
 31
2.223695
 12
1.254536
 22
2.287453
 32
1.244302
 13
1.254536
 23
2.287453
 33
1.244302
 62
0
  0
3DFACE
  8
Cylinder1
 10
2.137595
 20
2.567243
 30
-1.113158
 11
1.261290
 21
2.171216
 31
2.223695
 12
1.254536
 22
2.371799
 32
0.533624
 13
1.254536
 23
2.371799
 33
0.533624
 62
0
  0
3DFACE
  8
Cylinder1
 10
2.137595
 20
2.567243
 30
-1.113158
 11
1.254536
 21
2.371799
 31
0.533624
 12
-1.254768
 22
2.371799
 32
0.533624
 13
-1.254768
 23
2.371799
 33
0.533624
 62
0
  0
3DFACE
  8
Cylinder1
 10
-1.254768
 20
2.371799
 30
0.533624
 11
-1.254768
 21
2.287453
 31
1.244302
 12
-1.261290
 22
2.171216
 32
2.223686
 13
-1.261290
 23
2.171216
 33
2.223686
 62
0
  0
3DFACE
  8
Cylinder1
 10
-2.137595
 20
2.567243
 30
-1.113158
 11
-1.254768
 21
2.371799
 31
0.533624
 12
-1.261290
 22
2.171216
 32
2.223686
 13
-1.261290
 23
2.171216
 33
2.223686
 62
0
  0
3DFACE
  8
Cylinder1
 10
-2.137595
 20
2.567243
 30
-1.113158
 11
2.137595
 21
2.567243
 31
-1.113158
 12
-1.254768
 22
2.371799
 32
0.533624
 13
-1.254768
 23
2.371799
 33
0.533624
 62
0
  0
3DFACE
  8
Cylinder1
 10
2.071118
 20
-3.373066
 30
-0.741836
 11
2.137595
 21
2.567243
 31
-1.113158
 12
-2.137595
 22
2.567243
 32
-1.113158
 13
-2.071118
 23
-3.373066
 33
-0.741836
 62
0
  0
3DFACE
  8
Cylinder1
 10
1.261290
 20
2.171216
 30
2.223695
 11
2.071118
 21
-3.373066
 31
-0.741836
 12
-2.071118
 22
-3.373066
 32
-0.741836
 13
-1.261290
 23
2.171216
 33
2.223686
 62
0
  0
3DFACE
  8
Cylinder1
 10
-2.137595
 20
2.567243
 30
-1.113158
 11
-1.261290
 21
2.171216
 31
2.223686
 12
-2.071118
 22
-3.373066
 32
-0.741836
 13
-2.071118
 23
-3.373066
 33
-0.741836
 62
1
  0
3DFACE
  8
Cylinder1
 10
2.137595
 20
2.567243
 30
-1.113158
 11
2.071118
 21
-3.373066
 31
-0.741836
 12
1.261290
 22
2.171216
 32
2.223695
 13
1.261290
 23
2.171216
 33
2.223695
 62
1
  0
3DFACE
  8
Cylinder1
 10
1.132926
 20
1.177681
 30
1.156167
 11
-1.132925
 21
1.177725
 31
1.156161
 12
-1.132925
 22
1.177639
 32
0.621763
 13
1.132926
 23
1.177681
 33
0.621768
 62
3
  0
3DFACE
  8
Cylinder1
 10
1.132926
 20
1.177681
 30
0.621768
 11
-1.132925
 21
1.177639
 31
0.621763
 12
-1.254768
 22
2.371799
 32
0.533624
 13
1.254536
 23
2.371799
 33
0.533624
 62
2
  0
3DFACE
  8
Cylinder1
 10
1.132926
 20
1.177681
 30
1.156167
 11
1.132926
 21
1.177681
 31
0.621768
 12
1.254536
 22
2.371799
 32
0.533624
 13
1.254536
 23
2.287453
 33
1.244302
 62
3
  0
3DFACE
  8
Cylinder1
 10
-1.132925
 20
1.177725
 30
1.156161
 11
1.132926
 21
1.177681
 31
1.156167
 12
1.254536
 22
2.287453
 32
1.244302
 13
-1.254768
 23
2.287453
 33
1.244302
 62
3
  0
3DFACE
  8
Cylinder1
 10
-1.132925
 20
1.177639
 30
0.621763
 11
-1.132925
 21
1.177725
 31
1.156161
 12
-1.254768
 22
2.287453
 32
1.244302
 13
-1.254768
 23
2.371799
 33
0.533624
 62
3
  0
3DFACE
  8
Cube
 10
1.268349
 20
0.894781
 30
0.513833
 11
-1.268348
 21
0.894781
 31
0.513833
 12
-1.268348
 22
0.894781
 32
1.264471
 13
1.268349
 23
0.894781
 33
1.264471
 62
0
  0
3DFACE
  8
Cube
 10
-1.268348
 20
2.102868
 30
0.513833
 11
-1.268348
 21
0.894781
 31
0.513833
 12
1.268349
 22
0.894781
 32
0.513833
 13
1.268349
 23
2.102868
 33
0.513833
 62
0
  0
3DFACE
  8
Cube
 10
1.268349
 20
2.102868
 30
0.513833
 11
1.268349
 21
0.894781
 31
0.513833
 12
1.268349
 22
0.894781
 32
1.264471
 13
1.268349
 23
2.102869
 33
1.264471
 62
0
  0
3DFACE
  8
Cube
 10
1.268349
 20
2.102869
 30
1.264471
 11
1.268349
 21
0.894781
 31
1.264471
 12
-1.268348
 22
0.894781
 32
1.264471
 13
-1.268348
 23
2.102868
 33
1.264471
 62
0
  0
3DFACE
  8
Cube
 10
-1.268348
 20
2.102868
 30
0.513833
 11
1.268349
 21
2.102868
 31
0.513833
 12
1.268349
 22
2.102869
 32
1.264471
 13
-1.268348
 23
2.102868
 33
1.264471
 62
0
  0
3DFACE
  8
Cube
 10
-1.268348
 20
0.894781
 30
0.513833
 11
-1.268348
 21
2.102868
 31
0.513833
 12
-1.268348
 22
2.102868
 32
1.264471
 13
-1.268348
 23
0.894781
 33
1.264471
 62
0
  0
3DFACE
  8
Cylinder1001
 10
1.397046
 20
1.694691
 30
-1.634668
 11
1.415435
 21
1.694691
 31
-1.542219
 12
1.415435
 22
3.333444
 32
-1.542219
 13
1.397046
 23
3.333444
 33
-1.634668
 62
0
  0
3DFACE
  8
Cylinder1001
 10
1.344677
 20
1.694691
 30
-1.713043
 11
1.397046
 21
1.694691
 31
-1.634668
 12
1.397046
 22
3.333444
 32
-1.634668
 13
1.344678
 23
3.333444
 33
-1.713043
 62
0
  0
3DFACE
  8
Cylinder1001
 10
1.266302
 20
1.694691
 30
-1.765411
 11
1.344677
 21
1.694691
 31
-1.713043
 12
1.344678
 22
3.333444
 32
-1.713043
 13
1.266303
 23
3.333444
 33
-1.765411
 62
0
  0
3DFACE
  8
Cylinder1001
 10
1.173853
 20
1.694691
 30
-1.783800
 11
1.266302
 21
1.694691
 31
-1.765411
 12
1.266303
 22
3.333444
 32
-1.765411
 13
1.173854
 23
3.333444
 33
-1.783800
 62
0
  0
3DFACE
  8
Cylinder1001
 10
1.081404
 20
1.694691
 30
-1.765411
 11
1.173853
 21
1.694691
 31
-1.783800
 12
1.173854
 22
3.333444
 32
-1.783800
 13
1.081404
 23
3.333444
 33
-1.765411
 62
0
  0
3DFACE
  8
Cylinder1001
 10
1.003029
 20
1.694691
 30
-1.713043
 11
1.081404
 21
1.694691
 31
-1.765411
 12
1.081404
 22
3.333444
 32
-1.765411
 13
1.003030
 23
3.333444
 33
-1.713043
 62
0
  0
3DFACE
  8
Cylinder1001
 10
0.950661
 20
1.694691
 30
-1.634668
 11
1.003029
 21
1.694691
 31
-1.713043
 12
1.003030
 22
3.333444
 32
-1.713043
 13
0.950661
 23
3.333444
 33
-1.634668
 62
0
  0
3DFACE
  8
Cylinder1001
 10
0.932271
 20
1.694691
 30
-1.542219
 11
0.950661
 21
1.694691
 31
-1.634668
 12
0.950661
 22
3.333444
 32
-1.634668
 13
0.932272
 23
3.333444
 33
-1.542219
 62
0
  0
3DFACE
  8
Cylinder1001
 10
0.950661
 20
1.694691
 30
-1.449769
 11
0.932271
 21
1.694691
 31
-1.542219
 12
0.932272
 22
3.333444
 32
-1.542219
 13
0.950661
 23
3.333444
 33
-1.449769
 62
0
  0
3DFACE
  8
Cylinder1001
 10
1.003029
 20
1.694691
 30
-1.371395
 11
0.950661
 21
1.694691
 31
-1.449769
 12
0.950661
 22
3.333444
 32
-1.449769
 13
1.003030
 23
3.333444
 33
-1.371395
 62
0
  0
3DFACE
  8
Cylinder1001
 10
1.081404
 20
1.694691
 30
-1.319026
 11
1.003029
 21
1.694691
 31
-1.371395
 12
1.003030
 22
3.333444
 32
-1.371395
 13
1.081404
 23
3.333444
 33
-1.319026
 62
0
  0
3DFACE
  8
Cylinder1001
 10
1.173853
 20
1.694691
 30
-1.300637
 11
1.081404
 21
1.694691
 31
-1.319026
 12
1.081404
 22
3.333444
 32
-1.319026
 13
1.173854
 23
3.333444
 33
-1.300637
 62
0
  0
3DFACE
  8
Cylinder1001
 10
1.266302
 20
1.694691
 30
-1.319026
 11
1.173853
 21
1.694691
 31
-1.300637
 12
1.173854
 22
3.333444
 32
-1.300637
 13
1.266303
 23
3.333444
 33
-1.319026
 62
0
  0
3DFACE
  8
Cylinder1001
 10
1.344677
 20
1.694691
 30
-1.371395
 11
1.266302
 21
1.694691
 31
-1.319026
 12
1.266303
 22
3.333444
 32
-1.319026
 13
1.344678
 23
3.333444
 33
-1.371395
 62
0
  0
3DFACE
  8
Cylinder1001
 10
1.397046
 20
1.694691
 30
-1.449769
 11
1.344677
 21
1.694691
 31
-1.371395
 12
1.344678
 22
3.333444
 32
-1.371395
 13
1.397046
 23
3.333444
 33
-1.449769
 62
0
  0
3DFACE
  8
Cylinder1001
 10
1.415435
 20
1.694691
 30
-1.542219
 11
1.397046
 21
1.694691
 31
-1.449769
 12
1.397046
 22
3.333444
 32
-1.449769
 13
1.415435
 23
3.333444
 33
-1.542219
 62
0
  0
3DFACE
  8
Cylinder1001
 10
1.235205
 20
3.333444
 30
-1.690335
 11
1.173854
 21
3.333444
 31
-1.702538
 12
1.344678
 22
3.333444
 32
-1.713043
 13
1.344678
 23
3.333444
 33
-1.713043
 62
1
  0
3DFACE
  8
Cylinder1001
 10
1.287217
 20
3.333444
 30
-1.655582
 11
1.235205
 21
3.333444
 31
-1.690335
 12
1.344678
 22
3.333444
 32
-1.713043
 13
1.344678
 23
3.333444
 33
-1.713043
 62
1
  0
3DFACE
  8
Cylinder1001
 10
1.397046
 20
3.333444
 30
-1.634668
 11
1.287217
 21
3.333444
 31
-1.655582
 12
1.344678
 22
3.333444
 32
-1.713043
 13
1.344678
 23
3.333444
 33
-1.713043
 62
1
  0
3DFACE
  8
Cylinder1001
 10
1.321970
 20
3.333444
 30
-1.603570
 11
1.287217
 21
3.333444
 31
-1.655582
 12
1.397046
 22
3.333444
 32
-1.634668
 13
1.397046
 23
3.333444
 33
-1.634668
 62
1
  0
3DFACE
  8
Cylinder1001
 10
1.415435
 20
3.333444
 30
-1.542219
 11
1.321970
 21
3.333444
 31
-1.603570
 12
1.397046
 22
3.333444
 32
-1.634668
 13
1.397046
 23
3.333444
 33
-1.634668
 62
1
  0
3DFACE
  8
Cylinder1001
 10
1.334173
 20
3.333444
 30
-1.542219
 11
1.321970
 21
3.333444
 31
-1.603570
 12
1.415435
 22
3.333444
 32
-1.542219
 13
1.415435
 23
3.333444
 33
-1.542219
 62
1
  0
3DFACE
  8
Cylinder1001
 10
1.321970
 20
3.333444
 30
-1.480867
 11
1.334173
 21
3.333444
 31
-1.542219
 12
1.415435
 22
3.333444
 32
-1.542219
 13
1.415435
 23
3.333444
 33
-1.542219
 62
1
  0
3DFACE
  8
Cylinder1001
 10
1.397046
 20
3.333444
 30
-1.449769
 11
1.321970
 21
3.333444
 31
-1.480867
 12
1.415435
 22
3.333444
 32
-1.542219
 13
1.415435
 23
3.333444
 33
-1.542219
 62
1
  0
3DFACE
  8
Cylinder1001
 10
1.287217
 20
3.333444
 30
-1.428856
 11
1.321970
 21
3.333444
 31
-1.480867
 12
1.397046
 22
3.333444
 32
-1.449769
 13
1.397046
 23
3.333444
 33
-1.449769
 62
1
  0
3DFACE
  8
Cylinder1001
 10
1.235205
 20
3.333444
 30
-1.394103
 11
1.287217
 21
3.333444
 31
-1.428856
 12
1.397046
 22
3.333444
 32
-1.449769
 13
1.397046
 23
3.333444
 33
-1.449769
 62
1
  0
3DFACE
  8
Cylinder1001
 10
1.344678
 20
3.333444
 30
-1.371395
 11
1.235205
 21
3.333444
 31
-1.394103
 12
1.397046
 22
3.333444
 32
-1.449769
 13
1.397046
 23
3.333444
 33
-1.449769
 62
1
  0
3DFACE
  8
Cylinder1001
 10
1.344678
 20
3.333444
 30
-1.371395
 11
1.173854
 21
3.333444
 31
-1.381899
 12
1.235205
 22
3.333444
 32
-1.394103
 13
1.235205
 23
3.333444
 33
-1.394103
 62
1
  0
3DFACE
  8
Cylinder1001
 10
1.344678
 20
3.333444
 30
-1.371395
 11
1.003030
 21
3.333444
 31
-1.371395
 12
1.173854
 22
3.333444
 32
-1.381899
 13
1.173854
 23
3.333444
 33
-1.381899
 62
1
  0
3DFACE
  8
Cylinder1001
 10
1.081404
 20
3.333444
 30
-1.319026
 11
1.003030
 21
3.333444
 31
-1.371395
 12
1.344678
 22
3.333444
 32
-1.371395
 13
1.344678
 23
3.333444
 33
-1.371395
 62
1
  0
3DFACE
  8
Cylinder1001
 10
1.266303
 20
3.333444
 30
-1.319026
 11
1.081404
 21
3.333444
 31
-1.319026
 12
1.344678
 22
3.333444
 32
-1.371395
 13
1.344678
 23
3.333444
 33
-1.371395
 62
1
  0
3DFACE
  8
Cylinder1001
 10
1.173854
 20
3.333444
 30
-1.300637
 11
1.081404
 21
3.333444
 31
-1.319026
 12
1.266303
 22
3.333444
 32
-1.319026
 13
1.266303
 23
3.333444
 33
-1.319026
 62
1
  0
3DFACE
  8
Cylinder1001
 10
1.266303
 20
3.333444
 30
-1.765411
 11
1.081404
 21
3.333444
 31
-1.765411
 12
1.173854
 22
3.333444
 32
-1.783800
 13
1.173854
 23
3.333444
 33
-1.783800
 62
1
  0
3DFACE
  8
Cylinder1001
 10
1.003030
 20
3.333444
 30
-1.713043
 11
1.081404
 21
3.333444
 31
-1.765411
 12
1.266303
 22
3.333444
 32
-1.765411
 13
1.266303
 23
3.333444
 33
-1.765411
 62
1
  0
3DFACE
  8
Cylinder1001
 10
1.344678
 20
3.333444
 30
-1.713043
 11
1.003030
 21
3.333444
 31
-1.713043
 12
1.266303
 22
3.333444
 32
-1.765411
 13
1.266303
 23
3.333444
 33
-1.765411
 62
1
  0
3DFACE
  8
Cylinder1001
 10
1.173854
 20
3.333444
 30
-1.702538
 11
1.003030
 21
3.333444
 31
-1.713043
 12
1.344678
 22
3.333444
 32
-1.713043
 13
1.344678
 23
3.333444
 33
-1.713043
 62
1
  0
3DFACE
  8
Cylinder1001
 10
1.112502
 20
3.333444
 30
-1.690335
 11
1.003030
 21
3.333444
 31
-1.713043
 12
1.173854
 22
3.333444
 32
-1.702538
 13
1.173854
 23
3.333444
 33
-1.702538
 62
1
  0
3DFACE
  8
Cylinder1001
 10
1.060490
 20
3.333444
 30
-1.655582
 11
1.003030
 21
3.333444
 31
-1.713043
 12
1.112502
 22
3.333444
 32
-1.690335
 13
1.112502
 23
3.333444
 33
-1.690335
 62
1
  0
3DFACE
  8
Cylinder1001
 10
0.950661
 20
3.333444
 30
-1.634668
 11
1.003030
 21
3.333444
 31
-1.713043
 12
1.060490
 22
3.333444
 32
-1.655582
 13
1.060490
 23
3.333444
 33
-1.655582
 62
1
  0
3DFACE
  8
Cylinder1001
 10
1.025738
 20
3.333444
 30
-1.603570
 11
0.950661
 21
3.333444
 31
-1.634668
 12
1.060490
 22
3.333444
 32
-1.655582
 13
1.060490
 23
3.333444
 33
-1.655582
 62
1
  0
3DFACE
  8
Cylinder1001
 10
0.932272
 20
3.333444
 30
-1.542219
 11
0.950661
 21
3.333444
 31
-1.634668
 12
1.025738
 22
3.333444
 32
-1.603570
 13
1.025738
 23
3.333444
 33
-1.603570
 62
1
  0
3DFACE
  8
Cylinder1001
 10
1.013534
 20
3.333444
 30
-1.542219
 11
0.932272
 21
3.333444
 31
-1.542219
 12
1.025738
 22
3.333444
 32
-1.603570
 13
1.025738
 23
3.333444
 33
-1.603570
 62
1
  0
3DFACE
  8
Cylinder1001
 10
1.025738
 20
3.333444
 30
-1.480867
 11
0.932272
 21
3.333444
 31
-1.542219
 12
1.013534
 22
3.333444
 32
-1.542219
 13
1.013534
 23
3.333444
 33
-1.542219
 62
1
  0
3DFACE
  8
Cylinder1001
 10
0.950661
 20
3.333444
 30
-1.449769
 11
0.932272
 21
3.333444
 31
-1.542219
 12
1.025738
 22
3.333444
 32
-1.480867
 13
1.025738
 23
3.333444
 33
-1.480867
 62
1
  0
3DFACE
  8
Cylinder1001
 10
1.060490
 20
3.333444
 30
-1.428856
 11
0.950661
 21
3.333444
 31
-1.449769
 12
1.025738
 22
3.333444
 32
-1.480867
 13
1.025738
 23
3.333444
 33
-1.480867
 62
1
  0
3DFACE
  8
Cylinder1001
 10
1.112502
 20
3.333444
 30
-1.394103
 11
0.950661
 21
3.333444
 31
-1.449769
 12
1.060490
 22
3.333444
 32
-1.428856
 13
1.060490
 23
3.333444
 33
-1.428856
 62
1
  0
3DFACE
  8
Cylinder1001
 10
1.003030
 20
3.333444
 30
-1.371395
 11
0.950661
 21
3.333444
 31
-1.449769
 12
1.112502
 22
3.333444
 32
-1.394103
 13
1.112502
 23
3.333444
 33
-1.394103
 62
1
  0
3DFACE
  8
Cylinder1001
 10
1.003030
 20
3.333444
 30
-1.371395
 11
1.112502
 21
3.333444
 31
-1.394103
 12
1.173854
 22
3.333444
 32
-1.381899
 13
1.173854
 23
3.333444
 33
-1.381899
 62
1
  0
3DFACE
  8
Cylinder1001
 10
1.081404
 20
1.694691
 30
-1.765411
 11
1.266302
 21
1.694691
 31
-1.765411
 12
1.173853
 22
1.694691
 32
-1.783800
 13
1.173853
 23
1.694691
 33
-1.783800
 62
0
  0
3DFACE
  8
Cylinder1001
 10
1.344677
 20
1.694691
 30
-1.713043
 11
1.266302
 21
1.694691
 31
-1.765411
 12
1.081404
 22
1.694691
 32
-1.765411
 13
1.081404
 23
1.694691
 33
-1.765411
 62
0
  0
3DFACE
  8
Cylinder1001
 10
1.003029
 20
1.694691
 30
-1.713043
 11
1.344677
 21
1.694691
 31
-1.713043
 12
1.081404
 22
1.694691
 32
-1.765411
 13
1.081404
 23
1.694691
 33
-1.765411
 62
0
  0
3DFACE
  8
Cylinder1001
 10
1.397046
 20
1.694691
 30
-1.634668
 11
1.344677
 21
1.694691
 31
-1.713043
 12
1.003029
 22
1.694691
 32
-1.713043
 13
1.003029
 23
1.694691
 33
-1.713043
 62
0
  0
3DFACE
  8
Cylinder1001
 10
0.950661
 20
1.694691
 30
-1.634668
 11
1.397046
 21
1.694691
 31
-1.634668
 12
1.003029
 22
1.694691
 32
-1.713043
 13
1.003029
 23
1.694691
 33
-1.713043
 62
0
  0
3DFACE
  8
Cylinder1001
 10
1.415435
 20
1.694691
 30
-1.542219
 11
1.397046
 21
1.694691
 31
-1.634668
 12
0.950661
 22
1.694691
 32
-1.634668
 13
0.950661
 23
1.694691
 33
-1.634668
 62
0
  0
3DFACE
  8
Cylinder1001
 10
0.932271
 20
1.694691
 30
-1.542219
 11
1.415435
 21
1.694691
 31
-1.542219
 12
0.950661
 22
1.694691
 32
-1.634668
 13
0.950661
 23
1.694691
 33
-1.634668
 62
0
  0
3DFACE
  8
Cylinder1001
 10
1.397046
 20
1.694691
 30
-1.449769
 11
1.415435
 21
1.694691
 31
-1.542219
 12
0.932271
 22
1.694691
 32
-1.542219
 13
0.932271
 23
1.694691
 33
-1.542219
 62
0
  0
3DFACE
  8
Cylinder1001
 10
0.950661
 20
1.694691
 30
-1.449769
 11
1.397046
 21
1.694691
 31
-1.449769
 12
0.932271
 22
1.694691
 32
-1.542219
 13
0.932271
 23
1.694691
 33
-1.542219
 62
0
  0
3DFACE
  8
Cylinder1001
 10
1.344677
 20
1.694691
 30
-1.371395
 11
1.397046
 21
1.694691
 31
-1.449769
 12
0.950661
 22
1.694691
 32
-1.449769
 13
0.950661
 23
1.694691
 33
-1.449769
 62
0
  0
3DFACE
  8
Cylinder1001
 10
1.003029
 20
1.694691
 30
-1.371395
 11
1.344677
 21
1.694691
 31
-1.371395
 12
0.950661
 22
1.694691
 32
-1.449769
 13
0.950661
 23
1.694691
 33
-1.449769
 62
0
  0
3DFACE
  8
Cylinder1001
 10
1.266302
 20
1.694691
 30
-1.319026
 11
1.344677
 21
1.694691
 31
-1.371395
 12
1.003029
 22
1.694691
 32
-1.371395
 13
1.003029
 23
1.694691
 33
-1.371395
 62
0
  0
3DFACE
  8
Cylinder1001
 10
1.081404
 20
1.694691
 30
-1.319026
 11
1.266302
 21
1.694691
 31
-1.319026
 12
1.003029
 22
1.694691
 32
-1.371395
 13
1.003029
 23
1.694691
 33
-1.371395
 62
0
  0
3DFACE
  8
Cylinder1001
 10
1.173853
 20
1.694691
 30
-1.300637
 11
1.266302
 21
1.694691
 31
-1.319026
 12
1.081404
 22
1.694691
 32
-1.319026
 13
1.081404
 23
1.694691
 33
-1.319026
 62
0
  0
3DFACE
  8
Cylinder1001
 10
1.334173
 20
2.035903
 30
-1.542219
 11
1.321969
 21
2.035903
 31
-1.603570
 12
1.321970
 22
3.333444
 32
-1.603570
 13
1.334173
 23
3.333444
 33
-1.542219
 62
1
  0
3DFACE
  8
Cylinder1001
 10
1.321969
 20
2.035903
 30
-1.603570
 11
1.287216
 21
2.035903
 31
-1.655582
 12
1.287217
 22
3.333444
 32
-1.655582
 13
1.321970
 23
3.333444
 33
-1.603570
 62
1
  0
3DFACE
  8
Cylinder1001
 10
1.287216
 20
2.035903
 30
-1.655582
 11
1.235205
 21
2.035903
 31
-1.690335
 12
1.235205
 22
3.333444
 32
-1.690335
 13
1.287217
 23
3.333444
 33
-1.655582
 62
1
  0
3DFACE
  8
Cylinder1001
 10
1.235205
 20
2.035903
 30
-1.690335
 11
1.173853
 21
2.035903
 31
-1.702538
 12
1.173854
 22
3.333444
 32
-1.702538
 13
1.235205
 23
3.333444
 33
-1.690335
 62
1
  0
3DFACE
  8
Cylinder1001
 10
1.173853
 20
2.035903
 30
-1.702538
 11
1.112502
 21
2.035903
 31
-1.690335
 12
1.112502
 22
3.333444
 32
-1.690335
 13
1.173854
 23
3.333444
 33
-1.702538
 62
1
  0
3DFACE
  8
Cylinder1001
 10
1.112502
 20
2.035903
 30
-1.690335
 11
1.060490
 21
2.035903
 31
-1.655582
 12
1.060490
 22
3.333444
 32
-1.655582
 13
1.112502
 23
3.333444
 33
-1.690335
 62
1
  0
3DFACE
  8
Cylinder1001
 10
1.060490
 20
2.035903
 30
-1.655582
 11
1.025737
 21
2.035903
 31
-1.603570
 12
1.025738
 22
3.333444
 32
-1.603570
 13
1.060490
 23
3.333444
 33
-1.655582
 62
1
  0
3DFACE
  8
Cylinder1001
 10
1.025737
 20
2.035903
 30
-1.603570
 11
1.013534
 21
2.035903
 31
-1.542219
 12
1.013534
 22
3.333444
 32
-1.542219
 13
1.025738
 23
3.333444
 33
-1.603570
 62
1
  0
3DFACE
  8
Cylinder1001
 10
1.235205
 20
2.035903
 30
-1.690335
 11
1.112502
 21
2.035903
 31
-1.690335
 12
1.173853
 22
2.035903
 32
-1.702538
 13
1.173853
 23
2.035903
 33
-1.702538
 62
1
  0
3DFACE
  8
Cylinder1001
 10
1.060490
 20
2.035903
 30
-1.655582
 11
1.112502
 21
2.035903
 31
-1.690335
 12
1.235205
 22
2.035903
 32
-1.690335
 13
1.235205
 23
2.035903
 33
-1.690335
 62
1
  0
3DFACE
  8
Cylinder1001
 10
1.287216
 20
2.035903
 30
-1.655582
 11
1.060490
 21
2.035903
 31
-1.655582
 12
1.235205
 22
2.035903
 32
-1.690335
 13
1.235205
 23
2.035903
 33
-1.690335
 62
1
  0
3DFACE
  8
Cylinder1001
 10
1.025737
 20
2.035903
 30
-1.603570
 11
1.060490
 21
2.035903
 31
-1.655582
 12
1.287216
 22
2.035903
 32
-1.655582
 13
1.287216
 23
2.035903
 33
-1.655582
 62
1
  0
3DFACE
  8
Cylinder1001
 10
1.321969
 20
2.035903
 30
-1.603570
 11
1.025737
 21
2.035903
 31
-1.603570
 12
1.287216
 22
2.035903
 32
-1.655582
 13
1.287216
 23
2.035903
 33
-1.655582
 62
1
  0
3DFACE
  8
Cylinder1001
 10
1.334173
 20
2.035903
 30
-1.542219
 11
1.025737
 21
2.035903
 31
-1.603570
 12
1.321969
 22
2.035903
 32
-1.603570
 13
1.321969
 23
2.035903
 33
-1.603570
 62
1
  0
3DFACE
  8
Cylinder1001
 10
1.013534
 20
2.035903
 30
-1.542219
 11
1.025737
 21
2.035903
 31
-1.603570
 12
1.334173
 22
2.035903
 32
-1.542219
 13
1.334173
 23
2.035903
 33
-1.542219
 62
1
  0
3DFACE
  8
Cylinder1001
 10
1.025737
 20
2.035903
 30
-1.480867
 11
1.013534
 21
2.035903
 31
-1.542219
 12
1.334173
 22
2.035903
 32
-1.542219
 13
1.334173
 23
2.035903
 33
-1.542219
 62
1
  0
3DFACE
  8
Cylinder1001
 10
1.321969
 20
2.035903
 30
-1.480867
 11
1.025737
 21
2.035903
 31
-1.480867
 12
1.334173
 22
2.035903
 32
-1.542219
 13
1.334173
 23
2.035903
 33
-1.542219
 62
1
  0
3DFACE
  8
Cylinder1001
 10
1.060490
 20
2.035903
 30
-1.428856
 11
1.025737
 21
2.035903
 31
-1.480867
 12
1.321969
 22
2.035903
 32
-1.480867
 13
1.321969
 23
2.035903
 33
-1.480867
 62
1
  0
3DFACE
  8
Cylinder1001
 10
1.287216
 20
2.035903
 30
-1.428856
 11
1.060490
 21
2.035903
 31
-1.428856
 12
1.321969
 22
2.035903
 32
-1.480867
 13
1.321969
 23
2.035903
 33
-1.480867
 62
1
  0
3DFACE
  8
Cylinder1001
 10
1.112502
 20
2.035903
 30
-1.394103
 11
1.060490
 21
2.035903
 31
-1.428856
 12
1.287216
 22
2.035903
 32
-1.428856
 13
1.287216
 23
2.035903
 33
-1.428856
 62
1
  0
3DFACE
  8
Cylinder1001
 10
1.235205
 20
2.035903
 30
-1.394103
 11
1.112502
 21
2.035903
 31
-1.394103
 12
1.287216
 22
2.035903
 32
-1.428856
 13
1.287216
 23
2.035903
 33
-1.428856
 62
1
  0
3DFACE
  8
Cylinder1001
 10
1.173853
 20
2.035903
 30
-1.381899
 11
1.112502
 21
2.035903
 31
-1.394103
 12
1.235205
 22
2.035903
 32
-1.394103
 13
1.235205
 23
2.035903
 33
-1.394103
 62
1
  0
3DFACE
  8
Cylinder1001
 10
1.013534
 20
2.035903
 30
-1.542219
 11
1.025737
 21
2.035903
 31
-1.480867
 12
1.025738
 22
3.333444
 32
-1.480867
 13
1.013534
 23
3.333444
 33
-1.542219
 62
1
  0
3DFACE
  8
Cylinder1001
 10
1.025737
 20
2.035903
 30
-1.480867
 11
1.060490
 21
2.035903
 31
-1.428856
 12
1.060490
 22
3.333444
 32
-1.428856
 13
1.025738
 23
3.333444
 33
-1.480867
 62
1
  0
3DFACE
  8
Cylinder1001
 10
1.060490
 20
2.035903
 30
-1.428856
 11
1.112502
 21
2.035903
 31
-1.394103
 12
1.112502
 22
3.333444
 32
-1.394103
 13
1.060490
 23
3.333444
 33
-1.428856
 62
1
  0
3DFACE
  8
Cylinder1001
 10
1.112502
 20
2.035903
 30
-1.394103
 11
1.173853
 21
2.035903
 31
-1.381899
 12
1.173854
 22
3.333444
 32
-1.381899
 13
1.112502
 23
3.333444
 33
-1.394103
 62
1
  0
3DFACE
  8
Cylinder1001
 10
1.235205
 20
2.035903
 30
-1.394103
 11
1.287216
 21
2.035903
 31
-1.428856
 12
1.287217
 22
3.333444
 32
-1.428856
 13
1.235205
 23
3.333444
 33
-1.394103
 62
1
  0
3DFACE
  8
Cylinder1001
 10
1.173853
 20
2.035903
 30
-1.381899
 11
1.235205
 21
2.035903
 31
-1.394103
 12
1.235205
 22
3.333444
 32
-1.394103
 13
1.173854
 23
3.333444
 33
-1.381899
 62
1
  0
3DFACE
  8
Cylinder1001
 10
1.287216
 20
2.035903
 30
-1.428856
 11
1.321969
 21
2.035903
 31
-1.480867
 12
1.321970
 22
3.333444
 32
-1.480867
 13
1.287217
 23
3.333444
 33
-1.428856
 62
1
  0
3DFACE
  8
Cylinder1001
 10
1.321969
 20
2.035903
 30
-1.480867
 11
1.334173
 21
2.035903
 31
-1.542219
 12
1.334173
 22
3.333444
 32
-1.542219
 13
1.321970
 23
3.333444
 33
-1.480867
 62
1
  0
3DFACE
  8
Cylinder2
 10
1.794183
 20
-1.010271
 30
-1.809204
 11
1.845293
 21
-1.010271
 31
-1.552255
 12
1.845294
 22
1.880912
 32
-1.552255
 13
1.794183
 23
1.880912
 33
-1.809204
 62
0
  0
3DFACE
  8
Cylinder2
 10
1.648633
 20
-1.010271
 30
-2.027035
 11
1.794183
 21
-1.010271
 31
-1.809204
 12
1.794183
 22
1.880912
 32
-1.809204
 13
1.648633
 23
1.880912
 33
-2.027035
 62
0
  0
3DFACE
  8
Cylinder2
 10
1.430802
 20
-1.010271
 30
-2.172585
 11
1.648633
 21
-1.010271
 31
-2.027035
 12
1.648633
 22
1.880912
 32
-2.027035
 13
1.430803
 23
1.880912
 33
-2.172585
 62
0
  0
3DFACE
  8
Cylinder2
 10
1.173853
 20
-1.010271
 30
-2.223695
 11
1.430802
 21
-1.010271
 31
-2.172585
 12
1.430803
 22
1.880912
 32
-2.172585
 13
1.173854
 23
1.880911
 33
-2.223695
 62
0
  0
3DFACE
  8
Cylinder2
 10
0.916904
 20
-1.010271
 30
-2.172585
 11
1.173853
 21
-1.010271
 31
-2.223695
 12
1.173854
 22
1.880911
 32
-2.223695
 13
0.916905
 23
1.880911
 33
-2.172585
 62
0
  0
3DFACE
  8
Cylinder2
 10
0.699073
 20
-1.010271
 30
-2.027035
 11
0.916904
 21
-1.010271
 31
-2.172585
 12
0.916905
 22
1.880911
 32
-2.172585
 13
0.699074
 23
1.880911
 33
-2.027035
 62
0
  0
3DFACE
  8
Cylinder2
 10
0.553523
 20
-1.010271
 30
-1.809204
 11
0.699073
 21
-1.010271
 31
-2.027035
 12
0.699074
 22
1.880911
 32
-2.027035
 13
0.553524
 23
1.880911
 33
-1.809204
 62
0
  0
3DFACE
  8
Cylinder2
 10
0.502413
 20
-1.010271
 30
-1.552255
 11
0.553523
 21
-1.010271
 31
-1.809204
 12
0.553524
 22
1.880911
 32
-1.809204
 13
0.502414
 23
1.880911
 33
-1.552255
 62
0
  0
3DFACE
  8
Cylinder2
 10
0.553523
 20
-1.010271
 30
-1.295306
 11
0.502413
 21
-1.010271
 31
-1.552255
 12
0.502414
 22
1.880911
 32
-1.552255
 13
0.553524
 23
1.880911
 33
-1.295306
 62
0
  0
3DFACE
  8
Cylinder2
 10
0.699073
 20
-1.010271
 30
-1.077475
 11
0.553523
 21
-1.010271
 31
-1.295306
 12
0.553524
 22
1.880911
 32
-1.295306
 13
0.699074
 23
1.880911
 33
-1.077475
 62
0
  0
3DFACE
  8
Cylinder2
 10
0.916904
 20
-1.010271
 30
-0.931925
 11
0.699073
 21
-1.010271
 31
-1.077475
 12
0.699074
 22
1.880911
 32
-1.077475
 13
0.916905
 23
1.880911
 33
-0.931925
 62
0
  0
3DFACE
  8
Cylinder2
 10
1.173853
 20
-1.010271
 30
-0.880814
 11
0.916904
 21
-1.010271
 31
-0.931925
 12
0.916905
 22
1.880911
 32
-0.931925
 13
1.173854
 23
1.880912
 33
-0.880814
 62
0
  0
3DFACE
  8
Cylinder2
 10
1.430802
 20
-1.010271
 30
-0.931925
 11
1.173853
 21
-1.010271
 31
-0.880814
 12
1.173854
 22
1.880912
 32
-0.880814
 13
1.430803
 23
1.880912
 33
-0.931925
 62
0
  0
3DFACE
  8
Cylinder2
 10
1.648633
 20
-1.010271
 30
-1.077475
 11
1.430802
 21
-1.010271
 31
-0.931925
 12
1.430803
 22
1.880912
 32
-0.931925
 13
1.648633
 23
1.880912
 33
-1.077475
 62
0
  0
3DFACE
  8
Cylinder2
 10
1.794183
 20
-1.010271
 30
-1.295306
 11
1.648633
 21
-1.010271
 31
-1.077475
 12
1.648633
 22
1.880912
 32
-1.077475
 13
1.794183
 23
1.880912
 33
-1.295306
 62
0
  0
3DFACE
  8
Cylinder2
 10
1.845293
 20
-1.010271
 30
-1.552255
 11
1.794183
 21
-1.010271
 31
-1.295306
 12
1.794183
 22
1.880912
 32
-1.295306
 13
1.845294
 23
1.880912
 33
-1.552255
 62
0
  0
3DFACE
  8
Cylinder2
 10
1.430803
 20
1.880912
 30
-2.172585
 11
0.916905
 21
1.880911
 31
-2.172585
 12
1.173854
 22
1.880911
 32
-2.223695
 13
1.173854
 23
1.880911
 33
-2.223695
 62
2
  0
3DFACE
  8
Cylinder2
 10
0.699074
 20
1.880911
 30
-2.027035
 11
0.916905
 21
1.880911
 31
-2.172585
 12
1.430803
 22
1.880912
 32
-2.172585
 13
1.430803
 23
1.880912
 33
-2.172585
 62
2
  0
3DFACE
  8
Cylinder2
 10
1.648633
 20
1.880912
 30
-2.027035
 11
0.699074
 21
1.880911
 31
-2.027035
 12
1.430803
 22
1.880912
 32
-2.172585
 13
1.430803
 23
1.880912
 33
-2.172585
 62
2
  0
3DFACE
  8
Cylinder2
 10
0.553524
 20
1.880911
 30
-1.809204
 11
0.699074
 21
1.880911
 31
-2.027035
 12
1.648633
 22
1.880912
 32
-2.027035
 13
1.648633
 23
1.880912
 33
-2.027035
 62
2
  0
3DFACE
  8
Cylinder2
 10
1.794183
 20
1.880912
 30
-1.809204
 11
0.553524
 21
1.880911
 31
-1.809204
 12
1.648633
 22
1.880912
 32
-2.027035
 13
1.648633
 23
1.880912
 33
-2.027035
 62
2
  0
3DFACE
  8
Cylinder2
 10
1.845294
 20
1.880912
 30
-1.552255
 11
0.553524
 21
1.880911
 31
-1.809204
 12
1.794183
 22
1.880912
 32
-1.809204
 13
1.794183
 23
1.880912
 33
-1.809204
 62
2
  0
3DFACE
  8
Cylinder2
 10
0.502414
 20
1.880911
 30
-1.552255
 11
0.553524
 21
1.880911
 31
-1.809204
 12
1.845294
 22
1.880912
 32
-1.552255
 13
1.845294
 23
1.880912
 33
-1.552255
 62
2
  0
3DFACE
  8
Cylinder2
 10
0.553524
 20
1.880911
 30
-1.295306
 11
0.502414
 21
1.880911
 31
-1.552255
 12
1.845294
 22
1.880912
 32
-1.552255
 13
1.845294
 23
1.880912
 33
-1.552255
 62
2
  0
3DFACE
  8
Cylinder2
 10
1.794183
 20
1.880912
 30
-1.295306
 11
0.553524
 21
1.880911
 31
-1.295306
 12
1.845294
 22
1.880912
 32
-1.552255
 13
1.845294
 23
1.880912
 33
-1.552255
 62
2
  0
3DFACE
  8
Cylinder2
 10
0.699074
 20
1.880911
 30
-1.077475
 11
0.553524
 21
1.880911
 31
-1.295306
 12
1.794183
 22
1.880912
 32
-1.295306
 13
1.794183
 23
1.880912
 33
-1.295306
 62
2
  0
3DFACE
  8
Cylinder2
 10
1.648633
 20
1.880912
 30
-1.077475
 11
0.699074
 21
1.880911
 31
-1.077475
 12
1.794183
 22
1.880912
 32
-1.295306
 13
1.794183
 23
1.880912
 33
-1.295306
 62
2
  0
3DFACE
  8
Cylinder2
 10
0.916905
 20
1.880911
 30
-0.931925
 11
0.699074
 21
1.880911
 31
-1.077475
 12
1.648633
 22
1.880912
 32
-1.077475
 13
1.648633
 23
1.880912
 33
-1.077475
 62
2
  0
3DFACE
  8
Cylinder2
 10
1.430803
 20
1.880912
 30
-0.931925
 11
0.916905
 21
1.880911
 31
-0.931925
 12
1.648633
 22
1.880912
 32
-1.077475
 13
1.648633
 23
1.880912
 33
-1.077475
 62
2
  0
3DFACE
  8
Cylinder2
 10
1.173854
 20
1.880912
 30
-0.880814
 11
0.916905
 21
1.880911
 31
-0.931925
 12
1.430803
 22
1.880912
 32
-0.931925
 13
1.430803
 23
1.880912
 33
-0.931925
 62
2
  0
3DFACE
  8
Cylinder2
 10
1.385764
 20
-1.010271
 30
-2.063853
 11
1.430802
 21
-1.010271
 31
-2.172585
 12
1.173853
 22
-1.010271
 32
-2.106005
 13
1.173853
 23
-1.010271
 33
-2.106005
 62
1
  0
3DFACE
  8
Cylinder2
 10
1.648633
 20
-1.010271
 30
-2.027035
 11
1.430802
 21
-1.010271
 31
-2.172585
 12
1.385764
 22
-1.010271
 32
-2.063853
 13
1.385764
 23
-1.010271
 33
-2.063853
 62
1
  0
3DFACE
  8
Cylinder2
 10
1.565414
 20
-1.010271
 30
-1.943815
 11
1.648633
 21
-1.010271
 31
-2.027035
 12
1.385764
 22
-1.010271
 32
-2.063853
 13
1.385764
 23
-1.010271
 33
-2.063853
 62
1
  0
3DFACE
  8
Cylinder2
 10
1.794183
 20
-1.010271
 30
-1.809204
 11
1.648633
 21
-1.010271
 31
-2.027035
 12
1.565414
 22
-1.010271
 32
-1.943815
 13
1.565414
 23
-1.010271
 33
-1.943815
 62
1
  0
3DFACE
  8
Cylinder2
 10
1.685452
 20
-1.010271
 30
-1.764166
 11
1.794183
 21
-1.010271
 31
-1.809204
 12
1.565414
 22
-1.010271
 32
-1.943815
 13
1.565414
 23
-1.010271
 33
-1.943815
 62
1
  0
3DFACE
  8
Cylinder2
 10
1.727604
 20
-1.010271
 30
-1.552255
 11
1.794183
 21
-1.010271
 31
-1.809204
 12
1.685452
 22
-1.010271
 32
-1.764166
 13
1.685452
 23
-1.010271
 33
-1.764166
 62
1
  0
3DFACE
  8
Cylinder2
 10
1.845293
 20
-1.010271
 30
-1.552255
 11
1.794183
 21
-1.010271
 31
-1.809204
 12
1.727604
 22
-1.010271
 32
-1.552255
 13
1.727604
 23
-1.010271
 33
-1.552255
 62
1
  0
3DFACE
  8
Cylinder2
 10
1.685452
 20
-1.010271
 30
-1.340344
 11
1.845293
 21
-1.010271
 31
-1.552255
 12
1.727604
 22
-1.010271
 32
-1.552255
 13
1.727604
 23
-1.010271
 33
-1.552255
 62
1
  0
3DFACE
  8
Cylinder2
 10
1.794183
 20
-1.010271
 30
-1.295306
 11
1.845293
 21
-1.010271
 31
-1.552255
 12
1.685452
 22
-1.010271
 32
-1.340344
 13
1.685452
 23
-1.010271
 33
-1.340344
 62
1
  0
3DFACE
  8
Cylinder2
 10
1.565414
 20
-1.010271
 30
-1.160695
 11
1.794183
 21
-1.010271
 31
-1.295306
 12
1.685452
 22
-1.010271
 32
-1.340344
 13
1.685452
 23
-1.010271
 33
-1.340344
 62
1
  0
3DFACE
  8
Cylinder2
 10
1.648633
 20
-1.010271
 30
-1.077475
 11
1.794183
 21
-1.010271
 31
-1.295306
 12
1.565414
 22
-1.010271
 32
-1.160695
 13
1.565414
 23
-1.010271
 33
-1.160695
 62
1
  0
3DFACE
  8
Cylinder2
 10
1.385764
 20
-1.010271
 30
-1.040657
 11
1.648633
 21
-1.010271
 31
-1.077475
 12
1.565414
 22
-1.010271
 32
-1.160695
 13
1.565414
 23
-1.010271
 33
-1.160695
 62
1
  0
3DFACE
  8
Cylinder2
 10
1.173853
 20
-1.010271
 30
-0.998505
 11
1.648633
 21
-1.010271
 31
-1.077475
 12
1.385764
 22
-1.010271
 32
-1.040657
 13
1.385764
 23
-1.010271
 33
-1.040657
 62
1
  0
3DFACE
  8
Cylinder2
 10
1.430802
 20
-1.010271
 30
-0.931925
 11
1.648633
 21
-1.010271
 31
-1.077475
 12
1.173853
 22
-1.010271
 32
-0.998505
 13
1.173853
 23
-1.010271
 33
-0.998505
 62
1
  0
3DFACE
  8
Cylinder2
 10
0.916904
 20
-1.010271
 30
-0.931925
 11
1.430802
 21
-1.010271
 31
-0.931925
 12
1.173853
 22
-1.010271
 32
-0.998505
 13
1.173853
 23
-1.010271
 33
-0.998505
 62
1
  0
3DFACE
  8
Cylinder2
 10
1.173853
 20
-1.010271
 30
-0.880814
 11
1.430802
 21
-1.010271
 31
-0.931925
 12
0.916904
 22
-1.010271
 32
-0.931925
 13
0.916904
 23
-1.010271
 33
-0.931925
 62
1
  0
3DFACE
  8
Cylinder2
 10
0.916904
 20
-1.010271
 30
-2.172585
 11
1.430802
 21
-1.010271
 31
-2.172585
 12
1.173853
 22
-1.010271
 32
-2.223695
 13
1.173853
 23
-1.010271
 33
-2.223695
 62
1
  0
3DFACE
  8
Cylinder2
 10
1.173853
 20
-1.010271
 30
-2.106005
 11
1.430802
 21
-1.010271
 31
-2.172585
 12
0.916904
 22
-1.010271
 32
-2.172585
 13
0.916904
 23
-1.010271
 33
-2.172585
 62
1
  0
3DFACE
  8
Cylinder2
 10
0.961942
 20
-1.010271
 30
-2.063853
 11
1.173853
 21
-1.010271
 31
-2.106005
 12
0.916904
 22
-1.010271
 32
-2.172585
 13
0.916904
 23
-1.010271
 33
-2.172585
 62
1
  0
3DFACE
  8
Cylinder2
 10
0.699073
 20
-1.010271
 30
-2.027035
 11
0.961942
 21
-1.010271
 31
-2.063853
 12
0.916904
 22
-1.010271
 32
-2.172585
 13
0.916904
 23
-1.010271
 33
-2.172585
 62
1
  0
3DFACE
  8
Cylinder2
 10
0.782292
 20
-1.010271
 30
-1.943815
 11
0.961942
 21
-1.010271
 31
-2.063853
 12
0.699073
 22
-1.010271
 32
-2.027035
 13
0.699073
 23
-1.010271
 33
-2.027035
 62
1
  0
3DFACE
  8
Cylinder2
 10
0.553523
 20
-1.010271
 30
-1.809204
 11
0.782292
 21
-1.010271
 31
-1.943815
 12
0.699073
 22
-1.010271
 32
-2.027035
 13
0.699073
 23
-1.010271
 33
-2.027035
 62
1
  0
3DFACE
  8
Cylinder2
 10
0.662254
 20
-1.010271
 30
-1.764166
 11
0.782292
 21
-1.010271
 31
-1.943815
 12
0.553523
 22
-1.010271
 32
-1.809204
 13
0.553523
 23
-1.010271
 33
-1.809204
 62
1
  0
3DFACE
  8
Cylinder2
 10
0.620103
 20
-1.010271
 30
-1.552255
 11
0.662254
 21
-1.010271
 31
-1.764166
 12
0.553523
 22
-1.010271
 32
-1.809204
 13
0.553523
 23
-1.010271
 33
-1.809204
 62
1
  0
3DFACE
  8
Cylinder2
 10
0.502413
 20
-1.010271
 30
-1.552255
 11
0.620103
 21
-1.010271
 31
-1.552255
 12
0.553523
 22
-1.010271
 32
-1.809204
 13
0.553523
 23
-1.010271
 33
-1.809204
 62
1
  0
3DFACE
  8
Cylinder2
 10
0.662254
 20
-1.010271
 30
-1.340344
 11
0.620103
 21
-1.010271
 31
-1.552255
 12
0.502413
 22
-1.010271
 32
-1.552255
 13
0.502413
 23
-1.010271
 33
-1.552255
 62
1
  0
3DFACE
  8
Cylinder2
 10
0.553523
 20
-1.010271
 30
-1.295306
 11
0.662254
 21
-1.010271
 31
-1.340344
 12
0.502413
 22
-1.010271
 32
-1.552255
 13
0.502413
 23
-1.010271
 33
-1.552255
 62
1
  0
3DFACE
  8
Cylinder2
 10
0.782292
 20
-1.010271
 30
-1.160695
 11
0.662254
 21
-1.010271
 31
-1.340344
 12
0.553523
 22
-1.010271
 32
-1.295306
 13
0.553523
 23
-1.010271
 33
-1.295306
 62
1
  0
3DFACE
  8
Cylinder2
 10
0.699073
 20
-1.010271
 30
-1.077475
 11
0.782292
 21
-1.010271
 31
-1.160695
 12
0.553523
 22
-1.010271
 32
-1.295306
 13
0.553523
 23
-1.010271
 33
-1.295306
 62
1
  0
3DFACE
  8
Cylinder2
 10
0.961942
 20
-1.010271
 30
-1.040657
 11
0.782292
 21
-1.010271
 31
-1.160695
 12
0.699073
 22
-1.010271
 32
-1.077475
 13
0.699073
 23
-1.010271
 33
-1.077475
 62
1
  0
3DFACE
  8
Cylinder2
 10
1.173853
 20
-1.010271
 30
-0.998505
 11
0.961942
 21
-1.010271
 31
-1.040657
 12
0.699073
 22
-1.010271
 32
-1.077475
 13
0.699073
 23
-1.010271
 33
-1.077475
 62
1
  0
3DFACE
  8
Cylinder2
 10
0.916904
 20
-1.010271
 30
-0.931925
 11
1.173853
 21
-1.010271
 31
-0.998505
 12
0.699073
 22
-1.010271
 32
-1.077475
 13
0.699073
 23
-1.010271
 33
-1.077475
 62
1
  0
3DFACE
  8
Cylinder2
 10
0.756095
 20
-0.914757
 30
-1.379215
 11
0.721676
 21
-0.914757
 31
-1.552255
 12
0.620103
 22
-1.010271
 32
-1.552255
 13
0.662254
 23
-1.010271
 33
-1.340344
 62
1
  0
3DFACE
  8
Cylinder2
 10
0.854115
 20
-0.914757
 30
-1.232519
 11
0.756095
 21
-0.914757
 31
-1.379215
 12
0.662254
 22
-1.010271
 32
-1.340344
 13
0.782292
 23
-1.010271
 33
-1.160695
 62
1
  0
3DFACE
  8
Cylinder2
 10
1.000812
 20
-0.914757
 30
-1.134500
 11
0.854115
 21
-0.914757
 31
-1.232519
 12
0.782292
 22
-1.010271
 32
-1.160695
 13
0.961942
 23
-1.010271
 33
-1.040657
 62
1
  0
3DFACE
  8
Cylinder2
 10
1.173853
 20
-0.914757
 30
-1.100080
 11
1.000812
 21
-0.914757
 31
-1.134500
 12
0.961942
 22
-1.010271
 32
-1.040657
 13
1.173853
 23
-1.010271
 33
-0.998505
 62
1
  0
3DFACE
  8
Cylinder2
 10
1.346894
 20
-0.914757
 30
-1.134500
 11
1.173853
 21
-0.914757
 31
-1.100080
 12
1.173853
 22
-1.010271
 32
-0.998505
 13
1.385764
 23
-1.010271
 33
-1.040657
 62
1
  0
3DFACE
  8
Cylinder2
 10
1.493591
 20
-0.914757
 30
-1.232519
 11
1.346894
 21
-0.914757
 31
-1.134500
 12
1.385764
 22
-1.010271
 32
-1.040657
 13
1.565414
 23
-1.010271
 33
-1.160695
 62
1
  0
3DFACE
  8
Cylinder2
 10
1.591611
 20
-0.914757
 30
-1.379215
 11
1.493591
 21
-0.914757
 31
-1.232519
 12
1.565414
 22
-1.010271
 32
-1.160695
 13
1.685452
 23
-1.010271
 33
-1.340344
 62
1
  0
3DFACE
  8
Cylinder2
 10
1.626031
 20
-0.914757
 30
-1.552255
 11
1.591611
 21
-0.914757
 31
-1.379215
 12
1.685452
 22
-1.010271
 32
-1.340344
 13
1.727604
 23
-1.010271
 33
-1.552255
 62
1
  0
3DFACE
  8
Cylinder2
 10
1.000812
 20
-0.914757
 30
-1.970011
 11
1.346894
 21
-0.914757
 31
-1.970011
 12
1.173853
 22
-0.914757
 32
-2.004431
 13
1.173853
 23
-0.914757
 33
-2.004431
 62
1
  0
3DFACE
  8
Cylinder2
 10
1.493591
 20
-0.914757
 30
-1.871992
 11
1.346894
 21
-0.914757
 31
-1.970011
 12
1.000812
 22
-0.914757
 32
-1.970011
 13
1.000812
 23
-0.914757
 33
-1.970011
 62
1
  0
3DFACE
  8
Cylinder2
 10
0.854115
 20
-0.914757
 30
-1.871992
 11
1.493591
 21
-0.914757
 31
-1.871992
 12
1.000812
 22
-0.914757
 32
-1.970011
 13
1.000812
 23
-0.914757
 33
-1.970011
 62
1
  0
3DFACE
  8
Cylinder2
 10
1.591611
 20
-0.914757
 30
-1.725295
 11
1.493591
 21
-0.914757
 31
-1.871992
 12
0.854115
 22
-0.914757
 32
-1.871992
 13
0.854115
 23
-0.914757
 33
-1.871992
 62
1
  0
3DFACE
  8
Cylinder2
 10
0.756095
 20
-0.914757
 30
-1.725295
 11
1.591611
 21
-0.914757
 31
-1.725295
 12
0.854115
 22
-0.914757
 32
-1.871992
 13
0.854115
 23
-0.914757
 33
-1.871992
 62
1
  0
3DFACE
  8
Cylinder2
 10
1.626031
 20
-0.914757
 30
-1.552255
 11
1.591611
 21
-0.914757
 31
-1.725295
 12
0.756095
 22
-0.914757
 32
-1.725295
 13
0.756095
 23
-0.914757
 33
-1.725295
 62
1
  0
3DFACE
  8
Cylinder2
 10
0.721676
 20
-0.914757
 30
-1.552255
 11
1.626031
 21
-0.914757
 31
-1.552255
 12
0.756095
 22
-0.914757
 32
-1.725295
 13
0.756095
 23
-0.914757
 33
-1.725295
 62
1
  0
3DFACE
  8
Cylinder2
 10
1.591611
 20
-0.914757
 30
-1.379215
 11
1.626031
 21
-0.914757
 31
-1.552255
 12
0.721676
 22
-0.914757
 32
-1.552255
 13
0.721676
 23
-0.914757
 33
-1.552255
 62
1
  0
3DFACE
  8
Cylinder2
 10
0.756095
 20
-0.914757
 30
-1.379215
 11
1.591611
 21
-0.914757
 31
-1.379215
 12
0.721676
 22
-0.914757
 32
-1.552255
 13
0.721676
 23
-0.914757
 33
-1.552255
 62
1
  0
3DFACE
  8
Cylinder2
 10
1.493591
 20
-0.914757
 30
-1.232519
 11
1.591611
 21
-0.914757
 31
-1.379215
 12
0.756095
 22
-0.914757
 32
-1.379215
 13
0.756095
 23
-0.914757
 33
-1.379215
 62
1
  0
3DFACE
  8
Cylinder2
 10
0.854115
 20
-0.914757
 30
-1.232519
 11
1.493591
 21
-0.914757
 31
-1.232519
 12
0.756095
 22
-0.914757
 32
-1.379215
 13
0.756095
 23
-0.914757
 33
-1.379215
 62
1
  0
3DFACE
  8
Cylinder2
 10
1.346894
 20
-0.914757
 30
-1.134500
 11
1.493591
 21
-0.914757
 31
-1.232519
 12
0.854115
 22
-0.914757
 32
-1.232519
 13
0.854115
 23
-0.914757
 33
-1.232519
 62
1
  0
3DFACE
  8
Cylinder2
 10
1.000812
 20
-0.914757
 30
-1.134500
 11
1.346894
 21
-0.914757
 31
-1.134500
 12
0.854115
 22
-0.914757
 32
-1.232519
 13
0.854115
 23
-0.914757
 33
-1.232519
 62
1
  0
3DFACE
  8
Cylinder2
 10
1.173853
 20
-0.914757
 30
-1.100080
 11
1.346894
 21
-0.914757
 31
-1.134500
 12
1.000812
 22
-0.914757
 32
-1.134500
 13
1.000812
 23
-0.914757
 33
-1.134500
 62
1
  0
3DFACE
  8
Cylinder2
 10
0.756095
 20
-0.914757
 30
-1.725295
 11
0.854115
 21
-0.914757
 31
-1.871992
 12
0.782292
 22
-1.010271
 32
-1.943815
 13
0.662254
 23
-1.010271
 33
-1.764166
 62
1
  0
3DFACE
  8
Cylinder2
 10
0.721676
 20
-0.914757
 30
-1.552255
 11
0.756095
 21
-0.914757
 31
-1.725295
 12
0.662254
 22
-1.010271
 32
-1.764166
 13
0.620103
 23
-1.010271
 33
-1.552255
 62
1
  0
3DFACE
  8
Cylinder2
 10
0.854115
 20
-0.914757
 30
-1.871992
 11
1.000812
 21
-0.914757
 31
-1.970011
 12
0.961942
 22
-1.010271
 32
-2.063853
 13
0.782292
 23
-1.010271
 33
-1.943815
 62
1
  0
3DFACE
  8
Cylinder2
 10
1.000812
 20
-0.914757
 30
-1.970011
 11
1.173853
 21
-0.914757
 31
-2.004431
 12
1.173853
 22
-1.010271
 32
-2.106005
 13
0.961942
 23
-1.010271
 33
-2.063853
 62
1
  0
3DFACE
  8
Cylinder2
 10
1.173853
 20
-0.914757
 30
-2.004431
 11
1.346894
 21
-0.914757
 31
-1.970011
 12
1.385764
 22
-1.010271
 32
-2.063853
 13
1.173853
 23
-1.010271
 33
-2.106005
 62
1
  0
3DFACE
  8
Cylinder2
 10
1.346894
 20
-0.914757
 30
-1.970011
 11
1.493591
 21
-0.914757
 31
-1.871992
 12
1.565414
 22
-1.010271
 32
-1.943815
 13
1.385764
 23
-1.010271
 33
-2.063853
 62
1
  0
3DFACE
  8
Cylinder2
 10
1.493591
 20
-0.914757
 30
-1.871992
 11
1.591611
 21
-0.914757
 31
-1.725295
 12
1.685452
 22
-1.010271
 32
-1.764166
 13
1.565414
 23
-1.010271
 33
-1.943815
 62
1
  0
3DFACE
  8
Cylinder2
 10
1.591611
 20
-0.914757
 30
-1.725295
 11
1.626031
 21
-0.914757
 31
-1.552255
 12
1.727604
 22
-1.010271
 32
-1.552255
 13
1.685452
 23
-1.010271
 33
-1.764166
 62
1
  0
3DFACE
  8
Cylinder1002
 10
1.737825
 20
-0.517735
 30
-1.785860
 11
1.737825
 21
-0.969912
 31
-1.785860
 12
1.784292
 22
-0.969912
 32
-1.552255
 13
1.784292
 23
-0.517735
 33
-1.552255
 62
0
  0
3DFACE
  8
Cylinder1002
 10
1.605498
 20
-0.517735
 30
-1.983900
 11
1.605498
 21
-0.969912
 31
-1.983900
 12
1.737825
 22
-0.969912
 32
-1.785860
 13
1.737825
 23
-0.517735
 33
-1.785860
 62
0
  0
3DFACE
  8
Cylinder1002
 10
1.407458
 20
-0.517735
 30
-2.116226
 11
1.407458
 21
-0.969912
 31
-2.116226
 12
1.605498
 22
-0.969912
 32
-1.983900
 13
1.605498
 23
-0.517735
 33
-1.983900
 62
0
  0
3DFACE
  8
Cylinder1002
 10
1.173853
 20
-0.517735
 30
-2.162693
 11
1.173853
 21
-0.969912
 31
-2.162693
 12
1.407458
 22
-0.969912
 32
-2.116226
 13
1.407458
 23
-0.517735
 33
-2.116226
 62
0
  0
3DFACE
  8
Cylinder1002
 10
0.940249
 20
-0.517735
 30
-2.116226
 11
0.940249
 21
-0.969912
 31
-2.116226
 12
1.173853
 22
-0.969912
 32
-2.162693
 13
1.173853
 23
-0.517735
 33
-2.162693
 62
0
  0
3DFACE
  8
Cylinder1002
 10
0.742208
 20
-0.517735
 30
-1.983900
 11
0.742208
 21
-0.969912
 31
-1.983900
 12
0.940249
 22
-0.969912
 32
-2.116226
 13
0.940249
 23
-0.517735
 33
-2.116226
 62
0
  0
3DFACE
  8
Cylinder1002
 10
0.609882
 20
-0.517735
 30
-1.785860
 11
0.609882
 21
-0.969912
 31
-1.785860
 12
0.742208
 22
-0.969912
 32
-1.983900
 13
0.742208
 23
-0.517735
 33
-1.983900
 62
0
  0
3DFACE
  8
Cylinder1002
 10
0.563415
 20
-0.517735
 30
-1.552255
 11
0.563415
 21
-0.969912
 31
-1.552255
 12
0.609882
 22
-0.969912
 32
-1.785860
 13
0.609882
 23
-0.517735
 33
-1.785860
 62
0
  0
3DFACE
  8
Cylinder1002
 10
0.609882
 20
-0.517735
 30
-1.318650
 11
0.609882
 21
-0.969912
 31
-1.318650
 12
0.563415
 22
-0.969912
 32
-1.552255
 13
0.563415
 23
-0.517735
 33
-1.552255
 62
0
  0
3DFACE
  8
Cylinder1002
 10
0.742208
 20
-0.517735
 30
-1.120610
 11
0.742208
 21
-0.969912
 31
-1.120610
 12
0.609882
 22
-0.969912
 32
-1.318650
 13
0.609882
 23
-0.517735
 33
-1.318650
 62
0
  0
3DFACE
  8
Cylinder1002
 10
0.940249
 20
-0.517735
 30
-0.988284
 11
0.940249
 21
-0.969912
 31
-0.988284
 12
0.742208
 22
-0.969912
 32
-1.120610
 13
0.742208
 23
-0.517735
 33
-1.120610
 62
0
  0
3DFACE
  8
Cylinder1002
 10
1.173853
 20
-0.517735
 30
-0.941817
 11
1.173853
 21
-0.969912
 31
-0.941817
 12
0.940249
 22
-0.969912
 32
-0.988284
 13
0.940249
 23
-0.517735
 33
-0.988284
 62
0
  0
3DFACE
  8
Cylinder1002
 10
1.407458
 20
-0.517735
 30
-0.988284
 11
1.407458
 21
-0.969912
 31
-0.988284
 12
1.173853
 22
-0.969912
 32
-0.941817
 13
1.173853
 23
-0.517735
 33
-0.941817
 62
0
  0
3DFACE
  8
Cylinder1002
 10
1.605498
 20
-0.517735
 30
-1.120610
 11
1.605498
 21
-0.969912
 31
-1.120610
 12
1.407458
 22
-0.969912
 32
-0.988284
 13
1.407458
 23
-0.517735
 33
-0.988284
 62
0
  0
3DFACE
  8
Cylinder1002
 10
1.737825
 20
-0.517735
 30
-1.318650
 11
1.737825
 21
-0.969912
 31
-1.318650
 12
1.605498
 22
-0.969912
 32
-1.120610
 13
1.605498
 23
-0.517735
 33
-1.120610
 62
0
  0
3DFACE
  8
Cylinder1002
 10
1.784292
 20
-0.517735
 30
-1.552255
 11
1.784292
 21
-0.969912
 31
-1.552255
 12
1.737825
 22
-0.969912
 32
-1.318650
 13
1.737825
 23
-0.517735
 33
-1.318650
 62
0
  0
3DFACE
  8
Cylinder1002
 10
1.407458
 20
-0.517735
 30
-2.116226
 11
0.940249
 21
-0.517735
 31
-2.116226
 12
1.173853
 22
-0.517735
 32
-2.162693
 13
1.173853
 23
-0.517735
 33
-2.162693
 62
0
  0
3DFACE
  8
Cylinder1002
 10
0.742208
 20
-0.517735
 30
-1.983900
 11
0.940249
 21
-0.517735
 31
-2.116226
 12
1.407458
 22
-0.517735
 32
-2.116226
 13
1.407458
 23
-0.517735
 33
-2.116226
 62
0
  0
3DFACE
  8
Cylinder1002
 10
1.605498
 20
-0.517735
 30
-1.983900
 11
0.742208
 21
-0.517735
 31
-1.983900
 12
1.407458
 22
-0.517735
 32
-2.116226
 13
1.407458
 23
-0.517735
 33
-2.116226
 62
0
  0
3DFACE
  8
Cylinder1002
 10
0.609882
 20
-0.517735
 30
-1.785860
 11
0.742208
 21
-0.517735
 31
-1.983900
 12
1.605498
 22
-0.517735
 32
-1.983900
 13
1.605498
 23
-0.517735
 33
-1.983900
 62
0
  0
3DFACE
  8
Cylinder1002
 10
1.737825
 20
-0.517735
 30
-1.785860
 11
0.609882
 21
-0.517735
 31
-1.785860
 12
1.605498
 22
-0.517735
 32
-1.983900
 13
1.605498
 23
-0.517735
 33
-1.983900
 62
0
  0
3DFACE
  8
Cylinder1002
 10
1.784292
 20
-0.517735
 30
-1.552255
 11
0.609882
 21
-0.517735
 31
-1.785860
 12
1.737825
 22
-0.517735
 32
-1.785860
 13
1.737825
 23
-0.517735
 33
-1.785860
 62
0
  0
3DFACE
  8
Cylinder1002
 10
0.563415
 20
-0.517735
 30
-1.552255
 11
0.609882
 21
-0.517735
 31
-1.785860
 12
1.784292
 22
-0.517735
 32
-1.552255
 13
1.784292
 23
-0.517735
 33
-1.552255
 62
0
  0
3DFACE
  8
Cylinder1002
 10
0.609882
 20
-0.517735
 30
-1.318650
 11
0.563415
 21
-0.517735
 31
-1.552255
 12
1.784292
 22
-0.517735
 32
-1.552255
 13
1.784292
 23
-0.517735
 33
-1.552255
 62
0
  0
3DFACE
  8
Cylinder1002
 10
1.737825
 20
-0.517735
 30
-1.318650
 11
0.609882
 21
-0.517735
 31
-1.318650
 12
1.784292
 22
-0.517735
 32
-1.552255
 13
1.784292
 23
-0.517735
 33
-1.552255
 62
0
  0
3DFACE
  8
Cylinder1002
 10
0.742208
 20
-0.517735
 30
-1.120610
 11
0.609882
 21
-0.517735
 31
-1.318650
 12
1.737825
 22
-0.517735
 32
-1.318650
 13
1.737825
 23
-0.517735
 33
-1.318650
 62
0
  0
3DFACE
  8
Cylinder1002
 10
1.605498
 20
-0.517735
 30
-1.120610
 11
0.742208
 21
-0.517735
 31
-1.120610
 12
1.737825
 22
-0.517735
 32
-1.318650
 13
1.737825
 23
-0.517735
 33
-1.318650
 62
0
  0
3DFACE
  8
Cylinder1002
 10
0.940249
 20
-0.517735
 30
-0.988284
 11
0.742208
 21
-0.517735
 31
-1.120610
 12
1.605498
 22
-0.517735
 32
-1.120610
 13
1.605498
 23
-0.517735
 33
-1.120610
 62
0
  0
3DFACE
  8
Cylinder1002
 10
1.407458
 20
-0.517735
 30
-0.988284
 11
0.940249
 21
-0.517735
 31
-0.988284
 12
1.605498
 22
-0.517735
 32
-1.120610
 13
1.605498
 23
-0.517735
 33
-1.120610
 62
0
  0
3DFACE
  8
Cylinder1002
 10
1.173853
 20
-0.517735
 30
-0.941817
 11
0.940249
 21
-0.517735
 31
-0.988284
 12
1.407458
 22
-0.517735
 32
-0.988284
 13
1.407458
 23
-0.517735
 33
-0.988284
 62
0
  0
3DFACE
  8
Cylinder1002
 10
0.940249
 20
-0.969912
 30
-2.116226
 11
1.407458
 21
-0.969912
 31
-2.116226
 12
1.173853
 22
-0.969912
 32
-2.162693
 13
1.173853
 23
-0.969912
 33
-2.162693
 62
1
  0
3DFACE
  8
Cylinder1002
 10
1.605498
 20
-0.969912
 30
-1.983900
 11
1.407458
 21
-0.969912
 31
-2.116226
 12
0.940249
 22
-0.969912
 32
-2.116226
 13
0.940249
 23
-0.969912
 33
-2.116226
 62
1
  0
3DFACE
  8
Cylinder1002
 10
0.742208
 20
-0.969912
 30
-1.983900
 11
1.605498
 21
-0.969912
 31
-1.983900
 12
0.940249
 22
-0.969912
 32
-2.116226
 13
0.940249
 23
-0.969912
 33
-2.116226
 62
1
  0
3DFACE
  8
Cylinder1002
 10
1.737825
 20
-0.969912
 30
-1.785860
 11
1.605498
 21
-0.969912
 31
-1.983900
 12
0.742208
 22
-0.969912
 32
-1.983900
 13
0.742208
 23
-0.969912
 33
-1.983900
 62
1
  0
3DFACE
  8
Cylinder1002
 10
0.609882
 20
-0.969912
 30
-1.785860
 11
1.737825
 21
-0.969912
 31
-1.785860
 12
0.742208
 22
-0.969912
 32
-1.983900
 13
0.742208
 23
-0.969912
 33
-1.983900
 62
1
  0
3DFACE
  8
Cylinder1002
 10
1.784292
 20
-0.969912
 30
-1.552255
 11
1.737825
 21
-0.969912
 31
-1.785860
 12
0.609882
 22
-0.969912
 32
-1.785860
 13
0.609882
 23
-0.969912
 33
-1.785860
 62
1
  0
3DFACE
  8
Cylinder1002
 10
0.563415
 20
-0.969912
 30
-1.552255
 11
1.784292
 21
-0.969912
 31
-1.552255
 12
0.609882
 22
-0.969912
 32
-1.785860
 13
0.609882
 23
-0.969912
 33
-1.785860
 62
1
  0
3DFACE
  8
Cylinder1002
 10
1.737825
 20
-0.969912
 30
-1.318650
 11
1.784292
 21
-0.969912
 31
-1.552255
 12
0.563415
 22
-0.969912
 32
-1.552255
 13
0.563415
 23
-0.969912
 33
-1.552255
 62
1
  0
3DFACE
  8
Cylinder1002
 10
0.609882
 20
-0.969912
 30
-1.318650
 11
1.737825
 21
-0.969912
 31
-1.318650
 12
0.563415
 22
-0.969912
 32
-1.552255
 13
0.563415
 23
-0.969912
 33
-1.552255
 62
1
  0
3DFACE
  8
Cylinder1002
 10
1.605498
 20
-0.969912
 30
-1.120610
 11
1.737825
 21
-0.969912
 31
-1.318650
 12
0.609882
 22
-0.969912
 32
-1.318650
 13
0.609882
 23
-0.969912
 33
-1.318650
 62
1
  0
3DFACE
  8
Cylinder1002
 10
0.742208
 20
-0.969912
 30
-1.120610
 11
1.605498
 21
-0.969912
 31
-1.120610
 12
0.609882
 22
-0.969912
 32
-1.318650
 13
0.609882
 23
-0.969912
 33
-1.318650
 62
1
  0
3DFACE
  8
Cylinder1002
 10
1.407458
 20
-0.969912
 30
-0.988284
 11
1.605498
 21
-0.969912
 31
-1.120610
 12
0.742208
 22
-0.969912
 32
-1.120610
 13
0.742208
 23
-0.969912
 33
-1.120610
 62
1
  0
3DFACE
  8
Cylinder1002
 10
0.940249
 20
-0.969912
 30
-0.988284
 11
1.407458
 21
-0.969912
 31
-0.988284
 12
0.742208
 22
-0.969912
 32
-1.120610
 13
0.742208
 23
-0.969912
 33
-1.120610
 62
1
  0
3DFACE
  8
Cylinder1002
 10
1.173853
 20
-0.969912
 30
-0.941817
 11
1.407458
 21
-0.969912
 31
-0.988284
 12
0.940249
 22
-0.969912
 32
-0.988284
 13
0.940249
 23
-0.969912
 33
-0.988284
 62
1
  0
3DFACE
  8
Cylinder1003
 10
-0.952466
 20
1.694691
 30
-1.634668
 11
-0.934077
 21
1.694691
 31
-1.542219
 12
-0.934077
 22
3.333444
 32
-1.542219
 13
-0.952466
 23
3.333444
 33
-1.634668
 62
0
  0
3DFACE
  8
Cylinder1003
 10
-1.004835
 20
1.694691
 30
-1.713043
 11
-0.952466
 21
1.694691
 31
-1.634668
 12
-0.952466
 22
3.333444
 32
-1.634668
 13
-1.004834
 23
3.333444
 33
-1.713043
 62
0
  0
3DFACE
  8
Cylinder1003
 10
-1.083210
 20
1.694691
 30
-1.765411
 11
-1.004835
 21
1.694691
 31
-1.713043
 12
-1.004834
 22
3.333444
 32
-1.713043
 13
-1.083209
 23
3.333444
 33
-1.765411
 62
0
  0
3DFACE
  8
Cylinder1003
 10
-1.175659
 20
1.694691
 30
-1.783800
 11
-1.083210
 21
1.694691
 31
-1.765411
 12
-1.083209
 22
3.333444
 32
-1.765411
 13
-1.175658
 23
3.333444
 33
-1.783800
 62
0
  0
3DFACE
  8
Cylinder1003
 10
-1.268108
 20
1.694691
 30
-1.765411
 11
-1.175659
 21
1.694691
 31
-1.783800
 12
-1.175658
 22
3.333444
 32
-1.783800
 13
-1.268108
 23
3.333444
 33
-1.765411
 62
0
  0
3DFACE
  8
Cylinder1003
 10
-1.346483
 20
1.694691
 30
-1.713043
 11
-1.268108
 21
1.694691
 31
-1.765411
 12
-1.268108
 22
3.333444
 32
-1.765411
 13
-1.346482
 23
3.333444
 33
-1.713043
 62
0
  0
3DFACE
  8
Cylinder1003
 10
-1.398851
 20
1.694691
 30
-1.634668
 11
-1.346483
 21
1.694691
 31
-1.713043
 12
-1.346482
 22
3.333444
 32
-1.713043
 13
-1.398851
 23
3.333444
 33
-1.634668
 62
0
  0
3DFACE
  8
Cylinder1003
 10
-1.417241
 20
1.694691
 30
-1.542219
 11
-1.398851
 21
1.694691
 31
-1.634668
 12
-1.398851
 22
3.333444
 32
-1.634668
 13
-1.417240
 23
3.333444
 33
-1.542219
 62
0
  0
3DFACE
  8
Cylinder1003
 10
-1.398851
 20
1.694691
 30
-1.449769
 11
-1.417241
 21
1.694691
 31
-1.542219
 12
-1.417240
 22
3.333444
 32
-1.542219
 13
-1.398851
 23
3.333444
 33
-1.449769
 62
0
  0
3DFACE
  8
Cylinder1003
 10
-1.346483
 20
1.694691
 30
-1.371395
 11
-1.398851
 21
1.694691
 31
-1.449769
 12
-1.398851
 22
3.333444
 32
-1.449769
 13
-1.346482
 23
3.333444
 33
-1.371395
 62
0
  0
3DFACE
  8
Cylinder1003
 10
-1.268108
 20
1.694691
 30
-1.319026
 11
-1.346483
 21
1.694691
 31
-1.371395
 12
-1.346482
 22
3.333444
 32
-1.371395
 13
-1.268108
 23
3.333444
 33
-1.319026
 62
0
  0
3DFACE
  8
Cylinder1003
 10
-1.175659
 20
1.694691
 30
-1.300637
 11
-1.268108
 21
1.694691
 31
-1.319026
 12
-1.268108
 22
3.333444
 32
-1.319026
 13
-1.175658
 23
3.333444
 33
-1.300637
 62
0
  0
3DFACE
  8
Cylinder1003
 10
-1.083210
 20
1.694691
 30
-1.319026
 11
-1.175659
 21
1.694691
 31
-1.300637
 12
-1.175658
 22
3.333444
 32
-1.300637
 13
-1.083209
 23
3.333444
 33
-1.319026
 62
0
  0
3DFACE
  8
Cylinder1003
 10
-1.004835
 20
1.694691
 30
-1.371395
 11
-1.083210
 21
1.694691
 31
-1.319026
 12
-1.083209
 22
3.333444
 32
-1.319026
 13
-1.004834
 23
3.333444
 33
-1.371395
 62
0
  0
3DFACE
  8
Cylinder1003
 10
-0.952466
 20
1.694691
 30
-1.449769
 11
-1.004835
 21
1.694691
 31
-1.371395
 12
-1.004834
 22
3.333444
 32
-1.371395
 13
-0.952466
 23
3.333444
 33
-1.449769
 62
0
  0
3DFACE
  8
Cylinder1003
 10
-0.934077
 20
1.694691
 30
-1.542219
 11
-0.952466
 21
1.694691
 31
-1.449769
 12
-0.952466
 22
3.333444
 32
-1.449769
 13
-0.934077
 23
3.333444
 33
-1.542219
 62
0
  0
3DFACE
  8
Cylinder1003
 10
-1.114307
 20
3.333444
 30
-1.690335
 11
-1.175658
 21
3.333444
 31
-1.702538
 12
-1.004834
 22
3.333444
 32
-1.713043
 13
-1.004834
 23
3.333444
 33
-1.713043
 62
1
  0
3DFACE
  8
Cylinder1003
 10
-1.062295
 20
3.333444
 30
-1.655582
 11
-1.114307
 21
3.333444
 31
-1.690335
 12
-1.004834
 22
3.333444
 32
-1.713043
 13
-1.004834
 23
3.333444
 33
-1.713043
 62
1
  0
3DFACE
  8
Cylinder1003
 10
-0.952466
 20
3.333444
 30
-1.634668
 11
-1.062295
 21
3.333444
 31
-1.655582
 12
-1.004834
 22
3.333444
 32
-1.713043
 13
-1.004834
 23
3.333444
 33
-1.713043
 62
1
  0
3DFACE
  8
Cylinder1003
 10
-1.027542
 20
3.333444
 30
-1.603570
 11
-1.062295
 21
3.333444
 31
-1.655582
 12
-0.952466
 22
3.333444
 32
-1.634668
 13
-0.952466
 23
3.333444
 33
-1.634668
 62
1
  0
3DFACE
  8
Cylinder1003
 10
-0.934077
 20
3.333444
 30
-1.542219
 11
-1.027542
 21
3.333444
 31
-1.603570
 12
-0.952466
 22
3.333444
 32
-1.634668
 13
-0.952466
 23
3.333444
 33
-1.634668
 62
1
  0
3DFACE
  8
Cylinder1003
 10
-1.015339
 20
3.333444
 30
-1.542219
 11
-1.027542
 21
3.333444
 31
-1.603570
 12
-0.934077
 22
3.333444
 32
-1.542219
 13
-0.934077
 23
3.333444
 33
-1.542219
 62
1
  0
3DFACE
  8
Cylinder1003
 10
-1.027542
 20
3.333444
 30
-1.480867
 11
-1.015339
 21
3.333444
 31
-1.542219
 12
-0.934077
 22
3.333444
 32
-1.542219
 13
-0.934077
 23
3.333444
 33
-1.542219
 62
1
  0
3DFACE
  8
Cylinder1003
 10
-0.952466
 20
3.333444
 30
-1.449769
 11
-1.027542
 21
3.333444
 31
-1.480867
 12
-0.934077
 22
3.333444
 32
-1.542219
 13
-0.934077
 23
3.333444
 33
-1.542219
 62
1
  0
3DFACE
  8
Cylinder1003
 10
-1.062295
 20
3.333444
 30
-1.428856
 11
-1.027542
 21
3.333444
 31
-1.480867
 12
-0.952466
 22
3.333444
 32
-1.449769
 13
-0.952466
 23
3.333444
 33
-1.449769
 62
1
  0
3DFACE
  8
Cylinder1003
 10
-1.114307
 20
3.333444
 30
-1.394103
 11
-1.062295
 21
3.333444
 31
-1.428856
 12
-0.952466
 22
3.333444
 32
-1.449769
 13
-0.952466
 23
3.333444
 33
-1.449769
 62
1
  0
3DFACE
  8
Cylinder1003
 10
-1.004834
 20
3.333444
 30
-1.371395
 11
-1.114307
 21
3.333444
 31
-1.394103
 12
-0.952466
 22
3.333444
 32
-1.449769
 13
-0.952466
 23
3.333444
 33
-1.449769
 62
1
  0
3DFACE
  8
Cylinder1003
 10
-1.004834
 20
3.333444
 30
-1.371395
 11
-1.175658
 21
3.333444
 31
-1.381899
 12
-1.114307
 22
3.333444
 32
-1.394103
 13
-1.114307
 23
3.333444
 33
-1.394103
 62
1
  0
3DFACE
  8
Cylinder1003
 10
-1.004834
 20
3.333444
 30
-1.371395
 11
-1.346482
 21
3.333444
 31
-1.371395
 12
-1.175658
 22
3.333444
 32
-1.381899
 13
-1.175658
 23
3.333444
 33
-1.381899
 62
1
  0
3DFACE
  8
Cylinder1003
 10
-1.268108
 20
3.333444
 30
-1.319026
 11
-1.346482
 21
3.333444
 31
-1.371395
 12
-1.004834
 22
3.333444
 32
-1.371395
 13
-1.004834
 23
3.333444
 33
-1.371395
 62
1
  0
3DFACE
  8
Cylinder1003
 10
-1.083209
 20
3.333444
 30
-1.319026
 11
-1.268108
 21
3.333444
 31
-1.319026
 12
-1.004834
 22
3.333444
 32
-1.371395
 13
-1.004834
 23
3.333444
 33
-1.371395
 62
1
  0
3DFACE
  8
Cylinder1003
 10
-1.175658
 20
3.333444
 30
-1.300637
 11
-1.268108
 21
3.333444
 31
-1.319026
 12
-1.083209
 22
3.333444
 32
-1.319026
 13
-1.083209
 23
3.333444
 33
-1.319026
 62
1
  0
3DFACE
  8
Cylinder1003
 10
-1.083209
 20
3.333444
 30
-1.765411
 11
-1.268108
 21
3.333444
 31
-1.765411
 12
-1.175658
 22
3.333444
 32
-1.783800
 13
-1.175658
 23
3.333444
 33
-1.783800
 62
1
  0
3DFACE
  8
Cylinder1003
 10
-1.346482
 20
3.333444
 30
-1.713043
 11
-1.268108
 21
3.333444
 31
-1.765411
 12
-1.083209
 22
3.333444
 32
-1.765411
 13
-1.083209
 23
3.333444
 33
-1.765411
 62
1
  0
3DFACE
  8
Cylinder1003
 10
-1.004834
 20
3.333444
 30
-1.713043
 11
-1.346482
 21
3.333444
 31
-1.713043
 12
-1.083209
 22
3.333444
 32
-1.765411
 13
-1.083209
 23
3.333444
 33
-1.765411
 62
1
  0
3DFACE
  8
Cylinder1003
 10
-1.175658
 20
3.333444
 30
-1.702538
 11
-1.346482
 21
3.333444
 31
-1.713043
 12
-1.004834
 22
3.333444
 32
-1.713043
 13
-1.004834
 23
3.333444
 33
-1.713043
 62
1
  0
3DFACE
  8
Cylinder1003
 10
-1.237010
 20
3.333444
 30
-1.690335
 11
-1.346482
 21
3.333444
 31
-1.713043
 12
-1.175658
 22
3.333444
 32
-1.702538
 13
-1.175658
 23
3.333444
 33
-1.702538
 62
1
  0
3DFACE
  8
Cylinder1003
 10
-1.289021
 20
3.333444
 30
-1.655582
 11
-1.346482
 21
3.333444
 31
-1.713043
 12
-1.237010
 22
3.333444
 32
-1.690335
 13
-1.237010
 23
3.333444
 33
-1.690335
 62
1
  0
3DFACE
  8
Cylinder1003
 10
-1.398851
 20
3.333444
 30
-1.634668
 11
-1.346482
 21
3.333444
 31
-1.713043
 12
-1.289021
 22
3.333444
 32
-1.655582
 13
-1.289021
 23
3.333444
 33
-1.655582
 62
1
  0
3DFACE
  8
Cylinder1003
 10
-1.323774
 20
3.333444
 30
-1.603570
 11
-1.398851
 21
3.333444
 31
-1.634668
 12
-1.289021
 22
3.333444
 32
-1.655582
 13
-1.289021
 23
3.333444
 33
-1.655582
 62
1
  0
3DFACE
  8
Cylinder1003
 10
-1.417240
 20
3.333444
 30
-1.542219
 11
-1.398851
 21
3.333444
 31
-1.634668
 12
-1.323774
 22
3.333444
 32
-1.603570
 13
-1.323774
 23
3.333444
 33
-1.603570
 62
1
  0
3DFACE
  8
Cylinder1003
 10
-1.335978
 20
3.333444
 30
-1.542219
 11
-1.417240
 21
3.333444
 31
-1.542219
 12
-1.323774
 22
3.333444
 32
-1.603570
 13
-1.323774
 23
3.333444
 33
-1.603570
 62
1
  0
3DFACE
  8
Cylinder1003
 10
-1.323774
 20
3.333444
 30
-1.480867
 11
-1.417240
 21
3.333444
 31
-1.542219
 12
-1.335978
 22
3.333444
 32
-1.542219
 13
-1.335978
 23
3.333444
 33
-1.542219
 62
1
  0
3DFACE
  8
Cylinder1003
 10
-1.398851
 20
3.333444
 30
-1.449769
 11
-1.417240
 21
3.333444
 31
-1.542219
 12
-1.323774
 22
3.333444
 32
-1.480867
 13
-1.323774
 23
3.333444
 33
-1.480867
 62
1
  0
3DFACE
  8
Cylinder1003
 10
-1.289021
 20
3.333444
 30
-1.428856
 11
-1.398851
 21
3.333444
 31
-1.449769
 12
-1.323774
 22
3.333444
 32
-1.480867
 13
-1.323774
 23
3.333444
 33
-1.480867
 62
1
  0
3DFACE
  8
Cylinder1003
 10
-1.237010
 20
3.333444
 30
-1.394103
 11
-1.398851
 21
3.333444
 31
-1.449769
 12
-1.289021
 22
3.333444
 32
-1.428856
 13
-1.289021
 23
3.333444
 33
-1.428856
 62
1
  0
3DFACE
  8
Cylinder1003
 10
-1.346482
 20
3.333444
 30
-1.371395
 11
-1.398851
 21
3.333444
 31
-1.449769
 12
-1.237010
 22
3.333444
 32
-1.394103
 13
-1.237010
 23
3.333444
 33
-1.394103
 62
1
  0
3DFACE
  8
Cylinder1003
 10
-1.346482
 20
3.333444
 30
-1.371395
 11
-1.237010
 21
3.333444
 31
-1.394103
 12
-1.175658
 22
3.333444
 32
-1.381899
 13
-1.175658
 23
3.333444
 33
-1.381899
 62
1
  0
3DFACE
  8
Cylinder1003
 10
-1.268108
 20
1.694691
 30
-1.765411
 11
-1.083210
 21
1.694691
 31
-1.765411
 12
-1.175659
 22
1.694691
 32
-1.783800
 13
-1.175659
 23
1.694691
 33
-1.783800
 62
0
  0
3DFACE
  8
Cylinder1003
 10
-1.004835
 20
1.694691
 30
-1.713043
 11
-1.083210
 21
1.694691
 31
-1.765411
 12
-1.268108
 22
1.694691
 32
-1.765411
 13
-1.268108
 23
1.694691
 33
-1.765411
 62
0
  0
3DFACE
  8
Cylinder1003
 10
-1.346483
 20
1.694691
 30
-1.713043
 11
-1.004835
 21
1.694691
 31
-1.713043
 12
-1.268108
 22
1.694691
 32
-1.765411
 13
-1.268108
 23
1.694691
 33
-1.765411
 62
0
  0
3DFACE
  8
Cylinder1003
 10
-0.952466
 20
1.694691
 30
-1.634668
 11
-1.004835
 21
1.694691
 31
-1.713043
 12
-1.346483
 22
1.694691
 32
-1.713043
 13
-1.346483
 23
1.694691
 33
-1.713043
 62
0
  0
3DFACE
  8
Cylinder1003
 10
-1.398851
 20
1.694691
 30
-1.634668
 11
-0.952466
 21
1.694691
 31
-1.634668
 12
-1.346483
 22
1.694691
 32
-1.713043
 13
-1.346483
 23
1.694691
 33
-1.713043
 62
0
  0
3DFACE
  8
Cylinder1003
 10
-0.934077
 20
1.694691
 30
-1.542219
 11
-0.952466
 21
1.694691
 31
-1.634668
 12
-1.398851
 22
1.694691
 32
-1.634668
 13
-1.398851
 23
1.694691
 33
-1.634668
 62
0
  0
3DFACE
  8
Cylinder1003
 10
-1.417241
 20
1.694691
 30
-1.542219
 11
-0.934077
 21
1.694691
 31
-1.542219
 12
-1.398851
 22
1.694691
 32
-1.634668
 13
-1.398851
 23
1.694691
 33
-1.634668
 62
0
  0
3DFACE
  8
Cylinder1003
 10
-0.952466
 20
1.694691
 30
-1.449769
 11
-0.934077
 21
1.694691
 31
-1.542219
 12
-1.417241
 22
1.694691
 32
-1.542219
 13
-1.417241
 23
1.694691
 33
-1.542219
 62
0
  0
3DFACE
  8
Cylinder1003
 10
-1.398851
 20
1.694691
 30
-1.449769
 11
-0.952466
 21
1.694691
 31
-1.449769
 12
-1.417241
 22
1.694691
 32
-1.542219
 13
-1.417241
 23
1.694691
 33
-1.542219
 62
0
  0
3DFACE
  8
Cylinder1003
 10
-1.004835
 20
1.694691
 30
-1.371395
 11
-0.952466
 21
1.694691
 31
-1.449769
 12
-1.398851
 22
1.694691
 32
-1.449769
 13
-1.398851
 23
1.694691
 33
-1.449769
 62
0
  0
3DFACE
  8
Cylinder1003
 10
-1.346483
 20
1.694691
 30
-1.371395
 11
-1.004835
 21
1.694691
 31
-1.371395
 12
-1.398851
 22
1.694691
 32
-1.449769
 13
-1.398851
 23
1.694691
 33
-1.449769
 62
0
  0
3DFACE
  8
Cylinder1003
 10
-1.083210
 20
1.694691
 30
-1.319026
 11
-1.004835
 21
1.694691
 31
-1.371395
 12
-1.346483
 22
1.694691
 32
-1.371395
 13
-1.346483
 23
1.694691
 33
-1.371395
 62
0
  0
3DFACE
  8
Cylinder1003
 10
-1.268108
 20
1.694691
 30
-1.319026
 11
-1.083210
 21
1.694691
 31
-1.319026
 12
-1.346483
 22
1.694691
 32
-1.371395
 13
-1.346483
 23
1.694691
 33
-1.371395
 62
0
  0
3DFACE
  8
Cylinder1003
 10
-1.175659
 20
1.694691
 30
-1.300637
 11
-1.083210
 21
1.694691
 31
-1.319026
 12
-1.268108
 22
1.694691
 32
-1.319026
 13
-1.268108
 23
1.694691
 33
-1.319026
 62
0
  0
3DFACE
  8
Cylinder1003
 10
-1.015339
 20
2.035903
 30
-1.542219
 11
-1.027543
 21
2.035903
 31
-1.603570
 12
-1.027542
 22
3.333444
 32
-1.603570
 13
-1.015339
 23
3.333444
 33
-1.542219
 62
1
  0
3DFACE
  8
Cylinder1003
 10
-1.027543
 20
2.035903
 30
-1.603570
 11
-1.062296
 21
2.035903
 31
-1.655582
 12
-1.062295
 22
3.333444
 32
-1.655582
 13
-1.027542
 23
3.333444
 33
-1.603570
 62
1
  0
3DFACE
  8
Cylinder1003
 10
-1.062296
 20
2.035903
 30
-1.655582
 11
-1.114307
 21
2.035903
 31
-1.690335
 12
-1.114307
 22
3.333444
 32
-1.690335
 13
-1.062295
 23
3.333444
 33
-1.655582
 62
1
  0
3DFACE
  8
Cylinder1003
 10
-1.114307
 20
2.035903
 30
-1.690335
 11
-1.175659
 21
2.035903
 31
-1.702538
 12
-1.175658
 22
3.333444
 32
-1.702538
 13
-1.114307
 23
3.333444
 33
-1.690335
 62
1
  0
3DFACE
  8
Cylinder1003
 10
-1.175659
 20
2.035903
 30
-1.702538
 11
-1.237010
 21
2.035903
 31
-1.690335
 12
-1.237010
 22
3.333444
 32
-1.690335
 13
-1.175658
 23
3.333444
 33
-1.702538
 62
1
  0
3DFACE
  8
Cylinder1003
 10
-1.237010
 20
2.035903
 30
-1.690335
 11
-1.289022
 21
2.035903
 31
-1.655582
 12
-1.289021
 22
3.333444
 32
-1.655582
 13
-1.237010
 23
3.333444
 33
-1.690335
 62
1
  0
3DFACE
  8
Cylinder1003
 10
-1.289022
 20
2.035903
 30
-1.655582
 11
-1.323775
 21
2.035903
 31
-1.603570
 12
-1.323774
 22
3.333444
 32
-1.603570
 13
-1.289021
 23
3.333444
 33
-1.655582
 62
1
  0
3DFACE
  8
Cylinder1003
 10
-1.323775
 20
2.035903
 30
-1.603570
 11
-1.335978
 21
2.035903
 31
-1.542219
 12
-1.335978
 22
3.333444
 32
-1.542219
 13
-1.323774
 23
3.333444
 33
-1.603570
 62
1
  0
3DFACE
  8
Cylinder1003
 10
-1.114307
 20
2.035903
 30
-1.690335
 11
-1.237010
 21
2.035903
 31
-1.690335
 12
-1.175659
 22
2.035903
 32
-1.702538
 13
-1.175659
 23
2.035903
 33
-1.702538
 62
1
  0
3DFACE
  8
Cylinder1003
 10
-1.289022
 20
2.035903
 30
-1.655582
 11
-1.237010
 21
2.035903
 31
-1.690335
 12
-1.114307
 22
2.035903
 32
-1.690335
 13
-1.114307
 23
2.035903
 33
-1.690335
 62
1
  0
3DFACE
  8
Cylinder1003
 10
-1.062296
 20
2.035903
 30
-1.655582
 11
-1.289022
 21
2.035903
 31
-1.655582
 12
-1.114307
 22
2.035903
 32
-1.690335
 13
-1.114307
 23
2.035903
 33
-1.690335
 62
1
  0
3DFACE
  8
Cylinder1003
 10
-1.323775
 20
2.035903
 30
-1.603570
 11
-1.289022
 21
2.035903
 31
-1.655582
 12
-1.062296
 22
2.035903
 32
-1.655582
 13
-1.062296
 23
2.035903
 33
-1.655582
 62
1
  0
3DFACE
  8
Cylinder1003
 10
-1.027543
 20
2.035903
 30
-1.603570
 11
-1.323775
 21
2.035903
 31
-1.603570
 12
-1.062296
 22
2.035903
 32
-1.655582
 13
-1.062296
 23
2.035903
 33
-1.655582
 62
1
  0
3DFACE
  8
Cylinder1003
 10
-1.015339
 20
2.035903
 30
-1.542219
 11
-1.323775
 21
2.035903
 31
-1.603570
 12
-1.027543
 22
2.035903
 32
-1.603570
 13
-1.027543
 23
2.035903
 33
-1.603570
 62
1
  0
3DFACE
  8
Cylinder1003
 10
-1.335978
 20
2.035903
 30
-1.542219
 11
-1.323775
 21
2.035903
 31
-1.603570
 12
-1.015339
 22
2.035903
 32
-1.542219
 13
-1.015339
 23
2.035903
 33
-1.542219
 62
1
  0
3DFACE
  8
Cylinder1003
 10
-1.323775
 20
2.035903
 30
-1.480867
 11
-1.335978
 21
2.035903
 31
-1.542219
 12
-1.015339
 22
2.035903
 32
-1.542219
 13
-1.015339
 23
2.035903
 33
-1.542219
 62
1
  0
3DFACE
  8
Cylinder1003
 10
-1.027543
 20
2.035903
 30
-1.480867
 11
-1.323775
 21
2.035903
 31
-1.480867
 12
-1.015339
 22
2.035903
 32
-1.542219
 13
-1.015339
 23
2.035903
 33
-1.542219
 62
1
  0
3DFACE
  8
Cylinder1003
 10
-1.289022
 20
2.035903
 30
-1.428856
 11
-1.323775
 21
2.035903
 31
-1.480867
 12
-1.027543
 22
2.035903
 32
-1.480867
 13
-1.027543
 23
2.035903
 33
-1.480867
 62
1
  0
3DFACE
  8
Cylinder1003
 10
-1.062296
 20
2.035903
 30
-1.428856
 11
-1.289022
 21
2.035903
 31
-1.428856
 12
-1.027543
 22
2.035903
 32
-1.480867
 13
-1.027543
 23
2.035903
 33
-1.480867
 62
1
  0
3DFACE
  8
Cylinder1003
 10
-1.237010
 20
2.035903
 30
-1.394103
 11
-1.289022
 21
2.035903
 31
-1.428856
 12
-1.062296
 22
2.035903
 32
-1.428856
 13
-1.062296
 23
2.035903
 33
-1.428856
 62
1
  0
3DFACE
  8
Cylinder1003
 10
-1.114307
 20
2.035903
 30
-1.394103
 11
-1.237010
 21
2.035903
 31
-1.394103
 12
-1.062296
 22
2.035903
 32
-1.428856
 13
-1.062296
 23
2.035903
 33
-1.428856
 62
1
  0
3DFACE
  8
Cylinder1003
 10
-1.175659
 20
2.035903
 30
-1.381899
 11
-1.237010
 21
2.035903
 31
-1.394103
 12
-1.114307
 22
2.035903
 32
-1.394103
 13
-1.114307
 23
2.035903
 33
-1.394103
 62
1
  0
3DFACE
  8
Cylinder1003
 10
-1.335978
 20
2.035903
 30
-1.542219
 11
-1.323775
 21
2.035903
 31
-1.480867
 12
-1.323774
 22
3.333444
 32
-1.480867
 13
-1.335978
 23
3.333444
 33
-1.542219
 62
1
  0
3DFACE
  8
Cylinder1003
 10
-1.323775
 20
2.035903
 30
-1.480867
 11
-1.289022
 21
2.035903
 31
-1.428856
 12
-1.289021
 22
3.333444
 32
-1.428856
 13
-1.323774
 23
3.333444
 33
-1.480867
 62
1
  0
3DFACE
  8
Cylinder1003
 10
-1.289022
 20
2.035903
 30
-1.428856
 11
-1.237010
 21
2.035903
 31
-1.394103
 12
-1.237010
 22
3.333444
 32
-1.394103
 13
-1.289021
 23
3.333444
 33
-1.428856
 62
1
  0
3DFACE
  8
Cylinder1003
 10
-1.237010
 20
2.035903
 30
-1.394103
 11
-1.175659
 21
2.035903
 31
-1.381899
 12
-1.175658
 22
3.333444
 32
-1.381899
 13
-1.237010
 23
3.333444
 33
-1.394103
 62
1
  0
3DFACE
  8
Cylinder1003
 10
-1.114307
 20
2.035903
 30
-1.394103
 11
-1.062296
 21
2.035903
 31
-1.428856
 12
-1.062295
 22
3.333444
 32
-1.428856
 13
-1.114307
 23
3.333444
 33
-1.394103
 62
1
  0
3DFACE
  8
Cylinder1003
 10
-1.175659
 20
2.035903
 30
-1.381899
 11
-1.114307
 21
2.035903
 31
-1.394103
 12
-1.114307
 22
3.333444
 32
-1.394103
 13
-1.175658
 23
3.333444
 33
-1.381899
 62
1
  0
3DFACE
  8
Cylinder1003
 10
-1.062296
 20
2.035903
 30
-1.428856
 11
-1.027543
 21
2.035903
 31
-1.480867
 12
-1.027542
 22
3.333444
 32
-1.480867
 13
-1.062295
 23
3.333444
 33
-1.428856
 62
1
  0
3DFACE
  8
Cylinder1003
 10
-1.027543
 20
2.035903
 30
-1.480867
 11
-1.015339
 21
2.035903
 31
-1.542219
 12
-1.015339
 22
3.333444
 32
-1.542219
 13
-1.027542
 23
3.333444
 33
-1.480867
 62
1
  0
3DFACE
  8
Cylinder2001
 10
-0.555329
 20
-1.010271
 30
-1.809204
 11
-0.504219
 21
-1.010271
 31
-1.552255
 12
-0.504218
 22
1.880911
 32
-1.552255
 13
-0.555329
 23
1.880911
 33
-1.809204
 62
0
  0
3DFACE
  8
Cylinder2001
 10
-0.700879
 20
-1.010271
 30
-2.027035
 11
-0.555329
 21
-1.010271
 31
-1.809204
 12
-0.555329
 22
1.880911
 32
-1.809204
 13
-0.700879
 23
1.880911
 33
-2.027035
 62
0
  0
3DFACE
  8
Cylinder2001
 10
-0.918710
 20
-1.010271
 30
-2.172585
 11
-0.700879
 21
-1.010271
 31
-2.027035
 12
-0.700879
 22
1.880911
 32
-2.027035
 13
-0.918709
 23
1.880911
 33
-2.172585
 62
0
  0
3DFACE
  8
Cylinder2001
 10
-1.175659
 20
-1.010271
 30
-2.223695
 11
-0.918710
 21
-1.010271
 31
-2.172585
 12
-0.918709
 22
1.880911
 32
-2.172585
 13
-1.175658
 23
1.880911
 33
-2.223695
 62
0
  0
3DFACE
  8
Cylinder2001
 10
-1.432608
 20
-1.010271
 30
-2.172585
 11
-1.175659
 21
-1.010271
 31
-2.223695
 12
-1.175658
 22
1.880911
 32
-2.223695
 13
-1.432607
 23
1.880911
 33
-2.172585
 62
0
  0
3DFACE
  8
Cylinder2001
 10
-1.650439
 20
-1.010271
 30
-2.027035
 11
-1.432608
 21
-1.010271
 31
-2.172585
 12
-1.432607
 22
1.880911
 32
-2.172585
 13
-1.650438
 23
1.880911
 33
-2.027035
 62
0
  0
3DFACE
  8
Cylinder2001
 10
-1.795989
 20
-1.010271
 30
-1.809204
 11
-1.650439
 21
-1.010271
 31
-2.027035
 12
-1.650438
 22
1.880911
 32
-2.027035
 13
-1.795988
 23
1.880911
 33
-1.809204
 62
0
  0
3DFACE
  8
Cylinder2001
 10
-1.847099
 20
-1.010271
 30
-1.552255
 11
-1.795989
 21
-1.010271
 31
-1.809204
 12
-1.795988
 22
1.880911
 32
-1.809204
 13
-1.847098
 23
1.880911
 33
-1.552255
 62
0
  0
3DFACE
  8
Cylinder2001
 10
-1.795989
 20
-1.010271
 30
-1.295306
 11
-1.847099
 21
-1.010271
 31
-1.552255
 12
-1.847098
 22
1.880911
 32
-1.552255
 13
-1.795988
 23
1.880911
 33
-1.295306
 62
0
  0
3DFACE
  8
Cylinder2001
 10
-1.650439
 20
-1.010271
 30
-1.077475
 11
-1.795989
 21
-1.010271
 31
-1.295306
 12
-1.795988
 22
1.880911
 32
-1.295306
 13
-1.650438
 23
1.880911
 33
-1.077475
 62
0
  0
3DFACE
  8
Cylinder2001
 10
-1.432608
 20
-1.010271
 30
-0.931925
 11
-1.650439
 21
-1.010271
 31
-1.077475
 12
-1.650438
 22
1.880911
 32
-1.077475
 13
-1.432607
 23
1.880911
 33
-0.931925
 62
0
  0
3DFACE
  8
Cylinder2001
 10
-1.175659
 20
-1.010271
 30
-0.880815
 11
-1.432608
 21
-1.010271
 31
-0.931925
 12
-1.432607
 22
1.880911
 32
-0.931925
 13
-1.175658
 23
1.880911
 33
-0.880815
 62
0
  0
3DFACE
  8
Cylinder2001
 10
-0.918710
 20
-1.010271
 30
-0.931925
 11
-1.175659
 21
-1.010271
 31
-0.880815
 12
-1.175658
 22
1.880911
 32
-0.880815
 13
-0.918709
 23
1.880911
 33
-0.931925
 62
0
  0
3DFACE
  8
Cylinder2001
 10
-0.700879
 20
-1.010271
 30
-1.077475
 11
-0.918710
 21
-1.010271
 31
-0.931925
 12
-0.918709
 22
1.880911
 32
-0.931925
 13
-0.700879
 23
1.880911
 33
-1.077475
 62
0
  0
3DFACE
  8
Cylinder2001
 10
-0.555329
 20
-1.010271
 30
-1.295306
 11
-0.700879
 21
-1.010271
 31
-1.077475
 12
-0.700879
 22
1.880911
 32
-1.077475
 13
-0.555329
 23
1.880911
 33
-1.295306
 62
0
  0
3DFACE
  8
Cylinder2001
 10
-0.504219
 20
-1.010271
 30
-1.552255
 11
-0.555329
 21
-1.010271
 31
-1.295306
 12
-0.555329
 22
1.880911
 32
-1.295306
 13
-0.504218
 23
1.880911
 33
-1.552255
 62
0
  0
3DFACE
  8
Cylinder2001
 10
-0.918709
 20
1.880911
 30
-2.172585
 11
-1.432607
 21
1.880911
 31
-2.172585
 12
-1.175658
 22
1.880911
 32
-2.223695
 13
-1.175658
 23
1.880911
 33
-2.223695
 62
2
  0
3DFACE
  8
Cylinder2001
 10
-1.650438
 20
1.880911
 30
-2.027035
 11
-1.432607
 21
1.880911
 31
-2.172585
 12
-0.918709
 22
1.880911
 32
-2.172585
 13
-0.918709
 23
1.880911
 33
-2.172585
 62
2
  0
3DFACE
  8
Cylinder2001
 10
-0.700879
 20
1.880911
 30
-2.027035
 11
-1.650438
 21
1.880911
 31
-2.027035
 12
-0.918709
 22
1.880911
 32
-2.172585
 13
-0.918709
 23
1.880911
 33
-2.172585
 62
2
  0
3DFACE
  8
Cylinder2001
 10
-1.795988
 20
1.880911
 30
-1.809204
 11
-1.650438
 21
1.880911
 31
-2.027035
 12
-0.700879
 22
1.880911
 32
-2.027035
 13
-0.700879
 23
1.880911
 33
-2.027035
 62
2
  0
3DFACE
  8
Cylinder2001
 10
-0.555329
 20
1.880911
 30
-1.809204
 11
-1.795988
 21
1.880911
 31
-1.809204
 12
-0.700879
 22
1.880911
 32
-2.027035
 13
-0.700879
 23
1.880911
 33
-2.027035
 62
2
  0
3DFACE
  8
Cylinder2001
 10
-0.504218
 20
1.880911
 30
-1.552255
 11
-1.795988
 21
1.880911
 31
-1.809204
 12
-0.555329
 22
1.880911
 32
-1.809204
 13
-0.555329
 23
1.880911
 33
-1.809204
 62
2
  0
3DFACE
  8
Cylinder2001
 10
-1.847098
 20
1.880911
 30
-1.552255
 11
-1.795988
 21
1.880911
 31
-1.809204
 12
-0.504218
 22
1.880911
 32
-1.552255
 13
-0.504218
 23
1.880911
 33
-1.552255
 62
2
  0
3DFACE
  8
Cylinder2001
 10
-1.795988
 20
1.880911
 30
-1.295306
 11
-1.847098
 21
1.880911
 31
-1.552255
 12
-0.504218
 22
1.880911
 32
-1.552255
 13
-0.504218
 23
1.880911
 33
-1.552255
 62
2
  0
3DFACE
  8
Cylinder2001
 10
-0.555329
 20
1.880911
 30
-1.295306
 11
-1.795988
 21
1.880911
 31
-1.295306
 12
-0.504218
 22
1.880911
 32
-1.552255
 13
-0.504218
 23
1.880911
 33
-1.552255
 62
2
  0
3DFACE
  8
Cylinder2001
 10
-1.650438
 20
1.880911
 30
-1.077475
 11
-1.795988
 21
1.880911
 31
-1.295306
 12
-0.555329
 22
1.880911
 32
-1.295306
 13
-0.555329
 23
1.880911
 33
-1.295306
 62
2
  0
3DFACE
  8
Cylinder2001
 10
-0.700879
 20
1.880911
 30
-1.077475
 11
-1.650438
 21
1.880911
 31
-1.077475
 12
-0.555329
 22
1.880911
 32
-1.295306
 13
-0.555329
 23
1.880911
 33
-1.295306
 62
2
  0
3DFACE
  8
Cylinder2001
 10
-1.432607
 20
1.880911
 30
-0.931925
 11
-1.650438
 21
1.880911
 31
-1.077475
 12
-0.700879
 22
1.880911
 32
-1.077475
 13
-0.700879
 23
1.880911
 33
-1.077475
 62
2
  0
3DFACE
  8
Cylinder2001
 10
-0.918709
 20
1.880911
 30
-0.931925
 11
-1.432607
 21
1.880911
 31
-0.931925
 12
-0.700879
 22
1.880911
 32
-1.077475
 13
-0.700879
 23
1.880911
 33
-1.077475
 62
2
  0
3DFACE
  8
Cylinder2001
 10
-1.175658
 20
1.880911
 30
-0.880815
 11
-1.432607
 21
1.880911
 31
-0.931925
 12
-0.918709
 22
1.880911
 32
-0.931925
 13
-0.918709
 23
1.880911
 33
-0.931925
 62
2
  0
3DFACE
  8
Cylinder2001
 10
-0.963748
 20
-1.010271
 30
-2.063853
 11
-0.918710
 21
-1.010271
 31
-2.172585
 12
-1.175659
 22
-1.010271
 32
-2.106005
 13
-1.175659
 23
-1.010271
 33
-2.106005
 62
1
  0
3DFACE
  8
Cylinder2001
 10
-0.700879
 20
-1.010271
 30
-2.027035
 11
-0.918710
 21
-1.010271
 31
-2.172585
 12
-0.963748
 22
-1.010271
 32
-2.063853
 13
-0.963748
 23
-1.010271
 33
-2.063853
 62
1
  0
3DFACE
  8
Cylinder2001
 10
-0.784098
 20
-1.010271
 30
-1.943815
 11
-0.700879
 21
-1.010271
 31
-2.027035
 12
-0.963748
 22
-1.010271
 32
-2.063853
 13
-0.963748
 23
-1.010271
 33
-2.063853
 62
1
  0
3DFACE
  8
Cylinder2001
 10
-0.555329
 20
-1.010271
 30
-1.809204
 11
-0.700879
 21
-1.010271
 31
-2.027035
 12
-0.784098
 22
-1.010271
 32
-1.943815
 13
-0.784098
 23
-1.010271
 33
-1.943815
 62
1
  0
3DFACE
  8
Cylinder2001
 10
-0.664060
 20
-1.010271
 30
-1.764166
 11
-0.555329
 21
-1.010271
 31
-1.809204
 12
-0.784098
 22
-1.010271
 32
-1.943815
 13
-0.784098
 23
-1.010271
 33
-1.943815
 62
1
  0
3DFACE
  8
Cylinder2001
 10
-0.621909
 20
-1.010271
 30
-1.552255
 11
-0.555329
 21
-1.010271
 31
-1.809204
 12
-0.664060
 22
-1.010271
 32
-1.764166
 13
-0.664060
 23
-1.010271
 33
-1.764166
 62
1
  0
3DFACE
  8
Cylinder2001
 10
-0.504219
 20
-1.010271
 30
-1.552255
 11
-0.555329
 21
-1.010271
 31
-1.809204
 12
-0.621909
 22
-1.010271
 32
-1.552255
 13
-0.621909
 23
-1.010271
 33
-1.552255
 62
1
  0
3DFACE
  8
Cylinder2001
 10
-0.664060
 20
-1.010271
 30
-1.340345
 11
-0.504219
 21
-1.010271
 31
-1.552255
 12
-0.621909
 22
-1.010271
 32
-1.552255
 13
-0.621909
 23
-1.010271
 33
-1.552255
 62
1
  0
3DFACE
  8
Cylinder2001
 10
-0.555329
 20
-1.010271
 30
-1.295306
 11
-0.504219
 21
-1.010271
 31
-1.552255
 12
-0.664060
 22
-1.010271
 32
-1.340345
 13
-0.664060
 23
-1.010271
 33
-1.340345
 62
1
  0
3DFACE
  8
Cylinder2001
 10
-0.784098
 20
-1.010271
 30
-1.160695
 11
-0.555329
 21
-1.010271
 31
-1.295306
 12
-0.664060
 22
-1.010271
 32
-1.340345
 13
-0.664060
 23
-1.010271
 33
-1.340345
 62
1
  0
3DFACE
  8
Cylinder2001
 10
-0.700879
 20
-1.010271
 30
-1.077475
 11
-0.555329
 21
-1.010271
 31
-1.295306
 12
-0.784098
 22
-1.010271
 32
-1.160695
 13
-0.784098
 23
-1.010271
 33
-1.160695
 62
1
  0
3DFACE
  8
Cylinder2001
 10
-0.963748
 20
-1.010271
 30
-1.040658
 11
-0.700879
 21
-1.010271
 31
-1.077475
 12
-0.784098
 22
-1.010271
 32
-1.160695
 13
-0.784098
 23
-1.010271
 33
-1.160695
 62
1
  0
3DFACE
  8
Cylinder2001
 10
-1.175659
 20
-1.010271
 30
-0.998506
 11
-0.700879
 21
-1.010271
 31
-1.077475
 12
-0.963748
 22
-1.010271
 32
-1.040658
 13
-0.963748
 23
-1.010271
 33
-1.040658
 62
1
  0
3DFACE
  8
Cylinder2001
 10
-0.918710
 20
-1.010271
 30
-0.931925
 11
-0.700879
 21
-1.010271
 31
-1.077475
 12
-1.175659
 22
-1.010271
 32
-0.998506
 13
-1.175659
 23
-1.010271
 33
-0.998506
 62
1
  0
3DFACE
  8
Cylinder2001
 10
-1.432608
 20
-1.010271
 30
-0.931925
 11
-0.918710
 21
-1.010271
 31
-0.931925
 12
-1.175659
 22
-1.010271
 32
-0.998506
 13
-1.175659
 23
-1.010271
 33
-0.998506
 62
1
  0
3DFACE
  8
Cylinder2001
 10
-1.175659
 20
-1.010271
 30
-0.880815
 11
-0.918710
 21
-1.010271
 31
-0.931925
 12
-1.432608
 22
-1.010271
 32
-0.931925
 13
-1.432608
 23
-1.010271
 33
-0.931925
 62
1
  0
3DFACE
  8
Cylinder2001
 10
-1.432608
 20
-1.010271
 30
-2.172585
 11
-0.918710
 21
-1.010271
 31
-2.172585
 12
-1.175659
 22
-1.010271
 32
-2.223695
 13
-1.175659
 23
-1.010271
 33
-2.223695
 62
1
  0
3DFACE
  8
Cylinder2001
 10
-1.175659
 20
-1.010271
 30
-2.106005
 11
-0.918710
 21
-1.010271
 31
-2.172585
 12
-1.432608
 22
-1.010271
 32
-2.172585
 13
-1.432608
 23
-1.010271
 33
-2.172585
 62
1
  0
3DFACE
  8
Cylinder2001
 10
-1.387570
 20
-1.010271
 30
-2.063853
 11
-1.175659
 21
-1.010271
 31
-2.106005
 12
-1.432608
 22
-1.010271
 32
-2.172585
 13
-1.432608
 23
-1.010271
 33
-2.172585
 62
1
  0
3DFACE
  8
Cylinder2001
 10
-1.650439
 20
-1.010271
 30
-2.027035
 11
-1.387570
 21
-1.010271
 31
-2.063853
 12
-1.432608
 22
-1.010271
 32
-2.172585
 13
-1.432608
 23
-1.010271
 33
-2.172585
 62
1
  0
3DFACE
  8
Cylinder2001
 10
-1.567220
 20
-1.010271
 30
-1.943815
 11
-1.387570
 21
-1.010271
 31
-2.063853
 12
-1.650439
 22
-1.010271
 32
-2.027035
 13
-1.650439
 23
-1.010271
 33
-2.027035
 62
1
  0
3DFACE
  8
Cylinder2001
 10
-1.795989
 20
-1.010271
 30
-1.809204
 11
-1.567220
 21
-1.010271
 31
-1.943815
 12
-1.650439
 22
-1.010271
 32
-2.027035
 13
-1.650439
 23
-1.010271
 33
-2.027035
 62
1
  0
3DFACE
  8
Cylinder2001
 10
-1.687258
 20
-1.010271
 30
-1.764166
 11
-1.567220
 21
-1.010271
 31
-1.943815
 12
-1.795989
 22
-1.010271
 32
-1.809204
 13
-1.795989
 23
-1.010271
 33
-1.809204
 62
1
  0
3DFACE
  8
Cylinder2001
 10
-1.729409
 20
-1.010271
 30
-1.552255
 11
-1.687258
 21
-1.010271
 31
-1.764166
 12
-1.795989
 22
-1.010271
 32
-1.809204
 13
-1.795989
 23
-1.010271
 33
-1.809204
 62
1
  0
3DFACE
  8
Cylinder2001
 10
-1.847099
 20
-1.010271
 30
-1.552255
 11
-1.729409
 21
-1.010271
 31
-1.552255
 12
-1.795989
 22
-1.010271
 32
-1.809204
 13
-1.795989
 23
-1.010271
 33
-1.809204
 62
1
  0
3DFACE
  8
Cylinder2001
 10
-1.687258
 20
-1.010271
 30
-1.340345
 11
-1.729409
 21
-1.010271
 31
-1.552255
 12
-1.847099
 22
-1.010271
 32
-1.552255
 13
-1.847099
 23
-1.010271
 33
-1.552255
 62
1
  0
3DFACE
  8
Cylinder2001
 10
-1.795989
 20
-1.010271
 30
-1.295306
 11
-1.687258
 21
-1.010271
 31
-1.340345
 12
-1.847099
 22
-1.010271
 32
-1.552255
 13
-1.847099
 23
-1.010271
 33
-1.552255
 62
1
  0
3DFACE
  8
Cylinder2001
 10
-1.567220
 20
-1.010271
 30
-1.160695
 11
-1.687258
 21
-1.010271
 31
-1.340345
 12
-1.795989
 22
-1.010271
 32
-1.295306
 13
-1.795989
 23
-1.010271
 33
-1.295306
 62
1
  0
3DFACE
  8
Cylinder2001
 10
-1.650439
 20
-1.010271
 30
-1.077475
 11
-1.567220
 21
-1.010271
 31
-1.160695
 12
-1.795989
 22
-1.010271
 32
-1.295306
 13
-1.795989
 23
-1.010271
 33
-1.295306
 62
1
  0
3DFACE
  8
Cylinder2001
 10
-1.387570
 20
-1.010271
 30
-1.040658
 11
-1.567220
 21
-1.010271
 31
-1.160695
 12
-1.650439
 22
-1.010271
 32
-1.077475
 13
-1.650439
 23
-1.010271
 33
-1.077475
 62
1
  0
3DFACE
  8
Cylinder2001
 10
-1.175659
 20
-1.010271
 30
-0.998506
 11
-1.387570
 21
-1.010271
 31
-1.040658
 12
-1.650439
 22
-1.010271
 32
-1.077475
 13
-1.650439
 23
-1.010271
 33
-1.077475
 62
1
  0
3DFACE
  8
Cylinder2001
 10
-1.432608
 20
-1.010271
 30
-0.931925
 11
-1.175659
 21
-1.010271
 31
-0.998506
 12
-1.650439
 22
-1.010271
 32
-1.077475
 13
-1.650439
 23
-1.010271
 33
-1.077475
 62
1
  0
3DFACE
  8
Cylinder2001
 10
-1.593417
 20
-0.914757
 30
-1.379216
 11
-1.627836
 21
-0.914757
 31
-1.552256
 12
-1.729409
 22
-1.010271
 32
-1.552255
 13
-1.687258
 23
-1.010271
 33
-1.340345
 62
1
  0
3DFACE
  8
Cylinder2001
 10
-1.495397
 20
-0.914757
 30
-1.232519
 11
-1.593417
 21
-0.914757
 31
-1.379216
 12
-1.687258
 22
-1.010271
 32
-1.340345
 13
-1.567220
 23
-1.010271
 33
-1.160695
 62
1
  0
3DFACE
  8
Cylinder2001
 10
-1.348700
 20
-0.914757
 30
-1.134500
 11
-1.495397
 21
-0.914757
 31
-1.232519
 12
-1.567220
 22
-1.010271
 32
-1.160695
 13
-1.387570
 23
-1.010271
 33
-1.040658
 62
1
  0
3DFACE
  8
Cylinder2001
 10
-1.175659
 20
-0.914757
 30
-1.100080
 11
-1.348700
 21
-0.914757
 31
-1.134500
 12
-1.387570
 22
-1.010271
 32
-1.040658
 13
-1.175659
 23
-1.010271
 33
-0.998506
 62
1
  0
3DFACE
  8
Cylinder2001
 10
-1.002618
 20
-0.914757
 30
-1.134500
 11
-1.175659
 21
-0.914757
 31
-1.100080
 12
-1.175659
 22
-1.010271
 32
-0.998506
 13
-0.963748
 23
-1.010271
 33
-1.040658
 62
1
  0
3DFACE
  8
Cylinder2001
 10
-0.855921
 20
-0.914757
 30
-1.232519
 11
-1.002618
 21
-0.914757
 31
-1.134500
 12
-0.963748
 22
-1.010271
 32
-1.040658
 13
-0.784098
 23
-1.010271
 33
-1.160695
 62
1
  0
3DFACE
  8
Cylinder2001
 10
-0.757901
 20
-0.914757
 30
-1.379216
 11
-0.855921
 21
-0.914757
 31
-1.232519
 12
-0.784098
 22
-1.010271
 32
-1.160695
 13
-0.664060
 23
-1.010271
 33
-1.340345
 62
1
  0
3DFACE
  8
Cylinder2001
 10
-0.723481
 20
-0.914757
 30
-1.552256
 11
-0.757901
 21
-0.914757
 31
-1.379216
 12
-0.664060
 22
-1.010271
 32
-1.340345
 13
-0.621909
 23
-1.010271
 33
-1.552255
 62
1
  0
3DFACE
  8
Cylinder2001
 10
-1.348700
 20
-0.914757
 30
-1.970011
 11
-1.002618
 21
-0.914757
 31
-1.970011
 12
-1.175659
 22
-0.914757
 32
-2.004431
 13
-1.175659
 23
-0.914757
 33
-2.004431
 62
1
  0
3DFACE
  8
Cylinder2001
 10
-0.855921
 20
-0.914757
 30
-1.871992
 11
-1.002618
 21
-0.914757
 31
-1.970011
 12
-1.348700
 22
-0.914757
 32
-1.970011
 13
-1.348700
 23
-0.914757
 33
-1.970011
 62
1
  0
3DFACE
  8
Cylinder2001
 10
-1.495397
 20
-0.914757
 30
-1.871992
 11
-0.855921
 21
-0.914757
 31
-1.871992
 12
-1.348700
 22
-0.914757
 32
-1.970011
 13
-1.348700
 23
-0.914757
 33
-1.970011
 62
1
  0
3DFACE
  8
Cylinder2001
 10
-0.757901
 20
-0.914757
 30
-1.725295
 11
-0.855921
 21
-0.914757
 31
-1.871992
 12
-1.495397
 22
-0.914757
 32
-1.871992
 13
-1.495397
 23
-0.914757
 33
-1.871992
 62
1
  0
3DFACE
  8
Cylinder2001
 10
-1.593417
 20
-0.914757
 30
-1.725295
 11
-0.757901
 21
-0.914757
 31
-1.725295
 12
-1.495397
 22
-0.914757
 32
-1.871992
 13
-1.495397
 23
-0.914757
 33
-1.871992
 62
1
  0
3DFACE
  8
Cylinder2001
 10
-0.723481
 20
-0.914757
 30
-1.552256
 11
-0.757901
 21
-0.914757
 31
-1.725295
 12
-1.593417
 22
-0.914757
 32
-1.725295
 13
-1.593417
 23
-0.914757
 33
-1.725295
 62
1
  0
3DFACE
  8
Cylinder2001
 10
-1.627836
 20
-0.914757
 30
-1.552256
 11
-0.723481
 21
-0.914757
 31
-1.552256
 12
-1.593417
 22
-0.914757
 32
-1.725295
 13
-1.593417
 23
-0.914757
 33
-1.725295
 62
1
  0
3DFACE
  8
Cylinder2001
 10
-0.757901
 20
-0.914757
 30
-1.379216
 11
-0.723481
 21
-0.914757
 31
-1.552256
 12
-1.627836
 22
-0.914757
 32
-1.552256
 13
-1.627836
 23
-0.914757
 33
-1.552256
 62
1
  0
3DFACE
  8
Cylinder2001
 10
-1.593417
 20
-0.914757
 30
-1.379216
 11
-0.757901
 21
-0.914757
 31
-1.379216
 12
-1.627836
 22
-0.914757
 32
-1.552256
 13
-1.627836
 23
-0.914757
 33
-1.552256
 62
1
  0
3DFACE
  8
Cylinder2001
 10
-0.855921
 20
-0.914757
 30
-1.232519
 11
-0.757901
 21
-0.914757
 31
-1.379216
 12
-1.593417
 22
-0.914757
 32
-1.379216
 13
-1.593417
 23
-0.914757
 33
-1.379216
 62
1
  0
3DFACE
  8
Cylinder2001
 10
-1.495397
 20
-0.914757
 30
-1.232519
 11
-0.855921
 21
-0.914757
 31
-1.232519
 12
-1.593417
 22
-0.914757
 32
-1.379216
 13
-1.593417
 23
-0.914757
 33
-1.379216
 62
1
  0
3DFACE
  8
Cylinder2001
 10
-1.002618
 20
-0.914757
 30
-1.134500
 11
-0.855921
 21
-0.914757
 31
-1.232519
 12
-1.495397
 22
-0.914757
 32
-1.232519
 13
-1.495397
 23
-0.914757
 33
-1.232519
 62
1
  0
3DFACE
  8
Cylinder2001
 10
-1.348700
 20
-0.914757
 30
-1.134500
 11
-1.002618
 21
-0.914757
 31
-1.134500
 12
-1.495397
 22
-0.914757
 32
-1.232519
 13
-1.495397
 23
-0.914757
 33
-1.232519
 62
1
  0
3DFACE
  8
Cylinder2001
 10
-1.175659
 20
-0.914757
 30
-1.100080
 11
-1.002618
 21
-0.914757
 31
-1.134500
 12
-1.348700
 22
-0.914757
 32
-1.134500
 13
-1.348700
 23
-0.914757
 33
-1.134500
 62
1
  0
3DFACE
  8
Cylinder2001
 10
-1.593417
 20
-0.914757
 30
-1.725295
 11
-1.495397
 21
-0.914757
 31
-1.871992
 12
-1.567220
 22
-1.010271
 32
-1.943815
 13
-1.687258
 23
-1.010271
 33
-1.764166
 62
1
  0
3DFACE
  8
Cylinder2001
 10
-1.627836
 20
-0.914757
 30
-1.552256
 11
-1.593417
 21
-0.914757
 31
-1.725295
 12
-1.687258
 22
-1.010271
 32
-1.764166
 13
-1.729409
 23
-1.010271
 33
-1.552255
 62
1
  0
3DFACE
  8
Cylinder2001
 10
-1.495397
 20
-0.914757
 30
-1.871992
 11
-1.348700
 21
-0.914757
 31
-1.970011
 12
-1.387570
 22
-1.010271
 32
-2.063853
 13
-1.567220
 23
-1.010271
 33
-1.943815
 62
1
  0
3DFACE
  8
Cylinder2001
 10
-1.348700
 20
-0.914757
 30
-1.970011
 11
-1.175659
 21
-0.914757
 31
-2.004431
 12
-1.175659
 22
-1.010271
 32
-2.106005
 13
-1.387570
 23
-1.010271
 33
-2.063853
 62
1
  0
3DFACE
  8
Cylinder2001
 10
-1.175659
 20
-0.914757
 30
-2.004431
 11
-1.002618
 21
-0.914757
 31
-1.970011
 12
-0.963748
 22
-1.010271
 32
-2.063853
 13
-1.175659
 23
-1.010271
 33
-2.106005
 62
1
  0
3DFACE
  8
Cylinder2001
 10
-1.002618
 20
-0.914757
 30
-1.970011
 11
-0.855921
 21
-0.914757
 31
-1.871992
 12
-0.784098
 22
-1.010271
 32
-1.943815
 13
-0.963748
 23
-1.010271
 33
-2.063853
 62
1
  0
3DFACE
  8
Cylinder2001
 10
-0.855921
 20
-0.914757
 30
-1.871992
 11
-0.757901
 21
-0.914757
 31
-1.725295
 12
-0.664060
 22
-1.010271
 32
-1.764166
 13
-0.784098
 23
-1.010271
 33
-1.943815
 62
1
  0
3DFACE
  8
Cylinder2001
 10
-0.757901
 20
-0.914757
 30
-1.725295
 11
-0.723481
 21
-0.914757
 31
-1.552256
 12
-0.621909
 22
-1.010271
 32
-1.552255
 13
-0.664060
 23
-1.010271
 33
-1.764166
 62
1
  0
3DFACE
  8
Cylinder1004
 10
-0.611688
 20
-0.517735
 30
-1.785859
 11
-0.611688
 21
-0.969912
 31
-1.785859
 12
-0.565221
 22
-0.969912
 32
-1.552255
 13
-0.565221
 23
-0.517735
 33
-1.552255
 62
0
  0
3DFACE
  8
Cylinder1004
 10
-0.744014
 20
-0.517735
 30
-1.983900
 11
-0.744014
 21
-0.969912
 31
-1.983900
 12
-0.611688
 22
-0.969912
 32
-1.785859
 13
-0.611688
 23
-0.517735
 33
-1.785859
 62
0
  0
3DFACE
  8
Cylinder1004
 10
-0.942055
 20
-0.517735
 30
-2.116226
 11
-0.942055
 21
-0.969912
 31
-2.116226
 12
-0.744014
 22
-0.969912
 32
-1.983900
 13
-0.744014
 23
-0.517735
 33
-1.983900
 62
0
  0
3DFACE
  8
Cylinder1004
 10
-1.175659
 20
-0.517735
 30
-2.162693
 11
-1.175659
 21
-0.969912
 31
-2.162693
 12
-0.942055
 22
-0.969912
 32
-2.116226
 13
-0.942055
 23
-0.517735
 33
-2.116226
 62
0
  0
3DFACE
  8
Cylinder1004
 10
-1.409264
 20
-0.517735
 30
-2.116226
 11
-1.409264
 21
-0.969912
 31
-2.116226
 12
-1.175659
 22
-0.969912
 32
-2.162693
 13
-1.175659
 23
-0.517735
 33
-2.162693
 62
0
  0
3DFACE
  8
Cylinder1004
 10
-1.607304
 20
-0.517735
 30
-1.983900
 11
-1.607304
 21
-0.969912
 31
-1.983900
 12
-1.409264
 22
-0.969912
 32
-2.116226
 13
-1.409264
 23
-0.517735
 33
-2.116226
 62
0
  0
3DFACE
  8
Cylinder1004
 10
-1.739631
 20
-0.517735
 30
-1.785859
 11
-1.739631
 21
-0.969912
 31
-1.785859
 12
-1.607304
 22
-0.969912
 32
-1.983900
 13
-1.607304
 23
-0.517735
 33
-1.983900
 62
0
  0
3DFACE
  8
Cylinder1004
 10
-1.786098
 20
-0.517735
 30
-1.552255
 11
-1.786098
 21
-0.969912
 31
-1.552255
 12
-1.739631
 22
-0.969912
 32
-1.785859
 13
-1.739631
 23
-0.517735
 33
-1.785859
 62
0
  0
3DFACE
  8
Cylinder1004
 10
-1.739631
 20
-0.517735
 30
-1.318650
 11
-1.739631
 21
-0.969912
 31
-1.318650
 12
-1.786098
 22
-0.969912
 32
-1.552255
 13
-1.786098
 23
-0.517735
 33
-1.552255
 62
0
  0
3DFACE
  8
Cylinder1004
 10
-1.607304
 20
-0.517735
 30
-1.120610
 11
-1.607304
 21
-0.969912
 31
-1.120610
 12
-1.739631
 22
-0.969912
 32
-1.318650
 13
-1.739631
 23
-0.517735
 33
-1.318650
 62
0
  0
3DFACE
  8
Cylinder1004
 10
-1.409264
 20
-0.517735
 30
-0.988283
 11
-1.409264
 21
-0.969912
 31
-0.988283
 12
-1.607304
 22
-0.969912
 32
-1.120610
 13
-1.607304
 23
-0.517735
 33
-1.120610
 62
0
  0
3DFACE
  8
Cylinder1004
 10
-1.175659
 20
-0.517735
 30
-0.941817
 11
-1.175659
 21
-0.969912
 31
-0.941817
 12
-1.409264
 22
-0.969912
 32
-0.988283
 13
-1.409264
 23
-0.517735
 33
-0.988283
 62
0
  0
3DFACE
  8
Cylinder1004
 10
-0.942055
 20
-0.517735
 30
-0.988283
 11
-0.942055
 21
-0.969912
 31
-0.988283
 12
-1.175659
 22
-0.969912
 32
-0.941817
 13
-1.175659
 23
-0.517735
 33
-0.941817
 62
0
  0
3DFACE
  8
Cylinder1004
 10
-0.744014
 20
-0.517735
 30
-1.120610
 11
-0.744014
 21
-0.969912
 31
-1.120610
 12
-0.942055
 22
-0.969912
 32
-0.988283
 13
-0.942055
 23
-0.517735
 33
-0.988283
 62
0
  0
3DFACE
  8
Cylinder1004
 10
-0.611688
 20
-0.517735
 30
-1.318650
 11
-0.611688
 21
-0.969912
 31
-1.318650
 12
-0.744014
 22
-0.969912
 32
-1.120610
 13
-0.744014
 23
-0.517735
 33
-1.120610
 62
0
  0
3DFACE
  8
Cylinder1004
 10
-0.565221
 20
-0.517735
 30
-1.552255
 11
-0.565221
 21
-0.969912
 31
-1.552255
 12
-0.611688
 22
-0.969912
 32
-1.318650
 13
-0.611688
 23
-0.517735
 33
-1.318650
 62
0
  0
3DFACE
  8
Cylinder1004
 10
-0.942055
 20
-0.517735
 30
-2.116226
 11
-1.409264
 21
-0.517735
 31
-2.116226
 12
-1.175659
 22
-0.517735
 32
-2.162693
 13
-1.175659
 23
-0.517735
 33
-2.162693
 62
0
  0
3DFACE
  8
Cylinder1004
 10
-1.607304
 20
-0.517735
 30
-1.983900
 11
-1.409264
 21
-0.517735
 31
-2.116226
 12
-0.942055
 22
-0.517735
 32
-2.116226
 13
-0.942055
 23
-0.517735
 33
-2.116226
 62
0
  0
3DFACE
  8
Cylinder1004
 10
-0.744014
 20
-0.517735
 30
-1.983900
 11
-1.607304
 21
-0.517735
 31
-1.983900
 12
-0.942055
 22
-0.517735
 32
-2.116226
 13
-0.942055
 23
-0.517735
 33
-2.116226
 62
0
  0
3DFACE
  8
Cylinder1004
 10
-1.739631
 20
-0.517735
 30
-1.785859
 11
-1.607304
 21
-0.517735
 31
-1.983900
 12
-0.744014
 22
-0.517735
 32
-1.983900
 13
-0.744014
 23
-0.517735
 33
-1.983900
 62
0
  0
3DFACE
  8
Cylinder1004
 10
-0.611688
 20
-0.517735
 30
-1.785859
 11
-1.739631
 21
-0.517735
 31
-1.785859
 12
-0.744014
 22
-0.517735
 32
-1.983900
 13
-0.744014
 23
-0.517735
 33
-1.983900
 62
0
  0
3DFACE
  8
Cylinder1004
 10
-0.565221
 20
-0.517735
 30
-1.552255
 11
-1.739631
 21
-0.517735
 31
-1.785859
 12
-0.611688
 22
-0.517735
 32
-1.785859
 13
-0.611688
 23
-0.517735
 33
-1.785859
 62
0
  0
3DFACE
  8
Cylinder1004
 10
-1.786098
 20
-0.517735
 30
-1.552255
 11
-1.739631
 21
-0.517735
 31
-1.785859
 12
-0.565221
 22
-0.517735
 32
-1.552255
 13
-0.565221
 23
-0.517735
 33
-1.552255
 62
0
  0
3DFACE
  8
Cylinder1004
 10
-1.739631
 20
-0.517735
 30
-1.318650
 11
-1.786098
 21
-0.517735
 31
-1.552255
 12
-0.565221
 22
-0.517735
 32
-1.552255
 13
-0.565221
 23
-0.517735
 33
-1.552255
 62
0
  0
3DFACE
  8
Cylinder1004
 10
-0.611688
 20
-0.517735
 30
-1.318650
 11
-1.739631
 21
-0.517735
 31
-1.318650
 12
-0.565221
 22
-0.517735
 32
-1.552255
 13
-0.565221
 23
-0.517735
 33
-1.552255
 62
0
  0
3DFACE
  8
Cylinder1004
 10
-1.607304
 20
-0.517735
 30
-1.120610
 11
-1.739631
 21
-0.517735
 31
-1.318650
 12
-0.611688
 22
-0.517735
 32
-1.318650
 13
-0.611688
 23
-0.517735
 33
-1.318650
 62
0
  0
3DFACE
  8
Cylinder1004
 10
-0.744014
 20
-0.517735
 30
-1.120610
 11
-1.607304
 21
-0.517735
 31
-1.120610
 12
-0.611688
 22
-0.517735
 32
-1.318650
 13
-0.611688
 23
-0.517735
 33
-1.318650
 62
0
  0
3DFACE
  8
Cylinder1004
 10
-1.409264
 20
-0.517735
 30
-0.988283
 11
-1.607304
 21
-0.517735
 31
-1.120610
 12
-0.744014
 22
-0.517735
 32
-1.120610
 13
-0.744014
 23
-0.517735
 33
-1.120610
 62
0
  0
3DFACE
  8
Cylinder1004
 10
-0.942055
 20
-0.517735
 30
-0.988283
 11
-1.409264
 21
-0.517735
 31
-0.988283
 12
-0.744014
 22
-0.517735
 32
-1.120610
 13
-0.744014
 23
-0.517735
 33
-1.120610
 62
0
  0
3DFACE
  8
Cylinder1004
 10
-1.175659
 20
-0.517735
 30
-0.941817
 11
-1.409264
 21
-0.517735
 31
-0.988283
 12
-0.942055
 22
-0.517735
 32
-0.988283
 13
-0.942055
 23
-0.517735
 33
-0.988283
 62
0
  0
3DFACE
  8
Cylinder1004
 10
-1.409264
 20
-0.969912
 30
-2.116226
 11
-0.942055
 21
-0.969912
 31
-2.116226
 12
-1.175659
 22
-0.969912
 32
-2.162693
 13
-1.175659
 23
-0.969912
 33
-2.162693
 62
1
  0
3DFACE
  8
Cylinder1004
 10
-0.744014
 20
-0.969912
 30
-1.983900
 11
-0.942055
 21
-0.969912
 31
-2.116226
 12
-1.409264
 22
-0.969912
 32
-2.116226
 13
-1.409264
 23
-0.969912
 33
-2.116226
 62
1
  0
3DFACE
  8
Cylinder1004
 10
-1.607304
 20
-0.969912
 30
-1.983900
 11
-0.744014
 21
-0.969912
 31
-1.983900
 12
-1.409264
 22
-0.969912
 32
-2.116226
 13
-1.409264
 23
-0.969912
 33
-2.116226
 62
1
  0
3DFACE
  8
Cylinder1004
 10
-0.611688
 20
-0.969912
 30
-1.785859
 11
-0.744014
 21
-0.969912
 31
-1.983900
 12
-1.607304
 22
-0.969912
 32
-1.983900
 13
-1.607304
 23
-0.969912
 33
-1.983900
 62
1
  0
3DFACE
  8
Cylinder1004
 10
-1.739631
 20
-0.969912
 30
-1.785859
 11
-0.611688
 21
-0.969912
 31
-1.785859
 12
-1.607304
 22
-0.969912
 32
-1.983900
 13
-1.607304
 23
-0.969912
 33
-1.983900
 62
1
  0
3DFACE
  8
Cylinder1004
 10
-0.565221
 20
-0.969912
 30
-1.552255
 11
-0.611688
 21
-0.969912
 31
-1.785859
 12
-1.739631
 22
-0.969912
 32
-1.785859
 13
-1.739631
 23
-0.969912
 33
-1.785859
 62
1
  0
3DFACE
  8
Cylinder1004
 10
-1.786098
 20
-0.969912
 30
-1.552255
 11
-0.565221
 21
-0.969912
 31
-1.552255
 12
-1.739631
 22
-0.969912
 32
-1.785859
 13
-1.739631
 23
-0.969912
 33
-1.785859
 62
1
  0
3DFACE
  8
Cylinder1004
 10
-0.611688
 20
-0.969912
 30
-1.318650
 11
-0.565221
 21
-0.969912
 31
-1.552255
 12
-1.786098
 22
-0.969912
 32
-1.552255
 13
-1.786098
 23
-0.969912
 33
-1.552255
 62
1
  0
3DFACE
  8
Cylinder1004
 10
-1.739631
 20
-0.969912
 30
-1.318650
 11
-0.611688
 21
-0.969912
 31
-1.318650
 12
-1.786098
 22
-0.969912
 32
-1.552255
 13
-1.786098
 23
-0.969912
 33
-1.552255
 62
1
  0
3DFACE
  8
Cylinder1004
 10
-0.744014
 20
-0.969912
 30
-1.120610
 11
-0.611688
 21
-0.969912
 31
-1.318650
 12
-1.739631
 22
-0.969912
 32
-1.318650
 13
-1.739631
 23
-0.969912
 33
-1.318650
 62
1
  0
3DFACE
  8
Cylinder1004
 10
-1.607304
 20
-0.969912
 30
-1.120610
 11
-0.744014
 21
-0.969912
 31
-1.120610
 12
-1.739631
 22
-0.969912
 32
-1.318650
 13
-1.739631
 23
-0.969912
 33
-1.318650
 62
1
  0
3DFACE
  8
Cylinder1004
 10
-0.942055
 20
-0.969912
 30
-0.988283
 11
-0.744014
 21
-0.969912
 31
-1.120610
 12
-1.607304
 22
-0.969912
 32
-1.120610
 13
-1.607304
 23
-0.969912
 33
-1.120610
 62
1
  0
3DFACE
  8
Cylinder1004
 10
-1.409264
 20
-0.969912
 30
-0.988283
 11
-0.942055
 21
-0.969912
 31
-0.988283
 12
-1.607304
 22
-0.969912
 32
-1.120610
 13
-1.607304
 23
-0.969912
 33
-1.120610
 62
1
  0
3DFACE
  8
Cylinder1004
 10
-1.175659
 20
-0.969912
 30
-0.941817
 11
-0.942055
 21
-0.969912
 31
-0.988283
 12
-1.409264
 22
-0.969912
 32
-0.988283
 13
-1.409264
 23
-0.969912
 33
-0.988283
 62
1
 0
ENDSEC
 0
EOF
