  0
SECTION
  2
HEADER
  0
ENDSEC
  0
SECTION
  2
TABLES
  0
TABLE
  2
LAYER
  70
    153
  0
LAYER
  2
Cylinder
 70
0
 62
15
  6
CONTINUOUS
  0
LAYER
  2
Cylinder1
 70
0
 62
15
  6
CONTINUOUS
  0
LAYER
  2
Sphere
 70
0
 62
15
  6
CONTINUOUS
  0
LAYER
  2
Cylinder001
 70
0
 62
15
  6
CONTINUOUS
  0
LAYER
  2
Sphere001
 70
0
 62
15
  6
CONTINUOUS
  0
LAYER
  2
Cylinder002
 70
0
 62
15
  6
CONTINUOUS
  0
ENDTAB
  0
ENDSEC
  0
SECTION
  2
ENTITIES
  0
3DFACE
  8
Cylinder
 10
0.490076
 20
1.632511
 30
0.141760
 11
0.725522
 21
-0.373611
 31
0.255357
 12
0.000000
 22
1.632511
 32
0.503258
 13
0.000000
 23
1.632511
 33
0.503258
 62
0
  0
3DFACE
  8
Cylinder
 10
0.490076
 20
1.632511
 30
0.141760
 11
0.344818
 21
1.632500
 31
-0.392813
 12
0.448397
 22
-0.373611
 32
-0.668534
 13
0.725522
 23
-0.373611
 33
0.255357
 62
0
  0
3DFACE
  8
Cylinder
 10
0.344818
 20
1.632500
 30
-0.392813
 11
-0.344453
 21
1.634070
 31
-0.392800
 12
-0.448398
 22
-0.373611
 32
-0.668534
 13
0.448397
 23
-0.373611
 33
-0.668534
 62
0
  0
3DFACE
  8
Cylinder
 10
-0.604111
 20
-0.830246
 30
0.026443
 11
-0.320382
 21
-0.830246
 31
-0.622243
 12
-0.448398
 22
-0.373611
 32
-0.668534
 13
-0.725522
 23
-0.373611
 33
0.255357
 62
0
  0
3DFACE
  8
Cylinder
 10
-0.604111
 20
-0.830246
 30
0.026443
 11
-0.725522
 21
-0.373611
 31
0.255357
 12
0.000001
 22
-0.830245
 32
0.298730
 13
0.000001
 23
-0.830245
 33
0.298730
 62
0
  0
3DFACE
  8
Cylinder
 10
0.000000
 20
1.632511
 30
0.503258
 11
0.344818
 21
1.632500
 31
-0.392813
 12
0.490076
 22
1.632511
 32
0.141760
 13
0.490076
 23
1.632511
 33
0.141760
 62
3
  0
3DFACE
  8
Cylinder
 10
-0.344453
 20
1.634070
 30
-0.392800
 11
0.344818
 21
1.632500
 31
-0.392813
 12
0.000000
 22
1.632511
 32
0.503258
 13
0.000000
 23
1.632511
 33
0.503258
 62
3
  0
3DFACE
  8
Cylinder
 10
-0.490627
 20
1.632512
 30
0.141403
 11
-0.344453
 21
1.634070
 31
-0.392800
 12
0.000000
 22
1.632511
 32
0.503258
 13
0.000000
 23
1.632511
 33
0.503258
 62
3
  0
3DFACE
  8
Cylinder
 10
0.318920
 20
-0.830246
 30
-0.054216
 11
0.604428
 21
-0.830247
 31
0.026464
 12
0.339388
 22
-0.830246
 32
-0.172085
 13
0.339388
 23
-0.830246
 33
-0.172085
 62
3
  0
3DFACE
  8
Cylinder
 10
0.259986
 20
-0.830246
 30
0.049436
 11
0.604428
 21
-0.830247
 31
0.026464
 12
0.318920
 22
-0.830246
 32
-0.054216
 13
0.318920
 23
-0.830246
 33
-0.054216
 62
3
  0
3DFACE
  8
Cylinder
 10
0.169694
 20
-0.830246
 30
0.126370
 11
0.604428
 21
-0.830247
 31
0.026464
 12
0.259986
 22
-0.830246
 32
0.049436
 13
0.259986
 23
-0.830246
 33
0.049436
 62
3
  0
3DFACE
  8
Cylinder
 10
0.058934
 20
-0.830246
 30
0.167305
 11
0.604428
 21
-0.830247
 31
0.026464
 12
0.169694
 22
-0.830246
 32
0.126370
 13
0.169694
 23
-0.830246
 33
0.126370
 62
3
  0
3DFACE
  8
Cylinder
 10
0.000001
 20
-0.830245
 30
0.298730
 11
0.604428
 21
-0.830247
 31
0.026464
 12
0.058934
 22
-0.830246
 32
0.167305
 13
0.058934
 23
-0.830246
 33
0.167305
 62
3
  0
3DFACE
  8
Cylinder
 10
-0.058934
 20
-0.830246
 30
0.167305
 11
0.000001
 21
-0.830245
 31
0.298730
 12
0.058934
 22
-0.830246
 32
0.167305
 13
0.058934
 23
-0.830246
 33
0.167305
 62
3
  0
3DFACE
  8
Cylinder
 10
-0.169694
 20
-0.830246
 30
0.126370
 11
0.000001
 21
-0.830245
 31
0.298730
 12
-0.058934
 22
-0.830246
 32
0.167305
 13
-0.058934
 23
-0.830246
 33
0.167305
 62
3
  0
3DFACE
  8
Cylinder
 10
-0.259986
 20
-0.830246
 30
0.049436
 11
0.000001
 21
-0.830245
 31
0.298730
 12
-0.169694
 22
-0.830246
 32
0.126370
 13
-0.169694
 23
-0.830246
 33
0.126370
 62
3
  0
3DFACE
  8
Cylinder
 10
-0.604111
 20
-0.830246
 30
0.026443
 11
0.000001
 21
-0.830245
 31
0.298730
 12
-0.259986
 22
-0.830246
 32
0.049436
 13
-0.259986
 23
-0.830246
 33
0.049436
 62
3
  0
3DFACE
  8
Cylinder
 10
-0.604111
 20
-0.830246
 30
0.026443
 11
-0.259986
 21
-0.830246
 31
0.049436
 12
-0.318920
 22
-0.830246
 32
-0.054216
 13
-0.318920
 23
-0.830246
 33
-0.054216
 62
3
  0
3DFACE
  8
Cylinder
 10
-0.604111
 20
-0.830246
 30
0.026443
 11
-0.318920
 21
-0.830246
 31
-0.054216
 12
-0.339388
 22
-0.830246
 32
-0.172085
 13
-0.339388
 23
-0.830246
 33
-0.172085
 62
3
  0
3DFACE
  8
Cylinder
 10
0.320929
 20
-0.830245
 30
-0.621982
 11
0.339388
 21
-0.830246
 31
-0.172085
 12
0.604428
 22
-0.830247
 32
0.026464
 13
0.604428
 23
-0.830247
 33
0.026464
 62
3
  0
3DFACE
  8
Cylinder
 10
0.318920
 20
-0.830246
 30
-0.289954
 11
0.339388
 21
-0.830246
 31
-0.172085
 12
0.320929
 22
-0.830245
 32
-0.621982
 13
0.320929
 23
-0.830245
 33
-0.621982
 62
3
  0
3DFACE
  8
Cylinder
 10
0.259986
 20
-0.830246
 30
-0.393606
 11
0.318920
 21
-0.830246
 31
-0.289954
 12
0.320929
 22
-0.830245
 32
-0.621982
 13
0.320929
 23
-0.830245
 33
-0.621982
 62
3
  0
3DFACE
  8
Cylinder
 10
0.169694
 20
-0.830246
 30
-0.470539
 11
0.259986
 21
-0.830246
 31
-0.393606
 12
0.320929
 22
-0.830245
 32
-0.621982
 13
0.320929
 23
-0.830245
 33
-0.621982
 62
3
  0
3DFACE
  8
Cylinder
 10
0.058934
 20
-0.830246
 30
-0.511475
 11
0.169694
 21
-0.830246
 31
-0.470539
 12
0.320929
 22
-0.830245
 32
-0.621982
 13
0.320929
 23
-0.830245
 33
-0.621982
 62
3
  0
3DFACE
  8
Cylinder
 10
-0.058934
 20
-0.830246
 30
-0.511475
 11
0.058934
 21
-0.830246
 31
-0.511475
 12
0.320929
 22
-0.830245
 32
-0.621982
 13
0.320929
 23
-0.830245
 33
-0.621982
 62
3
  0
3DFACE
  8
Cylinder
 10
-0.320382
 20
-0.830246
 30
-0.622243
 11
-0.058934
 21
-0.830246
 31
-0.511475
 12
0.320929
 22
-0.830245
 32
-0.621982
 13
0.320929
 23
-0.830245
 33
-0.621982
 62
3
  0
3DFACE
  8
Cylinder
 10
-0.320382
 20
-0.830246
 30
-0.622243
 11
-0.169694
 21
-0.830246
 31
-0.470539
 12
-0.058934
 22
-0.830246
 32
-0.511475
 13
-0.058934
 23
-0.830246
 33
-0.511475
 62
3
  0
3DFACE
  8
Cylinder
 10
-0.320382
 20
-0.830246
 30
-0.622243
 11
-0.259986
 21
-0.830246
 31
-0.393606
 12
-0.169694
 22
-0.830246
 32
-0.470539
 13
-0.169694
 23
-0.830246
 33
-0.470539
 62
3
  0
3DFACE
  8
Cylinder
 10
-0.320382
 20
-0.830246
 30
-0.622243
 11
-0.318920
 21
-0.830246
 31
-0.289954
 12
-0.259986
 22
-0.830246
 32
-0.393606
 13
-0.259986
 23
-0.830246
 33
-0.393606
 62
3
  0
3DFACE
  8
Cylinder
 10
-0.339388
 20
-0.830246
 30
-0.172085
 11
-0.318920
 21
-0.830246
 31
-0.289954
 12
-0.320382
 22
-0.830246
 32
-0.622243
 13
-0.320382
 23
-0.830246
 33
-0.622243
 62
3
  0
3DFACE
  8
Cylinder
 10
-0.604111
 20
-0.830246
 30
0.026443
 11
-0.339388
 21
-0.830246
 31
-0.172085
 12
-0.320382
 22
-0.830246
 32
-0.622243
 13
-0.320382
 23
-0.830246
 33
-0.622243
 62
3
  0
3DFACE
  8
Cylinder
 10
0.604428
 20
-0.830247
 30
0.026464
 11
0.000001
 21
-0.830245
 31
0.298730
 12
0.725522
 22
-0.373611
 32
0.255357
 13
0.725522
 23
-0.373611
 33
0.255357
 62
0
  0
3DFACE
  8
Cylinder
 10
0.000001
 20
-0.830245
 30
0.298730
 11
0.000000
 21
1.632511
 31
0.503258
 12
0.725522
 22
-0.373611
 32
0.255357
 13
0.725522
 23
-0.373611
 33
0.255357
 62
0
  0
3DFACE
  8
Cylinder
 10
-0.490627
 20
1.632512
 30
0.141403
 11
0.000000
 21
1.632511
 31
0.503258
 12
-0.725522
 22
-0.373611
 32
0.255357
 13
-0.725522
 23
-0.373611
 33
0.255357
 62
0
  0
3DFACE
  8
Cylinder
 10
0.000000
 20
1.632511
 30
0.503258
 11
0.000001
 21
-0.830245
 31
0.298730
 12
-0.725522
 22
-0.373611
 32
0.255357
 13
-0.725522
 23
-0.373611
 33
0.255357
 62
0
  0
3DFACE
  8
Cylinder
 10
-0.344453
 20
1.634070
 30
-0.392800
 11
-0.490627
 21
1.632512
 31
0.141403
 12
-0.725522
 22
-0.373611
 32
0.255357
 13
-0.448398
 23
-0.373611
 33
-0.668534
 62
0
  0
3DFACE
  8
Cylinder
 10
-0.320382
 20
-0.830246
 30
-0.622243
 11
0.320929
 21
-0.830245
 31
-0.621982
 12
0.448397
 22
-0.373611
 32
-0.668534
 13
-0.448398
 23
-0.373611
 33
-0.668534
 62
0
  0
3DFACE
  8
Cylinder
 10
0.320929
 20
-0.830245
 30
-0.621982
 11
0.604428
 21
-0.830247
 31
0.026464
 12
0.725522
 22
-0.373611
 32
0.255357
 13
0.448397
 23
-0.373611
 33
-0.668534
 62
0
  0
3DFACE
  8
Cylinder
 10
-0.169694
 20
-0.675607
 30
-0.470539
 11
-0.058934
 21
-0.675607
 31
-0.511475
 12
-0.058934
 22
-0.830246
 32
-0.511475
 13
-0.169694
 23
-0.830246
 33
-0.470539
 62
1
  0
3DFACE
  8
Cylinder
 10
-0.259986
 20
-0.675607
 30
-0.393606
 11
-0.169694
 21
-0.675607
 31
-0.470539
 12
-0.169694
 22
-0.830246
 32
-0.470539
 13
-0.259986
 23
-0.830246
 33
-0.393606
 62
1
  0
3DFACE
  8
Cylinder
 10
-0.318920
 20
-0.675607
 30
-0.289954
 11
-0.259986
 21
-0.675607
 31
-0.393606
 12
-0.259986
 22
-0.830246
 32
-0.393606
 13
-0.318920
 23
-0.830246
 33
-0.289954
 62
1
  0
3DFACE
  8
Cylinder
 10
-0.339388
 20
-0.675607
 30
-0.172085
 11
-0.318920
 21
-0.675607
 31
-0.289954
 12
-0.318920
 22
-0.830246
 32
-0.289954
 13
-0.339388
 23
-0.830246
 33
-0.172085
 62
1
  0
3DFACE
  8
Cylinder
 10
-0.318920
 20
-0.675607
 30
-0.054216
 11
-0.339388
 21
-0.675607
 31
-0.172085
 12
-0.339388
 22
-0.830246
 32
-0.172085
 13
-0.318920
 23
-0.830246
 33
-0.054216
 62
1
  0
3DFACE
  8
Cylinder
 10
-0.259986
 20
-0.675607
 30
0.049436
 11
-0.318920
 21
-0.675607
 31
-0.054216
 12
-0.318920
 22
-0.830246
 32
-0.054216
 13
-0.259986
 23
-0.830246
 33
0.049436
 62
1
  0
3DFACE
  8
Cylinder
 10
-0.169694
 20
-0.675607
 30
0.126370
 11
-0.259986
 21
-0.675607
 31
0.049436
 12
-0.259986
 22
-0.830246
 32
0.049436
 13
-0.169694
 23
-0.830246
 33
0.126370
 62
1
  0
3DFACE
  8
Cylinder
 10
-0.058934
 20
-0.675607
 30
0.167305
 11
-0.169694
 21
-0.675607
 31
0.126370
 12
-0.169694
 22
-0.830246
 32
0.126370
 13
-0.058934
 23
-0.830246
 33
0.167305
 62
1
  0
3DFACE
  8
Cylinder
 10
0.058934
 20
-0.675607
 30
0.167305
 11
-0.058934
 21
-0.675607
 31
0.167305
 12
-0.058934
 22
-0.830246
 32
0.167305
 13
0.058934
 23
-0.830246
 33
0.167305
 62
1
  0
3DFACE
  8
Cylinder
 10
0.318920
 20
-0.675607
 30
-0.289954
 11
0.318920
 21
-0.675607
 31
-0.054216
 12
0.339388
 22
-0.675607
 32
-0.172085
 13
0.339388
 23
-0.675607
 33
-0.172085
 62
2
  0
3DFACE
  8
Cylinder
 10
0.259986
 20
-0.675607
 30
0.049436
 11
0.318920
 21
-0.675607
 31
-0.054216
 12
0.318920
 22
-0.675607
 32
-0.289954
 13
0.318920
 23
-0.675607
 33
-0.289954
 62
2
  0
3DFACE
  8
Cylinder
 10
0.259986
 20
-0.675607
 30
-0.393606
 11
0.259986
 21
-0.675607
 31
0.049436
 12
0.318920
 22
-0.675607
 32
-0.289954
 13
0.318920
 23
-0.675607
 33
-0.289954
 62
2
  0
3DFACE
  8
Cylinder
 10
0.169694
 20
-0.675607
 30
0.126370
 11
0.259986
 21
-0.675607
 31
0.049436
 12
0.259986
 22
-0.675607
 32
-0.393606
 13
0.259986
 23
-0.675607
 33
-0.393606
 62
2
  0
3DFACE
  8
Cylinder
 10
0.169694
 20
-0.675607
 30
-0.470539
 11
0.169694
 21
-0.675607
 31
0.126370
 12
0.259986
 22
-0.675607
 32
-0.393606
 13
0.259986
 23
-0.675607
 33
-0.393606
 62
2
  0
3DFACE
  8
Cylinder
 10
0.058934
 20
-0.675607
 30
0.167305
 11
0.169694
 21
-0.675607
 31
0.126370
 12
0.169694
 22
-0.675607
 32
-0.470539
 13
0.169694
 23
-0.675607
 33
-0.470539
 62
2
  0
3DFACE
  8
Cylinder
 10
0.058934
 20
-0.675607
 30
-0.511475
 11
0.058934
 21
-0.675607
 31
0.167305
 12
0.169694
 22
-0.675607
 32
-0.470539
 13
0.169694
 23
-0.675607
 33
-0.470539
 62
2
  0
3DFACE
  8
Cylinder
 10
-0.058934
 20
-0.675607
 30
0.167305
 11
0.058934
 21
-0.675607
 31
0.167305
 12
0.058934
 22
-0.675607
 32
-0.511475
 13
0.058934
 23
-0.675607
 33
-0.511475
 62
2
  0
3DFACE
  8
Cylinder
 10
-0.058934
 20
-0.675607
 30
-0.511475
 11
-0.058934
 21
-0.675607
 31
0.167305
 12
0.058934
 22
-0.675607
 32
-0.511475
 13
0.058934
 23
-0.675607
 33
-0.511475
 62
2
  0
3DFACE
  8
Cylinder
 10
-0.169694
 20
-0.675607
 30
0.126370
 11
-0.058934
 21
-0.675607
 31
0.167305
 12
-0.058934
 22
-0.675607
 32
-0.511475
 13
-0.058934
 23
-0.675607
 33
-0.511475
 62
2
  0
3DFACE
  8
Cylinder
 10
-0.169694
 20
-0.675607
 30
-0.470539
 11
-0.169694
 21
-0.675607
 31
0.126370
 12
-0.058934
 22
-0.675607
 32
-0.511475
 13
-0.058934
 23
-0.675607
 33
-0.511475
 62
2
  0
3DFACE
  8
Cylinder
 10
-0.259986
 20
-0.675607
 30
0.049436
 11
-0.169694
 21
-0.675607
 31
0.126370
 12
-0.169694
 22
-0.675607
 32
-0.470539
 13
-0.169694
 23
-0.675607
 33
-0.470539
 62
2
  0
3DFACE
  8
Cylinder
 10
-0.259986
 20
-0.675607
 30
-0.393606
 11
-0.259986
 21
-0.675607
 31
0.049436
 12
-0.169694
 22
-0.675607
 32
-0.470539
 13
-0.169694
 23
-0.675607
 33
-0.470539
 62
2
  0
3DFACE
  8
Cylinder
 10
-0.318920
 20
-0.675607
 30
-0.054216
 11
-0.259986
 21
-0.675607
 31
0.049436
 12
-0.259986
 22
-0.675607
 32
-0.393606
 13
-0.259986
 23
-0.675607
 33
-0.393606
 62
2
  0
3DFACE
  8
Cylinder
 10
-0.318920
 20
-0.675607
 30
-0.289954
 11
-0.318920
 21
-0.675607
 31
-0.054216
 12
-0.259986
 22
-0.675607
 32
-0.393606
 13
-0.259986
 23
-0.675607
 33
-0.393606
 62
2
  0
3DFACE
  8
Cylinder
 10
-0.339388
 20
-0.675607
 30
-0.172085
 11
-0.318920
 21
-0.675607
 31
-0.054216
 12
-0.318920
 22
-0.675607
 32
-0.289954
 13
-0.318920
 23
-0.675607
 33
-0.289954
 62
2
  0
3DFACE
  8
Cylinder
 10
-0.058934
 20
-0.675607
 30
-0.511475
 11
0.058934
 21
-0.675607
 31
-0.511475
 12
0.058934
 22
-0.830246
 32
-0.511475
 13
-0.058934
 23
-0.830246
 33
-0.511475
 62
1
  0
3DFACE
  8
Cylinder
 10
0.058934
 20
-0.675607
 30
-0.511475
 11
0.169694
 21
-0.675607
 31
-0.470539
 12
0.169694
 22
-0.830246
 32
-0.470539
 13
0.058934
 23
-0.830246
 33
-0.511475
 62
1
  0
3DFACE
  8
Cylinder
 10
0.169694
 20
-0.675607
 30
-0.470539
 11
0.259986
 21
-0.675607
 31
-0.393606
 12
0.259986
 22
-0.830246
 32
-0.393606
 13
0.169694
 23
-0.830246
 33
-0.470539
 62
1
  0
3DFACE
  8
Cylinder
 10
0.259986
 20
-0.675607
 30
-0.393606
 11
0.318920
 21
-0.675607
 31
-0.289954
 12
0.318920
 22
-0.830246
 32
-0.289954
 13
0.259986
 23
-0.830246
 33
-0.393606
 62
1
  0
3DFACE
  8
Cylinder
 10
0.318920
 20
-0.675607
 30
-0.289954
 11
0.339388
 21
-0.675607
 31
-0.172085
 12
0.339388
 22
-0.830246
 32
-0.172085
 13
0.318920
 23
-0.830246
 33
-0.289954
 62
1
  0
3DFACE
  8
Cylinder
 10
0.339388
 20
-0.675607
 30
-0.172085
 11
0.318920
 21
-0.675607
 31
-0.054216
 12
0.318920
 22
-0.830246
 32
-0.054216
 13
0.339388
 23
-0.830246
 33
-0.172085
 62
1
  0
3DFACE
  8
Cylinder
 10
0.318920
 20
-0.675607
 30
-0.054216
 11
0.259986
 21
-0.675607
 31
0.049436
 12
0.259986
 22
-0.830246
 32
0.049436
 13
0.318920
 23
-0.830246
 33
-0.054216
 62
1
  0
3DFACE
  8
Cylinder
 10
0.259986
 20
-0.675607
 30
0.049436
 11
0.169694
 21
-0.675607
 31
0.126370
 12
0.169694
 22
-0.830246
 32
0.126370
 13
0.259986
 23
-0.830246
 33
0.049436
 62
1
  0
3DFACE
  8
Cylinder
 10
0.169694
 20
-0.675607
 30
0.126370
 11
0.058934
 21
-0.675607
 31
0.167305
 12
0.058934
 22
-0.830246
 32
0.167305
 13
0.169694
 23
-0.830246
 33
0.126370
 62
1
  0
3DFACE
  8
Cylinder1
 10
-0.275402
 20
1.631934
 30
-0.019823
 11
-0.000013
 21
1.631934
 31
-0.219907
 12
-0.000013
 22
2.901266
 32
-0.219906
 13
-0.275402
 23
2.901266
 33
-0.019823
 62
0
  0
3DFACE
  8
Cylinder1
 10
-0.170213
 20
1.631934
 30
0.303919
 11
-0.275402
 21
1.631934
 31
-0.019823
 12
-0.275402
 22
2.901266
 32
-0.019823
 13
-0.170213
 23
2.901266
 33
0.303919
 62
0
  0
3DFACE
  8
Cylinder1
 10
0.170187
 20
1.631934
 30
0.303919
 11
-0.170213
 21
1.631934
 31
0.303919
 12
-0.170213
 22
2.901266
 32
0.303919
 13
0.170187
 23
2.901266
 33
0.303919
 62
0
  0
3DFACE
  8
Cylinder1
 10
0.275376
 20
1.631934
 30
-0.019823
 11
0.170187
 21
1.631934
 31
0.303919
 12
0.170187
 22
2.901266
 32
0.303919
 13
0.275376
 23
2.901266
 33
-0.019823
 62
0
  0
3DFACE
  8
Cylinder1
 10
-0.000013
 20
1.631934
 30
-0.219907
 11
0.275376
 21
1.631934
 31
-0.019823
 12
0.275376
 22
2.901266
 32
-0.019823
 13
-0.000013
 23
2.901266
 33
-0.219906
 62
0
  0
3DFACE
  8
Cylinder1
 10
-0.169694
 20
2.901266
 30
0.070141
 11
-0.170213
 21
2.901266
 31
0.303919
 12
-0.275402
 22
2.901266
 32
-0.019823
 13
-0.275402
 23
2.901266
 33
-0.019823
 62
0
  0
3DFACE
  8
Cylinder1
 10
-0.159460
 20
2.901266
 30
0.011207
 11
-0.169694
 21
2.901266
 31
0.070141
 12
-0.275402
 22
2.901266
 32
-0.019823
 13
-0.275402
 23
2.901266
 33
-0.019823
 62
0
  0
3DFACE
  8
Cylinder1
 10
-0.129993
 20
2.901266
 30
-0.040619
 11
-0.159460
 21
2.901266
 31
0.011207
 12
-0.275402
 22
2.901266
 32
-0.019823
 13
-0.275402
 23
2.901266
 33
-0.019823
 62
0
  0
3DFACE
  8
Cylinder1
 10
-0.084847
 20
2.901266
 30
-0.079086
 11
-0.129993
 21
2.901266
 31
-0.040619
 12
-0.275402
 22
2.901266
 32
-0.019823
 13
-0.275402
 23
2.901266
 33
-0.019823
 62
0
  0
3DFACE
  8
Cylinder1
 10
-0.029467
 20
2.901266
 30
-0.099554
 11
-0.084847
 21
2.901266
 31
-0.079086
 12
-0.275402
 22
2.901266
 32
-0.019823
 13
-0.275402
 23
2.901266
 33
-0.019823
 62
0
  0
3DFACE
  8
Cylinder1
 10
-0.000013
 20
2.901266
 30
-0.219906
 11
-0.029467
 21
2.901266
 31
-0.099554
 12
-0.275402
 22
2.901266
 32
-0.019823
 13
-0.275402
 23
2.901266
 33
-0.019823
 62
0
  0
3DFACE
  8
Cylinder1
 10
0.029467
 20
2.901266
 30
-0.099554
 11
-0.029467
 21
2.901266
 31
-0.099554
 12
-0.000013
 22
2.901266
 32
-0.219906
 13
-0.000013
 23
2.901266
 33
-0.219906
 62
0
  0
3DFACE
  8
Cylinder1
 10
0.084847
 20
2.901266
 30
-0.079086
 11
0.029467
 21
2.901266
 31
-0.099554
 12
-0.000013
 22
2.901266
 32
-0.219906
 13
-0.000013
 23
2.901266
 33
-0.219906
 62
0
  0
3DFACE
  8
Cylinder1
 10
0.129993
 20
2.901266
 30
-0.040619
 11
0.084847
 21
2.901266
 31
-0.079086
 12
-0.000013
 22
2.901266
 32
-0.219906
 13
-0.000013
 23
2.901266
 33
-0.219906
 62
0
  0
3DFACE
  8
Cylinder1
 10
0.275376
 20
2.901266
 30
-0.019823
 11
0.129993
 21
2.901266
 31
-0.040619
 12
-0.000013
 22
2.901266
 32
-0.219906
 13
-0.000013
 23
2.901266
 33
-0.219906
 62
0
  0
3DFACE
  8
Cylinder1
 10
0.275376
 20
2.901266
 30
-0.019823
 11
0.159460
 21
2.901266
 31
0.011207
 12
0.129993
 22
2.901266
 32
-0.040619
 13
0.129993
 23
2.901266
 33
-0.040619
 62
0
  0
3DFACE
  8
Cylinder1
 10
0.275376
 20
2.901266
 30
-0.019823
 11
0.169694
 21
2.901266
 31
0.070141
 12
0.159460
 22
2.901266
 32
0.011207
 13
0.159460
 23
2.901266
 33
0.011207
 62
0
  0
3DFACE
  8
Cylinder1
 10
0.275376
 20
2.901266
 30
-0.019823
 11
0.170187
 21
2.901266
 31
0.303919
 12
0.169694
 22
2.901266
 32
0.070141
 13
0.169694
 23
2.901266
 33
0.070141
 62
0
  0
3DFACE
  8
Cylinder1
 10
-0.159460
 20
2.901266
 30
0.129076
 11
-0.170213
 21
2.901266
 31
0.303919
 12
-0.169694
 22
2.901266
 32
0.070141
 13
-0.169694
 23
2.901266
 33
0.070141
 62
0
  0
3DFACE
  8
Cylinder1
 10
-0.129993
 20
2.901266
 30
0.180902
 11
-0.170213
 21
2.901266
 31
0.303919
 12
-0.159460
 22
2.901266
 32
0.129076
 13
-0.159460
 23
2.901266
 33
0.129076
 62
0
  0
3DFACE
  8
Cylinder1
 10
-0.084847
 20
2.901266
 30
0.219369
 11
-0.170213
 21
2.901266
 31
0.303919
 12
-0.129993
 22
2.901266
 32
0.180902
 13
-0.129993
 23
2.901266
 33
0.180902
 62
0
  0
3DFACE
  8
Cylinder1
 10
-0.029467
 20
2.901266
 30
0.239836
 11
-0.170213
 21
2.901266
 31
0.303919
 12
-0.084847
 22
2.901266
 32
0.219369
 13
-0.084847
 23
2.901266
 33
0.219369
 62
0
  0
3DFACE
  8
Cylinder1
 10
0.029467
 20
2.901266
 30
0.239836
 11
-0.170213
 21
2.901266
 31
0.303919
 12
-0.029467
 22
2.901266
 32
0.239836
 13
-0.029467
 23
2.901266
 33
0.239836
 62
0
  0
3DFACE
  8
Cylinder1
 10
0.170187
 20
2.901266
 30
0.303919
 11
-0.170213
 21
2.901266
 31
0.303919
 12
0.029467
 22
2.901266
 32
0.239836
 13
0.029467
 23
2.901266
 33
0.239836
 62
0
  0
3DFACE
  8
Cylinder1
 10
0.170187
 20
2.901266
 30
0.303919
 11
0.029467
 21
2.901266
 31
0.239836
 12
0.084847
 22
2.901266
 32
0.219369
 13
0.084847
 23
2.901266
 33
0.219369
 62
0
  0
3DFACE
  8
Cylinder1
 10
0.170187
 20
2.901266
 30
0.303919
 11
0.084847
 21
2.901266
 31
0.219369
 12
0.129993
 22
2.901266
 32
0.180902
 13
0.129993
 23
2.901266
 33
0.180902
 62
0
  0
3DFACE
  8
Cylinder1
 10
0.170187
 20
2.901266
 30
0.303919
 11
0.129993
 21
2.901266
 31
0.180902
 12
0.159460
 22
2.901266
 32
0.129076
 13
0.159460
 23
2.901266
 33
0.129076
 62
0
  0
3DFACE
  8
Cylinder1
 10
0.170187
 20
2.901266
 30
0.303919
 11
0.159460
 21
2.901266
 31
0.129076
 12
0.169694
 22
2.901266
 32
0.070141
 13
0.169694
 23
2.901266
 33
0.070141
 62
0
  0
3DFACE
  8
Cylinder1
 10
-0.000013
 20
1.631934
 30
-0.219907
 11
-0.275402
 21
1.631934
 31
-0.019823
 12
-0.170213
 22
1.631934
 32
0.303919
 13
-0.170213
 23
1.631934
 33
0.303919
 62
0
  0
3DFACE
  8
Cylinder1
 10
0.170187
 20
1.631934
 30
0.303919
 11
-0.000013
 21
1.631934
 31
-0.219907
 12
-0.170213
 22
1.631934
 32
0.303919
 13
-0.170213
 23
1.631934
 33
0.303919
 62
0
  0
3DFACE
  8
Cylinder1
 10
0.275376
 20
1.631934
 30
-0.019823
 11
-0.000013
 21
1.631934
 31
-0.219907
 12
0.170187
 22
1.631934
 32
0.303919
 13
0.170187
 23
1.631934
 33
0.303919
 62
0
  0
3DFACE
  8
Cylinder1
 10
-0.029467
 20
1.816491
 30
-0.099554
 11
-0.084847
 21
1.816491
 31
-0.079086
 12
-0.084847
 22
2.901266
 32
-0.079086
 13
-0.029467
 23
2.901266
 33
-0.099554
 62
1
  0
3DFACE
  8
Cylinder1
 10
-0.084847
 20
1.816491
 30
-0.079086
 11
-0.129993
 21
1.816491
 31
-0.040619
 12
-0.129993
 22
2.901266
 32
-0.040619
 13
-0.084847
 23
2.901266
 33
-0.079086
 62
1
  0
3DFACE
  8
Cylinder1
 10
-0.129993
 20
1.816491
 30
-0.040619
 11
-0.159460
 21
1.816491
 31
0.011207
 12
-0.159460
 22
2.901266
 32
0.011207
 13
-0.129993
 23
2.901266
 33
-0.040619
 62
1
  0
3DFACE
  8
Cylinder1
 10
-0.159460
 20
1.816491
 30
0.011207
 11
-0.169694
 21
1.816491
 31
0.070141
 12
-0.169694
 22
2.901266
 32
0.070141
 13
-0.159460
 23
2.901266
 33
0.011207
 62
1
  0
3DFACE
  8
Cylinder1
 10
-0.169694
 20
1.816491
 30
0.070141
 11
-0.159460
 21
1.816491
 31
0.129076
 12
-0.159460
 22
2.901266
 32
0.129076
 13
-0.169694
 23
2.901266
 33
0.070141
 62
1
  0
3DFACE
  8
Cylinder1
 10
-0.159460
 20
1.816491
 30
0.129076
 11
-0.129993
 21
1.816491
 31
0.180902
 12
-0.129993
 22
2.901266
 32
0.180902
 13
-0.159460
 23
2.901266
 33
0.129076
 62
1
  0
3DFACE
  8
Cylinder1
 10
-0.129993
 20
1.816491
 30
0.180902
 11
-0.084847
 21
1.816491
 31
0.219369
 12
-0.084847
 22
2.901266
 32
0.219369
 13
-0.129993
 23
2.901266
 33
0.180902
 62
1
  0
3DFACE
  8
Cylinder1
 10
-0.084847
 20
1.816491
 30
0.219369
 11
-0.029467
 21
1.816491
 31
0.239836
 12
-0.029467
 22
2.901266
 32
0.239836
 13
-0.084847
 23
2.901266
 33
0.219369
 62
1
  0
3DFACE
  8
Cylinder1
 10
-0.029467
 20
1.816491
 30
0.239836
 11
0.029467
 21
1.816491
 31
0.239836
 12
0.029467
 22
2.901266
 32
0.239836
 13
-0.029467
 23
2.901266
 33
0.239836
 62
1
  0
3DFACE
  8
Cylinder1
 10
-0.159460
 20
1.816491
 30
0.011207
 11
-0.159460
 21
1.816491
 31
0.129076
 12
-0.169694
 22
1.816491
 32
0.070141
 13
-0.169694
 23
1.816491
 33
0.070141
 62
1
  0
3DFACE
  8
Cylinder1
 10
-0.129993
 20
1.816491
 30
0.180902
 11
-0.159460
 21
1.816491
 31
0.129076
 12
-0.159460
 22
1.816491
 32
0.011207
 13
-0.159460
 23
1.816491
 33
0.011207
 62
1
  0
3DFACE
  8
Cylinder1
 10
-0.129993
 20
1.816491
 30
-0.040619
 11
-0.129993
 21
1.816491
 31
0.180902
 12
-0.159460
 22
1.816491
 32
0.011207
 13
-0.159460
 23
1.816491
 33
0.011207
 62
1
  0
3DFACE
  8
Cylinder1
 10
-0.084847
 20
1.816491
 30
0.219369
 11
-0.129993
 21
1.816491
 31
0.180902
 12
-0.129993
 22
1.816491
 32
-0.040619
 13
-0.129993
 23
1.816491
 33
-0.040619
 62
1
  0
3DFACE
  8
Cylinder1
 10
-0.084847
 20
1.816491
 30
-0.079086
 11
-0.084847
 21
1.816491
 31
0.219369
 12
-0.129993
 22
1.816491
 32
-0.040619
 13
-0.129993
 23
1.816491
 33
-0.040619
 62
1
  0
3DFACE
  8
Cylinder1
 10
-0.029467
 20
1.816491
 30
0.239836
 11
-0.084847
 21
1.816491
 31
0.219369
 12
-0.084847
 22
1.816491
 32
-0.079086
 13
-0.084847
 23
1.816491
 33
-0.079086
 62
1
  0
3DFACE
  8
Cylinder1
 10
-0.029467
 20
1.816491
 30
-0.099554
 11
-0.029467
 21
1.816491
 31
0.239836
 12
-0.084847
 22
1.816491
 32
-0.079086
 13
-0.084847
 23
1.816491
 33
-0.079086
 62
1
  0
3DFACE
  8
Cylinder1
 10
0.029467
 20
1.816491
 30
0.239836
 11
-0.029467
 21
1.816491
 31
0.239836
 12
-0.029467
 22
1.816491
 32
-0.099554
 13
-0.029467
 23
1.816491
 33
-0.099554
 62
1
  0
3DFACE
  8
Cylinder1
 10
0.029467
 20
1.816491
 30
-0.099554
 11
0.029467
 21
1.816491
 31
0.239836
 12
-0.029467
 22
1.816491
 32
-0.099554
 13
-0.029467
 23
1.816491
 33
-0.099554
 62
1
  0
3DFACE
  8
Cylinder1
 10
0.084847
 20
1.816491
 30
0.219369
 11
0.029467
 21
1.816491
 31
0.239836
 12
0.029467
 22
1.816491
 32
-0.099554
 13
0.029467
 23
1.816491
 33
-0.099554
 62
1
  0
3DFACE
  8
Cylinder1
 10
0.084847
 20
1.816491
 30
-0.079086
 11
0.084847
 21
1.816491
 31
0.219369
 12
0.029467
 22
1.816491
 32
-0.099554
 13
0.029467
 23
1.816491
 33
-0.099554
 62
1
  0
3DFACE
  8
Cylinder1
 10
0.129993
 20
1.816491
 30
0.180902
 11
0.084847
 21
1.816491
 31
0.219369
 12
0.084847
 22
1.816491
 32
-0.079086
 13
0.084847
 23
1.816491
 33
-0.079086
 62
1
  0
3DFACE
  8
Cylinder1
 10
0.129993
 20
1.816491
 30
-0.040619
 11
0.129993
 21
1.816491
 31
0.180902
 12
0.084847
 22
1.816491
 32
-0.079086
 13
0.084847
 23
1.816491
 33
-0.079086
 62
1
  0
3DFACE
  8
Cylinder1
 10
0.159460
 20
1.816491
 30
0.129076
 11
0.129993
 21
1.816491
 31
0.180902
 12
0.129993
 22
1.816491
 32
-0.040619
 13
0.129993
 23
1.816491
 33
-0.040619
 62
1
  0
3DFACE
  8
Cylinder1
 10
0.159460
 20
1.816491
 30
0.011207
 11
0.159460
 21
1.816491
 31
0.129076
 12
0.129993
 22
1.816491
 32
-0.040619
 13
0.129993
 23
1.816491
 33
-0.040619
 62
1
  0
3DFACE
  8
Cylinder1
 10
0.169694
 20
1.816491
 30
0.070141
 11
0.159460
 21
1.816491
 31
0.129076
 12
0.159460
 22
1.816491
 32
0.011207
 13
0.159460
 23
1.816491
 33
0.011207
 62
1
  0
3DFACE
  8
Cylinder1
 10
0.084847
 20
1.816491
 30
0.219369
 11
0.129993
 21
1.816491
 31
0.180902
 12
0.129993
 22
2.901266
 32
0.180902
 13
0.084847
 23
2.901266
 33
0.219369
 62
1
  0
3DFACE
  8
Cylinder1
 10
0.029467
 20
1.816491
 30
0.239836
 11
0.084847
 21
1.816491
 31
0.219369
 12
0.084847
 22
2.901266
 32
0.219369
 13
0.029467
 23
2.901266
 33
0.239836
 62
1
  0
3DFACE
  8
Cylinder1
 10
0.129993
 20
1.816491
 30
0.180902
 11
0.159460
 21
1.816491
 31
0.129076
 12
0.159460
 22
2.901266
 32
0.129076
 13
0.129993
 23
2.901266
 33
0.180902
 62
1
  0
3DFACE
  8
Cylinder1
 10
0.159460
 20
1.816491
 30
0.129076
 11
0.169694
 21
1.816491
 31
0.070141
 12
0.169694
 22
2.901266
 32
0.070141
 13
0.159460
 23
2.901266
 33
0.129076
 62
1
  0
3DFACE
  8
Cylinder1
 10
0.169694
 20
1.816491
 30
0.070141
 11
0.159460
 21
1.816491
 31
0.011207
 12
0.159460
 22
2.901266
 32
0.011207
 13
0.169694
 23
2.901266
 33
0.070141
 62
1
  0
3DFACE
  8
Cylinder1
 10
0.159460
 20
1.816491
 30
0.011207
 11
0.129993
 21
1.816491
 31
-0.040619
 12
0.129993
 22
2.901266
 32
-0.040619
 13
0.159460
 23
2.901266
 33
0.011207
 62
1
  0
3DFACE
  8
Cylinder1
 10
0.129993
 20
1.816491
 30
-0.040619
 11
0.084847
 21
1.816491
 31
-0.079086
 12
0.084847
 22
2.901266
 32
-0.079086
 13
0.129993
 23
2.901266
 33
-0.040619
 62
1
  0
3DFACE
  8
Cylinder1
 10
0.084847
 20
1.816491
 30
-0.079086
 11
0.029467
 21
1.816491
 31
-0.099554
 12
0.029467
 22
2.901266
 32
-0.099554
 13
0.084847
 23
2.901266
 33
-0.079086
 62
1
  0
3DFACE
  8
Cylinder1
 10
0.029467
 20
1.816491
 30
-0.099554
 11
-0.029467
 21
1.816491
 31
-0.099554
 12
-0.029467
 22
2.901266
 32
-0.099554
 13
0.029467
 23
2.901266
 33
-0.099554
 62
1
  0
3DFACE
  8
Sphere
 10
-3.174000
 20
-0.286814
 30
-0.154754
 11
-2.128762
 21
3.511908
 31
-0.790338
 12
-1.096902
 22
0.140215
 32
1.102597
 13
-1.096902
 23
0.140215
 33
1.102597
 62
0
  0
3DFACE
  8
Sphere
 10
-2.128762
 20
3.511908
 30
-0.790338
 11
-1.096252
 21
-0.286814
 31
-1.381282
 12
-1.096902
 22
0.140215
 32
1.102597
 13
-1.096902
 23
0.140215
 33
1.102597
 62
0
  0
3DFACE
  8
Sphere
 10
-1.096252
 20
-0.286814
 30
-1.381282
 11
-2.128640
 21
-1.383091
 31
-0.790560
 12
-1.096902
 22
0.140215
 32
1.102597
 13
-1.096902
 23
0.140215
 33
1.102597
 62
0
  0
3DFACE
  8
Sphere
 10
-2.128640
 20
-1.383091
 30
-0.790560
 11
-3.174000
 21
-0.286814
 31
-0.154754
 12
-1.096902
 22
0.140215
 32
1.102597
 13
-1.096902
 23
0.140215
 33
1.102597
 62
0
  0
3DFACE
  8
Sphere
 10
-2.713319
 20
-0.286814
 30
-1.816402
 11
-2.128762
 21
3.511908
 31
-0.790338
 12
-3.174000
 22
-0.286814
 32
-0.154754
 13
-3.174000
 23
-0.286814
 33
-0.154754
 62
0
  0
3DFACE
  8
Sphere
 10
-2.713319
 20
-0.286814
 30
-1.816402
 11
-1.096252
 21
-0.286814
 31
-1.381282
 12
-2.128762
 22
3.511908
 32
-0.790338
 13
-2.128762
 23
3.511908
 33
-0.790338
 62
0
  0
3DFACE
  8
Sphere
 10
-2.713319
 20
-0.286814
 30
-1.816402
 11
-2.128640
 21
-1.383091
 31
-0.790560
 12
-1.096252
 22
-0.286814
 32
-1.381282
 13
-1.096252
 23
-0.286814
 33
-1.381282
 62
0
  0
3DFACE
  8
Sphere
 10
-2.713319
 20
-0.286814
 30
-1.816402
 11
-3.174000
 21
-0.286814
 31
-0.154754
 12
-2.128640
 22
-1.383091
 32
-0.790560
 13
-2.128640
 23
-1.383091
 33
-0.790560
 62
0
  0
3DFACE
  8
Cylinder001
 10
-1.846969
 20
0.010583
 30
-0.315736
 11
-0.544286
 21
0.010577
 31
-0.009816
 12
-0.365830
 22
0.254949
 32
-0.388303
 13
-1.451810
 23
0.254948
 33
-1.191362
 62
0
  0
3DFACE
  8
Cylinder001
 10
-1.451810
 20
0.254948
 30
-1.191362
 11
-0.365830
 21
0.254949
 31
-0.388303
 12
-0.544301
 22
0.499311
 32
-0.009809
 13
-1.846980
 23
0.499311
 33
-0.315728
 62
0
  0
3DFACE
  8
Cylinder001
 10
-1.846980
 20
0.499311
 30
-0.315728
 11
-0.544301
 21
0.499311
 31
-0.009809
 12
-0.544286
 22
0.010577
 32
-0.009816
 13
-1.846969
 23
0.010583
 33
-0.315736
 62
0
  0
3DFACE
  8
Cylinder001
 10
-1.846969
 20
0.010583
 30
-0.315736
 11
-1.451810
 21
0.254948
 31
-1.191362
 12
-1.846980
 22
0.499311
 32
-0.315728
 13
-1.846980
 23
0.499311
 33
-0.315728
 62
0
  0
3DFACE
  8
Cylinder001
 10
-0.544301
 20
0.499311
 30
-0.009809
 11
-0.365830
 21
0.254949
 31
-0.388303
 12
-0.544286
 22
0.010577
 32
-0.009816
 13
-0.544286
 23
0.010577
 33
-0.009816
 62
0
  0
3DFACE
  8
Sphere001
 10
1.096902
 20
0.140215
 30
1.102597
 11
2.128762
 21
3.511909
 31
-0.790338
 12
3.174001
 22
-0.286814
 32
-0.154754
 13
3.174001
 23
-0.286814
 33
-0.154754
 62
0
  0
3DFACE
  8
Sphere001
 10
1.096902
 20
0.140215
 30
1.102597
 11
1.096252
 21
-0.286814
 31
-1.381283
 12
2.128762
 22
3.511909
 32
-0.790338
 13
2.128762
 23
3.511909
 33
-0.790338
 62
0
  0
3DFACE
  8
Sphere001
 10
1.096902
 20
0.140215
 30
1.102597
 11
2.128639
 21
-1.383091
 31
-0.790560
 12
1.096252
 22
-0.286814
 32
-1.381283
 13
1.096252
 23
-0.286814
 33
-1.381283
 62
0
  0
3DFACE
  8
Sphere001
 10
1.096902
 20
0.140215
 30
1.102597
 11
3.174001
 21
-0.286814
 31
-0.154754
 12
2.128639
 22
-1.383091
 32
-0.790560
 13
2.128639
 23
-1.383091
 33
-0.790560
 62
0
  0
3DFACE
  8
Sphere001
 10
3.174001
 20
-0.286814
 30
-0.154754
 11
2.128762
 21
3.511909
 31
-0.790338
 12
2.713319
 22
-0.286814
 32
-1.816403
 13
2.713319
 23
-0.286814
 33
-1.816403
 62
0
  0
3DFACE
  8
Sphere001
 10
2.128762
 20
3.511909
 30
-0.790338
 11
1.096252
 21
-0.286814
 31
-1.381283
 12
2.713319
 22
-0.286814
 32
-1.816403
 13
2.713319
 23
-0.286814
 33
-1.816403
 62
0
  0
3DFACE
  8
Sphere001
 10
1.096252
 20
-0.286814
 30
-1.381283
 11
2.128639
 21
-1.383091
 31
-0.790560
 12
2.713319
 22
-0.286814
 32
-1.816403
 13
2.713319
 23
-0.286814
 33
-1.816403
 62
0
  0
3DFACE
  8
Sphere001
 10
2.128639
 20
-1.383091
 30
-0.790560
 11
3.174001
 21
-0.286814
 31
-0.154754
 12
2.713319
 22
-0.286814
 32
-1.816403
 13
2.713319
 23
-0.286814
 33
-1.816403
 62
0
  0
3DFACE
  8
Cylinder002
 10
1.451811
 20
0.254949
 30
-1.191361
 11
0.365831
 21
0.254949
 31
-0.388303
 12
0.544286
 22
0.010578
 32
-0.009816
 13
1.846969
 23
0.010584
 33
-0.315736
 62
0
  0
3DFACE
  8
Cylinder002
 10
1.846980
 20
0.499312
 30
-0.315727
 11
0.544302
 21
0.499312
 31
-0.009808
 12
0.365831
 22
0.254949
 32
-0.388303
 13
1.451811
 23
0.254949
 33
-1.191361
 62
0
  0
3DFACE
  8
Cylinder002
 10
1.846969
 20
0.010584
 30
-0.315736
 11
0.544286
 21
0.010578
 31
-0.009816
 12
0.544302
 22
0.499312
 32
-0.009808
 13
1.846980
 23
0.499312
 33
-0.315727
 62
0
  0
3DFACE
  8
Cylinder002
 10
1.846980
 20
0.499312
 30
-0.315727
 11
1.451811
 21
0.254949
 31
-1.191361
 12
1.846969
 22
0.010584
 32
-0.315736
 13
1.846969
 23
0.010584
 33
-0.315736
 62
0
  0
3DFACE
  8
Cylinder002
 10
0.544286
 20
0.010578
 30
-0.009816
 11
0.365831
 21
0.254949
 31
-0.388303
 12
0.544302
 22
0.499312
 32
-0.009808
 13
0.544302
 23
0.499312
 33
-0.009808
 62
0
 0
ENDSEC
 0
EOF
