  0
SECTION
  2
HEADER
  0
ENDSEC
  0
SECTION
  2
TABLES
  0
TABLE
  2
LAYER
  70
    153
  0
LAYER
  2
Cube3
 70
0
 62
15
  6
CONTINUOUS
  0
LAYER
  2
Cylinder4
 70
0
 62
15
  6
CONTINUOUS
  0
LAYER
  2
Cube3001
 70
0
 62
15
  6
CONTINUOUS
  0
LAYER
  2
Cylinder4001
 70
0
 62
15
  6
CONTINUOUS
  0
LAYER
  2
Cube
 70
0
 62
15
  6
CONTINUOUS
  0
LAYER
  2
Cylinder2
 70
0
 62
15
  6
CONTINUOUS
  0
LAYER
  2
Cylinder1
 70
0
 62
15
  6
CONTINUOUS
  0
LAYER
  2
Cylinder
 70
0
 62
15
  6
CONTINUOUS
  0
LAYER
  2
NoName9
 70
0
 62
15
  6
CONTINUOUS
  0
LAYER
  2
NoName10
 70
0
 62
15
  6
CONTINUOUS
  0
LAYER
  2
NoName11
 70
0
 62
15
  6
CONTINUOUS
  0
LAYER
  2
NoName12
 70
0
 62
15
  6
CONTINUOUS
  0
ENDTAB
  0
ENDSEC
  0
SECTION
  2
ENTITIES
  0
3DFACE
  8
Cube3
 10
-1.313115
 20
-1.182667
 30
0.518587
 11
-1.313097
 21
-0.215046
 31
0.518581
 12
-1.312975
 22
0.252172
 32
-1.099264
 13
-1.312956
 23
-0.751814
 33
-1.099239
 62
0
  0
3DFACE
  8
Cube3
 10
-1.312975
 20
0.252172
 30
-1.099264
 11
-1.838656
 21
0.256557
 31
-1.099200
 12
-1.838603
 22
-0.751819
 32
-1.098944
 13
-1.312956
 23
-0.751814
 33
-1.099239
 62
0
  0
3DFACE
  8
Cube3
 10
-1.838656
 20
0.256557
 30
-1.099200
 11
-1.312975
 21
0.252172
 31
-1.099264
 12
-1.931833
 22
-0.053632
 32
-0.036085
 13
-1.931833
 23
-0.053632
 33
-0.036085
 62
0
  0
3DFACE
  8
Cube3
 10
-1.313115
 20
-1.182667
 30
0.518587
 11
-1.931777
 21
-1.033508
 31
-0.036091
 12
-1.931833
 22
-0.053632
 32
-0.036085
 13
-1.313097
 23
-0.215046
 33
0.518581
 62
0
  0
3DFACE
  8
Cube3
 10
-1.931833
 20
-0.053632
 30
-0.036085
 11
-1.931777
 21
-1.033508
 31
-0.036091
 12
-1.838603
 22
-0.751819
 32
-1.098944
 13
-1.838656
 23
0.256557
 33
-1.099200
 62
0
  0
3DFACE
  8
Cube3
 10
-1.931777
 20
-1.033508
 30
-0.036091
 11
-1.313115
 21
-1.182667
 31
0.518587
 12
-1.312956
 22
-0.751814
 32
-1.099239
 13
-1.312956
 23
-0.751814
 33
-1.099239
 62
0
  0
3DFACE
  8
Cube3
 10
-1.313097
 20
-0.215046
 30
0.518581
 11
-1.931833
 21
-0.053632
 31
-0.036085
 12
-1.312975
 22
0.252172
 32
-1.099264
 13
-1.312975
 23
0.252172
 33
-1.099264
 62
0
  0
3DFACE
  8
Cube3
 10
-1.312956
 20
-0.751814
 30
-1.099239
 11
-1.838603
 21
-0.751819
 31
-1.098944
 12
-1.931777
 22
-1.033508
 32
-0.036091
 13
-1.931777
 23
-1.033508
 33
-0.036091
 62
0
  0
3DFACE
  8
Cylinder4
 10
-1.371344
 20
0.076096
 30
-0.898027
 11
-1.354055
 21
0.076096
 31
-0.811366
 12
-1.354054
 22
1.258352
 32
-0.811366
 13
-1.371343
 23
1.258352
 33
-0.898028
 62
0
  0
3DFACE
  8
Cylinder4
 10
-1.420578
 20
0.076096
 30
-0.971495
 11
-1.371344
 21
0.076096
 31
-0.898027
 12
-1.371343
 22
1.258352
 32
-0.898028
 13
-1.420578
 23
1.258352
 33
-0.971495
 62
0
  0
3DFACE
  8
Cylinder4
 10
-1.494262
 20
0.076096
 30
-1.020584
 11
-1.420578
 21
0.076096
 31
-0.971495
 12
-1.420578
 22
1.258352
 32
-0.971495
 13
-1.494262
 23
1.258352
 33
-1.020585
 62
0
  0
3DFACE
  8
Cylinder4
 10
-1.581179
 20
0.076096
 30
-1.037822
 11
-1.494262
 21
0.076096
 31
-1.020584
 12
-1.494262
 22
1.258352
 32
-1.020585
 13
-1.581179
 23
1.258352
 33
-1.037823
 62
0
  0
3DFACE
  8
Cylinder4
 10
-1.668096
 20
0.076096
 30
-1.020584
 11
-1.581179
 21
0.076096
 31
-1.037822
 12
-1.581179
 22
1.258352
 32
-1.037823
 13
-1.668096
 23
1.258352
 33
-1.020585
 62
0
  0
3DFACE
  8
Cylinder4
 10
-1.741780
 20
0.076096
 30
-0.971495
 11
-1.668096
 21
0.076096
 31
-1.020584
 12
-1.668096
 22
1.258352
 32
-1.020585
 13
-1.741780
 23
1.258352
 33
-0.971495
 62
0
  0
3DFACE
  8
Cylinder4
 10
-1.791014
 20
0.076096
 30
-0.898027
 11
-1.741780
 21
0.076096
 31
-0.971495
 12
-1.741780
 22
1.258352
 32
-0.971495
 13
-1.791015
 23
1.258352
 33
-0.898028
 62
0
  0
3DFACE
  8
Cylinder4
 10
-1.808303
 20
0.076096
 30
-0.811366
 11
-1.791014
 21
0.076096
 31
-0.898027
 12
-1.791015
 22
1.258352
 32
-0.898028
 13
-1.808304
 23
1.258352
 33
-0.811366
 62
0
  0
3DFACE
  8
Cylinder4
 10
-1.791014
 20
0.076096
 30
-0.724706
 11
-1.808303
 21
0.076096
 31
-0.811366
 12
-1.808304
 22
1.258352
 32
-0.811366
 13
-1.791015
 23
1.258352
 33
-0.724705
 62
0
  0
3DFACE
  8
Cylinder4
 10
-1.741780
 20
0.076096
 30
-0.651238
 11
-1.791014
 21
0.076096
 31
-0.724706
 12
-1.791015
 22
1.258352
 32
-0.724705
 13
-1.741780
 23
1.258352
 33
-0.651238
 62
0
  0
3DFACE
  8
Cylinder4
 10
-1.668096
 20
0.076096
 30
-0.602149
 11
-1.741780
 21
0.076096
 31
-0.651238
 12
-1.741780
 22
1.258352
 32
-0.651238
 13
-1.668096
 23
1.258352
 33
-0.602148
 62
0
  0
3DFACE
  8
Cylinder4
 10
-1.581179
 20
0.076096
 30
-0.584911
 11
-1.668096
 21
0.076096
 31
-0.602149
 12
-1.668096
 22
1.258352
 32
-0.602148
 13
-1.581179
 23
1.258352
 33
-0.584910
 62
0
  0
3DFACE
  8
Cylinder4
 10
-1.494262
 20
0.076096
 30
-0.602149
 11
-1.581179
 21
0.076096
 31
-0.584911
 12
-1.581179
 22
1.258352
 32
-0.584910
 13
-1.494262
 23
1.258352
 33
-0.602148
 62
0
  0
3DFACE
  8
Cylinder4
 10
-1.420578
 20
0.076096
 30
-0.651238
 11
-1.494262
 21
0.076096
 31
-0.602149
 12
-1.494262
 22
1.258352
 32
-0.602148
 13
-1.420578
 23
1.258352
 33
-0.651238
 62
0
  0
3DFACE
  8
Cylinder4
 10
-1.371344
 20
0.076096
 30
-0.724706
 11
-1.420578
 21
0.076096
 31
-0.651238
 12
-1.420578
 22
1.258352
 32
-0.651238
 13
-1.371343
 23
1.258352
 33
-0.724705
 62
0
  0
3DFACE
  8
Cylinder4
 10
-1.354055
 20
0.076096
 30
-0.811366
 11
-1.371344
 21
0.076096
 31
-0.724706
 12
-1.371343
 22
1.258352
 32
-0.724705
 13
-1.354054
 23
1.258352
 33
-0.811366
 62
0
  0
3DFACE
  8
Cylinder4
 10
-1.668096
 20
0.076096
 30
-1.020584
 11
-1.494262
 21
0.076096
 31
-1.020584
 12
-1.581179
 22
0.076096
 32
-1.037822
 13
-1.581179
 23
0.076096
 33
-1.037822
 62
0
  0
3DFACE
  8
Cylinder4
 10
-1.420578
 20
0.076096
 30
-0.971495
 11
-1.494262
 21
0.076096
 31
-1.020584
 12
-1.668096
 22
0.076096
 32
-1.020584
 13
-1.668096
 23
0.076096
 33
-1.020584
 62
0
  0
3DFACE
  8
Cylinder4
 10
-1.741780
 20
0.076096
 30
-0.971495
 11
-1.420578
 21
0.076096
 31
-0.971495
 12
-1.668096
 22
0.076096
 32
-1.020584
 13
-1.668096
 23
0.076096
 33
-1.020584
 62
0
  0
3DFACE
  8
Cylinder4
 10
-1.371344
 20
0.076096
 30
-0.898027
 11
-1.420578
 21
0.076096
 31
-0.971495
 12
-1.741780
 22
0.076096
 32
-0.971495
 13
-1.741780
 23
0.076096
 33
-0.971495
 62
0
  0
3DFACE
  8
Cylinder4
 10
-1.791014
 20
0.076096
 30
-0.898027
 11
-1.371344
 21
0.076096
 31
-0.898027
 12
-1.741780
 22
0.076096
 32
-0.971495
 13
-1.741780
 23
0.076096
 33
-0.971495
 62
0
  0
3DFACE
  8
Cylinder4
 10
-1.354055
 20
0.076096
 30
-0.811366
 11
-1.371344
 21
0.076096
 31
-0.898027
 12
-1.791014
 22
0.076096
 32
-0.898027
 13
-1.791014
 23
0.076096
 33
-0.898027
 62
0
  0
3DFACE
  8
Cylinder4
 10
-1.808303
 20
0.076096
 30
-0.811366
 11
-1.354055
 21
0.076096
 31
-0.811366
 12
-1.791014
 22
0.076096
 32
-0.898027
 13
-1.791014
 23
0.076096
 33
-0.898027
 62
0
  0
3DFACE
  8
Cylinder4
 10
-1.371344
 20
0.076096
 30
-0.724706
 11
-1.354055
 21
0.076096
 31
-0.811366
 12
-1.808303
 22
0.076096
 32
-0.811366
 13
-1.808303
 23
0.076096
 33
-0.811366
 62
0
  0
3DFACE
  8
Cylinder4
 10
-1.791014
 20
0.076096
 30
-0.724706
 11
-1.371344
 21
0.076096
 31
-0.724706
 12
-1.808303
 22
0.076096
 32
-0.811366
 13
-1.808303
 23
0.076096
 33
-0.811366
 62
0
  0
3DFACE
  8
Cylinder4
 10
-1.420578
 20
0.076096
 30
-0.651238
 11
-1.371344
 21
0.076096
 31
-0.724706
 12
-1.791014
 22
0.076096
 32
-0.724706
 13
-1.791014
 23
0.076096
 33
-0.724706
 62
0
  0
3DFACE
  8
Cylinder4
 10
-1.741780
 20
0.076096
 30
-0.651238
 11
-1.420578
 21
0.076096
 31
-0.651238
 12
-1.791014
 22
0.076096
 32
-0.724706
 13
-1.791014
 23
0.076096
 33
-0.724706
 62
0
  0
3DFACE
  8
Cylinder4
 10
-1.494262
 20
0.076096
 30
-0.602149
 11
-1.420578
 21
0.076096
 31
-0.651238
 12
-1.741780
 22
0.076096
 32
-0.651238
 13
-1.741780
 23
0.076096
 33
-0.651238
 62
0
  0
3DFACE
  8
Cylinder4
 10
-1.668096
 20
0.076096
 30
-0.602149
 11
-1.494262
 21
0.076096
 31
-0.602149
 12
-1.741780
 22
0.076096
 32
-0.651238
 13
-1.741780
 23
0.076096
 33
-0.651238
 62
0
  0
3DFACE
  8
Cylinder4
 10
-1.581179
 20
0.076096
 30
-0.584911
 11
-1.494262
 21
0.076096
 31
-0.602149
 12
-1.668096
 22
0.076096
 32
-0.602149
 13
-1.668096
 23
0.076096
 33
-0.602149
 62
0
  0
3DFACE
  8
Cylinder4
 10
-1.525304
 20
1.258352
 30
-0.945864
 11
-1.581179
 21
1.258352
 31
-0.956946
 12
-1.420578
 22
1.258352
 32
-0.971495
 13
-1.420578
 23
1.258352
 33
-0.971495
 62
0
  0
3DFACE
  8
Cylinder4
 10
-1.477935
 20
1.258352
 30
-0.914306
 11
-1.525304
 21
1.258352
 31
-0.945864
 12
-1.420578
 22
1.258352
 32
-0.971495
 13
-1.420578
 23
1.258352
 33
-0.971495
 62
0
  0
3DFACE
  8
Cylinder4
 10
-1.371343
 20
1.258352
 30
-0.898028
 11
-1.477935
 21
1.258352
 31
-0.914306
 12
-1.420578
 22
1.258352
 32
-0.971495
 13
-1.420578
 23
1.258352
 33
-0.971495
 62
0
  0
3DFACE
  8
Cylinder4
 10
-1.446285
 20
1.258352
 30
-0.867077
 11
-1.477935
 21
1.258352
 31
-0.914306
 12
-1.371343
 22
1.258352
 32
-0.898028
 13
-1.371343
 23
1.258352
 33
-0.898028
 62
0
  0
3DFACE
  8
Cylinder4
 10
-1.354054
 20
1.258352
 30
-0.811366
 11
-1.446285
 21
1.258352
 31
-0.867077
 12
-1.371343
 22
1.258352
 32
-0.898028
 13
-1.371343
 23
1.258352
 33
-0.898028
 62
0
  0
3DFACE
  8
Cylinder4
 10
-1.435170
 20
1.258352
 30
-0.811366
 11
-1.446285
 21
1.258352
 31
-0.867077
 12
-1.354054
 22
1.258352
 32
-0.811366
 13
-1.354054
 23
1.258352
 33
-0.811366
 62
0
  0
3DFACE
  8
Cylinder4
 10
-1.446285
 20
1.258352
 30
-0.755656
 11
-1.435170
 21
1.258352
 31
-0.811366
 12
-1.354054
 22
1.258352
 32
-0.811366
 13
-1.354054
 23
1.258352
 33
-0.811366
 62
0
  0
3DFACE
  8
Cylinder4
 10
-1.371343
 20
1.258352
 30
-0.724705
 11
-1.446285
 21
1.258352
 31
-0.755656
 12
-1.354054
 22
1.258352
 32
-0.811366
 13
-1.354054
 23
1.258352
 33
-0.811366
 62
0
  0
3DFACE
  8
Cylinder4
 10
-1.477935
 20
1.258352
 30
-0.708427
 11
-1.446285
 21
1.258352
 31
-0.755656
 12
-1.371343
 22
1.258352
 32
-0.724705
 13
-1.371343
 23
1.258352
 33
-0.724705
 62
0
  0
3DFACE
  8
Cylinder4
 10
-1.525304
 20
1.258352
 30
-0.676869
 11
-1.477935
 21
1.258352
 31
-0.708427
 12
-1.371343
 22
1.258352
 32
-0.724705
 13
-1.371343
 23
1.258352
 33
-0.724705
 62
0
  0
3DFACE
  8
Cylinder4
 10
-1.420578
 20
1.258352
 30
-0.651238
 11
-1.525304
 21
1.258352
 31
-0.676869
 12
-1.371343
 22
1.258352
 32
-0.724705
 13
-1.371343
 23
1.258352
 33
-0.724705
 62
0
  0
3DFACE
  8
Cylinder4
 10
-1.420578
 20
1.258352
 30
-0.651238
 11
-1.581179
 21
1.258352
 31
-0.665787
 12
-1.525304
 22
1.258352
 32
-0.676869
 13
-1.525304
 23
1.258352
 33
-0.676869
 62
0
  0
3DFACE
  8
Cylinder4
 10
-1.420578
 20
1.258352
 30
-0.651238
 11
-1.741780
 21
1.258352
 31
-0.651238
 12
-1.581179
 22
1.258352
 32
-0.665787
 13
-1.581179
 23
1.258352
 33
-0.665787
 62
0
  0
3DFACE
  8
Cylinder4
 10
-1.668096
 20
1.258352
 30
-0.602148
 11
-1.741780
 21
1.258352
 31
-0.651238
 12
-1.420578
 22
1.258352
 32
-0.651238
 13
-1.420578
 23
1.258352
 33
-0.651238
 62
0
  0
3DFACE
  8
Cylinder4
 10
-1.494262
 20
1.258352
 30
-0.602148
 11
-1.668096
 21
1.258352
 31
-0.602148
 12
-1.420578
 22
1.258352
 32
-0.651238
 13
-1.420578
 23
1.258352
 33
-0.651238
 62
0
  0
3DFACE
  8
Cylinder4
 10
-1.581179
 20
1.258352
 30
-0.584910
 11
-1.668096
 21
1.258352
 31
-0.602148
 12
-1.494262
 22
1.258352
 32
-0.602148
 13
-1.494262
 23
1.258352
 33
-0.602148
 62
0
  0
3DFACE
  8
Cylinder4
 10
-1.494262
 20
1.258352
 30
-1.020585
 11
-1.668096
 21
1.258352
 31
-1.020585
 12
-1.581179
 22
1.258352
 32
-1.037823
 13
-1.581179
 23
1.258352
 33
-1.037823
 62
0
  0
3DFACE
  8
Cylinder4
 10
-1.741780
 20
1.258352
 30
-0.971495
 11
-1.668096
 21
1.258352
 31
-1.020585
 12
-1.494262
 22
1.258352
 32
-1.020585
 13
-1.494262
 23
1.258352
 33
-1.020585
 62
0
  0
3DFACE
  8
Cylinder4
 10
-1.420578
 20
1.258352
 30
-0.971495
 11
-1.741780
 21
1.258352
 31
-0.971495
 12
-1.494262
 22
1.258352
 32
-1.020585
 13
-1.494262
 23
1.258352
 33
-1.020585
 62
0
  0
3DFACE
  8
Cylinder4
 10
-1.581179
 20
1.258352
 30
-0.956946
 11
-1.741780
 21
1.258352
 31
-0.971495
 12
-1.420578
 22
1.258352
 32
-0.971495
 13
-1.420578
 23
1.258352
 33
-0.971495
 62
0
  0
3DFACE
  8
Cylinder4
 10
-1.637054
 20
1.258352
 30
-0.945864
 11
-1.741780
 21
1.258352
 31
-0.971495
 12
-1.581179
 22
1.258352
 32
-0.956946
 13
-1.581179
 23
1.258352
 33
-0.956946
 62
0
  0
3DFACE
  8
Cylinder4
 10
-1.684423
 20
1.258352
 30
-0.914306
 11
-1.741780
 21
1.258352
 31
-0.971495
 12
-1.637054
 22
1.258352
 32
-0.945864
 13
-1.637054
 23
1.258352
 33
-0.945864
 62
0
  0
3DFACE
  8
Cylinder4
 10
-1.791015
 20
1.258352
 30
-0.898028
 11
-1.741780
 21
1.258352
 31
-0.971495
 12
-1.684423
 22
1.258352
 32
-0.914306
 13
-1.684423
 23
1.258352
 33
-0.914306
 62
0
  0
3DFACE
  8
Cylinder4
 10
-1.716074
 20
1.258352
 30
-0.867077
 11
-1.791015
 21
1.258352
 31
-0.898028
 12
-1.684423
 22
1.258352
 32
-0.914306
 13
-1.684423
 23
1.258352
 33
-0.914306
 62
0
  0
3DFACE
  8
Cylinder4
 10
-1.727188
 20
1.258352
 30
-0.811366
 11
-1.791015
 21
1.258352
 31
-0.898028
 12
-1.716074
 22
1.258352
 32
-0.867077
 13
-1.716074
 23
1.258352
 33
-0.867077
 62
0
  0
3DFACE
  8
Cylinder4
 10
-1.808304
 20
1.258352
 30
-0.811366
 11
-1.791015
 21
1.258352
 31
-0.898028
 12
-1.727188
 22
1.258352
 32
-0.811366
 13
-1.727188
 23
1.258352
 33
-0.811366
 62
0
  0
3DFACE
  8
Cylinder4
 10
-1.716074
 20
1.258352
 30
-0.755656
 11
-1.808304
 21
1.258352
 31
-0.811366
 12
-1.727188
 22
1.258352
 32
-0.811366
 13
-1.727188
 23
1.258352
 33
-0.811366
 62
0
  0
3DFACE
  8
Cylinder4
 10
-1.791015
 20
1.258352
 30
-0.724705
 11
-1.808304
 21
1.258352
 31
-0.811366
 12
-1.716074
 22
1.258352
 32
-0.755656
 13
-1.716074
 23
1.258352
 33
-0.755656
 62
0
  0
3DFACE
  8
Cylinder4
 10
-1.684423
 20
1.258352
 30
-0.708427
 11
-1.791015
 21
1.258352
 31
-0.724705
 12
-1.716074
 22
1.258352
 32
-0.755656
 13
-1.716074
 23
1.258352
 33
-0.755656
 62
0
  0
3DFACE
  8
Cylinder4
 10
-1.637054
 20
1.258352
 30
-0.676869
 11
-1.791015
 21
1.258352
 31
-0.724705
 12
-1.684423
 22
1.258352
 32
-0.708427
 13
-1.684423
 23
1.258352
 33
-0.708427
 62
0
  0
3DFACE
  8
Cylinder4
 10
-1.741780
 20
1.258352
 30
-0.651238
 11
-1.791015
 21
1.258352
 31
-0.724705
 12
-1.637054
 22
1.258352
 32
-0.676869
 13
-1.637054
 23
1.258352
 33
-0.676869
 62
0
  0
3DFACE
  8
Cylinder4
 10
-1.741780
 20
1.258352
 30
-0.651238
 11
-1.637054
 21
1.258352
 31
-0.676869
 12
-1.581179
 22
1.258352
 32
-0.665787
 13
-1.581179
 23
1.258352
 33
-0.665787
 62
0
  0
3DFACE
  8
Cylinder4
 10
-1.716074
 20
1.258352
 30
-0.755656
 11
-1.727188
 21
1.258352
 31
-0.811366
 12
-1.727187
 22
0.275377
 32
-0.811366
 13
-1.716072
 23
0.275377
 33
-0.755655
 62
1
  0
3DFACE
  8
Cylinder4
 10
-1.684423
 20
1.258352
 30
-0.708427
 11
-1.716074
 21
1.258352
 31
-0.755656
 12
-1.716072
 22
0.275377
 32
-0.755655
 13
-1.684422
 23
0.275377
 33
-0.708426
 62
1
  0
3DFACE
  8
Cylinder4
 10
-1.637054
 20
1.258352
 30
-0.676869
 11
-1.684423
 21
1.258352
 31
-0.708427
 12
-1.684422
 22
0.275377
 32
-0.708426
 13
-1.637054
 23
0.275377
 33
-0.676869
 62
1
  0
3DFACE
  8
Cylinder4
 10
-1.581179
 20
1.258352
 30
-0.665787
 11
-1.637054
 21
1.258352
 31
-0.676869
 12
-1.637054
 22
0.275377
 32
-0.676869
 13
-1.581179
 23
0.275377
 33
-0.665787
 62
1
  0
3DFACE
  8
Cylinder4
 10
-1.525304
 20
1.258352
 30
-0.676869
 11
-1.581179
 21
1.258352
 31
-0.665787
 12
-1.581179
 22
0.275377
 32
-0.665787
 13
-1.525304
 23
0.275377
 33
-0.676869
 62
1
  0
3DFACE
  8
Cylinder4
 10
-1.477935
 20
1.258352
 30
-0.708427
 11
-1.525304
 21
1.258352
 31
-0.676869
 12
-1.525304
 22
0.275377
 32
-0.676869
 13
-1.477936
 23
0.275377
 33
-0.708426
 62
1
  0
3DFACE
  8
Cylinder4
 10
-1.446285
 20
1.258352
 30
-0.755656
 11
-1.477935
 21
1.258352
 31
-0.708427
 12
-1.477936
 22
0.275377
 32
-0.708426
 13
-1.446286
 23
0.275377
 33
-0.755655
 62
1
  0
3DFACE
  8
Cylinder4
 10
-1.435170
 20
1.258352
 30
-0.811366
 11
-1.446285
 21
1.258352
 31
-0.755656
 12
-1.446286
 22
0.275377
 32
-0.755655
 13
-1.435171
 23
0.275377
 33
-0.811366
 62
1
  0
3DFACE
  8
Cylinder4
 10
-1.525304
 20
0.275377
 30
-0.945864
 11
-1.637054
 21
0.275377
 31
-0.945864
 12
-1.581179
 22
0.275377
 32
-0.956945
 13
-1.581179
 23
0.275377
 33
-0.956945
 62
1
  0
3DFACE
  8
Cylinder4
 10
-1.684422
 20
0.275377
 30
-0.914307
 11
-1.637054
 21
0.275377
 31
-0.945864
 12
-1.525304
 22
0.275377
 32
-0.945864
 13
-1.525304
 23
0.275377
 33
-0.945864
 62
1
  0
3DFACE
  8
Cylinder4
 10
-1.477936
 20
0.275377
 30
-0.914307
 11
-1.684422
 21
0.275377
 31
-0.914307
 12
-1.525304
 22
0.275377
 32
-0.945864
 13
-1.525304
 23
0.275377
 33
-0.945864
 62
1
  0
3DFACE
  8
Cylinder4
 10
-1.716072
 20
0.275377
 30
-0.867077
 11
-1.684422
 21
0.275377
 31
-0.914307
 12
-1.477936
 22
0.275377
 32
-0.914307
 13
-1.477936
 23
0.275377
 33
-0.914307
 62
1
  0
3DFACE
  8
Cylinder4
 10
-1.446286
 20
0.275377
 30
-0.867077
 11
-1.716072
 21
0.275377
 31
-0.867077
 12
-1.477936
 22
0.275377
 32
-0.914307
 13
-1.477936
 23
0.275377
 33
-0.914307
 62
1
  0
3DFACE
  8
Cylinder4
 10
-1.435171
 20
0.275377
 30
-0.811366
 11
-1.716072
 21
0.275377
 31
-0.867077
 12
-1.446286
 22
0.275377
 32
-0.867077
 13
-1.446286
 23
0.275377
 33
-0.867077
 62
1
  0
3DFACE
  8
Cylinder4
 10
-1.727187
 20
0.275377
 30
-0.811366
 11
-1.716072
 21
0.275377
 31
-0.867077
 12
-1.435171
 22
0.275377
 32
-0.811366
 13
-1.435171
 23
0.275377
 33
-0.811366
 62
1
  0
3DFACE
  8
Cylinder4
 10
-1.716072
 20
0.275377
 30
-0.755655
 11
-1.727187
 21
0.275377
 31
-0.811366
 12
-1.435171
 22
0.275377
 32
-0.811366
 13
-1.435171
 23
0.275377
 33
-0.811366
 62
1
  0
3DFACE
  8
Cylinder4
 10
-1.446286
 20
0.275377
 30
-0.755655
 11
-1.716072
 21
0.275377
 31
-0.755655
 12
-1.435171
 22
0.275377
 32
-0.811366
 13
-1.435171
 23
0.275377
 33
-0.811366
 62
1
  0
3DFACE
  8
Cylinder4
 10
-1.684422
 20
0.275377
 30
-0.708426
 11
-1.716072
 21
0.275377
 31
-0.755655
 12
-1.446286
 22
0.275377
 32
-0.755655
 13
-1.446286
 23
0.275377
 33
-0.755655
 62
1
  0
3DFACE
  8
Cylinder4
 10
-1.477936
 20
0.275377
 30
-0.708426
 11
-1.684422
 21
0.275377
 31
-0.708426
 12
-1.446286
 22
0.275377
 32
-0.755655
 13
-1.446286
 23
0.275377
 33
-0.755655
 62
1
  0
3DFACE
  8
Cylinder4
 10
-1.637054
 20
0.275377
 30
-0.676869
 11
-1.684422
 21
0.275377
 31
-0.708426
 12
-1.477936
 22
0.275377
 32
-0.708426
 13
-1.477936
 23
0.275377
 33
-0.708426
 62
1
  0
3DFACE
  8
Cylinder4
 10
-1.525304
 20
0.275377
 30
-0.676869
 11
-1.637054
 21
0.275377
 31
-0.676869
 12
-1.477936
 22
0.275377
 32
-0.708426
 13
-1.477936
 23
0.275377
 33
-0.708426
 62
1
  0
3DFACE
  8
Cylinder4
 10
-1.581179
 20
0.275377
 30
-0.665787
 11
-1.637054
 21
0.275377
 31
-0.676869
 12
-1.525304
 22
0.275377
 32
-0.676869
 13
-1.525304
 23
0.275377
 33
-0.676869
 62
1
  0
3DFACE
  8
Cylinder4
 10
-1.716074
 20
1.258352
 30
-0.867077
 11
-1.684423
 21
1.258352
 31
-0.914306
 12
-1.684422
 22
0.275377
 32
-0.914307
 13
-1.716072
 23
0.275377
 33
-0.867077
 62
1
  0
3DFACE
  8
Cylinder4
 10
-1.727188
 20
1.258352
 30
-0.811366
 11
-1.716074
 21
1.258352
 31
-0.867077
 12
-1.716072
 22
0.275377
 32
-0.867077
 13
-1.727187
 23
0.275377
 33
-0.811366
 62
1
  0
3DFACE
  8
Cylinder4
 10
-1.684423
 20
1.258352
 30
-0.914306
 11
-1.637054
 21
1.258352
 31
-0.945864
 12
-1.637054
 22
0.275377
 32
-0.945864
 13
-1.684422
 23
0.275377
 33
-0.914307
 62
1
  0
3DFACE
  8
Cylinder4
 10
-1.637054
 20
1.258352
 30
-0.945864
 11
-1.581179
 21
1.258352
 31
-0.956946
 12
-1.581179
 22
0.275377
 32
-0.956945
 13
-1.637054
 23
0.275377
 33
-0.945864
 62
1
  0
3DFACE
  8
Cylinder4
 10
-1.581179
 20
1.258352
 30
-0.956946
 11
-1.525304
 21
1.258352
 31
-0.945864
 12
-1.525304
 22
0.275377
 32
-0.945864
 13
-1.581179
 23
0.275377
 33
-0.956945
 62
1
  0
3DFACE
  8
Cylinder4
 10
-1.525304
 20
1.258352
 30
-0.945864
 11
-1.477935
 21
1.258352
 31
-0.914306
 12
-1.477936
 22
0.275377
 32
-0.914307
 13
-1.525304
 23
0.275377
 33
-0.945864
 62
1
  0
3DFACE
  8
Cylinder4
 10
-1.477935
 20
1.258352
 30
-0.914306
 11
-1.446285
 21
1.258352
 31
-0.867077
 12
-1.446286
 22
0.275377
 32
-0.867077
 13
-1.477936
 23
0.275377
 33
-0.914307
 62
1
  0
3DFACE
  8
Cylinder4
 10
-1.446285
 20
1.258352
 30
-0.867077
 11
-1.435170
 21
1.258352
 31
-0.811366
 12
-1.435171
 22
0.275377
 32
-0.811366
 13
-1.446286
 23
0.275377
 33
-0.867077
 62
1
  0
3DFACE
  8
Cube3001
 10
1.312955
 20
-0.751815
 30
-1.099238
 11
1.312974
 21
0.252172
 31
-1.099264
 12
1.313093
 22
-0.215047
 32
0.518582
 13
1.313110
 23
-1.182667
 33
0.518587
 62
0
  0
3DFACE
  8
Cube3001
 10
1.312955
 20
-0.751815
 30
-1.099238
 11
1.838602
 21
-0.751819
 31
-1.098945
 12
1.838655
 22
0.256556
 32
-1.099201
 13
1.312974
 23
0.252172
 33
-1.099264
 62
0
  0
3DFACE
  8
Cube3001
 10
1.931831
 20
-0.053633
 30
-0.036086
 11
1.312974
 21
0.252172
 31
-1.099264
 12
1.838655
 22
0.256556
 32
-1.099201
 13
1.838655
 23
0.256556
 33
-1.099201
 62
0
  0
3DFACE
  8
Cube3001
 10
1.313093
 20
-0.215047
 30
0.518582
 11
1.931831
 21
-0.053633
 31
-0.036086
 12
1.931773
 22
-1.033509
 32
-0.036092
 13
1.313110
 23
-1.182667
 33
0.518587
 62
0
  0
3DFACE
  8
Cube3001
 10
1.838655
 20
0.256556
 30
-1.099201
 11
1.838602
 21
-0.751819
 31
-1.098945
 12
1.931773
 22
-1.033509
 32
-0.036092
 13
1.931831
 23
-0.053633
 33
-0.036086
 62
0
  0
3DFACE
  8
Cube3001
 10
1.312955
 20
-0.751815
 30
-1.099238
 11
1.313110
 21
-1.182667
 31
0.518587
 12
1.931773
 22
-1.033509
 32
-0.036092
 13
1.931773
 23
-1.033509
 33
-0.036092
 62
0
  0
3DFACE
  8
Cube3001
 10
1.312974
 20
0.252172
 30
-1.099264
 11
1.931831
 21
-0.053633
 31
-0.036086
 12
1.313093
 22
-0.215047
 32
0.518582
 13
1.313093
 23
-0.215047
 33
0.518582
 62
0
  0
3DFACE
  8
Cube3001
 10
1.931773
 20
-1.033509
 30
-0.036092
 11
1.838602
 21
-0.751819
 31
-1.098945
 12
1.312955
 22
-0.751815
 32
-1.099238
 13
1.312955
 23
-0.751815
 33
-1.099238
 62
0
  0
3DFACE
  8
Cylinder4001
 10
1.371343
 20
1.258353
 30
-0.898028
 11
1.354054
 21
1.258353
 31
-0.811366
 12
1.354054
 22
0.076096
 32
-0.811366
 13
1.371343
 23
0.076096
 33
-0.898027
 62
0
  0
3DFACE
  8
Cylinder4001
 10
1.420577
 20
1.258353
 30
-0.971495
 11
1.371343
 21
1.258353
 31
-0.898028
 12
1.371343
 22
0.076096
 32
-0.898027
 13
1.420578
 23
0.076096
 33
-0.971495
 62
0
  0
3DFACE
  8
Cylinder4001
 10
1.494262
 20
1.258353
 30
-1.020585
 11
1.420577
 21
1.258353
 31
-0.971495
 12
1.420578
 22
0.076096
 32
-0.971495
 13
1.494262
 23
0.076096
 33
-1.020584
 62
0
  0
3DFACE
  8
Cylinder4001
 10
1.581179
 20
1.258353
 30
-1.037823
 11
1.494262
 21
1.258353
 31
-1.020585
 12
1.494262
 22
0.076096
 32
-1.020584
 13
1.581179
 23
0.076096
 33
-1.037822
 62
0
  0
3DFACE
  8
Cylinder4001
 10
1.668096
 20
1.258353
 30
-1.020585
 11
1.581179
 21
1.258353
 31
-1.037823
 12
1.581179
 22
0.076096
 32
-1.037822
 13
1.668095
 23
0.076096
 33
-1.020584
 62
0
  0
3DFACE
  8
Cylinder4001
 10
1.741780
 20
1.258353
 30
-0.971495
 11
1.668096
 21
1.258353
 31
-1.020585
 12
1.668095
 22
0.076096
 32
-1.020584
 13
1.741780
 23
0.076096
 33
-0.971495
 62
0
  0
3DFACE
  8
Cylinder4001
 10
1.791015
 20
1.258353
 30
-0.898028
 11
1.741780
 21
1.258353
 31
-0.971495
 12
1.741780
 22
0.076096
 32
-0.971495
 13
1.791014
 23
0.076096
 33
-0.898027
 62
0
  0
3DFACE
  8
Cylinder4001
 10
1.808303
 20
1.258353
 30
-0.811366
 11
1.791015
 21
1.258353
 31
-0.898028
 12
1.791014
 22
0.076096
 32
-0.898027
 13
1.808303
 23
0.076096
 33
-0.811366
 62
0
  0
3DFACE
  8
Cylinder4001
 10
1.791015
 20
1.258353
 30
-0.724705
 11
1.808303
 21
1.258353
 31
-0.811366
 12
1.808303
 22
0.076096
 32
-0.811366
 13
1.791014
 23
0.076096
 33
-0.724706
 62
0
  0
3DFACE
  8
Cylinder4001
 10
1.741780
 20
1.258353
 30
-0.651238
 11
1.791015
 21
1.258353
 31
-0.724705
 12
1.791014
 22
0.076096
 32
-0.724706
 13
1.741780
 23
0.076096
 33
-0.651238
 62
0
  0
3DFACE
  8
Cylinder4001
 10
1.668096
 20
1.258353
 30
-0.602148
 11
1.741780
 21
1.258353
 31
-0.651238
 12
1.741780
 22
0.076096
 32
-0.651238
 13
1.668095
 23
0.076096
 33
-0.602149
 62
0
  0
3DFACE
  8
Cylinder4001
 10
1.581179
 20
1.258353
 30
-0.584910
 11
1.668096
 21
1.258353
 31
-0.602148
 12
1.668095
 22
0.076096
 32
-0.602149
 13
1.581179
 23
0.076096
 33
-0.584911
 62
0
  0
3DFACE
  8
Cylinder4001
 10
1.494262
 20
1.258353
 30
-0.602148
 11
1.581179
 21
1.258353
 31
-0.584910
 12
1.581179
 22
0.076096
 32
-0.584911
 13
1.494262
 23
0.076096
 33
-0.602149
 62
0
  0
3DFACE
  8
Cylinder4001
 10
1.420577
 20
1.258353
 30
-0.651238
 11
1.494262
 21
1.258353
 31
-0.602148
 12
1.494262
 22
0.076096
 32
-0.602149
 13
1.420578
 23
0.076096
 33
-0.651238
 62
0
  0
3DFACE
  8
Cylinder4001
 10
1.371343
 20
1.258353
 30
-0.724705
 11
1.420577
 21
1.258353
 31
-0.651238
 12
1.420578
 22
0.076096
 32
-0.651238
 13
1.371343
 23
0.076096
 33
-0.724706
 62
0
  0
3DFACE
  8
Cylinder4001
 10
1.354054
 20
1.258353
 30
-0.811366
 11
1.371343
 21
1.258353
 31
-0.724705
 12
1.371343
 22
0.076096
 32
-0.724706
 13
1.354054
 23
0.076096
 33
-0.811366
 62
0
  0
3DFACE
  8
Cylinder4001
 10
1.494262
 20
0.076096
 30
-1.020584
 11
1.668095
 21
0.076096
 31
-1.020584
 12
1.581179
 22
0.076096
 32
-1.037822
 13
1.581179
 23
0.076096
 33
-1.037822
 62
0
  0
3DFACE
  8
Cylinder4001
 10
1.741780
 20
0.076096
 30
-0.971495
 11
1.668095
 21
0.076096
 31
-1.020584
 12
1.494262
 22
0.076096
 32
-1.020584
 13
1.494262
 23
0.076096
 33
-1.020584
 62
0
  0
3DFACE
  8
Cylinder4001
 10
1.420578
 20
0.076096
 30
-0.971495
 11
1.741780
 21
0.076096
 31
-0.971495
 12
1.494262
 22
0.076096
 32
-1.020584
 13
1.494262
 23
0.076096
 33
-1.020584
 62
0
  0
3DFACE
  8
Cylinder4001
 10
1.791014
 20
0.076096
 30
-0.898027
 11
1.741780
 21
0.076096
 31
-0.971495
 12
1.420578
 22
0.076096
 32
-0.971495
 13
1.420578
 23
0.076096
 33
-0.971495
 62
0
  0
3DFACE
  8
Cylinder4001
 10
1.371343
 20
0.076096
 30
-0.898027
 11
1.791014
 21
0.076096
 31
-0.898027
 12
1.420578
 22
0.076096
 32
-0.971495
 13
1.420578
 23
0.076096
 33
-0.971495
 62
0
  0
3DFACE
  8
Cylinder4001
 10
1.354054
 20
0.076096
 30
-0.811366
 11
1.791014
 21
0.076096
 31
-0.898027
 12
1.371343
 22
0.076096
 32
-0.898027
 13
1.371343
 23
0.076096
 33
-0.898027
 62
0
  0
3DFACE
  8
Cylinder4001
 10
1.808303
 20
0.076096
 30
-0.811366
 11
1.791014
 21
0.076096
 31
-0.898027
 12
1.354054
 22
0.076096
 32
-0.811366
 13
1.354054
 23
0.076096
 33
-0.811366
 62
0
  0
3DFACE
  8
Cylinder4001
 10
1.791014
 20
0.076096
 30
-0.724706
 11
1.808303
 21
0.076096
 31
-0.811366
 12
1.354054
 22
0.076096
 32
-0.811366
 13
1.354054
 23
0.076096
 33
-0.811366
 62
0
  0
3DFACE
  8
Cylinder4001
 10
1.371343
 20
0.076096
 30
-0.724706
 11
1.791014
 21
0.076096
 31
-0.724706
 12
1.354054
 22
0.076096
 32
-0.811366
 13
1.354054
 23
0.076096
 33
-0.811366
 62
0
  0
3DFACE
  8
Cylinder4001
 10
1.741780
 20
0.076096
 30
-0.651238
 11
1.791014
 21
0.076096
 31
-0.724706
 12
1.371343
 22
0.076096
 32
-0.724706
 13
1.371343
 23
0.076096
 33
-0.724706
 62
0
  0
3DFACE
  8
Cylinder4001
 10
1.420578
 20
0.076096
 30
-0.651238
 11
1.741780
 21
0.076096
 31
-0.651238
 12
1.371343
 22
0.076096
 32
-0.724706
 13
1.371343
 23
0.076096
 33
-0.724706
 62
0
  0
3DFACE
  8
Cylinder4001
 10
1.668095
 20
0.076096
 30
-0.602149
 11
1.741780
 21
0.076096
 31
-0.651238
 12
1.420578
 22
0.076096
 32
-0.651238
 13
1.420578
 23
0.076096
 33
-0.651238
 62
0
  0
3DFACE
  8
Cylinder4001
 10
1.494262
 20
0.076096
 30
-0.602149
 11
1.668095
 21
0.076096
 31
-0.602149
 12
1.420578
 22
0.076096
 32
-0.651238
 13
1.420578
 23
0.076096
 33
-0.651238
 62
0
  0
3DFACE
  8
Cylinder4001
 10
1.581179
 20
0.076096
 30
-0.584911
 11
1.668095
 21
0.076096
 31
-0.602149
 12
1.494262
 22
0.076096
 32
-0.602149
 13
1.494262
 23
0.076096
 33
-0.602149
 62
0
  0
3DFACE
  8
Cylinder4001
 10
1.525304
 20
1.258353
 30
-0.945864
 11
1.420577
 21
1.258353
 31
-0.971495
 12
1.581179
 22
1.258353
 32
-0.956946
 13
1.581179
 23
1.258353
 33
-0.956946
 62
0
  0
3DFACE
  8
Cylinder4001
 10
1.477935
 20
1.258353
 30
-0.914306
 11
1.420577
 21
1.258353
 31
-0.971495
 12
1.525304
 22
1.258353
 32
-0.945864
 13
1.525304
 23
1.258353
 33
-0.945864
 62
0
  0
3DFACE
  8
Cylinder4001
 10
1.371343
 20
1.258353
 30
-0.898028
 11
1.420577
 21
1.258353
 31
-0.971495
 12
1.477935
 22
1.258353
 32
-0.914306
 13
1.477935
 23
1.258353
 33
-0.914306
 62
0
  0
3DFACE
  8
Cylinder4001
 10
1.446284
 20
1.258353
 30
-0.867077
 11
1.371343
 21
1.258353
 31
-0.898028
 12
1.477935
 22
1.258353
 32
-0.914306
 13
1.477935
 23
1.258353
 33
-0.914306
 62
0
  0
3DFACE
  8
Cylinder4001
 10
1.354054
 20
1.258353
 30
-0.811366
 11
1.371343
 21
1.258353
 31
-0.898028
 12
1.446284
 22
1.258353
 32
-0.867077
 13
1.446284
 23
1.258353
 33
-0.867077
 62
0
  0
3DFACE
  8
Cylinder4001
 10
1.435170
 20
1.258353
 30
-0.811366
 11
1.354054
 21
1.258353
 31
-0.811366
 12
1.446284
 22
1.258353
 32
-0.867077
 13
1.446284
 23
1.258353
 33
-0.867077
 62
0
  0
3DFACE
  8
Cylinder4001
 10
1.446284
 20
1.258353
 30
-0.755656
 11
1.354054
 21
1.258353
 31
-0.811366
 12
1.435170
 22
1.258353
 32
-0.811366
 13
1.435170
 23
1.258353
 33
-0.811366
 62
0
  0
3DFACE
  8
Cylinder4001
 10
1.371343
 20
1.258353
 30
-0.724705
 11
1.354054
 21
1.258353
 31
-0.811366
 12
1.446284
 22
1.258353
 32
-0.755656
 13
1.446284
 23
1.258353
 33
-0.755656
 62
0
  0
3DFACE
  8
Cylinder4001
 10
1.477935
 20
1.258353
 30
-0.708427
 11
1.371343
 21
1.258353
 31
-0.724705
 12
1.446284
 22
1.258353
 32
-0.755656
 13
1.446284
 23
1.258353
 33
-0.755656
 62
0
  0
3DFACE
  8
Cylinder4001
 10
1.525304
 20
1.258353
 30
-0.676869
 11
1.371343
 21
1.258353
 31
-0.724705
 12
1.477935
 22
1.258353
 32
-0.708427
 13
1.477935
 23
1.258353
 33
-0.708427
 62
0
  0
3DFACE
  8
Cylinder4001
 10
1.420577
 20
1.258353
 30
-0.651238
 11
1.371343
 21
1.258353
 31
-0.724705
 12
1.525304
 22
1.258353
 32
-0.676869
 13
1.525304
 23
1.258353
 33
-0.676869
 62
0
  0
3DFACE
  8
Cylinder4001
 10
1.420577
 20
1.258353
 30
-0.651238
 11
1.525304
 21
1.258353
 31
-0.676869
 12
1.581179
 22
1.258353
 32
-0.665787
 13
1.581179
 23
1.258353
 33
-0.665787
 62
0
  0
3DFACE
  8
Cylinder4001
 10
1.741780
 20
1.258353
 30
-0.651238
 11
1.420577
 21
1.258353
 31
-0.651238
 12
1.581179
 22
1.258353
 32
-0.665787
 13
1.581179
 23
1.258353
 33
-0.665787
 62
0
  0
3DFACE
  8
Cylinder4001
 10
1.494262
 20
1.258353
 30
-0.602148
 11
1.420577
 21
1.258353
 31
-0.651238
 12
1.741780
 22
1.258353
 32
-0.651238
 13
1.741780
 23
1.258353
 33
-0.651238
 62
0
  0
3DFACE
  8
Cylinder4001
 10
1.668096
 20
1.258353
 30
-0.602148
 11
1.494262
 21
1.258353
 31
-0.602148
 12
1.741780
 22
1.258353
 32
-0.651238
 13
1.741780
 23
1.258353
 33
-0.651238
 62
0
  0
3DFACE
  8
Cylinder4001
 10
1.581179
 20
1.258353
 30
-0.584910
 11
1.494262
 21
1.258353
 31
-0.602148
 12
1.668096
 22
1.258353
 32
-0.602148
 13
1.668096
 23
1.258353
 33
-0.602148
 62
0
  0
3DFACE
  8
Cylinder4001
 10
1.668096
 20
1.258353
 30
-1.020585
 11
1.494262
 21
1.258353
 31
-1.020585
 12
1.581179
 22
1.258353
 32
-1.037823
 13
1.581179
 23
1.258353
 33
-1.037823
 62
0
  0
3DFACE
  8
Cylinder4001
 10
1.420577
 20
1.258353
 30
-0.971495
 11
1.494262
 21
1.258353
 31
-1.020585
 12
1.668096
 22
1.258353
 32
-1.020585
 13
1.668096
 23
1.258353
 33
-1.020585
 62
0
  0
3DFACE
  8
Cylinder4001
 10
1.741780
 20
1.258353
 30
-0.971495
 11
1.420577
 21
1.258353
 31
-0.971495
 12
1.668096
 22
1.258353
 32
-1.020585
 13
1.668096
 23
1.258353
 33
-1.020585
 62
0
  0
3DFACE
  8
Cylinder4001
 10
1.581179
 20
1.258353
 30
-0.956946
 11
1.420577
 21
1.258353
 31
-0.971495
 12
1.741780
 22
1.258353
 32
-0.971495
 13
1.741780
 23
1.258353
 33
-0.971495
 62
0
  0
3DFACE
  8
Cylinder4001
 10
1.637054
 20
1.258353
 30
-0.945864
 11
1.581179
 21
1.258353
 31
-0.956946
 12
1.741780
 22
1.258353
 32
-0.971495
 13
1.741780
 23
1.258353
 33
-0.971495
 62
0
  0
3DFACE
  8
Cylinder4001
 10
1.684422
 20
1.258353
 30
-0.914306
 11
1.637054
 21
1.258353
 31
-0.945864
 12
1.741780
 22
1.258353
 32
-0.971495
 13
1.741780
 23
1.258353
 33
-0.971495
 62
0
  0
3DFACE
  8
Cylinder4001
 10
1.791015
 20
1.258353
 30
-0.898028
 11
1.684422
 21
1.258353
 31
-0.914306
 12
1.741780
 22
1.258353
 32
-0.971495
 13
1.741780
 23
1.258353
 33
-0.971495
 62
0
  0
3DFACE
  8
Cylinder4001
 10
1.716073
 20
1.258353
 30
-0.867077
 11
1.684422
 21
1.258353
 31
-0.914306
 12
1.791015
 22
1.258353
 32
-0.898028
 13
1.791015
 23
1.258353
 33
-0.898028
 62
0
  0
3DFACE
  8
Cylinder4001
 10
1.727187
 20
1.258353
 30
-0.811366
 11
1.716073
 21
1.258353
 31
-0.867077
 12
1.791015
 22
1.258353
 32
-0.898028
 13
1.791015
 23
1.258353
 33
-0.898028
 62
0
  0
3DFACE
  8
Cylinder4001
 10
1.808303
 20
1.258353
 30
-0.811366
 11
1.727187
 21
1.258353
 31
-0.811366
 12
1.791015
 22
1.258353
 32
-0.898028
 13
1.791015
 23
1.258353
 33
-0.898028
 62
0
  0
3DFACE
  8
Cylinder4001
 10
1.716073
 20
1.258353
 30
-0.755656
 11
1.727187
 21
1.258353
 31
-0.811366
 12
1.808303
 22
1.258353
 32
-0.811366
 13
1.808303
 23
1.258353
 33
-0.811366
 62
0
  0
3DFACE
  8
Cylinder4001
 10
1.791015
 20
1.258353
 30
-0.724705
 11
1.716073
 21
1.258353
 31
-0.755656
 12
1.808303
 22
1.258353
 32
-0.811366
 13
1.808303
 23
1.258353
 33
-0.811366
 62
0
  0
3DFACE
  8
Cylinder4001
 10
1.684422
 20
1.258353
 30
-0.708427
 11
1.716073
 21
1.258353
 31
-0.755656
 12
1.791015
 22
1.258353
 32
-0.724705
 13
1.791015
 23
1.258353
 33
-0.724705
 62
0
  0
3DFACE
  8
Cylinder4001
 10
1.637054
 20
1.258353
 30
-0.676869
 11
1.684422
 21
1.258353
 31
-0.708427
 12
1.791015
 22
1.258353
 32
-0.724705
 13
1.791015
 23
1.258353
 33
-0.724705
 62
0
  0
3DFACE
  8
Cylinder4001
 10
1.741780
 20
1.258353
 30
-0.651238
 11
1.637054
 21
1.258353
 31
-0.676869
 12
1.791015
 22
1.258353
 32
-0.724705
 13
1.791015
 23
1.258353
 33
-0.724705
 62
0
  0
3DFACE
  8
Cylinder4001
 10
1.741780
 20
1.258353
 30
-0.651238
 11
1.581179
 21
1.258353
 31
-0.665787
 12
1.637054
 22
1.258353
 32
-0.676869
 13
1.637054
 23
1.258353
 33
-0.676869
 62
0
  0
3DFACE
  8
Cylinder4001
 10
1.716072
 20
0.275378
 30
-0.755655
 11
1.727186
 21
0.275378
 31
-0.811366
 12
1.727187
 22
1.258353
 32
-0.811366
 13
1.716073
 23
1.258353
 33
-0.755656
 62
1
  0
3DFACE
  8
Cylinder4001
 10
1.684422
 20
0.275378
 30
-0.708426
 11
1.716072
 21
0.275378
 31
-0.755655
 12
1.716073
 22
1.258353
 32
-0.755656
 13
1.684422
 23
1.258353
 33
-0.708427
 62
1
  0
3DFACE
  8
Cylinder4001
 10
1.637053
 20
0.275378
 30
-0.676869
 11
1.684422
 21
0.275378
 31
-0.708426
 12
1.684422
 22
1.258353
 32
-0.708427
 13
1.637054
 23
1.258353
 33
-0.676869
 62
1
  0
3DFACE
  8
Cylinder4001
 10
1.581179
 20
0.275378
 30
-0.665787
 11
1.637053
 21
0.275378
 31
-0.676869
 12
1.637054
 22
1.258353
 32
-0.676869
 13
1.581179
 23
1.258353
 33
-0.665787
 62
1
  0
3DFACE
  8
Cylinder4001
 10
1.525304
 20
0.275378
 30
-0.676869
 11
1.581179
 21
0.275378
 31
-0.665787
 12
1.581179
 22
1.258353
 32
-0.665787
 13
1.525304
 23
1.258353
 33
-0.676869
 62
1
  0
3DFACE
  8
Cylinder4001
 10
1.477936
 20
0.275378
 30
-0.708426
 11
1.525304
 21
0.275378
 31
-0.676869
 12
1.525304
 22
1.258353
 32
-0.676869
 13
1.477935
 23
1.258353
 33
-0.708427
 62
1
  0
3DFACE
  8
Cylinder4001
 10
1.446285
 20
0.275378
 30
-0.755655
 11
1.477936
 21
0.275378
 31
-0.708426
 12
1.477935
 22
1.258353
 32
-0.708427
 13
1.446284
 23
1.258353
 33
-0.755656
 62
1
  0
3DFACE
  8
Cylinder4001
 10
1.435171
 20
0.275378
 30
-0.811366
 11
1.446285
 21
0.275378
 31
-0.755655
 12
1.446284
 22
1.258353
 32
-0.755656
 13
1.435170
 23
1.258353
 33
-0.811366
 62
1
  0
3DFACE
  8
Cylinder4001
 10
1.637053
 20
0.275378
 30
-0.945864
 11
1.525304
 21
0.275378
 31
-0.945864
 12
1.581179
 22
0.275378
 32
-0.956945
 13
1.581179
 23
0.275378
 33
-0.956945
 62
1
  0
3DFACE
  8
Cylinder4001
 10
1.477936
 20
0.275378
 30
-0.914307
 11
1.525304
 21
0.275378
 31
-0.945864
 12
1.637053
 22
0.275378
 32
-0.945864
 13
1.637053
 23
0.275378
 33
-0.945864
 62
1
  0
3DFACE
  8
Cylinder4001
 10
1.684422
 20
0.275378
 30
-0.914307
 11
1.477936
 21
0.275378
 31
-0.914307
 12
1.637053
 22
0.275378
 32
-0.945864
 13
1.637053
 23
0.275378
 33
-0.945864
 62
1
  0
3DFACE
  8
Cylinder4001
 10
1.446285
 20
0.275378
 30
-0.867077
 11
1.477936
 21
0.275378
 31
-0.914307
 12
1.684422
 22
0.275378
 32
-0.914307
 13
1.684422
 23
0.275378
 33
-0.914307
 62
1
  0
3DFACE
  8
Cylinder4001
 10
1.716072
 20
0.275378
 30
-0.867077
 11
1.446285
 21
0.275378
 31
-0.867077
 12
1.684422
 22
0.275378
 32
-0.914307
 13
1.684422
 23
0.275378
 33
-0.914307
 62
1
  0
3DFACE
  8
Cylinder4001
 10
1.435171
 20
0.275378
 30
-0.811366
 11
1.446285
 21
0.275378
 31
-0.867077
 12
1.716072
 22
0.275378
 32
-0.867077
 13
1.716072
 23
0.275378
 33
-0.867077
 62
1
  0
3DFACE
  8
Cylinder4001
 10
1.727186
 20
0.275378
 30
-0.811366
 11
1.435171
 21
0.275378
 31
-0.811366
 12
1.716072
 22
0.275378
 32
-0.867077
 13
1.716072
 23
0.275378
 33
-0.867077
 62
1
  0
3DFACE
  8
Cylinder4001
 10
1.446285
 20
0.275378
 30
-0.755655
 11
1.435171
 21
0.275378
 31
-0.811366
 12
1.727186
 22
0.275378
 32
-0.811366
 13
1.727186
 23
0.275378
 33
-0.811366
 62
1
  0
3DFACE
  8
Cylinder4001
 10
1.716072
 20
0.275378
 30
-0.755655
 11
1.446285
 21
0.275378
 31
-0.755655
 12
1.727186
 22
0.275378
 32
-0.811366
 13
1.727186
 23
0.275378
 33
-0.811366
 62
1
  0
3DFACE
  8
Cylinder4001
 10
1.477936
 20
0.275378
 30
-0.708426
 11
1.446285
 21
0.275378
 31
-0.755655
 12
1.716072
 22
0.275378
 32
-0.755655
 13
1.716072
 23
0.275378
 33
-0.755655
 62
1
  0
3DFACE
  8
Cylinder4001
 10
1.684422
 20
0.275378
 30
-0.708426
 11
1.477936
 21
0.275378
 31
-0.708426
 12
1.716072
 22
0.275378
 32
-0.755655
 13
1.716072
 23
0.275378
 33
-0.755655
 62
1
  0
3DFACE
  8
Cylinder4001
 10
1.525304
 20
0.275378
 30
-0.676869
 11
1.477936
 21
0.275378
 31
-0.708426
 12
1.684422
 22
0.275378
 32
-0.708426
 13
1.684422
 23
0.275378
 33
-0.708426
 62
1
  0
3DFACE
  8
Cylinder4001
 10
1.637053
 20
0.275378
 30
-0.676869
 11
1.525304
 21
0.275378
 31
-0.676869
 12
1.684422
 22
0.275378
 32
-0.708426
 13
1.684422
 23
0.275378
 33
-0.708426
 62
1
  0
3DFACE
  8
Cylinder4001
 10
1.581179
 20
0.275378
 30
-0.665787
 11
1.525304
 21
0.275378
 31
-0.676869
 12
1.637053
 22
0.275378
 32
-0.676869
 13
1.637053
 23
0.275378
 33
-0.676869
 62
1
  0
3DFACE
  8
Cylinder4001
 10
1.716072
 20
0.275378
 30
-0.867077
 11
1.684422
 21
0.275378
 31
-0.914307
 12
1.684422
 22
1.258353
 32
-0.914306
 13
1.716073
 23
1.258353
 33
-0.867077
 62
1
  0
3DFACE
  8
Cylinder4001
 10
1.727186
 20
0.275378
 30
-0.811366
 11
1.716072
 21
0.275378
 31
-0.867077
 12
1.716073
 22
1.258353
 32
-0.867077
 13
1.727187
 23
1.258353
 33
-0.811366
 62
1
  0
3DFACE
  8
Cylinder4001
 10
1.684422
 20
0.275378
 30
-0.914307
 11
1.637053
 21
0.275378
 31
-0.945864
 12
1.637054
 22
1.258353
 32
-0.945864
 13
1.684422
 23
1.258353
 33
-0.914306
 62
1
  0
3DFACE
  8
Cylinder4001
 10
1.637053
 20
0.275378
 30
-0.945864
 11
1.581179
 21
0.275378
 31
-0.956945
 12
1.581179
 22
1.258353
 32
-0.956946
 13
1.637054
 23
1.258353
 33
-0.945864
 62
1
  0
3DFACE
  8
Cylinder4001
 10
1.581179
 20
0.275378
 30
-0.956945
 11
1.525304
 21
0.275378
 31
-0.945864
 12
1.525304
 22
1.258353
 32
-0.945864
 13
1.581179
 23
1.258353
 33
-0.956946
 62
1
  0
3DFACE
  8
Cylinder4001
 10
1.525304
 20
0.275378
 30
-0.945864
 11
1.477936
 21
0.275378
 31
-0.914307
 12
1.477935
 22
1.258353
 32
-0.914306
 13
1.525304
 23
1.258353
 33
-0.945864
 62
1
  0
3DFACE
  8
Cylinder4001
 10
1.477936
 20
0.275378
 30
-0.914307
 11
1.446285
 21
0.275378
 31
-0.867077
 12
1.446284
 22
1.258353
 32
-0.867077
 13
1.477935
 23
1.258353
 33
-0.914306
 62
1
  0
3DFACE
  8
Cylinder4001
 10
1.446285
 20
0.275378
 30
-0.867077
 11
1.435171
 21
0.275378
 31
-0.811366
 12
1.435170
 22
1.258353
 32
-0.811366
 13
1.446284
 23
1.258353
 33
-0.867077
 62
1
  0
3DFACE
  8
Cube
 10
-0.610931
 20
-0.686107
 30
-0.439579
 11
0.611205
 21
-0.686107
 31
-0.439579
 12
0.611205
 22
-0.686107
 32
0.110781
 13
-0.610931
 23
-0.686107
 33
0.110781
 62
0
  0
3DFACE
  8
Cube
 10
0.470108
 20
-1.208159
 30
-0.439582
 11
0.611205
 21
-0.686107
 31
-0.439579
 12
-0.610931
 22
-0.686107
 32
-0.439579
 13
-0.469834
 23
-1.208159
 33
-0.439582
 62
2
  0
3DFACE
  8
Cube
 10
-0.469834
 20
-1.208159
 30
-0.439582
 11
-0.610931
 21
-0.686107
 31
-0.439579
 12
-0.610931
 22
-0.686107
 32
0.110781
 13
-0.469834
 23
-1.208159
 33
0.110783
 62
2
  0
3DFACE
  8
Cube
 10
-0.469834
 20
-1.208159
 30
0.110783
 11
-0.610931
 21
-0.686107
 31
0.110781
 12
0.611205
 22
-0.686107
 32
0.110781
 13
0.470108
 23
-1.208159
 33
0.110783
 62
2
  0
3DFACE
  8
Cube
 10
0.470108
 20
-1.208159
 30
-0.439582
 11
-0.469834
 21
-1.208159
 31
-0.439582
 12
-0.469834
 22
-1.208159
 32
0.110783
 13
0.470108
 23
-1.208159
 33
0.110783
 62
1
  0
3DFACE
  8
Cube
 10
0.611205
 20
-0.686107
 30
-0.439579
 11
0.470108
 21
-1.208159
 31
-0.439582
 12
0.470108
 22
-1.208159
 32
0.110783
 13
0.611205
 23
-0.686107
 33
0.110781
 62
2
  0
3DFACE
  8
Cylinder2
 10
0.000185
 20
0.166206
 30
1.255034
 11
0.000185
 21
0.110565
 31
1.463629
 12
-0.453156
 22
-0.181342
 32
1.463648
 13
-0.531287
 23
-0.159516
 33
1.255022
 62
0
  0
3DFACE
  8
Cylinder2
 10
0.358394
 20
-0.775962
 30
1.254724
 11
0.531530
 21
-0.159586
 31
1.255031
 12
0.374072
 22
-0.201072
 32
1.177068
 13
0.233644
 23
-0.804300
 33
1.177492
 62
0
  0
3DFACE
  8
Cylinder2
 10
0.531530
 20
-0.159586
 30
1.255031
 11
0.453869
 21
-0.181625
 31
1.463592
 12
0.000185
 22
0.110565
 32
1.463629
 13
0.000185
 23
0.166206
 33
1.255034
 62
0
  0
3DFACE
  8
Cylinder2
 10
0.000137
 20
0.368061
 30
0.518596
 11
-0.735747
 21
-0.104841
 31
0.518595
 12
-0.454065
 22
-1.041661
 32
0.518596
 13
-0.454065
 23
-1.041661
 33
0.518596
 62
0
  0
3DFACE
  8
Cylinder2
 10
0.454434
 20
-1.041661
 30
0.518594
 11
0.000137
 21
0.368061
 31
0.518596
 12
-0.454065
 22
-1.041661
 32
0.518596
 13
-0.454065
 23
-1.041661
 33
0.518596
 62
0
  0
3DFACE
  8
Cylinder2
 10
0.736207
 20
-0.104841
 30
0.518594
 11
0.000137
 21
0.368061
 31
0.518596
 12
0.454434
 22
-1.041661
 32
0.518594
 13
0.454434
 23
-1.041661
 33
0.518594
 62
0
  0
3DFACE
  8
Cylinder2
 10
-0.735747
 20
-0.104841
 30
0.518595
 11
0.000137
 21
0.368061
 31
0.518596
 12
0.000185
 22
0.310391
 32
0.732371
 13
-0.677556
 23
-0.122229
 33
0.732371
 62
0
  0
3DFACE
  8
Cylinder2
 10
0.270472
 20
-0.935258
 30
0.813125
 11
0.455743
 21
-0.181500
 31
0.812949
 12
0.677601
 22
-0.122629
 32
0.731980
 13
0.426405
 23
-0.964785
 33
0.731976
 62
0
  0
3DFACE
  8
Cylinder2
 10
0.000137
 20
0.368061
 30
0.518596
 11
0.736207
 21
-0.104841
 31
0.518594
 12
0.677601
 22
-0.122629
 32
0.731980
 13
0.000185
 23
0.310391
 33
0.732371
 62
0
  0
3DFACE
  8
Cylinder2
 10
0.233644
 20
-0.804300
 30
1.177492
 11
0.374072
 21
-0.201072
 31
1.177068
 12
0.455743
 22
-0.181500
 32
0.812949
 13
0.270472
 23
-0.935258
 33
0.813125
 62
0
  0
3DFACE
  8
Cylinder2
 10
-0.374117
 20
-0.201349
 30
1.177131
 11
0.000174
 21
0.042970
 31
1.177129
 12
0.000185
 22
0.166206
 32
1.255034
 13
-0.531287
 23
-0.159516
 33
1.255022
 62
0
  0
3DFACE
  8
Cylinder2
 10
0.000174
 20
0.042970
 30
1.177129
 11
0.374072
 21
-0.201072
 31
1.177068
 12
0.531530
 22
-0.159586
 32
1.255031
 13
0.000185
 23
0.166206
 33
1.255034
 62
0
  0
3DFACE
  8
Cylinder2
 10
0.426405
 20
-0.964785
 30
0.731976
 11
0.677601
 21
-0.122629
 31
0.731980
 12
0.736207
 22
-0.104841
 32
0.518594
 13
0.454434
 23
-1.041661
 33
0.518594
 62
0
  0
3DFACE
  8
Cylinder2
 10
-0.374117
 20
-0.201349
 30
1.177131
 11
-0.454973
 21
-0.181342
 31
0.812989
 12
0.000185
 22
0.117995
 32
0.812992
 13
0.000174
 23
0.042970
 33
1.177129
 62
0
  0
3DFACE
  8
Cylinder2
 10
0.000174
 20
0.042970
 30
1.177129
 11
0.000185
 21
0.117995
 31
0.812992
 12
0.455743
 22
-0.181500
 32
0.812949
 13
0.374072
 23
-0.201072
 33
1.177068
 62
0
  0
3DFACE
  8
Cylinder2
 10
0.000185
 20
0.117995
 30
0.812992
 11
-0.454973
 21
-0.181342
 31
0.812989
 12
-0.677556
 22
-0.122229
 32
0.732371
 13
0.000185
 23
0.310391
 33
0.732371
 62
0
  0
3DFACE
  8
Cylinder2
 10
0.455743
 20
-0.181500
 30
0.812949
 11
0.000185
 21
0.117995
 31
0.812992
 12
0.000185
 22
0.310391
 32
0.732371
 13
0.677601
 23
-0.122629
 33
0.731980
 62
0
  0
3DFACE
  8
Cylinder2
 10
0.328153
 20
-0.701535
 30
1.463639
 11
0.453869
 21
-0.181625
 31
1.463592
 12
0.531530
 22
-0.159586
 32
1.255031
 13
0.358394
 23
-0.775962
 33
1.254724
 62
0
  0
3DFACE
  8
Cylinder2
 10
0.000185
 20
0.110565
 30
1.463629
 11
-0.327784
 21
-0.701535
 31
1.463648
 12
-0.453156
 22
-0.181342
 32
1.463648
 13
-0.453156
 23
-0.181342
 33
1.463648
 62
0
  0
3DFACE
  8
Cylinder2
 10
0.328153
 20
-0.701535
 30
1.463639
 11
-0.327784
 21
-0.701535
 31
1.463648
 12
0.000185
 22
0.110565
 32
1.463629
 13
0.000185
 23
0.110565
 33
1.463629
 62
0
  0
3DFACE
  8
Cylinder2
 10
0.453869
 20
-0.181625
 30
1.463592
 11
0.328153
 21
-0.701535
 31
1.463639
 12
0.000185
 22
0.110565
 32
1.463629
 13
0.000185
 23
0.110565
 33
1.463629
 62
0
  0
3DFACE
  8
Cylinder2
 10
-0.357764
 20
-0.776109
 30
1.255025
 11
-0.531287
 21
-0.159516
 31
1.255022
 12
-0.453156
 22
-0.181342
 32
1.463648
 13
-0.327784
 23
-0.701535
 33
1.463648
 62
0
  0
3DFACE
  8
Cylinder2
 10
-0.233442
 20
-0.803928
 30
1.177487
 11
-0.374117
 21
-0.201349
 31
1.177131
 12
-0.531287
 22
-0.159516
 32
1.255022
 13
-0.357764
 23
-0.776109
 33
1.255025
 62
0
  0
3DFACE
  8
Cylinder2
 10
-0.270548
 20
-0.935359
 30
0.813133
 11
-0.454973
 21
-0.181342
 31
0.812989
 12
-0.374117
 22
-0.201349
 32
1.177131
 13
-0.233442
 23
-0.803928
 33
1.177487
 62
0
  0
3DFACE
  8
Cylinder2
 10
-0.425901
 20
-0.964360
 30
0.732371
 11
-0.677556
 21
-0.122229
 31
0.732371
 12
-0.454973
 22
-0.181342
 32
0.812989
 13
-0.270548
 23
-0.935359
 33
0.813133
 62
0
  0
3DFACE
  8
Cylinder2
 10
-0.454065
 20
-1.041661
 30
0.518596
 11
-0.735747
 21
-0.104841
 31
0.518595
 12
-0.677556
 22
-0.122229
 32
0.732371
 13
-0.425901
 23
-0.964360
 33
0.732371
 62
0
  0
3DFACE
  8
Cylinder2
 10
-0.357764
 20
-0.776109
 30
1.255025
 11
-0.327784
 21
-0.701535
 31
1.463648
 12
0.328153
 22
-0.701535
 32
1.463639
 13
0.328153
 23
-0.701535
 33
1.463639
 62
0
  0
3DFACE
  8
Cylinder2
 10
0.358394
 20
-0.775962
 30
1.254724
 11
-0.357764
 21
-0.776109
 31
1.255025
 12
0.328153
 22
-0.701535
 32
1.463639
 13
0.328153
 23
-0.701535
 33
1.463639
 62
0
  0
3DFACE
  8
Cylinder2
 10
0.233644
 20
-0.804300
 30
1.177492
 11
-0.357764
 21
-0.776109
 31
1.255025
 12
0.358394
 22
-0.775962
 32
1.254724
 13
0.358394
 23
-0.775962
 33
1.254724
 62
0
  0
3DFACE
  8
Cylinder2
 10
-0.233442
 20
-0.803928
 30
1.177487
 11
-0.357764
 21
-0.776109
 31
1.255025
 12
0.233644
 22
-0.804300
 32
1.177492
 13
0.233644
 23
-0.804300
 33
1.177492
 62
0
  0
3DFACE
  8
Cylinder2
 10
-0.270548
 20
-0.935359
 30
0.813133
 11
-0.233442
 21
-0.803928
 31
1.177487
 12
0.233644
 22
-0.804300
 32
1.177492
 13
0.233644
 23
-0.804300
 33
1.177492
 62
0
  0
3DFACE
  8
Cylinder2
 10
0.270472
 20
-0.935258
 30
0.813125
 11
-0.270548
 21
-0.935359
 31
0.813133
 12
0.233644
 22
-0.804300
 32
1.177492
 13
0.233644
 23
-0.804300
 33
1.177492
 62
0
  0
3DFACE
  8
Cylinder2
 10
-0.425901
 20
-0.964360
 30
0.732371
 11
-0.270548
 21
-0.935359
 31
0.813133
 12
0.270472
 22
-0.935258
 32
0.813125
 13
0.270472
 23
-0.935258
 33
0.813125
 62
0
  0
3DFACE
  8
Cylinder2
 10
0.426405
 20
-0.964785
 30
0.731976
 11
-0.425901
 21
-0.964360
 31
0.732371
 12
0.270472
 22
-0.935258
 32
0.813125
 13
0.270472
 23
-0.935258
 33
0.813125
 62
0
  0
3DFACE
  8
Cylinder2
 10
-0.454065
 20
-1.041661
 30
0.518596
 11
-0.425901
 21
-0.964360
 31
0.732371
 12
0.426405
 22
-0.964785
 32
0.731976
 13
0.426405
 23
-0.964785
 33
0.731976
 62
0
  0
3DFACE
  8
Cylinder2
 10
0.454434
 20
-1.041661
 30
0.518594
 11
-0.454065
 21
-1.041661
 31
0.518596
 12
0.426405
 22
-0.964785
 32
0.731976
 13
0.426405
 23
-0.964785
 33
0.731976
 62
0
  0
3DFACE
  8
Cylinder1
 10
-0.454959
 20
-0.181497
 30
1.270455
 11
-0.636687
 21
-0.133897
 31
0.731863
 12
-0.000104
 22
0.258987
 32
0.731878
 13
0.000091
 23
0.111358
 33
1.270426
 62
2
  0
3DFACE
  8
Cylinder1
 10
-0.317765
 20
-0.743039
 30
1.270449
 11
-0.404097
 21
-0.930710
 31
0.731879
 12
-0.636687
 22
-0.133897
 32
0.731863
 13
-0.454959
 23
-0.181497
 33
1.270455
 62
2
  0
3DFACE
  8
Cylinder1
 10
0.318179
 20
-0.743039
 30
1.270439
 11
0.404326
 21
-0.930711
 31
0.731877
 12
-0.404097
 22
-0.930710
 32
0.731879
 13
-0.317765
 23
-0.743039
 33
1.270449
 62
1
  0
3DFACE
  8
Cylinder1
 10
0.455444
 20
-0.181150
 30
1.270373
 11
0.637123
 21
-0.133550
 31
0.731852
 12
0.404326
 22
-0.930711
 32
0.731877
 13
0.318179
 23
-0.743039
 33
1.270439
 62
2
  0
3DFACE
  8
Cylinder1
 10
0.000091
 20
0.111358
 30
1.270426
 11
-0.000104
 21
0.258987
 31
0.731878
 12
0.637123
 22
-0.133550
 32
0.731852
 13
0.455444
 23
-0.181150
 33
1.270373
 62
2
  0
3DFACE
  8
Cylinder1
 10
0.000091
 20
0.111358
 30
1.270426
 11
-0.317765
 21
-0.743039
 31
1.270449
 12
-0.454959
 22
-0.181497
 32
1.270455
 13
-0.454959
 23
-0.181497
 33
1.270455
 62
0
  0
3DFACE
  8
Cylinder1
 10
0.318179
 20
-0.743039
 30
1.270439
 11
-0.317765
 21
-0.743039
 31
1.270449
 12
0.000091
 22
0.111358
 32
1.270426
 13
0.000091
 23
0.111358
 33
1.270426
 62
0
  0
3DFACE
  8
Cylinder1
 10
0.455444
 20
-0.181150
 30
1.270373
 11
0.318179
 21
-0.743039
 31
1.270439
 12
0.000091
 22
0.111358
 32
1.270426
 13
0.000091
 23
0.111358
 33
1.270426
 62
0
  0
3DFACE
  8
Cylinder1
 10
-0.000104
 20
0.258987
 30
0.731878
 11
-0.636687
 21
-0.133897
 31
0.731863
 12
-0.404097
 22
-0.930710
 32
0.731879
 13
-0.404097
 23
-0.930710
 33
0.731879
 62
0
  0
3DFACE
  8
Cylinder1
 10
0.404326
 20
-0.930711
 30
0.731877
 11
-0.000104
 21
0.258987
 31
0.731878
 12
-0.404097
 22
-0.930710
 32
0.731879
 13
-0.404097
 23
-0.930710
 33
0.731879
 62
0
  0
3DFACE
  8
Cylinder1
 10
0.637123
 20
-0.133550
 30
0.731852
 11
-0.000104
 21
0.258987
 31
0.731878
 12
0.404326
 22
-0.930711
 32
0.731877
 13
0.404326
 23
-0.930711
 33
0.731877
 62
0
  0
3DFACE
  8
Cylinder
 10
-0.256495
 20
0.248032
 30
0.518597
 11
-1.312595
 21
-0.245803
 31
0.518597
 12
-0.217903
 22
0.357148
 32
0.058438
 13
0.000196
 23
0.414239
 33
0.262396
 62
0
  0
3DFACE
  8
Cylinder
 10
-1.312640
 20
-0.641555
 30
-0.559511
 11
-1.312656
 21
-0.077722
 31
-0.169830
 12
-1.312595
 22
-0.245803
 32
0.518597
 13
-1.312595
 23
-0.245803
 33
0.518597
 62
0
  0
3DFACE
  8
Cylinder
 10
-1.312586
 20
-1.041487
 30
0.518597
 11
-1.312640
 21
-0.641555
 31
-0.559511
 12
-1.312595
 22
-0.245803
 32
0.518597
 13
-1.312595
 23
-0.245803
 33
0.518597
 62
0
  0
3DFACE
  8
Cylinder
 10
-1.312646
 20
-1.232617
 30
-0.168020
 11
-1.312640
 21
-0.641555
 31
-0.559511
 12
-1.312586
 22
-1.041487
 32
0.518597
 13
-1.312586
 23
-1.041487
 33
0.518597
 62
0
  0
3DFACE
  8
Cylinder
 10
0.000196
 20
-1.041553
 30
0.518597
 11
1.312977
 21
-1.041486
 31
0.518597
 12
1.312910
 22
-1.232533
 32
-0.168019
 13
1.312910
 23
-1.232533
 33
-0.168019
 62
0
  0
3DFACE
  8
Cylinder
 10
1.312912
 20
-0.641404
 30
-0.559335
 11
1.312978
 21
-0.245803
 31
0.518597
 12
1.312917
 22
-0.077559
 32
-0.169830
 13
1.312917
 23
-0.077559
 33
-0.169830
 62
0
  0
3DFACE
  8
Cylinder
 10
1.312977
 20
-1.041486
 30
0.518597
 11
1.312978
 21
-0.245803
 31
0.518597
 12
1.312912
 22
-0.641404
 32
-0.559335
 13
1.312912
 23
-0.641404
 33
-0.559335
 62
0
  0
3DFACE
  8
Cylinder
 10
1.312910
 20
-1.232533
 30
-0.168019
 11
1.312977
 21
-1.041486
 31
0.518597
 12
1.312912
 22
-0.641404
 32
-0.559335
 13
1.312912
 23
-0.641404
 33
-0.559335
 62
0
  0
3DFACE
  8
Cylinder
 10
0.906544
 20
0.128015
 30
-0.441578
 11
0.217989
 21
0.534991
 31
-0.441578
 12
0.000137
 22
0.697250
 32
-1.043475
 13
0.000137
 23
0.697250
 33
-1.043475
 62
0
  0
3DFACE
  8
Cylinder
 10
0.000196
 20
0.414239
 30
0.262396
 11
0.256334
 21
0.248016
 31
0.518597
 12
0.181837
 22
0.282766
 32
0.518597
 13
0.000380
 23
0.371246
 33
0.334413
 62
1
  0
3DFACE
  8
Cylinder
 10
-0.970140
 20
0.088867
 30
-0.400816
 11
0.000137
 21
0.697250
 31
-1.043475
 12
-0.906545
 22
0.127972
 32
-0.441578
 13
-0.906545
 23
0.127972
 33
-0.441578
 62
0
  0
3DFACE
  8
Cylinder
 10
-0.000098
 20
0.032729
 30
-1.463649
 11
0.000137
 21
0.697250
 31
-1.043475
 12
-0.970140
 22
0.088867
 32
-0.400816
 13
-0.970140
 23
0.088867
 33
-0.400816
 62
0
  0
3DFACE
  8
Cylinder
 10
-1.312656
 20
-0.077722
 30
-0.169830
 11
-0.000098
 21
0.032729
 31
-1.463649
 12
-0.970140
 22
0.088867
 32
-0.400816
 13
-0.970140
 23
0.088867
 33
-0.400816
 62
0
  0
3DFACE
  8
Cylinder
 10
-1.312640
 20
-0.641555
 30
-0.559511
 11
-0.000098
 21
0.032729
 31
-1.463649
 12
-1.312656
 22
-0.077722
 32
-0.169830
 13
-1.312656
 23
-0.077722
 33
-0.169830
 62
0
  0
3DFACE
  8
Cylinder
 10
0.000196
 20
-1.041553
 30
0.518597
 11
-0.000098
 21
-0.459091
 31
-1.192663
 12
-1.312646
 22
-1.232617
 32
-0.168020
 13
-1.312646
 23
-1.232617
 33
-0.168020
 62
0
  0
3DFACE
  8
Cylinder
 10
-0.000098
 20
-0.459091
 30
-1.192663
 11
1.312910
 21
-1.232533
 31
-0.168019
 12
1.312912
 22
-0.641404
 32
-0.559335
 13
-0.000098
 23
0.032729
 33
-1.463649
 62
0
  0
3DFACE
  8
Cylinder
 10
-1.312646
 20
-1.232617
 30
-0.168020
 11
-0.000098
 21
-0.459091
 31
-1.192663
 12
-0.000098
 22
0.032729
 32
-1.463649
 13
-1.312640
 23
-0.641555
 33
-0.559511
 62
0
  0
3DFACE
  8
Cylinder
 10
0.970602
 20
0.088426
 30
-0.400816
 11
0.906544
 21
0.128015
 31
-0.441578
 12
0.000137
 22
0.697250
 32
-1.043475
 13
0.000137
 23
0.697250
 33
-1.043475
 62
0
  0
3DFACE
  8
Cylinder
 10
-0.000098
 20
0.032729
 30
-1.463649
 11
0.970602
 21
0.088426
 31
-0.400816
 12
0.000137
 22
0.697250
 32
-1.043475
 13
0.000137
 23
0.697250
 33
-1.043475
 62
0
  0
3DFACE
  8
Cylinder
 10
1.312917
 20
-0.077559
 30
-0.169830
 11
0.970602
 21
0.088426
 31
-0.400816
 12
-0.000098
 22
0.032729
 32
-1.463649
 13
-0.000098
 23
0.032729
 33
-1.463649
 62
0
  0
3DFACE
  8
Cylinder
 10
1.312912
 20
-0.641404
 30
-0.559335
 11
1.312917
 21
-0.077559
 31
-0.169830
 12
-0.000098
 22
0.032729
 32
-1.463649
 13
-0.000098
 23
0.032729
 33
-1.463649
 62
0
  0
3DFACE
  8
Cylinder
 10
-0.217903
 20
0.357148
 30
0.058438
 11
-1.312595
 21
-0.245803
 31
0.518597
 12
-0.263327
 22
0.471736
 32
0.010429
 13
-0.263327
 23
0.471736
 33
0.010429
 62
1
  0
3DFACE
  8
Cylinder
 10
0.217989
 20
0.356774
 30
0.058042
 11
0.000196
 21
0.414239
 31
0.262396
 12
0.000137
 22
0.697250
 32
-1.043475
 13
0.217989
 23
0.534991
 33
-0.441578
 62
0
  0
3DFACE
  8
Cylinder
 10
-1.312646
 20
-1.232617
 30
-0.168020
 11
-1.312586
 21
-1.041487
 31
0.518597
 12
0.000196
 22
-1.041553
 32
0.518597
 13
0.000196
 23
-1.041553
 33
0.518597
 62
0
  0
3DFACE
  8
Cylinder
 10
1.312910
 20
-1.232533
 30
-0.168019
 11
-0.000098
 21
-0.459091
 31
-1.192663
 12
0.000196
 22
-1.041553
 32
0.518597
 13
0.000196
 23
-1.041553
 33
0.518597
 62
0
  0
3DFACE
  8
Cylinder
 10
0.906544
 20
0.128015
 30
-0.441578
 11
0.970602
 21
0.088426
 31
-0.400816
 12
0.263414
 22
0.575552
 32
-0.400816
 13
0.217989
 23
0.534991
 33
-0.441578
 62
1
  0
3DFACE
  8
Cylinder
 10
0.217989
 20
0.534991
 30
-0.441578
 11
0.263414
 21
0.575552
 31
-0.400816
 12
0.263414
 22
0.471965
 32
0.010090
 13
0.217989
 23
0.356774
 33
0.058042
 62
1
  0
3DFACE
  8
Cylinder
 10
0.263414
 20
0.471965
 30
0.010090
 11
1.312978
 21
-0.245803
 31
0.518597
 12
0.217989
 22
0.356774
 32
0.058042
 13
0.217989
 23
0.356774
 33
0.058042
 62
1
  0
3DFACE
  8
Cylinder
 10
1.312917
 20
-0.077559
 30
-0.169830
 11
1.312978
 21
-0.245803
 31
0.518597
 12
0.263414
 22
0.471965
 32
0.010090
 13
0.263414
 23
0.471965
 33
0.010090
 62
0
  0
3DFACE
  8
Cylinder
 10
0.263414
 20
0.575552
 30
-0.400816
 11
1.312917
 21
-0.077559
 31
-0.169830
 12
0.263414
 22
0.471965
 32
0.010090
 13
0.263414
 23
0.471965
 33
0.010090
 62
0
  0
3DFACE
  8
Cylinder
 10
0.970602
 20
0.088426
 30
-0.400816
 11
1.312917
 21
-0.077559
 31
-0.169830
 12
0.263414
 22
0.575552
 32
-0.400816
 13
0.263414
 23
0.575552
 33
-0.400816
 62
0
  0
3DFACE
  8
Cylinder
 10
1.312978
 20
-0.245803
 30
0.518597
 11
0.256334
 21
0.248016
 31
0.518597
 12
0.000196
 22
0.414239
 32
0.262396
 13
0.217989
 23
0.356774
 33
0.058042
 62
0
  0
3DFACE
  8
Cylinder
 10
-0.906545
 20
0.127972
 30
-0.441578
 11
0.000137
 21
0.697250
 31
-1.043475
 12
-0.217903
 22
0.535396
 32
-0.441578
 13
-0.217903
 23
0.535396
 33
-0.441578
 62
0
  0
3DFACE
  8
Cylinder
 10
-0.906545
 20
0.127972
 30
-0.441578
 11
-0.217903
 21
0.535396
 31
-0.441578
 12
-0.263327
 22
0.575411
 32
-0.400816
 13
-0.970140
 23
0.088867
 33
-0.400816
 62
1
  0
3DFACE
  8
Cylinder
 10
-0.217903
 20
0.357148
 30
0.058438
 11
-0.217903
 21
0.535396
 31
-0.441578
 12
0.000137
 22
0.697250
 32
-1.043475
 13
0.000196
 23
0.414239
 33
0.262396
 62
0
  0
3DFACE
  8
Cylinder
 10
-1.312656
 20
-0.077722
 30
-0.169830
 11
-0.263327
 21
0.471736
 31
0.010429
 12
-1.312595
 22
-0.245803
 32
0.518597
 13
-1.312595
 23
-0.245803
 33
0.518597
 62
0
  0
3DFACE
  8
Cylinder
 10
-0.970140
 20
0.088867
 30
-0.400816
 11
-0.263327
 21
0.471736
 31
0.010429
 12
-1.312656
 22
-0.077722
 32
-0.169830
 13
-1.312656
 23
-0.077722
 33
-0.169830
 62
0
  0
3DFACE
  8
Cylinder
 10
-0.263327
 20
0.575411
 30
-0.400816
 11
-0.263327
 21
0.471736
 31
0.010429
 12
-0.970140
 22
0.088867
 32
-0.400816
 13
-0.970140
 23
0.088867
 33
-0.400816
 62
0
  0
3DFACE
  8
Cylinder
 10
-0.217903
 20
0.535396
 30
-0.441578
 11
-0.217903
 21
0.357148
 31
0.058438
 12
-0.263327
 22
0.471736
 32
0.010429
 13
-0.263327
 23
0.575411
 33
-0.400816
 62
1
  0
3DFACE
  8
Cylinder
 10
-0.256495
 20
0.248032
 30
0.518597
 11
-1.312586
 21
-1.041487
 31
0.518597
 12
-1.312595
 22
-0.245803
 32
0.518597
 13
-1.312595
 23
-0.245803
 33
0.518597
 62
0
  0
3DFACE
  8
Cylinder
 10
-0.181563
 20
0.282575
 30
0.518597
 11
-1.312586
 21
-1.041487
 31
0.518597
 12
-0.256495
 22
0.248032
 32
0.518597
 13
-0.256495
 23
0.248032
 33
0.518597
 62
0
  0
3DFACE
  8
Cylinder
 10
0.000196
 20
-1.041553
 30
0.518597
 11
-1.312586
 21
-1.041487
 31
0.518597
 12
-0.181563
 22
0.282575
 32
0.518597
 13
-0.181563
 23
0.282575
 33
0.518597
 62
0
  0
3DFACE
  8
Cylinder
 10
0.000839
 20
0.368061
 30
0.518597
 11
0.000196
 21
-1.041553
 31
0.518597
 12
-0.181563
 22
0.282575
 32
0.518597
 13
-0.181563
 23
0.282575
 33
0.518597
 62
0
  0
3DFACE
  8
Cylinder
 10
0.181837
 20
0.282766
 30
0.518597
 11
0.000196
 21
-1.041553
 31
0.518597
 12
0.000839
 22
0.368061
 32
0.518597
 13
0.000839
 23
0.368061
 33
0.518597
 62
0
  0
3DFACE
  8
Cylinder
 10
0.256334
 20
0.248016
 30
0.518597
 11
0.000196
 21
-1.041553
 31
0.518597
 12
0.181837
 22
0.282766
 32
0.518597
 13
0.181837
 23
0.282766
 33
0.518597
 62
0
  0
3DFACE
  8
Cylinder
 10
1.312977
 20
-1.041486
 30
0.518597
 11
0.000196
 21
-1.041553
 31
0.518597
 12
0.256334
 22
0.248016
 32
0.518597
 13
0.256334
 23
0.248016
 33
0.518597
 62
0
  0
3DFACE
  8
Cylinder
 10
1.312978
 20
-0.245803
 30
0.518597
 11
1.312977
 21
-1.041486
 31
0.518597
 12
0.256334
 22
0.248016
 32
0.518597
 13
0.256334
 23
0.248016
 33
0.518597
 62
0
  0
3DFACE
  8
Cylinder
 10
0.000839
 20
0.368061
 30
0.518597
 11
-0.181563
 21
0.282575
 31
0.518597
 12
0.000380
 22
0.371246
 32
0.334413
 13
0.000380
 23
0.371246
 33
0.334413
 62
0
  0
3DFACE
  8
Cylinder
 10
-0.256495
 20
0.248032
 30
0.518597
 11
0.000196
 21
0.414239
 31
0.262396
 12
0.000380
 22
0.371246
 32
0.334413
 13
-0.181563
 23
0.282575
 33
0.518597
 62
1
  0
3DFACE
  8
Cylinder
 10
0.000839
 20
0.368061
 30
0.518597
 11
0.000380
 21
0.371246
 31
0.334413
 12
0.181837
 22
0.282766
 32
0.518597
 13
0.181837
 23
0.282766
 33
0.518597
 62
0
  0
3DFACE
  8
NoName9
 10
1.233460
 20
-0.585090
 30
1.121996
 11
0.837191
 21
-0.585133
 31
0.470269
 12
1.113144
 22
-0.447271
 32
0.470581
 13
1.113144
 23
-0.447271
 33
0.470581
 62
0
  0
3DFACE
  8
NoName9
 10
1.117608
 20
-0.751064
 30
0.470368
 11
0.837191
 21
-0.585133
 31
0.470269
 12
1.233460
 22
-0.585090
 32
1.121996
 13
1.233460
 23
-0.585090
 33
1.121996
 62
0
  0
3DFACE
  8
NoName9
 10
1.113144
 20
-0.447271
 30
0.470581
 11
0.837191
 21
-0.585133
 31
0.470269
 12
1.117608
 22
-0.751064
 32
0.470368
 13
1.117608
 23
-0.751064
 33
0.470368
 62
0
  0
3DFACE
  8
NoName9
 10
1.233460
 20
-0.585090
 30
1.121996
 11
1.113144
 21
-0.447271
 31
0.470581
 12
1.117608
 22
-0.751064
 32
0.470368
 13
1.117608
 23
-0.751064
 33
0.470368
 62
0
  0
3DFACE
  8
NoName10
 10
-1.112413
 20
-0.447268
 30
0.470580
 11
-0.836460
 21
-0.585130
 31
0.470269
 12
-1.232730
 22
-0.585086
 32
1.121996
 13
-1.232730
 23
-0.585086
 33
1.121996
 62
0
  0
3DFACE
  8
NoName10
 10
-1.232730
 20
-0.585086
 30
1.121996
 11
-0.836460
 21
-0.585130
 31
0.470269
 12
-1.116878
 22
-0.751060
 32
0.470368
 13
-1.116878
 23
-0.751060
 33
0.470368
 62
0
  0
3DFACE
  8
NoName10
 10
-1.116878
 20
-0.751060
 30
0.470368
 11
-0.836460
 21
-0.585130
 31
0.470269
 12
-1.112413
 22
-0.447268
 32
0.470580
 13
-1.112413
 23
-0.447268
 33
0.470580
 62
0
  0
3DFACE
  8
NoName10
 10
-1.116878
 20
-0.751060
 30
0.470368
 11
-1.112413
 21
-0.447268
 31
0.470580
 12
-1.232730
 22
-0.585086
 32
1.121996
 13
-1.232730
 23
-0.585086
 33
1.121996
 62
0
  0
3DFACE
  8
NoName11
 10
1.011357
 20
0.261899
 30
-1.439194
 11
0.905151
 21
-0.021423
 31
-0.290885
 12
0.537090
 22
-0.039086
 32
-0.729229
 13
0.537090
 23
-0.039086
 33
-0.729229
 62
0
  0
3DFACE
  8
NoName11
 10
0.801708
 20
-0.300105
 30
-0.554652
 11
0.905151
 21
-0.021423
 31
-0.290885
 12
1.011357
 22
0.261899
 32
-1.439194
 13
1.011357
 23
0.261899
 33
-1.439194
 62
0
  0
3DFACE
  8
NoName11
 10
0.537090
 20
-0.039086
 30
-0.729229
 11
0.905151
 21
-0.021423
 31
-0.290885
 12
0.801708
 22
-0.300105
 32
-0.554652
 13
0.801708
 23
-0.300105
 33
-0.554652
 62
0
  0
3DFACE
  8
NoName11
 10
1.011357
 20
0.261899
 30
-1.439194
 11
0.537090
 21
-0.039086
 31
-0.729229
 12
0.801708
 22
-0.300105
 32
-0.554652
 13
0.801708
 23
-0.300105
 33
-0.554652
 62
0
  0
3DFACE
  8
NoName12
 10
-0.536725
 20
-0.039083
 30
-0.729229
 11
-0.904786
 21
-0.021420
 31
-0.290885
 12
-1.010992
 22
0.261902
 32
-1.439194
 13
-1.010992
 23
0.261902
 33
-1.439194
 62
0
  0
3DFACE
  8
NoName12
 10
-1.010992
 20
0.261902
 30
-1.439194
 11
-0.904786
 21
-0.021420
 31
-0.290885
 12
-0.801343
 22
-0.300101
 32
-0.554652
 13
-0.801343
 23
-0.300101
 33
-0.554652
 62
0
  0
3DFACE
  8
NoName12
 10
-0.801343
 20
-0.300101
 30
-0.554652
 11
-0.904786
 21
-0.021420
 31
-0.290885
 12
-0.536725
 22
-0.039083
 32
-0.729229
 13
-0.536725
 23
-0.039083
 33
-0.729229
 62
0
  0
3DFACE
  8
NoName12
 10
-0.801343
 20
-0.300101
 30
-0.554652
 11
-0.536725
 21
-0.039083
 31
-0.729229
 12
-1.010992
 22
0.261902
 32
-1.439194
 13
-1.010992
 23
0.261902
 33
-1.439194
 62
0
 0
ENDSEC
 0
EOF
