  0
SECTION
  2
HEADER
  0
ENDSEC
  0
SECTION
  2
TABLES
  0
TABLE
  2
LAYER
  70
    153
  0
LAYER
  2
Cylinder1
 70
0
 62
15
  6
CONTINUOUS
  0
LAYER
  2
NoName3
 70
0
 62
15
  6
CONTINUOUS
  0
LAYER
  2
NoName2
 70
0
 62
15
  6
CONTINUOUS
  0
LAYER
  2
Cylinder3
 70
0
 62
15
  6
CONTINUOUS
  0
LAYER
  2
Cylinder2
 70
0
 62
15
  6
CONTINUOUS
  0
LAYER
  2
Cylinder4
 70
0
 62
15
  6
CONTINUOUS
  0
LAYER
  2
Cube2
 70
0
 62
15
  6
CONTINUOUS
  0
LAYER
  2
Cube
 70
0
 62
15
  6
CONTINUOUS
  0
ENDTAB
  0
ENDSEC
  0
SECTION
  2
ENTITIES
  0
3DFACE
  8
Cylinder1
 10
-0.973027
 20
-2.011320
 30
1.380869
 11
1.307675
 21
-2.011320
 31
1.380869
 12
1.307675
 22
-1.580894
 32
0.009479
 13
-0.973027
 23
-1.580894
 33
0.009479
 62
0
  0
3DFACE
  8
Cylinder1
 10
-0.973027
 20
-0.742370
 30
1.380872
 11
1.307675
 21
-0.742370
 31
1.380872
 12
1.307675
 22
-2.011320
 32
1.380869
 13
-0.973027
 23
-2.011320
 33
1.380869
 62
0
  0
3DFACE
  8
Cylinder1
 10
-0.973027
 20
-1.580894
 30
0.009479
 11
1.307675
 21
-1.580894
 31
0.009479
 12
1.307675
 22
-0.742370
 32
1.380872
 13
-0.973027
 23
-0.742370
 33
1.380872
 62
0
  0
3DFACE
  8
Cylinder1
 10
-0.973027
 20
-0.742370
 30
1.380872
 11
-0.973027
 21
-2.011320
 31
1.380869
 12
-0.973027
 22
-1.580894
 32
0.009479
 13
-0.973027
 23
-1.580894
 33
0.009479
 62
0
  0
3DFACE
  8
Cylinder1
 10
1.307675
 20
-1.580894
 30
0.009479
 11
1.307675
 21
-2.011320
 31
1.380869
 12
1.307675
 22
-0.742370
 32
1.380872
 13
1.307675
 23
-0.742370
 33
1.380872
 62
0
  0
3DFACE
  8
NoName3
 10
-0.377041
 20
-1.341255
 30
1.223008
 11
-0.377017
 21
-1.206701
 31
1.223018
 12
-0.241329
 22
-1.205938
 32
1.223012
 13
-0.241329
 23
-1.205938
 33
1.223012
 62
0
  0
3DFACE
  8
NoName3
 10
-0.310658
 20
-1.273770
 30
2.603975
 11
-0.377041
 21
-1.341255
 31
1.223008
 12
-0.241329
 22
-1.205938
 32
1.223012
 13
-0.241329
 23
-1.205938
 33
1.223012
 62
0
  0
3DFACE
  8
NoName3
 10
-0.377017
 20
-1.206701
 30
1.223018
 11
-0.377041
 21
-1.341255
 31
1.223008
 12
-0.310658
 22
-1.273770
 32
2.603975
 13
-0.310658
 23
-1.273770
 33
2.603975
 62
0
  0
3DFACE
  8
NoName3
 10
-0.310658
 20
-1.273770
 30
2.603975
 11
-0.241329
 21
-1.205938
 31
1.223012
 12
-0.377017
 22
-1.206701
 32
1.223018
 13
-0.377017
 23
-1.206701
 33
1.223018
 62
0
  0
3DFACE
  8
NoName2
 10
0.868174
 20
-1.832105
 30
1.223008
 11
0.868197
 21
-1.697551
 31
1.223018
 12
1.003886
 22
-1.696788
 32
1.223012
 13
1.003886
 23
-1.696788
 33
1.223012
 62
0
  0
3DFACE
  8
NoName2
 10
0.934559
 20
-1.764620
 30
3.678959
 11
0.868174
 21
-1.832105
 31
1.223008
 12
1.003886
 22
-1.696788
 32
1.223012
 13
1.003886
 23
-1.696788
 33
1.223012
 62
0
  0
3DFACE
  8
NoName2
 10
0.868197
 20
-1.697551
 30
1.223018
 11
0.868174
 21
-1.832105
 31
1.223008
 12
0.934559
 22
-1.764620
 32
3.678959
 13
0.934559
 23
-1.764620
 33
3.678959
 62
0
  0
3DFACE
  8
NoName2
 10
0.934559
 20
-1.764620
 30
3.678959
 11
1.003886
 21
-1.696788
 31
1.223012
 12
0.868197
 22
-1.697551
 32
1.223018
 13
0.868197
 23
-1.697551
 33
1.223018
 62
0
  0
3DFACE
  8
Cylinder3
 10
-1.416075
 20
1.820515
 30
0.000995
 11
-1.416075
 21
0.910482
 31
-1.574075
 12
1.416075
 22
0.910482
 32
-1.574077
 13
1.416075
 23
1.820515
 33
0.000993
 62
0
  0
3DFACE
  8
Cylinder3
 10
-1.416075
 20
0.910482
 30
-1.574075
 11
-1.416075
 21
-0.909584
 31
-1.574075
 12
1.416075
 22
-0.909584
 32
-1.574077
 13
1.416075
 23
0.910482
 33
-1.574077
 62
0
  0
3DFACE
  8
Cylinder3
 10
-1.416075
 20
-0.909584
 30
-1.574075
 11
-1.416075
 21
-1.819617
 31
0.000995
 12
1.416075
 22
-1.819617
 32
0.000993
 13
1.416075
 23
-0.909584
 33
-1.574077
 62
0
  0
3DFACE
  8
Cylinder3
 10
-1.416075
 20
-1.819617
 30
0.000995
 11
-1.416075
 21
-0.909584
 31
1.576065
 12
1.416075
 22
-0.909584
 32
1.576064
 13
1.416075
 23
-1.819617
 33
0.000993
 62
0
  0
3DFACE
  8
Cylinder3
 10
-1.416075
 20
-0.909584
 30
1.576065
 11
-1.416075
 21
0.910482
 31
1.576065
 12
1.416075
 22
0.910482
 32
1.576064
 13
1.416075
 23
-0.909584
 33
1.576064
 62
0
  0
3DFACE
  8
Cylinder3
 10
-1.416075
 20
0.910482
 30
1.576065
 11
-1.416075
 21
1.820515
 31
0.000995
 12
1.416075
 22
1.820515
 32
0.000993
 13
1.416075
 23
0.910482
 33
1.576064
 62
0
  0
3DFACE
  8
Cylinder3
 10
-1.418176
 20
-0.907772
 30
-1.570938
 11
-1.416075
 21
-0.909584
 31
-1.574075
 12
-1.416075
 22
0.910482
 32
-1.574075
 13
-1.418176
 23
0.908670
 33
-1.570938
 62
0
  0
3DFACE
  8
Cylinder3
 10
-1.418176
 20
-1.815992
 30
0.000995
 11
-1.416075
 21
-1.819617
 31
0.000995
 12
-1.416075
 22
-0.909584
 32
-1.574075
 13
-1.418176
 23
-0.907772
 33
-1.570938
 62
0
  0
3DFACE
  8
Cylinder3
 10
-1.418176
 20
0.908670
 30
-1.570938
 11
-1.416075
 21
0.910482
 31
-1.574075
 12
-1.416075
 22
1.820515
 32
0.000995
 13
-1.418176
 23
1.816890
 33
0.000995
 62
0
  0
3DFACE
  8
Cylinder3
 10
1.418176
 20
-0.907772
 30
1.572927
 11
1.416075
 21
-0.909584
 31
1.576064
 12
1.416075
 22
0.910482
 32
1.576064
 13
1.418176
 23
0.908670
 33
1.572927
 62
0
  0
3DFACE
  8
Cylinder3
 10
1.418176
 20
0.908670
 30
1.572927
 11
1.416075
 21
0.910482
 31
1.576064
 12
1.416075
 22
1.820515
 32
0.000993
 13
1.418176
 23
1.816890
 33
0.000993
 62
0
  0
3DFACE
  8
Cylinder3
 10
1.418176
 20
-1.815992
 30
0.000993
 11
1.416075
 21
-1.819617
 31
0.000993
 12
1.416075
 22
-0.909584
 32
1.576064
 13
1.418176
 23
-0.907772
 33
1.572927
 62
0
  0
3DFACE
  8
Cylinder3
 10
1.418176
 20
-0.907772
 30
-1.570940
 11
1.416075
 21
-0.909584
 31
-1.574077
 12
1.416075
 22
-1.819617
 32
0.000993
 13
1.418176
 23
-1.815992
 33
0.000993
 62
0
  0
3DFACE
  8
Cylinder3
 10
1.418176
 20
1.816890
 30
0.000993
 11
1.416075
 21
1.820515
 31
0.000993
 12
1.416075
 22
0.910482
 32
-1.574077
 13
1.418176
 23
0.908670
 33
-1.570940
 62
0
  0
3DFACE
  8
Cylinder3
 10
1.418176
 20
0.908670
 30
-1.570940
 11
1.416075
 21
0.910482
 31
-1.574077
 12
1.416075
 22
-0.909584
 32
-1.574077
 13
1.418176
 23
-0.907772
 33
-1.570940
 62
0
  0
3DFACE
  8
Cylinder3
 10
-1.418176
 20
-0.907772
 30
1.572928
 11
-1.416075
 21
-0.909584
 31
1.576065
 12
-1.416075
 22
-1.819617
 32
0.000995
 13
-1.418176
 23
-1.815992
 33
0.000995
 62
0
  0
3DFACE
  8
Cylinder3
 10
1.418176
 20
1.816890
 30
0.000993
 11
1.418176
 21
0.908670
 31
-1.570940
 12
1.418176
 22
-0.907772
 32
-1.570940
 13
1.418176
 23
-0.907772
 33
-1.570940
 62
0
  0
3DFACE
  8
Cylinder3
 10
1.418176
 20
-1.815992
 30
0.000993
 11
1.418176
 21
1.816890
 31
0.000993
 12
1.418176
 22
-0.907772
 32
-1.570940
 13
1.418176
 23
-0.907772
 33
-1.570940
 62
0
  0
3DFACE
  8
Cylinder3
 10
1.418176
 20
0.908670
 30
1.572927
 11
1.418176
 21
1.816890
 31
0.000993
 12
1.418176
 22
-1.815992
 32
0.000993
 13
1.418176
 23
-1.815992
 33
0.000993
 62
0
  0
3DFACE
  8
Cylinder3
 10
1.418176
 20
-0.907772
 30
1.572927
 11
1.418176
 21
0.908670
 31
1.572927
 12
1.418176
 22
-1.815992
 32
0.000993
 13
1.418176
 23
-1.815992
 33
0.000993
 62
0
  0
3DFACE
  8
Cylinder3
 10
-1.418176
 20
0.908670
 30
1.572928
 11
-1.416075
 21
0.910482
 31
1.576065
 12
-1.416075
 22
-0.909584
 32
1.576065
 13
-1.418176
 23
-0.907772
 33
1.572928
 62
0
  0
3DFACE
  8
Cylinder3
 10
-1.418176
 20
1.816890
 30
0.000995
 11
-1.416075
 21
1.820515
 31
0.000995
 12
-1.416075
 22
0.910482
 32
1.576065
 13
-1.418176
 23
0.908670
 33
1.572928
 62
0
  0
3DFACE
  8
Cylinder3
 10
-1.418176
 20
1.816890
 30
0.000995
 11
-1.418176
 21
-0.907772
 31
-1.570938
 12
-1.418176
 22
0.908670
 32
-1.570938
 13
-1.418176
 23
0.908670
 33
-1.570938
 62
0
  0
3DFACE
  8
Cylinder3
 10
-1.418176
 20
-1.815992
 30
0.000995
 11
-1.418176
 21
-0.907772
 31
-1.570938
 12
-1.418176
 22
1.816890
 32
0.000995
 13
-1.418176
 23
1.816890
 33
0.000995
 62
0
  0
3DFACE
  8
Cylinder3
 10
-1.418176
 20
-0.907772
 30
1.572928
 11
-1.418176
 21
-1.815992
 31
0.000995
 12
-1.418176
 22
1.816890
 32
0.000995
 13
-1.418176
 23
1.816890
 33
0.000995
 62
0
  0
3DFACE
  8
Cylinder3
 10
-1.418176
 20
0.908670
 30
1.572928
 11
-1.418176
 21
-0.907772
 31
1.572928
 12
-1.418176
 22
1.816890
 32
0.000995
 13
-1.418176
 23
1.816890
 33
0.000995
 62
0
  0
3DFACE
  8
Cylinder2
 10
1.418176
 20
-0.907772
 30
-1.575715
 11
2.470942
 21
0.000449
 31
0.000993
 12
1.418176
 22
0.908669
 32
-1.575715
 13
1.418176
 23
0.908669
 33
-1.575715
 62
0
  0
3DFACE
  8
Cylinder2
 10
1.418176
 20
0.908669
 30
-1.575715
 11
2.470942
 21
0.000449
 31
0.000993
 12
1.418176
 22
1.820204
 32
0.000993
 13
1.418176
 23
1.820204
 33
0.000993
 62
0
  0
3DFACE
  8
Cylinder2
 10
1.418176
 20
-1.819396
 30
0.000993
 11
2.470942
 21
0.000449
 31
0.000993
 12
1.418176
 22
-0.907772
 32
-1.575715
 13
1.418176
 23
-0.907772
 33
-1.575715
 62
0
  0
3DFACE
  8
Cylinder2
 10
1.418176
 20
-0.907772
 30
1.576296
 11
2.470942
 21
0.000449
 31
0.000993
 12
1.418176
 22
-1.819396
 32
0.000993
 13
1.418176
 23
-1.819396
 33
0.000993
 62
0
  0
3DFACE
  8
Cylinder2
 10
1.418176
 20
0.908669
 30
1.576296
 11
2.470942
 21
0.000449
 31
0.000993
 12
1.418176
 22
-0.907772
 32
1.576296
 13
1.418176
 23
-0.907772
 33
1.576296
 62
0
  0
3DFACE
  8
Cylinder2
 10
1.418176
 20
1.820204
 30
0.000993
 11
2.470942
 21
0.000449
 31
0.000993
 12
1.418176
 22
0.908669
 32
1.576296
 13
1.418176
 23
0.908669
 33
1.576296
 62
0
  0
3DFACE
  8
Cylinder2
 10
1.418176
 20
1.820204
 30
0.000993
 11
1.418176
 21
-0.907772
 31
-1.575715
 12
1.418176
 22
0.908669
 32
-1.575715
 13
1.418176
 23
0.908669
 33
-1.575715
 62
0
  0
3DFACE
  8
Cylinder2
 10
1.418176
 20
-1.819396
 30
0.000993
 11
1.418176
 21
-0.907772
 31
-1.575715
 12
1.418176
 22
1.820204
 32
0.000993
 13
1.418176
 23
1.820204
 33
0.000993
 62
0
  0
3DFACE
  8
Cylinder2
 10
1.418176
 20
-0.907772
 30
1.576296
 11
1.418176
 21
-1.819396
 31
0.000993
 12
1.418176
 22
1.820204
 32
0.000993
 13
1.418176
 23
1.820204
 33
0.000993
 62
0
  0
3DFACE
  8
Cylinder2
 10
1.418176
 20
0.908669
 30
1.576296
 11
1.418176
 21
-0.907772
 31
1.576296
 12
1.418176
 22
1.820204
 32
0.000993
 13
1.418176
 23
1.820204
 33
0.000993
 62
0
  0
3DFACE
  8
Cylinder4
 10
-1.418176
 20
-0.907772
 30
1.576296
 11
-2.470941
 21
0.000449
 31
0.000995
 12
-1.418176
 22
0.908669
 32
1.576296
 13
-1.418176
 23
0.908669
 33
1.576296
 62
0
  0
3DFACE
  8
Cylinder4
 10
-1.418176
 20
-1.819396
 30
0.000995
 11
-2.470941
 21
0.000449
 31
0.000995
 12
-1.418176
 22
-0.907772
 32
1.576296
 13
-1.418176
 23
-0.907772
 33
1.576296
 62
0
  0
3DFACE
  8
Cylinder4
 10
-1.418176
 20
0.908669
 30
1.576296
 11
-2.470941
 21
0.000449
 31
0.000995
 12
-1.418176
 22
1.820204
 32
0.000995
 13
-1.418176
 23
1.820204
 33
0.000995
 62
0
  0
3DFACE
  8
Cylinder4
 10
-1.418176
 20
-0.907772
 30
-1.575715
 11
-2.470941
 21
0.000449
 31
0.000995
 12
-1.418176
 22
-1.819396
 32
0.000995
 13
-1.418176
 23
-1.819396
 33
0.000995
 62
0
  0
3DFACE
  8
Cylinder4
 10
-1.418176
 20
1.820204
 30
0.000995
 11
-2.470941
 21
0.000449
 31
0.000995
 12
-1.418176
 22
0.908669
 32
-1.575715
 13
-1.418176
 23
0.908669
 33
-1.575715
 62
0
  0
3DFACE
  8
Cylinder4
 10
-1.418176
 20
0.908669
 30
-1.575715
 11
-2.470941
 21
0.000449
 31
0.000995
 12
-1.418176
 22
-0.907772
 32
-1.575715
 13
-1.418176
 23
-0.907772
 33
-1.575715
 62
0
  0
3DFACE
  8
Cylinder4
 10
-1.418176
 20
1.820204
 30
0.000995
 11
-1.418176
 21
0.908669
 31
-1.575715
 12
-1.418176
 22
-0.907772
 32
-1.575715
 13
-1.418176
 23
-0.907772
 33
-1.575715
 62
0
  0
3DFACE
  8
Cylinder4
 10
-1.418176
 20
-1.819396
 30
0.000995
 11
-1.418176
 21
1.820204
 31
0.000995
 12
-1.418176
 22
-0.907772
 32
-1.575715
 13
-1.418176
 23
-0.907772
 33
-1.575715
 62
0
  0
3DFACE
  8
Cylinder4
 10
-1.418176
 20
0.908669
 30
1.576296
 11
-1.418176
 21
1.820204
 31
0.000995
 12
-1.418176
 22
-1.819396
 32
0.000995
 13
-1.418176
 23
-1.819396
 33
0.000995
 62
0
  0
3DFACE
  8
Cylinder4
 10
-1.418176
 20
-0.907772
 30
1.576296
 11
-1.418176
 21
0.908669
 31
1.576296
 12
-1.418176
 22
-1.819396
 32
0.000995
 13
-1.418176
 23
-1.819396
 33
0.000995
 62
0
  0
3DFACE
  8
Cube2
 10
-1.340174
 20
1.183848
 30
-1.047329
 11
-1.340174
 21
1.183848
 31
-0.054614
 12
1.340176
 22
1.183846
 32
-0.054615
 13
1.340176
 23
1.183846
 33
-1.047331
 62
0
  0
3DFACE
  8
Cube2
 10
-1.340174
 20
2.676303
 30
-1.047327
 11
-1.340174
 21
1.183848
 31
-1.047329
 12
1.340176
 22
1.183846
 32
-1.047331
 13
1.340176
 23
2.676301
 33
-1.047329
 62
0
  0
3DFACE
  8
Cube2
 10
1.340176
 20
2.676301
 30
-1.047329
 11
1.340176
 21
1.183846
 31
-1.047331
 12
1.340176
 22
1.183846
 32
-0.054615
 13
1.340176
 23
2.676301
 33
-0.054613
 62
0
  0
3DFACE
  8
Cube2
 10
1.340176
 20
2.676301
 30
-0.054613
 11
1.340176
 21
1.183846
 31
-0.054615
 12
-1.340174
 22
1.183848
 32
-0.054614
 13
-1.340174
 23
2.676303
 33
-0.054612
 62
0
  0
3DFACE
  8
Cube2
 10
-1.340174
 20
2.676303
 30
-0.054612
 11
-1.340174
 21
1.183848
 31
-0.054614
 12
-1.340174
 22
1.183848
 32
-1.047329
 13
-1.340174
 23
2.676303
 33
-1.047327
 62
0
  0
3DFACE
  8
Cube2
 10
0.976406
 20
1.954121
 30
-0.409152
 11
-0.976488
 21
1.954787
 31
-0.409151
 12
-0.976400
 22
1.954517
 32
-0.683621
 13
0.976484
 23
1.953841
 33
-0.683637
 62
0
  0
3DFACE
  8
Cube2
 10
0.976484
 20
1.953841
 30
-0.683637
 11
-0.976400
 21
1.954517
 31
-0.683621
 12
-1.340174
 22
2.676303
 32
-1.047327
 13
1.340176
 23
2.676301
 33
-1.047329
 62
0
  0
3DFACE
  8
Cube2
 10
0.976406
 20
1.954121
 30
-0.409152
 11
0.976484
 21
1.953841
 31
-0.683637
 12
1.340176
 22
2.676301
 32
-1.047329
 13
1.340176
 23
2.676301
 33
-0.054613
 62
0
  0
3DFACE
  8
Cube2
 10
-0.976488
 20
1.954787
 30
-0.409151
 11
0.976406
 21
1.954121
 31
-0.409152
 12
1.340176
 22
2.676301
 32
-0.054613
 13
-1.340174
 23
2.676303
 33
-0.054612
 62
0
  0
3DFACE
  8
Cube2
 10
-0.976400
 20
1.954517
 30
-0.683621
 11
-0.976488
 21
1.954787
 31
-0.409151
 12
-1.340174
 22
2.676303
 32
-0.054612
 13
-1.340174
 23
2.676303
 33
-1.047327
 62
0
  0
3DFACE
  8
Cube
 10
1.252903
 20
2.510837
 30
-0.964603
 11
-1.252908
 21
2.510837
 31
-0.964603
 12
-1.252908
 22
1.184202
 32
-0.964604
 13
1.252903
 23
1.184202
 33
-0.964604
 62
0
  0
3DFACE
  8
Cube
 10
-1.252908
 20
2.510837
 30
-0.137334
 11
-1.252908
 21
2.510837
 31
-0.964603
 12
1.252903
 22
2.510837
 32
-0.964603
 13
1.252903
 23
2.510837
 33
-0.137334
 62
1
  0
3DFACE
  8
Cube
 10
1.252903
 20
2.510837
 30
-0.137334
 11
1.252903
 21
2.510837
 31
-0.964603
 12
1.252903
 22
1.184202
 32
-0.964604
 13
1.252903
 23
1.184202
 33
-0.137334
 62
0
  0
3DFACE
  8
Cube
 10
1.252903
 20
1.184202
 30
-0.137334
 11
1.252903
 21
1.184202
 31
-0.964604
 12
-1.252908
 22
1.184202
 32
-0.964604
 13
-1.252908
 23
1.184202
 33
-0.137334
 62
0
  0
3DFACE
  8
Cube
 10
-1.252908
 20
2.510837
 30
-0.137334
 11
1.252903
 21
2.510837
 31
-0.137334
 12
1.252903
 22
1.184202
 32
-0.137334
 13
-1.252908
 23
1.184202
 33
-0.137334
 62
0
  0
3DFACE
  8
Cube
 10
-1.252908
 20
2.510837
 30
-0.964603
 11
-1.252908
 21
2.510837
 31
-0.137334
 12
-1.252908
 22
1.184202
 32
-0.137334
 13
-1.252908
 23
1.184202
 33
-0.964604
 62
0
 0
ENDSEC
 0
EOF
