  0
SECTION
  2
HEADER
  0
ENDSEC
  0
SECTION
  2
TABLES
  0
TABLE
  2
LAYER
  70
    153
  0
LAYER
  2
Cylinder
 70
0
 62
15
  6
CONTINUOUS
  0
LAYER
  2
LowerBody
 70
0
 62
15
  6
CONTINUOUS
  0
LAYER
  2
Cube1
 70
0
 62
15
  6
CONTINUOUS
  0
LAYER
  2
Cube2
 70
0
 62
15
  6
CONTINUOUS
  0
LAYER
  2
Cylinder1
 70
0
 62
15
  6
CONTINUOUS
  0
LAYER
  2
Cylinder6
 70
0
 62
15
  6
CONTINUOUS
  0
LAYER
  2
RUArm
 70
0
 62
15
  6
CONTINUOUS
  0
LAYER
  2
Cylinder2
 70
0
 62
15
  6
CONTINUOUS
  0
LAYER
  2
Cylinder4
 70
0
 62
15
  6
CONTINUOUS
  0
ENDTAB
  0
ENDSEC
  0
SECTION
  2
ENTITIES
  0
3DFACE
  8
Cylinder
 10
-1.701466
 20
-1.432505
 30
0.773659
 11
-0.850730
 21
-1.432508
 31
0.416585
 12
-0.850729
 22
-0.257313
 32
0.563616
 13
-1.701473
 23
-0.257312
 33
0.983719
 62
0
  0
3DFACE
  8
Cylinder
 10
-0.850730
 20
-1.432508
 30
0.416585
 11
0.850757
 21
-1.432508
 31
0.416589
 12
0.850758
 22
-0.257313
 32
0.563619
 13
-0.850729
 23
-0.257313
 33
0.563616
 62
0
  0
3DFACE
  8
Cylinder
 10
0.850757
 20
-1.432508
 30
0.416589
 11
1.701501
 21
-1.432508
 31
0.773665
 12
1.701501
 22
-0.257313
 32
0.983725
 13
0.850758
 23
-0.257313
 33
0.563619
 62
0
  0
3DFACE
  8
Cylinder
 10
0.850758
 20
-0.257313
 30
1.550859
 11
1.701501
 21
-0.257313
 31
0.983725
 12
0.850757
 22
-1.432510
 32
1.715600
 13
0.850757
 23
-1.432510
 33
1.715600
 62
0
  0
3DFACE
  8
Cylinder
 10
0.850757
 20
-1.432510
 30
1.715600
 11
-0.850730
 21
-1.432509
 31
1.715596
 12
-0.850729
 22
-0.257313
 32
1.550855
 13
0.850758
 23
-0.257313
 33
1.550859
 62
0
  0
3DFACE
  8
Cylinder
 10
-0.850729
 20
-0.257313
 30
1.550855
 11
-0.850730
 21
-1.432509
 31
1.715596
 12
-1.701473
 22
-0.257312
 32
0.983719
 13
-1.701473
 23
-0.257312
 33
0.983719
 62
0
  0
3DFACE
  8
Cylinder
 10
1.701501
 20
-1.432508
 30
0.773665
 11
0.850757
 21
-1.432508
 31
0.416589
 12
-0.850730
 22
-1.432508
 32
0.416585
 13
-0.850730
 23
-1.432508
 33
0.416585
 62
0
  0
3DFACE
  8
Cylinder
 10
-1.701466
 20
-1.432505
 30
0.773659
 11
1.701501
 21
-1.432508
 31
0.773665
 12
-0.850730
 22
-1.432508
 32
0.416585
 13
-0.850730
 23
-1.432508
 33
0.416585
 62
0
  0
3DFACE
  8
Cylinder
 10
0.850757
 20
-1.432510
 30
1.715600
 11
1.701501
 21
-1.432508
 31
0.773665
 12
-1.701466
 22
-1.432505
 32
0.773659
 13
-1.701466
 23
-1.432505
 33
0.773659
 62
0
  0
3DFACE
  8
Cylinder
 10
-0.850730
 20
-1.432509
 30
1.715596
 11
0.850757
 21
-1.432510
 31
1.715600
 12
-1.701466
 22
-1.432505
 32
0.773659
 13
-1.701466
 23
-1.432505
 33
0.773659
 62
0
  0
3DFACE
  8
Cylinder
 10
-0.850729
 20
-0.257313
 30
0.563616
 11
0.850758
 21
-0.257313
 31
0.563619
 12
0.000014
 22
-0.047844
 32
0.780664
 13
0.000014
 23
-0.047844
 33
0.780664
 62
0
  0
3DFACE
  8
Cylinder
 10
0.000014
 20
-0.047844
 30
0.780664
 11
-0.236965
 21
-0.095273
 31
0.753418
 12
-0.850729
 22
-0.257313
 32
0.563616
 13
-0.850729
 23
-0.257313
 33
0.563616
 62
4
  0
3DFACE
  8
Cylinder
 10
-0.327213
 20
-0.088129
 30
0.819715
 11
-0.236965
 21
-0.095273
 31
0.753418
 12
0.000014
 22
-0.047844
 32
0.780664
 13
0.000014
 23
-0.047844
 33
0.780664
 62
4
  0
3DFACE
  8
Cylinder
 10
-0.885307
 20
-0.175499
 30
0.829548
 11
-0.850729
 21
-0.257313
 31
0.563616
 12
-0.236965
 22
-0.095273
 32
0.753418
 13
-0.236965
 23
-0.095273
 33
0.753418
 62
4
  0
3DFACE
  8
Cylinder
 10
-0.948427
 20
-0.164606
 30
0.893851
 11
-0.850729
 21
-0.257313
 31
0.563616
 12
-0.885307
 22
-0.175499
 32
0.829548
 13
-0.885307
 23
-0.175499
 33
0.829548
 62
4
  0
3DFACE
  8
Cylinder
 10
-1.701473
 20
-0.257312
 30
0.983719
 11
-0.850729
 21
-0.257313
 31
0.563616
 12
-0.948427
 22
-0.164606
 32
0.893851
 13
-0.948427
 23
-0.164606
 33
0.893851
 62
4
  0
3DFACE
  8
Cylinder
 10
0.850758
 20
-0.257313
 30
1.550859
 11
-0.850729
 21
-0.257313
 31
1.550855
 12
0.000014
 22
-0.047844
 32
0.780664
 13
0.000014
 23
-0.047844
 33
0.780664
 62
0
  0
3DFACE
  8
Cylinder
 10
-1.701466
 20
-1.432505
 30
0.773659
 11
-1.701473
 21
-0.257312
 31
0.983719
 12
-0.850730
 22
-1.432509
 32
1.715596
 13
-0.850730
 23
-1.432509
 33
1.715596
 62
0
  0
3DFACE
  8
Cylinder
 10
1.701501
 20
-1.432508
 30
0.773665
 11
0.850757
 21
-1.432510
 31
1.715600
 12
1.701501
 22
-0.257313
 32
0.983725
 13
1.701501
 23
-0.257313
 33
0.983725
 62
0
  0
3DFACE
  8
Cylinder
 10
0.610352
 20
-0.150301
 30
1.027919
 11
0.000014
 21
-0.047844
 31
0.780664
 12
0.326876
 22
-0.088084
 32
0.819673
 13
0.326876
 23
-0.088084
 33
0.819673
 62
1
  0
3DFACE
  8
Cylinder
 10
0.850758
 20
-0.257313
 30
1.550859
 11
0.000014
 21
-0.047844
 31
0.780664
 12
0.610352
 22
-0.150301
 32
1.027919
 13
0.610352
 23
-0.150301
 33
1.027919
 62
1
  0
3DFACE
  8
Cylinder
 10
0.850758
 20
-0.257313
 30
1.550859
 11
0.610352
 21
-0.150301
 31
1.027919
 12
1.267259
 22
-0.248813
 32
1.218942
 13
1.267259
 23
-0.248813
 33
1.218942
 62
1
  0
3DFACE
  8
Cylinder
 10
1.267259
 20
-0.248813
 30
1.218942
 11
0.948109
 21
-0.164563
 31
0.893813
 12
1.701501
 22
-0.257313
 32
0.983725
 13
1.701501
 23
-0.257313
 33
0.983725
 62
1
  0
3DFACE
  8
Cylinder
 10
0.850758
 20
-0.257313
 30
1.550859
 11
1.267259
 21
-0.248813
 31
1.218942
 12
1.701501
 22
-0.257313
 32
0.983725
 13
1.701501
 23
-0.257313
 33
0.983725
 62
1
  0
3DFACE
  8
Cylinder
 10
-0.610629
 20
-0.150333
 30
1.027916
 11
-0.327213
 21
-0.088129
 31
0.819715
 12
0.000014
 22
-0.047844
 32
0.780664
 13
0.000014
 23
-0.047844
 33
0.780664
 62
4
  0
3DFACE
  8
Cylinder
 10
-0.850729
 20
-0.257313
 30
1.550855
 11
-0.610629
 21
-0.150333
 31
1.027916
 12
0.000014
 22
-0.047844
 32
0.780664
 13
0.000014
 23
-0.047844
 33
0.780664
 62
4
  0
3DFACE
  8
Cylinder
 10
-0.850729
 20
-0.257313
 30
1.550855
 11
-1.267537
 21
-0.248845
 31
1.218937
 12
-0.610629
 22
-0.150333
 32
1.027916
 13
-0.610629
 23
-0.150333
 33
1.027916
 62
4
  0
3DFACE
  8
Cylinder
 10
-1.267537
 20
-0.248845
 30
1.218937
 11
-1.701473
 21
-0.257312
 31
0.983719
 12
-0.948427
 22
-0.164606
 32
0.893851
 13
-0.948427
 23
-0.164606
 33
0.893851
 62
4
  0
3DFACE
  8
Cylinder
 10
-0.850729
 20
-0.257313
 30
1.550855
 11
-1.701473
 21
-0.257312
 31
0.983719
 12
-1.267537
 22
-0.248845
 32
1.218937
 13
-1.267537
 23
-0.248845
 33
1.218937
 62
4
  0
3DFACE
  8
Cylinder
 10
-1.267537
 20
-0.248845
 30
1.218937
 11
-0.885307
 21
-0.299946
 31
0.829548
 12
-1.267537
 22
-0.299946
 32
1.218937
 13
-1.267537
 23
-0.299946
 33
1.218937
 62
4
  0
3DFACE
  8
Cylinder
 10
-0.885307
 20
-0.175499
 30
0.829548
 11
-0.885307
 21
-0.299946
 31
0.829548
 12
-1.267537
 22
-0.248845
 32
1.218937
 13
-1.267537
 23
-0.248845
 33
1.218937
 62
4
  0
3DFACE
  8
Cylinder
 10
-0.948427
 20
-0.164606
 30
0.893851
 11
-0.885307
 21
-0.175499
 31
0.829548
 12
-1.267537
 22
-0.248845
 32
1.218937
 13
-1.267537
 23
-0.248845
 33
1.218937
 62
4
  0
3DFACE
  8
Cylinder
 10
-1.267537
 20
-0.299946
 30
1.218937
 11
-0.610629
 21
-0.299946
 31
1.027916
 12
-0.610629
 22
-0.150333
 32
1.027916
 13
-1.267537
 23
-0.248845
 33
1.218937
 62
4
  0
3DFACE
  8
Cylinder
 10
-0.610629
 20
-0.299946
 30
1.027916
 11
-1.267537
 21
-0.299946
 31
1.218937
 12
-0.885307
 22
-0.299946
 32
0.829548
 13
-0.236966
 23
-0.299946
 33
0.753418
 62
3
  0
3DFACE
  8
Cylinder
 10
-0.236966
 20
-0.299946
 30
0.753418
 11
-0.885307
 21
-0.299946
 31
0.829548
 12
-0.885307
 22
-0.175499
 32
0.829548
 13
-0.236965
 23
-0.095273
 33
0.753418
 62
4
  0
3DFACE
  8
Cylinder
 10
-0.610629
 20
-0.150333
 30
1.027916
 11
-0.610629
 21
-0.299946
 31
1.027916
 12
-0.236966
 22
-0.299946
 32
0.753418
 13
-0.236966
 23
-0.299946
 33
0.753418
 62
4
  0
3DFACE
  8
Cylinder
 10
-0.236965
 20
-0.095273
 30
0.753418
 11
-0.610629
 21
-0.150333
 31
1.027916
 12
-0.236966
 22
-0.299946
 32
0.753418
 13
-0.236966
 23
-0.299946
 33
0.753418
 62
4
  0
3DFACE
  8
Cylinder
 10
-0.327213
 20
-0.088129
 30
0.819715
 11
-0.610629
 21
-0.150333
 31
1.027916
 12
-0.236965
 22
-0.095273
 32
0.753418
 13
-0.236965
 23
-0.095273
 33
0.753418
 62
4
  0
3DFACE
  8
Cylinder
 10
0.000014
 20
-0.047844
 30
0.780664
 11
0.850758
 21
-0.257313
 31
0.563619
 12
0.236688
 22
-0.095224
 32
0.753419
 13
0.236688
 23
-0.095224
 33
0.753419
 62
1
  0
3DFACE
  8
Cylinder
 10
0.326876
 20
-0.088084
 30
0.819673
 11
0.000014
 21
-0.047844
 31
0.780664
 12
0.236688
 22
-0.095224
 32
0.753419
 13
0.236688
 23
-0.095224
 33
0.753419
 62
1
  0
3DFACE
  8
Cylinder
 10
0.885030
 20
-0.175449
 30
0.829552
 11
0.236688
 21
-0.095224
 31
0.753419
 12
0.850758
 22
-0.257313
 32
0.563619
 13
0.850758
 23
-0.257313
 33
0.563619
 62
1
  0
3DFACE
  8
Cylinder
 10
0.948109
 20
-0.164563
 30
0.893813
 11
0.885030
 21
-0.175449
 31
0.829552
 12
0.850758
 22
-0.257313
 32
0.563619
 13
0.850758
 23
-0.257313
 33
0.563619
 62
1
  0
3DFACE
  8
Cylinder
 10
1.701501
 20
-0.257313
 30
0.983725
 11
0.948109
 21
-0.164563
 31
0.893813
 12
0.850758
 22
-0.257313
 32
0.563619
 13
0.850758
 23
-0.257313
 33
0.563619
 62
1
  0
3DFACE
  8
Cylinder
 10
1.267259
 20
-0.299946
 30
1.218942
 11
0.610351
 21
-0.299946
 31
1.027919
 12
0.236688
 22
-0.299946
 32
0.753419
 13
0.885030
 23
-0.299946
 33
0.829552
 62
2
  0
3DFACE
  8
Cylinder
 10
0.885030
 20
-0.299946
 30
0.829552
 11
0.236688
 21
-0.299946
 31
0.753419
 12
0.236688
 22
-0.095224
 32
0.753419
 13
0.885030
 23
-0.175449
 33
0.829552
 62
4
  0
3DFACE
  8
Cylinder
 10
0.610351
 20
-0.299946
 30
1.027919
 11
1.267259
 21
-0.299946
 31
1.218942
 12
1.267259
 22
-0.248813
 32
1.218942
 13
0.610352
 23
-0.150301
 33
1.027919
 62
4
  0
3DFACE
  8
Cylinder
 10
0.610352
 20
-0.150301
 30
1.027919
 11
0.236688
 21
-0.299946
 31
0.753419
 12
0.610351
 22
-0.299946
 32
1.027919
 13
0.610351
 23
-0.299946
 33
1.027919
 62
4
  0
3DFACE
  8
Cylinder
 10
0.236688
 20
-0.095224
 30
0.753419
 11
0.236688
 21
-0.299946
 31
0.753419
 12
0.610352
 22
-0.150301
 32
1.027919
 13
0.610352
 23
-0.150301
 33
1.027919
 62
4
  0
3DFACE
  8
Cylinder
 10
0.326876
 20
-0.088084
 30
0.819673
 11
0.236688
 21
-0.095224
 31
0.753419
 12
0.610352
 22
-0.150301
 32
1.027919
 13
0.610352
 23
-0.150301
 33
1.027919
 62
4
  0
3DFACE
  8
Cylinder
 10
1.267259
 20
-0.248813
 30
1.218942
 11
1.267259
 21
-0.299946
 31
1.218942
 12
0.885030
 22
-0.299946
 32
0.829552
 13
0.885030
 23
-0.299946
 33
0.829552
 62
4
  0
3DFACE
  8
Cylinder
 10
0.885030
 20
-0.175449
 30
0.829552
 11
1.267259
 21
-0.248813
 31
1.218942
 12
0.885030
 22
-0.299946
 32
0.829552
 13
0.885030
 23
-0.299946
 33
0.829552
 62
4
  0
3DFACE
  8
Cylinder
 10
0.948109
 20
-0.164563
 30
0.893813
 11
1.267259
 21
-0.248813
 31
1.218942
 12
0.885030
 22
-0.175449
 32
0.829552
 13
0.885030
 23
-0.175449
 33
0.829552
 62
4
  0
3DFACE
  8
LowerBody
 10
1.488958
 20
0.800885
 30
-1.425134
 11
1.488956
 21
-1.680907
 31
-1.922115
 12
2.316148
 22
-0.688189
 32
-0.596831
 13
2.316148
 23
-0.688189
 33
-0.596831
 62
0
  0
3DFACE
  8
LowerBody
 10
1.488958
 20
0.800885
 30
-1.425134
 11
-1.488927
 21
0.800886
 31
-1.425138
 12
-1.488930
 22
-1.680908
 32
-1.922121
 13
1.488956
 23
-1.680907
 33
-1.922115
 62
0
  0
3DFACE
  8
LowerBody
 10
1.488958
 20
0.800885
 30
-1.425134
 11
2.316148
 21
-0.688189
 31
-0.596831
 12
1.819834
 22
-0.688190
 32
-0.903304
 13
1.819834
 23
-0.688190
 33
-0.903304
 62
0
  0
3DFACE
  8
LowerBody
 10
1.819834
 20
-0.688190
 30
-0.903304
 11
2.316148
 21
-0.688189
 31
-0.596831
 12
2.067990
 22
-1.680907
 32
-0.596831
 13
2.067990
 23
-1.680907
 33
-0.596831
 62
0
  0
3DFACE
  8
LowerBody
 10
-2.067965
 20
-1.680907
 30
-0.596841
 11
-1.488930
 21
-1.680908
 31
-1.922121
 12
-2.316121
 22
-0.688191
 32
-0.596840
 13
-2.316121
 23
-0.688191
 33
-0.596840
 62
0
  0
3DFACE
  8
LowerBody
 10
-2.067965
 20
-1.680907
 30
-0.596841
 11
2.067990
 21
-1.680907
 31
-0.596831
 12
1.488956
 22
-1.680907
 32
-1.922115
 13
-1.488930
 23
-1.680908
 33
-1.922121
 62
0
  0
3DFACE
  8
LowerBody
 10
-1.488927
 20
0.800886
 30
-1.425138
 11
-2.316121
 21
-0.688191
 31
-0.596840
 12
-1.488930
 22
-1.680908
 32
-1.922121
 13
-1.488930
 23
-1.680908
 33
-1.922121
 62
0
  0
3DFACE
  8
LowerBody
 10
2.067990
 20
-1.680907
 30
-0.596831
 11
2.316148
 21
-0.688189
 31
-0.596831
 12
1.488956
 22
-1.680907
 32
-1.922115
 13
1.488956
 23
-1.680907
 33
-1.922115
 62
0
  0
3DFACE
  8
LowerBody
 10
-2.067965
 20
-1.680907
 30
-0.596841
 11
-2.316121
 21
-0.688191
 31
-0.596840
 12
-1.819807
 22
-0.688193
 32
-0.903310
 13
-1.819807
 23
-0.688193
 33
-0.903310
 62
0
  0
3DFACE
  8
LowerBody
 10
-1.819807
 20
-0.688193
 30
-0.903310
 11
-2.316121
 21
-0.688191
 31
-0.596840
 12
-1.488927
 22
0.800886
 32
-1.425138
 13
-1.488927
 23
0.800886
 33
-1.425138
 62
0
  0
3DFACE
  8
LowerBody
 10
2.067990
 20
-1.680907
 30
-0.596831
 11
-2.067965
 21
-1.680907
 31
-0.596841
 12
-1.819807
 22
-0.688193
 32
-0.903310
 13
1.819834
 23
-0.688190
 33
-0.903304
 62
0
  0
3DFACE
  8
LowerBody
 10
1.819834
 20
-0.688190
 30
-0.903304
 11
-1.819807
 21
-0.688193
 31
-0.903310
 12
-1.488927
 22
0.800886
 32
-1.425138
 13
1.488958
 23
0.800885
 33
-1.425134
 62
0
  0
3DFACE
  8
Cube1
 10
-1.540313
 20
-0.649969
 30
-1.104392
 11
-2.800579
 21
-0.649972
 31
-0.087523
 12
-2.800580
 22
-2.050266
 32
-0.416590
 13
-2.800580
 23
-2.050266
 33
-0.416590
 62
0
  0
3DFACE
  8
Cube1
 10
-2.800579
 20
-0.649972
 30
-0.087523
 11
-2.800578
 21
0.750323
 31
0.271178
 12
-2.800579
 22
-0.229881
 32
0.983697
 13
-2.800579
 23
-0.229881
 33
0.983697
 62
0
  0
3DFACE
  8
Cube1
 10
-2.800580
 20
-1.910236
 30
0.983697
 11
-2.800579
 21
-0.649972
 31
-0.087523
 12
-2.800579
 22
-0.229881
 32
0.983697
 13
-2.800579
 23
-0.229881
 33
0.983697
 62
0
  0
3DFACE
  8
Cube1
 10
-2.800580
 20
-2.050266
 30
-0.416590
 11
-2.800579
 21
-0.649972
 31
-0.087523
 12
-2.800580
 22
-1.910236
 32
0.983697
 13
-2.800580
 23
-1.910236
 33
0.983697
 62
0
  0
3DFACE
  8
Cube1
 10
-0.980195
 20
-1.770207
 30
0.349459
 11
0.980220
 21
-1.770207
 31
0.349463
 12
0.980220
 22
-2.050266
 32
-0.416583
 13
-0.980195
 23
-2.050266
 33
-0.416587
 62
0
  0
3DFACE
  8
Cube1
 10
0.980221
 20
-0.229881
 30
0.563618
 11
-0.980194
 21
-0.229881
 31
0.563614
 12
-0.980193
 22
0.750323
 32
0.271181
 13
0.980222
 23
0.750323
 33
0.271185
 62
0
  0
3DFACE
  8
Cube1
 10
0.980221
 20
-0.229881
 30
0.563618
 11
2.800606
 21
-0.229881
 31
0.983708
 12
2.800605
 22
-1.910236
 32
0.983708
 13
0.980220
 23
-1.770207
 33
0.349463
 62
0
  0
3DFACE
  8
Cube1
 10
2.800606
 20
-0.649970
 30
-0.087512
 11
2.800606
 21
-0.229881
 31
0.983708
 12
2.800607
 22
0.750323
 32
0.271189
 13
2.800607
 23
0.750323
 33
0.271189
 62
0
  0
3DFACE
  8
Cube1
 10
2.800605
 20
-1.910236
 30
0.983708
 11
2.800606
 21
-0.229881
 31
0.983708
 12
2.800606
 22
-0.649970
 32
-0.087512
 13
2.800606
 23
-0.649970
 33
-0.087512
 62
0
  0
3DFACE
  8
Cube1
 10
2.800605
 20
-2.050266
 30
-0.416580
 11
2.800605
 21
-1.910236
 31
0.983708
 12
2.800606
 22
-0.649970
 32
-0.087512
 13
2.800606
 23
-0.649970
 33
-0.087512
 62
0
  0
3DFACE
  8
Cube1
 10
-0.980195
 20
-1.770207
 30
0.349459
 11
-0.980194
 21
-0.229881
 31
0.563614
 12
0.980221
 22
-0.229881
 32
0.563618
 13
0.980220
 23
-1.770207
 33
0.349463
 62
0
  0
3DFACE
  8
Cube1
 10
-0.980194
 20
-0.229881
 30
0.563614
 11
-0.980195
 21
-1.770207
 31
0.349459
 12
-2.800580
 22
-1.910236
 32
0.983697
 13
-2.800579
 23
-0.229881
 33
0.983697
 62
0
  0
3DFACE
  8
Cube1
 10
2.800606
 20
-0.229881
 30
0.983708
 11
0.980222
 21
0.750323
 31
0.271185
 12
2.800607
 22
0.750323
 32
0.271189
 13
2.800607
 23
0.750323
 33
0.271189
 62
0
  0
3DFACE
  8
Cube1
 10
-0.980193
 20
0.750323
 30
0.271181
 11
-2.800579
 21
-0.229881
 31
0.983697
 12
-2.800578
 22
0.750323
 32
0.271178
 13
-2.800578
 23
0.750323
 33
0.271178
 62
0
  0
3DFACE
  8
Cube1
 10
-0.980195
 20
-1.770207
 30
0.349459
 11
-0.980195
 21
-2.050266
 31
-0.416587
 12
-2.800580
 22
-1.910236
 32
0.983697
 13
-2.800580
 23
-1.910236
 33
0.983697
 62
0
  0
3DFACE
  8
Cube1
 10
2.800605
 20
-2.050266
 30
-0.416580
 11
0.980220
 21
-2.050266
 31
-0.416583
 12
2.800605
 22
-1.910236
 32
0.983708
 13
2.800605
 23
-1.910236
 33
0.983708
 62
0
  0
3DFACE
  8
Cube1
 10
0.980222
 20
0.750323
 30
0.271185
 11
2.800606
 21
-0.229881
 31
0.983708
 12
0.980221
 22
-0.229881
 32
0.563618
 13
0.980221
 23
-0.229881
 33
0.563618
 62
0
  0
3DFACE
  8
Cube1
 10
-2.800579
 20
-0.229881
 30
0.983697
 11
-0.980193
 21
0.750323
 31
0.271181
 12
-0.980194
 22
-0.229881
 32
0.563614
 13
-0.980194
 23
-0.229881
 33
0.563614
 62
0
  0
3DFACE
  8
Cube1
 10
-2.800580
 20
-2.050266
 30
-0.416590
 11
-2.800580
 21
-1.910236
 31
0.983697
 12
-0.980195
 22
-2.050266
 32
-0.416587
 13
-0.980195
 23
-2.050266
 33
-0.416587
 62
0
  0
3DFACE
  8
Cube1
 10
0.980220
 20
-1.770207
 30
0.349463
 11
2.800605
 21
-1.910236
 31
0.983708
 12
0.980220
 22
-2.050266
 32
-0.416583
 13
0.980220
 23
-2.050266
 33
-0.416583
 62
0
  0
3DFACE
  8
Cube1
 10
-2.800578
 20
0.750323
 30
0.271178
 11
-2.800579
 21
-0.649972
 31
-0.087523
 12
-1.540313
 22
-0.649969
 32
-1.104392
 13
-1.540313
 23
-0.649969
 33
-1.104392
 62
0
  0
3DFACE
  8
Cube1
 10
1.540340
 20
-0.649970
 30
-1.104386
 11
2.800606
 21
-0.649970
 31
-0.087512
 12
2.800607
 22
0.750323
 32
0.271189
 13
2.800607
 23
0.750323
 33
0.271189
 62
0
  0
3DFACE
  8
Cube1
 10
2.800605
 20
-2.050266
 30
-0.416580
 11
2.800606
 21
-0.649970
 31
-0.087512
 12
1.540340
 22
-0.649970
 32
-1.104386
 13
1.540340
 23
-0.649970
 33
-1.104386
 62
0
  0
3DFACE
  8
Cube1
 10
-0.980193
 20
0.750323
 30
0.271181
 11
-2.800578
 21
0.750323
 31
0.271178
 12
-1.540313
 22
-0.649969
 32
-1.104392
 13
-1.540313
 23
-0.649969
 33
-1.104392
 62
0
  0
3DFACE
  8
Cube1
 10
0.980222
 20
0.750323
 30
0.271185
 11
-0.980193
 21
0.750323
 31
0.271181
 12
-1.540313
 22
-0.649969
 32
-1.104392
 13
-1.540313
 23
-0.649969
 33
-1.104392
 62
0
  0
3DFACE
  8
Cube1
 10
1.540340
 20
-0.649970
 30
-1.104386
 11
0.980222
 21
0.750323
 31
0.271185
 12
-1.540313
 22
-0.649969
 32
-1.104392
 13
-1.540313
 23
-0.649969
 33
-1.104392
 62
0
  0
3DFACE
  8
Cube1
 10
2.800607
 20
0.750323
 30
0.271189
 11
0.980222
 21
0.750323
 31
0.271185
 12
1.540340
 22
-0.649970
 32
-1.104386
 13
1.540340
 23
-0.649970
 33
-1.104386
 62
0
  0
3DFACE
  8
Cube1
 10
-0.980195
 20
-2.050266
 30
-0.416587
 11
-1.540313
 21
-0.649969
 31
-1.104392
 12
-2.800580
 22
-2.050266
 32
-0.416590
 13
-2.800580
 23
-2.050266
 33
-0.416590
 62
0
  0
3DFACE
  8
Cube1
 10
0.980220
 20
-2.050266
 30
-0.416583
 11
-1.540313
 21
-0.649969
 31
-1.104392
 12
-0.980195
 22
-2.050266
 32
-0.416587
 13
-0.980195
 23
-2.050266
 33
-0.416587
 62
0
  0
3DFACE
  8
Cube1
 10
1.540340
 20
-0.649970
 30
-1.104386
 11
-1.540313
 21
-0.649969
 31
-1.104392
 12
0.980220
 22
-2.050266
 32
-0.416583
 13
0.980220
 23
-2.050266
 33
-0.416583
 62
0
  0
3DFACE
  8
Cube1
 10
2.800605
 20
-2.050266
 30
-0.416580
 11
1.540340
 21
-0.649970
 31
-1.104386
 12
0.980220
 22
-2.050266
 32
-0.416583
 13
0.980220
 23
-2.050266
 33
-0.416583
 62
0
  0
3DFACE
  8
Cube2
 10
-2.800581
 20
-1.434148
 30
1.193743
 11
-2.800581
 21
-0.257898
 31
1.193742
 12
-2.800581
 22
-0.061856
 32
-1.389811
 13
-2.800581
 23
-1.238106
 33
-1.389811
 62
0
  0
3DFACE
  8
Cube2
 10
-2.800581
 20
-0.061856
 30
-1.389811
 11
-3.570744
 21
-0.061856
 31
-1.389812
 12
-3.570744
 22
-1.238106
 32
-1.389812
 13
-2.800581
 23
-1.238106
 33
-1.389811
 62
0
  0
3DFACE
  8
Cube2
 10
-3.570744
 20
-0.061856
 30
-1.389812
 11
-2.800581
 21
-0.061856
 31
-1.389811
 12
-3.500729
 22
-0.257898
 32
0.352584
 13
-3.500729
 23
-0.257898
 33
0.352584
 62
0
  0
3DFACE
  8
Cube2
 10
-2.800581
 20
-1.434148
 30
1.193743
 11
-3.500730
 21
-1.434148
 31
0.352584
 12
-3.500729
 22
-0.257898
 32
0.352584
 13
-2.800581
 23
-0.257898
 33
1.193742
 62
0
  0
3DFACE
  8
Cube2
 10
-3.500729
 20
-0.257898
 30
0.352584
 11
-3.500730
 21
-1.434148
 31
0.352584
 12
-3.570744
 22
-1.238106
 32
-1.389812
 13
-3.570744
 23
-0.061856
 33
-1.389812
 62
0
  0
3DFACE
  8
Cube2
 10
-3.500730
 20
-1.434148
 30
0.352584
 11
-2.800581
 21
-1.434148
 31
1.193743
 12
-2.800581
 22
-1.238106
 32
-1.389811
 13
-2.800581
 23
-1.238106
 33
-1.389811
 62
0
  0
3DFACE
  8
Cube2
 10
-2.800581
 20
-0.257898
 30
1.193742
 11
-3.500729
 21
-0.257898
 31
0.352584
 12
-2.800581
 22
-0.061856
 32
-1.389811
 13
-2.800581
 23
-0.061856
 33
-1.389811
 62
0
  0
3DFACE
  8
Cube2
 10
-2.800581
 20
-1.238106
 30
-1.389811
 11
-3.570744
 21
-1.238106
 31
-1.389812
 12
-3.500730
 22
-1.434148
 32
0.352584
 13
-3.500730
 23
-1.434148
 33
0.352584
 62
0
  0
3DFACE
  8
Cylinder1
 10
-2.700485
 20
-0.942531
 30
-1.389789
 11
-2.700484
 21
0.780575
 31
-1.389789
 12
-3.292107
 22
0.780573
 32
-2.383995
 13
-3.292115
 23
-1.187278
 33
-2.187987
 62
0
  0
3DFACE
  8
Cylinder1
 10
-3.883737
 20
-0.942531
 30
-1.389791
 11
-3.883736
 21
0.780574
 31
-1.389791
 12
-2.700484
 22
0.780575
 32
-1.389789
 13
-2.700485
 23
-0.942531
 33
-1.389789
 62
0
  0
3DFACE
  8
Cylinder1
 10
-3.292115
 20
-1.187278
 30
-2.187987
 11
-3.292107
 21
0.780573
 31
-2.383995
 12
-3.883736
 22
0.780574
 32
-1.389791
 13
-3.883737
 23
-0.942531
 33
-1.389791
 62
0
  0
3DFACE
  8
Cylinder1
 10
-3.883737
 20
-0.942531
 30
-1.389791
 11
-2.700485
 21
-0.942531
 31
-1.389789
 12
-3.292115
 22
-1.187278
 32
-2.187987
 13
-3.292115
 23
-1.187278
 33
-2.187987
 62
0
  0
3DFACE
  8
Cylinder1
 10
-3.292107
 20
0.780573
 30
-2.383995
 11
-2.700484
 21
0.780575
 31
-1.389789
 12
-3.883736
 22
0.780574
 32
-1.389791
 13
-3.883736
 23
0.780574
 33
-1.389791
 62
0
  0
3DFACE
  8
Cylinder6
 10
-3.563791
 20
2.050265
 30
-1.850970
 11
-3.586116
 21
2.050265
 31
-1.738733
 12
-3.586116
 22
0.591435
 32
-1.738733
 13
-3.563790
 23
0.591435
 33
-1.850969
 62
0
  0
3DFACE
  8
Cylinder6
 10
-3.500214
 20
2.050265
 30
-1.946119
 11
-3.563791
 21
2.050265
 31
-1.850970
 12
-3.563790
 22
0.591435
 32
-1.850969
 13
-3.500214
 23
0.591435
 33
-1.946119
 62
0
  0
3DFACE
  8
Cylinder6
 10
-3.405065
 20
2.050265
 30
-2.009696
 11
-3.500214
 21
2.050265
 31
-1.946119
 12
-3.500214
 22
0.591435
 32
-1.946119
 13
-3.405064
 23
0.591435
 33
-2.009695
 62
0
  0
3DFACE
  8
Cylinder6
 10
-3.292828
 20
2.050265
 30
-2.032022
 11
-3.405065
 21
2.050265
 31
-2.009696
 12
-3.405064
 22
0.591435
 32
-2.009695
 13
-3.292828
 23
0.591435
 33
-2.032020
 62
0
  0
3DFACE
  8
Cylinder6
 10
-3.180592
 20
2.050265
 30
-2.009696
 11
-3.292828
 21
2.050265
 31
-2.032022
 12
-3.292828
 22
0.591435
 32
-2.032020
 13
-3.180592
 23
0.591435
 33
-2.009695
 62
0
  0
3DFACE
  8
Cylinder6
 10
-3.085442
 20
2.050265
 30
-1.946119
 11
-3.180592
 21
2.050265
 31
-2.009696
 12
-3.180592
 22
0.591435
 32
-2.009695
 13
-3.085442
 23
0.591435
 33
-1.946119
 62
0
  0
3DFACE
  8
Cylinder6
 10
-3.021865
 20
2.050265
 30
-1.850970
 11
-3.085442
 21
2.050265
 31
-1.946119
 12
-3.085442
 22
0.591435
 32
-1.946119
 13
-3.021866
 23
0.591435
 33
-1.850969
 62
0
  0
3DFACE
  8
Cylinder6
 10
-2.999540
 20
2.050265
 30
-1.738733
 11
-3.021865
 21
2.050265
 31
-1.850970
 12
-3.021866
 22
0.591435
 32
-1.850969
 13
-2.999541
 23
0.591435
 33
-1.738733
 62
0
  0
3DFACE
  8
Cylinder6
 10
-3.021865
 20
2.050265
 30
-1.626497
 11
-2.999540
 21
2.050265
 31
-1.738733
 12
-2.999541
 22
0.591435
 32
-1.738733
 13
-3.021866
 23
0.591435
 33
-1.626497
 62
0
  0
3DFACE
  8
Cylinder6
 10
-3.085442
 20
2.050265
 30
-1.531347
 11
-3.021865
 21
2.050265
 31
-1.626497
 12
-3.021866
 22
0.591435
 32
-1.626497
 13
-3.085442
 23
0.591435
 33
-1.531348
 62
0
  0
3DFACE
  8
Cylinder6
 10
-3.180592
 20
2.050265
 30
-1.467770
 11
-3.085442
 21
2.050265
 31
-1.531347
 12
-3.085442
 22
0.591435
 32
-1.531348
 13
-3.180592
 23
0.591435
 33
-1.467771
 62
0
  0
3DFACE
  8
Cylinder6
 10
-3.292828
 20
2.050265
 30
-1.445445
 11
-3.180592
 21
2.050265
 31
-1.467770
 12
-3.180592
 22
0.591435
 32
-1.467771
 13
-3.292828
 23
0.591435
 33
-1.445446
 62
0
  0
3DFACE
  8
Cylinder6
 10
-3.405065
 20
2.050265
 30
-1.467770
 11
-3.292828
 21
2.050265
 31
-1.445445
 12
-3.292828
 22
0.591435
 32
-1.445446
 13
-3.405064
 23
0.591435
 33
-1.467771
 62
0
  0
3DFACE
  8
Cylinder6
 10
-3.500214
 20
2.050265
 30
-1.531347
 11
-3.405065
 21
2.050265
 31
-1.467770
 12
-3.405064
 22
0.591435
 32
-1.467771
 13
-3.500214
 23
0.591435
 33
-1.531348
 62
0
  0
3DFACE
  8
Cylinder6
 10
-3.563791
 20
2.050265
 30
-1.626497
 11
-3.500214
 21
2.050265
 31
-1.531347
 12
-3.500214
 22
0.591435
 32
-1.531348
 13
-3.563790
 23
0.591435
 33
-1.626497
 62
0
  0
3DFACE
  8
Cylinder6
 10
-3.586116
 20
2.050265
 30
-1.738733
 11
-3.563791
 21
2.050265
 31
-1.626497
 12
-3.563790
 22
0.591435
 32
-1.626497
 13
-3.586116
 23
0.591435
 33
-1.738733
 62
0
  0
3DFACE
  8
Cylinder6
 10
-3.405064
 20
0.591435
 30
-2.009695
 11
-3.180592
 21
0.591435
 31
-2.009695
 12
-3.292828
 22
0.591435
 32
-2.032020
 13
-3.292828
 23
0.591435
 33
-2.032020
 62
0
  0
3DFACE
  8
Cylinder6
 10
-3.085442
 20
0.591435
 30
-1.946119
 11
-3.180592
 21
0.591435
 31
-2.009695
 12
-3.405064
 22
0.591435
 32
-2.009695
 13
-3.405064
 23
0.591435
 33
-2.009695
 62
0
  0
3DFACE
  8
Cylinder6
 10
-3.500214
 20
0.591435
 30
-1.946119
 11
-3.085442
 21
0.591435
 31
-1.946119
 12
-3.405064
 22
0.591435
 32
-2.009695
 13
-3.405064
 23
0.591435
 33
-2.009695
 62
0
  0
3DFACE
  8
Cylinder6
 10
-3.021866
 20
0.591435
 30
-1.850969
 11
-3.085442
 21
0.591435
 31
-1.946119
 12
-3.500214
 22
0.591435
 32
-1.946119
 13
-3.500214
 23
0.591435
 33
-1.946119
 62
0
  0
3DFACE
  8
Cylinder6
 10
-3.563790
 20
0.591435
 30
-1.850969
 11
-3.021866
 21
0.591435
 31
-1.850969
 12
-3.500214
 22
0.591435
 32
-1.946119
 13
-3.500214
 23
0.591435
 33
-1.946119
 62
0
  0
3DFACE
  8
Cylinder6
 10
-3.586116
 20
0.591435
 30
-1.738733
 11
-3.021866
 21
0.591435
 31
-1.850969
 12
-3.563790
 22
0.591435
 32
-1.850969
 13
-3.563790
 23
0.591435
 33
-1.850969
 62
0
  0
3DFACE
  8
Cylinder6
 10
-2.999541
 20
0.591435
 30
-1.738733
 11
-3.021866
 21
0.591435
 31
-1.850969
 12
-3.586116
 22
0.591435
 32
-1.738733
 13
-3.586116
 23
0.591435
 33
-1.738733
 62
0
  0
3DFACE
  8
Cylinder6
 10
-3.021866
 20
0.591435
 30
-1.626497
 11
-2.999541
 21
0.591435
 31
-1.738733
 12
-3.586116
 22
0.591435
 32
-1.738733
 13
-3.586116
 23
0.591435
 33
-1.738733
 62
0
  0
3DFACE
  8
Cylinder6
 10
-3.563790
 20
0.591435
 30
-1.626497
 11
-3.021866
 21
0.591435
 31
-1.626497
 12
-3.586116
 22
0.591435
 32
-1.738733
 13
-3.586116
 23
0.591435
 33
-1.738733
 62
0
  0
3DFACE
  8
Cylinder6
 10
-3.085442
 20
0.591435
 30
-1.531348
 11
-3.021866
 21
0.591435
 31
-1.626497
 12
-3.563790
 22
0.591435
 32
-1.626497
 13
-3.563790
 23
0.591435
 33
-1.626497
 62
0
  0
3DFACE
  8
Cylinder6
 10
-3.500214
 20
0.591435
 30
-1.531348
 11
-3.085442
 21
0.591435
 31
-1.531348
 12
-3.563790
 22
0.591435
 32
-1.626497
 13
-3.563790
 23
0.591435
 33
-1.626497
 62
0
  0
3DFACE
  8
Cylinder6
 10
-3.180592
 20
0.591435
 30
-1.467771
 11
-3.085442
 21
0.591435
 31
-1.531348
 12
-3.500214
 22
0.591435
 32
-1.531348
 13
-3.500214
 23
0.591435
 33
-1.531348
 62
0
  0
3DFACE
  8
Cylinder6
 10
-3.405064
 20
0.591435
 30
-1.467771
 11
-3.180592
 21
0.591435
 31
-1.467771
 12
-3.500214
 22
0.591435
 32
-1.531348
 13
-3.500214
 23
0.591435
 33
-1.531348
 62
0
  0
3DFACE
  8
Cylinder6
 10
-3.292828
 20
0.591435
 30
-1.445446
 11
-3.180592
 21
0.591435
 31
-1.467771
 12
-3.405064
 22
0.591435
 32
-1.467771
 13
-3.405064
 23
0.591435
 33
-1.467771
 62
0
  0
3DFACE
  8
Cylinder6
 10
-3.364980
 20
2.050265
 30
-1.912924
 11
-3.500214
 21
2.050265
 31
-1.946119
 12
-3.292828
 22
2.050265
 32
-1.927276
 13
-3.292828
 23
2.050265
 33
-1.927276
 62
0
  0
3DFACE
  8
Cylinder6
 10
-3.426148
 20
2.050265
 30
-1.872053
 11
-3.500214
 21
2.050265
 31
-1.946119
 12
-3.364980
 22
2.050265
 32
-1.912924
 13
-3.364980
 23
2.050265
 33
-1.912924
 62
0
  0
3DFACE
  8
Cylinder6
 10
-3.563791
 20
2.050265
 30
-1.850970
 11
-3.500214
 21
2.050265
 31
-1.946119
 12
-3.426148
 22
2.050265
 32
-1.872053
 13
-3.426148
 23
2.050265
 33
-1.872053
 62
0
  0
3DFACE
  8
Cylinder6
 10
-3.467019
 20
2.050265
 30
-1.810885
 11
-3.563791
 21
2.050265
 31
-1.850970
 12
-3.426148
 22
2.050265
 32
-1.872053
 13
-3.426148
 23
2.050265
 33
-1.872053
 62
0
  0
3DFACE
  8
Cylinder6
 10
-3.586116
 20
2.050265
 30
-1.738733
 11
-3.563791
 21
2.050265
 31
-1.850970
 12
-3.467019
 22
2.050265
 32
-1.810885
 13
-3.467019
 23
2.050265
 33
-1.810885
 62
0
  0
3DFACE
  8
Cylinder6
 10
-3.481370
 20
2.050265
 30
-1.738733
 11
-3.586116
 21
2.050265
 31
-1.738733
 12
-3.467019
 22
2.050265
 32
-1.810885
 13
-3.467019
 23
2.050265
 33
-1.810885
 62
0
  0
3DFACE
  8
Cylinder6
 10
-3.467019
 20
2.050265
 30
-1.666581
 11
-3.586116
 21
2.050265
 31
-1.738733
 12
-3.481370
 22
2.050265
 32
-1.738733
 13
-3.481370
 23
2.050265
 33
-1.738733
 62
0
  0
3DFACE
  8
Cylinder6
 10
-3.563791
 20
2.050265
 30
-1.626497
 11
-3.586116
 21
2.050265
 31
-1.738733
 12
-3.467019
 22
2.050265
 32
-1.666581
 13
-3.467019
 23
2.050265
 33
-1.666581
 62
0
  0
3DFACE
  8
Cylinder6
 10
-3.426148
 20
2.050265
 30
-1.605414
 11
-3.563791
 21
2.050265
 31
-1.626497
 12
-3.467019
 22
2.050265
 32
-1.666581
 13
-3.467019
 23
2.050265
 33
-1.666581
 62
0
  0
3DFACE
  8
Cylinder6
 10
-3.364980
 20
2.050265
 30
-1.564543
 11
-3.563791
 21
2.050265
 31
-1.626497
 12
-3.426148
 22
2.050265
 32
-1.605414
 13
-3.426148
 23
2.050265
 33
-1.605414
 62
0
  0
3DFACE
  8
Cylinder6
 10
-3.500214
 20
2.050265
 30
-1.531347
 11
-3.563791
 21
2.050265
 31
-1.626497
 12
-3.364980
 22
2.050265
 32
-1.564543
 13
-3.364980
 23
2.050265
 33
-1.564543
 62
0
  0
3DFACE
  8
Cylinder6
 10
-3.500214
 20
2.050265
 30
-1.531347
 11
-3.364980
 21
2.050265
 31
-1.564543
 12
-3.292828
 22
2.050265
 32
-1.550191
 13
-3.292828
 23
2.050265
 33
-1.550191
 62
0
  0
3DFACE
  8
Cylinder6
 10
-3.085442
 20
2.050265
 30
-1.531347
 11
-3.500214
 21
2.050265
 31
-1.531347
 12
-3.292828
 22
2.050265
 32
-1.550191
 13
-3.292828
 23
2.050265
 33
-1.550191
 62
0
  0
3DFACE
  8
Cylinder6
 10
-3.405065
 20
2.050265
 30
-1.467770
 11
-3.500214
 21
2.050265
 31
-1.531347
 12
-3.085442
 22
2.050265
 32
-1.531347
 13
-3.085442
 23
2.050265
 33
-1.531347
 62
0
  0
3DFACE
  8
Cylinder6
 10
-3.180592
 20
2.050265
 30
-1.467770
 11
-3.405065
 21
2.050265
 31
-1.467770
 12
-3.085442
 22
2.050265
 32
-1.531347
 13
-3.085442
 23
2.050265
 33
-1.531347
 62
0
  0
3DFACE
  8
Cylinder6
 10
-3.292828
 20
2.050265
 30
-1.445445
 11
-3.405065
 21
2.050265
 31
-1.467770
 12
-3.180592
 22
2.050265
 32
-1.467770
 13
-3.180592
 23
2.050265
 33
-1.467770
 62
0
  0
3DFACE
  8
Cylinder6
 10
-3.180592
 20
2.050265
 30
-2.009696
 11
-3.405065
 21
2.050265
 31
-2.009696
 12
-3.292828
 22
2.050265
 32
-2.032022
 13
-3.292828
 23
2.050265
 33
-2.032022
 62
0
  0
3DFACE
  8
Cylinder6
 10
-3.500214
 20
2.050265
 30
-1.946119
 11
-3.405065
 21
2.050265
 31
-2.009696
 12
-3.180592
 22
2.050265
 32
-2.009696
 13
-3.180592
 23
2.050265
 33
-2.009696
 62
0
  0
3DFACE
  8
Cylinder6
 10
-3.085442
 20
2.050265
 30
-1.946119
 11
-3.500214
 21
2.050265
 31
-1.946119
 12
-3.180592
 22
2.050265
 32
-2.009696
 13
-3.180592
 23
2.050265
 33
-2.009696
 62
0
  0
3DFACE
  8
Cylinder6
 10
-3.292828
 20
2.050265
 30
-1.927276
 11
-3.500214
 21
2.050265
 31
-1.946119
 12
-3.085442
 22
2.050265
 32
-1.946119
 13
-3.085442
 23
2.050265
 33
-1.946119
 62
0
  0
3DFACE
  8
Cylinder6
 10
-3.220676
 20
2.050265
 30
-1.912924
 11
-3.292828
 21
2.050265
 31
-1.927276
 12
-3.085442
 22
2.050265
 32
-1.946119
 13
-3.085442
 23
2.050265
 33
-1.946119
 62
0
  0
3DFACE
  8
Cylinder6
 10
-3.159508
 20
2.050265
 30
-1.872053
 11
-3.220676
 21
2.050265
 31
-1.912924
 12
-3.085442
 22
2.050265
 32
-1.946119
 13
-3.085442
 23
2.050265
 33
-1.946119
 62
0
  0
3DFACE
  8
Cylinder6
 10
-3.021865
 20
2.050265
 30
-1.850970
 11
-3.159508
 21
2.050265
 31
-1.872053
 12
-3.085442
 22
2.050265
 32
-1.946119
 13
-3.085442
 23
2.050265
 33
-1.946119
 62
0
  0
3DFACE
  8
Cylinder6
 10
-3.118638
 20
2.050265
 30
-1.810885
 11
-3.159508
 21
2.050265
 31
-1.872053
 12
-3.021865
 22
2.050265
 32
-1.850970
 13
-3.021865
 23
2.050265
 33
-1.850970
 62
0
  0
3DFACE
  8
Cylinder6
 10
-3.104286
 20
2.050265
 30
-1.738733
 11
-3.118638
 21
2.050265
 31
-1.810885
 12
-3.021865
 22
2.050265
 32
-1.850970
 13
-3.021865
 23
2.050265
 33
-1.850970
 62
0
  0
3DFACE
  8
Cylinder6
 10
-2.999540
 20
2.050265
 30
-1.738733
 11
-3.104286
 21
2.050265
 31
-1.738733
 12
-3.021865
 22
2.050265
 32
-1.850970
 13
-3.021865
 23
2.050265
 33
-1.850970
 62
0
  0
3DFACE
  8
Cylinder6
 10
-3.118638
 20
2.050265
 30
-1.666581
 11
-3.104286
 21
2.050265
 31
-1.738733
 12
-2.999540
 22
2.050265
 32
-1.738733
 13
-2.999540
 23
2.050265
 33
-1.738733
 62
0
  0
3DFACE
  8
Cylinder6
 10
-3.021865
 20
2.050265
 30
-1.626497
 11
-3.118638
 21
2.050265
 31
-1.666581
 12
-2.999540
 22
2.050265
 32
-1.738733
 13
-2.999540
 23
2.050265
 33
-1.738733
 62
0
  0
3DFACE
  8
Cylinder6
 10
-3.159508
 20
2.050265
 30
-1.605414
 11
-3.118638
 21
2.050265
 31
-1.666581
 12
-3.021865
 22
2.050265
 32
-1.626497
 13
-3.021865
 23
2.050265
 33
-1.626497
 62
0
  0
3DFACE
  8
Cylinder6
 10
-3.220676
 20
2.050265
 30
-1.564543
 11
-3.159508
 21
2.050265
 31
-1.605414
 12
-3.021865
 22
2.050265
 32
-1.626497
 13
-3.021865
 23
2.050265
 33
-1.626497
 62
0
  0
3DFACE
  8
Cylinder6
 10
-3.085442
 20
2.050265
 30
-1.531347
 11
-3.220676
 21
2.050265
 31
-1.564543
 12
-3.021865
 22
2.050265
 32
-1.626497
 13
-3.021865
 23
2.050265
 33
-1.626497
 62
0
  0
3DFACE
  8
Cylinder6
 10
-3.085442
 20
2.050265
 30
-1.531347
 11
-3.292828
 21
2.050265
 31
-1.550191
 12
-3.220676
 22
2.050265
 32
-1.564543
 13
-3.220676
 23
2.050265
 33
-1.564543
 62
0
  0
3DFACE
  8
Cylinder6
 10
-3.118639
 20
0.837336
 30
-1.666581
 11
-3.104287
 21
0.837336
 31
-1.738733
 12
-3.104286
 22
2.050265
 32
-1.738733
 13
-3.118638
 23
2.050265
 33
-1.666581
 62
1
  0
3DFACE
  8
Cylinder6
 10
-3.159509
 20
0.837336
 30
-1.605413
 11
-3.118639
 21
0.837336
 31
-1.666581
 12
-3.118638
 22
2.050265
 32
-1.666581
 13
-3.159508
 23
2.050265
 33
-1.605414
 62
1
  0
3DFACE
  8
Cylinder6
 10
-3.220676
 20
0.837336
 30
-1.564542
 11
-3.159509
 21
0.837336
 31
-1.605413
 12
-3.159508
 22
2.050265
 32
-1.605414
 13
-3.220676
 23
2.050265
 33
-1.564543
 62
1
  0
3DFACE
  8
Cylinder6
 10
-3.292828
 20
0.837336
 30
-1.550190
 11
-3.220676
 21
0.837336
 31
-1.564542
 12
-3.220676
 22
2.050265
 32
-1.564543
 13
-3.292828
 23
2.050265
 33
-1.550191
 62
1
  0
3DFACE
  8
Cylinder6
 10
-3.364980
 20
0.837336
 30
-1.564542
 11
-3.292828
 21
0.837336
 31
-1.550190
 12
-3.292828
 22
2.050265
 32
-1.550191
 13
-3.364980
 23
2.050265
 33
-1.564543
 62
1
  0
3DFACE
  8
Cylinder6
 10
-3.426147
 20
0.837336
 30
-1.605413
 11
-3.364980
 21
0.837336
 31
-1.564542
 12
-3.364980
 22
2.050265
 32
-1.564543
 13
-3.426148
 23
2.050265
 33
-1.605414
 62
1
  0
3DFACE
  8
Cylinder6
 10
-3.467017
 20
0.837336
 30
-1.666581
 11
-3.426147
 21
0.837336
 31
-1.605413
 12
-3.426148
 22
2.050265
 32
-1.605414
 13
-3.467019
 23
2.050265
 33
-1.666581
 62
1
  0
3DFACE
  8
Cylinder6
 10
-3.481369
 20
0.837336
 30
-1.738733
 11
-3.467017
 21
0.837336
 31
-1.666581
 12
-3.467019
 22
2.050265
 32
-1.666581
 13
-3.481370
 23
2.050265
 33
-1.738733
 62
1
  0
3DFACE
  8
Cylinder6
 10
-3.220676
 20
0.837336
 30
-1.912924
 11
-3.364980
 21
0.837336
 31
-1.912924
 12
-3.292828
 22
0.837336
 32
-1.927276
 13
-3.292828
 23
0.837336
 33
-1.927276
 62
1
  0
3DFACE
  8
Cylinder6
 10
-3.426147
 20
0.837336
 30
-1.872053
 11
-3.364980
 21
0.837336
 31
-1.912924
 12
-3.220676
 22
0.837336
 32
-1.912924
 13
-3.220676
 23
0.837336
 33
-1.912924
 62
1
  0
3DFACE
  8
Cylinder6
 10
-3.159509
 20
0.837336
 30
-1.872053
 11
-3.426147
 21
0.837336
 31
-1.872053
 12
-3.220676
 22
0.837336
 32
-1.912924
 13
-3.220676
 23
0.837336
 33
-1.912924
 62
1
  0
3DFACE
  8
Cylinder6
 10
-3.467017
 20
0.837336
 30
-1.810885
 11
-3.426147
 21
0.837336
 31
-1.872053
 12
-3.159509
 22
0.837336
 32
-1.872053
 13
-3.159509
 23
0.837336
 33
-1.872053
 62
1
  0
3DFACE
  8
Cylinder6
 10
-3.118639
 20
0.837336
 30
-1.810885
 11
-3.467017
 21
0.837336
 31
-1.810885
 12
-3.159509
 22
0.837336
 32
-1.872053
 13
-3.159509
 23
0.837336
 33
-1.872053
 62
1
  0
3DFACE
  8
Cylinder6
 10
-3.481369
 20
0.837336
 30
-1.738733
 11
-3.467017
 21
0.837336
 31
-1.810885
 12
-3.118639
 22
0.837336
 32
-1.810885
 13
-3.118639
 23
0.837336
 33
-1.810885
 62
1
  0
3DFACE
  8
Cylinder6
 10
-3.104287
 20
0.837336
 30
-1.738733
 11
-3.481369
 21
0.837336
 31
-1.738733
 12
-3.118639
 22
0.837336
 32
-1.810885
 13
-3.118639
 23
0.837336
 33
-1.810885
 62
1
  0
3DFACE
  8
Cylinder6
 10
-3.467017
 20
0.837336
 30
-1.666581
 11
-3.481369
 21
0.837336
 31
-1.738733
 12
-3.104287
 22
0.837336
 32
-1.738733
 13
-3.104287
 23
0.837336
 33
-1.738733
 62
1
  0
3DFACE
  8
Cylinder6
 10
-3.118639
 20
0.837336
 30
-1.666581
 11
-3.467017
 21
0.837336
 31
-1.666581
 12
-3.104287
 22
0.837336
 32
-1.738733
 13
-3.104287
 23
0.837336
 33
-1.738733
 62
1
  0
3DFACE
  8
Cylinder6
 10
-3.426147
 20
0.837336
 30
-1.605413
 11
-3.467017
 21
0.837336
 31
-1.666581
 12
-3.118639
 22
0.837336
 32
-1.666581
 13
-3.118639
 23
0.837336
 33
-1.666581
 62
1
  0
3DFACE
  8
Cylinder6
 10
-3.159509
 20
0.837336
 30
-1.605413
 11
-3.426147
 21
0.837336
 31
-1.605413
 12
-3.118639
 22
0.837336
 32
-1.666581
 13
-3.118639
 23
0.837336
 33
-1.666581
 62
1
  0
3DFACE
  8
Cylinder6
 10
-3.364980
 20
0.837336
 30
-1.564542
 11
-3.426147
 21
0.837336
 31
-1.605413
 12
-3.159509
 22
0.837336
 32
-1.605413
 13
-3.159509
 23
0.837336
 33
-1.605413
 62
1
  0
3DFACE
  8
Cylinder6
 10
-3.220676
 20
0.837336
 30
-1.564542
 11
-3.364980
 21
0.837336
 31
-1.564542
 12
-3.159509
 22
0.837336
 32
-1.605413
 13
-3.159509
 23
0.837336
 33
-1.605413
 62
1
  0
3DFACE
  8
Cylinder6
 10
-3.292828
 20
0.837336
 30
-1.550190
 11
-3.364980
 21
0.837336
 31
-1.564542
 12
-3.220676
 22
0.837336
 32
-1.564542
 13
-3.220676
 23
0.837336
 33
-1.564542
 62
1
  0
3DFACE
  8
Cylinder6
 10
-3.118639
 20
0.837336
 30
-1.810885
 11
-3.159509
 21
0.837336
 31
-1.872053
 12
-3.159508
 22
2.050265
 32
-1.872053
 13
-3.118638
 23
2.050265
 33
-1.810885
 62
1
  0
3DFACE
  8
Cylinder6
 10
-3.104287
 20
0.837336
 30
-1.738733
 11
-3.118639
 21
0.837336
 31
-1.810885
 12
-3.118638
 22
2.050265
 32
-1.810885
 13
-3.104286
 23
2.050265
 33
-1.738733
 62
1
  0
3DFACE
  8
Cylinder6
 10
-3.159509
 20
0.837336
 30
-1.872053
 11
-3.220676
 21
0.837336
 31
-1.912924
 12
-3.220676
 22
2.050265
 32
-1.912924
 13
-3.159508
 23
2.050265
 33
-1.872053
 62
1
  0
3DFACE
  8
Cylinder6
 10
-3.220676
 20
0.837336
 30
-1.912924
 11
-3.292828
 21
0.837336
 31
-1.927276
 12
-3.292828
 22
2.050265
 32
-1.927276
 13
-3.220676
 23
2.050265
 33
-1.912924
 62
1
  0
3DFACE
  8
Cylinder6
 10
-3.292828
 20
0.837336
 30
-1.927276
 11
-3.364980
 21
0.837336
 31
-1.912924
 12
-3.364980
 22
2.050265
 32
-1.912924
 13
-3.292828
 23
2.050265
 33
-1.927276
 62
1
  0
3DFACE
  8
Cylinder6
 10
-3.364980
 20
0.837336
 30
-1.912924
 11
-3.426147
 21
0.837336
 31
-1.872053
 12
-3.426148
 22
2.050265
 32
-1.872053
 13
-3.364980
 23
2.050265
 33
-1.912924
 62
1
  0
3DFACE
  8
Cylinder6
 10
-3.426147
 20
0.837336
 30
-1.872053
 11
-3.467017
 21
0.837336
 31
-1.810885
 12
-3.467019
 22
2.050265
 32
-1.810885
 13
-3.426148
 23
2.050265
 33
-1.872053
 62
1
  0
3DFACE
  8
Cylinder6
 10
-3.467017
 20
0.837336
 30
-1.810885
 11
-3.481369
 21
0.837336
 31
-1.738733
 12
-3.481370
 22
2.050265
 32
-1.738733
 13
-3.467019
 23
2.050265
 33
-1.810885
 62
1
  0
3DFACE
  8
RUArm
 10
2.800607
 20
-1.238099
 30
-1.389800
 11
2.800607
 21
-0.061849
 31
-1.389800
 12
2.800607
 22
-0.257891
 32
1.193753
 13
2.800607
 23
-1.434140
 33
1.193753
 62
0
  0
3DFACE
  8
RUArm
 10
2.800607
 20
-1.238099
 30
-1.389800
 11
3.570770
 21
-1.238099
 31
-1.389799
 12
3.570770
 22
-0.061849
 32
-1.389799
 13
2.800607
 23
-0.061849
 33
-1.389800
 62
0
  0
3DFACE
  8
RUArm
 10
3.500755
 20
-0.257890
 30
0.352597
 11
2.800607
 21
-0.061849
 31
-1.389800
 12
3.570770
 22
-0.061849
 32
-1.389799
 13
3.570770
 23
-0.061849
 33
-1.389799
 62
0
  0
3DFACE
  8
RUArm
 10
2.800607
 20
-0.257891
 30
1.193753
 11
3.500755
 21
-0.257890
 31
0.352597
 12
3.500755
 22
-1.434140
 32
0.352597
 13
2.800607
 23
-1.434140
 33
1.193753
 62
0
  0
3DFACE
  8
RUArm
 10
3.570770
 20
-0.061849
 30
-1.389799
 11
3.570770
 21
-1.238099
 31
-1.389799
 12
3.500755
 22
-1.434140
 32
0.352597
 13
3.500755
 23
-0.257890
 33
0.352597
 62
0
  0
3DFACE
  8
RUArm
 10
2.800607
 20
-1.238099
 30
-1.389800
 11
2.800607
 21
-1.434140
 31
1.193753
 12
3.500755
 22
-1.434140
 32
0.352597
 13
3.500755
 23
-1.434140
 33
0.352597
 62
0
  0
3DFACE
  8
RUArm
 10
2.800607
 20
-0.061849
 30
-1.389800
 11
3.500755
 21
-0.257890
 31
0.352597
 12
2.800607
 22
-0.257891
 32
1.193753
 13
2.800607
 23
-0.257891
 33
1.193753
 62
0
  0
3DFACE
  8
RUArm
 10
3.500755
 20
-1.434140
 30
0.352597
 11
3.570770
 21
-1.238099
 31
-1.389799
 12
2.800607
 22
-1.238099
 32
-1.389800
 13
2.800607
 23
-1.238099
 33
-1.389800
 62
0
  0
3DFACE
  8
Cylinder2
 10
3.883736
 20
-0.942523
 30
-1.389777
 11
3.883740
 21
0.780578
 31
-1.389768
 12
3.292117
 22
0.780576
 32
-2.383974
 13
3.292106
 23
-1.187270
 33
-2.187975
 62
0
  0
3DFACE
  8
Cylinder2
 10
2.700485
 20
-0.942523
 30
-1.389779
 11
2.700488
 21
0.780576
 31
-1.389770
 12
3.883740
 22
0.780578
 32
-1.389768
 13
3.883736
 23
-0.942523
 33
-1.389777
 62
0
  0
3DFACE
  8
Cylinder2
 10
3.292106
 20
-1.187270
 30
-2.187975
 11
3.292117
 21
0.780576
 31
-2.383974
 12
2.700488
 22
0.780576
 32
-1.389770
 13
2.700485
 23
-0.942523
 33
-1.389779
 62
0
  0
3DFACE
  8
Cylinder2
 10
2.700485
 20
-0.942523
 30
-1.389779
 11
3.883736
 21
-0.942523
 31
-1.389777
 12
3.292106
 22
-1.187270
 32
-2.187975
 13
3.292106
 23
-1.187270
 33
-2.187975
 62
0
  0
3DFACE
  8
Cylinder2
 10
3.292117
 20
0.780576
 30
-2.383974
 11
3.883740
 21
0.780578
 31
-1.389768
 12
2.700488
 22
0.780576
 32
-1.389770
 13
2.700488
 23
0.780576
 33
-1.389770
 62
0
  0
3DFACE
  8
Cylinder4
 10
3.021865
 20
2.050266
 30
-1.850970
 11
2.999540
 21
2.050266
 31
-1.738733
 12
2.999541
 22
0.591435
 32
-1.738733
 13
3.021866
 23
0.591435
 33
-1.850969
 62
0
  0
3DFACE
  8
Cylinder4
 10
3.085442
 20
2.050266
 30
-1.946119
 11
3.021865
 21
2.050266
 31
-1.850970
 12
3.021866
 22
0.591435
 32
-1.850969
 13
3.085442
 23
0.591435
 33
-1.946119
 62
0
  0
3DFACE
  8
Cylinder4
 10
3.180592
 20
2.050266
 30
-2.009696
 11
3.085442
 21
2.050266
 31
-1.946119
 12
3.085442
 22
0.591435
 32
-1.946119
 13
3.180592
 23
0.591435
 33
-2.009695
 62
0
  0
3DFACE
  8
Cylinder4
 10
3.292828
 20
2.050266
 30
-2.032022
 11
3.180592
 21
2.050266
 31
-2.009696
 12
3.180592
 22
0.591435
 32
-2.009695
 13
3.292828
 23
0.591435
 33
-2.032020
 62
0
  0
3DFACE
  8
Cylinder4
 10
3.405065
 20
2.050266
 30
-2.009696
 11
3.292828
 21
2.050266
 31
-2.032022
 12
3.292828
 22
0.591435
 32
-2.032020
 13
3.405064
 23
0.591435
 33
-2.009695
 62
0
  0
3DFACE
  8
Cylinder4
 10
3.500214
 20
2.050266
 30
-1.946119
 11
3.405065
 21
2.050266
 31
-2.009696
 12
3.405064
 22
0.591435
 32
-2.009695
 13
3.500214
 23
0.591435
 33
-1.946119
 62
0
  0
3DFACE
  8
Cylinder4
 10
3.563791
 20
2.050266
 30
-1.850970
 11
3.500214
 21
2.050266
 31
-1.946119
 12
3.500214
 22
0.591435
 32
-1.946119
 13
3.563790
 23
0.591435
 33
-1.850969
 62
0
  0
3DFACE
  8
Cylinder4
 10
3.586116
 20
2.050266
 30
-1.738733
 11
3.563791
 21
2.050266
 31
-1.850970
 12
3.563790
 22
0.591435
 32
-1.850969
 13
3.586116
 23
0.591435
 33
-1.738733
 62
0
  0
3DFACE
  8
Cylinder4
 10
3.563791
 20
2.050266
 30
-1.626497
 11
3.586116
 21
2.050266
 31
-1.738733
 12
3.586116
 22
0.591435
 32
-1.738733
 13
3.563790
 23
0.591435
 33
-1.626497
 62
0
  0
3DFACE
  8
Cylinder4
 10
3.500214
 20
2.050266
 30
-1.531347
 11
3.563791
 21
2.050266
 31
-1.626497
 12
3.563790
 22
0.591435
 32
-1.626497
 13
3.500214
 23
0.591435
 33
-1.531348
 62
0
  0
3DFACE
  8
Cylinder4
 10
3.405065
 20
2.050266
 30
-1.467770
 11
3.500214
 21
2.050266
 31
-1.531347
 12
3.500214
 22
0.591435
 32
-1.531348
 13
3.405064
 23
0.591435
 33
-1.467771
 62
0
  0
3DFACE
  8
Cylinder4
 10
3.292828
 20
2.050266
 30
-1.445445
 11
3.405065
 21
2.050266
 31
-1.467770
 12
3.405064
 22
0.591435
 32
-1.467771
 13
3.292828
 23
0.591435
 33
-1.445446
 62
0
  0
3DFACE
  8
Cylinder4
 10
3.180592
 20
2.050266
 30
-1.467770
 11
3.292828
 21
2.050266
 31
-1.445445
 12
3.292828
 22
0.591435
 32
-1.445446
 13
3.180592
 23
0.591435
 33
-1.467771
 62
0
  0
3DFACE
  8
Cylinder4
 10
3.085442
 20
2.050266
 30
-1.531347
 11
3.180592
 21
2.050266
 31
-1.467770
 12
3.180592
 22
0.591435
 32
-1.467771
 13
3.085442
 23
0.591435
 33
-1.531348
 62
0
  0
3DFACE
  8
Cylinder4
 10
3.021865
 20
2.050266
 30
-1.626497
 11
3.085442
 21
2.050266
 31
-1.531347
 12
3.085442
 22
0.591435
 32
-1.531348
 13
3.021866
 23
0.591435
 33
-1.626497
 62
0
  0
3DFACE
  8
Cylinder4
 10
2.999540
 20
2.050266
 30
-1.738733
 11
3.021865
 21
2.050266
 31
-1.626497
 12
3.021866
 22
0.591435
 32
-1.626497
 13
2.999541
 23
0.591435
 33
-1.738733
 62
0
  0
3DFACE
  8
Cylinder4
 10
3.180592
 20
0.591435
 30
-2.009695
 11
3.405064
 21
0.591435
 31
-2.009695
 12
3.292828
 22
0.591435
 32
-2.032020
 13
3.292828
 23
0.591435
 33
-2.032020
 62
0
  0
3DFACE
  8
Cylinder4
 10
3.500214
 20
0.591435
 30
-1.946119
 11
3.405064
 21
0.591435
 31
-2.009695
 12
3.180592
 22
0.591435
 32
-2.009695
 13
3.180592
 23
0.591435
 33
-2.009695
 62
0
  0
3DFACE
  8
Cylinder4
 10
3.085442
 20
0.591435
 30
-1.946119
 11
3.500214
 21
0.591435
 31
-1.946119
 12
3.180592
 22
0.591435
 32
-2.009695
 13
3.180592
 23
0.591435
 33
-2.009695
 62
0
  0
3DFACE
  8
Cylinder4
 10
3.563790
 20
0.591435
 30
-1.850969
 11
3.500214
 21
0.591435
 31
-1.946119
 12
3.085442
 22
0.591435
 32
-1.946119
 13
3.085442
 23
0.591435
 33
-1.946119
 62
0
  0
3DFACE
  8
Cylinder4
 10
3.021866
 20
0.591435
 30
-1.850969
 11
3.563790
 21
0.591435
 31
-1.850969
 12
3.085442
 22
0.591435
 32
-1.946119
 13
3.085442
 23
0.591435
 33
-1.946119
 62
0
  0
3DFACE
  8
Cylinder4
 10
2.999541
 20
0.591435
 30
-1.738733
 11
3.563790
 21
0.591435
 31
-1.850969
 12
3.021866
 22
0.591435
 32
-1.850969
 13
3.021866
 23
0.591435
 33
-1.850969
 62
0
  0
3DFACE
  8
Cylinder4
 10
3.586116
 20
0.591435
 30
-1.738733
 11
3.563790
 21
0.591435
 31
-1.850969
 12
2.999541
 22
0.591435
 32
-1.738733
 13
2.999541
 23
0.591435
 33
-1.738733
 62
0
  0
3DFACE
  8
Cylinder4
 10
3.563790
 20
0.591435
 30
-1.626497
 11
3.586116
 21
0.591435
 31
-1.738733
 12
2.999541
 22
0.591435
 32
-1.738733
 13
2.999541
 23
0.591435
 33
-1.738733
 62
0
  0
3DFACE
  8
Cylinder4
 10
3.021866
 20
0.591435
 30
-1.626497
 11
3.563790
 21
0.591435
 31
-1.626497
 12
2.999541
 22
0.591435
 32
-1.738733
 13
2.999541
 23
0.591435
 33
-1.738733
 62
0
  0
3DFACE
  8
Cylinder4
 10
3.500214
 20
0.591435
 30
-1.531348
 11
3.563790
 21
0.591435
 31
-1.626497
 12
3.021866
 22
0.591435
 32
-1.626497
 13
3.021866
 23
0.591435
 33
-1.626497
 62
0
  0
3DFACE
  8
Cylinder4
 10
3.085442
 20
0.591435
 30
-1.531348
 11
3.500214
 21
0.591435
 31
-1.531348
 12
3.021866
 22
0.591435
 32
-1.626497
 13
3.021866
 23
0.591435
 33
-1.626497
 62
0
  0
3DFACE
  8
Cylinder4
 10
3.405064
 20
0.591435
 30
-1.467771
 11
3.500214
 21
0.591435
 31
-1.531348
 12
3.085442
 22
0.591435
 32
-1.531348
 13
3.085442
 23
0.591435
 33
-1.531348
 62
0
  0
3DFACE
  8
Cylinder4
 10
3.180592
 20
0.591435
 30
-1.467771
 11
3.405064
 21
0.591435
 31
-1.467771
 12
3.085442
 22
0.591435
 32
-1.531348
 13
3.085442
 23
0.591435
 33
-1.531348
 62
0
  0
3DFACE
  8
Cylinder4
 10
3.292828
 20
0.591435
 30
-1.445446
 11
3.405064
 21
0.591435
 31
-1.467771
 12
3.180592
 22
0.591435
 32
-1.467771
 13
3.180592
 23
0.591435
 33
-1.467771
 62
0
  0
3DFACE
  8
Cylinder4
 10
3.220676
 20
2.050266
 30
-1.912924
 11
3.085442
 21
2.050266
 31
-1.946119
 12
3.292828
 22
2.050266
 32
-1.927276
 13
3.292828
 23
2.050266
 33
-1.927276
 62
0
  0
3DFACE
  8
Cylinder4
 10
3.159508
 20
2.050266
 30
-1.872053
 11
3.085442
 21
2.050266
 31
-1.946119
 12
3.220676
 22
2.050266
 32
-1.912924
 13
3.220676
 23
2.050266
 33
-1.912924
 62
0
  0
3DFACE
  8
Cylinder4
 10
3.021865
 20
2.050266
 30
-1.850970
 11
3.085442
 21
2.050266
 31
-1.946119
 12
3.159508
 22
2.050266
 32
-1.872053
 13
3.159508
 23
2.050266
 33
-1.872053
 62
0
  0
3DFACE
  8
Cylinder4
 10
3.118638
 20
2.050266
 30
-1.810885
 11
3.021865
 21
2.050266
 31
-1.850970
 12
3.159508
 22
2.050266
 32
-1.872053
 13
3.159508
 23
2.050266
 33
-1.872053
 62
0
  0
3DFACE
  8
Cylinder4
 10
2.999540
 20
2.050266
 30
-1.738733
 11
3.021865
 21
2.050266
 31
-1.850970
 12
3.118638
 22
2.050266
 32
-1.810885
 13
3.118638
 23
2.050266
 33
-1.810885
 62
0
  0
3DFACE
  8
Cylinder4
 10
3.104286
 20
2.050266
 30
-1.738733
 11
2.999540
 21
2.050266
 31
-1.738733
 12
3.118638
 22
2.050266
 32
-1.810885
 13
3.118638
 23
2.050266
 33
-1.810885
 62
0
  0
3DFACE
  8
Cylinder4
 10
3.118638
 20
2.050266
 30
-1.666581
 11
2.999540
 21
2.050266
 31
-1.738733
 12
3.104286
 22
2.050266
 32
-1.738733
 13
3.104286
 23
2.050266
 33
-1.738733
 62
0
  0
3DFACE
  8
Cylinder4
 10
3.021865
 20
2.050266
 30
-1.626497
 11
2.999540
 21
2.050266
 31
-1.738733
 12
3.118638
 22
2.050266
 32
-1.666581
 13
3.118638
 23
2.050266
 33
-1.666581
 62
0
  0
3DFACE
  8
Cylinder4
 10
3.159508
 20
2.050266
 30
-1.605414
 11
3.021865
 21
2.050266
 31
-1.626497
 12
3.118638
 22
2.050266
 32
-1.666581
 13
3.118638
 23
2.050266
 33
-1.666581
 62
0
  0
3DFACE
  8
Cylinder4
 10
3.220676
 20
2.050266
 30
-1.564543
 11
3.021865
 21
2.050266
 31
-1.626497
 12
3.159508
 22
2.050266
 32
-1.605414
 13
3.159508
 23
2.050266
 33
-1.605414
 62
0
  0
3DFACE
  8
Cylinder4
 10
3.085442
 20
2.050266
 30
-1.531347
 11
3.021865
 21
2.050266
 31
-1.626497
 12
3.220676
 22
2.050266
 32
-1.564543
 13
3.220676
 23
2.050266
 33
-1.564543
 62
0
  0
3DFACE
  8
Cylinder4
 10
3.085442
 20
2.050266
 30
-1.531347
 11
3.220676
 21
2.050266
 31
-1.564543
 12
3.292828
 22
2.050266
 32
-1.550191
 13
3.292828
 23
2.050266
 33
-1.550191
 62
0
  0
3DFACE
  8
Cylinder4
 10
3.500214
 20
2.050266
 30
-1.531347
 11
3.085442
 21
2.050266
 31
-1.531347
 12
3.292828
 22
2.050266
 32
-1.550191
 13
3.292828
 23
2.050266
 33
-1.550191
 62
0
  0
3DFACE
  8
Cylinder4
 10
3.180592
 20
2.050266
 30
-1.467770
 11
3.085442
 21
2.050266
 31
-1.531347
 12
3.500214
 22
2.050266
 32
-1.531347
 13
3.500214
 23
2.050266
 33
-1.531347
 62
0
  0
3DFACE
  8
Cylinder4
 10
3.405065
 20
2.050266
 30
-1.467770
 11
3.180592
 21
2.050266
 31
-1.467770
 12
3.500214
 22
2.050266
 32
-1.531347
 13
3.500214
 23
2.050266
 33
-1.531347
 62
0
  0
3DFACE
  8
Cylinder4
 10
3.292828
 20
2.050266
 30
-1.445445
 11
3.180592
 21
2.050266
 31
-1.467770
 12
3.405065
 22
2.050266
 32
-1.467770
 13
3.405065
 23
2.050266
 33
-1.467770
 62
0
  0
3DFACE
  8
Cylinder4
 10
3.405065
 20
2.050266
 30
-2.009696
 11
3.180592
 21
2.050266
 31
-2.009696
 12
3.292828
 22
2.050266
 32
-2.032022
 13
3.292828
 23
2.050266
 33
-2.032022
 62
0
  0
3DFACE
  8
Cylinder4
 10
3.085442
 20
2.050266
 30
-1.946119
 11
3.180592
 21
2.050266
 31
-2.009696
 12
3.405065
 22
2.050266
 32
-2.009696
 13
3.405065
 23
2.050266
 33
-2.009696
 62
0
  0
3DFACE
  8
Cylinder4
 10
3.500214
 20
2.050266
 30
-1.946119
 11
3.085442
 21
2.050266
 31
-1.946119
 12
3.405065
 22
2.050266
 32
-2.009696
 13
3.405065
 23
2.050266
 33
-2.009696
 62
0
  0
3DFACE
  8
Cylinder4
 10
3.292828
 20
2.050266
 30
-1.927276
 11
3.085442
 21
2.050266
 31
-1.946119
 12
3.500214
 22
2.050266
 32
-1.946119
 13
3.500214
 23
2.050266
 33
-1.946119
 62
0
  0
3DFACE
  8
Cylinder4
 10
3.364980
 20
2.050266
 30
-1.912924
 11
3.292828
 21
2.050266
 31
-1.927276
 12
3.500214
 22
2.050266
 32
-1.946119
 13
3.500214
 23
2.050266
 33
-1.946119
 62
0
  0
3DFACE
  8
Cylinder4
 10
3.426148
 20
2.050266
 30
-1.872053
 11
3.364980
 21
2.050266
 31
-1.912924
 12
3.500214
 22
2.050266
 32
-1.946119
 13
3.500214
 23
2.050266
 33
-1.946119
 62
0
  0
3DFACE
  8
Cylinder4
 10
3.563791
 20
2.050266
 30
-1.850970
 11
3.426148
 21
2.050266
 31
-1.872053
 12
3.500214
 22
2.050266
 32
-1.946119
 13
3.500214
 23
2.050266
 33
-1.946119
 62
0
  0
3DFACE
  8
Cylinder4
 10
3.467019
 20
2.050266
 30
-1.810885
 11
3.426148
 21
2.050266
 31
-1.872053
 12
3.563791
 22
2.050266
 32
-1.850970
 13
3.563791
 23
2.050266
 33
-1.850970
 62
0
  0
3DFACE
  8
Cylinder4
 10
3.481370
 20
2.050266
 30
-1.738733
 11
3.467019
 21
2.050266
 31
-1.810885
 12
3.563791
 22
2.050266
 32
-1.850970
 13
3.563791
 23
2.050266
 33
-1.850970
 62
0
  0
3DFACE
  8
Cylinder4
 10
3.586116
 20
2.050266
 30
-1.738733
 11
3.481370
 21
2.050266
 31
-1.738733
 12
3.563791
 22
2.050266
 32
-1.850970
 13
3.563791
 23
2.050266
 33
-1.850970
 62
0
  0
3DFACE
  8
Cylinder4
 10
3.467019
 20
2.050266
 30
-1.666581
 11
3.481370
 21
2.050266
 31
-1.738733
 12
3.586116
 22
2.050266
 32
-1.738733
 13
3.586116
 23
2.050266
 33
-1.738733
 62
0
  0
3DFACE
  8
Cylinder4
 10
3.563791
 20
2.050266
 30
-1.626497
 11
3.467019
 21
2.050266
 31
-1.666581
 12
3.586116
 22
2.050266
 32
-1.738733
 13
3.586116
 23
2.050266
 33
-1.738733
 62
0
  0
3DFACE
  8
Cylinder4
 10
3.426148
 20
2.050266
 30
-1.605414
 11
3.467019
 21
2.050266
 31
-1.666581
 12
3.563791
 22
2.050266
 32
-1.626497
 13
3.563791
 23
2.050266
 33
-1.626497
 62
0
  0
3DFACE
  8
Cylinder4
 10
3.364980
 20
2.050266
 30
-1.564543
 11
3.426148
 21
2.050266
 31
-1.605414
 12
3.563791
 22
2.050266
 32
-1.626497
 13
3.563791
 23
2.050266
 33
-1.626497
 62
0
  0
3DFACE
  8
Cylinder4
 10
3.500214
 20
2.050266
 30
-1.531347
 11
3.364980
 21
2.050266
 31
-1.564543
 12
3.563791
 22
2.050266
 32
-1.626497
 13
3.563791
 23
2.050266
 33
-1.626497
 62
0
  0
3DFACE
  8
Cylinder4
 10
3.500214
 20
2.050266
 30
-1.531347
 11
3.292828
 21
2.050266
 31
-1.550191
 12
3.364980
 22
2.050266
 32
-1.564543
 13
3.364980
 23
2.050266
 33
-1.564543
 62
0
  0
3DFACE
  8
Cylinder4
 10
3.467017
 20
0.837337
 30
-1.666581
 11
3.481369
 21
0.837337
 31
-1.738733
 12
3.481370
 22
2.050266
 32
-1.738733
 13
3.467019
 23
2.050266
 33
-1.666581
 62
1
  0
3DFACE
  8
Cylinder4
 10
3.426147
 20
0.837337
 30
-1.605413
 11
3.467017
 21
0.837337
 31
-1.666581
 12
3.467019
 22
2.050266
 32
-1.666581
 13
3.426148
 23
2.050266
 33
-1.605414
 62
1
  0
3DFACE
  8
Cylinder4
 10
3.364980
 20
0.837337
 30
-1.564542
 11
3.426147
 21
0.837337
 31
-1.605413
 12
3.426148
 22
2.050266
 32
-1.605414
 13
3.364980
 23
2.050266
 33
-1.564543
 62
1
  0
3DFACE
  8
Cylinder4
 10
3.292828
 20
0.837337
 30
-1.550190
 11
3.364980
 21
0.837337
 31
-1.564542
 12
3.364980
 22
2.050266
 32
-1.564543
 13
3.292828
 23
2.050266
 33
-1.550191
 62
1
  0
3DFACE
  8
Cylinder4
 10
3.220676
 20
0.837337
 30
-1.564542
 11
3.292828
 21
0.837337
 31
-1.550190
 12
3.292828
 22
2.050266
 32
-1.550191
 13
3.220676
 23
2.050266
 33
-1.564543
 62
1
  0
3DFACE
  8
Cylinder4
 10
3.159509
 20
0.837337
 30
-1.605413
 11
3.220676
 21
0.837337
 31
-1.564542
 12
3.220676
 22
2.050266
 32
-1.564543
 13
3.159508
 23
2.050266
 33
-1.605414
 62
1
  0
3DFACE
  8
Cylinder4
 10
3.118639
 20
0.837337
 30
-1.666581
 11
3.159509
 21
0.837337
 31
-1.605413
 12
3.159508
 22
2.050266
 32
-1.605414
 13
3.118638
 23
2.050266
 33
-1.666581
 62
1
  0
3DFACE
  8
Cylinder4
 10
3.104287
 20
0.837337
 30
-1.738733
 11
3.118639
 21
0.837337
 31
-1.666581
 12
3.118638
 22
2.050266
 32
-1.666581
 13
3.104286
 23
2.050266
 33
-1.738733
 62
1
  0
3DFACE
  8
Cylinder4
 10
3.364980
 20
0.837337
 30
-1.912924
 11
3.220676
 21
0.837337
 31
-1.912924
 12
3.292828
 22
0.837337
 32
-1.927276
 13
3.292828
 23
0.837337
 33
-1.927276
 62
1
  0
3DFACE
  8
Cylinder4
 10
3.159509
 20
0.837337
 30
-1.872053
 11
3.220676
 21
0.837337
 31
-1.912924
 12
3.364980
 22
0.837337
 32
-1.912924
 13
3.364980
 23
0.837337
 33
-1.912924
 62
1
  0
3DFACE
  8
Cylinder4
 10
3.426147
 20
0.837337
 30
-1.872053
 11
3.159509
 21
0.837337
 31
-1.872053
 12
3.364980
 22
0.837337
 32
-1.912924
 13
3.364980
 23
0.837337
 33
-1.912924
 62
1
  0
3DFACE
  8
Cylinder4
 10
3.118639
 20
0.837337
 30
-1.810885
 11
3.159509
 21
0.837337
 31
-1.872053
 12
3.426147
 22
0.837337
 32
-1.872053
 13
3.426147
 23
0.837337
 33
-1.872053
 62
1
  0
3DFACE
  8
Cylinder4
 10
3.467017
 20
0.837337
 30
-1.810885
 11
3.118639
 21
0.837337
 31
-1.810885
 12
3.426147
 22
0.837337
 32
-1.872053
 13
3.426147
 23
0.837337
 33
-1.872053
 62
1
  0
3DFACE
  8
Cylinder4
 10
3.104287
 20
0.837337
 30
-1.738733
 11
3.118639
 21
0.837337
 31
-1.810885
 12
3.467017
 22
0.837337
 32
-1.810885
 13
3.467017
 23
0.837337
 33
-1.810885
 62
1
  0
3DFACE
  8
Cylinder4
 10
3.481369
 20
0.837337
 30
-1.738733
 11
3.104287
 21
0.837337
 31
-1.738733
 12
3.467017
 22
0.837337
 32
-1.810885
 13
3.467017
 23
0.837337
 33
-1.810885
 62
1
  0
3DFACE
  8
Cylinder4
 10
3.118639
 20
0.837337
 30
-1.666581
 11
3.104287
 21
0.837337
 31
-1.738733
 12
3.481369
 22
0.837337
 32
-1.738733
 13
3.481369
 23
0.837337
 33
-1.738733
 62
1
  0
3DFACE
  8
Cylinder4
 10
3.467017
 20
0.837337
 30
-1.666581
 11
3.118639
 21
0.837337
 31
-1.666581
 12
3.481369
 22
0.837337
 32
-1.738733
 13
3.481369
 23
0.837337
 33
-1.738733
 62
1
  0
3DFACE
  8
Cylinder4
 10
3.159509
 20
0.837337
 30
-1.605413
 11
3.118639
 21
0.837337
 31
-1.666581
 12
3.467017
 22
0.837337
 32
-1.666581
 13
3.467017
 23
0.837337
 33
-1.666581
 62
1
  0
3DFACE
  8
Cylinder4
 10
3.426147
 20
0.837337
 30
-1.605413
 11
3.159509
 21
0.837337
 31
-1.605413
 12
3.467017
 22
0.837337
 32
-1.666581
 13
3.467017
 23
0.837337
 33
-1.666581
 62
1
  0
3DFACE
  8
Cylinder4
 10
3.220676
 20
0.837337
 30
-1.564542
 11
3.159509
 21
0.837337
 31
-1.605413
 12
3.426147
 22
0.837337
 32
-1.605413
 13
3.426147
 23
0.837337
 33
-1.605413
 62
1
  0
3DFACE
  8
Cylinder4
 10
3.364980
 20
0.837337
 30
-1.564542
 11
3.220676
 21
0.837337
 31
-1.564542
 12
3.426147
 22
0.837337
 32
-1.605413
 13
3.426147
 23
0.837337
 33
-1.605413
 62
1
  0
3DFACE
  8
Cylinder4
 10
3.292828
 20
0.837337
 30
-1.550190
 11
3.220676
 21
0.837337
 31
-1.564542
 12
3.364980
 22
0.837337
 32
-1.564542
 13
3.364980
 23
0.837337
 33
-1.564542
 62
1
  0
3DFACE
  8
Cylinder4
 10
3.467017
 20
0.837337
 30
-1.810885
 11
3.426147
 21
0.837337
 31
-1.872053
 12
3.426148
 22
2.050266
 32
-1.872053
 13
3.467019
 23
2.050266
 33
-1.810885
 62
1
  0
3DFACE
  8
Cylinder4
 10
3.481369
 20
0.837337
 30
-1.738733
 11
3.467017
 21
0.837337
 31
-1.810885
 12
3.467019
 22
2.050266
 32
-1.810885
 13
3.481370
 23
2.050266
 33
-1.738733
 62
1
  0
3DFACE
  8
Cylinder4
 10
3.426147
 20
0.837337
 30
-1.872053
 11
3.364980
 21
0.837337
 31
-1.912924
 12
3.364980
 22
2.050266
 32
-1.912924
 13
3.426148
 23
2.050266
 33
-1.872053
 62
1
  0
3DFACE
  8
Cylinder4
 10
3.364980
 20
0.837337
 30
-1.912924
 11
3.292828
 21
0.837337
 31
-1.927276
 12
3.292828
 22
2.050266
 32
-1.927276
 13
3.364980
 23
2.050266
 33
-1.912924
 62
1
  0
3DFACE
  8
Cylinder4
 10
3.292828
 20
0.837337
 30
-1.927276
 11
3.220676
 21
0.837337
 31
-1.912924
 12
3.220676
 22
2.050266
 32
-1.912924
 13
3.292828
 23
2.050266
 33
-1.927276
 62
1
  0
3DFACE
  8
Cylinder4
 10
3.220676
 20
0.837337
 30
-1.912924
 11
3.159509
 21
0.837337
 31
-1.872053
 12
3.159508
 22
2.050266
 32
-1.872053
 13
3.220676
 23
2.050266
 33
-1.912924
 62
1
  0
3DFACE
  8
Cylinder4
 10
3.159509
 20
0.837337
 30
-1.872053
 11
3.118639
 21
0.837337
 31
-1.810885
 12
3.118638
 22
2.050266
 32
-1.810885
 13
3.159508
 23
2.050266
 33
-1.872053
 62
1
  0
3DFACE
  8
Cylinder4
 10
3.118639
 20
0.837337
 30
-1.810885
 11
3.104287
 21
0.837337
 31
-1.738733
 12
3.104286
 22
2.050266
 32
-1.738733
 13
3.118638
 23
2.050266
 33
-1.810885
 62
1
 0
ENDSEC
 0
EOF
