  0
SECTION
  2
HEADER
  0
ENDSEC
  0
SECTION
  2
TABLES
  0
TABLE
  2
LAYER
  70
    153
  0
LAYER
  2
Cylinder
 70
0
 62
15
  6
CONTINUOUS
  0
LAYER
  2
Cylinder1
 70
0
 62
15
  6
CONTINUOUS
  0
LAYER
  2
Sphere
 70
0
 62
15
  6
CONTINUOUS
  0
LAYER
  2
Cylinder001
 70
0
 62
15
  6
CONTINUOUS
  0
LAYER
  2
Sphere001
 70
0
 62
15
  6
CONTINUOUS
  0
LAYER
  2
Cylinder002
 70
0
 62
15
  6
CONTINUOUS
  0
ENDTAB
  0
ENDSEC
  0
SECTION
  2
ENTITIES
  0
3DFACE
  8
Cylinder
 10
0.490047
 20
1.632373
 30
0.141751
 11
0.725479
 21
-0.373579
 31
0.255340
 12
0.000000
 22
1.632373
 32
0.503225
 13
0.000000
 23
1.632373
 33
0.503225
 62
0
  0
3DFACE
  8
Cylinder
 10
0.490047
 20
1.632373
 30
0.141751
 11
0.344798
 21
1.632362
 31
-0.392788
 12
0.448371
 22
-0.373579
 32
-0.668490
 13
0.725479
 23
-0.373579
 33
0.255340
 62
0
  0
3DFACE
  8
Cylinder
 10
0.344798
 20
1.632362
 30
-0.392788
 11
-0.344433
 21
1.633932
 31
-0.392775
 12
-0.448371
 22
-0.373579
 32
-0.668490
 13
0.448371
 23
-0.373579
 33
-0.668490
 62
0
  0
3DFACE
  8
Cylinder
 10
-0.604075
 20
-0.830176
 30
0.026441
 11
-0.320363
 21
-0.830176
 31
-0.622203
 12
-0.448371
 22
-0.373579
 32
-0.668490
 13
-0.725479
 23
-0.373579
 33
0.255340
 62
0
  0
3DFACE
  8
Cylinder
 10
-0.604075
 20
-0.830176
 30
0.026441
 11
-0.725479
 21
-0.373579
 31
0.255340
 12
0.000001
 22
-0.830175
 32
0.298711
 13
0.000001
 23
-0.830175
 33
0.298711
 62
0
  0
3DFACE
  8
Cylinder
 10
0.000000
 20
1.632373
 30
0.503225
 11
0.344798
 21
1.632362
 31
-0.392788
 12
0.490047
 22
1.632373
 32
0.141751
 13
0.490047
 23
1.632373
 33
0.141751
 62
3
  0
3DFACE
  8
Cylinder
 10
-0.344433
 20
1.633932
 30
-0.392775
 11
0.344798
 21
1.632362
 31
-0.392788
 12
0.000000
 22
1.632373
 32
0.503225
 13
0.000000
 23
1.632373
 33
0.503225
 62
3
  0
3DFACE
  8
Cylinder
 10
-0.490598
 20
1.632375
 30
0.141394
 11
-0.344433
 21
1.633932
 31
-0.392775
 12
0.000000
 22
1.632373
 32
0.503225
 13
0.000000
 23
1.632373
 33
0.503225
 62
3
  0
3DFACE
  8
Cylinder
 10
0.318902
 20
-0.830176
 30
-0.054212
 11
0.604392
 21
-0.830177
 31
0.026463
 12
0.339368
 22
-0.830176
 32
-0.172073
 13
0.339368
 23
-0.830176
 33
-0.172073
 62
3
  0
3DFACE
  8
Cylinder
 10
0.259971
 20
-0.830176
 30
0.049433
 11
0.604392
 21
-0.830177
 31
0.026463
 12
0.318902
 22
-0.830176
 32
-0.054212
 13
0.318902
 23
-0.830176
 33
-0.054212
 62
3
  0
3DFACE
  8
Cylinder
 10
0.169684
 20
-0.830176
 30
0.126362
 11
0.604392
 21
-0.830177
 31
0.026463
 12
0.259971
 22
-0.830176
 32
0.049433
 13
0.259971
 23
-0.830176
 33
0.049433
 62
3
  0
3DFACE
  8
Cylinder
 10
0.058931
 20
-0.830176
 30
0.167295
 11
0.604392
 21
-0.830177
 31
0.026463
 12
0.169684
 22
-0.830176
 32
0.126362
 13
0.169684
 23
-0.830176
 33
0.126362
 62
3
  0
3DFACE
  8
Cylinder
 10
0.000001
 20
-0.830175
 30
0.298711
 11
0.604392
 21
-0.830177
 31
0.026463
 12
0.058931
 22
-0.830176
 32
0.167295
 13
0.058931
 23
-0.830176
 33
0.167295
 62
3
  0
3DFACE
  8
Cylinder
 10
-0.058931
 20
-0.830176
 30
0.167295
 11
0.000001
 21
-0.830175
 31
0.298711
 12
0.058931
 22
-0.830176
 32
0.167295
 13
0.058931
 23
-0.830176
 33
0.167295
 62
3
  0
3DFACE
  8
Cylinder
 10
-0.169684
 20
-0.830176
 30
0.126362
 11
0.000001
 21
-0.830175
 31
0.298711
 12
-0.058931
 22
-0.830176
 32
0.167295
 13
-0.058931
 23
-0.830176
 33
0.167295
 62
3
  0
3DFACE
  8
Cylinder
 10
-0.259971
 20
-0.830176
 30
0.049433
 11
0.000001
 21
-0.830175
 31
0.298711
 12
-0.169684
 22
-0.830176
 32
0.126362
 13
-0.169684
 23
-0.830176
 33
0.126362
 62
3
  0
3DFACE
  8
Cylinder
 10
-0.604075
 20
-0.830176
 30
0.026441
 11
0.000001
 21
-0.830175
 31
0.298711
 12
-0.259971
 22
-0.830176
 32
0.049433
 13
-0.259971
 23
-0.830176
 33
0.049433
 62
3
  0
3DFACE
  8
Cylinder
 10
-0.604075
 20
-0.830176
 30
0.026441
 11
-0.259971
 21
-0.830176
 31
0.049433
 12
-0.318902
 22
-0.830176
 32
-0.054212
 13
-0.318902
 23
-0.830176
 33
-0.054212
 62
3
  0
3DFACE
  8
Cylinder
 10
-0.604075
 20
-0.830176
 30
0.026441
 11
-0.318902
 21
-0.830176
 31
-0.054212
 12
-0.339368
 22
-0.830176
 32
-0.172073
 13
-0.339368
 23
-0.830176
 33
-0.172073
 62
3
  0
3DFACE
  8
Cylinder
 10
0.320911
 20
-0.830175
 30
-0.621942
 11
0.339368
 21
-0.830176
 31
-0.172073
 12
0.604392
 22
-0.830177
 32
0.026463
 13
0.604392
 23
-0.830177
 33
0.026463
 62
3
  0
3DFACE
  8
Cylinder
 10
0.318902
 20
-0.830176
 30
-0.289935
 11
0.339368
 21
-0.830176
 31
-0.172073
 12
0.320911
 22
-0.830175
 32
-0.621942
 13
0.320911
 23
-0.830175
 33
-0.621942
 62
3
  0
3DFACE
  8
Cylinder
 10
0.259971
 20
-0.830176
 30
-0.393580
 11
0.318902
 21
-0.830176
 31
-0.289935
 12
0.320911
 22
-0.830175
 32
-0.621942
 13
0.320911
 23
-0.830175
 33
-0.621942
 62
3
  0
3DFACE
  8
Cylinder
 10
0.169684
 20
-0.830176
 30
-0.470509
 11
0.259971
 21
-0.830176
 31
-0.393580
 12
0.320911
 22
-0.830175
 32
-0.621942
 13
0.320911
 23
-0.830175
 33
-0.621942
 62
3
  0
3DFACE
  8
Cylinder
 10
0.058931
 20
-0.830176
 30
-0.511442
 11
0.169684
 21
-0.830176
 31
-0.470509
 12
0.320911
 22
-0.830175
 32
-0.621942
 13
0.320911
 23
-0.830175
 33
-0.621942
 62
3
  0
3DFACE
  8
Cylinder
 10
-0.058931
 20
-0.830176
 30
-0.511442
 11
0.058931
 21
-0.830176
 31
-0.511442
 12
0.320911
 22
-0.830175
 32
-0.621942
 13
0.320911
 23
-0.830175
 33
-0.621942
 62
3
  0
3DFACE
  8
Cylinder
 10
-0.320363
 20
-0.830176
 30
-0.622203
 11
-0.058931
 21
-0.830176
 31
-0.511442
 12
0.320911
 22
-0.830175
 32
-0.621942
 13
0.320911
 23
-0.830175
 33
-0.621942
 62
3
  0
3DFACE
  8
Cylinder
 10
-0.320363
 20
-0.830176
 30
-0.622203
 11
-0.169684
 21
-0.830176
 31
-0.470509
 12
-0.058931
 22
-0.830176
 32
-0.511442
 13
-0.058931
 23
-0.830176
 33
-0.511442
 62
3
  0
3DFACE
  8
Cylinder
 10
-0.320363
 20
-0.830176
 30
-0.622203
 11
-0.259971
 21
-0.830176
 31
-0.393580
 12
-0.169684
 22
-0.830176
 32
-0.470509
 13
-0.169684
 23
-0.830176
 33
-0.470509
 62
3
  0
3DFACE
  8
Cylinder
 10
-0.320363
 20
-0.830176
 30
-0.622203
 11
-0.318902
 21
-0.830176
 31
-0.289935
 12
-0.259971
 22
-0.830176
 32
-0.393580
 13
-0.259971
 23
-0.830176
 33
-0.393580
 62
3
  0
3DFACE
  8
Cylinder
 10
-0.339368
 20
-0.830176
 30
-0.172073
 11
-0.318902
 21
-0.830176
 31
-0.289935
 12
-0.320363
 22
-0.830176
 32
-0.622203
 13
-0.320363
 23
-0.830176
 33
-0.622203
 62
3
  0
3DFACE
  8
Cylinder
 10
-0.604075
 20
-0.830176
 30
0.026441
 11
-0.339368
 21
-0.830176
 31
-0.172073
 12
-0.320363
 22
-0.830176
 32
-0.622203
 13
-0.320363
 23
-0.830176
 33
-0.622203
 62
3
  0
3DFACE
  8
Cylinder
 10
0.604392
 20
-0.830177
 30
0.026463
 11
0.000001
 21
-0.830175
 31
0.298711
 12
0.725479
 22
-0.373579
 32
0.255340
 13
0.725479
 23
-0.373579
 33
0.255340
 62
0
  0
3DFACE
  8
Cylinder
 10
0.000001
 20
-0.830175
 30
0.298711
 11
0.000000
 21
1.632373
 31
0.503225
 12
0.725479
 22
-0.373579
 32
0.255340
 13
0.725479
 23
-0.373579
 33
0.255340
 62
0
  0
3DFACE
  8
Cylinder
 10
-0.490598
 20
1.632375
 30
0.141394
 11
0.000000
 21
1.632373
 31
0.503225
 12
-0.725479
 22
-0.373579
 32
0.255340
 13
-0.725479
 23
-0.373579
 33
0.255340
 62
0
  0
3DFACE
  8
Cylinder
 10
0.000000
 20
1.632373
 30
0.503225
 11
0.000001
 21
-0.830175
 31
0.298711
 12
-0.725479
 22
-0.373579
 32
0.255340
 13
-0.725479
 23
-0.373579
 33
0.255340
 62
0
  0
3DFACE
  8
Cylinder
 10
-0.344433
 20
1.633932
 30
-0.392775
 11
-0.490598
 21
1.632375
 31
0.141394
 12
-0.725479
 22
-0.373579
 32
0.255340
 13
-0.448371
 23
-0.373579
 33
-0.668490
 62
0
  0
3DFACE
  8
Cylinder
 10
-0.320363
 20
-0.830176
 30
-0.622203
 11
0.320911
 21
-0.830175
 31
-0.621942
 12
0.448371
 22
-0.373579
 32
-0.668490
 13
-0.448371
 23
-0.373579
 33
-0.668490
 62
0
  0
3DFACE
  8
Cylinder
 10
0.320911
 20
-0.830175
 30
-0.621942
 11
0.604392
 21
-0.830177
 31
0.026463
 12
0.725479
 22
-0.373579
 32
0.255340
 13
0.448371
 23
-0.373579
 33
-0.668490
 62
0
  0
3DFACE
  8
Cylinder
 10
-0.169684
 20
-0.675550
 30
-0.470509
 11
-0.058931
 21
-0.675550
 31
-0.511442
 12
-0.058931
 22
-0.830176
 32
-0.511442
 13
-0.169684
 23
-0.830176
 33
-0.470509
 62
1
  0
3DFACE
  8
Cylinder
 10
-0.259971
 20
-0.675550
 30
-0.393580
 11
-0.169684
 21
-0.675550
 31
-0.470509
 12
-0.169684
 22
-0.830176
 32
-0.470509
 13
-0.259971
 23
-0.830176
 33
-0.393580
 62
1
  0
3DFACE
  8
Cylinder
 10
-0.318902
 20
-0.675550
 30
-0.289935
 11
-0.259971
 21
-0.675550
 31
-0.393580
 12
-0.259971
 22
-0.830176
 32
-0.393580
 13
-0.318902
 23
-0.830176
 33
-0.289935
 62
1
  0
3DFACE
  8
Cylinder
 10
-0.339368
 20
-0.675550
 30
-0.172073
 11
-0.318902
 21
-0.675550
 31
-0.289935
 12
-0.318902
 22
-0.830176
 32
-0.289935
 13
-0.339368
 23
-0.830176
 33
-0.172073
 62
1
  0
3DFACE
  8
Cylinder
 10
-0.318902
 20
-0.675550
 30
-0.054212
 11
-0.339368
 21
-0.675550
 31
-0.172073
 12
-0.339368
 22
-0.830176
 32
-0.172073
 13
-0.318902
 23
-0.830176
 33
-0.054212
 62
1
  0
3DFACE
  8
Cylinder
 10
-0.259971
 20
-0.675550
 30
0.049433
 11
-0.318902
 21
-0.675550
 31
-0.054212
 12
-0.318902
 22
-0.830176
 32
-0.054212
 13
-0.259971
 23
-0.830176
 33
0.049433
 62
1
  0
3DFACE
  8
Cylinder
 10
-0.169684
 20
-0.675550
 30
0.126362
 11
-0.259971
 21
-0.675550
 31
0.049433
 12
-0.259971
 22
-0.830176
 32
0.049433
 13
-0.169684
 23
-0.830176
 33
0.126362
 62
1
  0
3DFACE
  8
Cylinder
 10
-0.058931
 20
-0.675550
 30
0.167295
 11
-0.169684
 21
-0.675550
 31
0.126362
 12
-0.169684
 22
-0.830176
 32
0.126362
 13
-0.058931
 23
-0.830176
 33
0.167295
 62
1
  0
3DFACE
  8
Cylinder
 10
0.058931
 20
-0.675550
 30
0.167295
 11
-0.058931
 21
-0.675550
 31
0.167295
 12
-0.058931
 22
-0.830176
 32
0.167295
 13
0.058931
 23
-0.830176
 33
0.167295
 62
1
  0
3DFACE
  8
Cylinder
 10
0.318902
 20
-0.675550
 30
-0.289935
 11
0.318902
 21
-0.675550
 31
-0.054212
 12
0.339368
 22
-0.675550
 32
-0.172073
 13
0.339368
 23
-0.675550
 33
-0.172073
 62
2
  0
3DFACE
  8
Cylinder
 10
0.259971
 20
-0.675550
 30
0.049433
 11
0.318902
 21
-0.675550
 31
-0.054212
 12
0.318902
 22
-0.675550
 32
-0.289935
 13
0.318902
 23
-0.675550
 33
-0.289935
 62
2
  0
3DFACE
  8
Cylinder
 10
0.259971
 20
-0.675550
 30
-0.393580
 11
0.259971
 21
-0.675550
 31
0.049433
 12
0.318902
 22
-0.675550
 32
-0.289935
 13
0.318902
 23
-0.675550
 33
-0.289935
 62
2
  0
3DFACE
  8
Cylinder
 10
0.169684
 20
-0.675550
 30
0.126362
 11
0.259971
 21
-0.675550
 31
0.049433
 12
0.259971
 22
-0.675550
 32
-0.393580
 13
0.259971
 23
-0.675550
 33
-0.393580
 62
2
  0
3DFACE
  8
Cylinder
 10
0.169684
 20
-0.675550
 30
-0.470509
 11
0.169684
 21
-0.675550
 31
0.126362
 12
0.259971
 22
-0.675550
 32
-0.393580
 13
0.259971
 23
-0.675550
 33
-0.393580
 62
2
  0
3DFACE
  8
Cylinder
 10
0.058931
 20
-0.675550
 30
0.167295
 11
0.169684
 21
-0.675550
 31
0.126362
 12
0.169684
 22
-0.675550
 32
-0.470509
 13
0.169684
 23
-0.675550
 33
-0.470509
 62
2
  0
3DFACE
  8
Cylinder
 10
0.058931
 20
-0.675550
 30
-0.511442
 11
0.058931
 21
-0.675550
 31
0.167295
 12
0.169684
 22
-0.675550
 32
-0.470509
 13
0.169684
 23
-0.675550
 33
-0.470509
 62
2
  0
3DFACE
  8
Cylinder
 10
-0.058931
 20
-0.675550
 30
0.167295
 11
0.058931
 21
-0.675550
 31
0.167295
 12
0.058931
 22
-0.675550
 32
-0.511442
 13
0.058931
 23
-0.675550
 33
-0.511442
 62
2
  0
3DFACE
  8
Cylinder
 10
-0.058931
 20
-0.675550
 30
-0.511442
 11
-0.058931
 21
-0.675550
 31
0.167295
 12
0.058931
 22
-0.675550
 32
-0.511442
 13
0.058931
 23
-0.675550
 33
-0.511442
 62
2
  0
3DFACE
  8
Cylinder
 10
-0.169684
 20
-0.675550
 30
0.126362
 11
-0.058931
 21
-0.675550
 31
0.167295
 12
-0.058931
 22
-0.675550
 32
-0.511442
 13
-0.058931
 23
-0.675550
 33
-0.511442
 62
2
  0
3DFACE
  8
Cylinder
 10
-0.169684
 20
-0.675550
 30
-0.470509
 11
-0.169684
 21
-0.675550
 31
0.126362
 12
-0.058931
 22
-0.675550
 32
-0.511442
 13
-0.058931
 23
-0.675550
 33
-0.511442
 62
2
  0
3DFACE
  8
Cylinder
 10
-0.259971
 20
-0.675550
 30
0.049433
 11
-0.169684
 21
-0.675550
 31
0.126362
 12
-0.169684
 22
-0.675550
 32
-0.470509
 13
-0.169684
 23
-0.675550
 33
-0.470509
 62
2
  0
3DFACE
  8
Cylinder
 10
-0.259971
 20
-0.675550
 30
-0.393580
 11
-0.259971
 21
-0.675550
 31
0.049433
 12
-0.169684
 22
-0.675550
 32
-0.470509
 13
-0.169684
 23
-0.675550
 33
-0.470509
 62
2
  0
3DFACE
  8
Cylinder
 10
-0.318902
 20
-0.675550
 30
-0.054212
 11
-0.259971
 21
-0.675550
 31
0.049433
 12
-0.259971
 22
-0.675550
 32
-0.393580
 13
-0.259971
 23
-0.675550
 33
-0.393580
 62
2
  0
3DFACE
  8
Cylinder
 10
-0.318902
 20
-0.675550
 30
-0.289935
 11
-0.318902
 21
-0.675550
 31
-0.054212
 12
-0.259971
 22
-0.675550
 32
-0.393580
 13
-0.259971
 23
-0.675550
 33
-0.393580
 62
2
  0
3DFACE
  8
Cylinder
 10
-0.339368
 20
-0.675550
 30
-0.172073
 11
-0.318902
 21
-0.675550
 31
-0.054212
 12
-0.318902
 22
-0.675550
 32
-0.289935
 13
-0.318902
 23
-0.675550
 33
-0.289935
 62
2
  0
3DFACE
  8
Cylinder
 10
-0.058931
 20
-0.675550
 30
-0.511442
 11
0.058931
 21
-0.675550
 31
-0.511442
 12
0.058931
 22
-0.830176
 32
-0.511442
 13
-0.058931
 23
-0.830176
 33
-0.511442
 62
1
  0
3DFACE
  8
Cylinder
 10
0.058931
 20
-0.675550
 30
-0.511442
 11
0.169684
 21
-0.675550
 31
-0.470509
 12
0.169684
 22
-0.830176
 32
-0.470509
 13
0.058931
 23
-0.830176
 33
-0.511442
 62
1
  0
3DFACE
  8
Cylinder
 10
0.169684
 20
-0.675550
 30
-0.470509
 11
0.259971
 21
-0.675550
 31
-0.393580
 12
0.259971
 22
-0.830176
 32
-0.393580
 13
0.169684
 23
-0.830176
 33
-0.470509
 62
1
  0
3DFACE
  8
Cylinder
 10
0.259971
 20
-0.675550
 30
-0.393580
 11
0.318902
 21
-0.675550
 31
-0.289935
 12
0.318902
 22
-0.830176
 32
-0.289935
 13
0.259971
 23
-0.830176
 33
-0.393580
 62
1
  0
3DFACE
  8
Cylinder
 10
0.318902
 20
-0.675550
 30
-0.289935
 11
0.339368
 21
-0.675550
 31
-0.172073
 12
0.339368
 22
-0.830176
 32
-0.172073
 13
0.318902
 23
-0.830176
 33
-0.289935
 62
1
  0
3DFACE
  8
Cylinder
 10
0.339368
 20
-0.675550
 30
-0.172073
 11
0.318902
 21
-0.675550
 31
-0.054212
 12
0.318902
 22
-0.830176
 32
-0.054212
 13
0.339368
 23
-0.830176
 33
-0.172073
 62
1
  0
3DFACE
  8
Cylinder
 10
0.318902
 20
-0.675550
 30
-0.054212
 11
0.259971
 21
-0.675550
 31
0.049433
 12
0.259971
 22
-0.830176
 32
0.049433
 13
0.318902
 23
-0.830176
 33
-0.054212
 62
1
  0
3DFACE
  8
Cylinder
 10
0.259971
 20
-0.675550
 30
0.049433
 11
0.169684
 21
-0.675550
 31
0.126362
 12
0.169684
 22
-0.830176
 32
0.126362
 13
0.259971
 23
-0.830176
 33
0.049433
 62
1
  0
3DFACE
  8
Cylinder
 10
0.169684
 20
-0.675550
 30
0.126362
 11
0.058931
 21
-0.675550
 31
0.167295
 12
0.058931
 22
-0.830176
 32
0.167295
 13
0.169684
 23
-0.830176
 33
0.126362
 62
1
  0
3DFACE
  8
Cylinder1
 10
-0.275386
 20
1.631797
 30
-0.019822
 11
-0.000013
 21
1.631797
 31
-0.219892
 12
-0.000013
 22
2.901022
 32
-0.219892
 13
-0.275386
 23
2.901022
 33
-0.019822
 62
0
  0
3DFACE
  8
Cylinder1
 10
-0.170203
 20
1.631797
 30
0.303899
 11
-0.275386
 21
1.631797
 31
-0.019822
 12
-0.275386
 22
2.901022
 32
-0.019822
 13
-0.170203
 23
2.901022
 33
0.303899
 62
0
  0
3DFACE
  8
Cylinder1
 10
0.170177
 20
1.631797
 30
0.303899
 11
-0.170203
 21
1.631797
 31
0.303899
 12
-0.170203
 22
2.901022
 32
0.303899
 13
0.170177
 23
2.901022
 33
0.303899
 62
0
  0
3DFACE
  8
Cylinder1
 10
0.275360
 20
1.631797
 30
-0.019822
 11
0.170177
 21
1.631797
 31
0.303899
 12
0.170177
 22
2.901022
 32
0.303899
 13
0.275360
 23
2.901022
 33
-0.019822
 62
0
  0
3DFACE
  8
Cylinder1
 10
-0.000013
 20
1.631797
 30
-0.219892
 11
0.275360
 21
1.631797
 31
-0.019822
 12
0.275360
 22
2.901022
 32
-0.019822
 13
-0.000013
 23
2.901022
 33
-0.219892
 62
0
  0
3DFACE
  8
Cylinder1
 10
-0.169684
 20
2.901022
 30
0.070137
 11
-0.170203
 21
2.901022
 31
0.303899
 12
-0.275386
 22
2.901022
 32
-0.019822
 13
-0.275386
 23
2.901022
 33
-0.019822
 62
0
  0
3DFACE
  8
Cylinder1
 10
-0.159451
 20
2.901022
 30
0.011206
 11
-0.169684
 21
2.901022
 31
0.070137
 12
-0.275386
 22
2.901022
 32
-0.019822
 13
-0.275386
 23
2.901022
 33
-0.019822
 62
0
  0
3DFACE
  8
Cylinder1
 10
-0.129986
 20
2.901022
 30
-0.040617
 11
-0.159451
 21
2.901022
 31
0.011206
 12
-0.275386
 22
2.901022
 32
-0.019822
 13
-0.275386
 23
2.901022
 33
-0.019822
 62
0
  0
3DFACE
  8
Cylinder1
 10
-0.084842
 20
2.901022
 30
-0.079081
 11
-0.129986
 21
2.901022
 31
-0.040617
 12
-0.275386
 22
2.901022
 32
-0.019822
 13
-0.275386
 23
2.901022
 33
-0.019822
 62
0
  0
3DFACE
  8
Cylinder1
 10
-0.029465
 20
2.901022
 30
-0.099547
 11
-0.084842
 21
2.901022
 31
-0.079081
 12
-0.275386
 22
2.901022
 32
-0.019822
 13
-0.275386
 23
2.901022
 33
-0.019822
 62
0
  0
3DFACE
  8
Cylinder1
 10
-0.000013
 20
2.901022
 30
-0.219892
 11
-0.029465
 21
2.901022
 31
-0.099547
 12
-0.275386
 22
2.901022
 32
-0.019822
 13
-0.275386
 23
2.901022
 33
-0.019822
 62
0
  0
3DFACE
  8
Cylinder1
 10
0.029465
 20
2.901022
 30
-0.099547
 11
-0.029465
 21
2.901022
 31
-0.099547
 12
-0.000013
 22
2.901022
 32
-0.219892
 13
-0.000013
 23
2.901022
 33
-0.219892
 62
0
  0
3DFACE
  8
Cylinder1
 10
0.084842
 20
2.901022
 30
-0.079081
 11
0.029465
 21
2.901022
 31
-0.099547
 12
-0.000013
 22
2.901022
 32
-0.219892
 13
-0.000013
 23
2.901022
 33
-0.219892
 62
0
  0
3DFACE
  8
Cylinder1
 10
0.129986
 20
2.901022
 30
-0.040617
 11
0.084842
 21
2.901022
 31
-0.079081
 12
-0.000013
 22
2.901022
 32
-0.219892
 13
-0.000013
 23
2.901022
 33
-0.219892
 62
0
  0
3DFACE
  8
Cylinder1
 10
0.275360
 20
2.901022
 30
-0.019822
 11
0.129986
 21
2.901022
 31
-0.040617
 12
-0.000013
 22
2.901022
 32
-0.219892
 13
-0.000013
 23
2.901022
 33
-0.219892
 62
0
  0
3DFACE
  8
Cylinder1
 10
0.275360
 20
2.901022
 30
-0.019822
 11
0.159451
 21
2.901022
 31
0.011206
 12
0.129986
 22
2.901022
 32
-0.040617
 13
0.129986
 23
2.901022
 33
-0.040617
 62
0
  0
3DFACE
  8
Cylinder1
 10
0.275360
 20
2.901022
 30
-0.019822
 11
0.169684
 21
2.901022
 31
0.070137
 12
0.159451
 22
2.901022
 32
0.011206
 13
0.159451
 23
2.901022
 33
0.011206
 62
0
  0
3DFACE
  8
Cylinder1
 10
0.275360
 20
2.901022
 30
-0.019822
 11
0.170177
 21
2.901022
 31
0.303899
 12
0.169684
 22
2.901022
 32
0.070137
 13
0.169684
 23
2.901022
 33
0.070137
 62
0
  0
3DFACE
  8
Cylinder1
 10
-0.159451
 20
2.901022
 30
0.129067
 11
-0.170203
 21
2.901022
 31
0.303899
 12
-0.169684
 22
2.901022
 32
0.070137
 13
-0.169684
 23
2.901022
 33
0.070137
 62
0
  0
3DFACE
  8
Cylinder1
 10
-0.129986
 20
2.901022
 30
0.180890
 11
-0.170203
 21
2.901022
 31
0.303899
 12
-0.159451
 22
2.901022
 32
0.129067
 13
-0.159451
 23
2.901022
 33
0.129067
 62
0
  0
3DFACE
  8
Cylinder1
 10
-0.084842
 20
2.901022
 30
0.219354
 11
-0.170203
 21
2.901022
 31
0.303899
 12
-0.129986
 22
2.901022
 32
0.180890
 13
-0.129986
 23
2.901022
 33
0.180890
 62
0
  0
3DFACE
  8
Cylinder1
 10
-0.029465
 20
2.901022
 30
0.239821
 11
-0.170203
 21
2.901022
 31
0.303899
 12
-0.084842
 22
2.901022
 32
0.219354
 13
-0.084842
 23
2.901022
 33
0.219354
 62
0
  0
3DFACE
  8
Cylinder1
 10
0.029465
 20
2.901022
 30
0.239821
 11
-0.170203
 21
2.901022
 31
0.303899
 12
-0.029465
 22
2.901022
 32
0.239821
 13
-0.029465
 23
2.901022
 33
0.239821
 62
0
  0
3DFACE
  8
Cylinder1
 10
0.170177
 20
2.901022
 30
0.303899
 11
-0.170203
 21
2.901022
 31
0.303899
 12
0.029465
 22
2.901022
 32
0.239821
 13
0.029465
 23
2.901022
 33
0.239821
 62
0
  0
3DFACE
  8
Cylinder1
 10
0.170177
 20
2.901022
 30
0.303899
 11
0.029465
 21
2.901022
 31
0.239821
 12
0.084842
 22
2.901022
 32
0.219354
 13
0.084842
 23
2.901022
 33
0.219354
 62
0
  0
3DFACE
  8
Cylinder1
 10
0.170177
 20
2.901022
 30
0.303899
 11
0.084842
 21
2.901022
 31
0.219354
 12
0.129986
 22
2.901022
 32
0.180890
 13
0.129986
 23
2.901022
 33
0.180890
 62
0
  0
3DFACE
  8
Cylinder1
 10
0.170177
 20
2.901022
 30
0.303899
 11
0.129986
 21
2.901022
 31
0.180890
 12
0.159451
 22
2.901022
 32
0.129067
 13
0.159451
 23
2.901022
 33
0.129067
 62
0
  0
3DFACE
  8
Cylinder1
 10
0.170177
 20
2.901022
 30
0.303899
 11
0.159451
 21
2.901022
 31
0.129067
 12
0.169684
 22
2.901022
 32
0.070137
 13
0.169684
 23
2.901022
 33
0.070137
 62
0
  0
3DFACE
  8
Cylinder1
 10
-0.000013
 20
1.631797
 30
-0.219892
 11
-0.275386
 21
1.631797
 31
-0.019822
 12
-0.170203
 22
1.631797
 32
0.303899
 13
-0.170203
 23
1.631797
 33
0.303899
 62
0
  0
3DFACE
  8
Cylinder1
 10
0.170177
 20
1.631797
 30
0.303899
 11
-0.000013
 21
1.631797
 31
-0.219892
 12
-0.170203
 22
1.631797
 32
0.303899
 13
-0.170203
 23
1.631797
 33
0.303899
 62
0
  0
3DFACE
  8
Cylinder1
 10
0.275360
 20
1.631797
 30
-0.019822
 11
-0.000013
 21
1.631797
 31
-0.219892
 12
0.170177
 22
1.631797
 32
0.303899
 13
0.170177
 23
1.631797
 33
0.303899
 62
0
  0
3DFACE
  8
Cylinder1
 10
-0.029465
 20
1.816339
 30
-0.099547
 11
-0.084842
 21
1.816339
 31
-0.079081
 12
-0.084842
 22
2.901022
 32
-0.079081
 13
-0.029465
 23
2.901022
 33
-0.099547
 62
1
  0
3DFACE
  8
Cylinder1
 10
-0.084842
 20
1.816339
 30
-0.079081
 11
-0.129986
 21
1.816339
 31
-0.040617
 12
-0.129986
 22
2.901022
 32
-0.040617
 13
-0.084842
 23
2.901022
 33
-0.079081
 62
1
  0
3DFACE
  8
Cylinder1
 10
-0.129986
 20
1.816339
 30
-0.040617
 11
-0.159451
 21
1.816339
 31
0.011206
 12
-0.159451
 22
2.901022
 32
0.011206
 13
-0.129986
 23
2.901022
 33
-0.040617
 62
1
  0
3DFACE
  8
Cylinder1
 10
-0.159451
 20
1.816339
 30
0.011206
 11
-0.169684
 21
1.816339
 31
0.070137
 12
-0.169684
 22
2.901022
 32
0.070137
 13
-0.159451
 23
2.901022
 33
0.011206
 62
1
  0
3DFACE
  8
Cylinder1
 10
-0.169684
 20
1.816339
 30
0.070137
 11
-0.159451
 21
1.816339
 31
0.129067
 12
-0.159451
 22
2.901022
 32
0.129067
 13
-0.169684
 23
2.901022
 33
0.070137
 62
1
  0
3DFACE
  8
Cylinder1
 10
-0.159451
 20
1.816339
 30
0.129067
 11
-0.129986
 21
1.816339
 31
0.180890
 12
-0.129986
 22
2.901022
 32
0.180890
 13
-0.159451
 23
2.901022
 33
0.129067
 62
1
  0
3DFACE
  8
Cylinder1
 10
-0.129986
 20
1.816339
 30
0.180890
 11
-0.084842
 21
1.816339
 31
0.219354
 12
-0.084842
 22
2.901022
 32
0.219354
 13
-0.129986
 23
2.901022
 33
0.180890
 62
1
  0
3DFACE
  8
Cylinder1
 10
-0.084842
 20
1.816339
 30
0.219354
 11
-0.029465
 21
1.816339
 31
0.239821
 12
-0.029465
 22
2.901022
 32
0.239821
 13
-0.084842
 23
2.901022
 33
0.219354
 62
1
  0
3DFACE
  8
Cylinder1
 10
-0.029465
 20
1.816339
 30
0.239821
 11
0.029465
 21
1.816339
 31
0.239821
 12
0.029465
 22
2.901022
 32
0.239821
 13
-0.029465
 23
2.901022
 33
0.239821
 62
1
  0
3DFACE
  8
Cylinder1
 10
-0.159451
 20
1.816339
 30
0.011206
 11
-0.159451
 21
1.816339
 31
0.129067
 12
-0.169684
 22
1.816339
 32
0.070137
 13
-0.169684
 23
1.816339
 33
0.070137
 62
1
  0
3DFACE
  8
Cylinder1
 10
-0.129986
 20
1.816339
 30
0.180890
 11
-0.159451
 21
1.816339
 31
0.129067
 12
-0.159451
 22
1.816339
 32
0.011206
 13
-0.159451
 23
1.816339
 33
0.011206
 62
1
  0
3DFACE
  8
Cylinder1
 10
-0.129986
 20
1.816339
 30
-0.040617
 11
-0.129986
 21
1.816339
 31
0.180890
 12
-0.159451
 22
1.816339
 32
0.011206
 13
-0.159451
 23
1.816339
 33
0.011206
 62
1
  0
3DFACE
  8
Cylinder1
 10
-0.084842
 20
1.816339
 30
0.219354
 11
-0.129986
 21
1.816339
 31
0.180890
 12
-0.129986
 22
1.816339
 32
-0.040617
 13
-0.129986
 23
1.816339
 33
-0.040617
 62
1
  0
3DFACE
  8
Cylinder1
 10
-0.084842
 20
1.816339
 30
-0.079081
 11
-0.084842
 21
1.816339
 31
0.219354
 12
-0.129986
 22
1.816339
 32
-0.040617
 13
-0.129986
 23
1.816339
 33
-0.040617
 62
1
  0
3DFACE
  8
Cylinder1
 10
-0.029465
 20
1.816339
 30
0.239821
 11
-0.084842
 21
1.816339
 31
0.219354
 12
-0.084842
 22
1.816339
 32
-0.079081
 13
-0.084842
 23
1.816339
 33
-0.079081
 62
1
  0
3DFACE
  8
Cylinder1
 10
-0.029465
 20
1.816339
 30
-0.099547
 11
-0.029465
 21
1.816339
 31
0.239821
 12
-0.084842
 22
1.816339
 32
-0.079081
 13
-0.084842
 23
1.816339
 33
-0.079081
 62
1
  0
3DFACE
  8
Cylinder1
 10
0.029465
 20
1.816339
 30
0.239821
 11
-0.029465
 21
1.816339
 31
0.239821
 12
-0.029465
 22
1.816339
 32
-0.099547
 13
-0.029465
 23
1.816339
 33
-0.099547
 62
1
  0
3DFACE
  8
Cylinder1
 10
0.029465
 20
1.816339
 30
-0.099547
 11
0.029465
 21
1.816339
 31
0.239821
 12
-0.029465
 22
1.816339
 32
-0.099547
 13
-0.029465
 23
1.816339
 33
-0.099547
 62
1
  0
3DFACE
  8
Cylinder1
 10
0.084842
 20
1.816339
 30
0.219354
 11
0.029465
 21
1.816339
 31
0.239821
 12
0.029465
 22
1.816339
 32
-0.099547
 13
0.029465
 23
1.816339
 33
-0.099547
 62
1
  0
3DFACE
  8
Cylinder1
 10
0.084842
 20
1.816339
 30
-0.079081
 11
0.084842
 21
1.816339
 31
0.219354
 12
0.029465
 22
1.816339
 32
-0.099547
 13
0.029465
 23
1.816339
 33
-0.099547
 62
1
  0
3DFACE
  8
Cylinder1
 10
0.129986
 20
1.816339
 30
0.180890
 11
0.084842
 21
1.816339
 31
0.219354
 12
0.084842
 22
1.816339
 32
-0.079081
 13
0.084842
 23
1.816339
 33
-0.079081
 62
1
  0
3DFACE
  8
Cylinder1
 10
0.129986
 20
1.816339
 30
-0.040617
 11
0.129986
 21
1.816339
 31
0.180890
 12
0.084842
 22
1.816339
 32
-0.079081
 13
0.084842
 23
1.816339
 33
-0.079081
 62
1
  0
3DFACE
  8
Cylinder1
 10
0.159451
 20
1.816339
 30
0.129067
 11
0.129986
 21
1.816339
 31
0.180890
 12
0.129986
 22
1.816339
 32
-0.040617
 13
0.129986
 23
1.816339
 33
-0.040617
 62
1
  0
3DFACE
  8
Cylinder1
 10
0.159451
 20
1.816339
 30
0.011206
 11
0.159451
 21
1.816339
 31
0.129067
 12
0.129986
 22
1.816339
 32
-0.040617
 13
0.129986
 23
1.816339
 33
-0.040617
 62
1
  0
3DFACE
  8
Cylinder1
 10
0.169684
 20
1.816339
 30
0.070137
 11
0.159451
 21
1.816339
 31
0.129067
 12
0.159451
 22
1.816339
 32
0.011206
 13
0.159451
 23
1.816339
 33
0.011206
 62
1
  0
3DFACE
  8
Cylinder1
 10
0.084842
 20
1.816339
 30
0.219354
 11
0.129986
 21
1.816339
 31
0.180890
 12
0.129986
 22
2.901022
 32
0.180890
 13
0.084842
 23
2.901022
 33
0.219354
 62
1
  0
3DFACE
  8
Cylinder1
 10
0.029465
 20
1.816339
 30
0.239821
 11
0.084842
 21
1.816339
 31
0.219354
 12
0.084842
 22
2.901022
 32
0.219354
 13
0.029465
 23
2.901022
 33
0.239821
 62
1
  0
3DFACE
  8
Cylinder1
 10
0.129986
 20
1.816339
 30
0.180890
 11
0.159451
 21
1.816339
 31
0.129067
 12
0.159451
 22
2.901022
 32
0.129067
 13
0.129986
 23
2.901022
 33
0.180890
 62
1
  0
3DFACE
  8
Cylinder1
 10
0.159451
 20
1.816339
 30
0.129067
 11
0.169684
 21
1.816339
 31
0.070137
 12
0.169684
 22
2.901022
 32
0.070137
 13
0.159451
 23
2.901022
 33
0.129067
 62
1
  0
3DFACE
  8
Cylinder1
 10
0.169684
 20
1.816339
 30
0.070137
 11
0.159451
 21
1.816339
 31
0.011206
 12
0.159451
 22
2.901022
 32
0.011206
 13
0.169684
 23
2.901022
 33
0.070137
 62
1
  0
3DFACE
  8
Cylinder1
 10
0.159451
 20
1.816339
 30
0.011206
 11
0.129986
 21
1.816339
 31
-0.040617
 12
0.129986
 22
2.901022
 32
-0.040617
 13
0.159451
 23
2.901022
 33
0.011206
 62
1
  0
3DFACE
  8
Cylinder1
 10
0.129986
 20
1.816339
 30
-0.040617
 11
0.084842
 21
1.816339
 31
-0.079081
 12
0.084842
 22
2.901022
 32
-0.079081
 13
0.129986
 23
2.901022
 33
-0.040617
 62
1
  0
3DFACE
  8
Cylinder1
 10
0.084842
 20
1.816339
 30
-0.079081
 11
0.029465
 21
1.816339
 31
-0.099547
 12
0.029465
 22
2.901022
 32
-0.099547
 13
0.084842
 23
2.901022
 33
-0.079081
 62
1
  0
3DFACE
  8
Cylinder1
 10
0.029465
 20
1.816339
 30
-0.099547
 11
-0.029465
 21
1.816339
 31
-0.099547
 12
-0.029465
 22
2.901022
 32
-0.099547
 13
0.029465
 23
2.901022
 33
-0.099547
 62
1
  0
3DFACE
  8
Sphere
 10
-3.173815
 20
-0.286789
 30
-0.154744
 11
-2.128638
 21
3.511613
 31
-0.790286
 12
-1.096838
 22
0.140204
 32
1.102525
 13
-1.096838
 23
0.140204
 33
1.102525
 62
0
  0
3DFACE
  8
Sphere
 10
-2.128638
 20
3.511613
 30
-0.790286
 11
-1.096189
 21
-0.286790
 31
-1.381192
 12
-1.096838
 22
0.140204
 32
1.102525
 13
-1.096838
 23
0.140204
 33
1.102525
 62
0
  0
3DFACE
  8
Sphere
 10
-1.096189
 20
-0.286790
 30
-1.381192
 11
-2.128515
 21
-1.382975
 31
-0.790509
 12
-1.096838
 22
0.140204
 32
1.102525
 13
-1.096838
 23
0.140204
 33
1.102525
 62
0
  0
3DFACE
  8
Sphere
 10
-2.128515
 20
-1.382975
 30
-0.790509
 11
-3.173815
 21
-0.286789
 31
-0.154744
 12
-1.096838
 22
0.140204
 32
1.102525
 13
-1.096838
 23
0.140204
 33
1.102525
 62
0
  0
3DFACE
  8
Sphere
 10
-2.713161
 20
-0.286789
 30
-1.816284
 11
-2.128638
 21
3.511613
 31
-0.790286
 12
-3.173815
 22
-0.286789
 32
-0.154744
 13
-3.173815
 23
-0.286789
 33
-0.154744
 62
0
  0
3DFACE
  8
Sphere
 10
-2.713161
 20
-0.286789
 30
-1.816284
 11
-1.096189
 21
-0.286790
 31
-1.381192
 12
-2.128638
 22
3.511613
 32
-0.790286
 13
-2.128638
 23
3.511613
 33
-0.790286
 62
0
  0
3DFACE
  8
Sphere
 10
-2.713161
 20
-0.286789
 30
-1.816284
 11
-2.128515
 21
-1.382975
 31
-0.790509
 12
-1.096189
 22
-0.286790
 32
-1.381192
 13
-1.096189
 23
-0.286790
 33
-1.381192
 62
0
  0
3DFACE
  8
Sphere
 10
-2.713161
 20
-0.286789
 30
-1.816284
 11
-3.173815
 21
-0.286789
 31
-0.154744
 12
-2.128515
 22
-1.382975
 32
-0.790509
 13
-2.128515
 23
-1.382975
 33
-0.790509
 62
0
  0
3DFACE
  8
Cylinder001
 10
-1.846860
 20
0.010582
 30
-0.315716
 11
-0.544253
 21
0.010576
 31
-0.009816
 12
-0.365809
 22
0.254927
 32
-0.388278
 13
-1.451725
 23
0.254927
 33
-1.191284
 62
0
  0
3DFACE
  8
Cylinder001
 10
-1.451725
 20
0.254927
 30
-1.191284
 11
-0.365809
 21
0.254927
 31
-0.388278
 12
-0.544269
 22
0.499269
 32
-0.009808
 13
-1.846871
 23
0.499269
 33
-0.315707
 62
0
  0
3DFACE
  8
Cylinder001
 10
-1.846871
 20
0.499269
 30
-0.315707
 11
-0.544269
 21
0.499269
 31
-0.009808
 12
-0.544253
 22
0.010576
 32
-0.009816
 13
-1.846860
 23
0.010582
 33
-0.315716
 62
0
  0
3DFACE
  8
Cylinder001
 10
-1.846860
 20
0.010582
 30
-0.315716
 11
-1.451725
 21
0.254927
 31
-1.191284
 12
-1.846871
 22
0.499269
 32
-0.315707
 13
-1.846871
 23
0.499269
 33
-0.315707
 62
0
  0
3DFACE
  8
Cylinder001
 10
-0.544269
 20
0.499269
 30
-0.009808
 11
-0.365809
 21
0.254927
 31
-0.388278
 12
-0.544253
 22
0.010576
 32
-0.009816
 13
-0.544253
 23
0.010576
 33
-0.009816
 62
0
  0
3DFACE
  8
Sphere001
 10
1.096838
 20
0.140204
 30
1.102525
 11
2.128638
 21
3.511613
 31
-0.790286
 12
3.173815
 22
-0.286789
 32
-0.154743
 13
3.173815
 23
-0.286789
 33
-0.154743
 62
0
  0
3DFACE
  8
Sphere001
 10
1.096838
 20
0.140204
 30
1.102525
 11
1.096188
 21
-0.286790
 31
-1.381193
 12
2.128638
 22
3.511613
 32
-0.790286
 13
2.128638
 23
3.511613
 33
-0.790286
 62
0
  0
3DFACE
  8
Sphere001
 10
1.096838
 20
0.140204
 30
1.102525
 11
2.128515
 21
-1.382975
 31
-0.790509
 12
1.096188
 22
-0.286790
 32
-1.381193
 13
1.096188
 23
-0.286790
 33
-1.381193
 62
0
  0
3DFACE
  8
Sphere001
 10
1.096838
 20
0.140204
 30
1.102525
 11
3.173815
 21
-0.286789
 31
-0.154743
 12
2.128515
 22
-1.382975
 32
-0.790509
 13
2.128515
 23
-1.382975
 33
-0.790509
 62
0
  0
3DFACE
  8
Sphere001
 10
3.173815
 20
-0.286789
 30
-0.154743
 11
2.128638
 21
3.511613
 31
-0.790286
 12
2.713161
 22
-0.286789
 32
-1.816284
 13
2.713161
 23
-0.286789
 33
-1.816284
 62
0
  0
3DFACE
  8
Sphere001
 10
2.128638
 20
3.511613
 30
-0.790286
 11
1.096188
 21
-0.286790
 31
-1.381193
 12
2.713161
 22
-0.286789
 32
-1.816284
 13
2.713161
 23
-0.286789
 33
-1.816284
 62
0
  0
3DFACE
  8
Sphere001
 10
1.096188
 20
-0.286790
 30
-1.381193
 11
2.128515
 21
-1.382975
 31
-0.790509
 12
2.713161
 22
-0.286789
 32
-1.816284
 13
2.713161
 23
-0.286789
 33
-1.816284
 62
0
  0
3DFACE
  8
Sphere001
 10
2.128515
 20
-1.382975
 30
-0.790509
 11
3.173815
 21
-0.286789
 31
-0.154743
 12
2.713161
 22
-0.286789
 32
-1.816284
 13
2.713161
 23
-0.286789
 33
-1.816284
 62
0
  0
3DFACE
  8
Cylinder002
 10
1.451725
 20
0.254928
 30
-1.191284
 11
0.365809
 21
0.254928
 31
-0.388278
 12
0.544254
 22
0.010577
 32
-0.009816
 13
1.846860
 23
0.010583
 33
-0.315716
 62
0
  0
3DFACE
  8
Cylinder002
 10
1.846871
 20
0.499270
 30
-0.315707
 11
0.544270
 21
0.499271
 31
-0.009808
 12
0.365809
 22
0.254928
 32
-0.388278
 13
1.451725
 23
0.254928
 33
-1.191284
 62
0
  0
3DFACE
  8
Cylinder002
 10
1.846860
 20
0.010583
 30
-0.315716
 11
0.544254
 21
0.010577
 31
-0.009816
 12
0.544270
 22
0.499271
 32
-0.009808
 13
1.846871
 23
0.499270
 33
-0.315707
 62
0
  0
3DFACE
  8
Cylinder002
 10
1.846871
 20
0.499270
 30
-0.315707
 11
1.451725
 21
0.254928
 31
-1.191284
 12
1.846860
 22
0.010583
 32
-0.315716
 13
1.846860
 23
0.010583
 33
-0.315716
 62
0
  0
3DFACE
  8
Cylinder002
 10
0.544254
 20
0.010577
 30
-0.009816
 11
0.365809
 21
0.254928
 31
-0.388278
 12
0.544270
 22
0.499271
 32
-0.009808
 13
0.544270
 23
0.499271
 33
-0.009808
 62
0
 0
ENDSEC
 0
EOF
