  0
SECTION
  2
HEADER
  0
ENDSEC
  0
SECTION
  2
TABLES
  0
TABLE
  2
LAYER
  70
    153
  0
LAYER
  2
Cube2
 70
0
 62
15
  6
CONTINUOUS
  0
LAYER
  2
Cylinder1
 70
0
 62
15
  6
CONTINUOUS
  0
LAYER
  2
Cylinder5
 70
0
 62
15
  6
CONTINUOUS
  0
LAYER
  2
Cube3
 70
0
 62
15
  6
CONTINUOUS
  0
LAYER
  2
Cylinder2
 70
0
 62
15
  6
CONTINUOUS
  0
LAYER
  2
Cylinder4
 70
0
 62
15
  6
CONTINUOUS
  0
LAYER
  2
NoName2
 70
0
 62
15
  6
CONTINUOUS
  0
LAYER
  2
Cylinder
 70
0
 62
15
  6
CONTINUOUS
  0
LAYER
  2
Cube
 70
0
 62
15
  6
CONTINUOUS
  0
ENDTAB
  0
ENDSEC
  0
SECTION
  2
ENTITIES
  0
3DFACE
  8
Cube2
 10
-1.982634
 20
-0.892312
 30
1.591805
 11
-1.982634
 21
0.446144
 31
1.591804
 12
-1.982634
 22
0.669220
 32
-1.348037
 13
-1.982634
 23
-0.669236
 33
-1.348036
 62
0
  0
3DFACE
  8
Cube2
 10
-1.982634
 20
0.669220
 30
-1.348037
 11
-2.823693
 21
0.669221
 31
-1.348037
 12
-2.823693
 22
-0.669236
 32
-1.348036
 13
-1.982634
 23
-0.669236
 33
-1.348036
 62
0
  0
3DFACE
  8
Cube2
 10
-2.823693
 20
0.669221
 30
-1.348037
 11
-1.982634
 21
0.669220
 31
-1.348037
 12
-2.747233
 22
0.446144
 32
0.634646
 13
-2.747233
 23
0.446144
 33
0.634646
 62
0
  0
3DFACE
  8
Cube2
 10
-1.982634
 20
-0.892312
 30
1.591805
 11
-2.747233
 21
-0.892312
 31
0.634648
 12
-2.747233
 22
0.446144
 32
0.634646
 13
-1.982634
 23
0.446144
 33
1.591804
 62
0
  0
3DFACE
  8
Cube2
 10
-2.747233
 20
0.446144
 30
0.634646
 11
-2.747233
 21
-0.892312
 31
0.634648
 12
-2.823693
 22
-0.669236
 32
-1.348036
 13
-2.823693
 23
0.669221
 33
-1.348037
 62
0
  0
3DFACE
  8
Cube2
 10
-2.747233
 20
-0.892312
 30
0.634648
 11
-1.982634
 21
-0.892312
 31
1.591805
 12
-1.982634
 22
-0.669236
 32
-1.348036
 13
-1.982634
 23
-0.669236
 33
-1.348036
 62
0
  0
3DFACE
  8
Cube2
 10
-1.982634
 20
0.446144
 30
1.591804
 11
-2.747233
 21
0.446144
 31
0.634646
 12
-1.982634
 22
0.669220
 32
-1.348037
 13
-1.982634
 23
0.669220
 33
-1.348037
 62
0
  0
3DFACE
  8
Cube2
 10
-1.982634
 20
-0.669236
 30
-1.348036
 11
-2.823693
 21
-0.669236
 31
-1.348036
 12
-2.747233
 22
-0.892312
 32
0.634648
 13
-2.747233
 23
-0.892312
 33
0.634648
 62
0
  0
3DFACE
  8
Cylinder1
 10
-1.780269
 20
-0.391273
 30
-1.348013
 11
-1.780269
 21
1.159182
 31
-1.348015
 12
-2.426351
 22
1.159182
 32
-2.479327
 13
-2.426360
 23
-0.611497
 33
-2.256286
 62
0
  0
3DFACE
  8
Cylinder1
 10
-3.072441
 20
-0.391273
 30
-1.348013
 11
-3.072441
 21
1.159183
 31
-1.348015
 12
-1.780269
 22
1.159182
 32
-1.348015
 13
-1.780269
 23
-0.391273
 33
-1.348013
 62
0
  0
3DFACE
  8
Cylinder1
 10
-2.426360
 20
-0.611497
 30
-2.256286
 11
-2.426351
 21
1.159182
 31
-2.479327
 12
-3.072441
 22
1.159183
 32
-1.348015
 13
-3.072441
 23
-0.391273
 33
-1.348013
 62
0
  0
3DFACE
  8
Cylinder1
 10
-3.072441
 20
-0.391273
 30
-1.348013
 11
-1.780269
 21
-0.391273
 31
-1.348013
 12
-2.426360
 22
-0.611497
 32
-2.256286
 13
-2.426360
 23
-0.611497
 33
-2.256286
 62
0
  0
3DFACE
  8
Cylinder1
 10
-2.426351
 20
1.159182
 30
-2.479327
 11
-1.780269
 21
1.159182
 31
-1.348015
 12
-3.072441
 22
1.159183
 32
-1.348015
 13
-3.072441
 23
1.159183
 33
-1.348015
 62
0
  0
3DFACE
  8
Cylinder5
 10
-2.727368
 20
2.301322
 30
-1.935300
 11
-2.752166
 21
2.301322
 31
-1.810628
 12
-2.752166
 22
0.939511
 32
-1.810628
 13
-2.727367
 23
0.939511
 33
-1.935299
 62
0
  0
3DFACE
  8
Cylinder5
 10
-2.656747
 20
2.301322
 30
-2.040991
 11
-2.727368
 21
2.301322
 31
-1.935300
 12
-2.727367
 22
0.939511
 32
-1.935299
 13
-2.656747
 23
0.939511
 33
-2.040990
 62
0
  0
3DFACE
  8
Cylinder5
 10
-2.551056
 20
2.301322
 30
-2.111611
 11
-2.656747
 21
2.301322
 31
-2.040991
 12
-2.656747
 22
0.939511
 32
-2.040990
 13
-2.551055
 23
0.939511
 33
-2.111610
 62
0
  0
3DFACE
  8
Cylinder5
 10
-2.426385
 20
2.301322
 30
-2.136410
 11
-2.551056
 21
2.301322
 31
-2.111611
 12
-2.551055
 22
0.939511
 32
-2.111610
 13
-2.426385
 23
0.939511
 33
-2.136409
 62
0
  0
3DFACE
  8
Cylinder5
 10
-2.301713
 20
2.301322
 30
-2.111611
 11
-2.426385
 21
2.301322
 31
-2.136410
 12
-2.426385
 22
0.939511
 32
-2.136409
 13
-2.301714
 23
0.939511
 33
-2.111610
 62
0
  0
3DFACE
  8
Cylinder5
 10
-2.196022
 20
2.301322
 30
-2.040991
 11
-2.301713
 21
2.301322
 31
-2.111611
 12
-2.301714
 22
0.939511
 32
-2.111610
 13
-2.196023
 23
0.939511
 33
-2.040990
 62
0
  0
3DFACE
  8
Cylinder5
 10
-2.125402
 20
2.301322
 30
-1.935300
 11
-2.196022
 21
2.301322
 31
-2.040991
 12
-2.196023
 22
0.939511
 32
-2.040990
 13
-2.125402
 23
0.939511
 33
-1.935299
 62
0
  0
3DFACE
  8
Cylinder5
 10
-2.100603
 20
2.301322
 30
-1.810628
 11
-2.125402
 21
2.301322
 31
-1.935300
 12
-2.125402
 22
0.939511
 32
-1.935299
 13
-2.100604
 23
0.939511
 33
-1.810628
 62
0
  0
3DFACE
  8
Cylinder5
 10
-2.125402
 20
2.301322
 30
-1.685957
 11
-2.100603
 21
2.301322
 31
-1.810628
 12
-2.100604
 22
0.939511
 32
-1.810628
 13
-2.125402
 23
0.939511
 33
-1.685957
 62
0
  0
3DFACE
  8
Cylinder5
 10
-2.196022
 20
2.301322
 30
-1.580266
 11
-2.125402
 21
2.301322
 31
-1.685957
 12
-2.125402
 22
0.939511
 32
-1.685957
 13
-2.196023
 23
0.939511
 33
-1.580267
 62
0
  0
3DFACE
  8
Cylinder5
 10
-2.301713
 20
2.301322
 30
-1.509645
 11
-2.196022
 21
2.301322
 31
-1.580266
 12
-2.196023
 22
0.939511
 32
-1.580267
 13
-2.301714
 23
0.939511
 33
-1.509647
 62
0
  0
3DFACE
  8
Cylinder5
 10
-2.426385
 20
2.301322
 30
-1.484847
 11
-2.301713
 21
2.301322
 31
-1.509645
 12
-2.301714
 22
0.939511
 32
-1.509647
 13
-2.426385
 23
0.939511
 33
-1.484848
 62
0
  0
3DFACE
  8
Cylinder5
 10
-2.551056
 20
2.301322
 30
-1.509645
 11
-2.426385
 21
2.301322
 31
-1.484847
 12
-2.426385
 22
0.939511
 32
-1.484848
 13
-2.551055
 23
0.939511
 33
-1.509647
 62
0
  0
3DFACE
  8
Cylinder5
 10
-2.656747
 20
2.301322
 30
-1.580266
 11
-2.551056
 21
2.301322
 31
-1.509645
 12
-2.551055
 22
0.939511
 32
-1.509647
 13
-2.656747
 23
0.939511
 33
-1.580267
 62
0
  0
3DFACE
  8
Cylinder5
 10
-2.727368
 20
2.301322
 30
-1.685957
 11
-2.656747
 21
2.301322
 31
-1.580266
 12
-2.656747
 22
0.939511
 32
-1.580267
 13
-2.727367
 23
0.939511
 33
-1.685957
 62
0
  0
3DFACE
  8
Cylinder5
 10
-2.752166
 20
2.301322
 30
-1.810628
 11
-2.727368
 21
2.301322
 31
-1.685957
 12
-2.727367
 22
0.939511
 32
-1.685957
 13
-2.752166
 23
0.939511
 33
-1.810628
 62
0
  0
3DFACE
  8
Cylinder5
 10
-2.551055
 20
0.939511
 30
-2.111610
 11
-2.301714
 21
0.939511
 31
-2.111610
 12
-2.426385
 22
0.939511
 32
-2.136409
 13
-2.426385
 23
0.939511
 33
-2.136409
 62
0
  0
3DFACE
  8
Cylinder5
 10
-2.196023
 20
0.939511
 30
-2.040990
 11
-2.301714
 21
0.939511
 31
-2.111610
 12
-2.551055
 22
0.939511
 32
-2.111610
 13
-2.551055
 23
0.939511
 33
-2.111610
 62
0
  0
3DFACE
  8
Cylinder5
 10
-2.656747
 20
0.939511
 30
-2.040990
 11
-2.196023
 21
0.939511
 31
-2.040990
 12
-2.551055
 22
0.939511
 32
-2.111610
 13
-2.551055
 23
0.939511
 33
-2.111610
 62
0
  0
3DFACE
  8
Cylinder5
 10
-2.125402
 20
0.939511
 30
-1.935299
 11
-2.196023
 21
0.939511
 31
-2.040990
 12
-2.656747
 22
0.939511
 32
-2.040990
 13
-2.656747
 23
0.939511
 33
-2.040990
 62
0
  0
3DFACE
  8
Cylinder5
 10
-2.727367
 20
0.939511
 30
-1.935299
 11
-2.125402
 21
0.939511
 31
-1.935299
 12
-2.656747
 22
0.939511
 32
-2.040990
 13
-2.656747
 23
0.939511
 33
-2.040990
 62
0
  0
3DFACE
  8
Cylinder5
 10
-2.752166
 20
0.939511
 30
-1.810628
 11
-2.125402
 21
0.939511
 31
-1.935299
 12
-2.727367
 22
0.939511
 32
-1.935299
 13
-2.727367
 23
0.939511
 33
-1.935299
 62
0
  0
3DFACE
  8
Cylinder5
 10
-2.100604
 20
0.939511
 30
-1.810628
 11
-2.125402
 21
0.939511
 31
-1.935299
 12
-2.752166
 22
0.939511
 32
-1.810628
 13
-2.752166
 23
0.939511
 33
-1.810628
 62
0
  0
3DFACE
  8
Cylinder5
 10
-2.125402
 20
0.939511
 30
-1.685957
 11
-2.100604
 21
0.939511
 31
-1.810628
 12
-2.752166
 22
0.939511
 32
-1.810628
 13
-2.752166
 23
0.939511
 33
-1.810628
 62
0
  0
3DFACE
  8
Cylinder5
 10
-2.727367
 20
0.939511
 30
-1.685957
 11
-2.125402
 21
0.939511
 31
-1.685957
 12
-2.752166
 22
0.939511
 32
-1.810628
 13
-2.752166
 23
0.939511
 33
-1.810628
 62
0
  0
3DFACE
  8
Cylinder5
 10
-2.196023
 20
0.939511
 30
-1.580267
 11
-2.125402
 21
0.939511
 31
-1.685957
 12
-2.727367
 22
0.939511
 32
-1.685957
 13
-2.727367
 23
0.939511
 33
-1.685957
 62
0
  0
3DFACE
  8
Cylinder5
 10
-2.656747
 20
0.939511
 30
-1.580267
 11
-2.196023
 21
0.939511
 31
-1.580267
 12
-2.727367
 22
0.939511
 32
-1.685957
 13
-2.727367
 23
0.939511
 33
-1.685957
 62
0
  0
3DFACE
  8
Cylinder5
 10
-2.301714
 20
0.939511
 30
-1.509647
 11
-2.196023
 21
0.939511
 31
-1.580267
 12
-2.656747
 22
0.939511
 32
-1.580267
 13
-2.656747
 23
0.939511
 33
-1.580267
 62
0
  0
3DFACE
  8
Cylinder5
 10
-2.551055
 20
0.939511
 30
-1.509647
 11
-2.301714
 21
0.939511
 31
-1.509647
 12
-2.656747
 22
0.939511
 32
-1.580267
 13
-2.656747
 23
0.939511
 33
-1.580267
 62
0
  0
3DFACE
  8
Cylinder5
 10
-2.426385
 20
0.939511
 30
-1.484848
 11
-2.301714
 21
0.939511
 31
-1.509647
 12
-2.551055
 22
0.939511
 32
-1.509647
 13
-2.551055
 23
0.939511
 33
-1.509647
 62
0
  0
3DFACE
  8
Cylinder5
 10
-2.506531
 20
2.301322
 30
-2.004117
 11
-2.656747
 21
2.301322
 31
-2.040991
 12
-2.426385
 22
2.301322
 32
-2.020059
 13
-2.426385
 23
2.301322
 33
-2.020059
 62
0
  0
3DFACE
  8
Cylinder5
 10
-2.574475
 20
2.301322
 30
-1.958718
 11
-2.656747
 21
2.301322
 31
-2.040991
 12
-2.506531
 22
2.301322
 32
-2.004117
 13
-2.506531
 23
2.301322
 33
-2.004117
 62
0
  0
3DFACE
  8
Cylinder5
 10
-2.727368
 20
2.301322
 30
-1.935300
 11
-2.656747
 21
2.301322
 31
-2.040991
 12
-2.574475
 22
2.301322
 32
-1.958718
 13
-2.574475
 23
2.301322
 33
-1.958718
 62
0
  0
3DFACE
  8
Cylinder5
 10
-2.619874
 20
2.301322
 30
-1.890774
 11
-2.727368
 21
2.301322
 31
-1.935300
 12
-2.574475
 22
2.301322
 32
-1.958718
 13
-2.574475
 23
2.301322
 33
-1.958718
 62
0
  0
3DFACE
  8
Cylinder5
 10
-2.752166
 20
2.301322
 30
-1.810628
 11
-2.727368
 21
2.301322
 31
-1.935300
 12
-2.619874
 22
2.301322
 32
-1.890774
 13
-2.619874
 23
2.301322
 33
-1.890774
 62
0
  0
3DFACE
  8
Cylinder5
 10
-2.635816
 20
2.301322
 30
-1.810628
 11
-2.752166
 21
2.301322
 31
-1.810628
 12
-2.619874
 22
2.301322
 32
-1.890774
 13
-2.619874
 23
2.301322
 33
-1.890774
 62
0
  0
3DFACE
  8
Cylinder5
 10
-2.619874
 20
2.301322
 30
-1.730482
 11
-2.752166
 21
2.301322
 31
-1.810628
 12
-2.635816
 22
2.301322
 32
-1.810628
 13
-2.635816
 23
2.301322
 33
-1.810628
 62
0
  0
3DFACE
  8
Cylinder5
 10
-2.727368
 20
2.301322
 30
-1.685957
 11
-2.752166
 21
2.301322
 31
-1.810628
 12
-2.619874
 22
2.301322
 32
-1.730482
 13
-2.619874
 23
2.301322
 33
-1.730482
 62
0
  0
3DFACE
  8
Cylinder5
 10
-2.574475
 20
2.301322
 30
-1.662538
 11
-2.727368
 21
2.301322
 31
-1.685957
 12
-2.619874
 22
2.301322
 32
-1.730482
 13
-2.619874
 23
2.301322
 33
-1.730482
 62
0
  0
3DFACE
  8
Cylinder5
 10
-2.506531
 20
2.301322
 30
-1.617139
 11
-2.727368
 21
2.301322
 31
-1.685957
 12
-2.574475
 22
2.301322
 32
-1.662538
 13
-2.574475
 23
2.301322
 33
-1.662538
 62
0
  0
3DFACE
  8
Cylinder5
 10
-2.656747
 20
2.301322
 30
-1.580266
 11
-2.727368
 21
2.301322
 31
-1.685957
 12
-2.506531
 22
2.301322
 32
-1.617139
 13
-2.506531
 23
2.301322
 33
-1.617139
 62
0
  0
3DFACE
  8
Cylinder5
 10
-2.656747
 20
2.301322
 30
-1.580266
 11
-2.506531
 21
2.301322
 31
-1.617139
 12
-2.426385
 22
2.301322
 32
-1.601197
 13
-2.426385
 23
2.301322
 33
-1.601197
 62
0
  0
3DFACE
  8
Cylinder5
 10
-2.196022
 20
2.301322
 30
-1.580266
 11
-2.656747
 21
2.301322
 31
-1.580266
 12
-2.426385
 22
2.301322
 32
-1.601197
 13
-2.426385
 23
2.301322
 33
-1.601197
 62
0
  0
3DFACE
  8
Cylinder5
 10
-2.551056
 20
2.301322
 30
-1.509645
 11
-2.656747
 21
2.301322
 31
-1.580266
 12
-2.196022
 22
2.301322
 32
-1.580266
 13
-2.196022
 23
2.301322
 33
-1.580266
 62
0
  0
3DFACE
  8
Cylinder5
 10
-2.301713
 20
2.301322
 30
-1.509645
 11
-2.551056
 21
2.301322
 31
-1.509645
 12
-2.196022
 22
2.301322
 32
-1.580266
 13
-2.196022
 23
2.301322
 33
-1.580266
 62
0
  0
3DFACE
  8
Cylinder5
 10
-2.426385
 20
2.301322
 30
-1.484847
 11
-2.551056
 21
2.301322
 31
-1.509645
 12
-2.301713
 22
2.301322
 32
-1.509645
 13
-2.301713
 23
2.301322
 33
-1.509645
 62
0
  0
3DFACE
  8
Cylinder5
 10
-2.301713
 20
2.301322
 30
-2.111611
 11
-2.551056
 21
2.301322
 31
-2.111611
 12
-2.426385
 22
2.301322
 32
-2.136410
 13
-2.426385
 23
2.301322
 33
-2.136410
 62
0
  0
3DFACE
  8
Cylinder5
 10
-2.656747
 20
2.301322
 30
-2.040991
 11
-2.551056
 21
2.301322
 31
-2.111611
 12
-2.301713
 22
2.301322
 32
-2.111611
 13
-2.301713
 23
2.301322
 33
-2.111611
 62
0
  0
3DFACE
  8
Cylinder5
 10
-2.196022
 20
2.301322
 30
-2.040991
 11
-2.656747
 21
2.301322
 31
-2.040991
 12
-2.301713
 22
2.301322
 32
-2.111611
 13
-2.301713
 23
2.301322
 33
-2.111611
 62
0
  0
3DFACE
  8
Cylinder5
 10
-2.426385
 20
2.301322
 30
-2.020059
 11
-2.656747
 21
2.301322
 31
-2.040991
 12
-2.196022
 22
2.301322
 32
-2.040991
 13
-2.196022
 23
2.301322
 33
-2.040991
 62
0
  0
3DFACE
  8
Cylinder5
 10
-2.346239
 20
2.301322
 30
-2.004117
 11
-2.426385
 21
2.301322
 31
-2.020059
 12
-2.196022
 22
2.301322
 32
-2.040991
 13
-2.196022
 23
2.301322
 33
-2.040991
 62
0
  0
3DFACE
  8
Cylinder5
 10
-2.278295
 20
2.301322
 30
-1.958718
 11
-2.346239
 21
2.301322
 31
-2.004117
 12
-2.196022
 22
2.301322
 32
-2.040991
 13
-2.196022
 23
2.301322
 33
-2.040991
 62
0
  0
3DFACE
  8
Cylinder5
 10
-2.125402
 20
2.301322
 30
-1.935300
 11
-2.278295
 21
2.301322
 31
-1.958718
 12
-2.196022
 22
2.301322
 32
-2.040991
 13
-2.196022
 23
2.301322
 33
-2.040991
 62
0
  0
3DFACE
  8
Cylinder5
 10
-2.232896
 20
2.301322
 30
-1.890774
 11
-2.278295
 21
2.301322
 31
-1.958718
 12
-2.125402
 22
2.301322
 32
-1.935300
 13
-2.125402
 23
2.301322
 33
-1.935300
 62
0
  0
3DFACE
  8
Cylinder5
 10
-2.216954
 20
2.301322
 30
-1.810628
 11
-2.232896
 21
2.301322
 31
-1.890774
 12
-2.125402
 22
2.301322
 32
-1.935300
 13
-2.125402
 23
2.301322
 33
-1.935300
 62
0
  0
3DFACE
  8
Cylinder5
 10
-2.100603
 20
2.301322
 30
-1.810628
 11
-2.216954
 21
2.301322
 31
-1.810628
 12
-2.125402
 22
2.301322
 32
-1.935300
 13
-2.125402
 23
2.301322
 33
-1.935300
 62
0
  0
3DFACE
  8
Cylinder5
 10
-2.232896
 20
2.301322
 30
-1.730482
 11
-2.216954
 21
2.301322
 31
-1.810628
 12
-2.100603
 22
2.301322
 32
-1.810628
 13
-2.100603
 23
2.301322
 33
-1.810628
 62
0
  0
3DFACE
  8
Cylinder5
 10
-2.125402
 20
2.301322
 30
-1.685957
 11
-2.232896
 21
2.301322
 31
-1.730482
 12
-2.100603
 22
2.301322
 32
-1.810628
 13
-2.100603
 23
2.301322
 33
-1.810628
 62
0
  0
3DFACE
  8
Cylinder5
 10
-2.278295
 20
2.301322
 30
-1.662538
 11
-2.232896
 21
2.301322
 31
-1.730482
 12
-2.125402
 22
2.301322
 32
-1.685957
 13
-2.125402
 23
2.301322
 33
-1.685957
 62
0
  0
3DFACE
  8
Cylinder5
 10
-2.346239
 20
2.301322
 30
-1.617139
 11
-2.278295
 21
2.301322
 31
-1.662538
 12
-2.125402
 22
2.301322
 32
-1.685957
 13
-2.125402
 23
2.301322
 33
-1.685957
 62
0
  0
3DFACE
  8
Cylinder5
 10
-2.196022
 20
2.301322
 30
-1.580266
 11
-2.346239
 21
2.301322
 31
-1.617139
 12
-2.125402
 22
2.301322
 32
-1.685957
 13
-2.125402
 23
2.301322
 33
-1.685957
 62
0
  0
3DFACE
  8
Cylinder5
 10
-2.196022
 20
2.301322
 30
-1.580266
 11
-2.426385
 21
2.301322
 31
-1.601197
 12
-2.346239
 22
2.301322
 32
-1.617139
 13
-2.346239
 23
2.301322
 33
-1.617139
 62
0
  0
3DFACE
  8
Cylinder5
 10
-2.232897
 20
1.179879
 30
-1.730482
 11
-2.216955
 21
1.179879
 31
-1.810628
 12
-2.216954
 22
2.301322
 32
-1.810628
 13
-2.232896
 23
2.301322
 33
-1.730482
 62
1
  0
3DFACE
  8
Cylinder5
 10
-2.278296
 20
1.179879
 30
-1.662537
 11
-2.232897
 21
1.179879
 31
-1.730482
 12
-2.232896
 22
2.301322
 32
-1.730482
 13
-2.278295
 23
2.301322
 33
-1.662538
 62
1
  0
3DFACE
  8
Cylinder5
 10
-2.346240
 20
1.179879
 30
-1.617139
 11
-2.278296
 21
1.179879
 31
-1.662537
 12
-2.278295
 22
2.301322
 32
-1.662538
 13
-2.346239
 23
2.301322
 33
-1.617139
 62
1
  0
3DFACE
  8
Cylinder5
 10
-2.426385
 20
1.179879
 30
-1.601197
 11
-2.346240
 21
1.179879
 31
-1.617139
 12
-2.346239
 22
2.301322
 32
-1.617139
 13
-2.426385
 23
2.301322
 33
-1.601197
 62
1
  0
3DFACE
  8
Cylinder5
 10
-2.506530
 20
1.179879
 30
-1.617139
 11
-2.426385
 21
1.179879
 31
-1.601197
 12
-2.426385
 22
2.301322
 32
-1.601197
 13
-2.506531
 23
2.301322
 33
-1.617139
 62
1
  0
3DFACE
  8
Cylinder5
 10
-2.574474
 20
1.179879
 30
-1.662537
 11
-2.506530
 21
1.179879
 31
-1.617139
 12
-2.506531
 22
2.301322
 32
-1.617139
 13
-2.574475
 23
2.301322
 33
-1.662538
 62
1
  0
3DFACE
  8
Cylinder5
 10
-2.619872
 20
1.179879
 30
-1.730482
 11
-2.574474
 21
1.179879
 31
-1.662537
 12
-2.574475
 22
2.301322
 32
-1.662538
 13
-2.619874
 23
2.301322
 33
-1.730482
 62
1
  0
3DFACE
  8
Cylinder5
 10
-2.635814
 20
1.179879
 30
-1.810628
 11
-2.619872
 21
1.179879
 31
-1.730482
 12
-2.619874
 22
2.301322
 32
-1.730482
 13
-2.635816
 23
2.301322
 33
-1.810628
 62
1
  0
3DFACE
  8
Cylinder5
 10
-2.346240
 20
1.179879
 30
-2.004117
 11
-2.506530
 21
1.179879
 31
-2.004117
 12
-2.426385
 22
1.179879
 32
-2.020059
 13
-2.426385
 23
1.179879
 33
-2.020059
 62
1
  0
3DFACE
  8
Cylinder5
 10
-2.574474
 20
1.179879
 30
-1.958719
 11
-2.506530
 21
1.179879
 31
-2.004117
 12
-2.346240
 22
1.179879
 32
-2.004117
 13
-2.346240
 23
1.179879
 33
-2.004117
 62
1
  0
3DFACE
  8
Cylinder5
 10
-2.278296
 20
1.179879
 30
-1.958719
 11
-2.574474
 21
1.179879
 31
-1.958719
 12
-2.346240
 22
1.179879
 32
-2.004117
 13
-2.346240
 23
1.179879
 33
-2.004117
 62
1
  0
3DFACE
  8
Cylinder5
 10
-2.619872
 20
1.179879
 30
-1.890774
 11
-2.574474
 21
1.179879
 31
-1.958719
 12
-2.278296
 22
1.179879
 32
-1.958719
 13
-2.278296
 23
1.179879
 33
-1.958719
 62
1
  0
3DFACE
  8
Cylinder5
 10
-2.232897
 20
1.179879
 30
-1.890774
 11
-2.619872
 21
1.179879
 31
-1.890774
 12
-2.278296
 22
1.179879
 32
-1.958719
 13
-2.278296
 23
1.179879
 33
-1.958719
 62
1
  0
3DFACE
  8
Cylinder5
 10
-2.635814
 20
1.179879
 30
-1.810628
 11
-2.619872
 21
1.179879
 31
-1.890774
 12
-2.232897
 22
1.179879
 32
-1.890774
 13
-2.232897
 23
1.179879
 33
-1.890774
 62
1
  0
3DFACE
  8
Cylinder5
 10
-2.216955
 20
1.179879
 30
-1.810628
 11
-2.635814
 21
1.179879
 31
-1.810628
 12
-2.232897
 22
1.179879
 32
-1.890774
 13
-2.232897
 23
1.179879
 33
-1.890774
 62
1
  0
3DFACE
  8
Cylinder5
 10
-2.619872
 20
1.179879
 30
-1.730482
 11
-2.635814
 21
1.179879
 31
-1.810628
 12
-2.216955
 22
1.179879
 32
-1.810628
 13
-2.216955
 23
1.179879
 33
-1.810628
 62
1
  0
3DFACE
  8
Cylinder5
 10
-2.232897
 20
1.179879
 30
-1.730482
 11
-2.619872
 21
1.179879
 31
-1.730482
 12
-2.216955
 22
1.179879
 32
-1.810628
 13
-2.216955
 23
1.179879
 33
-1.810628
 62
1
  0
3DFACE
  8
Cylinder5
 10
-2.574474
 20
1.179879
 30
-1.662537
 11
-2.619872
 21
1.179879
 31
-1.730482
 12
-2.232897
 22
1.179879
 32
-1.730482
 13
-2.232897
 23
1.179879
 33
-1.730482
 62
1
  0
3DFACE
  8
Cylinder5
 10
-2.278296
 20
1.179879
 30
-1.662537
 11
-2.574474
 21
1.179879
 31
-1.662537
 12
-2.232897
 22
1.179879
 32
-1.730482
 13
-2.232897
 23
1.179879
 33
-1.730482
 62
1
  0
3DFACE
  8
Cylinder5
 10
-2.506530
 20
1.179879
 30
-1.617139
 11
-2.574474
 21
1.179879
 31
-1.662537
 12
-2.278296
 22
1.179879
 32
-1.662537
 13
-2.278296
 23
1.179879
 33
-1.662537
 62
1
  0
3DFACE
  8
Cylinder5
 10
-2.346240
 20
1.179879
 30
-1.617139
 11
-2.506530
 21
1.179879
 31
-1.617139
 12
-2.278296
 22
1.179879
 32
-1.662537
 13
-2.278296
 23
1.179879
 33
-1.662537
 62
1
  0
3DFACE
  8
Cylinder5
 10
-2.426385
 20
1.179879
 30
-1.601197
 11
-2.506530
 21
1.179879
 31
-1.617139
 12
-2.346240
 22
1.179879
 32
-1.617139
 13
-2.346240
 23
1.179879
 33
-1.617139
 62
1
  0
3DFACE
  8
Cylinder5
 10
-2.232897
 20
1.179879
 30
-1.890774
 11
-2.278296
 21
1.179879
 31
-1.958719
 12
-2.278295
 22
2.301322
 32
-1.958718
 13
-2.232896
 23
2.301322
 33
-1.890774
 62
1
  0
3DFACE
  8
Cylinder5
 10
-2.216955
 20
1.179879
 30
-1.810628
 11
-2.232897
 21
1.179879
 31
-1.890774
 12
-2.232896
 22
2.301322
 32
-1.890774
 13
-2.216954
 23
2.301322
 33
-1.810628
 62
1
  0
3DFACE
  8
Cylinder5
 10
-2.278296
 20
1.179879
 30
-1.958719
 11
-2.346240
 21
1.179879
 31
-2.004117
 12
-2.346239
 22
2.301322
 32
-2.004117
 13
-2.278295
 23
2.301322
 33
-1.958718
 62
1
  0
3DFACE
  8
Cylinder5
 10
-2.346240
 20
1.179879
 30
-2.004117
 11
-2.426385
 21
1.179879
 31
-2.020059
 12
-2.426385
 22
2.301322
 32
-2.020059
 13
-2.346239
 23
2.301322
 33
-2.004117
 62
1
  0
3DFACE
  8
Cylinder5
 10
-2.426385
 20
1.179879
 30
-2.020059
 11
-2.506530
 21
1.179879
 31
-2.004117
 12
-2.506531
 22
2.301322
 32
-2.004117
 13
-2.426385
 23
2.301322
 33
-2.020059
 62
1
  0
3DFACE
  8
Cylinder5
 10
-2.506530
 20
1.179879
 30
-2.004117
 11
-2.574474
 21
1.179879
 31
-1.958719
 12
-2.574475
 22
2.301322
 32
-1.958718
 13
-2.506531
 23
2.301322
 33
-2.004117
 62
1
  0
3DFACE
  8
Cylinder5
 10
-2.574474
 20
1.179879
 30
-1.958719
 11
-2.619872
 21
1.179879
 31
-1.890774
 12
-2.619874
 22
2.301322
 32
-1.890774
 13
-2.574475
 23
2.301322
 33
-1.958718
 62
1
  0
3DFACE
  8
Cylinder5
 10
-2.619872
 20
1.179879
 30
-1.890774
 11
-2.635814
 21
1.179879
 31
-1.810628
 12
-2.635816
 22
2.301322
 32
-1.810628
 13
-2.619874
 23
2.301322
 33
-1.890774
 62
1
  0
3DFACE
  8
Cube3
 10
1.982680
 20
0.669219
 30
-1.348107
 11
1.982680
 21
0.446142
 31
1.591734
 12
1.982680
 22
-0.892314
 32
1.591735
 13
1.982680
 23
-0.669238
 33
-1.348106
 62
0
  0
3DFACE
  8
Cube3
 10
2.823737
 20
-0.669239
 30
-1.348105
 11
2.823737
 21
0.669218
 31
-1.348107
 12
1.982680
 22
0.669219
 32
-1.348107
 13
1.982680
 23
-0.669238
 33
-1.348106
 62
0
  0
3DFACE
  8
Cube3
 10
1.982680
 20
0.669219
 30
-1.348107
 11
2.823737
 21
0.669218
 31
-1.348107
 12
2.747277
 22
0.446142
 32
0.634577
 13
2.747277
 23
0.446142
 33
0.634577
 62
0
  0
3DFACE
  8
Cube3
 10
2.747277
 20
0.446142
 30
0.634577
 11
2.747277
 21
-0.892315
 31
0.634578
 12
1.982680
 22
-0.892314
 32
1.591735
 13
1.982680
 23
0.446142
 33
1.591734
 62
0
  0
3DFACE
  8
Cube3
 10
2.747277
 20
-0.892315
 30
0.634578
 11
2.747277
 21
0.446142
 31
0.634577
 12
2.823737
 22
0.669218
 32
-1.348107
 13
2.823737
 23
-0.669239
 33
-1.348105
 62
0
  0
3DFACE
  8
Cube3
 10
1.982680
 20
-0.892314
 30
1.591735
 11
2.747277
 21
-0.892315
 31
0.634578
 12
1.982680
 22
-0.669238
 32
-1.348106
 13
1.982680
 23
-0.669238
 33
-1.348106
 62
0
  0
3DFACE
  8
Cube3
 10
2.747277
 20
0.446142
 30
0.634577
 11
1.982680
 21
0.446142
 31
1.591734
 12
1.982680
 22
0.669219
 32
-1.348107
 13
1.982680
 23
0.669219
 33
-1.348107
 62
0
  0
3DFACE
  8
Cube3
 10
2.823737
 20
-0.669239
 30
-1.348105
 11
1.982680
 21
-0.669238
 31
-1.348106
 12
2.747277
 22
-0.892315
 32
0.634578
 13
2.747277
 23
-0.892315
 33
0.634578
 62
0
  0
3DFACE
  8
Cylinder2
 10
3.072458
 20
-0.391273
 30
-1.348083
 11
3.072463
 21
1.159189
 31
-1.348074
 12
2.426381
 22
1.159187
 32
-2.479387
 13
2.426365
 23
-0.611499
 33
-2.256359
 62
0
  0
3DFACE
  8
Cylinder2
 10
1.780289
 20
-0.391273
 30
-1.348084
 11
1.780292
 21
1.159188
 31
-1.348075
 12
3.072463
 22
1.159189
 32
-1.348074
 13
3.072458
 23
-0.391273
 33
-1.348083
 62
0
  0
3DFACE
  8
Cylinder2
 10
2.426365
 20
-0.611499
 30
-2.256359
 11
2.426381
 21
1.159187
 31
-2.479387
 12
1.780292
 22
1.159188
 32
-1.348075
 13
1.780289
 23
-0.391273
 33
-1.348084
 62
0
  0
3DFACE
  8
Cylinder2
 10
1.780289
 20
-0.391273
 30
-1.348084
 11
3.072458
 21
-0.391273
 31
-1.348083
 12
2.426365
 22
-0.611499
 32
-2.256359
 13
2.426365
 23
-0.611499
 33
-2.256359
 62
0
  0
3DFACE
  8
Cylinder2
 10
2.426381
 20
1.159187
 30
-2.479387
 11
3.072463
 21
1.159189
 31
-1.348074
 12
1.780292
 22
1.159188
 32
-1.348075
 13
1.780292
 23
1.159188
 33
-1.348075
 62
0
  0
3DFACE
  8
Cylinder4
 10
2.125476
 20
2.301322
 30
-1.935300
 11
2.100677
 21
2.301322
 31
-1.810628
 12
2.100678
 22
0.939511
 32
-1.810628
 13
2.125477
 23
0.939511
 33
-1.935299
 62
0
  0
3DFACE
  8
Cylinder4
 10
2.196097
 20
2.301322
 30
-2.040991
 11
2.125476
 21
2.301322
 31
-1.935300
 12
2.125477
 22
0.939511
 32
-1.935299
 13
2.196097
 23
0.939511
 33
-2.040990
 62
0
  0
3DFACE
  8
Cylinder4
 10
2.301788
 20
2.301322
 30
-2.111611
 11
2.196097
 21
2.301322
 31
-2.040991
 12
2.196097
 22
0.939511
 32
-2.040990
 13
2.301788
 23
0.939511
 33
-2.111610
 62
0
  0
3DFACE
  8
Cylinder4
 10
2.426459
 20
2.301322
 30
-2.136410
 11
2.301788
 21
2.301322
 31
-2.111611
 12
2.301788
 22
0.939511
 32
-2.111610
 13
2.426459
 23
0.939511
 33
-2.136409
 62
0
  0
3DFACE
  8
Cylinder4
 10
2.551130
 20
2.301322
 30
-2.111611
 11
2.426459
 21
2.301322
 31
-2.136410
 12
2.426459
 22
0.939511
 32
-2.136409
 13
2.551130
 23
0.939511
 33
-2.111610
 62
0
  0
3DFACE
  8
Cylinder4
 10
2.656821
 20
2.301322
 30
-2.040991
 11
2.551130
 21
2.301322
 31
-2.111611
 12
2.551130
 22
0.939511
 32
-2.111610
 13
2.656821
 23
0.939511
 33
-2.040990
 62
0
  0
3DFACE
  8
Cylinder4
 10
2.727442
 20
2.301322
 30
-1.935300
 11
2.656821
 21
2.301322
 31
-2.040991
 12
2.656821
 22
0.939511
 32
-2.040990
 13
2.727441
 23
0.939511
 33
-1.935299
 62
0
  0
3DFACE
  8
Cylinder4
 10
2.752241
 20
2.301322
 30
-1.810628
 11
2.727442
 21
2.301322
 31
-1.935300
 12
2.727441
 22
0.939511
 32
-1.935299
 13
2.752240
 23
0.939511
 33
-1.810628
 62
0
  0
3DFACE
  8
Cylinder4
 10
2.727442
 20
2.301322
 30
-1.685957
 11
2.752241
 21
2.301322
 31
-1.810628
 12
2.752240
 22
0.939511
 32
-1.810628
 13
2.727441
 23
0.939511
 33
-1.685957
 62
0
  0
3DFACE
  8
Cylinder4
 10
2.656821
 20
2.301322
 30
-1.580266
 11
2.727442
 21
2.301322
 31
-1.685957
 12
2.727441
 22
0.939511
 32
-1.685957
 13
2.656821
 23
0.939511
 33
-1.580267
 62
0
  0
3DFACE
  8
Cylinder4
 10
2.551130
 20
2.301322
 30
-1.509645
 11
2.656821
 21
2.301322
 31
-1.580266
 12
2.656821
 22
0.939511
 32
-1.580267
 13
2.551130
 23
0.939511
 33
-1.509647
 62
0
  0
3DFACE
  8
Cylinder4
 10
2.426459
 20
2.301322
 30
-1.484847
 11
2.551130
 21
2.301322
 31
-1.509645
 12
2.551130
 22
0.939511
 32
-1.509647
 13
2.426459
 23
0.939511
 33
-1.484848
 62
0
  0
3DFACE
  8
Cylinder4
 10
2.301788
 20
2.301322
 30
-1.509645
 11
2.426459
 21
2.301322
 31
-1.484847
 12
2.426459
 22
0.939511
 32
-1.484848
 13
2.301788
 23
0.939511
 33
-1.509647
 62
0
  0
3DFACE
  8
Cylinder4
 10
2.196097
 20
2.301322
 30
-1.580266
 11
2.301788
 21
2.301322
 31
-1.509645
 12
2.301788
 22
0.939511
 32
-1.509647
 13
2.196097
 23
0.939511
 33
-1.580267
 62
0
  0
3DFACE
  8
Cylinder4
 10
2.125476
 20
2.301322
 30
-1.685957
 11
2.196097
 21
2.301322
 31
-1.580266
 12
2.196097
 22
0.939511
 32
-1.580267
 13
2.125477
 23
0.939511
 33
-1.685957
 62
0
  0
3DFACE
  8
Cylinder4
 10
2.100677
 20
2.301322
 30
-1.810628
 11
2.125476
 21
2.301322
 31
-1.685957
 12
2.125477
 22
0.939511
 32
-1.685957
 13
2.100678
 23
0.939511
 33
-1.810628
 62
0
  0
3DFACE
  8
Cylinder4
 10
2.301788
 20
0.939511
 30
-2.111610
 11
2.551130
 21
0.939511
 31
-2.111610
 12
2.426459
 22
0.939511
 32
-2.136409
 13
2.426459
 23
0.939511
 33
-2.136409
 62
0
  0
3DFACE
  8
Cylinder4
 10
2.656821
 20
0.939511
 30
-2.040990
 11
2.551130
 21
0.939511
 31
-2.111610
 12
2.301788
 22
0.939511
 32
-2.111610
 13
2.301788
 23
0.939511
 33
-2.111610
 62
0
  0
3DFACE
  8
Cylinder4
 10
2.196097
 20
0.939511
 30
-2.040990
 11
2.656821
 21
0.939511
 31
-2.040990
 12
2.301788
 22
0.939511
 32
-2.111610
 13
2.301788
 23
0.939511
 33
-2.111610
 62
0
  0
3DFACE
  8
Cylinder4
 10
2.727441
 20
0.939511
 30
-1.935299
 11
2.656821
 21
0.939511
 31
-2.040990
 12
2.196097
 22
0.939511
 32
-2.040990
 13
2.196097
 23
0.939511
 33
-2.040990
 62
0
  0
3DFACE
  8
Cylinder4
 10
2.125477
 20
0.939511
 30
-1.935299
 11
2.727441
 21
0.939511
 31
-1.935299
 12
2.196097
 22
0.939511
 32
-2.040990
 13
2.196097
 23
0.939511
 33
-2.040990
 62
0
  0
3DFACE
  8
Cylinder4
 10
2.100678
 20
0.939511
 30
-1.810628
 11
2.727441
 21
0.939511
 31
-1.935299
 12
2.125477
 22
0.939511
 32
-1.935299
 13
2.125477
 23
0.939511
 33
-1.935299
 62
0
  0
3DFACE
  8
Cylinder4
 10
2.752240
 20
0.939511
 30
-1.810628
 11
2.727441
 21
0.939511
 31
-1.935299
 12
2.100678
 22
0.939511
 32
-1.810628
 13
2.100678
 23
0.939511
 33
-1.810628
 62
0
  0
3DFACE
  8
Cylinder4
 10
2.727441
 20
0.939511
 30
-1.685957
 11
2.752240
 21
0.939511
 31
-1.810628
 12
2.100678
 22
0.939511
 32
-1.810628
 13
2.100678
 23
0.939511
 33
-1.810628
 62
0
  0
3DFACE
  8
Cylinder4
 10
2.125477
 20
0.939511
 30
-1.685957
 11
2.727441
 21
0.939511
 31
-1.685957
 12
2.100678
 22
0.939511
 32
-1.810628
 13
2.100678
 23
0.939511
 33
-1.810628
 62
0
  0
3DFACE
  8
Cylinder4
 10
2.656821
 20
0.939511
 30
-1.580267
 11
2.727441
 21
0.939511
 31
-1.685957
 12
2.125477
 22
0.939511
 32
-1.685957
 13
2.125477
 23
0.939511
 33
-1.685957
 62
0
  0
3DFACE
  8
Cylinder4
 10
2.196097
 20
0.939511
 30
-1.580267
 11
2.656821
 21
0.939511
 31
-1.580267
 12
2.125477
 22
0.939511
 32
-1.685957
 13
2.125477
 23
0.939511
 33
-1.685957
 62
0
  0
3DFACE
  8
Cylinder4
 10
2.551130
 20
0.939511
 30
-1.509647
 11
2.656821
 21
0.939511
 31
-1.580267
 12
2.196097
 22
0.939511
 32
-1.580267
 13
2.196097
 23
0.939511
 33
-1.580267
 62
0
  0
3DFACE
  8
Cylinder4
 10
2.301788
 20
0.939511
 30
-1.509647
 11
2.551130
 21
0.939511
 31
-1.509647
 12
2.196097
 22
0.939511
 32
-1.580267
 13
2.196097
 23
0.939511
 33
-1.580267
 62
0
  0
3DFACE
  8
Cylinder4
 10
2.426459
 20
0.939511
 30
-1.484848
 11
2.551130
 21
0.939511
 31
-1.509647
 12
2.301788
 22
0.939511
 32
-1.509647
 13
2.301788
 23
0.939511
 33
-1.509647
 62
0
  0
3DFACE
  8
Cylinder4
 10
2.346313
 20
2.301322
 30
-2.004117
 11
2.196097
 21
2.301322
 31
-2.040991
 12
2.426459
 22
2.301322
 32
-2.020059
 13
2.426459
 23
2.301322
 33
-2.020059
 62
0
  0
3DFACE
  8
Cylinder4
 10
2.278369
 20
2.301322
 30
-1.958718
 11
2.196097
 21
2.301322
 31
-2.040991
 12
2.346313
 22
2.301322
 32
-2.004117
 13
2.346313
 23
2.301322
 33
-2.004117
 62
0
  0
3DFACE
  8
Cylinder4
 10
2.125476
 20
2.301322
 30
-1.935300
 11
2.196097
 21
2.301322
 31
-2.040991
 12
2.278369
 22
2.301322
 32
-1.958718
 13
2.278369
 23
2.301322
 33
-1.958718
 62
0
  0
3DFACE
  8
Cylinder4
 10
2.232970
 20
2.301322
 30
-1.890774
 11
2.125476
 21
2.301322
 31
-1.935300
 12
2.278369
 22
2.301322
 32
-1.958718
 13
2.278369
 23
2.301322
 33
-1.958718
 62
0
  0
3DFACE
  8
Cylinder4
 10
2.100677
 20
2.301322
 30
-1.810628
 11
2.125476
 21
2.301322
 31
-1.935300
 12
2.232970
 22
2.301322
 32
-1.890774
 13
2.232970
 23
2.301322
 33
-1.890774
 62
0
  0
3DFACE
  8
Cylinder4
 10
2.217028
 20
2.301322
 30
-1.810628
 11
2.100677
 21
2.301322
 31
-1.810628
 12
2.232970
 22
2.301322
 32
-1.890774
 13
2.232970
 23
2.301322
 33
-1.890774
 62
0
  0
3DFACE
  8
Cylinder4
 10
2.232970
 20
2.301322
 30
-1.730482
 11
2.100677
 21
2.301322
 31
-1.810628
 12
2.217028
 22
2.301322
 32
-1.810628
 13
2.217028
 23
2.301322
 33
-1.810628
 62
0
  0
3DFACE
  8
Cylinder4
 10
2.125476
 20
2.301322
 30
-1.685957
 11
2.100677
 21
2.301322
 31
-1.810628
 12
2.232970
 22
2.301322
 32
-1.730482
 13
2.232970
 23
2.301322
 33
-1.730482
 62
0
  0
3DFACE
  8
Cylinder4
 10
2.278369
 20
2.301322
 30
-1.662538
 11
2.125476
 21
2.301322
 31
-1.685957
 12
2.232970
 22
2.301322
 32
-1.730482
 13
2.232970
 23
2.301322
 33
-1.730482
 62
0
  0
3DFACE
  8
Cylinder4
 10
2.346313
 20
2.301322
 30
-1.617139
 11
2.125476
 21
2.301322
 31
-1.685957
 12
2.278369
 22
2.301322
 32
-1.662538
 13
2.278369
 23
2.301322
 33
-1.662538
 62
0
  0
3DFACE
  8
Cylinder4
 10
2.196097
 20
2.301322
 30
-1.580266
 11
2.125476
 21
2.301322
 31
-1.685957
 12
2.346313
 22
2.301322
 32
-1.617139
 13
2.346313
 23
2.301322
 33
-1.617139
 62
0
  0
3DFACE
  8
Cylinder4
 10
2.196097
 20
2.301322
 30
-1.580266
 11
2.346313
 21
2.301322
 31
-1.617139
 12
2.426459
 22
2.301322
 32
-1.601197
 13
2.426459
 23
2.301322
 33
-1.601197
 62
0
  0
3DFACE
  8
Cylinder4
 10
2.656821
 20
2.301322
 30
-1.580266
 11
2.196097
 21
2.301322
 31
-1.580266
 12
2.426459
 22
2.301322
 32
-1.601197
 13
2.426459
 23
2.301322
 33
-1.601197
 62
0
  0
3DFACE
  8
Cylinder4
 10
2.301788
 20
2.301322
 30
-1.509645
 11
2.196097
 21
2.301322
 31
-1.580266
 12
2.656821
 22
2.301322
 32
-1.580266
 13
2.656821
 23
2.301322
 33
-1.580266
 62
0
  0
3DFACE
  8
Cylinder4
 10
2.551130
 20
2.301322
 30
-1.509645
 11
2.301788
 21
2.301322
 31
-1.509645
 12
2.656821
 22
2.301322
 32
-1.580266
 13
2.656821
 23
2.301322
 33
-1.580266
 62
0
  0
3DFACE
  8
Cylinder4
 10
2.426459
 20
2.301322
 30
-1.484847
 11
2.301788
 21
2.301322
 31
-1.509645
 12
2.551130
 22
2.301322
 32
-1.509645
 13
2.551130
 23
2.301322
 33
-1.509645
 62
0
  0
3DFACE
  8
Cylinder4
 10
2.551130
 20
2.301322
 30
-2.111611
 11
2.301788
 21
2.301322
 31
-2.111611
 12
2.426459
 22
2.301322
 32
-2.136410
 13
2.426459
 23
2.301322
 33
-2.136410
 62
0
  0
3DFACE
  8
Cylinder4
 10
2.196097
 20
2.301322
 30
-2.040991
 11
2.301788
 21
2.301322
 31
-2.111611
 12
2.551130
 22
2.301322
 32
-2.111611
 13
2.551130
 23
2.301322
 33
-2.111611
 62
0
  0
3DFACE
  8
Cylinder4
 10
2.656821
 20
2.301322
 30
-2.040991
 11
2.196097
 21
2.301322
 31
-2.040991
 12
2.551130
 22
2.301322
 32
-2.111611
 13
2.551130
 23
2.301322
 33
-2.111611
 62
0
  0
3DFACE
  8
Cylinder4
 10
2.426459
 20
2.301322
 30
-2.020059
 11
2.196097
 21
2.301322
 31
-2.040991
 12
2.656821
 22
2.301322
 32
-2.040991
 13
2.656821
 23
2.301322
 33
-2.040991
 62
0
  0
3DFACE
  8
Cylinder4
 10
2.506605
 20
2.301322
 30
-2.004117
 11
2.426459
 21
2.301322
 31
-2.020059
 12
2.656821
 22
2.301322
 32
-2.040991
 13
2.656821
 23
2.301322
 33
-2.040991
 62
0
  0
3DFACE
  8
Cylinder4
 10
2.574549
 20
2.301322
 30
-1.958718
 11
2.506605
 21
2.301322
 31
-2.004117
 12
2.656821
 22
2.301322
 32
-2.040991
 13
2.656821
 23
2.301322
 33
-2.040991
 62
0
  0
3DFACE
  8
Cylinder4
 10
2.727442
 20
2.301322
 30
-1.935300
 11
2.574549
 21
2.301322
 31
-1.958718
 12
2.656821
 22
2.301322
 32
-2.040991
 13
2.656821
 23
2.301322
 33
-2.040991
 62
0
  0
3DFACE
  8
Cylinder4
 10
2.619948
 20
2.301322
 30
-1.890774
 11
2.574549
 21
2.301322
 31
-1.958718
 12
2.727442
 22
2.301322
 32
-1.935300
 13
2.727442
 23
2.301322
 33
-1.935300
 62
0
  0
3DFACE
  8
Cylinder4
 10
2.635890
 20
2.301322
 30
-1.810628
 11
2.619948
 21
2.301322
 31
-1.890774
 12
2.727442
 22
2.301322
 32
-1.935300
 13
2.727442
 23
2.301322
 33
-1.935300
 62
0
  0
3DFACE
  8
Cylinder4
 10
2.752241
 20
2.301322
 30
-1.810628
 11
2.635890
 21
2.301322
 31
-1.810628
 12
2.727442
 22
2.301322
 32
-1.935300
 13
2.727442
 23
2.301322
 33
-1.935300
 62
0
  0
3DFACE
  8
Cylinder4
 10
2.619948
 20
2.301322
 30
-1.730482
 11
2.635890
 21
2.301322
 31
-1.810628
 12
2.752241
 22
2.301322
 32
-1.810628
 13
2.752241
 23
2.301322
 33
-1.810628
 62
0
  0
3DFACE
  8
Cylinder4
 10
2.727442
 20
2.301322
 30
-1.685957
 11
2.619948
 21
2.301322
 31
-1.730482
 12
2.752241
 22
2.301322
 32
-1.810628
 13
2.752241
 23
2.301322
 33
-1.810628
 62
0
  0
3DFACE
  8
Cylinder4
 10
2.574549
 20
2.301322
 30
-1.662538
 11
2.619948
 21
2.301322
 31
-1.730482
 12
2.727442
 22
2.301322
 32
-1.685957
 13
2.727442
 23
2.301322
 33
-1.685957
 62
0
  0
3DFACE
  8
Cylinder4
 10
2.506605
 20
2.301322
 30
-1.617139
 11
2.574549
 21
2.301322
 31
-1.662538
 12
2.727442
 22
2.301322
 32
-1.685957
 13
2.727442
 23
2.301322
 33
-1.685957
 62
0
  0
3DFACE
  8
Cylinder4
 10
2.656821
 20
2.301322
 30
-1.580266
 11
2.506605
 21
2.301322
 31
-1.617139
 12
2.727442
 22
2.301322
 32
-1.685957
 13
2.727442
 23
2.301322
 33
-1.685957
 62
0
  0
3DFACE
  8
Cylinder4
 10
2.656821
 20
2.301322
 30
-1.580266
 11
2.426459
 21
2.301322
 31
-1.601197
 12
2.506605
 22
2.301322
 32
-1.617139
 13
2.506605
 23
2.301322
 33
-1.617139
 62
0
  0
3DFACE
  8
Cylinder4
 10
2.619946
 20
1.179879
 30
-1.730482
 11
2.635888
 21
1.179879
 31
-1.810628
 12
2.635890
 22
2.301322
 32
-1.810628
 13
2.619948
 23
2.301322
 33
-1.730482
 62
1
  0
3DFACE
  8
Cylinder4
 10
2.574548
 20
1.179879
 30
-1.662537
 11
2.619946
 21
1.179879
 31
-1.730482
 12
2.619948
 22
2.301322
 32
-1.730482
 13
2.574549
 23
2.301322
 33
-1.662538
 62
1
  0
3DFACE
  8
Cylinder4
 10
2.506604
 20
1.179879
 30
-1.617139
 11
2.574548
 21
1.179879
 31
-1.662537
 12
2.574549
 22
2.301322
 32
-1.662538
 13
2.506605
 23
2.301322
 33
-1.617139
 62
1
  0
3DFACE
  8
Cylinder4
 10
2.426459
 20
1.179879
 30
-1.601197
 11
2.506604
 21
1.179879
 31
-1.617139
 12
2.506605
 22
2.301322
 32
-1.617139
 13
2.426459
 23
2.301322
 33
-1.601197
 62
1
  0
3DFACE
  8
Cylinder4
 10
2.346314
 20
1.179879
 30
-1.617139
 11
2.426459
 21
1.179879
 31
-1.601197
 12
2.426459
 22
2.301322
 32
-1.601197
 13
2.346313
 23
2.301322
 33
-1.617139
 62
1
  0
3DFACE
  8
Cylinder4
 10
2.278370
 20
1.179879
 30
-1.662537
 11
2.346314
 21
1.179879
 31
-1.617139
 12
2.346313
 22
2.301322
 32
-1.617139
 13
2.278369
 23
2.301322
 33
-1.662538
 62
1
  0
3DFACE
  8
Cylinder4
 10
2.232972
 20
1.179879
 30
-1.730482
 11
2.278370
 21
1.179879
 31
-1.662537
 12
2.278369
 22
2.301322
 32
-1.662538
 13
2.232970
 23
2.301322
 33
-1.730482
 62
1
  0
3DFACE
  8
Cylinder4
 10
2.217030
 20
1.179879
 30
-1.810628
 11
2.232972
 21
1.179879
 31
-1.730482
 12
2.232970
 22
2.301322
 32
-1.730482
 13
2.217028
 23
2.301322
 33
-1.810628
 62
1
  0
3DFACE
  8
Cylinder4
 10
2.506604
 20
1.179879
 30
-2.004117
 11
2.346314
 21
1.179879
 31
-2.004117
 12
2.426459
 22
1.179879
 32
-2.020059
 13
2.426459
 23
1.179879
 33
-2.020059
 62
1
  0
3DFACE
  8
Cylinder4
 10
2.278370
 20
1.179879
 30
-1.958719
 11
2.346314
 21
1.179879
 31
-2.004117
 12
2.506604
 22
1.179879
 32
-2.004117
 13
2.506604
 23
1.179879
 33
-2.004117
 62
1
  0
3DFACE
  8
Cylinder4
 10
2.574548
 20
1.179879
 30
-1.958719
 11
2.278370
 21
1.179879
 31
-1.958719
 12
2.506604
 22
1.179879
 32
-2.004117
 13
2.506604
 23
1.179879
 33
-2.004117
 62
1
  0
3DFACE
  8
Cylinder4
 10
2.232972
 20
1.179879
 30
-1.890774
 11
2.278370
 21
1.179879
 31
-1.958719
 12
2.574548
 22
1.179879
 32
-1.958719
 13
2.574548
 23
1.179879
 33
-1.958719
 62
1
  0
3DFACE
  8
Cylinder4
 10
2.619946
 20
1.179879
 30
-1.890774
 11
2.232972
 21
1.179879
 31
-1.890774
 12
2.574548
 22
1.179879
 32
-1.958719
 13
2.574548
 23
1.179879
 33
-1.958719
 62
1
  0
3DFACE
  8
Cylinder4
 10
2.217030
 20
1.179879
 30
-1.810628
 11
2.232972
 21
1.179879
 31
-1.890774
 12
2.619946
 22
1.179879
 32
-1.890774
 13
2.619946
 23
1.179879
 33
-1.890774
 62
1
  0
3DFACE
  8
Cylinder4
 10
2.635888
 20
1.179879
 30
-1.810628
 11
2.217030
 21
1.179879
 31
-1.810628
 12
2.619946
 22
1.179879
 32
-1.890774
 13
2.619946
 23
1.179879
 33
-1.890774
 62
1
  0
3DFACE
  8
Cylinder4
 10
2.232972
 20
1.179879
 30
-1.730482
 11
2.217030
 21
1.179879
 31
-1.810628
 12
2.635888
 22
1.179879
 32
-1.810628
 13
2.635888
 23
1.179879
 33
-1.810628
 62
1
  0
3DFACE
  8
Cylinder4
 10
2.619946
 20
1.179879
 30
-1.730482
 11
2.232972
 21
1.179879
 31
-1.730482
 12
2.635888
 22
1.179879
 32
-1.810628
 13
2.635888
 23
1.179879
 33
-1.810628
 62
1
  0
3DFACE
  8
Cylinder4
 10
2.278370
 20
1.179879
 30
-1.662537
 11
2.232972
 21
1.179879
 31
-1.730482
 12
2.619946
 22
1.179879
 32
-1.730482
 13
2.619946
 23
1.179879
 33
-1.730482
 62
1
  0
3DFACE
  8
Cylinder4
 10
2.574548
 20
1.179879
 30
-1.662537
 11
2.278370
 21
1.179879
 31
-1.662537
 12
2.619946
 22
1.179879
 32
-1.730482
 13
2.619946
 23
1.179879
 33
-1.730482
 62
1
  0
3DFACE
  8
Cylinder4
 10
2.346314
 20
1.179879
 30
-1.617139
 11
2.278370
 21
1.179879
 31
-1.662537
 12
2.574548
 22
1.179879
 32
-1.662537
 13
2.574548
 23
1.179879
 33
-1.662537
 62
1
  0
3DFACE
  8
Cylinder4
 10
2.506604
 20
1.179879
 30
-1.617139
 11
2.346314
 21
1.179879
 31
-1.617139
 12
2.574548
 22
1.179879
 32
-1.662537
 13
2.574548
 23
1.179879
 33
-1.662537
 62
1
  0
3DFACE
  8
Cylinder4
 10
2.426459
 20
1.179879
 30
-1.601197
 11
2.346314
 21
1.179879
 31
-1.617139
 12
2.506604
 22
1.179879
 32
-1.617139
 13
2.506604
 23
1.179879
 33
-1.617139
 62
1
  0
3DFACE
  8
Cylinder4
 10
2.619946
 20
1.179879
 30
-1.890774
 11
2.574548
 21
1.179879
 31
-1.958719
 12
2.574549
 22
2.301322
 32
-1.958718
 13
2.619948
 23
2.301322
 33
-1.890774
 62
1
  0
3DFACE
  8
Cylinder4
 10
2.635888
 20
1.179879
 30
-1.810628
 11
2.619946
 21
1.179879
 31
-1.890774
 12
2.619948
 22
2.301322
 32
-1.890774
 13
2.635890
 23
2.301322
 33
-1.810628
 62
1
  0
3DFACE
  8
Cylinder4
 10
2.574548
 20
1.179879
 30
-1.958719
 11
2.506604
 21
1.179879
 31
-2.004117
 12
2.506605
 22
2.301322
 32
-2.004117
 13
2.574549
 23
2.301322
 33
-1.958718
 62
1
  0
3DFACE
  8
Cylinder4
 10
2.506604
 20
1.179879
 30
-2.004117
 11
2.426459
 21
1.179879
 31
-2.020059
 12
2.426459
 22
2.301322
 32
-2.020059
 13
2.506605
 23
2.301322
 33
-2.004117
 62
1
  0
3DFACE
  8
Cylinder4
 10
2.426459
 20
1.179879
 30
-2.020059
 11
2.346314
 21
1.179879
 31
-2.004117
 12
2.346313
 22
2.301322
 32
-2.004117
 13
2.426459
 23
2.301322
 33
-2.020059
 62
1
  0
3DFACE
  8
Cylinder4
 10
2.346314
 20
1.179879
 30
-2.004117
 11
2.278370
 21
1.179879
 31
-1.958719
 12
2.278369
 22
2.301322
 32
-1.958718
 13
2.346313
 23
2.301322
 33
-2.004117
 62
1
  0
3DFACE
  8
Cylinder4
 10
2.278370
 20
1.179879
 30
-1.958719
 11
2.232972
 21
1.179879
 31
-1.890774
 12
2.232970
 22
2.301322
 32
-1.890774
 13
2.278369
 23
2.301322
 33
-1.958718
 62
1
  0
3DFACE
  8
Cylinder4
 10
2.232972
 20
1.179879
 30
-1.890774
 11
2.217030
 21
1.179879
 31
-1.810628
 12
2.217028
 22
2.301322
 32
-1.810628
 13
2.232970
 23
2.301322
 33
-1.890774
 62
1
  0
3DFACE
  8
NoName2
 10
-1.982639
 20
-0.000002
 30
-0.302747
 11
-1.982640
 21
-1.593400
 31
-0.600009
 12
-1.090443
 22
0.000000
 32
-1.677384
 13
-1.090443
 23
0.000000
 33
-1.677384
 62
0
  0
3DFACE
  8
NoName2
 10
-1.982639
 20
-0.000002
 30
-0.302747
 11
-1.982630
 21
1.593396
 31
0.000001
 12
-1.982640
 22
0.478021
 32
1.593396
 13
-1.982640
 23
0.478021
 33
1.593396
 62
0
  0
3DFACE
  8
NoName2
 10
-1.982640
 20
-1.434059
 30
1.593398
 11
-1.982639
 21
-0.000002
 31
-0.302747
 12
-1.982640
 22
0.478021
 32
1.593396
 13
-1.982640
 23
0.478021
 33
1.593396
 62
0
  0
3DFACE
  8
NoName2
 10
-1.982640
 20
-1.593400
 30
-0.600009
 11
-1.982639
 21
-0.000002
 31
-0.302747
 12
-1.982640
 22
-1.434059
 32
1.593398
 13
-1.982640
 23
-1.434059
 33
1.593398
 62
0
  0
3DFACE
  8
NoName2
 10
0.693950
 20
-1.505764
 30
0.599933
 11
0.693951
 21
-1.593401
 31
-0.600008
 12
-0.693911
 22
-1.593400
 32
-0.600008
 13
-0.693911
 23
-1.505763
 33
0.599925
 62
0
  0
3DFACE
  8
NoName2
 10
-0.693911
 20
0.478020
 30
0.935375
 11
-0.693901
 21
1.593396
 31
0.000002
 12
0.693952
 22
1.593395
 32
0.000002
 13
0.693951
 23
0.478020
 33
0.935375
 62
0
  0
3DFACE
  8
NoName2
 10
1.982680
 20
0.478019
 30
1.593398
 11
1.982680
 21
-1.434061
 31
1.593400
 12
0.693950
 22
-1.505764
 32
0.599933
 13
0.693951
 23
0.478020
 33
0.935375
 62
0
  0
3DFACE
  8
NoName2
 10
1.982676
 20
-0.000002
 30
-0.302116
 11
1.982680
 21
0.478019
 31
1.593398
 12
1.982675
 22
1.593394
 32
0.000003
 13
1.982675
 23
1.593394
 33
0.000003
 62
0
  0
3DFACE
  8
NoName2
 10
1.982680
 20
-1.434061
 30
1.593400
 11
1.982680
 21
0.478019
 31
1.593398
 12
1.982676
 22
-0.000002
 32
-0.302116
 13
1.982676
 23
-0.000002
 33
-0.302116
 62
0
  0
3DFACE
  8
NoName2
 10
1.982680
 20
-1.593402
 30
-0.600007
 11
1.982680
 21
-1.434061
 31
1.593400
 12
1.982676
 22
-0.000002
 32
-0.302116
 13
1.982676
 23
-0.000002
 33
-0.302116
 62
0
  0
3DFACE
  8
NoName2
 10
-0.693911
 20
0.478020
 30
0.935375
 11
0.693951
 21
0.478020
 31
0.935375
 12
0.693950
 22
-1.505764
 32
0.599933
 13
-0.693911
 23
-1.505763
 33
0.599925
 62
0
  0
3DFACE
  8
NoName2
 10
-0.693911
 20
-1.505763
 30
0.599925
 11
-1.982640
 21
-1.434059
 31
1.593398
 12
-1.982640
 22
0.478021
 32
1.593396
 13
-0.693911
 23
0.478020
 33
0.935375
 62
0
  0
3DFACE
  8
NoName2
 10
0.693952
 20
1.593395
 30
0.000002
 11
1.982675
 21
1.593394
 31
0.000003
 12
1.982680
 22
0.478019
 32
1.593398
 13
1.982680
 23
0.478019
 33
1.593398
 62
0
  0
3DFACE
  8
NoName2
 10
-1.982640
 20
0.478021
 30
1.593396
 11
-1.982630
 21
1.593396
 31
0.000001
 12
-0.693901
 22
1.593396
 32
0.000002
 13
-0.693901
 23
1.593396
 33
0.000002
 62
0
  0
3DFACE
  8
NoName2
 10
-0.693911
 20
-1.593400
 30
-0.600008
 11
-1.982640
 21
-1.434059
 31
1.593398
 12
-0.693911
 22
-1.505763
 32
0.599925
 13
-0.693911
 23
-1.505763
 33
0.599925
 62
0
  0
3DFACE
  8
NoName2
 10
0.693951
 20
-1.593401
 30
-0.600008
 11
1.982680
 21
-1.434061
 31
1.593400
 12
1.982680
 22
-1.593402
 32
-0.600007
 13
1.982680
 23
-1.593402
 33
-0.600007
 62
0
  0
3DFACE
  8
NoName2
 10
1.982680
 20
0.478019
 30
1.593398
 11
0.693951
 21
0.478020
 31
0.935375
 12
0.693952
 22
1.593395
 32
0.000002
 13
0.693952
 23
1.593395
 33
0.000002
 62
0
  0
3DFACE
  8
NoName2
 10
-0.693901
 20
1.593396
 30
0.000002
 11
-0.693911
 21
0.478020
 31
0.935375
 12
-1.982640
 22
0.478021
 32
1.593396
 13
-1.982640
 23
0.478021
 33
1.593396
 62
0
  0
3DFACE
  8
NoName2
 10
-1.982640
 20
-1.434059
 30
1.593398
 11
-0.693911
 21
-1.593400
 31
-0.600008
 12
-1.982640
 22
-1.593400
 32
-0.600009
 13
-1.982640
 23
-1.593400
 33
-0.600009
 62
0
  0
3DFACE
  8
NoName2
 10
1.982680
 20
-1.434061
 30
1.593400
 11
0.693951
 21
-1.593401
 31
-0.600008
 12
0.693950
 22
-1.505764
 32
0.599933
 13
0.693950
 23
-1.505764
 33
0.599933
 62
0
  0
3DFACE
  8
NoName2
 10
-1.090443
 20
0.000000
 30
-1.677384
 11
-1.982630
 21
1.593396
 31
0.000001
 12
-1.982639
 22
-0.000002
 32
-0.302747
 13
-1.982639
 23
-0.000002
 33
-0.302747
 62
0
  0
3DFACE
  8
NoName2
 10
1.982676
 20
-0.000002
 30
-0.302116
 11
1.982675
 21
1.593394
 31
0.000003
 12
1.090483
 22
-0.000001
 32
-1.677383
 13
1.090483
 23
-0.000001
 33
-1.677383
 62
0
  0
3DFACE
  8
NoName2
 10
1.982680
 20
-1.593402
 30
-0.600007
 11
1.982676
 21
-0.000002
 31
-0.302116
 12
1.090483
 22
-0.000001
 32
-1.677383
 13
1.090483
 23
-0.000001
 33
-1.677383
 62
0
  0
3DFACE
  8
NoName2
 10
-0.693901
 20
1.593396
 30
0.000002
 11
-1.982630
 21
1.593396
 31
0.000001
 12
-1.090443
 22
0.000000
 32
-1.677384
 13
-1.090443
 23
0.000000
 33
-1.677384
 62
0
  0
3DFACE
  8
NoName2
 10
0.693952
 20
1.593395
 30
0.000002
 11
-0.693901
 21
1.593396
 31
0.000002
 12
-1.090443
 22
0.000000
 32
-1.677384
 13
-1.090443
 23
0.000000
 33
-1.677384
 62
0
  0
3DFACE
  8
NoName2
 10
1.090483
 20
-0.000001
 30
-1.677383
 11
0.693952
 21
1.593395
 31
0.000002
 12
-1.090443
 22
0.000000
 32
-1.677384
 13
-1.090443
 23
0.000000
 33
-1.677384
 62
0
  0
3DFACE
  8
NoName2
 10
1.982675
 20
1.593394
 30
0.000003
 11
0.693952
 21
1.593395
 31
0.000002
 12
1.090483
 22
-0.000001
 32
-1.677383
 13
1.090483
 23
-0.000001
 33
-1.677383
 62
0
  0
3DFACE
  8
NoName2
 10
-0.693911
 20
-1.593400
 30
-0.600008
 11
-1.090443
 21
0.000000
 31
-1.677384
 12
-1.982640
 22
-1.593400
 32
-0.600009
 13
-1.982640
 23
-1.593400
 33
-0.600009
 62
0
  0
3DFACE
  8
NoName2
 10
0.693951
 20
-1.593401
 30
-0.600008
 11
-1.090443
 21
0.000000
 31
-1.677384
 12
-0.693911
 22
-1.593400
 32
-0.600008
 13
-0.693911
 23
-1.593400
 33
-0.600008
 62
0
  0
3DFACE
  8
NoName2
 10
1.090483
 20
-0.000001
 30
-1.677383
 11
-1.090443
 21
0.000000
 31
-1.677384
 12
0.693951
 22
-1.593401
 32
-0.600008
 13
0.693951
 23
-1.593401
 33
-0.600008
 62
0
  0
3DFACE
  8
NoName2
 10
1.982680
 20
-1.593402
 30
-0.600007
 11
1.090483
 21
-0.000001
 31
-1.677383
 12
0.693951
 22
-1.593401
 32
-0.600008
 13
0.693951
 23
-1.593401
 33
-0.600008
 62
0
  0
3DFACE
  8
Cylinder
 10
-1.502723
 20
0.446153
 30
1.301804
 11
-0.693919
 21
-1.505763
 31
0.600712
 12
-0.693919
 22
-1.505763
 32
0.600712
 13
-0.751348
 23
0.446152
 33
0.823785
 62
0
  0
3DFACE
  8
Cylinder
 10
-0.751348
 20
0.446152
 30
0.823785
 11
-0.693919
 21
-1.505763
 31
0.600712
 12
0.693970
 22
-1.505763
 32
0.600712
 13
0.751400
 23
0.446152
 33
0.823786
 62
0
  0
3DFACE
  8
Cylinder
 10
0.751400
 20
0.446152
 30
0.823786
 11
0.693970
 21
-1.505763
 31
0.600712
 12
0.693970
 22
-1.505763
 32
0.600712
 13
1.502774
 23
0.446151
 33
1.301805
 62
0
  0
3DFACE
  8
Cylinder
 10
0.751400
 20
0.446151
 30
1.947131
 11
1.502774
 21
0.446151
 31
1.301805
 12
0.957191
 22
-0.876371
 32
1.780047
 13
0.957191
 23
-0.876371
 33
1.780047
 62
0
  0
3DFACE
  8
Cylinder
 10
0.751400
 20
0.446151
 30
1.947131
 11
0.957191
 21
-0.876371
 31
1.780047
 12
-0.957136
 22
-0.876364
 32
1.779816
 13
-0.751348
 23
0.446152
 33
1.947130
 62
0
  0
3DFACE
  8
Cylinder
 10
-0.751348
 20
0.446152
 30
1.947130
 11
-0.957136
 21
-0.876364
 31
1.779816
 12
-1.502723
 22
0.446153
 32
1.301804
 13
-1.502723
 23
0.446153
 33
1.301804
 62
0
  0
3DFACE
  8
Cylinder
 10
-0.957136
 20
-0.876364
 30
1.779816
 11
0.693970
 21
-1.505763
 31
0.600712
 12
-0.693919
 22
-1.505763
 32
0.600712
 13
-0.693919
 23
-1.505763
 33
0.600712
 62
0
  0
3DFACE
  8
Cylinder
 10
0.957191
 20
-0.876371
 30
1.780047
 11
0.693970
 21
-1.505763
 31
0.600712
 12
-0.957136
 22
-0.876364
 32
1.779816
 13
-0.957136
 23
-0.876364
 33
1.779816
 62
0
  0
3DFACE
  8
Cylinder
 10
0.693970
 20
-1.505763
 30
0.600712
 11
-0.693919
 21
-1.505763
 31
0.600712
 12
-0.693919
 22
-1.505763
 32
0.600712
 13
-0.693919
 23
-1.505763
 33
0.600712
 62
0
  0
3DFACE
  8
Cylinder
 10
0.693970
 20
-1.505763
 30
0.600712
 11
0.693970
 21
-1.505763
 31
0.600712
 12
-0.693919
 22
-1.505763
 32
0.600712
 13
-0.693919
 23
-1.505763
 33
0.600712
 62
0
  0
3DFACE
  8
Cylinder
 10
0.000026
 20
0.685162
 30
1.070762
 11
-0.751348
 21
0.446152
 31
0.823785
 12
0.751400
 22
0.446152
 32
0.823786
 13
0.751400
 23
0.446152
 33
0.823786
 62
0
  0
3DFACE
  8
Cylinder
 10
0.464135
 20
0.537530
 30
1.612077
 11
0.751400
 21
0.446151
 31
1.947131
 12
-0.751348
 22
0.446152
 32
1.947130
 13
-0.464083
 23
0.537531
 33
1.612077
 62
0
  0
3DFACE
  8
Cylinder
 10
0.000026
 20
0.685162
 30
1.070762
 11
0.751400
 21
0.446152
 31
0.823786
 12
1.502774
 22
0.446151
 32
1.301805
 13
1.502774
 23
0.446151
 33
1.301805
 62
0
  0
3DFACE
  8
Cylinder
 10
-0.751348
 20
0.446152
 30
0.823785
 11
0.000026
 21
0.685162
 31
1.070762
 12
-1.502723
 22
0.446153
 32
1.301804
 13
-1.502723
 23
0.446153
 33
1.301804
 62
0
  0
3DFACE
  8
Cylinder
 10
-0.693919
 20
-1.505763
 30
0.600712
 11
-1.502723
 21
0.446153
 31
1.301804
 12
-0.957136
 22
-0.876364
 32
1.779816
 13
-0.957136
 23
-0.876364
 33
1.779816
 62
0
  0
3DFACE
  8
Cylinder
 10
0.693970
 20
-1.505763
 30
0.600712
 11
0.957191
 21
-0.876371
 31
1.780047
 12
1.502774
 22
0.446151
 32
1.301805
 13
1.502774
 23
0.446151
 33
1.301805
 62
0
  0
3DFACE
  8
Cylinder
 10
-0.132978
 20
0.642854
 30
1.225891
 11
0.000026
 21
0.685162
 31
1.070762
 12
0.133030
 22
0.642854
 32
1.225891
 13
0.133030
 23
0.642854
 33
1.225891
 62
0
  0
3DFACE
  8
Cylinder
 10
-0.955594
 20
0.531883
 30
1.225891
 11
0.000026
 21
0.685162
 31
1.070762
 12
-0.132978
 22
0.642854
 32
1.225891
 13
-0.132978
 23
0.642854
 33
1.225891
 62
0
  0
3DFACE
  8
Cylinder
 10
-1.502723
 20
0.446153
 30
1.301804
 11
0.000026
 21
0.685162
 31
1.070762
 12
-0.955594
 22
0.531883
 32
1.225891
 13
-0.955594
 23
0.531883
 33
1.225891
 62
0
  0
3DFACE
  8
Cylinder
 10
-0.955594
 20
0.471226
 30
1.612077
 11
-1.502723
 21
0.446153
 31
1.301804
 12
-0.955594
 22
0.531883
 32
1.225891
 13
-0.955594
 23
0.531883
 33
1.225891
 62
0
  0
3DFACE
  8
Cylinder
 10
-0.751348
 20
0.446152
 30
1.947130
 11
-1.502723
 21
0.446153
 31
1.301804
 12
-0.955594
 22
0.471226
 32
1.612077
 13
-0.955594
 23
0.471226
 33
1.612077
 62
0
  0
3DFACE
  8
Cylinder
 10
-0.751348
 20
0.446152
 30
1.947130
 11
-0.955594
 21
0.471226
 31
1.612077
 12
-0.464083
 22
0.537531
 32
1.612077
 13
-0.464083
 23
0.537531
 33
1.612077
 62
0
  0
3DFACE
  8
Cylinder
 10
0.955646
 20
0.531883
 30
1.225892
 11
0.133030
 21
0.642854
 31
1.225891
 12
0.000026
 22
0.685162
 32
1.070762
 13
0.000026
 23
0.685162
 33
1.070762
 62
0
  0
3DFACE
  8
Cylinder
 10
1.502774
 20
0.446151
 30
1.301805
 11
0.955646
 21
0.531883
 31
1.225892
 12
0.000026
 22
0.685162
 32
1.070762
 13
0.000026
 23
0.685162
 33
1.070762
 62
0
  0
3DFACE
  8
Cylinder
 10
0.955646
 20
0.471225
 30
1.612078
 11
0.955646
 21
0.531883
 31
1.225892
 12
1.502774
 22
0.446151
 32
1.301805
 13
1.502774
 23
0.446151
 33
1.301805
 62
0
  0
3DFACE
  8
Cylinder
 10
0.751400
 20
0.446151
 30
1.947131
 11
0.955646
 21
0.471225
 31
1.612078
 12
1.502774
 22
0.446151
 32
1.301805
 13
1.502774
 23
0.446151
 33
1.301805
 62
0
  0
3DFACE
  8
Cylinder
 10
0.751400
 20
0.446151
 30
1.947131
 11
0.464135
 21
0.537530
 31
1.612077
 12
0.955646
 22
0.471225
 32
1.612078
 13
0.955646
 23
0.471225
 33
1.612078
 62
0
  0
3DFACE
  8
Cylinder
 10
-0.955594
 20
0.531883
 30
1.225891
 11
-0.955542
 21
0.212734
 31
1.225322
 12
-0.955542
 22
0.152185
 32
1.612516
 13
-0.955594
 23
0.471226
 33
1.612077
 62
0
  0
3DFACE
  8
Cylinder
 10
0.955644
 20
0.212733
 30
1.225892
 11
-0.955542
 21
0.212734
 31
1.225322
 12
0.000026
 22
0.325865
 32
1.225324
 13
0.000026
 23
0.325865
 33
1.225324
 62
1
  0
3DFACE
  8
Cylinder
 10
-0.955542
 20
0.152185
 30
1.612516
 11
-0.955542
 21
0.212734
 31
1.225322
 12
0.955644
 22
0.212733
 32
1.225892
 13
0.955644
 23
0.212733
 33
1.225892
 62
1
  0
3DFACE
  8
Cylinder
 10
0.955594
 20
0.152184
 30
1.612518
 11
-0.955542
 21
0.152185
 31
1.612516
 12
0.955644
 22
0.212733
 32
1.225892
 13
0.955644
 23
0.212733
 33
1.225892
 62
1
  0
3DFACE
  8
Cylinder
 10
0.464250
 20
0.218058
 30
1.612518
 11
-0.955542
 21
0.152185
 31
1.612516
 12
0.955594
 22
0.152184
 32
1.612518
 13
0.955594
 23
0.152184
 33
1.612518
 62
1
  0
3DFACE
  8
Cylinder
 10
-0.464198
 20
0.217514
 30
1.612517
 11
-0.955542
 21
0.152185
 31
1.612516
 12
0.464250
 22
0.218058
 32
1.612518
 13
0.464250
 23
0.218058
 33
1.612518
 62
1
  0
3DFACE
  8
Cylinder
 10
-0.955594
 20
0.471226
 30
1.612077
 11
-0.955542
 21
0.152185
 31
1.612516
 12
-0.464198
 22
0.217514
 32
1.612517
 13
-0.464083
 23
0.537531
 33
1.612077
 62
0
  0
3DFACE
  8
Cylinder
 10
0.000026
 20
0.325865
 30
1.225324
 11
-0.132978
 21
0.642854
 31
1.225891
 12
0.133030
 22
0.642854
 32
1.225891
 13
0.133030
 23
0.642854
 33
1.225891
 62
0
  0
3DFACE
  8
Cylinder
 10
0.955646
 20
0.471225
 30
1.612078
 11
0.955594
 21
0.152184
 31
1.612518
 12
0.955644
 22
0.212733
 32
1.225892
 13
0.955646
 23
0.531883
 33
1.225892
 62
0
  0
3DFACE
  8
Cylinder
 10
0.955644
 20
0.212733
 30
1.225892
 11
0.000026
 21
0.325865
 31
1.225324
 12
0.133030
 22
0.642854
 32
1.225891
 13
0.955646
 23
0.531883
 33
1.225892
 62
0
  0
3DFACE
  8
Cylinder
 10
-0.955594
 20
0.531883
 30
1.225891
 11
-0.132978
 21
0.642854
 31
1.225891
 12
0.000026
 22
0.325865
 32
1.225324
 13
-0.955542
 23
0.212734
 33
1.225322
 62
0
  0
3DFACE
  8
Cylinder
 10
0.464250
 20
0.218058
 30
1.612518
 11
0.955594
 21
0.152184
 31
1.612518
 12
0.955646
 22
0.471225
 32
1.612078
 13
0.464135
 23
0.537530
 33
1.612077
 62
0
  0
3DFACE
  8
Cylinder
 10
0.464135
 20
0.537530
 30
1.612077
 11
-0.464083
 21
0.537531
 31
1.612077
 12
-0.464198
 22
0.217514
 32
1.612517
 13
0.464250
 23
0.218058
 33
1.612518
 62
0
  0
3DFACE
  8
Cube
 10
-0.956511
 20
0.390831
 30
1.224936
 11
0.956479
 21
0.390828
 31
1.224939
 12
0.956479
 22
0.390827
 32
1.613270
 13
-0.956511
 23
0.390829
 33
1.613268
 62
1
  0
3DFACE
  8
Cube
 10
0.956479
 20
-0.405873
 30
1.224942
 11
0.956479
 21
0.390828
 31
1.224939
 12
-0.956511
 22
0.390831
 32
1.224936
 13
-0.956511
 23
-0.405870
 33
1.224940
 62
0
  0
3DFACE
  8
Cube
 10
-0.956511
 20
-0.405870
 30
1.224940
 11
-0.956511
 21
0.390831
 31
1.224936
 12
-0.956511
 22
0.390829
 32
1.613268
 13
-0.956511
 23
-0.405872
 33
1.613271
 62
0
  0
3DFACE
  8
Cube
 10
-0.956511
 20
-0.405872
 30
1.613271
 11
-0.956511
 21
0.390829
 31
1.613268
 12
0.956479
 22
0.390827
 32
1.613270
 13
0.956479
 23
-0.405874
 33
1.613274
 62
0
  0
3DFACE
  8
Cube
 10
0.956479
 20
-0.405873
 30
1.224942
 11
-0.956511
 21
-0.405870
 31
1.224940
 12
-0.956511
 22
-0.405872
 32
1.613271
 13
0.956479
 23
-0.405874
 33
1.613274
 62
0
  0
3DFACE
  8
Cube
 10
0.956479
 20
0.390828
 30
1.224939
 11
0.956479
 21
-0.405873
 31
1.224942
 12
0.956479
 22
-0.405874
 32
1.613274
 13
0.956479
 23
0.390827
 33
1.613270
 62
0
 0
ENDSEC
 0
EOF
