  0
SECTION
  2
HEADER
  0
ENDSEC
  0
SECTION
  2
TABLES
  0
TABLE
  2
LAYER
  70
    153
  0
LAYER
  2
Cylinder
 70
0
 62
15
  6
CONTINUOUS
  0
LAYER
  2
Cylinder1
 70
0
 62
15
  6
CONTINUOUS
  0
LAYER
  2
Cylinder2
 70
0
 62
15
  6
CONTINUOUS
  0
LAYER
  2
Cube
 70
0
 62
15
  6
CONTINUOUS
  0
LAYER
  2
Sphere
 70
0
 62
15
  6
CONTINUOUS
  0
LAYER
  2
Cone1
 70
0
 62
15
  6
CONTINUOUS
  0
LAYER
  2
Cone
 70
0
 62
15
  6
CONTINUOUS
  0
ENDTAB
  0
ENDSEC
  0
SECTION
  2
ENTITIES
  0
3DFACE
  8
Cylinder
 10
0.000561
 20
1.756920
 30
-1.945289
 11
0.000561
 21
-1.409925
 31
-1.945289
 12
0.743640
 22
-1.409925
 32
-1.535187
 13
0.743639
 23
1.756919
 33
-1.535188
 62
0
  0
3DFACE
  8
Cylinder
 10
0.743639
 20
1.756919
 30
-1.535188
 11
0.743640
 21
-1.409925
 31
-1.535187
 12
0.743640
 22
-1.409925
 32
-0.732860
 13
0.743639
 23
1.756919
 33
-0.732861
 62
0
  0
3DFACE
  8
Cylinder
 10
0.743639
 20
1.756919
 30
-0.732861
 11
0.743640
 21
-1.409925
 31
-0.732860
 12
0.000561
 22
-1.409925
 32
-0.322760
 13
0.000561
 23
1.756919
 33
-0.322761
 62
0
  0
3DFACE
  8
Cylinder
 10
0.000561
 20
1.756919
 30
-0.322761
 11
0.000561
 21
-1.409925
 31
-0.322760
 12
-0.742517
 22
-1.409925
 32
-0.732860
 13
-0.742518
 23
1.756920
 33
-0.732861
 62
0
  0
3DFACE
  8
Cylinder
 10
-0.742518
 20
1.756920
 30
-0.732861
 11
-0.742517
 21
-1.409925
 31
-0.732860
 12
-0.742516
 22
-1.409924
 32
-1.535187
 13
-0.742518
 23
1.756920
 33
-1.535188
 62
0
  0
3DFACE
  8
Cylinder
 10
-0.742518
 20
1.756920
 30
-1.535188
 11
-0.742516
 21
-1.409924
 31
-1.535187
 12
0.000561
 22
-1.409925
 32
-1.945289
 13
0.000561
 23
1.756920
 33
-1.945289
 62
0
  0
3DFACE
  8
Cylinder
 10
-0.742516
 20
-1.409924
 30
-1.535187
 11
-0.742517
 21
-1.409925
 31
-0.732860
 12
0.000562
 22
-1.819685
 32
-1.129571
 13
0.000562
 23
-1.819685
 33
-1.129571
 62
0
  0
3DFACE
  8
Cylinder
 10
0.672223
 20
1.756919
 30
-1.134025
 11
0.743639
 21
1.756919
 31
-1.535188
 12
0.743639
 22
1.756919
 32
-0.732861
 13
0.743639
 23
1.756919
 33
-0.732861
 62
0
  0
3DFACE
  8
Cylinder
 10
0.663498
 20
1.756919
 30
-1.177887
 11
0.743639
 21
1.756919
 31
-1.535188
 12
0.672223
 22
1.756919
 32
-1.134025
 13
0.672223
 23
1.756919
 33
-1.134025
 62
0
  0
3DFACE
  8
Cylinder
 10
0.638652
 20
1.756919
 30
-1.215072
 11
0.743639
 21
1.756919
 31
-1.535188
 12
0.663498
 22
1.756919
 32
-1.177887
 13
0.663498
 23
1.756919
 33
-1.177887
 62
0
  0
3DFACE
  8
Cylinder
 10
0.601467
 20
1.756919
 30
-1.239918
 11
0.743639
 21
1.756919
 31
-1.535188
 12
0.638652
 22
1.756919
 32
-1.215072
 13
0.638652
 23
1.756919
 33
-1.215072
 62
0
  0
3DFACE
  8
Cylinder
 10
0.557605
 20
1.756919
 30
-1.248643
 11
0.743639
 21
1.756919
 31
-1.535188
 12
0.601467
 22
1.756919
 32
-1.239918
 13
0.601467
 23
1.756919
 33
-1.239918
 62
0
  0
3DFACE
  8
Cylinder
 10
0.516342
 20
1.756919
 30
-1.523722
 11
0.743639
 21
1.756919
 31
-1.535188
 12
0.557605
 22
1.756919
 32
-1.248643
 13
0.557605
 23
1.756919
 33
-1.248643
 62
0
  0
3DFACE
  8
Cylinder
 10
0.507617
 20
1.756920
 30
-1.567585
 11
0.743639
 21
1.756919
 31
-1.535188
 12
0.516342
 22
1.756919
 32
-1.523722
 13
0.516342
 23
1.756919
 33
-1.523722
 62
0
  0
3DFACE
  8
Cylinder
 10
0.482771
 20
1.756920
 30
-1.604770
 11
0.743639
 21
1.756919
 31
-1.535188
 12
0.507617
 22
1.756920
 32
-1.567585
 13
0.507617
 23
1.756920
 33
-1.567585
 62
0
  0
3DFACE
  8
Cylinder
 10
0.445587
 20
1.756920
 30
-1.629616
 11
0.743639
 21
1.756919
 31
-1.535188
 12
0.482771
 22
1.756920
 32
-1.604770
 13
0.482771
 23
1.756920
 33
-1.604770
 62
0
  0
3DFACE
  8
Cylinder
 10
0.115179
 20
1.756920
 30
-1.695654
 11
0.287106
 21
1.756920
 31
-1.523722
 12
0.115179
 22
1.756919
 32
-0.572396
 13
0.115179
 23
1.756919
 33
-0.572396
 62
0
  0
3DFACE
  8
Cylinder
 10
0.115179
 20
1.756920
 30
-1.695654
 11
0.295831
 21
1.756920
 31
-1.567585
 12
0.287106
 22
1.756920
 32
-1.523722
 13
0.287106
 23
1.756920
 33
-1.523722
 62
0
  0
3DFACE
  8
Cylinder
 10
0.115179
 20
1.756920
 30
-1.695654
 11
0.320677
 21
1.756920
 31
-1.604770
 12
0.295831
 22
1.756920
 32
-1.567585
 13
0.295831
 23
1.756920
 33
-1.567585
 62
0
  0
3DFACE
  8
Cylinder
 10
0.115179
 20
1.756920
 30
-1.695654
 11
0.357862
 21
1.756920
 31
-1.629616
 12
0.320677
 22
1.756920
 32
-1.604770
 13
0.320677
 23
1.756920
 33
-1.604770
 62
0
  0
3DFACE
  8
Cylinder
 10
0.115179
 20
1.756920
 30
-1.695654
 11
0.401724
 21
1.756920
 31
-1.638341
 12
0.357862
 22
1.756920
 32
-1.629616
 13
0.357862
 23
1.756920
 33
-1.629616
 62
0
  0
3DFACE
  8
Cylinder
 10
0.115179
 20
1.756920
 30
-1.695654
 11
0.445587
 21
1.756920
 31
-1.629616
 12
0.401724
 22
1.756920
 32
-1.638341
 13
0.401724
 23
1.756920
 33
-1.638341
 62
0
  0
3DFACE
  8
Cylinder
 10
0.106454
 20
1.756920
 30
-1.739516
 11
0.445587
 21
1.756920
 31
-1.629616
 12
0.115179
 22
1.756920
 32
-1.695654
 13
0.115179
 23
1.756920
 33
-1.695654
 62
0
  0
3DFACE
  8
Cylinder
 10
0.106454
 20
1.756920
 30
-1.739516
 11
0.743639
 21
1.756919
 31
-1.535188
 12
0.445587
 22
1.756920
 32
-1.629616
 13
0.445587
 23
1.756920
 33
-1.629616
 62
0
  0
3DFACE
  8
Cylinder
 10
0.081608
 20
1.756920
 30
-1.776701
 11
0.743639
 21
1.756919
 31
-1.535188
 12
0.106454
 22
1.756920
 32
-1.739516
 13
0.106454
 23
1.756920
 33
-1.739516
 62
0
  0
3DFACE
  8
Cylinder
 10
0.044423
 20
1.756920
 30
-1.801547
 11
0.743639
 21
1.756919
 31
-1.535188
 12
0.081608
 22
1.756920
 32
-1.776701
 13
0.081608
 23
1.756920
 33
-1.776701
 62
0
  0
3DFACE
  8
Cylinder
 10
0.000561
 20
1.756920
 30
-1.945289
 11
0.743639
 21
1.756919
 31
-1.535188
 12
0.044423
 22
1.756920
 32
-1.801547
 13
0.044423
 23
1.756920
 33
-1.801547
 62
0
  0
3DFACE
  8
Cylinder
 10
0.000561
 20
1.756920
 30
-1.810272
 11
0.000561
 21
1.756920
 31
-1.945289
 12
0.044423
 22
1.756920
 32
-1.801547
 13
0.044423
 23
1.756920
 33
-1.801547
 62
0
  0
3DFACE
  8
Cylinder
 10
-0.043302
 20
1.756920
 30
-1.801547
 11
0.000561
 21
1.756920
 31
-1.945289
 12
0.000561
 22
1.756920
 32
-1.810272
 13
0.000561
 23
1.756920
 33
-1.810272
 62
0
  0
3DFACE
  8
Cylinder
 10
-0.080487
 20
1.756920
 30
-1.776701
 11
0.000561
 21
1.756920
 31
-1.945289
 12
-0.043302
 22
1.756920
 32
-1.801547
 13
-0.043302
 23
1.756920
 33
-1.801547
 62
0
  0
3DFACE
  8
Cylinder
 10
-0.105333
 20
1.756920
 30
-1.739516
 11
0.000561
 21
1.756920
 31
-1.945289
 12
-0.080487
 22
1.756920
 32
-1.776701
 13
-0.080487
 23
1.756920
 33
-1.776701
 62
0
  0
3DFACE
  8
Cylinder
 10
-0.285985
 20
1.756920
 30
-1.523727
 11
-0.114057
 21
1.756920
 31
-1.695654
 12
-0.285985
 22
1.756919
 32
-0.744323
 13
-0.285985
 23
1.756919
 33
-0.744323
 62
0
  0
3DFACE
  8
Cylinder
 10
-0.285985
 20
1.756920
 30
-1.523727
 11
-0.105333
 21
1.756920
 31
-1.739516
 12
-0.114057
 22
1.756920
 32
-1.695654
 13
-0.114057
 23
1.756920
 33
-1.695654
 62
0
  0
3DFACE
  8
Cylinder
 10
-0.285985
 20
1.756920
 30
-1.523727
 11
0.000561
 21
1.756920
 31
-1.945289
 12
-0.105333
 22
1.756920
 32
-1.739516
 13
-0.105333
 23
1.756920
 33
-1.739516
 62
0
  0
3DFACE
  8
Cylinder
 10
-0.294710
 20
1.756920
 30
-1.567589
 11
0.000561
 21
1.756920
 31
-1.945289
 12
-0.285985
 22
1.756920
 32
-1.523727
 13
-0.285985
 23
1.756920
 33
-1.523727
 62
0
  0
3DFACE
  8
Cylinder
 10
-0.319556
 20
1.756920
 30
-1.604774
 11
0.000561
 21
1.756920
 31
-1.945289
 12
-0.294710
 22
1.756920
 32
-1.567589
 13
-0.294710
 23
1.756920
 33
-1.567589
 62
0
  0
3DFACE
  8
Cylinder
 10
-0.356740
 20
1.756920
 30
-1.629620
 11
0.000561
 21
1.756920
 31
-1.945289
 12
-0.319556
 22
1.756920
 32
-1.604774
 13
-0.319556
 23
1.756920
 33
-1.604774
 62
0
  0
3DFACE
  8
Cylinder
 10
-0.400603
 20
1.756920
 30
-1.638345
 11
0.000561
 21
1.756920
 31
-1.945289
 12
-0.356740
 22
1.756920
 32
-1.629620
 13
-0.356740
 23
1.756920
 33
-1.629620
 62
0
  0
3DFACE
  8
Cylinder
 10
-0.444465
 20
1.756920
 30
-1.629620
 11
0.000561
 21
1.756920
 31
-1.945289
 12
-0.400603
 22
1.756920
 32
-1.638345
 13
-0.400603
 23
1.756920
 33
-1.638345
 62
0
  0
3DFACE
  8
Cylinder
 10
-0.481650
 20
1.756920
 30
-1.604774
 11
0.000561
 21
1.756920
 31
-1.945289
 12
-0.444465
 22
1.756920
 32
-1.629620
 13
-0.444465
 23
1.756920
 33
-1.629620
 62
0
  0
3DFACE
  8
Cylinder
 10
-0.600457
 20
1.756920
 30
-1.239918
 11
-0.515221
 21
1.756920
 31
-1.523727
 12
-0.556595
 22
1.756920
 32
-1.248643
 13
-0.556595
 23
1.756920
 33
-1.248643
 62
0
  0
3DFACE
  8
Cylinder
 10
-0.600457
 20
1.756920
 30
-1.239918
 11
-0.506496
 21
1.756920
 31
-1.567589
 12
-0.515221
 22
1.756920
 32
-1.523727
 13
-0.515221
 23
1.756920
 33
-1.523727
 62
0
  0
3DFACE
  8
Cylinder
 10
-0.637642
 20
1.756920
 30
-1.215072
 11
-0.506496
 21
1.756920
 31
-1.567589
 12
-0.600457
 22
1.756920
 32
-1.239918
 13
-0.600457
 23
1.756920
 33
-1.239918
 62
0
  0
3DFACE
  8
Cylinder
 10
-0.662488
 20
1.756920
 30
-1.177887
 11
-0.506496
 21
1.756920
 31
-1.567589
 12
-0.637642
 22
1.756920
 32
-1.215072
 13
-0.637642
 23
1.756920
 33
-1.215072
 62
0
  0
3DFACE
  8
Cylinder
 10
-0.742518
 20
1.756920
 30
-1.535188
 11
0.000561
 21
1.756920
 31
-1.945289
 12
-0.481650
 22
1.756920
 32
-1.604774
 13
-0.481650
 23
1.756920
 33
-1.604774
 62
0
  0
3DFACE
  8
Cylinder
 10
-0.742518
 20
1.756920
 30
-1.535188
 11
-0.481650
 21
1.756920
 31
-1.604774
 12
-0.506496
 22
1.756920
 32
-1.567589
 13
-0.506496
 23
1.756920
 33
-1.567589
 62
0
  0
3DFACE
  8
Cylinder
 10
-0.742518
 20
1.756920
 30
-1.535188
 11
-0.506496
 21
1.756920
 31
-1.567589
 12
-0.662488
 22
1.756920
 32
-1.177887
 13
-0.662488
 23
1.756920
 33
-1.177887
 62
0
  0
3DFACE
  8
Cylinder
 10
-0.742518
 20
1.756920
 30
-1.535188
 11
-0.662488
 21
1.756920
 31
-1.177887
 12
-0.671213
 22
1.756920
 32
-1.134025
 13
-0.671213
 23
1.756920
 33
-1.134025
 62
0
  0
3DFACE
  8
Cylinder
 10
0.106454
 20
1.756919
 30
-0.616259
 11
0.115179
 21
1.756920
 31
-1.695654
 12
0.115179
 22
1.756919
 32
-0.572396
 13
0.115179
 23
1.756919
 33
-0.572396
 62
0
  0
3DFACE
  8
Cylinder
 10
0.106454
 20
1.756920
 30
-1.651791
 11
0.115179
 21
1.756920
 31
-1.695654
 12
0.106454
 22
1.756919
 32
-0.616259
 13
0.106454
 23
1.756919
 33
-0.616259
 62
0
  0
3DFACE
  8
Cylinder
 10
0.081608
 20
1.756920
 30
-0.653443
 11
0.106454
 21
1.756920
 31
-1.651791
 12
0.106454
 22
1.756919
 32
-0.616259
 13
0.106454
 23
1.756919
 33
-0.616259
 62
0
  0
3DFACE
  8
Cylinder
 10
0.081608
 20
1.756920
 30
-1.614606
 11
0.106454
 21
1.756920
 31
-1.651791
 12
0.081608
 22
1.756920
 32
-0.653443
 13
0.081608
 23
1.756920
 33
-0.653443
 62
0
  0
3DFACE
  8
Cylinder
 10
0.044423
 20
1.756919
 30
-0.678289
 11
0.081608
 21
1.756920
 31
-1.614606
 12
0.081608
 22
1.756920
 32
-0.653443
 13
0.081608
 23
1.756920
 33
-0.653443
 62
0
  0
3DFACE
  8
Cylinder
 10
0.044423
 20
1.756920
 30
-1.589760
 11
0.081608
 21
1.756920
 31
-1.614606
 12
0.044423
 22
1.756919
 32
-0.678289
 13
0.044423
 23
1.756919
 33
-0.678289
 62
0
  0
3DFACE
  8
Cylinder
 10
0.000561
 20
1.756919
 30
-0.687014
 11
0.044423
 21
1.756920
 31
-1.589760
 12
0.044423
 22
1.756919
 32
-0.678289
 13
0.044423
 23
1.756919
 33
-0.678289
 62
0
  0
3DFACE
  8
Cylinder
 10
0.000561
 20
1.756920
 30
-1.581036
 11
0.044423
 21
1.756920
 31
-1.589760
 12
0.000561
 22
1.756919
 32
-0.687014
 13
0.000561
 23
1.756919
 33
-0.687014
 62
0
  0
3DFACE
  8
Cylinder
 10
-0.043302
 20
1.756919
 30
-0.678289
 11
0.000561
 21
1.756920
 31
-1.581036
 12
0.000561
 22
1.756919
 32
-0.687014
 13
0.000561
 23
1.756919
 33
-0.687014
 62
0
  0
3DFACE
  8
Cylinder
 10
-0.043302
 20
1.756920
 30
-1.589760
 11
0.000561
 21
1.756920
 31
-1.581036
 12
-0.043302
 22
1.756919
 32
-0.678289
 13
-0.043302
 23
1.756919
 33
-0.678289
 62
0
  0
3DFACE
  8
Cylinder
 10
-0.080487
 20
1.756919
 30
-0.653443
 11
-0.043302
 21
1.756920
 31
-1.589760
 12
-0.043302
 22
1.756919
 32
-0.678289
 13
-0.043302
 23
1.756919
 33
-0.678289
 62
0
  0
3DFACE
  8
Cylinder
 10
-0.080487
 20
1.756920
 30
-1.614606
 11
-0.043302
 21
1.756920
 31
-1.589760
 12
-0.080487
 22
1.756919
 32
-0.653443
 13
-0.080487
 23
1.756919
 33
-0.653443
 62
0
  0
3DFACE
  8
Cylinder
 10
-0.105333
 20
1.756919
 30
-0.616258
 11
-0.080487
 21
1.756920
 31
-1.614606
 12
-0.080487
 22
1.756919
 32
-0.653443
 13
-0.080487
 23
1.756919
 33
-0.653443
 62
0
  0
3DFACE
  8
Cylinder
 10
-0.105333
 20
1.756920
 30
-1.651791
 11
-0.080487
 21
1.756920
 31
-1.614606
 12
-0.105333
 22
1.756919
 32
-0.616258
 13
-0.105333
 23
1.756919
 33
-0.616258
 62
0
  0
3DFACE
  8
Cylinder
 10
-0.114058
 20
1.756919
 30
-0.572396
 11
-0.105333
 21
1.756920
 31
-1.651791
 12
-0.105333
 22
1.756919
 32
-0.616258
 13
-0.105333
 23
1.756919
 33
-0.616258
 62
0
  0
3DFACE
  8
Cylinder
 10
-0.114057
 20
1.756920
 30
-1.695654
 11
-0.105333
 21
1.756920
 31
-1.651791
 12
-0.114058
 22
1.756919
 32
-0.572396
 13
-0.114058
 23
1.756919
 33
-0.572396
 62
0
  0
3DFACE
  8
Cylinder
 10
0.513742
 20
1.756919
 30
-1.239918
 11
0.516342
 21
1.756919
 31
-1.523722
 12
0.557605
 22
1.756919
 32
-1.248643
 13
0.557605
 23
1.756919
 33
-1.248643
 62
0
  0
3DFACE
  8
Cylinder
 10
0.507617
 20
1.756919
 30
-1.479860
 11
0.516342
 21
1.756919
 31
-1.523722
 12
0.513742
 22
1.756919
 32
-1.239918
 13
0.513742
 23
1.756919
 33
-1.239918
 62
0
  0
3DFACE
  8
Cylinder
 10
0.482771
 20
1.756919
 30
-1.442675
 11
0.507617
 21
1.756919
 31
-1.479860
 12
0.513742
 22
1.756919
 32
-1.239918
 13
0.513742
 23
1.756919
 33
-1.239918
 62
0
  0
3DFACE
  8
Cylinder
 10
0.476558
 20
1.756919
 30
-1.215072
 11
0.482771
 21
1.756919
 31
-1.442675
 12
0.513742
 22
1.756919
 32
-1.239918
 13
0.513742
 23
1.756919
 33
-1.239918
 62
0
  0
3DFACE
  8
Cylinder
 10
0.451711
 20
1.756919
 30
-1.177887
 11
0.482771
 21
1.756919
 31
-1.442675
 12
0.476558
 22
1.756919
 32
-1.215072
 13
0.476558
 23
1.756919
 33
-1.215072
 62
0
  0
3DFACE
  8
Cylinder
 10
0.445587
 20
1.756919
 30
-1.417829
 11
0.482771
 21
1.756919
 31
-1.442675
 12
0.451711
 22
1.756919
 32
-1.177887
 13
0.451711
 23
1.756919
 33
-1.177887
 62
0
  0
3DFACE
  8
Cylinder
 10
0.442987
 20
1.756919
 30
-1.134025
 11
0.445587
 21
1.756919
 31
-1.417829
 12
0.451711
 22
1.756919
 32
-1.177887
 13
0.451711
 23
1.756919
 33
-1.177887
 62
0
  0
3DFACE
  8
Cylinder
 10
0.401724
 20
1.756919
 30
-0.858941
 11
0.445587
 21
1.756919
 31
-1.417829
 12
0.442987
 22
1.756919
 32
-1.134025
 13
0.442987
 23
1.756919
 33
-1.134025
 62
0
  0
3DFACE
  8
Cylinder
 10
0.401724
 20
1.756919
 30
-1.409104
 11
0.445587
 21
1.756919
 31
-1.417829
 12
0.401724
 22
1.756919
 32
-0.858941
 13
0.401724
 23
1.756919
 33
-0.858941
 62
0
  0
3DFACE
  8
Cylinder
 10
0.357862
 20
1.756919
 30
-0.850217
 11
0.401724
 21
1.756919
 31
-1.409104
 12
0.401724
 22
1.756919
 32
-0.858941
 13
0.401724
 23
1.756919
 33
-0.858941
 62
0
  0
3DFACE
  8
Cylinder
 10
0.357862
 20
1.756919
 30
-1.417829
 11
0.401724
 21
1.756919
 31
-1.409104
 12
0.357862
 22
1.756919
 32
-0.850217
 13
0.357862
 23
1.756919
 33
-0.850217
 62
0
  0
3DFACE
  8
Cylinder
 10
0.320677
 20
1.756919
 30
-0.825370
 11
0.357862
 21
1.756919
 31
-1.417829
 12
0.357862
 22
1.756919
 32
-0.850217
 13
0.357862
 23
1.756919
 33
-0.850217
 62
0
  0
3DFACE
  8
Cylinder
 10
0.320677
 20
1.756920
 30
-1.442675
 11
0.357862
 21
1.756919
 31
-1.417829
 12
0.320677
 22
1.756919
 32
-0.825370
 13
0.320677
 23
1.756919
 33
-0.825370
 62
0
  0
3DFACE
  8
Cylinder
 10
0.295831
 20
1.756919
 30
-0.788186
 11
0.320677
 21
1.756920
 31
-1.442675
 12
0.320677
 22
1.756919
 32
-0.825370
 13
0.320677
 23
1.756919
 33
-0.825370
 62
0
  0
3DFACE
  8
Cylinder
 10
0.295831
 20
1.756920
 30
-1.479860
 11
0.320677
 21
1.756920
 31
-1.442675
 12
0.295831
 22
1.756919
 32
-0.788186
 13
0.295831
 23
1.756919
 33
-0.788186
 62
0
  0
3DFACE
  8
Cylinder
 10
0.287106
 20
1.756919
 30
-0.744323
 11
0.295831
 21
1.756920
 31
-1.479860
 12
0.295831
 22
1.756919
 32
-0.788186
 13
0.295831
 23
1.756919
 33
-0.788186
 62
0
  0
3DFACE
  8
Cylinder
 10
0.287106
 20
1.756920
 30
-1.523722
 11
0.295831
 21
1.756920
 31
-1.479860
 12
0.287106
 22
1.756919
 32
-0.744323
 13
0.287106
 23
1.756919
 33
-0.744323
 62
0
  0
3DFACE
  8
Cylinder
 10
0.663498
 20
1.756919
 30
-1.090162
 11
0.672223
 21
1.756919
 31
-1.134025
 12
0.743639
 22
1.756919
 32
-0.732861
 13
0.743639
 23
1.756919
 33
-0.732861
 62
0
  0
3DFACE
  8
Cylinder
 10
0.638652
 20
1.756919
 30
-1.052978
 11
0.663498
 21
1.756919
 31
-1.090162
 12
0.743639
 22
1.756919
 32
-0.732861
 13
0.743639
 23
1.756919
 33
-0.732861
 62
0
  0
3DFACE
  8
Cylinder
 10
0.601467
 20
1.756919
 30
-1.028131
 11
0.638652
 21
1.756919
 31
-1.052978
 12
0.743639
 22
1.756919
 32
-0.732861
 13
0.743639
 23
1.756919
 33
-0.732861
 62
0
  0
3DFACE
  8
Cylinder
 10
0.557605
 20
1.756919
 30
-1.019407
 11
0.601467
 21
1.756919
 31
-1.028131
 12
0.743639
 22
1.756919
 32
-0.732861
 13
0.743639
 23
1.756919
 33
-0.732861
 62
0
  0
3DFACE
  8
Cylinder
 10
0.516342
 20
1.756919
 30
-0.744323
 11
0.557605
 21
1.756919
 31
-1.019407
 12
0.743639
 22
1.756919
 32
-0.732861
 13
0.743639
 23
1.756919
 33
-0.732861
 62
0
  0
3DFACE
  8
Cylinder
 10
0.507617
 20
1.756919
 30
-0.700461
 11
0.516342
 21
1.756919
 31
-0.744323
 12
0.743639
 22
1.756919
 32
-0.732861
 13
0.743639
 23
1.756919
 33
-0.732861
 62
0
  0
3DFACE
  8
Cylinder
 10
0.482771
 20
1.756919
 30
-0.663276
 11
0.507617
 21
1.756919
 31
-0.700461
 12
0.743639
 22
1.756919
 32
-0.732861
 13
0.743639
 23
1.756919
 33
-0.732861
 62
0
  0
3DFACE
  8
Cylinder
 10
0.445587
 20
1.756919
 30
-0.638430
 11
0.482771
 21
1.756919
 31
-0.663276
 12
0.743639
 22
1.756919
 32
-0.732861
 13
0.743639
 23
1.756919
 33
-0.732861
 62
0
  0
3DFACE
  8
Cylinder
 10
0.115179
 20
1.756919
 30
-0.572396
 11
0.287106
 21
1.756920
 31
-1.523722
 12
0.287106
 22
1.756919
 32
-0.744323
 13
0.287106
 23
1.756919
 33
-0.744323
 62
0
  0
3DFACE
  8
Cylinder
 10
0.115179
 20
1.756919
 30
-0.572396
 11
0.287106
 21
1.756919
 31
-0.744323
 12
0.295831
 22
1.756919
 32
-0.700461
 13
0.295831
 23
1.756919
 33
-0.700461
 62
0
  0
3DFACE
  8
Cylinder
 10
0.115179
 20
1.756919
 30
-0.572396
 11
0.295831
 21
1.756919
 31
-0.700461
 12
0.320677
 22
1.756919
 32
-0.663276
 13
0.320677
 23
1.756919
 33
-0.663276
 62
0
  0
3DFACE
  8
Cylinder
 10
0.115179
 20
1.756919
 30
-0.572396
 11
0.320677
 21
1.756919
 31
-0.663276
 12
0.357862
 22
1.756919
 32
-0.638430
 13
0.357862
 23
1.756919
 33
-0.638430
 62
0
  0
3DFACE
  8
Cylinder
 10
0.115179
 20
1.756919
 30
-0.572396
 11
0.357862
 21
1.756919
 31
-0.638430
 12
0.401724
 22
1.756919
 32
-0.629705
 13
0.401724
 23
1.756919
 33
-0.629705
 62
0
  0
3DFACE
  8
Cylinder
 10
0.115179
 20
1.756919
 30
-0.572396
 11
0.401724
 21
1.756919
 31
-0.629705
 12
0.445587
 22
1.756919
 32
-0.638430
 13
0.445587
 23
1.756919
 33
-0.638430
 62
0
  0
3DFACE
  8
Cylinder
 10
0.106454
 20
1.756919
 30
-0.528534
 11
0.115179
 21
1.756919
 31
-0.572396
 12
0.445587
 22
1.756919
 32
-0.638430
 13
0.445587
 23
1.756919
 33
-0.638430
 62
0
  0
3DFACE
  8
Cylinder
 10
0.106454
 20
1.756919
 30
-0.528534
 11
0.445587
 21
1.756919
 31
-0.638430
 12
0.743639
 22
1.756919
 32
-0.732861
 13
0.743639
 23
1.756919
 33
-0.732861
 62
0
  0
3DFACE
  8
Cylinder
 10
0.081608
 20
1.756919
 30
-0.491349
 11
0.106454
 21
1.756919
 31
-0.528534
 12
0.743639
 22
1.756919
 32
-0.732861
 13
0.743639
 23
1.756919
 33
-0.732861
 62
0
  0
3DFACE
  8
Cylinder
 10
0.044423
 20
1.756919
 30
-0.466503
 11
0.081608
 21
1.756919
 31
-0.491349
 12
0.743639
 22
1.756919
 32
-0.732861
 13
0.743639
 23
1.756919
 33
-0.732861
 62
0
  0
3DFACE
  8
Cylinder
 10
0.000561
 20
1.756919
 30
-0.322761
 11
0.044423
 21
1.756919
 31
-0.466503
 12
0.743639
 22
1.756919
 32
-0.732861
 13
0.743639
 23
1.756919
 33
-0.732861
 62
0
  0
3DFACE
  8
Cylinder
 10
0.000561
 20
1.756919
 30
-0.457778
 11
0.044423
 21
1.756919
 31
-0.466503
 12
0.000561
 22
1.756919
 32
-0.322761
 13
0.000561
 23
1.756919
 33
-0.322761
 62
0
  0
3DFACE
  8
Cylinder
 10
-0.043302
 20
1.756919
 30
-0.466503
 11
0.000561
 21
1.756919
 31
-0.457778
 12
0.000561
 22
1.756919
 32
-0.322761
 13
0.000561
 23
1.756919
 33
-0.322761
 62
0
  0
3DFACE
  8
Cylinder
 10
-0.080487
 20
1.756919
 30
-0.491349
 11
-0.043302
 21
1.756919
 31
-0.466503
 12
0.000561
 22
1.756919
 32
-0.322761
 13
0.000561
 23
1.756919
 33
-0.322761
 62
0
  0
3DFACE
  8
Cylinder
 10
-0.105333
 20
1.756920
 30
-0.528534
 11
-0.080487
 21
1.756919
 31
-0.491349
 12
0.000561
 22
1.756919
 32
-0.322761
 13
0.000561
 23
1.756919
 33
-0.322761
 62
0
  0
3DFACE
  8
Cylinder
 10
-0.285985
 20
1.756919
 30
-0.744323
 11
-0.114057
 21
1.756920
 31
-1.695654
 12
-0.114058
 22
1.756919
 32
-0.572396
 13
-0.114058
 23
1.756919
 33
-0.572396
 62
0
  0
3DFACE
  8
Cylinder
 10
-0.285985
 20
1.756919
 30
-0.744323
 11
-0.114058
 21
1.756919
 31
-0.572396
 12
-0.105333
 22
1.756920
 32
-0.528534
 13
-0.105333
 23
1.756920
 33
-0.528534
 62
0
  0
3DFACE
  8
Cylinder
 10
-0.285985
 20
1.756919
 30
-0.744323
 11
-0.105333
 21
1.756920
 31
-0.528534
 12
0.000561
 22
1.756919
 32
-0.322761
 13
0.000561
 23
1.756919
 33
-0.322761
 62
0
  0
3DFACE
  8
Cylinder
 10
-0.294709
 20
1.756919
 30
-0.700461
 11
-0.285985
 21
1.756919
 31
-0.744323
 12
0.000561
 22
1.756919
 32
-0.322761
 13
0.000561
 23
1.756919
 33
-0.322761
 62
0
  0
3DFACE
  8
Cylinder
 10
-0.319556
 20
1.756919
 30
-0.663276
 11
-0.294709
 21
1.756919
 31
-0.700461
 12
0.000561
 22
1.756919
 32
-0.322761
 13
0.000561
 23
1.756919
 33
-0.322761
 62
0
  0
3DFACE
  8
Cylinder
 10
-0.356740
 20
1.756919
 30
-0.638430
 11
-0.319556
 21
1.756919
 31
-0.663276
 12
0.000561
 22
1.756919
 32
-0.322761
 13
0.000561
 23
1.756919
 33
-0.322761
 62
0
  0
3DFACE
  8
Cylinder
 10
-0.400603
 20
1.756919
 30
-0.629705
 11
-0.356740
 21
1.756919
 31
-0.638430
 12
0.000561
 22
1.756919
 32
-0.322761
 13
0.000561
 23
1.756919
 33
-0.322761
 62
0
  0
3DFACE
  8
Cylinder
 10
-0.444465
 20
1.756919
 30
-0.638430
 11
-0.400603
 21
1.756919
 31
-0.629705
 12
0.000561
 22
1.756919
 32
-0.322761
 13
0.000561
 23
1.756919
 33
-0.322761
 62
0
  0
3DFACE
  8
Cylinder
 10
-0.481650
 20
1.756919
 30
-0.663276
 11
-0.444465
 21
1.756919
 31
-0.638430
 12
0.000561
 22
1.756919
 32
-0.322761
 13
0.000561
 23
1.756919
 33
-0.322761
 62
0
  0
3DFACE
  8
Cylinder
 10
-0.600457
 20
1.756920
 30
-1.028131
 11
-0.556595
 21
1.756920
 31
-1.019407
 12
-0.515221
 22
1.756919
 32
-0.744323
 13
-0.515221
 23
1.756919
 33
-0.744323
 62
0
  0
3DFACE
  8
Cylinder
 10
-0.600457
 20
1.756920
 30
-1.028131
 11
-0.515221
 21
1.756919
 31
-0.744323
 12
-0.506496
 22
1.756919
 32
-0.700461
 13
-0.506496
 23
1.756919
 33
-0.700461
 62
0
  0
3DFACE
  8
Cylinder
 10
-0.637642
 20
1.756920
 30
-1.052978
 11
-0.600457
 21
1.756920
 31
-1.028131
 12
-0.506496
 22
1.756919
 32
-0.700461
 13
-0.506496
 23
1.756919
 33
-0.700461
 62
0
  0
3DFACE
  8
Cylinder
 10
-0.662488
 20
1.756920
 30
-1.090162
 11
-0.637642
 21
1.756920
 31
-1.052978
 12
-0.506496
 22
1.756919
 32
-0.700461
 13
-0.506496
 23
1.756919
 33
-0.700461
 62
0
  0
3DFACE
  8
Cylinder
 10
-0.742518
 20
1.756920
 30
-0.732861
 11
-0.481650
 21
1.756919
 31
-0.663276
 12
0.000561
 22
1.756919
 32
-0.322761
 13
0.000561
 23
1.756919
 33
-0.322761
 62
0
  0
3DFACE
  8
Cylinder
 10
-0.742518
 20
1.756920
 30
-0.732861
 11
-0.506496
 21
1.756919
 31
-0.700461
 12
-0.481650
 22
1.756919
 32
-0.663276
 13
-0.481650
 23
1.756919
 33
-0.663276
 62
0
  0
3DFACE
  8
Cylinder
 10
-0.742518
 20
1.756920
 30
-0.732861
 11
-0.662488
 21
1.756920
 31
-1.090162
 12
-0.506496
 22
1.756919
 32
-0.700461
 13
-0.506496
 23
1.756919
 33
-0.700461
 62
0
  0
3DFACE
  8
Cylinder
 10
-0.742518
 20
1.756920
 30
-0.732861
 11
-0.671213
 21
1.756920
 31
-1.134025
 12
-0.662488
 22
1.756920
 32
-1.090162
 13
-0.662488
 23
1.756920
 33
-1.090162
 62
0
  0
3DFACE
  8
Cylinder
 10
-0.742518
 20
1.756920
 30
-0.732861
 11
-0.742518
 21
1.756920
 31
-1.535188
 12
-0.671213
 22
1.756920
 32
-1.134025
 13
-0.671213
 23
1.756920
 33
-1.134025
 62
0
  0
3DFACE
  8
Cylinder
 10
0.513742
 20
1.756919
 30
-1.028131
 11
0.557605
 21
1.756919
 31
-1.019407
 12
0.516342
 22
1.756919
 32
-0.744323
 13
0.516342
 23
1.756919
 33
-0.744323
 62
0
  0
3DFACE
  8
Cylinder
 10
0.507617
 20
1.756919
 30
-0.788186
 11
0.513742
 21
1.756919
 31
-1.028131
 12
0.516342
 22
1.756919
 32
-0.744323
 13
0.516342
 23
1.756919
 33
-0.744323
 62
0
  0
3DFACE
  8
Cylinder
 10
0.482771
 20
1.756919
 30
-0.825370
 11
0.513742
 21
1.756919
 31
-1.028131
 12
0.507617
 22
1.756919
 32
-0.788186
 13
0.507617
 23
1.756919
 33
-0.788186
 62
0
  0
3DFACE
  8
Cylinder
 10
0.476558
 20
1.756919
 30
-1.052978
 11
0.513742
 21
1.756919
 31
-1.028131
 12
0.482771
 22
1.756919
 32
-0.825370
 13
0.482771
 23
1.756919
 33
-0.825370
 62
0
  0
3DFACE
  8
Cylinder
 10
0.451711
 20
1.756919
 30
-1.090162
 11
0.476558
 21
1.756919
 31
-1.052978
 12
0.482771
 22
1.756919
 32
-0.825370
 13
0.482771
 23
1.756919
 33
-0.825370
 62
0
  0
3DFACE
  8
Cylinder
 10
0.445587
 20
1.756919
 30
-0.850217
 11
0.451711
 21
1.756919
 31
-1.090162
 12
0.482771
 22
1.756919
 32
-0.825370
 13
0.482771
 23
1.756919
 33
-0.825370
 62
0
  0
3DFACE
  8
Cylinder
 10
0.442987
 20
1.756919
 30
-1.134025
 11
0.451711
 21
1.756919
 31
-1.090162
 12
0.445587
 22
1.756919
 32
-0.850217
 13
0.445587
 23
1.756919
 33
-0.850217
 62
0
  0
3DFACE
  8
Cylinder
 10
0.401724
 20
1.756919
 30
-0.858941
 11
0.442987
 21
1.756919
 31
-1.134025
 12
0.445587
 22
1.756919
 32
-0.850217
 13
0.445587
 23
1.756919
 33
-0.850217
 62
0
  0
3DFACE
  8
Cylinder
 10
-0.294709
 20
1.756919
 30
-0.788186
 11
-0.285985
 21
1.756920
 31
-1.523727
 12
-0.285985
 22
1.756919
 32
-0.744323
 13
-0.285985
 23
1.756919
 33
-0.744323
 62
0
  0
3DFACE
  8
Cylinder
 10
-0.294710
 20
1.756920
 30
-1.479864
 11
-0.285985
 21
1.756920
 31
-1.523727
 12
-0.294709
 22
1.756919
 32
-0.788186
 13
-0.294709
 23
1.756919
 33
-0.788186
 62
0
  0
3DFACE
  8
Cylinder
 10
-0.319556
 20
1.756919
 30
-0.825370
 11
-0.294710
 21
1.756920
 31
-1.479864
 12
-0.294709
 22
1.756919
 32
-0.788186
 13
-0.294709
 23
1.756919
 33
-0.788186
 62
0
  0
3DFACE
  8
Cylinder
 10
-0.319556
 20
1.756920
 30
-1.442679
 11
-0.294710
 21
1.756920
 31
-1.479864
 12
-0.319556
 22
1.756919
 32
-0.825370
 13
-0.319556
 23
1.756919
 33
-0.825370
 62
0
  0
3DFACE
  8
Cylinder
 10
-0.356740
 20
1.756919
 30
-0.850217
 11
-0.319556
 21
1.756920
 31
-1.442679
 12
-0.319556
 22
1.756919
 32
-0.825370
 13
-0.319556
 23
1.756919
 33
-0.825370
 62
0
  0
3DFACE
  8
Cylinder
 10
-0.356740
 20
1.756920
 30
-1.417833
 11
-0.319556
 21
1.756920
 31
-1.442679
 12
-0.356740
 22
1.756919
 32
-0.850217
 13
-0.356740
 23
1.756919
 33
-0.850217
 62
0
  0
3DFACE
  8
Cylinder
 10
-0.400603
 20
1.756919
 30
-0.858941
 11
-0.356740
 21
1.756920
 31
-1.417833
 12
-0.356740
 22
1.756919
 32
-0.850217
 13
-0.356740
 23
1.756919
 33
-0.850217
 62
0
  0
3DFACE
  8
Cylinder
 10
-0.400603
 20
1.756920
 30
-1.409108
 11
-0.356740
 21
1.756920
 31
-1.417833
 12
-0.400603
 22
1.756919
 32
-0.858941
 13
-0.400603
 23
1.756919
 33
-0.858941
 62
0
  0
3DFACE
  8
Cylinder
 10
-0.441977
 20
1.756920
 30
-1.134025
 11
-0.400603
 21
1.756920
 31
-1.409108
 12
-0.400603
 22
1.756919
 32
-0.858941
 13
-0.400603
 23
1.756919
 33
-0.858941
 62
0
  0
3DFACE
  8
Cylinder
 10
-0.444465
 20
1.756919
 30
-0.850217
 11
-0.441977
 21
1.756920
 31
-1.134025
 12
-0.400603
 22
1.756919
 32
-0.858941
 13
-0.400603
 23
1.756919
 33
-0.858941
 62
0
  0
3DFACE
  8
Cylinder
 10
-0.450701
 20
1.756920
 30
-1.090162
 11
-0.441977
 21
1.756920
 31
-1.134025
 12
-0.444465
 22
1.756919
 32
-0.850217
 13
-0.444465
 23
1.756919
 33
-0.850217
 62
0
  0
3DFACE
  8
Cylinder
 10
-0.475548
 20
1.756920
 30
-1.052978
 11
-0.450701
 21
1.756920
 31
-1.090162
 12
-0.444465
 22
1.756919
 32
-0.850217
 13
-0.444465
 23
1.756919
 33
-0.850217
 62
0
  0
3DFACE
  8
Cylinder
 10
-0.481650
 20
1.756919
 30
-0.825370
 11
-0.475548
 21
1.756920
 31
-1.052978
 12
-0.444465
 22
1.756919
 32
-0.850217
 13
-0.444465
 23
1.756919
 33
-0.850217
 62
0
  0
3DFACE
  8
Cylinder
 10
-0.506496
 20
1.756919
 30
-0.788186
 11
-0.475548
 21
1.756920
 31
-1.052978
 12
-0.481650
 22
1.756919
 32
-0.825370
 13
-0.481650
 23
1.756919
 33
-0.825370
 62
0
  0
3DFACE
  8
Cylinder
 10
-0.512732
 20
1.756920
 30
-1.028131
 11
-0.475548
 21
1.756920
 31
-1.052978
 12
-0.506496
 22
1.756919
 32
-0.788186
 13
-0.506496
 23
1.756919
 33
-0.788186
 62
0
  0
3DFACE
  8
Cylinder
 10
-0.515221
 20
1.756919
 30
-0.744323
 11
-0.512732
 21
1.756920
 31
-1.028131
 12
-0.506496
 22
1.756919
 32
-0.788186
 13
-0.506496
 23
1.756919
 33
-0.788186
 62
0
  0
3DFACE
  8
Cylinder
 10
-0.556595
 20
1.756920
 30
-1.019407
 11
-0.512732
 21
1.756920
 31
-1.028131
 12
-0.515221
 22
1.756919
 32
-0.744323
 13
-0.515221
 23
1.756919
 33
-0.744323
 62
0
  0
3DFACE
  8
Cylinder
 10
-0.444465
 20
1.756920
 30
-1.417833
 11
-0.400603
 21
1.756920
 31
-1.409108
 12
-0.441977
 22
1.756920
 32
-1.134025
 13
-0.441977
 23
1.756920
 33
-1.134025
 62
0
  0
3DFACE
  8
Cylinder
 10
-0.450701
 20
1.756920
 30
-1.177887
 11
-0.444465
 21
1.756920
 31
-1.417833
 12
-0.441977
 22
1.756920
 32
-1.134025
 13
-0.441977
 23
1.756920
 33
-1.134025
 62
0
  0
3DFACE
  8
Cylinder
 10
-0.475548
 20
1.756920
 30
-1.215072
 11
-0.444465
 21
1.756920
 31
-1.417833
 12
-0.450701
 22
1.756920
 32
-1.177887
 13
-0.450701
 23
1.756920
 33
-1.177887
 62
0
  0
3DFACE
  8
Cylinder
 10
-0.481650
 20
1.756920
 30
-1.442679
 11
-0.444465
 21
1.756920
 31
-1.417833
 12
-0.475548
 22
1.756920
 32
-1.215072
 13
-0.475548
 23
1.756920
 33
-1.215072
 62
0
  0
3DFACE
  8
Cylinder
 10
-0.506496
 20
1.756920
 30
-1.479864
 11
-0.481650
 21
1.756920
 31
-1.442679
 12
-0.475548
 22
1.756920
 32
-1.215072
 13
-0.475548
 23
1.756920
 33
-1.215072
 62
0
  0
3DFACE
  8
Cylinder
 10
-0.512732
 20
1.756920
 30
-1.239918
 11
-0.506496
 21
1.756920
 31
-1.479864
 12
-0.475548
 22
1.756920
 32
-1.215072
 13
-0.475548
 23
1.756920
 33
-1.215072
 62
0
  0
3DFACE
  8
Cylinder
 10
-0.515221
 20
1.756920
 30
-1.523727
 11
-0.506496
 21
1.756920
 31
-1.479864
 12
-0.512732
 22
1.756920
 32
-1.239918
 13
-0.512732
 23
1.756920
 33
-1.239918
 62
0
  0
3DFACE
  8
Cylinder
 10
-0.556595
 20
1.756920
 30
-1.248643
 11
-0.515221
 21
1.756920
 31
-1.523727
 12
-0.512732
 22
1.756920
 32
-1.239918
 13
-0.512732
 23
1.756920
 33
-1.239918
 62
0
  0
3DFACE
  8
Cylinder
 10
0.000561
 20
-1.409925
 30
-0.322760
 11
0.743640
 21
-1.409925
 31
-0.732860
 12
0.000562
 22
-1.819685
 32
-1.129571
 13
0.000562
 23
-1.819685
 33
-1.129571
 62
0
  0
3DFACE
  8
Cylinder
 10
0.000561
 20
-1.409925
 30
-1.945289
 11
-0.742516
 21
-1.409924
 31
-1.535187
 12
0.000562
 22
-1.819685
 32
-1.129571
 13
0.000562
 23
-1.819685
 33
-1.129571
 62
0
  0
3DFACE
  8
Cylinder
 10
0.000561
 20
-1.409925
 30
-0.322760
 11
0.000562
 21
-1.819685
 31
-1.129571
 12
-0.742517
 22
-1.409925
 32
-0.732860
 13
-0.742517
 23
-1.409925
 33
-0.732860
 62
0
  0
3DFACE
  8
Cylinder
 10
0.000561
 20
-1.409925
 30
-1.945289
 11
0.000562
 21
-1.819685
 31
-1.129571
 12
0.743640
 22
-1.409925
 32
-1.535187
 13
0.743640
 23
-1.409925
 33
-1.535187
 62
0
  0
3DFACE
  8
Cylinder
 10
0.743640
 20
-1.409925
 30
-0.732860
 11
0.743640
 21
-1.409925
 31
-1.535187
 12
0.000562
 22
-1.819685
 32
-1.129571
 13
0.000562
 23
-1.819685
 33
-1.129571
 62
0
  0
3DFACE
  8
Cylinder
 10
-0.105332
 20
0.014206
 30
-1.739516
 11
-0.114057
 21
0.014206
 31
-1.695653
 12
-0.114057
 22
1.756920
 32
-1.695654
 13
-0.105333
 23
1.756920
 33
-1.739516
 62
0
  0
3DFACE
  8
Cylinder
 10
-0.080486
 20
0.014206
 30
-1.776700
 11
-0.105332
 21
0.014206
 31
-1.739516
 12
-0.105333
 22
1.756920
 32
-1.739516
 13
-0.080487
 23
1.756920
 33
-1.776701
 62
0
  0
3DFACE
  8
Cylinder
 10
-0.043301
 20
0.014206
 30
-1.801546
 11
-0.080486
 21
0.014206
 31
-1.776700
 12
-0.080487
 22
1.756920
 32
-1.776701
 13
-0.043302
 23
1.756920
 33
-1.801547
 62
0
  0
3DFACE
  8
Cylinder
 10
0.000561
 20
0.014206
 30
-1.810271
 11
-0.043301
 21
0.014206
 31
-1.801546
 12
-0.043302
 22
1.756920
 32
-1.801547
 13
0.000561
 23
1.756920
 33
-1.810272
 62
0
  0
3DFACE
  8
Cylinder
 10
-0.043301
 20
0.014206
 30
-1.589760
 11
0.000561
 21
0.014206
 31
-1.581035
 12
0.000561
 22
1.756920
 32
-1.581036
 13
-0.043302
 23
1.756920
 33
-1.589760
 62
0
  0
3DFACE
  8
Cylinder
 10
-0.080486
 20
0.014206
 30
-1.614606
 11
-0.043301
 21
0.014206
 31
-1.589760
 12
-0.043302
 22
1.756920
 32
-1.589760
 13
-0.080487
 23
1.756920
 33
-1.614606
 62
0
  0
3DFACE
  8
Cylinder
 10
-0.105332
 20
0.014206
 30
-1.651791
 11
-0.080486
 21
0.014206
 31
-1.614606
 12
-0.080487
 22
1.756920
 32
-1.614606
 13
-0.105333
 23
1.756920
 33
-1.651791
 62
0
  0
3DFACE
  8
Cylinder
 10
-0.114057
 20
0.014206
 30
-1.695653
 11
-0.105332
 21
0.014206
 31
-1.651791
 12
-0.105333
 22
1.756920
 32
-1.651791
 13
-0.114057
 23
1.756920
 33
-1.695654
 62
0
  0
3DFACE
  8
Cylinder
 10
0.106454
 20
0.014206
 30
-1.651791
 11
0.106454
 21
0.014206
 31
-1.739516
 12
0.115179
 22
0.014206
 32
-1.695653
 13
0.115179
 23
0.014206
 33
-1.695653
 62
0
  0
3DFACE
  8
Cylinder
 10
0.081608
 20
0.014206
 30
-1.776700
 11
0.106454
 21
0.014206
 31
-1.739516
 12
0.106454
 22
0.014206
 32
-1.651791
 13
0.106454
 23
0.014206
 33
-1.651791
 62
0
  0
3DFACE
  8
Cylinder
 10
0.081608
 20
0.014206
 30
-1.614606
 11
0.081608
 21
0.014206
 31
-1.776700
 12
0.106454
 22
0.014206
 32
-1.651791
 13
0.106454
 23
0.014206
 33
-1.651791
 62
0
  0
3DFACE
  8
Cylinder
 10
0.044424
 20
0.014206
 30
-1.589760
 11
0.081608
 21
0.014206
 31
-1.776700
 12
0.081608
 22
0.014206
 32
-1.614606
 13
0.081608
 23
0.014206
 33
-1.614606
 62
0
  0
3DFACE
  8
Cylinder
 10
0.044424
 20
0.014206
 30
-1.801546
 11
0.081608
 21
0.014206
 31
-1.776700
 12
0.044424
 22
0.014206
 32
-1.589760
 13
0.044424
 23
0.014206
 33
-1.589760
 62
0
  0
3DFACE
  8
Cylinder
 10
0.000561
 20
0.014206
 30
-1.581035
 11
0.044424
 21
0.014206
 31
-1.801546
 12
0.044424
 22
0.014206
 32
-1.589760
 13
0.044424
 23
0.014206
 33
-1.589760
 62
0
  0
3DFACE
  8
Cylinder
 10
0.000561
 20
0.014206
 30
-1.810271
 11
0.044424
 21
0.014206
 31
-1.801546
 12
0.000561
 22
0.014206
 32
-1.581035
 13
0.000561
 23
0.014206
 33
-1.581035
 62
0
  0
3DFACE
  8
Cylinder
 10
-0.043301
 20
0.014206
 30
-1.589760
 11
0.000561
 21
0.014206
 31
-1.810271
 12
0.000561
 22
0.014206
 32
-1.581035
 13
0.000561
 23
0.014206
 33
-1.581035
 62
0
  0
3DFACE
  8
Cylinder
 10
-0.043301
 20
0.014206
 30
-1.801546
 11
0.000561
 21
0.014206
 31
-1.810271
 12
-0.043301
 22
0.014206
 32
-1.589760
 13
-0.043301
 23
0.014206
 33
-1.589760
 62
0
  0
3DFACE
  8
Cylinder
 10
-0.080486
 20
0.014206
 30
-1.776700
 11
-0.043301
 21
0.014206
 31
-1.801546
 12
-0.043301
 22
0.014206
 32
-1.589760
 13
-0.043301
 23
0.014206
 33
-1.589760
 62
0
  0
3DFACE
  8
Cylinder
 10
-0.080486
 20
0.014206
 30
-1.614606
 11
-0.080486
 21
0.014206
 31
-1.776700
 12
-0.043301
 22
0.014206
 32
-1.589760
 13
-0.043301
 23
0.014206
 33
-1.589760
 62
0
  0
3DFACE
  8
Cylinder
 10
-0.105332
 20
0.014206
 30
-1.739516
 11
-0.080486
 21
0.014206
 31
-1.776700
 12
-0.080486
 22
0.014206
 32
-1.614606
 13
-0.080486
 23
0.014206
 33
-1.614606
 62
0
  0
3DFACE
  8
Cylinder
 10
-0.105332
 20
0.014206
 30
-1.651791
 11
-0.105332
 21
0.014206
 31
-1.739516
 12
-0.080486
 22
0.014206
 32
-1.614606
 13
-0.080486
 23
0.014206
 33
-1.614606
 62
0
  0
3DFACE
  8
Cylinder
 10
-0.114057
 20
0.014206
 30
-1.695653
 11
-0.105332
 21
0.014206
 31
-1.739516
 12
-0.105332
 22
0.014206
 32
-1.651791
 13
-0.105332
 23
0.014206
 33
-1.651791
 62
0
  0
3DFACE
  8
Cylinder
 10
0.044424
 20
0.014206
 30
-1.589760
 11
0.081608
 21
0.014206
 31
-1.614606
 12
0.081608
 22
1.756920
 32
-1.614606
 13
0.044423
 23
1.756920
 33
-1.589760
 62
0
  0
3DFACE
  8
Cylinder
 10
0.000561
 20
0.014206
 30
-1.581035
 11
0.044424
 21
0.014206
 31
-1.589760
 12
0.044423
 22
1.756920
 32
-1.589760
 13
0.000561
 23
1.756920
 33
-1.581036
 62
0
  0
3DFACE
  8
Cylinder
 10
0.081608
 20
0.014206
 30
-1.614606
 11
0.106454
 21
0.014206
 31
-1.651791
 12
0.106454
 22
1.756920
 32
-1.651791
 13
0.081608
 23
1.756920
 33
-1.614606
 62
0
  0
3DFACE
  8
Cylinder
 10
0.106454
 20
0.014206
 30
-1.651791
 11
0.115179
 21
0.014206
 31
-1.695653
 12
0.115179
 22
1.756920
 32
-1.695654
 13
0.106454
 23
1.756920
 33
-1.651791
 62
0
  0
3DFACE
  8
Cylinder
 10
0.115179
 20
0.014206
 30
-1.695653
 11
0.106454
 21
0.014206
 31
-1.739516
 12
0.106454
 22
1.756920
 32
-1.739516
 13
0.115179
 23
1.756920
 33
-1.695654
 62
0
  0
3DFACE
  8
Cylinder
 10
0.106454
 20
0.014206
 30
-1.739516
 11
0.081608
 21
0.014206
 31
-1.776700
 12
0.081608
 22
1.756920
 32
-1.776701
 13
0.106454
 23
1.756920
 33
-1.739516
 62
0
  0
3DFACE
  8
Cylinder
 10
0.081608
 20
0.014206
 30
-1.776700
 11
0.044424
 21
0.014206
 31
-1.801546
 12
0.044423
 22
1.756920
 32
-1.801547
 13
0.081608
 23
1.756920
 33
-1.776701
 62
0
  0
3DFACE
  8
Cylinder
 10
0.044424
 20
0.014206
 30
-1.801546
 11
0.000561
 21
0.014206
 31
-1.810271
 12
0.000561
 22
1.756920
 32
-1.810272
 13
0.044423
 23
1.756920
 33
-1.801547
 62
0
  0
3DFACE
  8
Cylinder
 10
0.295831
 20
0.014205
 30
-1.567584
 11
0.287106
 21
0.014205
 31
-1.523722
 12
0.287106
 22
1.756920
 32
-1.523722
 13
0.295831
 23
1.756920
 33
-1.567585
 62
0
  0
3DFACE
  8
Cylinder
 10
0.320677
 20
0.014205
 30
-1.604769
 11
0.295831
 21
0.014205
 31
-1.567584
 12
0.295831
 22
1.756920
 32
-1.567585
 13
0.320677
 23
1.756920
 33
-1.604770
 62
0
  0
3DFACE
  8
Cylinder
 10
0.357862
 20
0.014205
 30
-1.629615
 11
0.320677
 21
0.014205
 31
-1.604769
 12
0.320677
 22
1.756920
 32
-1.604770
 13
0.357862
 23
1.756920
 33
-1.629616
 62
0
  0
3DFACE
  8
Cylinder
 10
0.401725
 20
0.014205
 30
-1.638340
 11
0.357862
 21
0.014205
 31
-1.629615
 12
0.357862
 22
1.756920
 32
-1.629616
 13
0.401724
 23
1.756920
 33
-1.638341
 62
0
  0
3DFACE
  8
Cylinder
 10
0.357862
 20
0.014205
 30
-1.417828
 11
0.401725
 21
0.014205
 31
-1.409104
 12
0.401724
 22
1.756919
 32
-1.409104
 13
0.357862
 23
1.756919
 33
-1.417829
 62
0
  0
3DFACE
  8
Cylinder
 10
0.320677
 20
0.014205
 30
-1.442674
 11
0.357862
 21
0.014205
 31
-1.417828
 12
0.357862
 22
1.756919
 32
-1.417829
 13
0.320677
 23
1.756920
 33
-1.442675
 62
0
  0
3DFACE
  8
Cylinder
 10
0.295831
 20
0.014205
 30
-1.479859
 11
0.320677
 21
0.014205
 31
-1.442674
 12
0.320677
 22
1.756920
 32
-1.442675
 13
0.295831
 23
1.756920
 33
-1.479860
 62
0
  0
3DFACE
  8
Cylinder
 10
0.287106
 20
0.014205
 30
-1.523722
 11
0.295831
 21
0.014205
 31
-1.479859
 12
0.295831
 22
1.756920
 32
-1.479860
 13
0.287106
 23
1.756920
 33
-1.523722
 62
0
  0
3DFACE
  8
Cylinder
 10
0.507618
 20
0.014205
 30
-1.479859
 11
0.507618
 21
0.014205
 31
-1.567584
 12
0.516343
 22
0.014205
 32
-1.523722
 13
0.516343
 23
0.014205
 33
-1.523722
 62
0
  0
3DFACE
  8
Cylinder
 10
0.482772
 20
0.014205
 30
-1.604769
 11
0.507618
 21
0.014205
 31
-1.567584
 12
0.507618
 22
0.014205
 32
-1.479859
 13
0.507618
 23
0.014205
 33
-1.479859
 62
0
  0
3DFACE
  8
Cylinder
 10
0.482772
 20
0.014205
 30
-1.442674
 11
0.482772
 21
0.014205
 31
-1.604769
 12
0.507618
 22
0.014205
 32
-1.479859
 13
0.507618
 23
0.014205
 33
-1.479859
 62
0
  0
3DFACE
  8
Cylinder
 10
0.445587
 20
0.014205
 30
-1.417828
 11
0.482772
 21
0.014205
 31
-1.604769
 12
0.482772
 22
0.014205
 32
-1.442674
 13
0.482772
 23
0.014205
 33
-1.442674
 62
0
  0
3DFACE
  8
Cylinder
 10
0.445587
 20
0.014205
 30
-1.629615
 11
0.482772
 21
0.014205
 31
-1.604769
 12
0.445587
 22
0.014205
 32
-1.417828
 13
0.445587
 23
0.014205
 33
-1.417828
 62
0
  0
3DFACE
  8
Cylinder
 10
0.401725
 20
0.014205
 30
-1.638340
 11
0.445587
 21
0.014205
 31
-1.629615
 12
0.445587
 22
0.014205
 32
-1.417828
 13
0.445587
 23
0.014205
 33
-1.417828
 62
0
  0
3DFACE
  8
Cylinder
 10
0.401725
 20
0.014205
 30
-1.409104
 11
0.401725
 21
0.014205
 31
-1.638340
 12
0.445587
 22
0.014205
 32
-1.417828
 13
0.445587
 23
0.014205
 33
-1.417828
 62
0
  0
3DFACE
  8
Cylinder
 10
0.357862
 20
0.014205
 30
-1.629615
 11
0.401725
 21
0.014205
 31
-1.638340
 12
0.401725
 22
0.014205
 32
-1.409104
 13
0.401725
 23
0.014205
 33
-1.409104
 62
0
  0
3DFACE
  8
Cylinder
 10
0.357862
 20
0.014205
 30
-1.417828
 11
0.357862
 21
0.014205
 31
-1.629615
 12
0.401725
 22
0.014205
 32
-1.409104
 13
0.401725
 23
0.014205
 33
-1.409104
 62
0
  0
3DFACE
  8
Cylinder
 10
0.320677
 20
0.014205
 30
-1.604769
 11
0.357862
 21
0.014205
 31
-1.629615
 12
0.357862
 22
0.014205
 32
-1.417828
 13
0.357862
 23
0.014205
 33
-1.417828
 62
0
  0
3DFACE
  8
Cylinder
 10
0.320677
 20
0.014205
 30
-1.442674
 11
0.320677
 21
0.014205
 31
-1.604769
 12
0.357862
 22
0.014205
 32
-1.417828
 13
0.357862
 23
0.014205
 33
-1.417828
 62
0
  0
3DFACE
  8
Cylinder
 10
0.295831
 20
0.014205
 30
-1.567584
 11
0.320677
 21
0.014205
 31
-1.604769
 12
0.320677
 22
0.014205
 32
-1.442674
 13
0.320677
 23
0.014205
 33
-1.442674
 62
0
  0
3DFACE
  8
Cylinder
 10
0.295831
 20
0.014205
 30
-1.479859
 11
0.295831
 21
0.014205
 31
-1.567584
 12
0.320677
 22
0.014205
 32
-1.442674
 13
0.320677
 23
0.014205
 33
-1.442674
 62
0
  0
3DFACE
  8
Cylinder
 10
0.287106
 20
0.014205
 30
-1.523722
 11
0.295831
 21
0.014205
 31
-1.567584
 12
0.295831
 22
0.014205
 32
-1.479859
 13
0.295831
 23
0.014205
 33
-1.479859
 62
0
  0
3DFACE
  8
Cylinder
 10
0.445587
 20
0.014205
 30
-1.417828
 11
0.482772
 21
0.014205
 31
-1.442674
 12
0.482771
 22
1.756919
 32
-1.442675
 13
0.445587
 23
1.756919
 33
-1.417829
 62
0
  0
3DFACE
  8
Cylinder
 10
0.401725
 20
0.014205
 30
-1.409104
 11
0.445587
 21
0.014205
 31
-1.417828
 12
0.445587
 22
1.756919
 32
-1.417829
 13
0.401724
 23
1.756919
 33
-1.409104
 62
0
  0
3DFACE
  8
Cylinder
 10
0.482772
 20
0.014205
 30
-1.442674
 11
0.507618
 21
0.014205
 31
-1.479859
 12
0.507617
 22
1.756919
 32
-1.479860
 13
0.482771
 23
1.756919
 33
-1.442675
 62
0
  0
3DFACE
  8
Cylinder
 10
0.507618
 20
0.014205
 30
-1.479859
 11
0.516343
 21
0.014205
 31
-1.523722
 12
0.516342
 22
1.756919
 32
-1.523722
 13
0.507617
 23
1.756919
 33
-1.479860
 62
0
  0
3DFACE
  8
Cylinder
 10
0.516343
 20
0.014205
 30
-1.523722
 11
0.507618
 21
0.014205
 31
-1.567584
 12
0.507617
 22
1.756920
 32
-1.567585
 13
0.516342
 23
1.756919
 33
-1.523722
 62
0
  0
3DFACE
  8
Cylinder
 10
0.507618
 20
0.014205
 30
-1.567584
 11
0.482772
 21
0.014205
 31
-1.604769
 12
0.482771
 22
1.756920
 32
-1.604770
 13
0.507617
 23
1.756920
 33
-1.567585
 62
0
  0
3DFACE
  8
Cylinder
 10
0.482772
 20
0.014205
 30
-1.604769
 11
0.445587
 21
0.014205
 31
-1.629615
 12
0.445587
 22
1.756920
 32
-1.629616
 13
0.482771
 23
1.756920
 33
-1.604770
 62
0
  0
3DFACE
  8
Cylinder
 10
0.445587
 20
0.014205
 30
-1.629615
 11
0.401725
 21
0.014205
 31
-1.638340
 12
0.401724
 22
1.756920
 32
-1.638341
 13
0.445587
 23
1.756920
 33
-1.629616
 62
0
  0
3DFACE
  8
Cylinder
 10
-0.506496
 20
0.014206
 30
-1.567588
 11
-0.515221
 21
0.014205
 31
-1.523726
 12
-0.515221
 22
1.756920
 32
-1.523727
 13
-0.506496
 23
1.756920
 33
-1.567589
 62
0
  0
3DFACE
  8
Cylinder
 10
-0.481650
 20
0.014206
 30
-1.604773
 11
-0.506496
 21
0.014206
 31
-1.567588
 12
-0.506496
 22
1.756920
 32
-1.567589
 13
-0.481650
 23
1.756920
 33
-1.604774
 62
0
  0
3DFACE
  8
Cylinder
 10
-0.444465
 20
0.014206
 30
-1.629619
 11
-0.481650
 21
0.014206
 31
-1.604773
 12
-0.481650
 22
1.756920
 32
-1.604774
 13
-0.444465
 23
1.756920
 33
-1.629620
 62
0
  0
3DFACE
  8
Cylinder
 10
-0.400602
 20
0.014206
 30
-1.638344
 11
-0.444465
 21
0.014206
 31
-1.629619
 12
-0.444465
 22
1.756920
 32
-1.629620
 13
-0.400603
 23
1.756920
 33
-1.638345
 62
0
  0
3DFACE
  8
Cylinder
 10
-0.444465
 20
0.014205
 30
-1.417832
 11
-0.400602
 21
0.014205
 31
-1.409108
 12
-0.400603
 22
1.756920
 32
-1.409108
 13
-0.444465
 23
1.756920
 33
-1.417833
 62
0
  0
3DFACE
  8
Cylinder
 10
-0.481650
 20
0.014205
 30
-1.442679
 11
-0.444465
 21
0.014205
 31
-1.417832
 12
-0.444465
 22
1.756920
 32
-1.417833
 13
-0.481650
 23
1.756920
 33
-1.442679
 62
0
  0
3DFACE
  8
Cylinder
 10
-0.506496
 20
0.014205
 30
-1.479863
 11
-0.481650
 21
0.014205
 31
-1.442679
 12
-0.481650
 22
1.756920
 32
-1.442679
 13
-0.506496
 23
1.756920
 33
-1.479864
 62
0
  0
3DFACE
  8
Cylinder
 10
-0.515221
 20
0.014205
 30
-1.523726
 11
-0.506496
 21
0.014205
 31
-1.479863
 12
-0.506496
 22
1.756920
 32
-1.479864
 13
-0.515221
 23
1.756920
 33
-1.523727
 62
0
  0
3DFACE
  8
Cylinder
 10
-0.294709
 20
0.014205
 30
-1.479863
 11
-0.294709
 21
0.014205
 31
-1.567588
 12
-0.285984
 22
0.014205
 32
-1.523726
 13
-0.285984
 23
0.014205
 33
-1.523726
 62
0
  0
3DFACE
  8
Cylinder
 10
-0.319555
 20
0.014205
 30
-1.604773
 11
-0.294709
 21
0.014205
 31
-1.567588
 12
-0.294709
 22
0.014205
 32
-1.479863
 13
-0.294709
 23
0.014205
 33
-1.479863
 62
0
  0
3DFACE
  8
Cylinder
 10
-0.319555
 20
0.014205
 30
-1.442679
 11
-0.319555
 21
0.014205
 31
-1.604773
 12
-0.294709
 22
0.014205
 32
-1.479863
 13
-0.294709
 23
0.014205
 33
-1.479863
 62
0
  0
3DFACE
  8
Cylinder
 10
-0.356740
 20
0.014205
 30
-1.629619
 11
-0.319555
 21
0.014205
 31
-1.604773
 12
-0.319555
 22
0.014205
 32
-1.442679
 13
-0.319555
 23
0.014205
 33
-1.442679
 62
0
  0
3DFACE
  8
Cylinder
 10
-0.356740
 20
0.014205
 30
-1.417832
 11
-0.356740
 21
0.014205
 31
-1.629619
 12
-0.319555
 22
0.014205
 32
-1.442679
 13
-0.319555
 23
0.014205
 33
-1.442679
 62
0
  0
3DFACE
  8
Cylinder
 10
-0.400602
 20
0.014206
 30
-1.638344
 11
-0.356740
 21
0.014205
 31
-1.629619
 12
-0.356740
 22
0.014205
 32
-1.417832
 13
-0.356740
 23
0.014205
 33
-1.417832
 62
0
  0
3DFACE
  8
Cylinder
 10
-0.400602
 20
0.014205
 30
-1.409108
 11
-0.400602
 21
0.014206
 31
-1.638344
 12
-0.356740
 22
0.014205
 32
-1.417832
 13
-0.356740
 23
0.014205
 33
-1.417832
 62
0
  0
3DFACE
  8
Cylinder
 10
-0.444465
 20
0.014206
 30
-1.629619
 11
-0.400602
 21
0.014206
 31
-1.638344
 12
-0.400602
 22
0.014205
 32
-1.409108
 13
-0.400602
 23
0.014205
 33
-1.409108
 62
0
  0
3DFACE
  8
Cylinder
 10
-0.444465
 20
0.014205
 30
-1.417832
 11
-0.444465
 21
0.014206
 31
-1.629619
 12
-0.400602
 22
0.014205
 32
-1.409108
 13
-0.400602
 23
0.014205
 33
-1.409108
 62
0
  0
3DFACE
  8
Cylinder
 10
-0.481650
 20
0.014206
 30
-1.604773
 11
-0.444465
 21
0.014206
 31
-1.629619
 12
-0.444465
 22
0.014205
 32
-1.417832
 13
-0.444465
 23
0.014205
 33
-1.417832
 62
0
  0
3DFACE
  8
Cylinder
 10
-0.481650
 20
0.014205
 30
-1.442679
 11
-0.481650
 21
0.014206
 31
-1.604773
 12
-0.444465
 22
0.014205
 32
-1.417832
 13
-0.444465
 23
0.014205
 33
-1.417832
 62
0
  0
3DFACE
  8
Cylinder
 10
-0.506496
 20
0.014206
 30
-1.567588
 11
-0.481650
 21
0.014206
 31
-1.604773
 12
-0.481650
 22
0.014205
 32
-1.442679
 13
-0.481650
 23
0.014205
 33
-1.442679
 62
0
  0
3DFACE
  8
Cylinder
 10
-0.506496
 20
0.014205
 30
-1.479863
 11
-0.506496
 21
0.014206
 31
-1.567588
 12
-0.481650
 22
0.014205
 32
-1.442679
 13
-0.481650
 23
0.014205
 33
-1.442679
 62
0
  0
3DFACE
  8
Cylinder
 10
-0.515221
 20
0.014205
 30
-1.523726
 11
-0.506496
 21
0.014206
 31
-1.567588
 12
-0.506496
 22
0.014205
 32
-1.479863
 13
-0.506496
 23
0.014205
 33
-1.479863
 62
0
  0
3DFACE
  8
Cylinder
 10
-0.356740
 20
0.014205
 30
-1.417832
 11
-0.319555
 21
0.014205
 31
-1.442679
 12
-0.319556
 22
1.756920
 32
-1.442679
 13
-0.356740
 23
1.756920
 33
-1.417833
 62
0
  0
3DFACE
  8
Cylinder
 10
-0.400602
 20
0.014205
 30
-1.409108
 11
-0.356740
 21
0.014205
 31
-1.417832
 12
-0.356740
 22
1.756920
 32
-1.417833
 13
-0.400603
 23
1.756920
 33
-1.409108
 62
0
  0
3DFACE
  8
Cylinder
 10
-0.319555
 20
0.014205
 30
-1.442679
 11
-0.294709
 21
0.014205
 31
-1.479863
 12
-0.294710
 22
1.756920
 32
-1.479864
 13
-0.319556
 23
1.756920
 33
-1.442679
 62
0
  0
3DFACE
  8
Cylinder
 10
-0.294709
 20
0.014205
 30
-1.479863
 11
-0.285984
 21
0.014205
 31
-1.523726
 12
-0.285985
 22
1.756920
 32
-1.523727
 13
-0.294710
 23
1.756920
 33
-1.479864
 62
0
  0
3DFACE
  8
Cylinder
 10
-0.285984
 20
0.014205
 30
-1.523726
 11
-0.294709
 21
0.014205
 31
-1.567588
 12
-0.294710
 22
1.756920
 32
-1.567589
 13
-0.285985
 23
1.756920
 33
-1.523727
 62
0
  0
3DFACE
  8
Cylinder
 10
-0.294709
 20
0.014205
 30
-1.567588
 11
-0.319555
 21
0.014205
 31
-1.604773
 12
-0.319556
 22
1.756920
 32
-1.604774
 13
-0.294710
 23
1.756920
 33
-1.567589
 62
0
  0
3DFACE
  8
Cylinder
 10
-0.319555
 20
0.014205
 30
-1.604773
 11
-0.356740
 21
0.014205
 31
-1.629619
 12
-0.356740
 22
1.756920
 32
-1.629620
 13
-0.319556
 23
1.756920
 33
-1.604774
 62
0
  0
3DFACE
  8
Cylinder
 10
-0.356740
 20
0.014205
 30
-1.629619
 11
-0.400602
 21
0.014206
 31
-1.638344
 12
-0.400603
 22
1.756920
 32
-1.638345
 13
-0.356740
 23
1.756920
 33
-1.629620
 62
0
  0
3DFACE
  8
Cylinder
 10
0.451712
 20
0.014205
 30
-1.177887
 11
0.442987
 21
0.014205
 31
-1.134024
 12
0.442987
 22
1.756919
 32
-1.134025
 13
0.451711
 23
1.756919
 33
-1.177887
 62
0
  0
3DFACE
  8
Cylinder
 10
0.476558
 20
0.014205
 30
-1.215071
 11
0.451712
 21
0.014205
 31
-1.177887
 12
0.451711
 22
1.756919
 32
-1.177887
 13
0.476558
 23
1.756919
 33
-1.215072
 62
0
  0
3DFACE
  8
Cylinder
 10
0.513743
 20
0.014205
 30
-1.239918
 11
0.476558
 21
0.014205
 31
-1.215071
 12
0.476558
 22
1.756919
 32
-1.215072
 13
0.513742
 23
1.756919
 33
-1.239918
 62
0
  0
3DFACE
  8
Cylinder
 10
0.557605
 20
0.014205
 30
-1.248642
 11
0.513743
 21
0.014205
 31
-1.239918
 12
0.513742
 22
1.756919
 32
-1.239918
 13
0.557605
 23
1.756919
 33
-1.248643
 62
0
  0
3DFACE
  8
Cylinder
 10
0.513743
 20
0.014205
 30
-1.028131
 11
0.557605
 21
0.014205
 31
-1.019406
 12
0.557605
 22
1.756919
 32
-1.019407
 13
0.513742
 23
1.756919
 33
-1.028131
 62
0
  0
3DFACE
  8
Cylinder
 10
0.476558
 20
0.014205
 30
-1.052977
 11
0.513743
 21
0.014205
 31
-1.028131
 12
0.513742
 22
1.756919
 32
-1.028131
 13
0.476558
 23
1.756919
 33
-1.052978
 62
0
  0
3DFACE
  8
Cylinder
 10
0.451712
 20
0.014205
 30
-1.090162
 11
0.476558
 21
0.014205
 31
-1.052977
 12
0.476558
 22
1.756919
 32
-1.052978
 13
0.451711
 23
1.756919
 33
-1.090162
 62
0
  0
3DFACE
  8
Cylinder
 10
0.442987
 20
0.014205
 30
-1.134024
 11
0.451712
 21
0.014205
 31
-1.090162
 12
0.451711
 22
1.756919
 32
-1.090162
 13
0.442987
 23
1.756919
 33
-1.134025
 62
0
  0
3DFACE
  8
Cylinder
 10
0.663499
 20
0.014205
 30
-1.090162
 11
0.663499
 21
0.014205
 31
-1.177887
 12
0.672223
 22
0.014205
 32
-1.134024
 13
0.672223
 23
0.014205
 33
-1.134024
 62
0
  0
3DFACE
  8
Cylinder
 10
0.638653
 20
0.014205
 30
-1.215071
 11
0.663499
 21
0.014205
 31
-1.177887
 12
0.663499
 22
0.014205
 32
-1.090162
 13
0.663499
 23
0.014205
 33
-1.090162
 62
0
  0
3DFACE
  8
Cylinder
 10
0.638653
 20
0.014205
 30
-1.052977
 11
0.638653
 21
0.014205
 31
-1.215071
 12
0.663499
 22
0.014205
 32
-1.090162
 13
0.663499
 23
0.014205
 33
-1.090162
 62
0
  0
3DFACE
  8
Cylinder
 10
0.601468
 20
0.014205
 30
-1.239918
 11
0.638653
 21
0.014205
 31
-1.215071
 12
0.638653
 22
0.014205
 32
-1.052977
 13
0.638653
 23
0.014205
 33
-1.052977
 62
0
  0
3DFACE
  8
Cylinder
 10
0.601468
 20
0.014205
 30
-1.028131
 11
0.601468
 21
0.014205
 31
-1.239918
 12
0.638653
 22
0.014205
 32
-1.052977
 13
0.638653
 23
0.014205
 33
-1.052977
 62
0
  0
3DFACE
  8
Cylinder
 10
0.557605
 20
0.014205
 30
-1.248642
 11
0.601468
 21
0.014205
 31
-1.239918
 12
0.601468
 22
0.014205
 32
-1.028131
 13
0.601468
 23
0.014205
 33
-1.028131
 62
0
  0
3DFACE
  8
Cylinder
 10
0.557605
 20
0.014205
 30
-1.019406
 11
0.557605
 21
0.014205
 31
-1.248642
 12
0.601468
 22
0.014205
 32
-1.028131
 13
0.601468
 23
0.014205
 33
-1.028131
 62
0
  0
3DFACE
  8
Cylinder
 10
0.513743
 20
0.014205
 30
-1.239918
 11
0.557605
 21
0.014205
 31
-1.248642
 12
0.557605
 22
0.014205
 32
-1.019406
 13
0.557605
 23
0.014205
 33
-1.019406
 62
0
  0
3DFACE
  8
Cylinder
 10
0.513743
 20
0.014205
 30
-1.028131
 11
0.513743
 21
0.014205
 31
-1.239918
 12
0.557605
 22
0.014205
 32
-1.019406
 13
0.557605
 23
0.014205
 33
-1.019406
 62
0
  0
3DFACE
  8
Cylinder
 10
0.476558
 20
0.014205
 30
-1.215071
 11
0.513743
 21
0.014205
 31
-1.239918
 12
0.513743
 22
0.014205
 32
-1.028131
 13
0.513743
 23
0.014205
 33
-1.028131
 62
0
  0
3DFACE
  8
Cylinder
 10
0.476558
 20
0.014205
 30
-1.052977
 11
0.476558
 21
0.014205
 31
-1.215071
 12
0.513743
 22
0.014205
 32
-1.028131
 13
0.513743
 23
0.014205
 33
-1.028131
 62
0
  0
3DFACE
  8
Cylinder
 10
0.451712
 20
0.014205
 30
-1.177887
 11
0.476558
 21
0.014205
 31
-1.215071
 12
0.476558
 22
0.014205
 32
-1.052977
 13
0.476558
 23
0.014205
 33
-1.052977
 62
0
  0
3DFACE
  8
Cylinder
 10
0.451712
 20
0.014205
 30
-1.090162
 11
0.451712
 21
0.014205
 31
-1.177887
 12
0.476558
 22
0.014205
 32
-1.052977
 13
0.476558
 23
0.014205
 33
-1.052977
 62
0
  0
3DFACE
  8
Cylinder
 10
0.442987
 20
0.014205
 30
-1.134024
 11
0.451712
 21
0.014205
 31
-1.177887
 12
0.451712
 22
0.014205
 32
-1.090162
 13
0.451712
 23
0.014205
 33
-1.090162
 62
0
  0
3DFACE
  8
Cylinder
 10
0.601468
 20
0.014205
 30
-1.028131
 11
0.638653
 21
0.014205
 31
-1.052977
 12
0.638652
 22
1.756919
 32
-1.052978
 13
0.601467
 23
1.756919
 33
-1.028131
 62
0
  0
3DFACE
  8
Cylinder
 10
0.557605
 20
0.014205
 30
-1.019406
 11
0.601468
 21
0.014205
 31
-1.028131
 12
0.601467
 22
1.756919
 32
-1.028131
 13
0.557605
 23
1.756919
 33
-1.019407
 62
0
  0
3DFACE
  8
Cylinder
 10
0.638653
 20
0.014205
 30
-1.052977
 11
0.663499
 21
0.014205
 31
-1.090162
 12
0.663498
 22
1.756919
 32
-1.090162
 13
0.638652
 23
1.756919
 33
-1.052978
 62
0
  0
3DFACE
  8
Cylinder
 10
0.663499
 20
0.014205
 30
-1.090162
 11
0.672223
 21
0.014205
 31
-1.134024
 12
0.672223
 22
1.756919
 32
-1.134025
 13
0.663498
 23
1.756919
 33
-1.090162
 62
0
  0
3DFACE
  8
Cylinder
 10
0.672223
 20
0.014205
 30
-1.134024
 11
0.663499
 21
0.014205
 31
-1.177887
 12
0.663498
 22
1.756919
 32
-1.177887
 13
0.672223
 23
1.756919
 33
-1.134025
 62
0
  0
3DFACE
  8
Cylinder
 10
0.663499
 20
0.014205
 30
-1.177887
 11
0.638653
 21
0.014205
 31
-1.215071
 12
0.638652
 22
1.756919
 32
-1.215072
 13
0.663498
 23
1.756919
 33
-1.177887
 62
0
  0
3DFACE
  8
Cylinder
 10
0.638653
 20
0.014205
 30
-1.215071
 11
0.601468
 21
0.014205
 31
-1.239918
 12
0.601467
 22
1.756919
 32
-1.239918
 13
0.638652
 23
1.756919
 33
-1.215072
 62
0
  0
3DFACE
  8
Cylinder
 10
0.601468
 20
0.014205
 30
-1.239918
 11
0.557605
 21
0.014205
 31
-1.248642
 12
0.557605
 22
1.756919
 32
-1.248643
 13
0.601467
 23
1.756919
 33
-1.239918
 62
0
  0
3DFACE
  8
Cylinder
 10
-0.662488
 20
0.014205
 30
-1.177887
 11
-0.671212
 21
0.014205
 31
-1.134024
 12
-0.671213
 22
1.756920
 32
-1.134025
 13
-0.662488
 23
1.756920
 33
-1.177887
 62
0
  0
3DFACE
  8
Cylinder
 10
-0.637642
 20
0.014205
 30
-1.215071
 11
-0.662488
 21
0.014205
 31
-1.177887
 12
-0.662488
 22
1.756920
 32
-1.177887
 13
-0.637642
 23
1.756920
 33
-1.215072
 62
0
  0
3DFACE
  8
Cylinder
 10
-0.600457
 20
0.014205
 30
-1.239918
 11
-0.637642
 21
0.014205
 31
-1.215071
 12
-0.637642
 22
1.756920
 32
-1.215072
 13
-0.600457
 23
1.756920
 33
-1.239918
 62
0
  0
3DFACE
  8
Cylinder
 10
-0.556594
 20
0.014205
 30
-1.248642
 11
-0.600457
 21
0.014205
 31
-1.239918
 12
-0.600457
 22
1.756920
 32
-1.239918
 13
-0.556595
 23
1.756920
 33
-1.248643
 62
0
  0
3DFACE
  8
Cylinder
 10
-0.600457
 20
0.014205
 30
-1.028131
 11
-0.556594
 21
0.014205
 31
-1.019406
 12
-0.556595
 22
1.756920
 32
-1.019407
 13
-0.600457
 23
1.756920
 33
-1.028131
 62
0
  0
3DFACE
  8
Cylinder
 10
-0.637642
 20
0.014205
 30
-1.052977
 11
-0.600457
 21
0.014205
 31
-1.028131
 12
-0.600457
 22
1.756920
 32
-1.028131
 13
-0.637642
 23
1.756920
 33
-1.052978
 62
0
  0
3DFACE
  8
Cylinder
 10
-0.662488
 20
0.014205
 30
-1.090162
 11
-0.637642
 21
0.014205
 31
-1.052977
 12
-0.637642
 22
1.756920
 32
-1.052978
 13
-0.662488
 23
1.756920
 33
-1.090162
 62
0
  0
3DFACE
  8
Cylinder
 10
-0.671212
 20
0.014205
 30
-1.134024
 11
-0.662488
 21
0.014205
 31
-1.090162
 12
-0.662488
 22
1.756920
 32
-1.090162
 13
-0.671213
 23
1.756920
 33
-1.134025
 62
0
  0
3DFACE
  8
Cylinder
 10
-0.450701
 20
0.014205
 30
-1.090162
 11
-0.450701
 21
0.014205
 31
-1.177887
 12
-0.441976
 22
0.014205
 32
-1.134024
 13
-0.441976
 23
0.014205
 33
-1.134024
 62
0
  0
3DFACE
  8
Cylinder
 10
-0.475547
 20
0.014205
 30
-1.215071
 11
-0.450701
 21
0.014205
 31
-1.177887
 12
-0.450701
 22
0.014205
 32
-1.090162
 13
-0.450701
 23
0.014205
 33
-1.090162
 62
0
  0
3DFACE
  8
Cylinder
 10
-0.475547
 20
0.014205
 30
-1.052977
 11
-0.475547
 21
0.014205
 31
-1.215071
 12
-0.450701
 22
0.014205
 32
-1.090162
 13
-0.450701
 23
0.014205
 33
-1.090162
 62
0
  0
3DFACE
  8
Cylinder
 10
-0.512732
 20
0.014205
 30
-1.239918
 11
-0.475547
 21
0.014205
 31
-1.215071
 12
-0.475547
 22
0.014205
 32
-1.052977
 13
-0.475547
 23
0.014205
 33
-1.052977
 62
0
  0
3DFACE
  8
Cylinder
 10
-0.512732
 20
0.014205
 30
-1.028131
 11
-0.512732
 21
0.014205
 31
-1.239918
 12
-0.475547
 22
0.014205
 32
-1.052977
 13
-0.475547
 23
0.014205
 33
-1.052977
 62
0
  0
3DFACE
  8
Cylinder
 10
-0.556594
 20
0.014205
 30
-1.248642
 11
-0.512732
 21
0.014205
 31
-1.239918
 12
-0.512732
 22
0.014205
 32
-1.028131
 13
-0.512732
 23
0.014205
 33
-1.028131
 62
0
  0
3DFACE
  8
Cylinder
 10
-0.556594
 20
0.014205
 30
-1.019406
 11
-0.556594
 21
0.014205
 31
-1.248642
 12
-0.512732
 22
0.014205
 32
-1.028131
 13
-0.512732
 23
0.014205
 33
-1.028131
 62
0
  0
3DFACE
  8
Cylinder
 10
-0.600457
 20
0.014205
 30
-1.239918
 11
-0.556594
 21
0.014205
 31
-1.248642
 12
-0.556594
 22
0.014205
 32
-1.019406
 13
-0.556594
 23
0.014205
 33
-1.019406
 62
0
  0
3DFACE
  8
Cylinder
 10
-0.600457
 20
0.014205
 30
-1.028131
 11
-0.600457
 21
0.014205
 31
-1.239918
 12
-0.556594
 22
0.014205
 32
-1.019406
 13
-0.556594
 23
0.014205
 33
-1.019406
 62
0
  0
3DFACE
  8
Cylinder
 10
-0.637642
 20
0.014205
 30
-1.215071
 11
-0.600457
 21
0.014205
 31
-1.239918
 12
-0.600457
 22
0.014205
 32
-1.028131
 13
-0.600457
 23
0.014205
 33
-1.028131
 62
0
  0
3DFACE
  8
Cylinder
 10
-0.637642
 20
0.014205
 30
-1.052977
 11
-0.637642
 21
0.014205
 31
-1.215071
 12
-0.600457
 22
0.014205
 32
-1.028131
 13
-0.600457
 23
0.014205
 33
-1.028131
 62
0
  0
3DFACE
  8
Cylinder
 10
-0.662488
 20
0.014205
 30
-1.177887
 11
-0.637642
 21
0.014205
 31
-1.215071
 12
-0.637642
 22
0.014205
 32
-1.052977
 13
-0.637642
 23
0.014205
 33
-1.052977
 62
0
  0
3DFACE
  8
Cylinder
 10
-0.662488
 20
0.014205
 30
-1.090162
 11
-0.662488
 21
0.014205
 31
-1.177887
 12
-0.637642
 22
0.014205
 32
-1.052977
 13
-0.637642
 23
0.014205
 33
-1.052977
 62
0
  0
3DFACE
  8
Cylinder
 10
-0.671212
 20
0.014205
 30
-1.134024
 11
-0.662488
 21
0.014205
 31
-1.177887
 12
-0.662488
 22
0.014205
 32
-1.090162
 13
-0.662488
 23
0.014205
 33
-1.090162
 62
0
  0
3DFACE
  8
Cylinder
 10
-0.512732
 20
0.014205
 30
-1.028131
 11
-0.475547
 21
0.014205
 31
-1.052977
 12
-0.475548
 22
1.756920
 32
-1.052978
 13
-0.512732
 23
1.756920
 33
-1.028131
 62
0
  0
3DFACE
  8
Cylinder
 10
-0.556594
 20
0.014205
 30
-1.019406
 11
-0.512732
 21
0.014205
 31
-1.028131
 12
-0.512732
 22
1.756920
 32
-1.028131
 13
-0.556595
 23
1.756920
 33
-1.019407
 62
0
  0
3DFACE
  8
Cylinder
 10
-0.475547
 20
0.014205
 30
-1.052977
 11
-0.450701
 21
0.014205
 31
-1.090162
 12
-0.450701
 22
1.756920
 32
-1.090162
 13
-0.475548
 23
1.756920
 33
-1.052978
 62
0
  0
3DFACE
  8
Cylinder
 10
-0.450701
 20
0.014205
 30
-1.090162
 11
-0.441976
 21
0.014205
 31
-1.134024
 12
-0.441977
 22
1.756920
 32
-1.134025
 13
-0.450701
 23
1.756920
 33
-1.090162
 62
0
  0
3DFACE
  8
Cylinder
 10
-0.441976
 20
0.014205
 30
-1.134024
 11
-0.450701
 21
0.014205
 31
-1.177887
 12
-0.450701
 22
1.756920
 32
-1.177887
 13
-0.441977
 23
1.756920
 33
-1.134025
 62
0
  0
3DFACE
  8
Cylinder
 10
-0.450701
 20
0.014205
 30
-1.177887
 11
-0.475547
 21
0.014205
 31
-1.215071
 12
-0.475548
 22
1.756920
 32
-1.215072
 13
-0.450701
 23
1.756920
 33
-1.177887
 62
0
  0
3DFACE
  8
Cylinder
 10
-0.475547
 20
0.014205
 30
-1.215071
 11
-0.512732
 21
0.014205
 31
-1.239918
 12
-0.512732
 22
1.756920
 32
-1.239918
 13
-0.475548
 23
1.756920
 33
-1.215072
 62
0
  0
3DFACE
  8
Cylinder
 10
-0.512732
 20
0.014205
 30
-1.239918
 11
-0.556594
 21
0.014205
 31
-1.248642
 12
-0.556595
 22
1.756920
 32
-1.248643
 13
-0.512732
 23
1.756920
 33
-1.239918
 62
0
  0
3DFACE
  8
Cylinder
 10
0.295831
 20
0.014205
 30
-0.788185
 11
0.287106
 21
0.014205
 31
-0.744323
 12
0.287106
 22
1.756919
 32
-0.744323
 13
0.295831
 23
1.756919
 33
-0.788186
 62
0
  0
3DFACE
  8
Cylinder
 10
0.320677
 20
0.014205
 30
-0.825370
 11
0.295831
 21
0.014205
 31
-0.788185
 12
0.295831
 22
1.756919
 32
-0.788186
 13
0.320677
 23
1.756919
 33
-0.825370
 62
0
  0
3DFACE
  8
Cylinder
 10
0.357862
 20
0.014205
 30
-0.850216
 11
0.320677
 21
0.014205
 31
-0.825370
 12
0.320677
 22
1.756919
 32
-0.825370
 13
0.357862
 23
1.756919
 33
-0.850217
 62
0
  0
3DFACE
  8
Cylinder
 10
0.401725
 20
0.014205
 30
-0.858941
 11
0.357862
 21
0.014205
 31
-0.850216
 12
0.357862
 22
1.756919
 32
-0.850217
 13
0.401724
 23
1.756919
 33
-0.858941
 62
0
  0
3DFACE
  8
Cylinder
 10
0.357862
 20
0.014205
 30
-0.638429
 11
0.401725
 21
0.014205
 31
-0.629704
 12
0.401724
 22
1.756919
 32
-0.629705
 13
0.357862
 23
1.756919
 33
-0.638430
 62
0
  0
3DFACE
  8
Cylinder
 10
0.320677
 20
0.014205
 30
-0.663275
 11
0.357862
 21
0.014205
 31
-0.638429
 12
0.357862
 22
1.756919
 32
-0.638430
 13
0.320677
 23
1.756919
 33
-0.663276
 62
0
  0
3DFACE
  8
Cylinder
 10
0.295831
 20
0.014205
 30
-0.700460
 11
0.320677
 21
0.014205
 31
-0.663275
 12
0.320677
 22
1.756919
 32
-0.663276
 13
0.295831
 23
1.756919
 33
-0.700461
 62
0
  0
3DFACE
  8
Cylinder
 10
0.287106
 20
0.014205
 30
-0.744323
 11
0.295831
 21
0.014205
 31
-0.700460
 12
0.295831
 22
1.756919
 32
-0.700461
 13
0.287106
 23
1.756919
 33
-0.744323
 62
0
  0
3DFACE
  8
Cylinder
 10
0.507618
 20
0.014205
 30
-0.700460
 11
0.507618
 21
0.014205
 31
-0.788185
 12
0.516343
 22
0.014205
 32
-0.744323
 13
0.516343
 23
0.014205
 33
-0.744323
 62
0
  0
3DFACE
  8
Cylinder
 10
0.482772
 20
0.014205
 30
-0.825370
 11
0.507618
 21
0.014205
 31
-0.788185
 12
0.507618
 22
0.014205
 32
-0.700460
 13
0.507618
 23
0.014205
 33
-0.700460
 62
0
  0
3DFACE
  8
Cylinder
 10
0.482772
 20
0.014205
 30
-0.663275
 11
0.482772
 21
0.014205
 31
-0.825370
 12
0.507618
 22
0.014205
 32
-0.700460
 13
0.507618
 23
0.014205
 33
-0.700460
 62
0
  0
3DFACE
  8
Cylinder
 10
0.445587
 20
0.014205
 30
-0.850216
 11
0.482772
 21
0.014205
 31
-0.825370
 12
0.482772
 22
0.014205
 32
-0.663275
 13
0.482772
 23
0.014205
 33
-0.663275
 62
0
  0
3DFACE
  8
Cylinder
 10
0.445587
 20
0.014205
 30
-0.638429
 11
0.445587
 21
0.014205
 31
-0.850216
 12
0.482772
 22
0.014205
 32
-0.663275
 13
0.482772
 23
0.014205
 33
-0.663275
 62
0
  0
3DFACE
  8
Cylinder
 10
0.401725
 20
0.014205
 30
-0.858941
 11
0.445587
 21
0.014205
 31
-0.850216
 12
0.445587
 22
0.014205
 32
-0.638429
 13
0.445587
 23
0.014205
 33
-0.638429
 62
0
  0
3DFACE
  8
Cylinder
 10
0.401725
 20
0.014205
 30
-0.629704
 11
0.401725
 21
0.014205
 31
-0.858941
 12
0.445587
 22
0.014205
 32
-0.638429
 13
0.445587
 23
0.014205
 33
-0.638429
 62
0
  0
3DFACE
  8
Cylinder
 10
0.357862
 20
0.014205
 30
-0.850216
 11
0.401725
 21
0.014205
 31
-0.858941
 12
0.401725
 22
0.014205
 32
-0.629704
 13
0.401725
 23
0.014205
 33
-0.629704
 62
0
  0
3DFACE
  8
Cylinder
 10
0.357862
 20
0.014205
 30
-0.638429
 11
0.357862
 21
0.014205
 31
-0.850216
 12
0.401725
 22
0.014205
 32
-0.629704
 13
0.401725
 23
0.014205
 33
-0.629704
 62
0
  0
3DFACE
  8
Cylinder
 10
0.320677
 20
0.014205
 30
-0.825370
 11
0.357862
 21
0.014205
 31
-0.850216
 12
0.357862
 22
0.014205
 32
-0.638429
 13
0.357862
 23
0.014205
 33
-0.638429
 62
0
  0
3DFACE
  8
Cylinder
 10
0.320677
 20
0.014205
 30
-0.663275
 11
0.320677
 21
0.014205
 31
-0.825370
 12
0.357862
 22
0.014205
 32
-0.638429
 13
0.357862
 23
0.014205
 33
-0.638429
 62
0
  0
3DFACE
  8
Cylinder
 10
0.295831
 20
0.014205
 30
-0.788185
 11
0.320677
 21
0.014205
 31
-0.825370
 12
0.320677
 22
0.014205
 32
-0.663275
 13
0.320677
 23
0.014205
 33
-0.663275
 62
0
  0
3DFACE
  8
Cylinder
 10
0.295831
 20
0.014205
 30
-0.700460
 11
0.295831
 21
0.014205
 31
-0.788185
 12
0.320677
 22
0.014205
 32
-0.663275
 13
0.320677
 23
0.014205
 33
-0.663275
 62
0
  0
3DFACE
  8
Cylinder
 10
0.287106
 20
0.014205
 30
-0.744323
 11
0.295831
 21
0.014205
 31
-0.788185
 12
0.295831
 22
0.014205
 32
-0.700460
 13
0.295831
 23
0.014205
 33
-0.700460
 62
0
  0
3DFACE
  8
Cylinder
 10
0.445587
 20
0.014205
 30
-0.638429
 11
0.482772
 21
0.014205
 31
-0.663275
 12
0.482771
 22
1.756919
 32
-0.663276
 13
0.445587
 23
1.756919
 33
-0.638430
 62
0
  0
3DFACE
  8
Cylinder
 10
0.401725
 20
0.014205
 30
-0.629704
 11
0.445587
 21
0.014205
 31
-0.638429
 12
0.445587
 22
1.756919
 32
-0.638430
 13
0.401724
 23
1.756919
 33
-0.629705
 62
0
  0
3DFACE
  8
Cylinder
 10
0.482772
 20
0.014205
 30
-0.663275
 11
0.507618
 21
0.014205
 31
-0.700460
 12
0.507617
 22
1.756919
 32
-0.700461
 13
0.482771
 23
1.756919
 33
-0.663276
 62
0
  0
3DFACE
  8
Cylinder
 10
0.507618
 20
0.014205
 30
-0.700460
 11
0.516343
 21
0.014205
 31
-0.744323
 12
0.516342
 22
1.756919
 32
-0.744323
 13
0.507617
 23
1.756919
 33
-0.700461
 62
0
  0
3DFACE
  8
Cylinder
 10
0.516343
 20
0.014205
 30
-0.744323
 11
0.507618
 21
0.014205
 31
-0.788185
 12
0.507617
 22
1.756919
 32
-0.788186
 13
0.516342
 23
1.756919
 33
-0.744323
 62
0
  0
3DFACE
  8
Cylinder
 10
0.507618
 20
0.014205
 30
-0.788185
 11
0.482772
 21
0.014205
 31
-0.825370
 12
0.482771
 22
1.756919
 32
-0.825370
 13
0.507617
 23
1.756919
 33
-0.788186
 62
0
  0
3DFACE
  8
Cylinder
 10
0.482772
 20
0.014205
 30
-0.825370
 11
0.445587
 21
0.014205
 31
-0.850216
 12
0.445587
 22
1.756919
 32
-0.850217
 13
0.482771
 23
1.756919
 33
-0.825370
 62
0
  0
3DFACE
  8
Cylinder
 10
0.445587
 20
0.014205
 30
-0.850216
 11
0.401725
 21
0.014205
 31
-0.858941
 12
0.401724
 22
1.756919
 32
-0.858941
 13
0.445587
 23
1.756919
 33
-0.850217
 62
0
  0
3DFACE
  8
Cylinder
 10
-0.506496
 20
0.014205
 30
-0.788185
 11
-0.515221
 21
0.014205
 31
-0.744322
 12
-0.515221
 22
1.756919
 32
-0.744323
 13
-0.506496
 23
1.756919
 33
-0.788186
 62
0
  0
3DFACE
  8
Cylinder
 10
-0.481650
 20
0.014205
 30
-0.825370
 11
-0.506496
 21
0.014205
 31
-0.788185
 12
-0.506496
 22
1.756919
 32
-0.788186
 13
-0.481650
 23
1.756919
 33
-0.825370
 62
0
  0
3DFACE
  8
Cylinder
 10
-0.444465
 20
0.014205
 30
-0.850216
 11
-0.481650
 21
0.014205
 31
-0.825370
 12
-0.481650
 22
1.756919
 32
-0.825370
 13
-0.444465
 23
1.756919
 33
-0.850217
 62
0
  0
3DFACE
  8
Cylinder
 10
-0.400602
 20
0.014205
 30
-0.858941
 11
-0.444465
 21
0.014205
 31
-0.850216
 12
-0.444465
 22
1.756919
 32
-0.850217
 13
-0.400603
 23
1.756919
 33
-0.858941
 62
0
  0
3DFACE
  8
Cylinder
 10
-0.444465
 20
0.014205
 30
-0.638429
 11
-0.400602
 21
0.014205
 31
-0.629704
 12
-0.400603
 22
1.756919
 32
-0.629705
 13
-0.444465
 23
1.756919
 33
-0.638430
 62
0
  0
3DFACE
  8
Cylinder
 10
-0.481650
 20
0.014205
 30
-0.663275
 11
-0.444465
 21
0.014205
 31
-0.638429
 12
-0.444465
 22
1.756919
 32
-0.638430
 13
-0.481650
 23
1.756919
 33
-0.663276
 62
0
  0
3DFACE
  8
Cylinder
 10
-0.506496
 20
0.014205
 30
-0.700460
 11
-0.481650
 21
0.014205
 31
-0.663275
 12
-0.481650
 22
1.756919
 32
-0.663276
 13
-0.506496
 23
1.756919
 33
-0.700461
 62
0
  0
3DFACE
  8
Cylinder
 10
-0.515221
 20
0.014205
 30
-0.744322
 11
-0.506496
 21
0.014205
 31
-0.700460
 12
-0.506496
 22
1.756919
 32
-0.700461
 13
-0.515221
 23
1.756919
 33
-0.744323
 62
0
  0
3DFACE
  8
Cylinder
 10
-0.294709
 20
0.014205
 30
-0.700460
 11
-0.294709
 21
0.014205
 31
-0.788185
 12
-0.285984
 22
0.014205
 32
-0.744322
 13
-0.285984
 23
0.014205
 33
-0.744322
 62
0
  0
3DFACE
  8
Cylinder
 10
-0.319555
 20
0.014205
 30
-0.825370
 11
-0.294709
 21
0.014205
 31
-0.788185
 12
-0.294709
 22
0.014205
 32
-0.700460
 13
-0.294709
 23
0.014205
 33
-0.700460
 62
0
  0
3DFACE
  8
Cylinder
 10
-0.319555
 20
0.014205
 30
-0.663275
 11
-0.319555
 21
0.014205
 31
-0.825370
 12
-0.294709
 22
0.014205
 32
-0.700460
 13
-0.294709
 23
0.014205
 33
-0.700460
 62
0
  0
3DFACE
  8
Cylinder
 10
-0.356740
 20
0.014205
 30
-0.850216
 11
-0.319555
 21
0.014205
 31
-0.825370
 12
-0.319555
 22
0.014205
 32
-0.663275
 13
-0.319555
 23
0.014205
 33
-0.663275
 62
0
  0
3DFACE
  8
Cylinder
 10
-0.356740
 20
0.014205
 30
-0.638429
 11
-0.356740
 21
0.014205
 31
-0.850216
 12
-0.319555
 22
0.014205
 32
-0.663275
 13
-0.319555
 23
0.014205
 33
-0.663275
 62
0
  0
3DFACE
  8
Cylinder
 10
-0.400602
 20
0.014205
 30
-0.858941
 11
-0.356740
 21
0.014205
 31
-0.850216
 12
-0.356740
 22
0.014205
 32
-0.638429
 13
-0.356740
 23
0.014205
 33
-0.638429
 62
0
  0
3DFACE
  8
Cylinder
 10
-0.400602
 20
0.014205
 30
-0.629704
 11
-0.400602
 21
0.014205
 31
-0.858941
 12
-0.356740
 22
0.014205
 32
-0.638429
 13
-0.356740
 23
0.014205
 33
-0.638429
 62
0
  0
3DFACE
  8
Cylinder
 10
-0.444465
 20
0.014205
 30
-0.850216
 11
-0.400602
 21
0.014205
 31
-0.858941
 12
-0.400602
 22
0.014205
 32
-0.629704
 13
-0.400602
 23
0.014205
 33
-0.629704
 62
0
  0
3DFACE
  8
Cylinder
 10
-0.444465
 20
0.014205
 30
-0.638429
 11
-0.444465
 21
0.014205
 31
-0.850216
 12
-0.400602
 22
0.014205
 32
-0.629704
 13
-0.400602
 23
0.014205
 33
-0.629704
 62
0
  0
3DFACE
  8
Cylinder
 10
-0.481650
 20
0.014205
 30
-0.825370
 11
-0.444465
 21
0.014205
 31
-0.850216
 12
-0.444465
 22
0.014205
 32
-0.638429
 13
-0.444465
 23
0.014205
 33
-0.638429
 62
0
  0
3DFACE
  8
Cylinder
 10
-0.481650
 20
0.014205
 30
-0.663275
 11
-0.481650
 21
0.014205
 31
-0.825370
 12
-0.444465
 22
0.014205
 32
-0.638429
 13
-0.444465
 23
0.014205
 33
-0.638429
 62
0
  0
3DFACE
  8
Cylinder
 10
-0.506496
 20
0.014205
 30
-0.788185
 11
-0.481650
 21
0.014205
 31
-0.825370
 12
-0.481650
 22
0.014205
 32
-0.663275
 13
-0.481650
 23
0.014205
 33
-0.663275
 62
0
  0
3DFACE
  8
Cylinder
 10
-0.506496
 20
0.014205
 30
-0.700460
 11
-0.506496
 21
0.014205
 31
-0.788185
 12
-0.481650
 22
0.014205
 32
-0.663275
 13
-0.481650
 23
0.014205
 33
-0.663275
 62
0
  0
3DFACE
  8
Cylinder
 10
-0.515221
 20
0.014205
 30
-0.744322
 11
-0.506496
 21
0.014205
 31
-0.788185
 12
-0.506496
 22
0.014205
 32
-0.700460
 13
-0.506496
 23
0.014205
 33
-0.700460
 62
0
  0
3DFACE
  8
Cylinder
 10
-0.356740
 20
0.014205
 30
-0.638429
 11
-0.319555
 21
0.014205
 31
-0.663275
 12
-0.319556
 22
1.756919
 32
-0.663276
 13
-0.356740
 23
1.756919
 33
-0.638430
 62
0
  0
3DFACE
  8
Cylinder
 10
-0.400602
 20
0.014205
 30
-0.629704
 11
-0.356740
 21
0.014205
 31
-0.638429
 12
-0.356740
 22
1.756919
 32
-0.638430
 13
-0.400603
 23
1.756919
 33
-0.629705
 62
0
  0
3DFACE
  8
Cylinder
 10
-0.319555
 20
0.014205
 30
-0.663275
 11
-0.294709
 21
0.014205
 31
-0.700460
 12
-0.294709
 22
1.756919
 32
-0.700461
 13
-0.319556
 23
1.756919
 33
-0.663276
 62
0
  0
3DFACE
  8
Cylinder
 10
-0.294709
 20
0.014205
 30
-0.700460
 11
-0.285984
 21
0.014205
 31
-0.744322
 12
-0.285985
 22
1.756919
 32
-0.744323
 13
-0.294709
 23
1.756919
 33
-0.700461
 62
0
  0
3DFACE
  8
Cylinder
 10
-0.285984
 20
0.014205
 30
-0.744322
 11
-0.294709
 21
0.014205
 31
-0.788185
 12
-0.294709
 22
1.756919
 32
-0.788186
 13
-0.285985
 23
1.756919
 33
-0.744323
 62
0
  0
3DFACE
  8
Cylinder
 10
-0.294709
 20
0.014205
 30
-0.788185
 11
-0.319555
 21
0.014205
 31
-0.825370
 12
-0.319556
 22
1.756919
 32
-0.825370
 13
-0.294709
 23
1.756919
 33
-0.788186
 62
0
  0
3DFACE
  8
Cylinder
 10
-0.319555
 20
0.014205
 30
-0.825370
 11
-0.356740
 21
0.014205
 31
-0.850216
 12
-0.356740
 22
1.756919
 32
-0.850217
 13
-0.319556
 23
1.756919
 33
-0.825370
 62
0
  0
3DFACE
  8
Cylinder
 10
-0.356740
 20
0.014205
 30
-0.850216
 11
-0.400602
 21
0.014205
 31
-0.858941
 12
-0.400603
 22
1.756919
 32
-0.858941
 13
-0.356740
 23
1.756919
 33
-0.850217
 62
0
  0
3DFACE
  8
Cylinder
 10
-0.105332
 20
0.014205
 30
-0.616258
 11
-0.114057
 21
0.014205
 31
-0.572395
 12
-0.114058
 22
1.756919
 32
-0.572396
 13
-0.105333
 23
1.756919
 33
-0.616258
 62
0
  0
3DFACE
  8
Cylinder
 10
-0.080486
 20
0.014205
 30
-0.653443
 11
-0.105332
 21
0.014205
 31
-0.616258
 12
-0.105333
 22
1.756919
 32
-0.616258
 13
-0.080487
 23
1.756919
 33
-0.653443
 62
0
  0
3DFACE
  8
Cylinder
 10
-0.043301
 20
0.014205
 30
-0.678289
 11
-0.080486
 21
0.014205
 31
-0.653443
 12
-0.080487
 22
1.756919
 32
-0.653443
 13
-0.043302
 23
1.756919
 33
-0.678289
 62
0
  0
3DFACE
  8
Cylinder
 10
0.000561
 20
0.014205
 30
-0.687013
 11
-0.043301
 21
0.014205
 31
-0.678289
 12
-0.043302
 22
1.756919
 32
-0.678289
 13
0.000561
 23
1.756919
 33
-0.687014
 62
0
  0
3DFACE
  8
Cylinder
 10
-0.043301
 20
0.014205
 30
-0.466502
 11
0.000561
 21
0.014205
 31
-0.457777
 12
0.000561
 22
1.756919
 32
-0.457778
 13
-0.043302
 23
1.756919
 33
-0.466503
 62
0
  0
3DFACE
  8
Cylinder
 10
-0.080486
 20
0.014205
 30
-0.491348
 11
-0.043301
 21
0.014205
 31
-0.466502
 12
-0.043302
 22
1.756919
 32
-0.466503
 13
-0.080487
 23
1.756919
 33
-0.491349
 62
0
  0
3DFACE
  8
Cylinder
 10
-0.105332
 20
0.014205
 30
-0.528533
 11
-0.080486
 21
0.014205
 31
-0.491348
 12
-0.080487
 22
1.756919
 32
-0.491349
 13
-0.105333
 23
1.756920
 33
-0.528534
 62
0
  0
3DFACE
  8
Cylinder
 10
-0.114057
 20
0.014205
 30
-0.572395
 11
-0.105332
 21
0.014205
 31
-0.528533
 12
-0.105333
 22
1.756920
 32
-0.528534
 13
-0.114058
 23
1.756919
 33
-0.572396
 62
0
  0
3DFACE
  8
Cylinder
 10
0.106454
 20
0.014205
 30
-0.528533
 11
0.106454
 21
0.014205
 31
-0.616258
 12
0.115179
 22
0.014205
 32
-0.572395
 13
0.115179
 23
0.014205
 33
-0.572395
 62
0
  0
3DFACE
  8
Cylinder
 10
0.081608
 20
0.014205
 30
-0.653443
 11
0.106454
 21
0.014205
 31
-0.616258
 12
0.106454
 22
0.014205
 32
-0.528533
 13
0.106454
 23
0.014205
 33
-0.528533
 62
0
  0
3DFACE
  8
Cylinder
 10
0.081608
 20
0.014205
 30
-0.491348
 11
0.081608
 21
0.014205
 31
-0.653443
 12
0.106454
 22
0.014205
 32
-0.528533
 13
0.106454
 23
0.014205
 33
-0.528533
 62
0
  0
3DFACE
  8
Cylinder
 10
0.044424
 20
0.014205
 30
-0.466502
 11
0.081608
 21
0.014205
 31
-0.653443
 12
0.081608
 22
0.014205
 32
-0.491348
 13
0.081608
 23
0.014205
 33
-0.491348
 62
0
  0
3DFACE
  8
Cylinder
 10
0.044424
 20
0.014205
 30
-0.678289
 11
0.081608
 21
0.014205
 31
-0.653443
 12
0.044424
 22
0.014205
 32
-0.466502
 13
0.044424
 23
0.014205
 33
-0.466502
 62
0
  0
3DFACE
  8
Cylinder
 10
0.000561
 20
0.014205
 30
-0.457777
 11
0.044424
 21
0.014205
 31
-0.678289
 12
0.044424
 22
0.014205
 32
-0.466502
 13
0.044424
 23
0.014205
 33
-0.466502
 62
0
  0
3DFACE
  8
Cylinder
 10
0.000561
 20
0.014205
 30
-0.687013
 11
0.044424
 21
0.014205
 31
-0.678289
 12
0.000561
 22
0.014205
 32
-0.457777
 13
0.000561
 23
0.014205
 33
-0.457777
 62
0
  0
3DFACE
  8
Cylinder
 10
-0.043301
 20
0.014205
 30
-0.466502
 11
0.000561
 21
0.014205
 31
-0.687013
 12
0.000561
 22
0.014205
 32
-0.457777
 13
0.000561
 23
0.014205
 33
-0.457777
 62
0
  0
3DFACE
  8
Cylinder
 10
-0.043301
 20
0.014205
 30
-0.678289
 11
0.000561
 21
0.014205
 31
-0.687013
 12
-0.043301
 22
0.014205
 32
-0.466502
 13
-0.043301
 23
0.014205
 33
-0.466502
 62
0
  0
3DFACE
  8
Cylinder
 10
-0.080486
 20
0.014205
 30
-0.653443
 11
-0.043301
 21
0.014205
 31
-0.678289
 12
-0.043301
 22
0.014205
 32
-0.466502
 13
-0.043301
 23
0.014205
 33
-0.466502
 62
0
  0
3DFACE
  8
Cylinder
 10
-0.080486
 20
0.014205
 30
-0.491348
 11
-0.080486
 21
0.014205
 31
-0.653443
 12
-0.043301
 22
0.014205
 32
-0.466502
 13
-0.043301
 23
0.014205
 33
-0.466502
 62
0
  0
3DFACE
  8
Cylinder
 10
-0.105332
 20
0.014205
 30
-0.616258
 11
-0.080486
 21
0.014205
 31
-0.653443
 12
-0.080486
 22
0.014205
 32
-0.491348
 13
-0.080486
 23
0.014205
 33
-0.491348
 62
0
  0
3DFACE
  8
Cylinder
 10
-0.105332
 20
0.014205
 30
-0.528533
 11
-0.105332
 21
0.014205
 31
-0.616258
 12
-0.080486
 22
0.014205
 32
-0.491348
 13
-0.080486
 23
0.014205
 33
-0.491348
 62
0
  0
3DFACE
  8
Cylinder
 10
-0.114057
 20
0.014205
 30
-0.572395
 11
-0.105332
 21
0.014205
 31
-0.616258
 12
-0.105332
 22
0.014205
 32
-0.528533
 13
-0.105332
 23
0.014205
 33
-0.528533
 62
0
  0
3DFACE
  8
Cylinder
 10
0.044424
 20
0.014205
 30
-0.466502
 11
0.081608
 21
0.014205
 31
-0.491348
 12
0.081608
 22
1.756919
 32
-0.491349
 13
0.044423
 23
1.756919
 33
-0.466503
 62
0
  0
3DFACE
  8
Cylinder
 10
0.000561
 20
0.014205
 30
-0.457777
 11
0.044424
 21
0.014205
 31
-0.466502
 12
0.044423
 22
1.756919
 32
-0.466503
 13
0.000561
 23
1.756919
 33
-0.457778
 62
0
  0
3DFACE
  8
Cylinder
 10
0.081608
 20
0.014205
 30
-0.491348
 11
0.106454
 21
0.014205
 31
-0.528533
 12
0.106454
 22
1.756919
 32
-0.528534
 13
0.081608
 23
1.756919
 33
-0.491349
 62
0
  0
3DFACE
  8
Cylinder
 10
0.106454
 20
0.014205
 30
-0.528533
 11
0.115179
 21
0.014205
 31
-0.572395
 12
0.115179
 22
1.756919
 32
-0.572396
 13
0.106454
 23
1.756919
 33
-0.528534
 62
0
  0
3DFACE
  8
Cylinder
 10
0.115179
 20
0.014205
 30
-0.572395
 11
0.106454
 21
0.014205
 31
-0.616258
 12
0.106454
 22
1.756919
 32
-0.616259
 13
0.115179
 23
1.756919
 33
-0.572396
 62
0
  0
3DFACE
  8
Cylinder
 10
0.106454
 20
0.014205
 30
-0.616258
 11
0.081608
 21
0.014205
 31
-0.653443
 12
0.081608
 22
1.756920
 32
-0.653443
 13
0.106454
 23
1.756919
 33
-0.616259
 62
0
  0
3DFACE
  8
Cylinder
 10
0.081608
 20
0.014205
 30
-0.653443
 11
0.044424
 21
0.014205
 31
-0.678289
 12
0.044423
 22
1.756919
 32
-0.678289
 13
0.081608
 23
1.756920
 33
-0.653443
 62
0
  0
3DFACE
  8
Cylinder
 10
0.044424
 20
0.014205
 30
-0.678289
 11
0.000561
 21
0.014205
 31
-0.687013
 12
0.000561
 22
1.756919
 32
-0.687014
 13
0.044423
 23
1.756919
 33
-0.678289
 62
0
  0
3DFACE
  8
Cylinder1
 10
-2.108413
 20
-0.173768
 30
-0.100166
 11
-1.145618
 21
-0.811045
 31
-0.343152
 12
-0.742163
 22
-0.815271
 32
-0.732863
 13
-0.742163
 23
-0.815271
 33
-0.732863
 62
0
  0
3DFACE
  8
Cylinder1
 10
-0.742163
 20
-0.127562
 30
-0.732863
 11
-0.742163
 21
-0.815271
 31
-0.732863
 12
-1.145618
 22
-0.811045
 32
-0.343152
 13
-1.145620
 23
-0.123336
 33
-0.343159
 62
0
  0
3DFACE
  8
Cylinder1
 10
-2.108413
 20
-0.173768
 30
-0.100166
 11
-0.706693
 21
-0.471417
 31
-1.133976
 12
-0.742163
 22
-0.127562
 32
-0.732863
 13
-0.742163
 23
-0.127562
 33
-0.732863
 62
0
  0
3DFACE
  8
Cylinder1
 10
-1.145618
 20
-0.811045
 30
-0.343152
 11
-2.108413
 21
-0.173768
 31
-0.100166
 12
-1.145620
 22
-0.123336
 32
-0.343159
 13
-1.145620
 23
-0.123336
 33
-0.343159
 62
0
  0
3DFACE
  8
Cylinder1
 10
-0.742163
 20
-0.815271
 30
-0.732863
 11
-0.742163
 21
-0.127562
 31
-0.732863
 12
-0.706693
 22
-0.471417
 32
-1.133976
 13
-0.706693
 23
-0.471417
 33
-1.133976
 62
0
  0
3DFACE
  8
Cylinder1
 10
-0.742163
 20
-0.127562
 30
-0.732863
 11
-1.145620
 21
-0.123336
 31
-0.343159
 12
-2.108413
 22
-0.173768
 32
-0.100166
 13
-2.108413
 23
-0.173768
 33
-0.100166
 62
0
  0
3DFACE
  8
Cylinder1
 10
-0.742163
 20
-0.815271
 30
-0.732863
 11
-0.706693
 21
-0.471417
 31
-1.133976
 12
-2.108413
 22
-0.173768
 32
-0.100166
 13
-2.108413
 23
-0.173768
 33
-0.100166
 62
0
  0
3DFACE
  8
Cylinder2
 10
2.109004
 20
-0.173241
 30
-0.100384
 11
1.146737
 21
-0.131788
 31
-0.343152
 12
0.743282
 22
-0.127562
 32
-0.732863
 13
0.743282
 23
-0.127562
 33
-0.732863
 62
0
  0
3DFACE
  8
Cylinder2
 10
0.743282
 20
-0.815271
 30
-0.732863
 11
0.743282
 21
-0.127562
 31
-0.732863
 12
1.146737
 22
-0.131788
 32
-0.343152
 13
1.146739
 23
-0.819497
 33
-0.343159
 62
0
  0
3DFACE
  8
Cylinder2
 10
2.109004
 20
-0.173241
 30
-0.100384
 11
0.707812
 21
-0.471417
 31
-1.133976
 12
0.743282
 22
-0.815271
 32
-0.732863
 13
0.743282
 23
-0.815271
 33
-0.732863
 62
0
  0
3DFACE
  8
Cylinder2
 10
1.146737
 20
-0.131788
 30
-0.343152
 11
2.109004
 21
-0.173241
 31
-0.100384
 12
1.146739
 22
-0.819497
 32
-0.343159
 13
1.146739
 23
-0.819497
 33
-0.343159
 62
0
  0
3DFACE
  8
Cylinder2
 10
0.743282
 20
-0.127562
 30
-0.732863
 11
0.743282
 21
-0.815271
 31
-0.732863
 12
0.707812
 22
-0.471417
 32
-1.133976
 13
0.707812
 23
-0.471417
 33
-1.133976
 62
0
  0
3DFACE
  8
Cylinder2
 10
0.743282
 20
-0.815271
 30
-0.732863
 11
1.146739
 21
-0.819497
 31
-0.343159
 12
2.109004
 22
-0.173241
 32
-0.100384
 13
2.109004
 23
-0.173241
 33
-0.100384
 62
0
  0
3DFACE
  8
Cylinder2
 10
0.743282
 20
-0.127562
 30
-0.732863
 11
0.707812
 21
-0.471417
 31
-1.133976
 12
2.109004
 22
-0.173241
 32
-0.100384
 13
2.109004
 23
-0.173241
 33
-0.100384
 62
0
  0
3DFACE
  8
Cube
 10
-0.884127
 20
0.818551
 30
0.642557
 11
-0.755018
 21
1.429700
 31
0.106143
 12
0.000561
 22
1.822686
 32
0.105940
 13
0.000561
 23
1.337065
 33
0.645307
 62
0
  0
3DFACE
  8
Cube
 10
0.757041
 20
1.428594
 30
0.105940
 11
-0.756680
 21
0.620243
 31
0.105942
 12
0.755699
 22
0.620243
 32
0.105942
 13
0.755699
 23
0.620243
 33
0.105942
 62
0
  0
3DFACE
  8
Cube
 10
-0.755018
 20
1.429700
 30
0.106143
 11
-0.756680
 21
0.620243
 31
0.105942
 12
0.757041
 22
1.428594
 32
0.105940
 13
0.757041
 23
1.428594
 33
0.105940
 62
0
  0
3DFACE
  8
Cube
 10
0.000561
 20
1.822686
 30
0.105940
 11
-0.755018
 21
1.429700
 31
0.106143
 12
0.757041
 22
1.428594
 32
0.105940
 13
0.757041
 23
1.428594
 33
0.105940
 62
0
  0
3DFACE
  8
Cube
 10
-0.756680
 20
0.620243
 30
0.105942
 11
-0.755018
 21
1.429700
 31
0.106143
 12
-0.884127
 22
0.818551
 32
0.642557
 13
-0.884127
 23
0.818551
 33
0.642557
 62
0
  0
3DFACE
  8
Cube
 10
-0.884127
 20
0.818551
 30
0.642557
 11
0.883669
 21
0.620243
 31
0.645306
 12
-0.884650
 22
0.620243
 32
0.642556
 13
-0.884650
 23
0.620243
 33
0.642556
 62
0
  0
3DFACE
  8
Cube
 10
0.885413
 20
0.818825
 30
0.642556
 11
0.883669
 21
0.620243
 31
0.645306
 12
-0.884127
 22
0.818551
 32
0.642557
 13
-0.884127
 23
0.818551
 33
0.642557
 62
0
  0
3DFACE
  8
Cube
 10
0.000561
 20
1.337065
 30
0.645307
 11
0.885413
 21
0.818825
 31
0.642556
 12
-0.884127
 22
0.818551
 32
0.642557
 13
-0.884127
 23
0.818551
 33
0.642557
 62
0
  0
3DFACE
  8
Cube
 10
-0.884650
 20
0.620243
 30
0.642556
 11
0.883669
 21
0.620243
 31
0.645306
 12
0.755699
 22
0.620243
 32
0.105942
 13
-0.756680
 23
0.620243
 33
0.105942
 62
0
  0
3DFACE
  8
Cube
 10
0.885413
 20
0.818825
 30
0.642556
 11
0.757041
 21
1.428594
 31
0.105940
 12
0.755699
 22
0.620243
 32
0.105942
 13
0.755699
 23
0.620243
 33
0.105942
 62
0
  0
3DFACE
  8
Cube
 10
0.757041
 20
1.428594
 30
0.105940
 11
0.885413
 21
0.818825
 31
0.642556
 12
0.000561
 22
1.337065
 32
0.645307
 13
0.000561
 23
1.822686
 33
0.105940
 62
0
  0
3DFACE
  8
Cube
 10
0.755699
 20
0.620243
 30
0.105942
 11
0.883669
 21
0.620243
 31
0.645306
 12
0.885413
 22
0.818825
 32
0.642556
 13
0.885413
 23
0.818825
 33
0.642556
 62
0
  0
3DFACE
  8
Cube
 10
-0.884127
 20
0.818551
 30
0.642557
 11
-0.884650
 21
0.620243
 31
0.642556
 12
-0.756680
 22
0.620243
 32
0.105942
 13
-0.756680
 23
0.620243
 33
0.105942
 62
0
  0
3DFACE
  8
Sphere
 10
0.000660
 20
0.057107
 30
1.945290
 11
-2.929859
 21
1.100375
 31
-1.008152
 12
0.000661
 22
2.026883
 32
-0.194749
 13
0.000661
 23
2.026883
 33
-0.194749
 62
0
  0
3DFACE
  8
Sphere
 10
0.000660
 20
0.057107
 30
1.945290
 11
-1.950322
 21
-1.658404
 31
1.515353
 12
-2.929859
 22
1.100375
 32
-1.008152
 13
-2.929859
 23
1.100375
 33
-1.008152
 62
0
  0
3DFACE
  8
Sphere
 10
0.000660
 20
0.057107
 30
1.945290
 11
1.951361
 21
-1.659219
 31
1.515947
 12
-1.950322
 22
-1.658404
 32
1.515353
 13
-1.950322
 23
-1.658404
 33
1.515353
 62
0
  0
3DFACE
  8
Sphere
 10
0.000660
 20
0.057107
 30
1.945290
 11
2.930200
 21
1.100785
 31
-1.007945
 12
1.951361
 22
-1.659219
 32
1.515947
 13
1.951361
 23
-1.659219
 33
1.515947
 62
0
  0
3DFACE
  8
Sphere
 10
0.000660
 20
0.057107
 30
1.945290
 11
0.000661
 21
2.026883
 31
-0.194749
 12
2.930200
 22
1.100785
 32
-1.007945
 13
2.930200
 23
1.100785
 33
-1.007945
 62
0
  0
3DFACE
  8
Sphere
 10
0.000661
 20
2.026883
 30
-0.194749
 11
-2.929859
 21
1.100375
 31
-1.008152
 12
0.000654
 22
-2.026883
 32
-0.193975
 13
0.000654
 23
-2.026883
 33
-0.193975
 62
0
  0
3DFACE
  8
Sphere
 10
-2.929859
 20
1.100375
 30
-1.008152
 11
-1.950322
 21
-1.658404
 31
1.515353
 12
0.000654
 22
-2.026883
 32
-0.193975
 13
0.000654
 23
-2.026883
 33
-0.193975
 62
0
  0
3DFACE
  8
Sphere
 10
-1.950322
 20
-1.658404
 30
1.515353
 11
1.951361
 21
-1.659219
 31
1.515947
 12
0.000654
 22
-2.026883
 32
-0.193975
 13
0.000654
 23
-2.026883
 33
-0.193975
 62
0
  0
3DFACE
  8
Sphere
 10
1.951361
 20
-1.659219
 30
1.515947
 11
2.930200
 21
1.100785
 31
-1.007945
 12
0.000654
 22
-2.026883
 32
-0.193975
 13
0.000654
 23
-2.026883
 33
-0.193975
 62
0
  0
3DFACE
  8
Sphere
 10
2.930200
 20
1.100785
 30
-1.007945
 11
0.000661
 21
2.026883
 31
-0.194749
 12
0.000654
 22
-2.026883
 32
-0.193975
 13
0.000654
 23
-2.026883
 33
-0.193975
 62
0
  0
3DFACE
  8
Cone1
 10
-2.267133
 20
0.216826
 30
1.868730
 11
-0.729669
 21
-0.045885
 31
0.999656
 12
-1.469266
 22
-0.735571
 32
0.739894
 13
-2.267281
 23
0.216688
 33
1.868678
 62
0
  0
3DFACE
  8
Cone1
 10
-2.267281
 20
0.216688
 30
1.868678
 11
-1.469266
 21
-0.735571
 31
0.739894
 12
-1.469264
 22
0.216327
 32
0.310892
 13
-2.267281
 23
0.216879
 33
1.868592
 62
0
  0
3DFACE
  8
Cone1
 10
-2.267281
 20
0.216879
 30
1.868592
 11
-1.469264
 21
0.216327
 31
0.310892
 12
-0.729669
 22
-0.045885
 32
0.999656
 13
-2.267133
 23
0.216826
 33
1.868730
 62
0
  0
3DFACE
  8
Cone1
 10
-2.267133
 20
0.216826
 30
1.868730
 11
-2.267281
 21
0.216688
 31
1.868678
 12
-2.267281
 22
0.216879
 32
1.868592
 13
-2.267281
 23
0.216879
 33
1.868592
 62
0
  0
3DFACE
  8
Cone1
 10
-1.469264
 20
0.216327
 30
0.310892
 11
-1.469266
 21
-0.735571
 31
0.739894
 12
-0.729669
 22
-0.045885
 32
0.999656
 13
-0.729669
 23
-0.045885
 33
0.999656
 62
0
  0
3DFACE
  8
Cone
 10
2.269101
 20
0.216703
 30
1.868687
 11
1.471144
 21
-0.735590
 31
0.739890
 12
0.731526
 22
-0.045913
 32
0.999611
 13
2.268953
 23
0.216841
 33
1.868739
 62
0
  0
3DFACE
  8
Cone
 10
2.269101
 20
0.216893
 30
1.868601
 11
1.471143
 21
0.216298
 31
0.310871
 12
1.471144
 22
-0.735590
 32
0.739890
 13
2.269101
 23
0.216703
 33
1.868687
 62
0
  0
3DFACE
  8
Cone
 10
2.268953
 20
0.216841
 30
1.868739
 11
0.731526
 21
-0.045913
 31
0.999611
 12
1.471143
 22
0.216298
 32
0.310871
 13
2.269101
 23
0.216893
 33
1.868601
 62
0
  0
3DFACE
  8
Cone
 10
2.269101
 20
0.216893
 30
1.868601
 11
2.269101
 21
0.216703
 31
1.868687
 12
2.268953
 22
0.216841
 32
1.868739
 13
2.268953
 23
0.216841
 33
1.868739
 62
0
  0
3DFACE
  8
Cone
 10
0.731526
 20
-0.045913
 30
0.999611
 11
1.471144
 21
-0.735590
 31
0.739890
 12
1.471143
 22
0.216298
 32
0.310871
 13
1.471143
 23
0.216298
 33
0.310871
 62
0
 0
ENDSEC
 0
EOF
