  0
SECTION
  2
HEADER
  0
ENDSEC
  0
SECTION
  2
TABLES
  0
TABLE
  2
LAYER
  70
    153
  0
LAYER
  2
Cube
 70
0
 62
15
  6
CONTINUOUS
  0
LAYER
  2
Cylinder3
 70
0
 62
15
  6
CONTINUOUS
  0
LAYER
  2
Cube2
 70
0
 62
15
  6
CONTINUOUS
  0
LAYER
  2
Cylinder
 70
0
 62
15
  6
CONTINUOUS
  0
LAYER
  2
Cube1
 70
0
 62
15
  6
CONTINUOUS
  0
LAYER
  2
Cylinder3001
 70
0
 62
15
  6
CONTINUOUS
  0
LAYER
  2
Cube2001
 70
0
 62
15
  6
CONTINUOUS
  0
LAYER
  2
Cylinder1
 70
0
 62
15
  6
CONTINUOUS
  0
LAYER
  2
Cube7
 70
0
 62
15
  6
CONTINUOUS
  0
LAYER
  2
Cube6
 70
0
 62
15
  6
CONTINUOUS
  0
ENDTAB
  0
ENDSEC
  0
SECTION
  2
ENTITIES
  0
3DFACE
  8
Cube
 10
1.969463
 20
-0.677967
 30
-0.609165
 11
0.407191
 21
-0.677967
 31
-1.923389
 12
0.774654
 22
-1.833379
 32
-0.347809
 13
0.774654
 23
-1.833379
 33
-0.347809
 62
0
  0
3DFACE
  8
Cube
 10
0.407191
 20
-0.677967
 30
-1.923389
 11
1.969463
 21
-0.677967
 31
-0.609165
 12
1.969463
 22
0.635011
 32
-0.609165
 13
0.407018
 23
0.635011
 33
-1.923388
 62
0
  0
3DFACE
  8
Cube
 10
1.969463
 20
-0.677967
 30
-0.609165
 11
1.819893
 21
-0.677967
 31
0.514829
 12
1.819892
 22
0.635012
 32
0.514829
 13
1.969463
 23
0.635011
 33
-0.609165
 62
0
  0
3DFACE
  8
Cube
 10
1.819892
 20
0.635012
 30
0.514829
 11
1.819893
 21
-0.677967
 31
0.514829
 12
1.200305
 22
-0.677967
 32
1.362895
 13
1.200305
 23
0.635012
 33
1.362906
 62
0
  0
3DFACE
  8
Cube
 10
1.969463
 20
0.635011
 30
-0.609165
 11
1.819892
 21
0.635012
 31
0.514829
 12
0.974876
 22
1.747095
 32
0.460240
 13
0.774653
 23
1.833379
 33
-0.347814
 62
0
  0
3DFACE
  8
Cube
 10
0.974876
 20
1.747095
 30
0.460240
 11
1.200305
 21
0.635012
 31
1.362906
 12
1.200305
 22
-0.677967
 32
1.362895
 13
1.200305
 23
-0.677967
 33
1.362895
 62
1
  0
3DFACE
  8
Cube
 10
0.774654
 20
-1.833379
 30
-0.347809
 11
0.974876
 21
1.747095
 31
0.460240
 12
1.200305
 22
-0.677967
 32
1.362895
 13
1.200305
 23
-0.677967
 33
1.362895
 62
1
  0
3DFACE
  8
Cube
 10
0.774653
 20
1.833379
 30
-0.347814
 11
0.974876
 21
1.747095
 31
0.460240
 12
0.774654
 22
-1.833379
 32
-0.347809
 13
0.774654
 23
-1.833379
 33
-0.347809
 62
1
  0
3DFACE
  8
Cube
 10
0.407018
 20
0.635011
 30
-1.923388
 11
0.774653
 21
1.833379
 31
-0.347814
 12
0.774654
 22
-1.833379
 32
-0.347809
 13
0.774654
 23
-1.833379
 33
-0.347809
 62
1
  0
3DFACE
  8
Cube
 10
0.407191
 20
-0.677967
 30
-1.923389
 11
0.407018
 21
0.635011
 31
-1.923388
 12
0.774654
 22
-1.833379
 32
-0.347809
 13
0.774654
 23
-1.833379
 33
-0.347809
 62
1
  0
3DFACE
  8
Cube
 10
1.200305
 20
0.635012
 30
1.362906
 11
0.974876
 21
1.747095
 31
0.460240
 12
1.819892
 22
0.635012
 32
0.514829
 13
1.819892
 23
0.635012
 33
0.514829
 62
0
  0
3DFACE
  8
Cube
 10
0.774653
 20
1.833379
 30
-0.347814
 11
0.407018
 21
0.635011
 31
-1.923388
 12
1.969463
 22
0.635011
 32
-0.609165
 13
1.969463
 23
0.635011
 33
-0.609165
 62
0
  0
3DFACE
  8
Cube
 10
1.819893
 20
-0.677967
 30
0.514829
 11
1.969463
 21
-0.677967
 31
-0.609165
 12
0.774654
 22
-1.833379
 32
-0.347809
 13
0.774654
 23
-1.833379
 33
-0.347809
 62
0
  0
3DFACE
  8
Cube
 10
0.774654
 20
-1.833379
 30
-0.347809
 11
1.200305
 21
-0.677967
 31
1.362895
 12
1.819893
 22
-0.677967
 32
0.514829
 13
1.819893
 23
-0.677967
 33
0.514829
 62
0
  0
3DFACE
  8
Cylinder3
 10
2.001501
 20
1.616579
 30
-1.382206
 11
1.986510
 21
1.616579
 31
-1.306839
 12
1.986509
 22
-0.200920
 32
-1.306839
 13
2.001501
 23
-0.200920
 33
-1.382206
 62
0
  0
3DFACE
  8
Cylinder3
 10
2.044194
 20
1.616579
 30
-1.446100
 11
2.001501
 21
1.616579
 31
-1.382206
 12
2.001501
 22
-0.200920
 32
-1.382206
 13
2.044194
 23
-0.200920
 33
-1.446100
 62
0
  0
3DFACE
  8
Cylinder3
 10
2.108088
 20
1.616579
 30
-1.488793
 11
2.044194
 21
1.616579
 31
-1.446100
 12
2.044194
 22
-0.200920
 32
-1.446100
 13
2.108088
 23
-0.200920
 33
-1.488793
 62
0
  0
3DFACE
  8
Cylinder3
 10
2.183455
 20
1.616579
 30
-1.503784
 11
2.108088
 21
1.616579
 31
-1.488793
 12
2.108088
 22
-0.200920
 32
-1.488793
 13
2.183455
 23
-0.200920
 33
-1.503785
 62
0
  0
3DFACE
  8
Cylinder3
 10
2.258823
 20
1.616579
 30
-1.488793
 11
2.183455
 21
1.616579
 31
-1.503784
 12
2.183455
 22
-0.200920
 32
-1.503785
 13
2.258823
 23
-0.200920
 33
-1.488793
 62
0
  0
3DFACE
  8
Cylinder3
 10
2.322717
 20
1.616579
 30
-1.446100
 11
2.258823
 21
1.616579
 31
-1.488793
 12
2.258823
 22
-0.200920
 32
-1.488793
 13
2.322717
 23
-0.200920
 33
-1.446100
 62
0
  0
3DFACE
  8
Cylinder3
 10
2.365410
 20
1.616579
 30
-1.382206
 11
2.322717
 21
1.616579
 31
-1.446100
 12
2.322717
 22
-0.200920
 32
-1.446100
 13
2.365410
 23
-0.200920
 33
-1.382206
 62
0
  0
3DFACE
  8
Cylinder3
 10
2.380401
 20
1.616579
 30
-1.306839
 11
2.365410
 21
1.616579
 31
-1.382206
 12
2.365410
 22
-0.200920
 32
-1.382206
 13
2.380401
 23
-0.200920
 33
-1.306839
 62
0
  0
3DFACE
  8
Cylinder3
 10
2.365410
 20
1.616579
 30
-1.231471
 11
2.380401
 21
1.616579
 31
-1.306839
 12
2.380401
 22
-0.200920
 32
-1.306839
 13
2.365410
 23
-0.200920
 33
-1.231471
 62
0
  0
3DFACE
  8
Cylinder3
 10
2.322717
 20
1.616579
 30
-1.167577
 11
2.365410
 21
1.616579
 31
-1.231471
 12
2.365410
 22
-0.200920
 32
-1.231471
 13
2.322717
 23
-0.200920
 33
-1.167577
 62
0
  0
3DFACE
  8
Cylinder3
 10
2.258823
 20
1.616579
 30
-1.124884
 11
2.322717
 21
1.616579
 31
-1.167577
 12
2.322717
 22
-0.200920
 32
-1.167577
 13
2.258823
 23
-0.200920
 33
-1.124884
 62
0
  0
3DFACE
  8
Cylinder3
 10
2.183455
 20
1.616579
 30
-1.109893
 11
2.258823
 21
1.616579
 31
-1.124884
 12
2.258823
 22
-0.200920
 32
-1.124884
 13
2.183455
 23
-0.200920
 33
-1.109892
 62
0
  0
3DFACE
  8
Cylinder3
 10
2.108088
 20
1.616579
 30
-1.124884
 11
2.183455
 21
1.616579
 31
-1.109893
 12
2.183455
 22
-0.200920
 32
-1.109892
 13
2.108088
 23
-0.200920
 33
-1.124884
 62
0
  0
3DFACE
  8
Cylinder3
 10
2.044194
 20
1.616579
 30
-1.167577
 11
2.108088
 21
1.616579
 31
-1.124884
 12
2.108088
 22
-0.200920
 32
-1.124884
 13
2.044194
 23
-0.200920
 33
-1.167577
 62
0
  0
3DFACE
  8
Cylinder3
 10
2.001501
 20
1.616579
 30
-1.231471
 11
2.044194
 21
1.616579
 31
-1.167577
 12
2.044194
 22
-0.200920
 32
-1.167577
 13
2.001501
 23
-0.200920
 33
-1.231471
 62
0
  0
3DFACE
  8
Cylinder3
 10
1.986510
 20
1.616579
 30
-1.306839
 11
2.001501
 21
1.616579
 31
-1.231471
 12
2.001501
 22
-0.200920
 32
-1.231471
 13
1.986509
 23
-0.200920
 33
-1.306839
 62
0
  0
3DFACE
  8
Cylinder3
 10
2.108088
 20
-0.200920
 30
-1.488793
 11
2.258823
 21
-0.200920
 31
-1.488793
 12
2.183455
 22
-0.200920
 32
-1.503785
 13
2.183455
 23
-0.200920
 33
-1.503785
 62
0
  0
3DFACE
  8
Cylinder3
 10
2.322717
 20
-0.200920
 30
-1.446100
 11
2.258823
 21
-0.200920
 31
-1.488793
 12
2.108088
 22
-0.200920
 32
-1.488793
 13
2.108088
 23
-0.200920
 33
-1.488793
 62
0
  0
3DFACE
  8
Cylinder3
 10
2.044194
 20
-0.200920
 30
-1.446100
 11
2.322717
 21
-0.200920
 31
-1.446100
 12
2.108088
 22
-0.200920
 32
-1.488793
 13
2.108088
 23
-0.200920
 33
-1.488793
 62
0
  0
3DFACE
  8
Cylinder3
 10
2.365410
 20
-0.200920
 30
-1.382206
 11
2.322717
 21
-0.200920
 31
-1.446100
 12
2.044194
 22
-0.200920
 32
-1.446100
 13
2.044194
 23
-0.200920
 33
-1.446100
 62
0
  0
3DFACE
  8
Cylinder3
 10
2.001501
 20
-0.200920
 30
-1.382206
 11
2.365410
 21
-0.200920
 31
-1.382206
 12
2.044194
 22
-0.200920
 32
-1.446100
 13
2.044194
 23
-0.200920
 33
-1.446100
 62
0
  0
3DFACE
  8
Cylinder3
 10
1.986509
 20
-0.200920
 30
-1.306839
 11
2.365410
 21
-0.200920
 31
-1.382206
 12
2.001501
 22
-0.200920
 32
-1.382206
 13
2.001501
 23
-0.200920
 33
-1.382206
 62
0
  0
3DFACE
  8
Cylinder3
 10
2.380401
 20
-0.200920
 30
-1.306839
 11
2.365410
 21
-0.200920
 31
-1.382206
 12
1.986509
 22
-0.200920
 32
-1.306839
 13
1.986509
 23
-0.200920
 33
-1.306839
 62
0
  0
3DFACE
  8
Cylinder3
 10
2.365410
 20
-0.200920
 30
-1.231471
 11
2.380401
 21
-0.200920
 31
-1.306839
 12
1.986509
 22
-0.200920
 32
-1.306839
 13
1.986509
 23
-0.200920
 33
-1.306839
 62
0
  0
3DFACE
  8
Cylinder3
 10
2.001501
 20
-0.200920
 30
-1.231471
 11
2.365410
 21
-0.200920
 31
-1.231471
 12
1.986509
 22
-0.200920
 32
-1.306839
 13
1.986509
 23
-0.200920
 33
-1.306839
 62
0
  0
3DFACE
  8
Cylinder3
 10
2.322717
 20
-0.200920
 30
-1.167577
 11
2.365410
 21
-0.200920
 31
-1.231471
 12
2.001501
 22
-0.200920
 32
-1.231471
 13
2.001501
 23
-0.200920
 33
-1.231471
 62
0
  0
3DFACE
  8
Cylinder3
 10
2.044194
 20
-0.200920
 30
-1.167577
 11
2.322717
 21
-0.200920
 31
-1.167577
 12
2.001501
 22
-0.200920
 32
-1.231471
 13
2.001501
 23
-0.200920
 33
-1.231471
 62
0
  0
3DFACE
  8
Cylinder3
 10
2.258823
 20
-0.200920
 30
-1.124884
 11
2.322717
 21
-0.200920
 31
-1.167577
 12
2.044194
 22
-0.200920
 32
-1.167577
 13
2.044194
 23
-0.200920
 33
-1.167577
 62
0
  0
3DFACE
  8
Cylinder3
 10
2.108088
 20
-0.200920
 30
-1.124884
 11
2.258823
 21
-0.200920
 31
-1.124884
 12
2.044194
 22
-0.200920
 32
-1.167577
 13
2.044194
 23
-0.200920
 33
-1.167577
 62
0
  0
3DFACE
  8
Cylinder3
 10
2.183455
 20
-0.200920
 30
-1.109892
 11
2.258823
 21
-0.200920
 31
-1.124884
 12
2.108088
 22
-0.200920
 32
-1.124884
 13
2.108088
 23
-0.200920
 33
-1.124884
 62
0
  0
3DFACE
  8
Cylinder3
 10
2.135005
 20
1.616579
 30
-1.423809
 11
2.044194
 21
1.616579
 31
-1.446100
 12
2.183455
 22
1.616579
 32
-1.433446
 13
2.183455
 23
1.616579
 33
-1.433446
 62
0
  0
3DFACE
  8
Cylinder3
 10
2.093930
 20
1.616579
 30
-1.396364
 11
2.044194
 21
1.616579
 31
-1.446100
 12
2.135005
 22
1.616579
 32
-1.423809
 13
2.135005
 23
1.616579
 33
-1.423809
 62
0
  0
3DFACE
  8
Cylinder3
 10
2.001501
 20
1.616579
 30
-1.382206
 11
2.044194
 21
1.616579
 31
-1.446100
 12
2.093930
 22
1.616579
 32
-1.396364
 13
2.093930
 23
1.616579
 33
-1.396364
 62
0
  0
3DFACE
  8
Cylinder3
 10
2.066485
 20
1.616579
 30
-1.355289
 11
2.001501
 21
1.616579
 31
-1.382206
 12
2.093930
 22
1.616579
 32
-1.396364
 13
2.093930
 23
1.616579
 33
-1.396364
 62
0
  0
3DFACE
  8
Cylinder3
 10
1.986510
 20
1.616579
 30
-1.306839
 11
2.001501
 21
1.616579
 31
-1.382206
 12
2.066485
 22
1.616579
 32
-1.355289
 13
2.066485
 23
1.616579
 33
-1.355289
 62
0
  0
3DFACE
  8
Cylinder3
 10
2.056848
 20
1.616579
 30
-1.306839
 11
1.986510
 21
1.616579
 31
-1.306839
 12
2.066485
 22
1.616579
 32
-1.355289
 13
2.066485
 23
1.616579
 33
-1.355289
 62
0
  0
3DFACE
  8
Cylinder3
 10
2.066485
 20
1.616579
 30
-1.258388
 11
1.986510
 21
1.616579
 31
-1.306839
 12
2.056848
 22
1.616579
 32
-1.306839
 13
2.056848
 23
1.616579
 33
-1.306839
 62
0
  0
3DFACE
  8
Cylinder3
 10
2.001501
 20
1.616579
 30
-1.231471
 11
1.986510
 21
1.616579
 31
-1.306839
 12
2.066485
 22
1.616579
 32
-1.258388
 13
2.066485
 23
1.616579
 33
-1.258388
 62
0
  0
3DFACE
  8
Cylinder3
 10
2.093930
 20
1.616579
 30
-1.217313
 11
2.001501
 21
1.616579
 31
-1.231471
 12
2.066485
 22
1.616579
 32
-1.258388
 13
2.066485
 23
1.616579
 33
-1.258388
 62
0
  0
3DFACE
  8
Cylinder3
 10
2.135005
 20
1.616579
 30
-1.189868
 11
2.001501
 21
1.616579
 31
-1.231471
 12
2.093930
 22
1.616579
 32
-1.217313
 13
2.093930
 23
1.616579
 33
-1.217313
 62
0
  0
3DFACE
  8
Cylinder3
 10
2.044194
 20
1.616579
 30
-1.167577
 11
2.001501
 21
1.616579
 31
-1.231471
 12
2.135005
 22
1.616579
 32
-1.189868
 13
2.135005
 23
1.616579
 33
-1.189868
 62
0
  0
3DFACE
  8
Cylinder3
 10
2.044194
 20
1.616579
 30
-1.167577
 11
2.135005
 21
1.616579
 31
-1.189868
 12
2.183455
 22
1.616579
 32
-1.180230
 13
2.183455
 23
1.616579
 33
-1.180230
 62
0
  0
3DFACE
  8
Cylinder3
 10
2.322717
 20
1.616579
 30
-1.167577
 11
2.044194
 21
1.616579
 31
-1.167577
 12
2.183455
 22
1.616579
 32
-1.180230
 13
2.183455
 23
1.616579
 33
-1.180230
 62
0
  0
3DFACE
  8
Cylinder3
 10
2.108088
 20
1.616579
 30
-1.124884
 11
2.044194
 21
1.616579
 31
-1.167577
 12
2.322717
 22
1.616579
 32
-1.167577
 13
2.322717
 23
1.616579
 33
-1.167577
 62
0
  0
3DFACE
  8
Cylinder3
 10
2.258823
 20
1.616579
 30
-1.124884
 11
2.108088
 21
1.616579
 31
-1.124884
 12
2.322717
 22
1.616579
 32
-1.167577
 13
2.322717
 23
1.616579
 33
-1.167577
 62
0
  0
3DFACE
  8
Cylinder3
 10
2.183455
 20
1.616579
 30
-1.109893
 11
2.108088
 21
1.616579
 31
-1.124884
 12
2.258823
 22
1.616579
 32
-1.124884
 13
2.258823
 23
1.616579
 33
-1.124884
 62
0
  0
3DFACE
  8
Cylinder3
 10
2.258823
 20
1.616579
 30
-1.488793
 11
2.108088
 21
1.616579
 31
-1.488793
 12
2.183455
 22
1.616579
 32
-1.503784
 13
2.183455
 23
1.616579
 33
-1.503784
 62
0
  0
3DFACE
  8
Cylinder3
 10
2.044194
 20
1.616579
 30
-1.446100
 11
2.108088
 21
1.616579
 31
-1.488793
 12
2.258823
 22
1.616579
 32
-1.488793
 13
2.258823
 23
1.616579
 33
-1.488793
 62
0
  0
3DFACE
  8
Cylinder3
 10
2.322717
 20
1.616579
 30
-1.446100
 11
2.044194
 21
1.616579
 31
-1.446100
 12
2.258823
 22
1.616579
 32
-1.488793
 13
2.258823
 23
1.616579
 33
-1.488793
 62
0
  0
3DFACE
  8
Cylinder3
 10
2.183455
 20
1.616579
 30
-1.433446
 11
2.044194
 21
1.616579
 31
-1.446100
 12
2.322717
 22
1.616579
 32
-1.446100
 13
2.322717
 23
1.616579
 33
-1.446100
 62
0
  0
3DFACE
  8
Cylinder3
 10
2.231906
 20
1.616579
 30
-1.423809
 11
2.183455
 21
1.616579
 31
-1.433446
 12
2.322717
 22
1.616579
 32
-1.446100
 13
2.322717
 23
1.616579
 33
-1.446100
 62
0
  0
3DFACE
  8
Cylinder3
 10
2.272981
 20
1.616579
 30
-1.396364
 11
2.231906
 21
1.616579
 31
-1.423809
 12
2.322717
 22
1.616579
 32
-1.446100
 13
2.322717
 23
1.616579
 33
-1.446100
 62
0
  0
3DFACE
  8
Cylinder3
 10
2.365410
 20
1.616579
 30
-1.382206
 11
2.272981
 21
1.616579
 31
-1.396364
 12
2.322717
 22
1.616579
 32
-1.446100
 13
2.322717
 23
1.616579
 33
-1.446100
 62
0
  0
3DFACE
  8
Cylinder3
 10
2.300426
 20
1.616579
 30
-1.355289
 11
2.272981
 21
1.616579
 31
-1.396364
 12
2.365410
 22
1.616579
 32
-1.382206
 13
2.365410
 23
1.616579
 33
-1.382206
 62
0
  0
3DFACE
  8
Cylinder3
 10
2.310063
 20
1.616579
 30
-1.306839
 11
2.300426
 21
1.616579
 31
-1.355289
 12
2.365410
 22
1.616579
 32
-1.382206
 13
2.365410
 23
1.616579
 33
-1.382206
 62
0
  0
3DFACE
  8
Cylinder3
 10
2.380401
 20
1.616579
 30
-1.306839
 11
2.310063
 21
1.616579
 31
-1.306839
 12
2.365410
 22
1.616579
 32
-1.382206
 13
2.365410
 23
1.616579
 33
-1.382206
 62
0
  0
3DFACE
  8
Cylinder3
 10
2.300426
 20
1.616579
 30
-1.258388
 11
2.310063
 21
1.616579
 31
-1.306839
 12
2.380401
 22
1.616579
 32
-1.306839
 13
2.380401
 23
1.616579
 33
-1.306839
 62
0
  0
3DFACE
  8
Cylinder3
 10
2.365410
 20
1.616579
 30
-1.231471
 11
2.300426
 21
1.616579
 31
-1.258388
 12
2.380401
 22
1.616579
 32
-1.306839
 13
2.380401
 23
1.616579
 33
-1.306839
 62
0
  0
3DFACE
  8
Cylinder3
 10
2.272981
 20
1.616579
 30
-1.217313
 11
2.300426
 21
1.616579
 31
-1.258388
 12
2.365410
 22
1.616579
 32
-1.231471
 13
2.365410
 23
1.616579
 33
-1.231471
 62
0
  0
3DFACE
  8
Cylinder3
 10
2.231906
 20
1.616579
 30
-1.189868
 11
2.272981
 21
1.616579
 31
-1.217313
 12
2.365410
 22
1.616579
 32
-1.231471
 13
2.365410
 23
1.616579
 33
-1.231471
 62
0
  0
3DFACE
  8
Cylinder3
 10
2.322717
 20
1.616579
 30
-1.167577
 11
2.231906
 21
1.616579
 31
-1.189868
 12
2.365410
 22
1.616579
 32
-1.231471
 13
2.365410
 23
1.616579
 33
-1.231471
 62
0
  0
3DFACE
  8
Cylinder3
 10
2.322717
 20
1.616579
 30
-1.167577
 11
2.183455
 21
1.616579
 31
-1.180230
 12
2.231906
 22
1.616579
 32
-1.189868
 13
2.231906
 23
1.616579
 33
-1.189868
 62
0
  0
3DFACE
  8
Cylinder3
 10
2.300425
 20
0.610736
 30
-1.258388
 11
2.310063
 21
0.610736
 31
-1.306839
 12
2.310063
 22
1.616579
 32
-1.306839
 13
2.300426
 23
1.616579
 33
-1.258388
 62
1
  0
3DFACE
  8
Cylinder3
 10
2.272981
 20
0.610736
 30
-1.217313
 11
2.300425
 21
0.610736
 31
-1.258388
 12
2.300426
 22
1.616579
 32
-1.258388
 13
2.272981
 23
1.616579
 33
-1.217313
 62
1
  0
3DFACE
  8
Cylinder3
 10
2.231906
 20
0.610736
 30
-1.189869
 11
2.272981
 21
0.610736
 31
-1.217313
 12
2.272981
 22
1.616579
 32
-1.217313
 13
2.231906
 23
1.616579
 33
-1.189868
 62
1
  0
3DFACE
  8
Cylinder3
 10
2.183455
 20
0.610736
 30
-1.180231
 11
2.231906
 21
0.610736
 31
-1.189869
 12
2.231906
 22
1.616579
 32
-1.189868
 13
2.183455
 23
1.616579
 33
-1.180230
 62
1
  0
3DFACE
  8
Cylinder3
 10
2.135005
 20
0.610736
 30
-1.189869
 11
2.183455
 21
0.610736
 31
-1.180231
 12
2.183455
 22
1.616579
 32
-1.180230
 13
2.135005
 23
1.616579
 33
-1.189868
 62
1
  0
3DFACE
  8
Cylinder3
 10
2.093930
 20
0.610736
 30
-1.217313
 11
2.135005
 21
0.610736
 31
-1.189869
 12
2.135005
 22
1.616579
 32
-1.189868
 13
2.093930
 23
1.616579
 33
-1.217313
 62
1
  0
3DFACE
  8
Cylinder3
 10
2.066486
 20
0.610736
 30
-1.258388
 11
2.093930
 21
0.610736
 31
-1.217313
 12
2.093930
 22
1.616579
 32
-1.217313
 13
2.066485
 23
1.616579
 33
-1.258388
 62
1
  0
3DFACE
  8
Cylinder3
 10
2.056848
 20
0.610736
 30
-1.306839
 11
2.066486
 21
0.610736
 31
-1.258388
 12
2.066485
 22
1.616579
 32
-1.258388
 13
2.056848
 23
1.616579
 33
-1.306839
 62
1
  0
3DFACE
  8
Cylinder3
 10
2.231906
 20
0.610736
 30
-1.423809
 11
2.135005
 21
0.610736
 31
-1.423809
 12
2.183455
 22
0.610736
 32
-1.433446
 13
2.183455
 23
0.610736
 33
-1.433446
 62
1
  0
3DFACE
  8
Cylinder3
 10
2.093930
 20
0.610736
 30
-1.396364
 11
2.135005
 21
0.610736
 31
-1.423809
 12
2.231906
 22
0.610736
 32
-1.423809
 13
2.231906
 23
0.610736
 33
-1.423809
 62
1
  0
3DFACE
  8
Cylinder3
 10
2.272981
 20
0.610736
 30
-1.396364
 11
2.093930
 21
0.610736
 31
-1.396364
 12
2.231906
 22
0.610736
 32
-1.423809
 13
2.231906
 23
0.610736
 33
-1.423809
 62
1
  0
3DFACE
  8
Cylinder3
 10
2.066486
 20
0.610736
 30
-1.355289
 11
2.093930
 21
0.610736
 31
-1.396364
 12
2.272981
 22
0.610736
 32
-1.396364
 13
2.272981
 23
0.610736
 33
-1.396364
 62
1
  0
3DFACE
  8
Cylinder3
 10
2.300425
 20
0.610736
 30
-1.355289
 11
2.066486
 21
0.610736
 31
-1.355289
 12
2.272981
 22
0.610736
 32
-1.396364
 13
2.272981
 23
0.610736
 33
-1.396364
 62
1
  0
3DFACE
  8
Cylinder3
 10
2.056848
 20
0.610736
 30
-1.306839
 11
2.066486
 21
0.610736
 31
-1.355289
 12
2.300425
 22
0.610736
 32
-1.355289
 13
2.300425
 23
0.610736
 33
-1.355289
 62
1
  0
3DFACE
  8
Cylinder3
 10
2.310063
 20
0.610736
 30
-1.306839
 11
2.056848
 21
0.610736
 31
-1.306839
 12
2.300425
 22
0.610736
 32
-1.355289
 13
2.300425
 23
0.610736
 33
-1.355289
 62
1
  0
3DFACE
  8
Cylinder3
 10
2.066486
 20
0.610736
 30
-1.258388
 11
2.056848
 21
0.610736
 31
-1.306839
 12
2.310063
 22
0.610736
 32
-1.306839
 13
2.310063
 23
0.610736
 33
-1.306839
 62
1
  0
3DFACE
  8
Cylinder3
 10
2.300425
 20
0.610736
 30
-1.258388
 11
2.066486
 21
0.610736
 31
-1.258388
 12
2.310063
 22
0.610736
 32
-1.306839
 13
2.310063
 23
0.610736
 33
-1.306839
 62
1
  0
3DFACE
  8
Cylinder3
 10
2.093930
 20
0.610736
 30
-1.217313
 11
2.066486
 21
0.610736
 31
-1.258388
 12
2.300425
 22
0.610736
 32
-1.258388
 13
2.300425
 23
0.610736
 33
-1.258388
 62
1
  0
3DFACE
  8
Cylinder3
 10
2.272981
 20
0.610736
 30
-1.217313
 11
2.093930
 21
0.610736
 31
-1.217313
 12
2.300425
 22
0.610736
 32
-1.258388
 13
2.300425
 23
0.610736
 33
-1.258388
 62
1
  0
3DFACE
  8
Cylinder3
 10
2.135005
 20
0.610736
 30
-1.189869
 11
2.093930
 21
0.610736
 31
-1.217313
 12
2.272981
 22
0.610736
 32
-1.217313
 13
2.272981
 23
0.610736
 33
-1.217313
 62
1
  0
3DFACE
  8
Cylinder3
 10
2.231906
 20
0.610736
 30
-1.189869
 11
2.135005
 21
0.610736
 31
-1.189869
 12
2.272981
 22
0.610736
 32
-1.217313
 13
2.272981
 23
0.610736
 33
-1.217313
 62
1
  0
3DFACE
  8
Cylinder3
 10
2.183455
 20
0.610736
 30
-1.180231
 11
2.135005
 21
0.610736
 31
-1.189869
 12
2.231906
 22
0.610736
 32
-1.189869
 13
2.231906
 23
0.610736
 33
-1.189869
 62
1
  0
3DFACE
  8
Cylinder3
 10
2.300425
 20
0.610736
 30
-1.355289
 11
2.272981
 21
0.610736
 31
-1.396364
 12
2.272981
 22
1.616579
 32
-1.396364
 13
2.300426
 23
1.616579
 33
-1.355289
 62
1
  0
3DFACE
  8
Cylinder3
 10
2.310063
 20
0.610736
 30
-1.306839
 11
2.300425
 21
0.610736
 31
-1.355289
 12
2.300426
 22
1.616579
 32
-1.355289
 13
2.310063
 23
1.616579
 33
-1.306839
 62
1
  0
3DFACE
  8
Cylinder3
 10
2.272981
 20
0.610736
 30
-1.396364
 11
2.231906
 21
0.610736
 31
-1.423809
 12
2.231906
 22
1.616579
 32
-1.423809
 13
2.272981
 23
1.616579
 33
-1.396364
 62
1
  0
3DFACE
  8
Cylinder3
 10
2.231906
 20
0.610736
 30
-1.423809
 11
2.183455
 21
0.610736
 31
-1.433446
 12
2.183455
 22
1.616579
 32
-1.433446
 13
2.231906
 23
1.616579
 33
-1.423809
 62
1
  0
3DFACE
  8
Cylinder3
 10
2.183455
 20
0.610736
 30
-1.433446
 11
2.135005
 21
0.610736
 31
-1.423809
 12
2.135005
 22
1.616579
 32
-1.423809
 13
2.183455
 23
1.616579
 33
-1.433446
 62
1
  0
3DFACE
  8
Cylinder3
 10
2.135005
 20
0.610736
 30
-1.423809
 11
2.093930
 21
0.610736
 31
-1.396364
 12
2.093930
 22
1.616579
 32
-1.396364
 13
2.135005
 23
1.616579
 33
-1.423809
 62
1
  0
3DFACE
  8
Cylinder3
 10
2.093930
 20
0.610736
 30
-1.396364
 11
2.066486
 21
0.610736
 31
-1.355289
 12
2.066485
 22
1.616579
 32
-1.355289
 13
2.093930
 23
1.616579
 33
-1.396364
 62
1
  0
3DFACE
  8
Cylinder3
 10
2.066486
 20
0.610736
 30
-1.355289
 11
2.056848
 21
0.610736
 31
-1.306839
 12
2.056848
 22
1.616579
 32
-1.306839
 13
2.066485
 23
1.616579
 33
-1.355289
 62
1
  0
3DFACE
  8
Cube2
 10
2.357195
 20
-0.546863
 30
-1.692862
 11
1.937220
 21
-0.690621
 31
-1.481963
 12
1.969463
 22
-0.677964
 32
-0.609092
 13
2.618476
 23
-0.546812
 33
-0.283128
 62
0
  0
3DFACE
  8
Cube2
 10
1.937220
 20
-0.690621
 30
-1.481963
 11
2.357195
 21
-0.546863
 31
-1.692862
 12
2.378727
 22
0.503910
 32
-1.692862
 13
1.933789
 23
0.622416
 33
-1.481963
 62
0
  0
3DFACE
  8
Cube2
 10
2.618476
 20
-0.546812
 30
-0.283128
 11
2.599954
 21
0.503859
 31
-0.283128
 12
2.378727
 22
0.503910
 32
-1.692862
 13
2.357195
 23
-0.546863
 33
-1.692862
 62
0
  0
3DFACE
  8
Cube2
 10
1.819784
 20
-0.677964
 30
0.514815
 11
1.819784
 21
0.635011
 31
0.514815
 12
2.599954
 22
0.503859
 32
-0.283128
 13
2.618476
 23
-0.546812
 33
-0.283128
 62
0
  0
3DFACE
  8
Cube2
 10
1.819784
 20
0.635011
 30
0.514815
 11
1.969463
 21
0.635011
 31
-0.609092
 12
2.599954
 22
0.503859
 32
-0.283128
 13
2.599954
 23
0.503859
 33
-0.283128
 62
0
  0
3DFACE
  8
Cube2
 10
1.819784
 20
0.635011
 30
0.514815
 11
1.819784
 21
-0.677964
 31
0.514815
 12
1.969463
 22
-0.677964
 32
-0.609092
 13
1.969463
 23
0.635011
 33
-0.609092
 62
0
  0
3DFACE
  8
Cube2
 10
2.378727
 20
0.503910
 30
-1.692862
 11
2.599954
 21
0.503859
 31
-0.283128
 12
1.969463
 22
0.635011
 32
-0.609092
 13
1.933789
 23
0.622416
 33
-1.481963
 62
0
  0
3DFACE
  8
Cube2
 10
1.819784
 20
-0.677964
 30
0.514815
 11
2.618476
 21
-0.546812
 31
-0.283128
 12
1.969463
 22
-0.677964
 32
-0.609092
 13
1.969463
 23
-0.677964
 33
-0.609092
 62
0
  0
3DFACE
  8
Cube2
 10
1.933789
 20
0.622416
 30
-1.481963
 11
1.969463
 21
0.635011
 31
-0.609092
 12
1.969463
 22
-0.677964
 32
-0.609092
 13
1.937220
 23
-0.690621
 33
-1.481963
 62
0
  0
3DFACE
  8
Cylinder
 10
2.491239
 20
-0.677964
 30
-0.164461
 11
2.491240
 21
0.635011
 31
-0.164461
 12
1.937426
 22
0.635011
 32
0.395803
 13
1.937426
 23
-0.677964
 33
0.395803
 62
0
  0
3DFACE
  8
Cylinder
 10
2.439713
 20
-0.677973
 30
0.358457
 11
1.937426
 21
-0.677964
 31
0.395803
 12
2.598841
 22
0.635011
 32
0.553954
 13
2.598841
 23
0.635011
 33
0.553954
 62
0
  0
3DFACE
  8
Cylinder
 10
2.491240
 20
0.635011
 30
-0.164461
 11
2.491239
 21
-0.677964
 31
-0.164461
 12
2.598841
 22
0.635011
 32
0.553954
 13
2.598841
 23
0.635011
 33
0.553954
 62
0
  0
3DFACE
  8
Cylinder
 10
2.471508
 20
0.635011
 30
0.385696
 11
2.435958
 21
0.635011
 31
0.007914
 12
2.491240
 22
0.635011
 32
-0.164461
 13
2.491240
 23
0.635011
 33
-0.164461
 62
0
  0
3DFACE
  8
Cylinder
 10
2.598841
 20
0.635011
 30
0.553954
 11
2.471508
 21
0.635011
 31
0.385696
 12
2.491240
 22
0.635011
 32
-0.164461
 13
2.491240
 23
0.635011
 33
-0.164461
 62
0
  0
3DFACE
  8
Cylinder
 10
2.598841
 20
0.635011
 30
0.553954
 11
1.937426
 21
0.635011
 31
0.395803
 12
2.471508
 22
0.635011
 32
0.385696
 13
2.471508
 23
0.635011
 33
0.385696
 62
0
  0
3DFACE
  8
Cylinder
 10
2.112346
 20
0.635011
 30
0.316644
 11
2.491240
 21
0.635011
 31
-0.164461
 12
2.435958
 22
0.635011
 32
0.007914
 13
2.435958
 23
0.635011
 33
0.007914
 62
0
  0
3DFACE
  8
Cylinder
 10
1.937426
 20
0.635011
 30
0.395803
 11
2.491240
 21
0.635011
 31
-0.164461
 12
2.112346
 22
0.635011
 32
0.316644
 13
2.112346
 23
0.635011
 33
0.316644
 62
0
  0
3DFACE
  8
Cylinder
 10
1.937426
 20
0.635011
 30
0.395803
 11
2.112346
 21
0.635011
 31
0.316644
 12
2.471508
 22
0.635011
 32
0.385696
 13
2.471508
 23
0.635011
 33
0.385696
 62
0
  0
3DFACE
  8
Cylinder
 10
2.439713
 20
-0.677973
 30
0.358457
 11
2.491239
 21
-0.677964
 31
-0.164461
 12
1.937426
 22
-0.677964
 32
0.395803
 13
1.937426
 23
-0.677964
 33
0.395803
 62
0
  0
3DFACE
  8
Cylinder
 10
2.439713
 20
-0.677973
 30
0.358457
 11
2.598841
 21
0.635011
 31
0.553954
 12
2.491239
 22
-0.677964
 32
-0.164461
 13
2.491239
 23
-0.677964
 33
-0.164461
 62
0
  0
3DFACE
  8
Cylinder
 10
1.937426
 20
0.635011
 30
0.395803
 11
2.598841
 21
0.635011
 31
0.553954
 12
1.937426
 22
-0.677964
 32
0.395803
 13
1.937426
 23
-0.677964
 33
0.395803
 62
0
  0
3DFACE
  8
Cylinder
 10
2.435958
 20
-0.082065
 30
0.007914
 11
2.112346
 21
-0.082065
 31
0.316644
 12
2.112346
 22
0.635011
 32
0.316644
 13
2.435958
 23
0.635011
 33
0.007914
 62
1
  0
3DFACE
  8
Cylinder
 10
2.471508
 20
-0.082065
 30
0.385696
 11
2.435958
 21
-0.082065
 31
0.007914
 12
2.435958
 22
0.635011
 32
0.007914
 13
2.471508
 23
0.635011
 33
0.385696
 62
1
  0
3DFACE
  8
Cylinder
 10
2.471508
 20
-0.082065
 30
0.385696
 11
2.112346
 21
-0.082065
 31
0.316644
 12
2.435958
 22
-0.082065
 32
0.007914
 13
2.435958
 23
-0.082065
 33
0.007914
 62
1
  0
3DFACE
  8
Cylinder
 10
2.112346
 20
-0.082065
 30
0.316644
 11
2.471508
 21
-0.082065
 31
0.385696
 12
2.471508
 22
0.635011
 32
0.385696
 13
2.112346
 23
0.635011
 33
0.316644
 62
1
  0
3DFACE
  8
Cube1
 10
-0.774656
 20
-1.833385
 30
-0.347806
 11
-0.407190
 21
-0.677969
 31
-1.923397
 12
-1.969471
 22
-0.677969
 32
-0.609163
 13
-1.969471
 23
-0.677969
 33
-0.609163
 62
0
  0
3DFACE
  8
Cube1
 10
-0.407017
 20
0.635013
 30
-1.923397
 11
-1.969471
 21
0.635014
 31
-0.609164
 12
-1.969471
 22
-0.677969
 32
-0.609163
 13
-0.407190
 23
-0.677969
 33
-1.923397
 62
0
  0
3DFACE
  8
Cube1
 10
-1.969471
 20
0.635014
 30
-0.609164
 11
-1.819901
 21
0.635014
 31
0.514838
 12
-1.819901
 22
-0.677969
 32
0.514838
 13
-1.969471
 23
-0.677969
 33
-0.609163
 62
0
  0
3DFACE
  8
Cube1
 10
-1.200312
 20
0.635013
 30
1.362919
 11
-1.200312
 21
-0.677970
 31
1.362908
 12
-1.819901
 22
-0.677969
 32
0.514838
 13
-1.819901
 23
0.635014
 33
0.514838
 62
0
  0
3DFACE
  8
Cube1
 10
-0.774657
 20
1.833385
 30
-0.347813
 11
-0.974882
 21
1.747100
 31
0.460247
 12
-1.819901
 22
0.635014
 32
0.514838
 13
-1.969471
 23
0.635014
 33
-0.609164
 62
0
  0
3DFACE
  8
Cube1
 10
-0.974882
 20
1.747100
 30
0.460247
 11
-1.200312
 21
-0.677970
 31
1.362908
 12
-1.200312
 22
0.635013
 32
1.362919
 13
-1.200312
 23
0.635013
 33
1.362919
 62
1
  0
3DFACE
  8
Cube1
 10
-0.774656
 20
-1.833385
 30
-0.347806
 11
-1.200312
 21
-0.677970
 31
1.362908
 12
-0.974882
 22
1.747100
 32
0.460247
 13
-0.974882
 23
1.747100
 33
0.460247
 62
1
  0
3DFACE
  8
Cube1
 10
-0.774657
 20
1.833385
 30
-0.347813
 11
-0.774656
 21
-1.833385
 31
-0.347806
 12
-0.974882
 22
1.747100
 32
0.460247
 13
-0.974882
 23
1.747100
 33
0.460247
 62
1
  0
3DFACE
  8
Cube1
 10
-0.407017
 20
0.635013
 30
-1.923397
 11
-0.774656
 21
-1.833385
 31
-0.347806
 12
-0.774657
 22
1.833385
 32
-0.347813
 13
-0.774657
 23
1.833385
 33
-0.347813
 62
1
  0
3DFACE
  8
Cube1
 10
-0.407190
 20
-0.677969
 30
-1.923397
 11
-0.774656
 21
-1.833385
 31
-0.347806
 12
-0.407017
 22
0.635013
 32
-1.923397
 13
-0.407017
 23
0.635013
 33
-1.923397
 62
1
  0
3DFACE
  8
Cube1
 10
-1.819901
 20
0.635014
 30
0.514838
 11
-0.974882
 21
1.747100
 31
0.460247
 12
-1.200312
 22
0.635013
 32
1.362919
 13
-1.200312
 23
0.635013
 33
1.362919
 62
0
  0
3DFACE
  8
Cube1
 10
-1.969471
 20
0.635014
 30
-0.609164
 11
-0.407017
 21
0.635013
 31
-1.923397
 12
-0.774657
 22
1.833385
 32
-0.347813
 13
-0.774657
 23
1.833385
 33
-0.347813
 62
0
  0
3DFACE
  8
Cube1
 10
-0.774656
 20
-1.833385
 30
-0.347806
 11
-1.969471
 21
-0.677969
 31
-0.609163
 12
-1.819901
 22
-0.677969
 32
0.514838
 13
-1.819901
 23
-0.677969
 33
0.514838
 62
0
  0
3DFACE
  8
Cube1
 10
-1.819901
 20
-0.677969
 30
0.514838
 11
-1.200312
 21
-0.677970
 31
1.362908
 12
-0.774656
 22
-1.833385
 32
-0.347806
 13
-0.774656
 23
-1.833385
 33
-0.347806
 62
0
  0
3DFACE
  8
Cylinder3001
 10
-2.001501
 20
-0.200920
 30
-1.382206
 11
-1.986509
 21
-0.200920
 31
-1.306839
 12
-1.986510
 22
1.616579
 32
-1.306839
 13
-2.001501
 23
1.616579
 33
-1.382206
 62
0
  0
3DFACE
  8
Cylinder3001
 10
-2.044194
 20
-0.200920
 30
-1.446100
 11
-2.001501
 21
-0.200920
 31
-1.382206
 12
-2.001501
 22
1.616579
 32
-1.382206
 13
-2.044194
 23
1.616579
 33
-1.446100
 62
0
  0
3DFACE
  8
Cylinder3001
 10
-2.108088
 20
-0.200920
 30
-1.488793
 11
-2.044194
 21
-0.200920
 31
-1.446100
 12
-2.044194
 22
1.616579
 32
-1.446100
 13
-2.108088
 23
1.616579
 33
-1.488793
 62
0
  0
3DFACE
  8
Cylinder3001
 10
-2.183455
 20
-0.200920
 30
-1.503785
 11
-2.108088
 21
-0.200920
 31
-1.488793
 12
-2.108088
 22
1.616579
 32
-1.488793
 13
-2.183455
 23
1.616579
 33
-1.503784
 62
0
  0
3DFACE
  8
Cylinder3001
 10
-2.258823
 20
-0.200920
 30
-1.488793
 11
-2.183455
 21
-0.200920
 31
-1.503785
 12
-2.183455
 22
1.616579
 32
-1.503784
 13
-2.258823
 23
1.616579
 33
-1.488793
 62
0
  0
3DFACE
  8
Cylinder3001
 10
-2.322717
 20
-0.200920
 30
-1.446100
 11
-2.258823
 21
-0.200920
 31
-1.488793
 12
-2.258823
 22
1.616579
 32
-1.488793
 13
-2.322717
 23
1.616579
 33
-1.446100
 62
0
  0
3DFACE
  8
Cylinder3001
 10
-2.365410
 20
-0.200920
 30
-1.382206
 11
-2.322717
 21
-0.200920
 31
-1.446100
 12
-2.322717
 22
1.616579
 32
-1.446100
 13
-2.365410
 23
1.616579
 33
-1.382206
 62
0
  0
3DFACE
  8
Cylinder3001
 10
-2.380401
 20
-0.200920
 30
-1.306839
 11
-2.365410
 21
-0.200920
 31
-1.382206
 12
-2.365410
 22
1.616579
 32
-1.382206
 13
-2.380401
 23
1.616579
 33
-1.306839
 62
0
  0
3DFACE
  8
Cylinder3001
 10
-2.365410
 20
-0.200920
 30
-1.231471
 11
-2.380401
 21
-0.200920
 31
-1.306839
 12
-2.380401
 22
1.616579
 32
-1.306839
 13
-2.365410
 23
1.616579
 33
-1.231471
 62
0
  0
3DFACE
  8
Cylinder3001
 10
-2.322717
 20
-0.200920
 30
-1.167577
 11
-2.365410
 21
-0.200920
 31
-1.231471
 12
-2.365410
 22
1.616579
 32
-1.231471
 13
-2.322717
 23
1.616579
 33
-1.167577
 62
0
  0
3DFACE
  8
Cylinder3001
 10
-2.258823
 20
-0.200920
 30
-1.124884
 11
-2.322717
 21
-0.200920
 31
-1.167577
 12
-2.322717
 22
1.616579
 32
-1.167577
 13
-2.258823
 23
1.616579
 33
-1.124884
 62
0
  0
3DFACE
  8
Cylinder3001
 10
-2.183455
 20
-0.200920
 30
-1.109892
 11
-2.258823
 21
-0.200920
 31
-1.124884
 12
-2.258823
 22
1.616579
 32
-1.124884
 13
-2.183455
 23
1.616579
 33
-1.109893
 62
0
  0
3DFACE
  8
Cylinder3001
 10
-2.108088
 20
-0.200920
 30
-1.124884
 11
-2.183455
 21
-0.200920
 31
-1.109892
 12
-2.183455
 22
1.616579
 32
-1.109893
 13
-2.108088
 23
1.616579
 33
-1.124884
 62
0
  0
3DFACE
  8
Cylinder3001
 10
-2.044194
 20
-0.200920
 30
-1.167577
 11
-2.108088
 21
-0.200920
 31
-1.124884
 12
-2.108088
 22
1.616579
 32
-1.124884
 13
-2.044194
 23
1.616579
 33
-1.167577
 62
0
  0
3DFACE
  8
Cylinder3001
 10
-2.001501
 20
-0.200920
 30
-1.231471
 11
-2.044194
 21
-0.200920
 31
-1.167577
 12
-2.044194
 22
1.616579
 32
-1.167577
 13
-2.001501
 23
1.616579
 33
-1.231471
 62
0
  0
3DFACE
  8
Cylinder3001
 10
-1.986509
 20
-0.200920
 30
-1.306839
 11
-2.001501
 21
-0.200920
 31
-1.231471
 12
-2.001501
 22
1.616579
 32
-1.231471
 13
-1.986510
 23
1.616579
 33
-1.306839
 62
0
  0
3DFACE
  8
Cylinder3001
 10
-2.258823
 20
-0.200920
 30
-1.488793
 11
-2.108088
 21
-0.200920
 31
-1.488793
 12
-2.183455
 22
-0.200920
 32
-1.503785
 13
-2.183455
 23
-0.200920
 33
-1.503785
 62
0
  0
3DFACE
  8
Cylinder3001
 10
-2.044194
 20
-0.200920
 30
-1.446100
 11
-2.108088
 21
-0.200920
 31
-1.488793
 12
-2.258823
 22
-0.200920
 32
-1.488793
 13
-2.258823
 23
-0.200920
 33
-1.488793
 62
0
  0
3DFACE
  8
Cylinder3001
 10
-2.322717
 20
-0.200920
 30
-1.446100
 11
-2.044194
 21
-0.200920
 31
-1.446100
 12
-2.258823
 22
-0.200920
 32
-1.488793
 13
-2.258823
 23
-0.200920
 33
-1.488793
 62
0
  0
3DFACE
  8
Cylinder3001
 10
-2.001501
 20
-0.200920
 30
-1.382206
 11
-2.044194
 21
-0.200920
 31
-1.446100
 12
-2.322717
 22
-0.200920
 32
-1.446100
 13
-2.322717
 23
-0.200920
 33
-1.446100
 62
0
  0
3DFACE
  8
Cylinder3001
 10
-2.365410
 20
-0.200920
 30
-1.382206
 11
-2.001501
 21
-0.200920
 31
-1.382206
 12
-2.322717
 22
-0.200920
 32
-1.446100
 13
-2.322717
 23
-0.200920
 33
-1.446100
 62
0
  0
3DFACE
  8
Cylinder3001
 10
-1.986509
 20
-0.200920
 30
-1.306839
 11
-2.001501
 21
-0.200920
 31
-1.382206
 12
-2.365410
 22
-0.200920
 32
-1.382206
 13
-2.365410
 23
-0.200920
 33
-1.382206
 62
0
  0
3DFACE
  8
Cylinder3001
 10
-2.380401
 20
-0.200920
 30
-1.306839
 11
-1.986509
 21
-0.200920
 31
-1.306839
 12
-2.365410
 22
-0.200920
 32
-1.382206
 13
-2.365410
 23
-0.200920
 33
-1.382206
 62
0
  0
3DFACE
  8
Cylinder3001
 10
-2.001501
 20
-0.200920
 30
-1.231471
 11
-1.986509
 21
-0.200920
 31
-1.306839
 12
-2.380401
 22
-0.200920
 32
-1.306839
 13
-2.380401
 23
-0.200920
 33
-1.306839
 62
0
  0
3DFACE
  8
Cylinder3001
 10
-2.365410
 20
-0.200920
 30
-1.231471
 11
-2.001501
 21
-0.200920
 31
-1.231471
 12
-2.380401
 22
-0.200920
 32
-1.306839
 13
-2.380401
 23
-0.200920
 33
-1.306839
 62
0
  0
3DFACE
  8
Cylinder3001
 10
-2.044194
 20
-0.200920
 30
-1.167577
 11
-2.001501
 21
-0.200920
 31
-1.231471
 12
-2.365410
 22
-0.200920
 32
-1.231471
 13
-2.365410
 23
-0.200920
 33
-1.231471
 62
0
  0
3DFACE
  8
Cylinder3001
 10
-2.322717
 20
-0.200920
 30
-1.167577
 11
-2.044194
 21
-0.200920
 31
-1.167577
 12
-2.365410
 22
-0.200920
 32
-1.231471
 13
-2.365410
 23
-0.200920
 33
-1.231471
 62
0
  0
3DFACE
  8
Cylinder3001
 10
-2.108088
 20
-0.200920
 30
-1.124884
 11
-2.044194
 21
-0.200920
 31
-1.167577
 12
-2.322717
 22
-0.200920
 32
-1.167577
 13
-2.322717
 23
-0.200920
 33
-1.167577
 62
0
  0
3DFACE
  8
Cylinder3001
 10
-2.258823
 20
-0.200920
 30
-1.124884
 11
-2.108088
 21
-0.200920
 31
-1.124884
 12
-2.322717
 22
-0.200920
 32
-1.167577
 13
-2.322717
 23
-0.200920
 33
-1.167577
 62
0
  0
3DFACE
  8
Cylinder3001
 10
-2.183455
 20
-0.200920
 30
-1.109892
 11
-2.108088
 21
-0.200920
 31
-1.124884
 12
-2.258823
 22
-0.200920
 32
-1.124884
 13
-2.258823
 23
-0.200920
 33
-1.124884
 62
0
  0
3DFACE
  8
Cylinder3001
 10
-2.135005
 20
1.616579
 30
-1.423809
 11
-2.183455
 21
1.616579
 31
-1.433446
 12
-2.044194
 22
1.616579
 32
-1.446100
 13
-2.044194
 23
1.616579
 33
-1.446100
 62
0
  0
3DFACE
  8
Cylinder3001
 10
-2.093930
 20
1.616579
 30
-1.396364
 11
-2.135005
 21
1.616579
 31
-1.423809
 12
-2.044194
 22
1.616579
 32
-1.446100
 13
-2.044194
 23
1.616579
 33
-1.446100
 62
0
  0
3DFACE
  8
Cylinder3001
 10
-2.001501
 20
1.616579
 30
-1.382206
 11
-2.093930
 21
1.616579
 31
-1.396364
 12
-2.044194
 22
1.616579
 32
-1.446100
 13
-2.044194
 23
1.616579
 33
-1.446100
 62
0
  0
3DFACE
  8
Cylinder3001
 10
-2.066485
 20
1.616579
 30
-1.355289
 11
-2.093930
 21
1.616579
 31
-1.396364
 12
-2.001501
 22
1.616579
 32
-1.382206
 13
-2.001501
 23
1.616579
 33
-1.382206
 62
0
  0
3DFACE
  8
Cylinder3001
 10
-1.986510
 20
1.616579
 30
-1.306839
 11
-2.066485
 21
1.616579
 31
-1.355289
 12
-2.001501
 22
1.616579
 32
-1.382206
 13
-2.001501
 23
1.616579
 33
-1.382206
 62
0
  0
3DFACE
  8
Cylinder3001
 10
-2.056848
 20
1.616579
 30
-1.306839
 11
-2.066485
 21
1.616579
 31
-1.355289
 12
-1.986510
 22
1.616579
 32
-1.306839
 13
-1.986510
 23
1.616579
 33
-1.306839
 62
0
  0
3DFACE
  8
Cylinder3001
 10
-2.066485
 20
1.616579
 30
-1.258388
 11
-2.056848
 21
1.616579
 31
-1.306839
 12
-1.986510
 22
1.616579
 32
-1.306839
 13
-1.986510
 23
1.616579
 33
-1.306839
 62
0
  0
3DFACE
  8
Cylinder3001
 10
-2.001501
 20
1.616579
 30
-1.231471
 11
-2.066485
 21
1.616579
 31
-1.258388
 12
-1.986510
 22
1.616579
 32
-1.306839
 13
-1.986510
 23
1.616579
 33
-1.306839
 62
0
  0
3DFACE
  8
Cylinder3001
 10
-2.093930
 20
1.616579
 30
-1.217313
 11
-2.066485
 21
1.616579
 31
-1.258388
 12
-2.001501
 22
1.616579
 32
-1.231471
 13
-2.001501
 23
1.616579
 33
-1.231471
 62
0
  0
3DFACE
  8
Cylinder3001
 10
-2.135005
 20
1.616579
 30
-1.189868
 11
-2.093930
 21
1.616579
 31
-1.217313
 12
-2.001501
 22
1.616579
 32
-1.231471
 13
-2.001501
 23
1.616579
 33
-1.231471
 62
0
  0
3DFACE
  8
Cylinder3001
 10
-2.044194
 20
1.616579
 30
-1.167577
 11
-2.135005
 21
1.616579
 31
-1.189868
 12
-2.001501
 22
1.616579
 32
-1.231471
 13
-2.001501
 23
1.616579
 33
-1.231471
 62
0
  0
3DFACE
  8
Cylinder3001
 10
-2.044194
 20
1.616579
 30
-1.167577
 11
-2.183455
 21
1.616579
 31
-1.180230
 12
-2.135005
 22
1.616579
 32
-1.189868
 13
-2.135005
 23
1.616579
 33
-1.189868
 62
0
  0
3DFACE
  8
Cylinder3001
 10
-2.044194
 20
1.616579
 30
-1.167577
 11
-2.322717
 21
1.616579
 31
-1.167577
 12
-2.183455
 22
1.616579
 32
-1.180230
 13
-2.183455
 23
1.616579
 33
-1.180230
 62
0
  0
3DFACE
  8
Cylinder3001
 10
-2.258823
 20
1.616579
 30
-1.124884
 11
-2.322717
 21
1.616579
 31
-1.167577
 12
-2.044194
 22
1.616579
 32
-1.167577
 13
-2.044194
 23
1.616579
 33
-1.167577
 62
0
  0
3DFACE
  8
Cylinder3001
 10
-2.108088
 20
1.616579
 30
-1.124884
 11
-2.258823
 21
1.616579
 31
-1.124884
 12
-2.044194
 22
1.616579
 32
-1.167577
 13
-2.044194
 23
1.616579
 33
-1.167577
 62
0
  0
3DFACE
  8
Cylinder3001
 10
-2.183455
 20
1.616579
 30
-1.109893
 11
-2.258823
 21
1.616579
 31
-1.124884
 12
-2.108088
 22
1.616579
 32
-1.124884
 13
-2.108088
 23
1.616579
 33
-1.124884
 62
0
  0
3DFACE
  8
Cylinder3001
 10
-2.108088
 20
1.616579
 30
-1.488793
 11
-2.258823
 21
1.616579
 31
-1.488793
 12
-2.183455
 22
1.616579
 32
-1.503784
 13
-2.183455
 23
1.616579
 33
-1.503784
 62
0
  0
3DFACE
  8
Cylinder3001
 10
-2.322717
 20
1.616579
 30
-1.446100
 11
-2.258823
 21
1.616579
 31
-1.488793
 12
-2.108088
 22
1.616579
 32
-1.488793
 13
-2.108088
 23
1.616579
 33
-1.488793
 62
0
  0
3DFACE
  8
Cylinder3001
 10
-2.044194
 20
1.616579
 30
-1.446100
 11
-2.322717
 21
1.616579
 31
-1.446100
 12
-2.108088
 22
1.616579
 32
-1.488793
 13
-2.108088
 23
1.616579
 33
-1.488793
 62
0
  0
3DFACE
  8
Cylinder3001
 10
-2.183455
 20
1.616579
 30
-1.433446
 11
-2.322717
 21
1.616579
 31
-1.446100
 12
-2.044194
 22
1.616579
 32
-1.446100
 13
-2.044194
 23
1.616579
 33
-1.446100
 62
0
  0
3DFACE
  8
Cylinder3001
 10
-2.231906
 20
1.616579
 30
-1.423809
 11
-2.322717
 21
1.616579
 31
-1.446100
 12
-2.183455
 22
1.616579
 32
-1.433446
 13
-2.183455
 23
1.616579
 33
-1.433446
 62
0
  0
3DFACE
  8
Cylinder3001
 10
-2.272981
 20
1.616579
 30
-1.396364
 11
-2.322717
 21
1.616579
 31
-1.446100
 12
-2.231906
 22
1.616579
 32
-1.423809
 13
-2.231906
 23
1.616579
 33
-1.423809
 62
0
  0
3DFACE
  8
Cylinder3001
 10
-2.365410
 20
1.616579
 30
-1.382206
 11
-2.322717
 21
1.616579
 31
-1.446100
 12
-2.272981
 22
1.616579
 32
-1.396364
 13
-2.272981
 23
1.616579
 33
-1.396364
 62
0
  0
3DFACE
  8
Cylinder3001
 10
-2.300426
 20
1.616579
 30
-1.355289
 11
-2.365410
 21
1.616579
 31
-1.382206
 12
-2.272981
 22
1.616579
 32
-1.396364
 13
-2.272981
 23
1.616579
 33
-1.396364
 62
0
  0
3DFACE
  8
Cylinder3001
 10
-2.310063
 20
1.616579
 30
-1.306839
 11
-2.365410
 21
1.616579
 31
-1.382206
 12
-2.300426
 22
1.616579
 32
-1.355289
 13
-2.300426
 23
1.616579
 33
-1.355289
 62
0
  0
3DFACE
  8
Cylinder3001
 10
-2.380401
 20
1.616579
 30
-1.306839
 11
-2.365410
 21
1.616579
 31
-1.382206
 12
-2.310063
 22
1.616579
 32
-1.306839
 13
-2.310063
 23
1.616579
 33
-1.306839
 62
0
  0
3DFACE
  8
Cylinder3001
 10
-2.300426
 20
1.616579
 30
-1.258388
 11
-2.380401
 21
1.616579
 31
-1.306839
 12
-2.310063
 22
1.616579
 32
-1.306839
 13
-2.310063
 23
1.616579
 33
-1.306839
 62
0
  0
3DFACE
  8
Cylinder3001
 10
-2.365410
 20
1.616579
 30
-1.231471
 11
-2.380401
 21
1.616579
 31
-1.306839
 12
-2.300426
 22
1.616579
 32
-1.258388
 13
-2.300426
 23
1.616579
 33
-1.258388
 62
0
  0
3DFACE
  8
Cylinder3001
 10
-2.272981
 20
1.616579
 30
-1.217313
 11
-2.365410
 21
1.616579
 31
-1.231471
 12
-2.300426
 22
1.616579
 32
-1.258388
 13
-2.300426
 23
1.616579
 33
-1.258388
 62
0
  0
3DFACE
  8
Cylinder3001
 10
-2.231906
 20
1.616579
 30
-1.189868
 11
-2.365410
 21
1.616579
 31
-1.231471
 12
-2.272981
 22
1.616579
 32
-1.217313
 13
-2.272981
 23
1.616579
 33
-1.217313
 62
0
  0
3DFACE
  8
Cylinder3001
 10
-2.322717
 20
1.616579
 30
-1.167577
 11
-2.365410
 21
1.616579
 31
-1.231471
 12
-2.231906
 22
1.616579
 32
-1.189868
 13
-2.231906
 23
1.616579
 33
-1.189868
 62
0
  0
3DFACE
  8
Cylinder3001
 10
-2.322717
 20
1.616579
 30
-1.167577
 11
-2.231906
 21
1.616579
 31
-1.189868
 12
-2.183455
 22
1.616579
 32
-1.180230
 13
-2.183455
 23
1.616579
 33
-1.180230
 62
0
  0
3DFACE
  8
Cylinder3001
 10
-2.300426
 20
1.616579
 30
-1.258388
 11
-2.310063
 21
1.616579
 31
-1.306839
 12
-2.310063
 22
0.610735
 32
-1.306839
 13
-2.300425
 23
0.610735
 33
-1.258388
 62
1
  0
3DFACE
  8
Cylinder3001
 10
-2.272981
 20
1.616579
 30
-1.217313
 11
-2.300426
 21
1.616579
 31
-1.258388
 12
-2.300425
 22
0.610735
 32
-1.258388
 13
-2.272981
 23
0.610735
 33
-1.217313
 62
1
  0
3DFACE
  8
Cylinder3001
 10
-2.231906
 20
1.616579
 30
-1.189868
 11
-2.272981
 21
1.616579
 31
-1.217313
 12
-2.272981
 22
0.610735
 32
-1.217313
 13
-2.231906
 23
0.610735
 33
-1.189869
 62
1
  0
3DFACE
  8
Cylinder3001
 10
-2.183455
 20
1.616579
 30
-1.180230
 11
-2.231906
 21
1.616579
 31
-1.189868
 12
-2.231906
 22
0.610735
 32
-1.189869
 13
-2.183455
 23
0.610735
 33
-1.180231
 62
1
  0
3DFACE
  8
Cylinder3001
 10
-2.135005
 20
1.616579
 30
-1.189868
 11
-2.183455
 21
1.616579
 31
-1.180230
 12
-2.183455
 22
0.610735
 32
-1.180231
 13
-2.135005
 23
0.610735
 33
-1.189869
 62
1
  0
3DFACE
  8
Cylinder3001
 10
-2.093930
 20
1.616579
 30
-1.217313
 11
-2.135005
 21
1.616579
 31
-1.189868
 12
-2.135005
 22
0.610735
 32
-1.189869
 13
-2.093930
 23
0.610735
 33
-1.217313
 62
1
  0
3DFACE
  8
Cylinder3001
 10
-2.066485
 20
1.616579
 30
-1.258388
 11
-2.093930
 21
1.616579
 31
-1.217313
 12
-2.093930
 22
0.610735
 32
-1.217313
 13
-2.066486
 23
0.610735
 33
-1.258388
 62
1
  0
3DFACE
  8
Cylinder3001
 10
-2.056848
 20
1.616579
 30
-1.306839
 11
-2.066485
 21
1.616579
 31
-1.258388
 12
-2.066486
 22
0.610735
 32
-1.258388
 13
-2.056848
 23
0.610735
 33
-1.306839
 62
1
  0
3DFACE
  8
Cylinder3001
 10
-2.135005
 20
0.610735
 30
-1.423809
 11
-2.231906
 21
0.610735
 31
-1.423809
 12
-2.183455
 22
0.610735
 32
-1.433446
 13
-2.183455
 23
0.610735
 33
-1.433446
 62
1
  0
3DFACE
  8
Cylinder3001
 10
-2.272981
 20
0.610735
 30
-1.396364
 11
-2.231906
 21
0.610735
 31
-1.423809
 12
-2.135005
 22
0.610735
 32
-1.423809
 13
-2.135005
 23
0.610735
 33
-1.423809
 62
1
  0
3DFACE
  8
Cylinder3001
 10
-2.093930
 20
0.610735
 30
-1.396364
 11
-2.272981
 21
0.610735
 31
-1.396364
 12
-2.135005
 22
0.610735
 32
-1.423809
 13
-2.135005
 23
0.610735
 33
-1.423809
 62
1
  0
3DFACE
  8
Cylinder3001
 10
-2.300425
 20
0.610735
 30
-1.355289
 11
-2.272981
 21
0.610735
 31
-1.396364
 12
-2.093930
 22
0.610735
 32
-1.396364
 13
-2.093930
 23
0.610735
 33
-1.396364
 62
1
  0
3DFACE
  8
Cylinder3001
 10
-2.066486
 20
0.610735
 30
-1.355289
 11
-2.300425
 21
0.610735
 31
-1.355289
 12
-2.093930
 22
0.610735
 32
-1.396364
 13
-2.093930
 23
0.610735
 33
-1.396364
 62
1
  0
3DFACE
  8
Cylinder3001
 10
-2.056848
 20
0.610735
 30
-1.306839
 11
-2.300425
 21
0.610735
 31
-1.355289
 12
-2.066486
 22
0.610735
 32
-1.355289
 13
-2.066486
 23
0.610735
 33
-1.355289
 62
1
  0
3DFACE
  8
Cylinder3001
 10
-2.310063
 20
0.610735
 30
-1.306839
 11
-2.300425
 21
0.610735
 31
-1.355289
 12
-2.056848
 22
0.610735
 32
-1.306839
 13
-2.056848
 23
0.610735
 33
-1.306839
 62
1
  0
3DFACE
  8
Cylinder3001
 10
-2.300425
 20
0.610735
 30
-1.258388
 11
-2.310063
 21
0.610735
 31
-1.306839
 12
-2.056848
 22
0.610735
 32
-1.306839
 13
-2.056848
 23
0.610735
 33
-1.306839
 62
1
  0
3DFACE
  8
Cylinder3001
 10
-2.066486
 20
0.610735
 30
-1.258388
 11
-2.300425
 21
0.610735
 31
-1.258388
 12
-2.056848
 22
0.610735
 32
-1.306839
 13
-2.056848
 23
0.610735
 33
-1.306839
 62
1
  0
3DFACE
  8
Cylinder3001
 10
-2.272981
 20
0.610735
 30
-1.217313
 11
-2.300425
 21
0.610735
 31
-1.258388
 12
-2.066486
 22
0.610735
 32
-1.258388
 13
-2.066486
 23
0.610735
 33
-1.258388
 62
1
  0
3DFACE
  8
Cylinder3001
 10
-2.093930
 20
0.610735
 30
-1.217313
 11
-2.272981
 21
0.610735
 31
-1.217313
 12
-2.066486
 22
0.610735
 32
-1.258388
 13
-2.066486
 23
0.610735
 33
-1.258388
 62
1
  0
3DFACE
  8
Cylinder3001
 10
-2.231906
 20
0.610735
 30
-1.189869
 11
-2.272981
 21
0.610735
 31
-1.217313
 12
-2.093930
 22
0.610735
 32
-1.217313
 13
-2.093930
 23
0.610735
 33
-1.217313
 62
1
  0
3DFACE
  8
Cylinder3001
 10
-2.135005
 20
0.610735
 30
-1.189869
 11
-2.231906
 21
0.610735
 31
-1.189869
 12
-2.093930
 22
0.610735
 32
-1.217313
 13
-2.093930
 23
0.610735
 33
-1.217313
 62
1
  0
3DFACE
  8
Cylinder3001
 10
-2.183455
 20
0.610735
 30
-1.180231
 11
-2.231906
 21
0.610735
 31
-1.189869
 12
-2.135005
 22
0.610735
 32
-1.189869
 13
-2.135005
 23
0.610735
 33
-1.189869
 62
1
  0
3DFACE
  8
Cylinder3001
 10
-2.300426
 20
1.616579
 30
-1.355289
 11
-2.272981
 21
1.616579
 31
-1.396364
 12
-2.272981
 22
0.610735
 32
-1.396364
 13
-2.300425
 23
0.610735
 33
-1.355289
 62
1
  0
3DFACE
  8
Cylinder3001
 10
-2.310063
 20
1.616579
 30
-1.306839
 11
-2.300426
 21
1.616579
 31
-1.355289
 12
-2.300425
 22
0.610735
 32
-1.355289
 13
-2.310063
 23
0.610735
 33
-1.306839
 62
1
  0
3DFACE
  8
Cylinder3001
 10
-2.272981
 20
1.616579
 30
-1.396364
 11
-2.231906
 21
1.616579
 31
-1.423809
 12
-2.231906
 22
0.610735
 32
-1.423809
 13
-2.272981
 23
0.610735
 33
-1.396364
 62
1
  0
3DFACE
  8
Cylinder3001
 10
-2.231906
 20
1.616579
 30
-1.423809
 11
-2.183455
 21
1.616579
 31
-1.433446
 12
-2.183455
 22
0.610735
 32
-1.433446
 13
-2.231906
 23
0.610735
 33
-1.423809
 62
1
  0
3DFACE
  8
Cylinder3001
 10
-2.183455
 20
1.616579
 30
-1.433446
 11
-2.135005
 21
1.616579
 31
-1.423809
 12
-2.135005
 22
0.610735
 32
-1.423809
 13
-2.183455
 23
0.610735
 33
-1.433446
 62
1
  0
3DFACE
  8
Cylinder3001
 10
-2.135005
 20
1.616579
 30
-1.423809
 11
-2.093930
 21
1.616579
 31
-1.396364
 12
-2.093930
 22
0.610735
 32
-1.396364
 13
-2.135005
 23
0.610735
 33
-1.423809
 62
1
  0
3DFACE
  8
Cylinder3001
 10
-2.093930
 20
1.616579
 30
-1.396364
 11
-2.066485
 21
1.616579
 31
-1.355289
 12
-2.066486
 22
0.610735
 32
-1.355289
 13
-2.093930
 23
0.610735
 33
-1.396364
 62
1
  0
3DFACE
  8
Cylinder3001
 10
-2.066485
 20
1.616579
 30
-1.355289
 11
-2.056848
 21
1.616579
 31
-1.306839
 12
-2.056848
 22
0.610735
 32
-1.306839
 13
-2.066486
 23
0.610735
 33
-1.355289
 62
1
  0
3DFACE
  8
Cube2001
 10
-2.618476
 20
-0.546812
 30
-0.283128
 11
-1.969463
 21
-0.677964
 31
-0.609092
 12
-1.937220
 22
-0.690621
 32
-1.481963
 13
-2.357195
 23
-0.546863
 33
-1.692862
 62
0
  0
3DFACE
  8
Cube2001
 10
-1.933789
 20
0.622416
 30
-1.481963
 11
-2.378727
 21
0.503910
 31
-1.692862
 12
-2.357195
 22
-0.546863
 32
-1.692862
 13
-1.937220
 23
-0.690621
 33
-1.481963
 62
0
  0
3DFACE
  8
Cube2001
 10
-2.357195
 20
-0.546863
 30
-1.692862
 11
-2.378727
 21
0.503910
 31
-1.692862
 12
-2.599954
 22
0.503859
 32
-0.283128
 13
-2.618476
 23
-0.546812
 33
-0.283128
 62
0
  0
3DFACE
  8
Cube2001
 10
-2.618476
 20
-0.546812
 30
-0.283128
 11
-2.599954
 21
0.503859
 31
-0.283128
 12
-1.819784
 22
0.635011
 32
0.514815
 13
-1.819784
 23
-0.677964
 33
0.514815
 62
0
  0
3DFACE
  8
Cube2001
 10
-2.599954
 20
0.503859
 30
-0.283128
 11
-1.969463
 21
0.635011
 31
-0.609092
 12
-1.819784
 22
0.635011
 32
0.514815
 13
-1.819784
 23
0.635011
 33
0.514815
 62
0
  0
3DFACE
  8
Cube2001
 10
-1.969463
 20
0.635011
 30
-0.609092
 11
-1.969463
 21
-0.677964
 31
-0.609092
 12
-1.819784
 22
-0.677964
 32
0.514815
 13
-1.819784
 23
0.635011
 33
0.514815
 62
0
  0
3DFACE
  8
Cube2001
 10
-1.933789
 20
0.622416
 30
-1.481963
 11
-1.969463
 21
0.635011
 31
-0.609092
 12
-2.599954
 22
0.503859
 32
-0.283128
 13
-2.378727
 23
0.503910
 33
-1.692862
 62
0
  0
3DFACE
  8
Cube2001
 10
-1.969463
 20
-0.677964
 30
-0.609092
 11
-2.618476
 21
-0.546812
 31
-0.283128
 12
-1.819784
 22
-0.677964
 32
0.514815
 13
-1.819784
 23
-0.677964
 33
0.514815
 62
0
  0
3DFACE
  8
Cube2001
 10
-1.937220
 20
-0.690621
 30
-1.481963
 11
-1.969463
 21
-0.677964
 31
-0.609092
 12
-1.969463
 22
0.635011
 32
-0.609092
 13
-1.933789
 23
0.622416
 33
-1.481963
 62
0
  0
3DFACE
  8
Cylinder1
 10
-1.936801
 20
-0.677973
 30
0.395803
 11
-1.936801
 21
0.635002
 31
0.395803
 12
-2.490614
 22
0.635002
 32
-0.164461
 13
-2.490614
 23
-0.677973
 33
-0.164461
 62
0
  0
3DFACE
  8
Cylinder1
 10
-2.598216
 20
0.635002
 30
0.553954
 11
-1.936801
 21
-0.677973
 31
0.395803
 12
-2.439087
 22
-0.677981
 32
0.358457
 13
-2.439087
 23
-0.677981
 33
0.358457
 62
0
  0
3DFACE
  8
Cylinder1
 10
-2.598216
 20
0.635002
 30
0.553954
 11
-2.490614
 21
-0.677973
 31
-0.164461
 12
-2.490614
 22
0.635002
 32
-0.164461
 13
-2.490614
 23
0.635002
 33
-0.164461
 62
0
  0
3DFACE
  8
Cylinder1
 10
-2.470883
 20
0.635002
 30
0.385696
 11
-2.490614
 21
0.635002
 31
-0.164461
 12
-2.435333
 22
0.635002
 32
0.007914
 13
-2.435333
 23
0.635002
 33
0.007914
 62
0
  0
3DFACE
  8
Cylinder1
 10
-2.598216
 20
0.635002
 30
0.553954
 11
-2.490614
 21
0.635002
 31
-0.164461
 12
-2.470883
 22
0.635002
 32
0.385696
 13
-2.470883
 23
0.635002
 33
0.385696
 62
0
  0
3DFACE
  8
Cylinder1
 10
-2.598216
 20
0.635002
 30
0.553954
 11
-2.470883
 21
0.635002
 31
0.385696
 12
-1.936801
 22
0.635002
 32
0.395803
 13
-1.936801
 23
0.635002
 33
0.395803
 62
0
  0
3DFACE
  8
Cylinder1
 10
-2.111721
 20
0.635002
 30
0.316644
 11
-2.435333
 21
0.635002
 31
0.007914
 12
-2.490614
 22
0.635002
 32
-0.164461
 13
-2.490614
 23
0.635002
 33
-0.164461
 62
0
  0
3DFACE
  8
Cylinder1
 10
-1.936801
 20
0.635002
 30
0.395803
 11
-2.111721
 21
0.635002
 31
0.316644
 12
-2.490614
 22
0.635002
 32
-0.164461
 13
-2.490614
 23
0.635002
 33
-0.164461
 62
0
  0
3DFACE
  8
Cylinder1
 10
-1.936801
 20
0.635002
 30
0.395803
 11
-2.470883
 21
0.635002
 31
0.385696
 12
-2.111721
 22
0.635002
 32
0.316644
 13
-2.111721
 23
0.635002
 33
0.316644
 62
0
  0
3DFACE
  8
Cylinder1
 10
-1.936801
 20
-0.677973
 30
0.395803
 11
-2.490614
 21
-0.677973
 31
-0.164461
 12
-2.439087
 22
-0.677981
 32
0.358457
 13
-2.439087
 23
-0.677981
 33
0.358457
 62
0
  0
3DFACE
  8
Cylinder1
 10
-2.490614
 20
-0.677973
 30
-0.164461
 11
-2.598216
 21
0.635002
 31
0.553954
 12
-2.439087
 22
-0.677981
 32
0.358457
 13
-2.439087
 23
-0.677981
 33
0.358457
 62
0
  0
3DFACE
  8
Cylinder1
 10
-1.936801
 20
-0.677973
 30
0.395803
 11
-2.598216
 21
0.635002
 31
0.553954
 12
-1.936801
 22
0.635002
 32
0.395803
 13
-1.936801
 23
0.635002
 33
0.395803
 62
0
  0
3DFACE
  8
Cylinder1
 10
-2.435333
 20
0.635002
 30
0.007914
 11
-2.111721
 21
0.635002
 31
0.316644
 12
-2.111721
 22
-0.082073
 32
0.316644
 13
-2.435333
 23
-0.082073
 33
0.007914
 62
1
  0
3DFACE
  8
Cylinder1
 10
-2.470883
 20
0.635002
 30
0.385696
 11
-2.435333
 21
0.635002
 31
0.007914
 12
-2.435333
 22
-0.082073
 32
0.007914
 13
-2.470883
 23
-0.082073
 33
0.385696
 62
1
  0
3DFACE
  8
Cylinder1
 10
-2.435333
 20
-0.082073
 30
0.007914
 11
-2.111721
 21
-0.082073
 31
0.316644
 12
-2.470883
 22
-0.082073
 32
0.385696
 13
-2.470883
 23
-0.082073
 33
0.385696
 62
1
  0
3DFACE
  8
Cylinder1
 10
-2.111721
 20
0.635002
 30
0.316644
 11
-2.470883
 21
0.635002
 31
0.385696
 12
-2.470883
 22
-0.082073
 32
0.385696
 13
-2.111721
 23
-0.082073
 33
0.316644
 62
1
  0
3DFACE
  8
Cube7
 10
0.958471
 20
-0.677964
 30
-0.282161
 11
0.958471
 21
1.160200
 31
-0.282161
 12
-0.958471
 22
1.160200
 32
-0.282161
 13
-0.958471
 23
-0.677964
 33
-0.282161
 62
0
  0
3DFACE
  8
Cube7
 10
0.958471
 20
-0.677964
 30
0.308678
 11
0.958471
 21
1.160200
 31
0.308678
 12
0.958471
 22
1.160200
 32
-0.282161
 13
0.958471
 23
-0.677964
 33
-0.282161
 62
0
  0
3DFACE
  8
Cube7
 10
-0.958471
 20
-0.677964
 30
0.308678
 11
-0.958471
 21
1.160200
 31
0.308678
 12
0.958471
 22
1.160200
 32
0.308678
 13
0.958471
 23
-0.677964
 33
0.308678
 62
0
  0
3DFACE
  8
Cube7
 10
-0.958471
 20
-0.677964
 30
-0.282161
 11
-0.958471
 21
1.160200
 31
-0.282161
 12
-0.958471
 22
1.160200
 32
0.308678
 13
-0.958471
 23
-0.677964
 33
0.308678
 62
0
  0
3DFACE
  8
Cube7
 10
-0.827174
 20
1.028903
 30
0.177380
 11
-0.827174
 21
1.028903
 31
-0.150864
 12
0.827174
 22
1.028903
 32
-0.150864
 13
0.827174
 23
1.028903
 33
0.177380
 62
1
  0
3DFACE
  8
Cube7
 10
-0.827174
 20
1.028903
 30
-0.150864
 11
-0.958471
 21
1.160200
 31
-0.282161
 12
0.958471
 22
1.160200
 32
-0.282161
 13
0.827174
 23
1.028903
 33
-0.150864
 62
0
  0
3DFACE
  8
Cube7
 10
0.827174
 20
1.028903
 30
-0.150864
 11
0.958471
 21
1.160200
 31
-0.282161
 12
0.958471
 22
1.160200
 32
0.308678
 13
0.827174
 23
1.028903
 33
0.177380
 62
0
  0
3DFACE
  8
Cube7
 10
0.827174
 20
1.028903
 30
0.177380
 11
0.958471
 21
1.160200
 31
0.308678
 12
-0.958471
 22
1.160200
 32
0.308678
 13
-0.827174
 23
1.028903
 33
0.177380
 62
0
  0
3DFACE
  8
Cube7
 10
-0.827174
 20
1.028903
 30
0.177380
 11
-0.958471
 21
1.160200
 31
0.308678
 12
-0.958471
 22
1.160200
 32
-0.282161
 13
-0.827174
 23
1.028903
 33
-0.150864
 62
0
  0
3DFACE
  8
Cube7
 10
0.827174
 20
-0.546667
 30
0.177380
 11
0.827174
 21
-0.546667
 31
-0.150864
 12
-0.827174
 22
-0.546667
 32
-0.150864
 13
-0.827174
 23
-0.546667
 33
0.177380
 62
1
  0
3DFACE
  8
Cube7
 10
-0.827174
 20
-0.546667
 30
-0.150864
 11
0.827174
 21
-0.546667
 31
-0.150864
 12
0.958471
 22
-0.677964
 32
-0.282161
 13
-0.958471
 23
-0.677964
 33
-0.282161
 62
0
  0
3DFACE
  8
Cube7
 10
-0.827174
 20
-0.546667
 30
0.177380
 11
-0.827174
 21
-0.546667
 31
-0.150864
 12
-0.958471
 22
-0.677964
 32
-0.282161
 13
-0.958471
 23
-0.677964
 33
0.308678
 62
0
  0
3DFACE
  8
Cube7
 10
0.827174
 20
-0.546667
 30
0.177380
 11
-0.827174
 21
-0.546667
 31
0.177380
 12
-0.958471
 22
-0.677964
 32
0.308678
 13
0.958471
 23
-0.677964
 33
0.308678
 62
0
  0
3DFACE
  8
Cube7
 10
0.827174
 20
-0.546667
 30
-0.150864
 11
0.827174
 21
-0.546667
 31
0.177380
 12
0.958471
 22
-0.677964
 32
0.308678
 13
0.958471
 23
-0.677964
 33
-0.282161
 62
0
  0
3DFACE
  8
Cube6
 10
-0.958471
 20
-0.586052
 30
0.210204
 11
0.958471
 21
-0.586052
 31
0.210204
 12
0.958471
 22
-0.586052
 32
-0.183688
 13
-0.958471
 23
-0.586052
 33
-0.183688
 62
1
  0
3DFACE
  8
Cube6
 10
-0.958471
 20
1.055166
 30
-0.183688
 11
-0.958471
 21
-0.586052
 31
-0.183688
 12
0.958471
 22
-0.586052
 32
-0.183688
 13
0.958471
 23
1.055165
 33
-0.183688
 62
0
  0
3DFACE
  8
Cube6
 10
0.958471
 20
1.055165
 30
-0.183688
 11
0.958471
 21
-0.586052
 31
-0.183688
 12
0.958471
 22
-0.586052
 32
0.210204
 13
0.958471
 23
1.055165
 33
0.210204
 62
0
  0
3DFACE
  8
Cube6
 10
-0.958471
 20
1.055165
 30
0.210204
 11
-0.958471
 21
-0.586052
 31
0.210204
 12
-0.958471
 22
-0.586052
 32
-0.183688
 13
-0.958471
 23
1.055166
 33
-0.183688
 62
0
  0
3DFACE
  8
Cube6
 10
0.958471
 20
1.055165
 30
0.210204
 11
0.958471
 21
-0.586052
 31
0.210204
 12
-0.958471
 22
-0.586052
 32
0.210204
 13
-0.958471
 23
1.055165
 33
0.210204
 62
0
  0
3DFACE
  8
Cube6
 10
-0.958471
 20
1.055165
 30
0.210204
 11
-0.958471
 21
1.055166
 31
-0.183688
 12
0.958471
 22
1.055165
 32
-0.183688
 13
0.958471
 23
1.055165
 33
0.210204
 62
0
 0
ENDSEC
 0
EOF
