  0
SECTION
  2
HEADER
  0
ENDSEC
  0
SECTION
  2
TABLES
  0
TABLE
  2
LAYER
  70
    153
  0
LAYER
  2
Cube12
 70
0
 62
15
  6
CONTINUOUS
  0
LAYER
  2
NoName6
 70
0
 62
15
  6
CONTINUOUS
  0
LAYER
  2
NoName10
 70
0
 62
15
  6
CONTINUOUS
  0
LAYER
  2
NoName11
 70
0
 62
15
  6
CONTINUOUS
  0
LAYER
  2
NoName12
 70
0
 62
15
  6
CONTINUOUS
  0
LAYER
  2
Sphere
 70
0
 62
15
  6
CONTINUOUS
  0
LAYER
  2
Cube
 70
0
 62
15
  6
CONTINUOUS
  0
LAYER
  2
Cube001
 70
0
 62
15
  6
CONTINUOUS
  0
LAYER
  2
Cylinder4
 70
0
 62
15
  6
CONTINUOUS
  0
LAYER
  2
Cube002
 70
0
 62
15
  6
CONTINUOUS
  0
LAYER
  2
Cylinder4001
 70
0
 62
15
  6
CONTINUOUS
  0
LAYER
  2
Cylinder1
 70
0
 62
15
  6
CONTINUOUS
  0
LAYER
  2
Cube3
 70
0
 62
15
  6
CONTINUOUS
  0
LAYER
  2
NoName6001
 70
0
 62
15
  6
CONTINUOUS
  0
LAYER
  2
Cylinder1001
 70
0
 62
15
  6
CONTINUOUS
  0
LAYER
  2
Cube3001
 70
0
 62
15
  6
CONTINUOUS
  0
LAYER
  2
NoName6002
 70
0
 62
15
  6
CONTINUOUS
  0
ENDTAB
  0
ENDSEC
  0
SECTION
  2
ENTITIES
  0
3DFACE
  8
Cube12
 10
8.832291
 20
-6.477226
 30
-1.835503
 11
-8.829500
 21
-6.473989
 31
-1.835503
 12
-2.166243
 22
-4.270900
 32
7.272596
 13
2.170388
 23
-4.270900
 33
7.272596
 62
0
  0
3DFACE
  8
Cube12
 10
8.832291
 20
-6.477226
 30
-1.835503
 11
3.486233
 21
0.311128
 31
-6.733519
 12
-3.483443
 22
0.311128
 32
-6.733519
 13
-8.829500
 23
-6.473989
 33
-1.835503
 62
0
  0
3DFACE
  8
Cube12
 10
8.832291
 20
-6.477226
 30
-1.835503
 11
8.832291
 21
2.310994
 31
-1.835503
 12
3.486233
 22
0.311128
 32
-6.733519
 13
3.486233
 23
0.311128
 33
-6.733519
 62
0
  0
3DFACE
  8
Cube12
 10
7.129472
 20
1.582597
 30
3.035350
 11
7.129472
 21
-4.270900
 31
3.035350
 12
2.170388
 22
-4.270900
 32
7.272596
 13
2.377421
 23
1.582597
 33
7.272597
 62
0
  0
3DFACE
  8
Cube12
 10
4.381203
 20
4.879769
 30
1.768136
 11
7.129472
 21
1.582597
 31
3.035350
 12
2.377421
 22
1.582597
 32
7.272597
 13
2.377421
 23
1.582597
 33
7.272597
 62
0
  0
3DFACE
  8
Cube12
 10
-7.126681
 20
-4.270900
 30
3.035350
 11
-8.829500
 21
-6.473989
 31
-1.835503
 12
-8.829500
 22
2.310994
 32
-1.835503
 13
-7.126681
 23
1.582597
 33
3.035350
 62
0
  0
3DFACE
  8
Cube12
 10
-2.166243
 20
-4.270900
 30
7.272596
 11
-7.126681
 21
-4.270900
 31
3.035350
 12
-7.126681
 22
1.582597
 32
3.035350
 13
-2.374630
 23
1.582597
 33
7.272597
 62
0
  0
3DFACE
  8
Cube12
 10
-2.374630
 20
1.582597
 30
7.272597
 11
2.377421
 21
1.582597
 31
7.272597
 12
2.170388
 22
-4.270900
 32
7.272596
 13
-2.166243
 23
-4.270900
 33
7.272596
 62
0
  0
3DFACE
  8
Cube12
 10
1.375824
 20
1.920916
 30
-3.737909
 11
3.486233
 21
0.311128
 31
-6.733519
 12
2.749882
 22
3.199855
 32
-1.357968
 13
2.749882
 23
3.199855
 33
-1.357968
 62
0
  0
3DFACE
  8
Cube12
 10
-1.372292
 20
1.920916
 30
-3.737909
 11
3.486233
 21
0.311128
 31
-6.733519
 12
1.375824
 22
1.920916
 32
-3.737909
 13
1.375824
 23
1.920916
 33
-3.737909
 62
0
  0
3DFACE
  8
Cube12
 10
-3.483443
 20
0.311128
 30
-6.733519
 11
3.486233
 21
0.311128
 31
-6.733519
 12
-1.372292
 22
1.920916
 32
-3.737909
 13
-1.372292
 23
1.920916
 33
-3.737909
 62
0
  0
3DFACE
  8
Cube12
 10
-3.483443
 20
0.311128
 30
-6.733519
 11
-1.372292
 21
1.920916
 31
-3.737909
 12
-2.746350
 22
3.199855
 32
-1.357968
 13
-2.746350
 23
3.199855
 33
-1.357968
 62
0
  0
3DFACE
  8
Cube12
 10
2.749882
 20
3.199855
 30
-1.357968
 11
3.486233
 21
0.311128
 31
-6.733519
 12
4.381203
 22
4.879769
 32
1.768136
 13
4.381203
 23
4.879769
 33
1.768136
 62
0
  0
3DFACE
  8
Cube12
 10
1.375824
 20
4.478794
 30
1.021972
 11
2.749882
 21
3.199855
 31
-1.357968
 12
4.381203
 22
4.879769
 32
1.768136
 13
4.381203
 23
4.879769
 33
1.768136
 62
0
  0
3DFACE
  8
Cube12
 10
-1.372292
 20
4.478794
 30
1.021972
 11
1.375824
 21
4.478794
 31
1.021972
 12
4.381203
 22
4.879769
 32
1.768136
 13
4.381203
 23
4.879769
 33
1.768136
 62
0
  0
3DFACE
  8
Cube12
 10
-4.378411
 20
4.879769
 30
1.768136
 11
-1.372292
 21
4.478794
 31
1.021972
 12
4.381203
 22
4.879769
 32
1.768136
 13
4.381203
 23
4.879769
 33
1.768136
 62
0
  0
3DFACE
  8
Cube12
 10
-4.378411
 20
4.879769
 30
1.768136
 11
-2.746350
 21
3.199855
 31
-1.357968
 12
-1.372292
 22
4.478794
 32
1.021972
 13
-1.372292
 23
4.478794
 33
1.021972
 62
0
  0
3DFACE
  8
Cube12
 10
-4.378411
 20
4.879769
 30
1.768136
 11
-3.483443
 21
0.311128
 31
-6.733519
 12
-2.746350
 22
3.199855
 32
-1.357968
 13
-2.746350
 23
3.199855
 33
-1.357968
 62
0
  0
3DFACE
  8
Cube12
 10
-4.378411
 20
4.879769
 30
1.768136
 11
-2.374630
 21
1.582597
 31
7.272597
 12
-7.126681
 22
1.582597
 32
3.035350
 13
-7.126681
 23
1.582597
 33
3.035350
 62
0
  0
3DFACE
  8
Cube12
 10
7.129472
 20
1.582597
 30
3.035350
 11
4.381203
 21
4.879769
 31
1.768136
 12
8.832291
 22
2.310994
 32
-1.835503
 13
8.832291
 23
2.310994
 33
-1.835503
 62
0
  0
3DFACE
  8
Cube12
 10
-2.374630
 20
1.582597
 30
7.272597
 11
-4.378411
 21
4.879769
 31
1.768136
 12
4.381203
 22
4.879769
 32
1.768136
 13
2.377421
 23
1.582597
 33
7.272597
 62
0
  0
3DFACE
  8
Cube12
 10
-7.126681
 20
1.582597
 30
3.035350
 11
-8.829500
 21
2.310994
 31
-1.835503
 12
-4.378411
 22
4.879769
 32
1.768136
 13
-4.378411
 23
4.879769
 33
1.768136
 62
0
  0
3DFACE
  8
Cube12
 10
8.832291
 20
-6.477226
 30
-1.835503
 11
2.170388
 21
-4.270900
 31
7.272596
 12
7.129472
 22
-4.270900
 32
3.035350
 13
7.129472
 23
-4.270900
 33
3.035350
 62
0
  0
3DFACE
  8
Cube12
 10
-2.166243
 20
-4.270900
 30
7.272596
 11
-8.829500
 21
-6.473989
 31
-1.835503
 12
-7.126681
 22
-4.270900
 32
3.035350
 13
-7.126681
 23
-4.270900
 33
3.035350
 62
0
  0
3DFACE
  8
Cube12
 10
7.129472
 20
1.582597
 30
3.035350
 11
8.832291
 21
2.310994
 31
-1.835503
 12
8.832291
 22
-6.477226
 32
-1.835503
 13
7.129472
 23
-4.270900
 33
3.035350
 62
0
  0
3DFACE
  8
Cube12
 10
-8.829500
 20
2.310994
 30
-1.835503
 11
-8.829500
 21
-6.473989
 31
-1.835503
 12
-3.483443
 22
0.311128
 32
-6.733519
 13
-3.483443
 23
0.311128
 33
-6.733519
 62
0
  0
3DFACE
  8
Cube12
 10
4.381203
 20
4.879769
 30
1.768136
 11
3.486233
 21
0.311128
 31
-6.733519
 12
8.832291
 22
2.310994
 32
-1.835503
 13
8.832291
 23
2.310994
 33
-1.835503
 62
0
  0
3DFACE
  8
Cube12
 10
-3.483443
 20
0.311128
 30
-6.733519
 11
-4.378411
 21
4.879769
 31
1.768136
 12
-8.829500
 22
2.310994
 32
-1.835503
 13
-8.829500
 23
2.310994
 33
-1.835503
 62
0
  0
3DFACE
  8
Cube12
 10
2.166333
 20
1.034809
 30
-1.357785
 11
2.165299
 21
-1.361015
 31
-1.357786
 12
1.085257
 22
-1.361015
 32
-3.232519
 13
1.085018
 23
1.034019
 33
-3.233096
 62
0
  0
3DFACE
  8
Cube12
 10
1.085018
 20
1.034019
 30
-3.233096
 11
1.085257
 21
-1.361015
 31
-3.232519
 12
-1.081071
 22
-1.361015
 32
-3.232519
 13
-1.081287
 23
1.034809
 33
-3.233201
 62
0
  0
3DFACE
  8
Cube12
 10
-1.081287
 20
1.034809
 30
-3.233201
 11
-1.081071
 21
-1.361015
 31
-3.232519
 12
-2.167356
 22
-1.361015
 32
-1.357786
 13
-2.166343
 23
1.034809
 33
-1.357786
 62
0
  0
3DFACE
  8
Cube12
 10
1.085257
 20
-1.361015
 30
0.519521
 11
1.085257
 21
-1.361015
 31
-3.232519
 12
2.165299
 22
-1.361015
 32
-1.357786
 13
2.165299
 23
-1.361015
 33
-1.357786
 62
0
  0
3DFACE
  8
Cube12
 10
-1.081071
 20
-1.361015
 30
-3.232519
 11
1.085257
 21
-1.361015
 31
-3.232519
 12
1.085257
 22
-1.361015
 32
0.519521
 13
1.085257
 23
-1.361015
 33
0.519521
 62
0
  0
3DFACE
  8
Cube12
 10
-1.081071
 20
-1.361015
 30
0.519521
 11
-1.081071
 21
-1.361015
 31
-3.232519
 12
1.085257
 22
-1.361015
 32
0.519521
 13
1.085257
 23
-1.361015
 33
0.519521
 62
0
  0
3DFACE
  8
Cube12
 10
-2.167356
 20
-1.361015
 30
-1.357786
 11
-1.081071
 21
-1.361015
 31
-3.232519
 12
-1.081071
 22
-1.361015
 32
0.519521
 13
-1.081071
 23
-1.361015
 33
0.519521
 62
0
  0
3DFACE
  8
Cube12
 10
1.085054
 20
1.034809
 30
0.519004
 11
1.375824
 21
4.478794
 31
1.021972
 12
-1.372292
 22
4.478794
 32
1.021972
 13
-1.081243
 23
1.034809
 33
0.518947
 62
0
  0
3DFACE
  8
Cube12
 10
-1.081243
 20
1.034809
 30
0.518947
 11
-1.372292
 21
4.478794
 31
1.021972
 12
-2.746350
 22
3.199855
 32
-1.357968
 13
-2.166343
 23
1.034809
 33
-1.357786
 62
0
  0
3DFACE
  8
Cube12
 10
2.166333
 20
1.034809
 30
-1.357785
 11
2.749882
 21
3.199855
 31
-1.357968
 12
1.375824
 22
4.478794
 32
1.021972
 13
1.085054
 23
1.034809
 33
0.519004
 62
0
  0
3DFACE
  8
Cube12
 10
1.085054
 20
1.034809
 30
0.519004
 11
1.085257
 21
-1.361015
 31
0.519521
 12
2.165299
 22
-1.361015
 32
-1.357786
 13
2.166333
 23
1.034809
 33
-1.357785
 62
0
  0
3DFACE
  8
Cube12
 10
-1.081243
 20
1.034809
 30
0.518947
 11
-1.081071
 21
-1.361015
 31
0.519521
 12
1.085257
 22
-1.361015
 32
0.519521
 13
1.085054
 23
1.034809
 33
0.519004
 62
0
  0
3DFACE
  8
Cube12
 10
-2.166343
 20
1.034809
 30
-1.357786
 11
-2.167356
 21
-1.361015
 31
-1.357786
 12
-1.081071
 22
-1.361015
 32
0.519521
 13
-1.081243
 23
1.034809
 33
0.518947
 62
0
  0
3DFACE
  8
Cube12
 10
-2.166343
 20
1.034809
 30
-1.357786
 11
-2.746350
 21
3.199855
 31
-1.357968
 12
-1.372292
 22
1.920916
 32
-3.737909
 13
-1.081287
 23
1.034809
 33
-3.233201
 62
0
  0
3DFACE
  8
Cube12
 10
-1.081287
 20
1.034809
 30
-3.233201
 11
-1.372292
 21
1.920916
 31
-3.737909
 12
1.375824
 22
1.920916
 32
-3.737909
 13
1.085018
 23
1.034019
 33
-3.233096
 62
0
  0
3DFACE
  8
Cube12
 10
1.085018
 20
1.034019
 30
-3.233096
 11
1.375824
 21
1.920916
 31
-3.737909
 12
2.749882
 22
3.199855
 32
-1.357968
 13
2.166333
 23
1.034809
 33
-1.357785
 62
0
  0
3DFACE
  8
NoName6
 10
4.377299
 20
1.006338
 30
-4.014711
 11
5.065300
 21
-1.068896
 31
-4.014709
 12
6.161081
 22
0.574382
 32
-4.012884
 13
6.161081
 23
0.574382
 33
-4.012884
 62
0
  0
3DFACE
  8
NoName6
 10
5.199194
 20
0.119785
 30
-8.400815
 11
5.065300
 21
-1.068896
 31
-4.014709
 12
4.377299
 22
1.006338
 32
-4.014711
 13
4.377299
 23
1.006338
 33
-4.014711
 62
0
  0
3DFACE
  8
NoName6
 10
6.161081
 20
0.574382
 30
-4.012884
 11
5.065300
 21
-1.068896
 31
-4.014709
 12
5.199194
 22
0.119785
 32
-8.400815
 13
5.199194
 23
0.119785
 33
-8.400815
 62
0
  0
3DFACE
  8
NoName6
 10
4.377299
 20
1.006338
 30
-4.014711
 11
6.161081
 21
0.574382
 31
-4.012884
 12
5.199194
 22
0.119785
 32
-8.400815
 13
5.199194
 23
0.119785
 33
-8.400815
 62
0
  0
3DFACE
  8
NoName10
 10
1.177490
 20
-0.966059
 30
-4.014711
 11
1.865490
 21
-3.041293
 31
-4.014709
 12
2.961272
 22
-1.398015
 32
-4.012884
 13
2.961272
 23
-1.398015
 33
-4.012884
 62
0
  0
3DFACE
  8
NoName10
 10
1.999386
 20
-1.852612
 30
-8.400815
 11
1.865490
 21
-3.041293
 31
-4.014709
 12
1.177490
 22
-0.966059
 32
-4.014711
 13
1.177490
 23
-0.966059
 33
-4.014711
 62
0
  0
3DFACE
  8
NoName10
 10
2.961272
 20
-1.398015
 30
-4.012884
 11
1.865490
 21
-3.041293
 31
-4.014709
 12
1.999386
 22
-1.852612
 32
-8.400815
 13
1.999386
 23
-1.852612
 33
-8.400815
 62
0
  0
3DFACE
  8
NoName10
 10
1.177490
 20
-0.966059
 30
-4.014711
 11
2.961272
 21
-1.398015
 31
-4.012884
 12
1.999386
 22
-1.852612
 32
-8.400815
 13
1.999386
 23
-1.852612
 33
-8.400815
 62
0
  0
3DFACE
  8
NoName11
 10
-2.175898
 20
0.057594
 30
-4.014174
 11
-1.487898
 21
-2.017640
 31
-4.014171
 12
-0.392116
 22
-0.374362
 32
-4.011981
 13
-0.392116
 23
-0.374362
 33
-4.011981
 62
0
  0
3DFACE
  8
NoName11
 10
-1.354002
 20
-0.828959
 30
-9.277496
 11
-1.487898
 21
-2.017640
 31
-4.014171
 12
-2.175898
 22
0.057594
 32
-4.014174
 13
-2.175898
 23
0.057594
 33
-4.014174
 62
0
  0
3DFACE
  8
NoName11
 10
-0.392116
 20
-0.374362
 30
-4.011981
 11
-1.487898
 21
-2.017640
 31
-4.014171
 12
-1.354002
 22
-0.828959
 32
-9.277496
 13
-1.354002
 23
-0.828959
 33
-9.277496
 62
0
  0
3DFACE
  8
NoName11
 10
-2.175898
 20
0.057594
 30
-4.014174
 11
-0.392116
 21
-0.374362
 31
-4.011981
 12
-1.354002
 22
-0.828959
 32
-9.277496
 13
-1.354002
 23
-0.828959
 33
-9.277496
 62
0
  0
3DFACE
  8
NoName12
 10
-5.468394
 20
1.006338
 30
-4.014711
 11
-4.780393
 21
-1.068896
 31
-4.014709
 12
-3.684612
 22
0.574382
 32
-4.012884
 13
-3.684612
 23
0.574382
 33
-4.012884
 62
0
  0
3DFACE
  8
NoName12
 10
-4.646498
 20
0.119785
 30
-8.400815
 11
-4.780393
 21
-1.068896
 31
-4.014709
 12
-5.468394
 22
1.006338
 32
-4.014711
 13
-5.468394
 23
1.006338
 33
-4.014711
 62
0
  0
3DFACE
  8
NoName12
 10
-3.684612
 20
0.574382
 30
-4.012884
 11
-4.780393
 21
-1.068896
 31
-4.014709
 12
-4.646498
 22
0.119785
 32
-8.400815
 13
-4.646498
 23
0.119785
 33
-8.400815
 62
0
  0
3DFACE
  8
NoName12
 10
-5.468394
 20
1.006338
 30
-4.014711
 11
-3.684612
 21
0.574382
 31
-4.012884
 12
-4.646498
 22
0.119785
 32
-8.400815
 13
-4.646498
 23
0.119785
 33
-8.400815
 62
0
  0
3DFACE
  8
Sphere
 10
0.001396
 20
3.402350
 30
1.802612
 11
1.164922
 21
3.376398
 31
1.540583
 12
1.260787
 22
3.302074
 32
1.573049
 13
1.260787
 23
3.302074
 33
1.573049
 62
0
  0
3DFACE
  8
Sphere
 10
0.001396
 20
3.402350
 30
1.802612
 11
0.891920
 21
3.439407
 31
1.513060
 12
1.164922
 22
3.376398
 32
1.540583
 13
1.164922
 23
3.376398
 33
1.540583
 62
0
  0
3DFACE
  8
Sphere
 10
0.001396
 20
3.402350
 30
1.802612
 11
0.483344
 21
3.481508
 31
1.494669
 12
0.891920
 22
3.439407
 32
1.513060
 13
0.891920
 23
3.439407
 33
1.513060
 62
0
  0
3DFACE
  8
Sphere
 10
0.001396
 20
3.402350
 30
1.802612
 11
0.001396
 21
3.496292
 31
1.488212
 12
0.483344
 22
3.481508
 32
1.494669
 13
0.483344
 23
3.481508
 33
1.494669
 62
0
  0
3DFACE
  8
Sphere
 10
0.001396
 20
3.402350
 30
1.802612
 11
-0.480552
 21
3.481508
 31
1.494669
 12
0.001396
 22
3.496292
 32
1.488212
 13
0.001396
 23
3.496292
 33
1.488212
 62
0
  0
3DFACE
  8
Sphere
 10
0.001396
 20
3.402350
 30
1.802612
 11
-0.889128
 21
3.439407
 31
1.513060
 12
-0.480552
 22
3.481508
 32
1.494669
 13
-0.480552
 23
3.481508
 33
1.494669
 62
0
  0
3DFACE
  8
Sphere
 10
0.001396
 20
3.402350
 30
1.802612
 11
-1.162130
 21
3.376398
 31
1.540583
 12
-0.889128
 22
3.439407
 32
1.513060
 13
-0.889128
 23
3.439407
 33
1.513060
 62
0
  0
3DFACE
  8
Sphere
 10
0.001396
 20
3.402350
 30
1.802612
 11
-1.257996
 21
3.302074
 31
1.573049
 12
-1.162130
 22
3.376398
 32
1.540583
 13
-1.162130
 23
3.376398
 33
1.540583
 62
0
  0
3DFACE
  8
Sphere
 10
0.001396
 20
3.402350
 30
1.802612
 11
-1.162130
 21
3.227750
 31
1.605515
 12
-1.257996
 22
3.302074
 32
1.573049
 13
-1.257996
 23
3.302074
 33
1.573049
 62
0
  0
3DFACE
  8
Sphere
 10
0.001396
 20
3.402350
 30
1.802612
 11
-0.889128
 21
3.164741
 31
1.633038
 12
-1.162130
 22
3.227750
 32
1.605515
 13
-1.162130
 23
3.227750
 33
1.605515
 62
0
  0
3DFACE
  8
Sphere
 10
0.001396
 20
3.402350
 30
1.802612
 11
-0.480552
 21
3.122640
 31
1.651428
 12
-0.889128
 22
3.164741
 32
1.633038
 13
-0.889128
 23
3.164741
 33
1.633038
 62
0
  0
3DFACE
  8
Sphere
 10
0.001396
 20
3.402350
 30
1.802612
 11
0.001396
 21
3.107856
 31
1.657886
 12
-0.480552
 22
3.122640
 32
1.651428
 13
-0.480552
 23
3.122640
 33
1.651428
 62
0
  0
3DFACE
  8
Sphere
 10
0.001396
 20
3.402350
 30
1.802612
 11
0.483344
 21
3.122640
 31
1.651428
 12
0.001396
 22
3.107856
 32
1.657886
 13
0.001396
 23
3.107856
 33
1.657886
 62
0
  0
3DFACE
  8
Sphere
 10
0.001396
 20
3.402350
 30
1.802612
 11
0.891920
 21
3.164741
 31
1.633038
 12
0.483344
 22
3.122640
 32
1.651428
 13
0.483344
 23
3.122640
 33
1.651428
 62
0
  0
3DFACE
  8
Sphere
 10
0.001396
 20
3.402350
 30
1.802612
 11
1.164922
 21
3.227750
 31
1.605515
 12
0.891920
 22
3.164741
 32
1.633038
 13
0.891920
 23
3.164741
 33
1.633038
 62
0
  0
3DFACE
  8
Sphere
 10
0.001396
 20
3.402350
 30
1.802612
 11
1.260787
 21
3.302074
 31
1.573049
 12
1.164922
 22
3.227750
 32
1.605515
 13
1.164922
 23
3.227750
 33
1.605515
 62
0
  0
3DFACE
  8
Sphere
 10
1.260787
 20
3.302074
 30
1.573049
 11
1.164922
 21
3.376398
 31
1.540583
 12
2.151311
 22
3.153844
 32
0.859320
 13
2.328448
 23
3.016511
 33
0.919309
 62
0
  0
3DFACE
  8
Sphere
 10
1.164922
 20
3.376398
 30
1.540583
 11
0.891920
 21
3.439407
 31
1.513060
 12
1.646870
 22
3.270269
 32
0.808463
 13
2.151311
 23
3.153844
 33
0.859320
 62
0
  0
3DFACE
  8
Sphere
 10
0.891920
 20
3.439407
 30
1.513060
 11
0.483344
 21
3.481508
 31
1.494669
 12
0.891920
 22
3.348063
 32
0.774482
 13
1.646870
 23
3.270269
 33
0.808463
 62
0
  0
3DFACE
  8
Sphere
 10
0.483344
 20
3.481508
 30
1.494669
 11
0.001396
 21
3.496292
 31
1.488212
 12
0.001396
 22
3.375380
 32
0.762550
 13
0.891920
 23
3.348063
 33
0.774482
 62
0
  0
3DFACE
  8
Sphere
 10
0.001396
 20
3.496292
 30
1.488212
 11
-0.480552
 21
3.481508
 31
1.494669
 12
-0.889128
 22
3.348063
 32
0.774482
 13
0.001396
 23
3.375380
 33
0.762550
 62
0
  0
3DFACE
  8
Sphere
 10
-0.480552
 20
3.481508
 30
1.494669
 11
-0.889128
 21
3.439407
 31
1.513060
 12
-1.644078
 22
3.270269
 32
0.808463
 13
-0.889128
 23
3.348063
 33
0.774482
 62
0
  0
3DFACE
  8
Sphere
 10
-0.889128
 20
3.439407
 30
1.513060
 11
-1.162130
 21
3.376398
 31
1.540583
 12
-2.148520
 22
3.153844
 32
0.859320
 13
-1.644078
 23
3.270269
 33
0.808463
 62
0
  0
3DFACE
  8
Sphere
 10
-1.162130
 20
3.376398
 30
1.540583
 11
-1.257996
 21
3.302074
 31
1.573049
 12
-2.325656
 22
3.016511
 32
0.919309
 13
-2.148520
 23
3.153844
 33
0.859320
 62
0
  0
3DFACE
  8
Sphere
 10
-1.257996
 20
3.302074
 30
1.573049
 11
-1.162130
 21
3.227750
 31
1.605515
 12
-2.148520
 22
2.879178
 32
0.979298
 13
-2.325656
 23
3.016511
 33
0.919309
 62
0
  0
3DFACE
  8
Sphere
 10
-1.162130
 20
3.227750
 30
1.605515
 11
-0.889128
 21
3.164741
 31
1.633038
 12
-1.644078
 22
2.762753
 32
1.030154
 13
-2.148520
 23
2.879178
 33
0.979298
 62
0
  0
3DFACE
  8
Sphere
 10
-0.889128
 20
3.164741
 30
1.633038
 11
-0.480552
 21
3.122640
 31
1.651428
 12
-0.889128
 22
2.684960
 32
1.064135
 13
-1.644078
 23
2.762753
 33
1.030154
 62
0
  0
3DFACE
  8
Sphere
 10
-0.480552
 20
3.122640
 30
1.651428
 11
0.001396
 21
3.107856
 31
1.657886
 12
0.001396
 22
2.657643
 32
1.076068
 13
-0.889128
 23
2.684960
 33
1.064135
 62
0
  0
3DFACE
  8
Sphere
 10
0.001396
 20
3.107856
 30
1.657886
 11
0.483344
 21
3.122640
 31
1.651428
 12
0.891920
 22
2.684960
 32
1.064135
 13
0.001396
 23
2.657643
 33
1.076068
 62
0
  0
3DFACE
  8
Sphere
 10
0.483344
 20
3.122640
 30
1.651428
 11
0.891920
 21
3.164741
 31
1.633038
 12
1.646870
 22
2.762753
 32
1.030154
 13
0.891920
 23
2.684960
 33
1.064135
 62
0
  0
3DFACE
  8
Sphere
 10
0.891920
 20
3.164741
 30
1.633038
 11
1.164922
 21
3.227750
 31
1.605515
 12
2.151311
 22
2.879178
 32
0.979298
 13
1.646870
 23
2.762753
 33
1.030154
 62
0
  0
3DFACE
  8
Sphere
 10
1.164922
 20
3.227750
 30
1.605515
 11
1.260787
 21
3.302074
 31
1.573049
 12
2.328448
 22
3.016511
 32
0.919309
 13
2.151311
 23
2.879178
 33
0.979298
 62
0
  0
3DFACE
  8
Sphere
 10
2.328448
 20
3.016511
 30
0.919309
 11
2.151311
 21
3.153844
 31
0.859320
 12
2.810396
 22
2.768571
 32
-0.137462
 13
3.041836
 23
2.589136
 33
-0.059083
 62
0
  0
3DFACE
  8
Sphere
 10
2.151311
 20
3.153844
 30
0.859320
 11
1.646870
 21
3.270269
 31
0.808463
 12
2.151311
 22
2.920688
 32
-0.203909
 13
2.810396
 23
2.768571
 33
-0.137462
 62
0
  0
3DFACE
  8
Sphere
 10
1.646870
 20
3.270269
 30
0.808463
 11
0.891920
 21
3.348063
 31
0.774482
 12
1.164922
 22
3.022329
 32
-0.248308
 13
2.151311
 23
2.920688
 33
-0.203909
 62
0
  0
3DFACE
  8
Sphere
 10
0.891920
 20
3.348063
 30
0.774482
 11
0.001396
 21
3.375380
 31
0.762550
 12
0.001396
 22
3.058021
 32
-0.263898
 13
1.164922
 23
3.022329
 33
-0.248308
 62
0
  0
3DFACE
  8
Sphere
 10
0.001396
 20
3.375380
 30
0.762550
 11
-0.889128
 21
3.348063
 31
0.774482
 12
-1.162130
 22
3.022329
 32
-0.248308
 13
0.001396
 23
3.058021
 33
-0.263898
 62
0
  0
3DFACE
  8
Sphere
 10
-0.889128
 20
3.348063
 30
0.774482
 11
-1.644078
 21
3.270269
 31
0.808463
 12
-2.148520
 22
2.920688
 32
-0.203909
 13
-1.162130
 23
3.022329
 33
-0.248308
 62
0
  0
3DFACE
  8
Sphere
 10
-1.644078
 20
3.270269
 30
0.808463
 11
-2.148520
 21
3.153844
 31
0.859320
 12
-2.807605
 22
2.768571
 32
-0.137462
 13
-2.148520
 23
2.920688
 33
-0.203909
 62
0
  0
3DFACE
  8
Sphere
 10
-2.148520
 20
3.153844
 30
0.859320
 11
-2.325656
 21
3.016511
 31
0.919309
 12
-3.039044
 22
2.589136
 32
-0.059083
 13
-2.807605
 23
2.768571
 33
-0.137462
 62
0
  0
3DFACE
  8
Sphere
 10
-2.325656
 20
3.016511
 30
0.919309
 11
-2.148520
 21
2.879178
 31
0.979298
 12
-2.807605
 22
2.409702
 32
0.019297
 13
-3.039044
 23
2.589136
 33
-0.059083
 62
0
  0
3DFACE
  8
Sphere
 10
-2.148520
 20
2.879178
 30
0.979298
 11
-1.644078
 21
2.762753
 31
1.030154
 12
-2.148520
 22
2.257585
 32
0.085744
 13
-2.807605
 23
2.409702
 33
0.019297
 62
0
  0
3DFACE
  8
Sphere
 10
-1.644078
 20
2.762753
 30
1.030154
 11
-0.889128
 21
2.684960
 31
1.064135
 12
-1.162130
 22
2.155944
 32
0.130142
 13
-2.148520
 23
2.257585
 33
0.085744
 62
0
  0
3DFACE
  8
Sphere
 10
-0.889128
 20
2.684960
 30
1.064135
 11
0.001396
 21
2.657643
 31
1.076068
 12
0.001396
 22
2.120252
 32
0.145733
 13
-1.162130
 23
2.155944
 33
0.130142
 62
0
  0
3DFACE
  8
Sphere
 10
0.001396
 20
2.657643
 30
1.076068
 11
0.891920
 21
2.684960
 31
1.064135
 12
1.164922
 22
2.155944
 32
0.130142
 13
0.001396
 23
2.120252
 33
0.145733
 62
0
  0
3DFACE
  8
Sphere
 10
0.891920
 20
2.684960
 30
1.064135
 11
1.646870
 21
2.762753
 31
1.030154
 12
2.151311
 22
2.257585
 32
0.085744
 13
1.164922
 23
2.155944
 33
0.130142
 62
0
  0
3DFACE
  8
Sphere
 10
1.646870
 20
2.762753
 30
1.030154
 11
2.151311
 21
2.879178
 31
0.979298
 12
2.810396
 22
2.409702
 32
0.019297
 13
2.151311
 23
2.257585
 33
0.085744
 62
0
  0
3DFACE
  8
Sphere
 10
2.151311
 20
2.879178
 30
0.979298
 11
2.328448
 21
3.016511
 31
0.919309
 12
3.041836
 22
2.589136
 32
-0.059083
 13
2.810396
 23
2.409702
 33
0.019297
 62
0
  0
3DFACE
  8
Sphere
 10
3.041836
 20
2.589136
 30
-0.059083
 11
2.810396
 21
2.768571
 31
-0.137462
 12
3.041836
 22
2.279232
 32
-1.298012
 13
3.292344
 23
2.085013
 33
-1.213174
 62
0
  0
3DFACE
  8
Sphere
 10
2.810396
 20
2.768571
 30
-0.137462
 11
2.151311
 21
2.920688
 31
-0.203909
 12
2.328448
 22
2.443882
 32
-1.369933
 13
3.041836
 23
2.279232
 33
-1.298012
 62
0
  0
3DFACE
  8
Sphere
 10
2.151311
 20
2.920688
 30
-0.203909
 11
1.164922
 21
3.022329
 31
-0.248308
 12
1.260787
 22
2.553898
 32
-1.417990
 13
2.328448
 23
2.443882
 33
-1.369933
 62
0
  0
3DFACE
  8
Sphere
 10
1.164922
 20
3.022329
 30
-0.248308
 11
0.001396
 21
3.058021
 31
-0.263898
 12
0.001396
 22
2.592530
 32
-1.434865
 13
1.260787
 23
2.553898
 33
-1.417990
 62
0
  0
3DFACE
  8
Sphere
 10
0.001396
 20
3.058021
 30
-0.263898
 11
-1.162130
 21
3.022329
 31
-0.248308
 12
-1.257996
 22
2.553898
 32
-1.417990
 13
0.001396
 23
2.592530
 33
-1.434865
 62
0
  0
3DFACE
  8
Sphere
 10
-1.162130
 20
3.022329
 30
-0.248308
 11
-2.148520
 21
2.920688
 31
-0.203909
 12
-2.325656
 22
2.443882
 32
-1.369933
 13
-1.257996
 23
2.553898
 33
-1.417990
 62
0
  0
3DFACE
  8
Sphere
 10
-2.148520
 20
2.920688
 30
-0.203909
 11
-2.807605
 21
2.768571
 31
-0.137462
 12
-3.039044
 22
2.279232
 32
-1.298012
 13
-2.325656
 23
2.443882
 33
-1.369933
 62
0
  0
3DFACE
  8
Sphere
 10
-2.807605
 20
2.768571
 30
-0.137462
 11
-3.039044
 21
2.589136
 31
-0.059083
 12
-3.289553
 22
2.085013
 32
-1.213174
 13
-3.039044
 23
2.279232
 33
-1.298012
 62
0
  0
3DFACE
  8
Sphere
 10
-3.039044
 20
2.589136
 30
-0.059083
 11
-2.807605
 21
2.409702
 31
0.019297
 12
-3.039044
 22
1.890795
 32
-1.128337
 13
-3.289553
 23
2.085013
 33
-1.213174
 62
0
  0
3DFACE
  8
Sphere
 10
-2.807605
 20
2.409702
 30
0.019297
 11
-2.148520
 21
2.257585
 31
0.085744
 12
-2.325656
 22
1.726145
 32
-1.056415
 13
-3.039044
 23
1.890795
 33
-1.128337
 62
0
  0
3DFACE
  8
Sphere
 10
-2.148520
 20
2.257585
 30
0.085744
 11
-1.162130
 21
2.155944
 31
0.130142
 12
-1.257996
 22
1.616129
 32
-1.008359
 13
-2.325656
 23
1.726145
 33
-1.056415
 62
0
  0
3DFACE
  8
Sphere
 10
-1.162130
 20
2.155944
 30
0.130142
 11
0.001396
 21
2.120252
 31
0.145733
 12
0.001396
 22
1.577497
 32
-0.991484
 13
-1.257996
 23
1.616129
 33
-1.008359
 62
0
  0
3DFACE
  8
Sphere
 10
0.001396
 20
2.120252
 30
0.145733
 11
1.164922
 21
2.155944
 31
0.130142
 12
1.260787
 22
1.616129
 32
-1.008359
 13
0.001396
 23
1.577497
 33
-0.991484
 62
0
  0
3DFACE
  8
Sphere
 10
1.164922
 20
2.155944
 30
0.130142
 11
2.151311
 21
2.257585
 31
0.085744
 12
2.328448
 22
1.726145
 32
-1.056415
 13
1.260787
 23
1.616129
 33
-1.008359
 62
0
  0
3DFACE
  8
Sphere
 10
2.151311
 20
2.257585
 30
0.085744
 11
2.810396
 21
2.409702
 31
0.019297
 12
3.041836
 22
1.890795
 32
-1.128337
 13
2.328448
 23
1.726145
 33
-1.056415
 62
0
  0
3DFACE
  8
Sphere
 10
2.810396
 20
2.409702
 30
0.019297
 11
3.041836
 21
2.589136
 31
-0.059083
 12
3.292344
 22
2.085013
 32
-1.213174
 13
3.041836
 23
1.890795
 33
-1.128337
 62
0
  0
3DFACE
  8
Sphere
 10
3.292344
 20
2.085013
 30
-1.213174
 11
3.041836
 21
2.279232
 31
-1.298012
 12
2.810396
 22
1.760325
 32
-2.445645
 13
3.041836
 23
1.580890
 33
-2.367265
 62
0
  0
3DFACE
  8
Sphere
 10
3.041836
 20
2.279232
 30
-1.298012
 11
2.328448
 21
2.443882
 31
-1.369933
 12
2.151311
 22
1.912442
 32
-2.512092
 13
2.810396
 23
1.760325
 33
-2.445645
 62
0
  0
3DFACE
  8
Sphere
 10
2.328448
 20
2.443882
 30
-1.369933
 11
1.260787
 21
2.553898
 31
-1.417990
 12
1.164922
 22
2.014083
 32
-2.556490
 13
2.151311
 23
1.912442
 33
-2.512092
 62
0
  0
3DFACE
  8
Sphere
 10
1.260787
 20
2.553898
 30
-1.417990
 11
0.001396
 21
2.592530
 31
-1.434865
 12
0.001396
 22
2.049775
 32
-2.572081
 13
1.164922
 23
2.014083
 33
-2.556490
 62
0
  0
3DFACE
  8
Sphere
 10
0.001396
 20
2.592530
 30
-1.434865
 11
-1.257996
 21
2.553898
 31
-1.417990
 12
-1.162130
 22
2.014083
 32
-2.556490
 13
0.001396
 23
2.049775
 33
-2.572081
 62
0
  0
3DFACE
  8
Sphere
 10
-1.257996
 20
2.553898
 30
-1.417990
 11
-2.325656
 21
2.443882
 31
-1.369933
 12
-2.148520
 22
1.912442
 32
-2.512092
 13
-1.162130
 23
2.014083
 33
-2.556490
 62
0
  0
3DFACE
  8
Sphere
 10
-2.325656
 20
2.443882
 30
-1.369933
 11
-3.039044
 21
2.279232
 31
-1.298012
 12
-2.807605
 22
1.760325
 32
-2.445645
 13
-2.148520
 23
1.912442
 33
-2.512092
 62
0
  0
3DFACE
  8
Sphere
 10
-3.039044
 20
2.279232
 30
-1.298012
 11
-3.289553
 21
2.085013
 31
-1.213174
 12
-3.039044
 22
1.580891
 32
-2.367265
 13
-2.807605
 23
1.760325
 33
-2.445645
 62
0
  0
3DFACE
  8
Sphere
 10
-3.289553
 20
2.085013
 30
-1.213174
 11
-3.039044
 21
1.890795
 31
-1.128337
 12
-2.807605
 22
1.401456
 32
-2.288886
 13
-3.039044
 23
1.580891
 33
-2.367265
 62
0
  0
3DFACE
  8
Sphere
 10
-3.039044
 20
1.890795
 30
-1.128337
 11
-2.325656
 21
1.726145
 31
-1.056415
 12
-2.148520
 22
1.249339
 32
-2.222439
 13
-2.807605
 23
1.401456
 33
-2.288886
 62
0
  0
3DFACE
  8
Sphere
 10
-2.325656
 20
1.726145
 30
-1.056415
 11
-1.257996
 21
1.616129
 31
-1.008359
 12
-1.162130
 22
1.147698
 32
-2.178041
 13
-2.148520
 23
1.249339
 33
-2.222439
 62
0
  0
3DFACE
  8
Sphere
 10
-1.257996
 20
1.616129
 30
-1.008359
 11
0.001396
 21
1.577497
 31
-0.991484
 12
0.001396
 22
1.112006
 32
-2.162450
 13
-1.162130
 23
1.147698
 33
-2.178041
 62
0
  0
3DFACE
  8
Sphere
 10
0.001396
 20
1.577497
 30
-0.991484
 11
1.260787
 21
1.616129
 31
-1.008359
 12
1.164922
 22
1.147698
 32
-2.178041
 13
0.001396
 23
1.112006
 33
-2.162450
 62
0
  0
3DFACE
  8
Sphere
 10
1.260787
 20
1.616129
 30
-1.008359
 11
2.328448
 21
1.726145
 31
-1.056415
 12
2.151311
 22
1.249339
 32
-2.222439
 13
1.164922
 23
1.147698
 33
-2.178041
 62
0
  0
3DFACE
  8
Sphere
 10
2.328448
 20
1.726145
 30
-1.056415
 11
3.041836
 21
1.890795
 31
-1.128337
 12
2.810396
 22
1.401456
 32
-2.288886
 13
2.151311
 23
1.249339
 33
-2.222439
 62
0
  0
3DFACE
  8
Sphere
 10
3.041836
 20
1.890795
 30
-1.128337
 11
3.292344
 21
2.085013
 31
-1.213174
 12
3.041836
 22
1.580890
 32
-2.367265
 13
2.810396
 23
1.401456
 33
-2.288886
 62
0
  0
3DFACE
  8
Sphere
 10
3.041836
 20
1.580890
 30
-2.367265
 11
2.810396
 21
1.760325
 31
-2.445645
 12
2.151311
 22
1.290849
 32
-3.405646
 13
2.328448
 23
1.153516
 33
-3.345657
 62
0
  0
3DFACE
  8
Sphere
 10
2.810396
 20
1.760325
 30
-2.445645
 11
2.151311
 21
1.912442
 31
-2.512092
 12
1.646870
 22
1.407274
 32
-3.456502
 13
2.151311
 23
1.290849
 33
-3.405646
 62
0
  0
3DFACE
  8
Sphere
 10
2.151311
 20
1.912442
 30
-2.512092
 11
1.164922
 21
2.014083
 31
-2.556490
 12
0.891920
 22
1.485067
 32
-3.490484
 13
1.646870
 23
1.407274
 33
-3.456502
 62
0
  0
3DFACE
  8
Sphere
 10
1.164922
 20
2.014083
 30
-2.556490
 11
0.001396
 21
2.049775
 31
-2.572081
 12
0.001396
 22
1.512384
 32
-3.502416
 13
0.891920
 23
1.485067
 33
-3.490484
 62
0
  0
3DFACE
  8
Sphere
 10
0.001396
 20
2.049775
 30
-2.572081
 11
-1.162130
 21
2.014083
 31
-2.556490
 12
-0.889129
 22
1.485067
 32
-3.490483
 13
0.001396
 23
1.512384
 33
-3.502416
 62
0
  0
3DFACE
  8
Sphere
 10
-1.162130
 20
2.014083
 30
-2.556490
 11
-2.148520
 21
1.912442
 31
-2.512092
 12
-1.644079
 22
1.407274
 32
-3.456502
 13
-0.889129
 23
1.485067
 33
-3.490483
 62
0
  0
3DFACE
  8
Sphere
 10
-2.148520
 20
1.912442
 30
-2.512092
 11
-2.807605
 21
1.760325
 31
-2.445645
 12
-2.148520
 22
1.290849
 32
-3.405646
 13
-1.644079
 23
1.407274
 33
-3.456502
 62
0
  0
3DFACE
  8
Sphere
 10
-2.807605
 20
1.760325
 30
-2.445645
 11
-3.039044
 21
1.580891
 31
-2.367265
 12
-2.325656
 22
1.153516
 32
-3.345657
 13
-2.148520
 23
1.290849
 33
-3.405646
 62
0
  0
3DFACE
  8
Sphere
 10
-3.039044
 20
1.580891
 30
-2.367265
 11
-2.807605
 21
1.401456
 31
-2.288886
 12
-2.148520
 22
1.016183
 32
-3.285668
 13
-2.325656
 23
1.153516
 33
-3.345657
 62
0
  0
3DFACE
  8
Sphere
 10
-2.807605
 20
1.401456
 30
-2.288886
 11
-2.148520
 21
1.249339
 31
-2.222439
 12
-1.644079
 22
0.899757
 32
-3.234812
 13
-2.148520
 23
1.016183
 33
-3.285668
 62
0
  0
3DFACE
  8
Sphere
 10
-2.148520
 20
1.249339
 30
-2.222439
 11
-1.162130
 21
1.147698
 31
-2.178041
 12
-0.889129
 22
0.821964
 32
-3.200831
 13
-1.644079
 23
0.899757
 33
-3.234812
 62
0
  0
3DFACE
  8
Sphere
 10
-1.162130
 20
1.147698
 30
-2.178041
 11
0.001396
 21
1.112006
 31
-2.162450
 12
0.001396
 22
0.794647
 32
-3.188898
 13
-0.889129
 23
0.821964
 33
-3.200831
 62
0
  0
3DFACE
  8
Sphere
 10
0.001396
 20
1.112006
 30
-2.162450
 11
1.164922
 21
1.147698
 31
-2.178041
 12
0.891920
 22
0.821964
 32
-3.200831
 13
0.001396
 23
0.794647
 33
-3.188898
 62
0
  0
3DFACE
  8
Sphere
 10
1.164922
 20
1.147698
 30
-2.178041
 11
2.151311
 21
1.249339
 31
-2.222439
 12
1.646870
 22
0.899757
 32
-3.234812
 13
0.891920
 23
0.821964
 33
-3.200831
 62
0
  0
3DFACE
  8
Sphere
 10
2.151311
 20
1.249339
 30
-2.222439
 11
2.810396
 21
1.401456
 31
-2.288886
 12
2.151311
 22
1.016183
 32
-3.285668
 13
1.646870
 23
0.899757
 33
-3.234812
 62
0
  0
3DFACE
  8
Sphere
 10
2.810396
 20
1.401456
 30
-2.288886
 11
3.041836
 21
1.580890
 31
-2.367265
 12
2.328448
 22
1.153516
 32
-3.345657
 13
2.151311
 23
1.016183
 33
-3.285668
 62
0
  0
3DFACE
  8
Sphere
 10
2.328448
 20
1.153516
 30
-3.345657
 11
2.151311
 21
1.290849
 31
-3.405646
 12
1.164922
 22
0.942277
 32
-4.031863
 13
1.260787
 23
0.867953
 33
-3.999397
 62
0
  0
3DFACE
  8
Sphere
 10
2.151311
 20
1.290849
 30
-3.405646
 11
1.646870
 21
1.407274
 31
-3.456502
 12
0.891920
 22
1.005286
 32
-4.059386
 13
1.164922
 23
0.942277
 33
-4.031863
 62
0
  0
3DFACE
  8
Sphere
 10
1.646870
 20
1.407274
 30
-3.456502
 11
0.891920
 21
1.485067
 31
-3.490484
 12
0.483344
 22
1.047387
 32
-4.077777
 13
0.891920
 23
1.005286
 33
-4.059386
 62
0
  0
3DFACE
  8
Sphere
 10
0.891920
 20
1.485067
 30
-3.490484
 11
0.001396
 21
1.512384
 31
-3.502416
 12
0.001396
 22
1.062171
 32
-4.084235
 13
0.483344
 23
1.047387
 33
-4.077777
 62
0
  0
3DFACE
  8
Sphere
 10
0.001396
 20
1.512384
 30
-3.502416
 11
-0.889129
 21
1.485067
 31
-3.490483
 12
-0.480553
 22
1.047387
 32
-4.077777
 13
0.001396
 23
1.062171
 33
-4.084235
 62
0
  0
3DFACE
  8
Sphere
 10
-0.889129
 20
1.485067
 30
-3.490483
 11
-1.644079
 21
1.407274
 31
-3.456502
 12
-0.889129
 22
1.005286
 32
-4.059386
 13
-0.480553
 23
1.047387
 33
-4.077777
 62
0
  0
3DFACE
  8
Sphere
 10
-1.644079
 20
1.407274
 30
-3.456502
 11
-2.148520
 21
1.290849
 31
-3.405646
 12
-1.162131
 22
0.942277
 32
-4.031863
 13
-0.889129
 23
1.005286
 33
-4.059386
 62
0
  0
3DFACE
  8
Sphere
 10
-2.148520
 20
1.290849
 30
-3.405646
 11
-2.325656
 21
1.153516
 31
-3.345657
 12
-1.257996
 22
0.867953
 32
-3.999397
 13
-1.162131
 23
0.942277
 33
-4.031863
 62
0
  0
3DFACE
  8
Sphere
 10
-2.325656
 20
1.153516
 30
-3.345657
 11
-2.148520
 21
1.016183
 31
-3.285668
 12
-1.162131
 22
0.793629
 32
-3.966931
 13
-1.257996
 23
0.867953
 33
-3.999397
 62
0
  0
3DFACE
  8
Sphere
 10
-2.148520
 20
1.016183
 30
-3.285668
 11
-1.644079
 21
0.899757
 31
-3.234812
 12
-0.889129
 22
0.730620
 32
-3.939408
 13
-1.162131
 23
0.793629
 33
-3.966931
 62
0
  0
3DFACE
  8
Sphere
 10
-1.644079
 20
0.899757
 30
-3.234812
 11
-0.889129
 21
0.821964
 31
-3.200831
 12
-0.480553
 22
0.688519
 32
-3.921018
 13
-0.889129
 23
0.730620
 33
-3.939408
 62
0
  0
3DFACE
  8
Sphere
 10
-0.889129
 20
0.821964
 30
-3.200831
 11
0.001396
 21
0.794647
 31
-3.188898
 12
0.001396
 22
0.673735
 32
-3.914560
 13
-0.480553
 23
0.688519
 33
-3.921018
 62
0
  0
3DFACE
  8
Sphere
 10
0.001396
 20
0.794647
 30
-3.188898
 11
0.891920
 21
0.821964
 31
-3.200831
 12
0.483344
 22
0.688519
 32
-3.921018
 13
0.001396
 23
0.673735
 33
-3.914560
 62
0
  0
3DFACE
  8
Sphere
 10
0.891920
 20
0.821964
 30
-3.200831
 11
1.646870
 21
0.899757
 31
-3.234812
 12
0.891920
 22
0.730620
 32
-3.939408
 13
0.483344
 23
0.688519
 33
-3.921018
 62
0
  0
3DFACE
  8
Sphere
 10
1.646870
 20
0.899757
 30
-3.234812
 11
2.151311
 21
1.016183
 31
-3.285668
 12
1.164922
 22
0.793629
 32
-3.966931
 13
0.891920
 23
0.730620
 33
-3.939408
 62
0
  0
3DFACE
  8
Sphere
 10
2.151311
 20
1.016183
 30
-3.285668
 11
2.328448
 21
1.153516
 31
-3.345657
 12
1.260787
 22
0.867953
 32
-3.999397
 13
1.164922
 23
0.793629
 33
-3.966931
 62
0
  0
3DFACE
  8
Sphere
 10
1.260787
 20
0.867953
 30
-3.999397
 11
1.164922
 21
0.942277
 31
-4.031863
 12
0.001396
 22
0.767677
 32
-4.228961
 13
0.001396
 23
0.767677
 33
-4.228961
 62
0
  0
3DFACE
  8
Sphere
 10
1.164922
 20
0.942277
 30
-4.031863
 11
0.891920
 21
1.005286
 31
-4.059386
 12
0.001396
 22
0.767677
 32
-4.228961
 13
0.001396
 23
0.767677
 33
-4.228961
 62
0
  0
3DFACE
  8
Sphere
 10
0.891920
 20
1.005286
 30
-4.059386
 11
0.483344
 21
1.047387
 31
-4.077777
 12
0.001396
 22
0.767677
 32
-4.228961
 13
0.001396
 23
0.767677
 33
-4.228961
 62
0
  0
3DFACE
  8
Sphere
 10
0.483344
 20
1.047387
 30
-4.077777
 11
0.001396
 21
1.062171
 31
-4.084235
 12
0.001396
 22
0.767677
 32
-4.228961
 13
0.001396
 23
0.767677
 33
-4.228961
 62
0
  0
3DFACE
  8
Sphere
 10
0.001396
 20
1.062171
 30
-4.084235
 11
-0.480553
 21
1.047387
 31
-4.077777
 12
0.001396
 22
0.767677
 32
-4.228961
 13
0.001396
 23
0.767677
 33
-4.228961
 62
0
  0
3DFACE
  8
Sphere
 10
-0.480553
 20
1.047387
 30
-4.077777
 11
-0.889129
 21
1.005286
 31
-4.059386
 12
0.001396
 22
0.767677
 32
-4.228961
 13
0.001396
 23
0.767677
 33
-4.228961
 62
0
  0
3DFACE
  8
Sphere
 10
-0.889129
 20
1.005286
 30
-4.059386
 11
-1.162131
 21
0.942277
 31
-4.031863
 12
0.001396
 22
0.767677
 32
-4.228961
 13
0.001396
 23
0.767677
 33
-4.228961
 62
0
  0
3DFACE
  8
Sphere
 10
-1.162131
 20
0.942277
 30
-4.031863
 11
-1.257996
 21
0.867953
 31
-3.999397
 12
0.001396
 22
0.767677
 32
-4.228961
 13
0.001396
 23
0.767677
 33
-4.228961
 62
0
  0
3DFACE
  8
Sphere
 10
-1.257996
 20
0.867953
 30
-3.999397
 11
-1.162131
 21
0.793629
 31
-3.966931
 12
0.001396
 22
0.767677
 32
-4.228961
 13
0.001396
 23
0.767677
 33
-4.228961
 62
0
  0
3DFACE
  8
Sphere
 10
-1.162131
 20
0.793629
 30
-3.966931
 11
-0.889129
 21
0.730620
 31
-3.939408
 12
0.001396
 22
0.767677
 32
-4.228961
 13
0.001396
 23
0.767677
 33
-4.228961
 62
0
  0
3DFACE
  8
Sphere
 10
-0.889129
 20
0.730620
 30
-3.939408
 11
-0.480553
 21
0.688519
 31
-3.921018
 12
0.001396
 22
0.767677
 32
-4.228961
 13
0.001396
 23
0.767677
 33
-4.228961
 62
0
  0
3DFACE
  8
Sphere
 10
-0.480553
 20
0.688519
 30
-3.921018
 11
0.001396
 21
0.673735
 31
-3.914560
 12
0.001396
 22
0.767677
 32
-4.228961
 13
0.001396
 23
0.767677
 33
-4.228961
 62
0
  0
3DFACE
  8
Sphere
 10
0.001396
 20
0.673735
 30
-3.914560
 11
0.483344
 21
0.688519
 31
-3.921018
 12
0.001396
 22
0.767677
 32
-4.228961
 13
0.001396
 23
0.767677
 33
-4.228961
 62
0
  0
3DFACE
  8
Sphere
 10
0.483344
 20
0.688519
 30
-3.921018
 11
0.891920
 21
0.730620
 31
-3.939408
 12
0.001396
 22
0.767677
 32
-4.228961
 13
0.001396
 23
0.767677
 33
-4.228961
 62
0
  0
3DFACE
  8
Sphere
 10
0.891920
 20
0.730620
 30
-3.939408
 11
1.164922
 21
0.793629
 31
-3.966931
 12
0.001396
 22
0.767677
 32
-4.228961
 13
0.001396
 23
0.767677
 33
-4.228961
 62
0
  0
3DFACE
  8
Sphere
 10
1.164922
 20
0.793629
 30
-3.966931
 11
1.260787
 21
0.867953
 31
-3.999397
 12
0.001396
 22
0.767677
 32
-4.228961
 13
0.001396
 23
0.767677
 33
-4.228961
 62
0
  0
3DFACE
  8
Cube
 10
2.195360
 20
-2.801434
 30
0.835630
 11
-2.192569
 21
-2.801434
 31
0.835630
 12
-2.192569
 22
2.267652
 32
0.835605
 13
2.195360
 23
2.267652
 33
0.835605
 62
0
  0
3DFACE
  8
Cube
 10
-2.192569
 20
-2.801435
 30
-3.552299
 11
-2.192569
 21
-2.801434
 31
0.835630
 12
2.195360
 22
-2.801434
 32
0.835630
 13
2.195360
 23
-2.801435
 33
-3.552299
 62
0
  0
3DFACE
  8
Cube
 10
2.195360
 20
-2.801435
 30
-3.552299
 11
2.195360
 21
-2.801434
 31
0.835630
 12
2.195360
 22
2.267652
 32
0.835605
 13
2.195360
 23
0.366233
 33
-3.552314
 62
0
  0
3DFACE
  8
Cube
 10
2.195360
 20
0.366233
 30
-3.552314
 11
2.195360
 21
2.267652
 31
0.835605
 12
-2.192569
 22
2.267652
 32
0.835605
 13
-2.192569
 23
0.366233
 33
-3.552314
 62
0
  0
3DFACE
  8
Cube
 10
-2.192569
 20
-2.801435
 30
-3.552299
 11
2.195360
 21
-2.801435
 31
-3.552299
 12
2.195360
 22
0.366233
 32
-3.552314
 13
-2.192569
 23
0.366233
 33
-3.552314
 62
0
  0
3DFACE
  8
Cube
 10
-2.192569
 20
-2.801434
 30
0.835630
 11
-2.192569
 21
-2.801435
 31
-3.552299
 12
-2.192569
 22
0.366233
 32
-3.552314
 13
-2.192569
 23
2.267652
 33
0.835605
 62
0
  0
3DFACE
  8
Cube001
 10
-9.190639
 20
-2.827536
 30
6.944541
 11
-6.567581
 21
-2.827536
 31
9.277501
 12
-2.837318
 22
-4.270901
 32
6.772277
 13
-7.099200
 23
-4.270901
 33
2.981748
 62
0
  0
3DFACE
  8
Cube001
 10
-7.098872
 20
1.582598
 30
2.980766
 11
-7.099200
 21
-4.270901
 31
2.981748
 12
-2.837318
 22
-4.270901
 32
6.772277
 13
-2.836429
 23
1.582598
 33
6.771794
 62
0
  0
3DFACE
  8
Cube001
 10
-9.190639
 20
1.582598
 30
6.944537
 11
-9.190639
 21
-2.827536
 31
6.944541
 12
-7.099200
 22
-4.270901
 32
2.981748
 13
-7.098872
 23
1.582598
 33
2.980766
 62
0
  0
3DFACE
  8
Cube001
 10
-6.567578
 20
1.582598
 30
9.277499
 11
-6.567581
 21
-2.827536
 31
9.277501
 12
-9.190639
 22
-2.827536
 32
6.944541
 13
-9.190639
 23
1.582598
 33
6.944537
 62
0
  0
3DFACE
  8
Cube001
 10
-6.567578
 20
1.582598
 30
9.277499
 11
-9.190639
 21
1.582598
 31
6.944537
 12
-7.098872
 22
1.582598
 32
2.980766
 13
-2.836429
 23
1.582598
 33
6.771794
 62
0
  0
3DFACE
  8
Cube001
 10
-6.567581
 20
-2.827536
 30
9.277501
 11
-6.567578
 21
1.582598
 31
9.277499
 12
-2.836429
 22
1.582598
 32
6.771794
 13
-2.837318
 23
-4.270901
 33
6.772277
 62
0
  0
3DFACE
  8
Cylinder4
 10
-7.894373
 20
5.606320
 30
6.250607
 11
-7.994545
 21
5.606320
 31
6.754371
 12
-7.994542
 22
1.218388
 32
6.754371
 13
-7.894371
 23
1.218388
 33
6.250609
 62
0
  0
3DFACE
  8
Cylinder4
 10
-7.609046
 20
5.606320
 30
5.823524
 11
-7.894373
 21
5.606320
 31
6.250607
 12
-7.894371
 22
1.218388
 32
6.250609
 13
-7.609045
 23
1.218388
 33
5.823528
 62
0
  0
3DFACE
  8
Cylinder4
 10
-7.182000
 20
5.606320
 30
5.538141
 11
-7.609046
 21
5.606320
 31
5.823524
 12
-7.609045
 22
1.218388
 32
5.823528
 13
-7.181999
 23
1.218388
 33
5.538146
 62
0
  0
3DFACE
  8
Cylinder4
 10
-6.678250
 20
5.606320
 30
5.437905
 11
-7.182000
 21
5.606320
 31
5.538141
 12
-7.181999
 22
1.218388
 32
5.538146
 13
-6.678250
 23
1.218388
 33
5.437911
 62
0
  0
3DFACE
  8
Cylinder4
 10
-6.174487
 20
5.606320
 30
5.538076
 11
-6.678250
 21
5.606320
 31
5.437905
 12
-6.678250
 22
1.218388
 32
5.437911
 13
-6.174489
 23
1.218388
 33
5.538082
 62
0
  0
3DFACE
  8
Cylinder4
 10
-5.747404
 20
5.606320
 30
5.823404
 11
-6.174487
 21
5.606320
 31
5.538076
 12
-6.174489
 22
1.218388
 32
5.538082
 13
-5.747406
 23
1.218388
 33
5.823408
 62
0
  0
3DFACE
  8
Cylinder4
 10
-5.462021
 20
5.606320
 30
6.250451
 11
-5.747404
 21
5.606320
 31
5.823404
 12
-5.747406
 22
1.218388
 32
5.823408
 13
-5.462025
 23
1.218388
 33
6.250452
 62
0
  0
3DFACE
  8
Cylinder4
 10
-5.361785
 20
5.606320
 30
6.754201
 11
-5.462021
 21
5.606320
 31
6.250451
 12
-5.462025
 22
1.218388
 32
6.250452
 13
-5.361789
 23
1.218388
 33
6.754201
 62
0
  0
3DFACE
  8
Cylinder4
 10
-5.461957
 20
5.606320
 30
7.257965
 11
-5.361785
 21
5.606320
 31
6.754201
 12
-5.361789
 22
1.218388
 32
6.754201
 13
-5.461960
 23
1.218388
 33
7.257963
 62
0
  0
3DFACE
  8
Cylinder4
 10
-5.747284
 20
5.606320
 30
7.685047
 11
-5.461957
 21
5.606320
 31
7.257965
 12
-5.461960
 22
1.218388
 32
7.257963
 13
-5.747286
 23
1.218388
 33
7.685044
 62
0
  0
3DFACE
  8
Cylinder4
 10
-6.174330
 20
5.606320
 30
7.970430
 11
-5.747284
 21
5.606320
 31
7.685047
 12
-5.747286
 22
1.218388
 32
7.685044
 13
-6.174332
 23
1.218388
 33
7.970425
 62
0
  0
3DFACE
  8
Cylinder4
 10
-6.678080
 20
5.606320
 30
8.070666
 11
-6.174330
 21
5.606320
 31
7.970430
 12
-6.174332
 22
1.218388
 32
7.970425
 13
-6.678081
 23
1.218388
 33
8.070662
 62
0
  0
3DFACE
  8
Cylinder4
 10
-7.181843
 20
5.606320
 30
7.970495
 11
-6.678080
 21
5.606320
 31
8.070666
 12
-6.678081
 22
1.218388
 32
8.070662
 13
-7.181842
 23
1.218388
 33
7.970490
 62
0
  0
3DFACE
  8
Cylinder4
 10
-7.608926
 20
5.606320
 30
7.685167
 11
-7.181843
 21
5.606320
 31
7.970495
 12
-7.181842
 22
1.218388
 32
7.970490
 13
-7.608924
 23
1.218388
 33
7.685164
 62
0
  0
3DFACE
  8
Cylinder4
 10
-7.894309
 20
5.606320
 30
7.258121
 11
-7.608926
 21
5.606320
 31
7.685167
 12
-7.608924
 22
1.218388
 32
7.685164
 13
-7.894306
 23
1.218388
 33
7.258120
 62
0
  0
3DFACE
  8
Cylinder4
 10
-7.994545
 20
5.606320
 30
6.754371
 11
-7.894309
 21
5.606320
 31
7.258121
 12
-7.894306
 22
1.218388
 32
7.258120
 13
-7.994542
 23
1.218388
 33
6.754371
 62
0
  0
3DFACE
  8
Cylinder4
 10
-7.181999
 20
1.218388
 30
5.538146
 11
-6.174489
 21
1.218388
 31
5.538082
 12
-6.678250
 22
1.218388
 32
5.437911
 13
-6.678250
 23
1.218388
 33
5.437911
 62
0
  0
3DFACE
  8
Cylinder4
 10
-5.747406
 20
1.218388
 30
5.823408
 11
-6.174489
 21
1.218388
 31
5.538082
 12
-7.181999
 22
1.218388
 32
5.538146
 13
-7.181999
 23
1.218388
 33
5.538146
 62
0
  0
3DFACE
  8
Cylinder4
 10
-7.609045
 20
1.218388
 30
5.823528
 11
-5.747406
 21
1.218388
 31
5.823408
 12
-7.181999
 22
1.218388
 32
5.538146
 13
-7.181999
 23
1.218388
 33
5.538146
 62
0
  0
3DFACE
  8
Cylinder4
 10
-5.462025
 20
1.218388
 30
6.250452
 11
-5.747406
 21
1.218388
 31
5.823408
 12
-7.609045
 22
1.218388
 32
5.823528
 13
-7.609045
 23
1.218388
 33
5.823528
 62
0
  0
3DFACE
  8
Cylinder4
 10
-7.894371
 20
1.218388
 30
6.250609
 11
-5.462025
 21
1.218388
 31
6.250452
 12
-7.609045
 22
1.218388
 32
5.823528
 13
-7.609045
 23
1.218388
 33
5.823528
 62
0
  0
3DFACE
  8
Cylinder4
 10
-7.994542
 20
1.218388
 30
6.754371
 11
-5.462025
 21
1.218388
 31
6.250452
 12
-7.894371
 22
1.218388
 32
6.250609
 13
-7.894371
 23
1.218388
 33
6.250609
 62
0
  0
3DFACE
  8
Cylinder4
 10
-5.361789
 20
1.218388
 30
6.754201
 11
-5.462025
 21
1.218388
 31
6.250452
 12
-7.994542
 22
1.218388
 32
6.754371
 13
-7.994542
 23
1.218388
 33
6.754371
 62
0
  0
3DFACE
  8
Cylinder4
 10
-5.461960
 20
1.218388
 30
7.257963
 11
-5.361789
 21
1.218388
 31
6.754201
 12
-7.994542
 22
1.218388
 32
6.754371
 13
-7.994542
 23
1.218388
 33
6.754371
 62
0
  0
3DFACE
  8
Cylinder4
 10
-7.894306
 20
1.218388
 30
7.258120
 11
-5.461960
 21
1.218388
 31
7.257963
 12
-7.994542
 22
1.218388
 32
6.754371
 13
-7.994542
 23
1.218388
 33
6.754371
 62
0
  0
3DFACE
  8
Cylinder4
 10
-5.747286
 20
1.218388
 30
7.685044
 11
-5.461960
 21
1.218388
 31
7.257963
 12
-7.894306
 22
1.218388
 32
7.258120
 13
-7.894306
 23
1.218388
 33
7.258120
 62
0
  0
3DFACE
  8
Cylinder4
 10
-7.608924
 20
1.218388
 30
7.685164
 11
-5.747286
 21
1.218388
 31
7.685044
 12
-7.894306
 22
1.218388
 32
7.258120
 13
-7.894306
 23
1.218388
 33
7.258120
 62
0
  0
3DFACE
  8
Cylinder4
 10
-6.174332
 20
1.218388
 30
7.970425
 11
-5.747286
 21
1.218388
 31
7.685044
 12
-7.608924
 22
1.218388
 32
7.685164
 13
-7.608924
 23
1.218388
 33
7.685164
 62
0
  0
3DFACE
  8
Cylinder4
 10
-7.181842
 20
1.218388
 30
7.970490
 11
-6.174332
 21
1.218388
 31
7.970425
 12
-7.608924
 22
1.218388
 32
7.685164
 13
-7.608924
 23
1.218388
 33
7.685164
 62
0
  0
3DFACE
  8
Cylinder4
 10
-6.678081
 20
1.218388
 30
8.070662
 11
-6.174332
 21
1.218388
 31
7.970425
 12
-7.181842
 22
1.218388
 32
7.970490
 13
-7.181842
 23
1.218388
 33
7.970490
 62
0
  0
3DFACE
  8
Cylinder4
 10
-7.002059
 20
5.606320
 30
5.972478
 11
-7.609046
 21
5.606320
 31
5.823524
 12
-6.678220
 22
5.606320
 32
5.908041
 13
-6.678220
 23
5.606320
 33
5.908041
 62
0
  0
3DFACE
  8
Cylinder4
 10
-7.276588
 20
5.606320
 30
6.155939
 11
-7.609046
 21
5.606320
 31
5.823524
 12
-7.002059
 22
5.606320
 32
5.972478
 13
-7.002059
 23
5.606320
 33
5.972478
 62
0
  0
3DFACE
  8
Cylinder4
 10
-7.894373
 20
5.606320
 30
6.250607
 11
-7.609046
 21
5.606320
 31
5.823524
 12
-7.276588
 22
5.606320
 32
6.155939
 13
-7.276588
 23
5.606320
 33
6.155939
 62
0
  0
3DFACE
  8
Cylinder4
 10
-7.460013
 20
5.606320
 30
6.430492
 11
-7.894373
 21
5.606320
 31
6.250607
 12
-7.276588
 22
5.606320
 32
6.155939
 13
-7.276588
 23
5.606320
 33
6.155939
 62
0
  0
3DFACE
  8
Cylinder4
 10
-7.994545
 20
5.606320
 30
6.754371
 11
-7.894373
 21
5.606320
 31
6.250607
 12
-7.460013
 22
5.606320
 32
6.430492
 13
-7.460013
 23
5.606320
 33
6.430492
 62
0
  0
3DFACE
  8
Cylinder4
 10
-7.524409
 20
5.606320
 30
6.754340
 11
-7.994545
 21
5.606320
 31
6.754371
 12
-7.460013
 22
5.606320
 32
6.430492
 13
-7.460013
 23
5.606320
 33
6.430492
 62
0
  0
3DFACE
  8
Cylinder4
 10
-7.459971
 20
5.606320
 30
7.078180
 11
-7.994545
 21
5.606320
 31
6.754371
 12
-7.524409
 22
5.606320
 32
6.754340
 13
-7.524409
 23
5.606320
 33
6.754340
 62
0
  0
3DFACE
  8
Cylinder4
 10
-7.894309
 20
5.606320
 30
7.258121
 11
-7.994545
 21
5.606320
 31
6.754371
 12
-7.459971
 22
5.606320
 32
7.078180
 13
-7.459971
 23
5.606320
 33
7.078180
 62
0
  0
3DFACE
  8
Cylinder4
 10
-7.276511
 20
5.606320
 30
7.352710
 11
-7.894309
 21
5.606320
 31
7.258121
 12
-7.459971
 22
5.606320
 32
7.078180
 13
-7.459971
 23
5.606320
 33
7.078180
 62
0
  0
3DFACE
  8
Cylinder4
 10
-7.001958
 20
5.606320
 30
7.536135
 11
-7.894309
 21
5.606320
 31
7.258121
 12
-7.276511
 22
5.606320
 32
7.352710
 13
-7.276511
 23
5.606320
 33
7.352710
 62
0
  0
3DFACE
  8
Cylinder4
 10
-7.608926
 20
5.606320
 30
7.685167
 11
-7.894309
 21
5.606320
 31
7.258121
 12
-7.001958
 22
5.606320
 32
7.536135
 13
-7.001958
 23
5.606320
 33
7.536135
 62
0
  0
3DFACE
  8
Cylinder4
 10
-7.608926
 20
5.606320
 30
7.685167
 11
-7.001958
 21
5.606320
 31
7.536135
 12
-6.678111
 22
5.606320
 32
7.600531
 13
-6.678111
 23
5.606320
 33
7.600531
 62
0
  0
3DFACE
  8
Cylinder4
 10
-5.747284
 20
5.606320
 30
7.685047
 11
-7.608926
 21
5.606320
 31
7.685167
 12
-6.678111
 22
5.606320
 32
7.600531
 13
-6.678111
 23
5.606320
 33
7.600531
 62
0
  0
3DFACE
  8
Cylinder4
 10
-7.181843
 20
5.606320
 30
7.970495
 11
-7.608926
 21
5.606320
 31
7.685167
 12
-5.747284
 22
5.606320
 32
7.685047
 13
-5.747284
 23
5.606320
 33
7.685047
 62
0
  0
3DFACE
  8
Cylinder4
 10
-6.174330
 20
5.606320
 30
7.970430
 11
-7.181843
 21
5.606320
 31
7.970495
 12
-5.747284
 22
5.606320
 32
7.685047
 13
-5.747284
 23
5.606320
 33
7.685047
 62
0
  0
3DFACE
  8
Cylinder4
 10
-6.678080
 20
5.606320
 30
8.070666
 11
-7.181843
 21
5.606320
 31
7.970495
 12
-6.174330
 22
5.606320
 32
7.970430
 13
-6.174330
 23
5.606320
 33
7.970430
 62
0
  0
3DFACE
  8
Cylinder4
 10
-6.174487
 20
5.606320
 30
5.538076
 11
-7.182000
 21
5.606320
 31
5.538141
 12
-6.678250
 22
5.606320
 32
5.437905
 13
-6.678250
 23
5.606320
 33
5.437905
 62
0
  0
3DFACE
  8
Cylinder4
 10
-7.609046
 20
5.606320
 30
5.823524
 11
-7.182000
 21
5.606320
 31
5.538141
 12
-6.174487
 22
5.606320
 32
5.538076
 13
-6.174487
 23
5.606320
 33
5.538076
 62
0
  0
3DFACE
  8
Cylinder4
 10
-5.747404
 20
5.606320
 30
5.823404
 11
-7.609046
 21
5.606320
 31
5.823524
 12
-6.174487
 22
5.606320
 32
5.538076
 13
-6.174487
 23
5.606320
 33
5.538076
 62
0
  0
3DFACE
  8
Cylinder4
 10
-6.678220
 20
5.606320
 30
5.908041
 11
-7.609046
 21
5.606320
 31
5.823524
 12
-5.747404
 22
5.606320
 32
5.823404
 13
-5.747404
 23
5.606320
 33
5.823404
 62
0
  0
3DFACE
  8
Cylinder4
 10
-6.354372
 20
5.606320
 30
5.972437
 11
-6.678220
 21
5.606320
 31
5.908041
 12
-5.747404
 22
5.606320
 32
5.823404
 13
-5.747404
 23
5.606320
 33
5.823404
 62
0
  0
3DFACE
  8
Cylinder4
 10
-6.079819
 20
5.606320
 30
6.155862
 11
-6.354372
 21
5.606320
 31
5.972437
 12
-5.747404
 22
5.606320
 32
5.823404
 13
-5.747404
 23
5.606320
 33
5.823404
 62
0
  0
3DFACE
  8
Cylinder4
 10
-5.462021
 20
5.606320
 30
6.250451
 11
-6.079819
 21
5.606320
 31
6.155862
 12
-5.747404
 22
5.606320
 32
5.823404
 13
-5.747404
 23
5.606320
 33
5.823404
 62
0
  0
3DFACE
  8
Cylinder4
 10
-5.896358
 20
5.606320
 30
6.430392
 11
-6.079819
 21
5.606320
 31
6.155862
 12
-5.462021
 22
5.606320
 32
6.250451
 13
-5.462021
 23
5.606320
 33
6.250451
 62
0
  0
3DFACE
  8
Cylinder4
 10
-5.831921
 20
5.606320
 30
6.754231
 11
-5.896358
 21
5.606320
 31
6.430392
 12
-5.462021
 22
5.606320
 32
6.250451
 13
-5.462021
 23
5.606320
 33
6.250451
 62
0
  0
3DFACE
  8
Cylinder4
 10
-5.361785
 20
5.606320
 30
6.754201
 11
-5.831921
 21
5.606320
 31
6.754231
 12
-5.462021
 22
5.606320
 32
6.250451
 13
-5.462021
 23
5.606320
 33
6.250451
 62
0
  0
3DFACE
  8
Cylinder4
 10
-5.896317
 20
5.606320
 30
7.078079
 11
-5.831921
 21
5.606320
 31
6.754231
 12
-5.361785
 22
5.606320
 32
6.754201
 13
-5.361785
 23
5.606320
 33
6.754201
 62
0
  0
3DFACE
  8
Cylinder4
 10
-5.461957
 20
5.606320
 30
7.257965
 11
-5.896317
 21
5.606320
 31
7.078079
 12
-5.361785
 22
5.606320
 32
6.754201
 13
-5.361785
 23
5.606320
 33
6.754201
 62
0
  0
3DFACE
  8
Cylinder4
 10
-6.079742
 20
5.606320
 30
7.352633
 11
-5.896317
 21
5.606320
 31
7.078079
 12
-5.461957
 22
5.606320
 32
7.257965
 13
-5.461957
 23
5.606320
 33
7.257965
 62
0
  0
3DFACE
  8
Cylinder4
 10
-6.354271
 20
5.606320
 30
7.536093
 11
-6.079742
 21
5.606320
 31
7.352633
 12
-5.461957
 22
5.606320
 32
7.257965
 13
-5.461957
 23
5.606320
 33
7.257965
 62
0
  0
3DFACE
  8
Cylinder4
 10
-5.747284
 20
5.606320
 30
7.685047
 11
-6.354271
 21
5.606320
 31
7.536093
 12
-5.461957
 22
5.606320
 32
7.257965
 13
-5.461957
 23
5.606320
 33
7.257965
 62
0
  0
3DFACE
  8
Cylinder4
 10
-5.747284
 20
5.606320
 30
7.685047
 11
-6.678111
 21
5.606320
 31
7.600531
 12
-6.354271
 22
5.606320
 32
7.536093
 13
-6.354271
 23
5.606320
 33
7.536093
 62
0
  0
3DFACE
  8
Cylinder4
 10
-5.896324
 20
1.958020
 30
7.078081
 11
-5.831928
 21
1.958020
 31
6.754232
 12
-5.831921
 22
5.606320
 32
6.754231
 13
-5.896317
 23
5.606320
 33
7.078079
 62
1
  0
3DFACE
  8
Cylinder4
 10
-6.079746
 20
1.958020
 30
7.352635
 11
-5.896324
 21
1.958020
 31
7.078081
 12
-5.896317
 22
5.606320
 32
7.078079
 13
-6.079742
 23
5.606320
 33
7.352633
 62
1
  0
3DFACE
  8
Cylinder4
 10
-6.354273
 20
1.958020
 30
7.536095
 11
-6.079746
 21
1.958020
 31
7.352635
 12
-6.079742
 22
5.606320
 32
7.352633
 13
-6.354271
 23
5.606320
 33
7.536093
 62
1
  0
3DFACE
  8
Cylinder4
 10
-6.678111
 20
1.958020
 30
7.600532
 11
-6.354273
 21
1.958020
 31
7.536095
 12
-6.354271
 22
5.606320
 32
7.536093
 13
-6.678111
 23
5.606320
 33
7.600531
 62
1
  0
3DFACE
  8
Cylinder4
 10
-7.001956
 20
1.958020
 30
7.536137
 11
-6.678111
 21
1.958020
 31
7.600532
 12
-6.678111
 22
5.606320
 32
7.600531
 13
-7.001958
 23
5.606320
 33
7.536135
 62
1
  0
3DFACE
  8
Cylinder4
 10
-7.276507
 20
1.958020
 30
7.352713
 11
-7.001956
 21
1.958020
 31
7.536137
 12
-7.001958
 22
5.606320
 32
7.536135
 13
-7.276511
 23
5.606320
 33
7.352710
 62
1
  0
3DFACE
  8
Cylinder4
 10
-7.459965
 20
1.958020
 30
7.078182
 11
-7.276507
 21
1.958020
 31
7.352713
 12
-7.276511
 22
5.606320
 32
7.352710
 13
-7.459971
 23
5.606320
 33
7.078180
 62
1
  0
3DFACE
  8
Cylinder4
 10
-7.524402
 20
1.958020
 30
6.754341
 11
-7.459965
 21
1.958020
 31
7.078182
 12
-7.459971
 22
5.606320
 32
7.078180
 13
-7.524409
 23
5.606320
 33
6.754340
 62
1
  0
3DFACE
  8
Cylinder4
 10
-6.354374
 20
1.958020
 30
5.972437
 11
-7.002057
 21
1.958020
 31
5.972479
 12
-6.678220
 22
1.958020
 32
5.908041
 13
-6.678220
 23
1.958020
 33
5.908041
 62
1
  0
3DFACE
  8
Cylinder4
 10
-7.276584
 20
1.958020
 30
6.155938
 11
-7.002057
 21
1.958020
 31
5.972479
 12
-6.354374
 22
1.958020
 32
5.972437
 13
-6.354374
 23
1.958020
 33
5.972437
 62
1
  0
3DFACE
  8
Cylinder4
 10
-6.079823
 20
1.958020
 30
6.155861
 11
-7.276584
 21
1.958020
 31
6.155938
 12
-6.354374
 22
1.958020
 32
5.972437
 13
-6.354374
 23
1.958020
 33
5.972437
 62
1
  0
3DFACE
  8
Cylinder4
 10
-7.460007
 20
1.958020
 30
6.430492
 11
-7.276584
 21
1.958020
 31
6.155938
 12
-6.079823
 22
1.958020
 32
6.155861
 13
-6.079823
 23
1.958020
 33
6.155861
 62
1
  0
3DFACE
  8
Cylinder4
 10
-5.896366
 20
1.958020
 30
6.430392
 11
-7.460007
 21
1.958020
 31
6.430492
 12
-6.079823
 22
1.958020
 32
6.155861
 13
-6.079823
 23
1.958020
 33
6.155861
 62
1
  0
3DFACE
  8
Cylinder4
 10
-7.524402
 20
1.958020
 30
6.754341
 11
-7.460007
 21
1.958020
 31
6.430492
 12
-5.896366
 22
1.958020
 32
6.430392
 13
-5.896366
 23
1.958020
 33
6.430392
 62
1
  0
3DFACE
  8
Cylinder4
 10
-5.831928
 20
1.958020
 30
6.754232
 11
-7.524402
 21
1.958020
 31
6.754341
 12
-5.896366
 22
1.958020
 32
6.430392
 13
-5.896366
 23
1.958020
 33
6.430392
 62
1
  0
3DFACE
  8
Cylinder4
 10
-7.459965
 20
1.958020
 30
7.078182
 11
-7.524402
 21
1.958020
 31
6.754341
 12
-5.831928
 22
1.958020
 32
6.754232
 13
-5.831928
 23
1.958020
 33
6.754232
 62
1
  0
3DFACE
  8
Cylinder4
 10
-5.896324
 20
1.958020
 30
7.078081
 11
-7.459965
 21
1.958020
 31
7.078182
 12
-5.831928
 22
1.958020
 32
6.754232
 13
-5.831928
 23
1.958020
 33
6.754232
 62
1
  0
3DFACE
  8
Cylinder4
 10
-7.276507
 20
1.958020
 30
7.352713
 11
-7.459965
 21
1.958020
 31
7.078182
 12
-5.896324
 22
1.958020
 32
7.078081
 13
-5.896324
 23
1.958020
 33
7.078081
 62
1
  0
3DFACE
  8
Cylinder4
 10
-6.079746
 20
1.958020
 30
7.352635
 11
-7.276507
 21
1.958020
 31
7.352713
 12
-5.896324
 22
1.958020
 32
7.078081
 13
-5.896324
 23
1.958020
 33
7.078081
 62
1
  0
3DFACE
  8
Cylinder4
 10
-7.001956
 20
1.958020
 30
7.536137
 11
-7.276507
 21
1.958020
 31
7.352713
 12
-6.079746
 22
1.958020
 32
7.352635
 13
-6.079746
 23
1.958020
 33
7.352635
 62
1
  0
3DFACE
  8
Cylinder4
 10
-6.354273
 20
1.958020
 30
7.536095
 11
-7.001956
 21
1.958020
 31
7.536137
 12
-6.079746
 22
1.958020
 32
7.352635
 13
-6.079746
 23
1.958020
 33
7.352635
 62
1
  0
3DFACE
  8
Cylinder4
 10
-6.678111
 20
1.958020
 30
7.600532
 11
-7.001956
 21
1.958020
 31
7.536137
 12
-6.354273
 22
1.958020
 32
7.536095
 13
-6.354273
 23
1.958020
 33
7.536095
 62
1
  0
3DFACE
  8
Cylinder4
 10
-5.896366
 20
1.958020
 30
6.430392
 11
-6.079823
 21
1.958020
 31
6.155861
 12
-6.079819
 22
5.606320
 32
6.155862
 13
-5.896358
 23
5.606320
 33
6.430392
 62
1
  0
3DFACE
  8
Cylinder4
 10
-5.831928
 20
1.958020
 30
6.754232
 11
-5.896366
 21
1.958020
 31
6.430392
 12
-5.896358
 22
5.606320
 32
6.430392
 13
-5.831921
 23
5.606320
 33
6.754231
 62
1
  0
3DFACE
  8
Cylinder4
 10
-6.079823
 20
1.958020
 30
6.155861
 11
-6.354374
 21
1.958020
 31
5.972437
 12
-6.354372
 22
5.606320
 32
5.972437
 13
-6.079819
 23
5.606320
 33
6.155862
 62
1
  0
3DFACE
  8
Cylinder4
 10
-6.354374
 20
1.958020
 30
5.972437
 11
-6.678220
 21
1.958020
 31
5.908041
 12
-6.678220
 22
5.606320
 32
5.908041
 13
-6.354372
 23
5.606320
 33
5.972437
 62
1
  0
3DFACE
  8
Cylinder4
 10
-6.678220
 20
1.958020
 30
5.908041
 11
-7.002057
 21
1.958020
 31
5.972479
 12
-7.002059
 22
5.606320
 32
5.972478
 13
-6.678220
 23
5.606320
 33
5.908041
 62
1
  0
3DFACE
  8
Cylinder4
 10
-7.002057
 20
1.958020
 30
5.972479
 11
-7.276584
 21
1.958020
 31
6.155938
 12
-7.276588
 22
5.606320
 32
6.155939
 13
-7.002059
 23
5.606320
 33
5.972478
 62
1
  0
3DFACE
  8
Cylinder4
 10
-7.276584
 20
1.958020
 30
6.155938
 11
-7.460007
 21
1.958020
 31
6.430492
 12
-7.460013
 22
5.606320
 32
6.430492
 13
-7.276588
 23
5.606320
 33
6.155939
 62
1
  0
3DFACE
  8
Cylinder4
 10
-7.460007
 20
1.958020
 30
6.430492
 11
-7.524402
 21
1.958020
 31
6.754341
 12
-7.524409
 22
5.606320
 32
6.754340
 13
-7.460013
 23
5.606320
 33
6.430492
 62
1
  0
3DFACE
  8
Cube002
 10
7.101984
 20
-4.270902
 30
2.981727
 11
2.840093
 21
-4.270902
 31
6.772265
 12
6.570363
 22
-2.827537
 32
9.277494
 13
9.193427
 23
-2.827537
 33
6.944529
 62
0
  0
3DFACE
  8
Cube002
 10
2.839203
 20
1.582598
 30
6.771782
 11
2.840093
 21
-4.270902
 31
6.772265
 12
7.101984
 22
-4.270902
 32
2.981727
 13
7.101655
 23
1.582598
 33
2.980745
 62
0
  0
3DFACE
  8
Cube002
 10
7.101655
 20
1.582598
 30
2.980745
 11
7.101984
 21
-4.270902
 31
2.981727
 12
9.193427
 22
-2.827537
 32
6.944529
 13
9.193426
 23
1.582598
 33
6.944525
 62
0
  0
3DFACE
  8
Cube002
 10
9.193426
 20
1.582598
 30
6.944525
 11
9.193427
 21
-2.827537
 31
6.944529
 12
6.570363
 22
-2.827537
 32
9.277494
 13
6.570360
 23
1.582598
 33
9.277493
 62
0
  0
3DFACE
  8
Cube002
 10
2.839203
 20
1.582598
 30
6.771782
 11
7.101655
 21
1.582598
 31
2.980745
 12
9.193426
 22
1.582598
 32
6.944525
 13
6.570360
 23
1.582598
 33
9.277493
 62
0
  0
3DFACE
  8
Cube002
 10
2.840093
 20
-4.270902
 30
6.772265
 11
2.839203
 21
1.582598
 31
6.771782
 12
6.570360
 22
1.582598
 32
9.277493
 13
6.570363
 23
-2.827537
 33
9.277494
 62
0
  0
3DFACE
  8
Cylinder4001
 10
7.897166
 20
1.218389
 30
6.250610
 11
7.997337
 21
1.218389
 31
6.754372
 12
7.997340
 22
5.606321
 32
6.754372
 13
7.897169
 23
5.606321
 33
6.250608
 62
0
  0
3DFACE
  8
Cylinder4001
 10
7.611840
 20
1.218389
 30
5.823529
 11
7.897166
 21
1.218389
 31
6.250610
 12
7.897169
 22
5.606321
 32
6.250608
 13
7.611842
 23
5.606321
 33
5.823525
 62
0
  0
3DFACE
  8
Cylinder4001
 10
7.184794
 20
1.218389
 30
5.538147
 11
7.611840
 21
1.218389
 31
5.823529
 12
7.611842
 22
5.606321
 32
5.823525
 13
7.184796
 23
5.606321
 33
5.538142
 62
0
  0
3DFACE
  8
Cylinder4001
 10
6.681046
 20
1.218389
 30
5.437912
 11
7.184794
 21
1.218389
 31
5.538147
 12
7.184796
 22
5.606321
 32
5.538142
 13
6.681046
 23
5.606321
 33
5.437906
 62
0
  0
3DFACE
  8
Cylinder4001
 10
6.177284
 20
1.218389
 30
5.538083
 11
6.681046
 21
1.218389
 31
5.437912
 12
6.681046
 22
5.606321
 32
5.437906
 13
6.177282
 23
5.606321
 33
5.538077
 62
0
  0
3DFACE
  8
Cylinder4001
 10
5.750201
 20
1.218389
 30
5.823409
 11
6.177284
 21
1.218389
 31
5.538083
 12
6.177282
 22
5.606321
 32
5.538077
 13
5.750199
 23
5.606321
 33
5.823405
 62
0
  0
3DFACE
  8
Cylinder4001
 10
5.464820
 20
1.218389
 30
6.250453
 11
5.750201
 21
1.218389
 31
5.823409
 12
5.750199
 22
5.606321
 32
5.823405
 13
5.464817
 23
5.606321
 33
6.250452
 62
0
  0
3DFACE
  8
Cylinder4001
 10
5.364584
 20
1.218389
 30
6.754202
 11
5.464820
 21
1.218389
 31
6.250453
 12
5.464817
 22
5.606321
 32
6.250452
 13
5.364581
 23
5.606321
 33
6.754202
 62
0
  0
3DFACE
  8
Cylinder4001
 10
5.464755
 20
1.218389
 30
7.257964
 11
5.364584
 21
1.218389
 31
6.754202
 12
5.364581
 22
5.606321
 32
6.754202
 13
5.464752
 23
5.606321
 33
7.257966
 62
0
  0
3DFACE
  8
Cylinder4001
 10
5.750081
 20
1.218389
 30
7.685046
 11
5.464755
 21
1.218389
 31
7.257964
 12
5.464752
 22
5.606321
 32
7.257966
 13
5.750079
 23
5.606321
 33
7.685049
 62
0
  0
3DFACE
  8
Cylinder4001
 10
6.177127
 20
1.218389
 30
7.970427
 11
5.750081
 21
1.218389
 31
7.685046
 12
5.750079
 22
5.606321
 32
7.685049
 13
6.177125
 23
5.606321
 33
7.970432
 62
0
  0
3DFACE
  8
Cylinder4001
 10
6.680876
 20
1.218389
 30
8.070663
 11
6.177127
 21
1.218389
 31
7.970427
 12
6.177125
 22
5.606321
 32
7.970432
 13
6.680876
 23
5.606321
 33
8.070668
 62
0
  0
3DFACE
  8
Cylinder4001
 10
7.184637
 20
1.218389
 30
7.970492
 11
6.680876
 21
1.218389
 31
8.070663
 12
6.680876
 22
5.606321
 32
8.070668
 13
7.184639
 23
5.606321
 33
7.970497
 62
0
  0
3DFACE
  8
Cylinder4001
 10
7.611720
 20
1.218389
 30
7.685166
 11
7.184637
 21
1.218389
 31
7.970492
 12
7.184639
 22
5.606321
 32
7.970497
 13
7.611722
 23
5.606321
 33
7.685169
 62
0
  0
3DFACE
  8
Cylinder4001
 10
7.897101
 20
1.218389
 30
7.258121
 11
7.611720
 21
1.218389
 31
7.685166
 12
7.611722
 22
5.606321
 32
7.685169
 13
7.897104
 23
5.606321
 33
7.258123
 62
0
  0
3DFACE
  8
Cylinder4001
 10
7.997337
 20
1.218389
 30
6.754372
 11
7.897101
 21
1.218389
 31
7.258121
 12
7.897104
 22
5.606321
 32
7.258123
 13
7.997340
 23
5.606321
 33
6.754372
 62
0
  0
3DFACE
  8
Cylinder4001
 10
7.184794
 20
1.218389
 30
5.538147
 11
6.681046
 21
1.218389
 31
5.437912
 12
6.177284
 22
1.218389
 32
5.538083
 13
6.177284
 23
1.218389
 33
5.538083
 62
0
  0
3DFACE
  8
Cylinder4001
 10
5.750201
 20
1.218389
 30
5.823409
 11
7.184794
 21
1.218389
 31
5.538147
 12
6.177284
 22
1.218389
 32
5.538083
 13
6.177284
 23
1.218389
 33
5.538083
 62
0
  0
3DFACE
  8
Cylinder4001
 10
7.611840
 20
1.218389
 30
5.823529
 11
7.184794
 21
1.218389
 31
5.538147
 12
5.750201
 22
1.218389
 32
5.823409
 13
5.750201
 23
1.218389
 33
5.823409
 62
0
  0
3DFACE
  8
Cylinder4001
 10
5.464820
 20
1.218389
 30
6.250453
 11
7.611840
 21
1.218389
 31
5.823529
 12
5.750201
 22
1.218389
 32
5.823409
 13
5.750201
 23
1.218389
 33
5.823409
 62
0
  0
3DFACE
  8
Cylinder4001
 10
7.897166
 20
1.218389
 30
6.250610
 11
7.611840
 21
1.218389
 31
5.823529
 12
5.464820
 22
1.218389
 32
6.250453
 13
5.464820
 23
1.218389
 33
6.250453
 62
0
  0
3DFACE
  8
Cylinder4001
 10
5.364584
 20
1.218389
 30
6.754202
 11
7.897166
 21
1.218389
 31
6.250610
 12
5.464820
 22
1.218389
 32
6.250453
 13
5.464820
 23
1.218389
 33
6.250453
 62
0
  0
3DFACE
  8
Cylinder4001
 10
7.997337
 20
1.218389
 30
6.754372
 11
7.897166
 21
1.218389
 31
6.250610
 12
5.364584
 22
1.218389
 32
6.754202
 13
5.364584
 23
1.218389
 33
6.754202
 62
0
  0
3DFACE
  8
Cylinder4001
 10
5.464755
 20
1.218389
 30
7.257964
 11
7.997337
 21
1.218389
 31
6.754372
 12
5.364584
 22
1.218389
 32
6.754202
 13
5.364584
 23
1.218389
 33
6.754202
 62
0
  0
3DFACE
  8
Cylinder4001
 10
7.897101
 20
1.218389
 30
7.258121
 11
7.997337
 21
1.218389
 31
6.754372
 12
5.464755
 22
1.218389
 32
7.257964
 13
5.464755
 23
1.218389
 33
7.257964
 62
0
  0
3DFACE
  8
Cylinder4001
 10
5.750081
 20
1.218389
 30
7.685046
 11
7.897101
 21
1.218389
 31
7.258121
 12
5.464755
 22
1.218389
 32
7.257964
 13
5.464755
 23
1.218389
 33
7.257964
 62
0
  0
3DFACE
  8
Cylinder4001
 10
7.611720
 20
1.218389
 30
7.685166
 11
7.897101
 21
1.218389
 31
7.258121
 12
5.750081
 22
1.218389
 32
7.685046
 13
5.750081
 23
1.218389
 33
7.685046
 62
0
  0
3DFACE
  8
Cylinder4001
 10
6.177127
 20
1.218389
 30
7.970427
 11
7.611720
 21
1.218389
 31
7.685166
 12
5.750081
 22
1.218389
 32
7.685046
 13
5.750081
 23
1.218389
 33
7.685046
 62
0
  0
3DFACE
  8
Cylinder4001
 10
7.184637
 20
1.218389
 30
7.970492
 11
7.611720
 21
1.218389
 31
7.685166
 12
6.177127
 22
1.218389
 32
7.970427
 13
6.177127
 23
1.218389
 33
7.970427
 62
0
  0
3DFACE
  8
Cylinder4001
 10
6.680876
 20
1.218389
 30
8.070663
 11
7.184637
 21
1.218389
 31
7.970492
 12
6.177127
 22
1.218389
 32
7.970427
 13
6.177127
 23
1.218389
 33
7.970427
 62
0
  0
3DFACE
  8
Cylinder4001
 10
7.004855
 20
5.606321
 30
5.972480
 11
6.681015
 21
5.606321
 31
5.908042
 12
7.611842
 22
5.606321
 32
5.823525
 13
7.611842
 23
5.606321
 33
5.823525
 62
0
  0
3DFACE
  8
Cylinder4001
 10
7.279384
 20
5.606321
 30
6.155940
 11
7.004855
 21
5.606321
 31
5.972480
 12
7.611842
 22
5.606321
 32
5.823525
 13
7.611842
 23
5.606321
 33
5.823525
 62
0
  0
3DFACE
  8
Cylinder4001
 10
7.897169
 20
5.606321
 30
6.250608
 11
7.279384
 21
5.606321
 31
6.155940
 12
7.611842
 22
5.606321
 32
5.823525
 13
7.611842
 23
5.606321
 33
5.823525
 62
0
  0
3DFACE
  8
Cylinder4001
 10
7.462809
 20
5.606321
 30
6.430494
 11
7.279384
 21
5.606321
 31
6.155940
 12
7.897169
 22
5.606321
 32
6.250608
 13
7.897169
 23
5.606321
 33
6.250608
 62
0
  0
3DFACE
  8
Cylinder4001
 10
7.527205
 20
5.606321
 30
6.754342
 11
7.462809
 21
5.606321
 31
6.430494
 12
7.897169
 22
5.606321
 32
6.250608
 13
7.897169
 23
5.606321
 33
6.250608
 62
0
  0
3DFACE
  8
Cylinder4001
 10
7.997340
 20
5.606321
 30
6.754372
 11
7.527205
 21
5.606321
 31
6.754342
 12
7.897169
 22
5.606321
 32
6.250608
 13
7.897169
 23
5.606321
 33
6.250608
 62
0
  0
3DFACE
  8
Cylinder4001
 10
7.462767
 20
5.606321
 30
7.078182
 11
7.527205
 21
5.606321
 31
6.754342
 12
7.997340
 22
5.606321
 32
6.754372
 13
7.997340
 23
5.606321
 33
6.754372
 62
0
  0
3DFACE
  8
Cylinder4001
 10
7.897104
 20
5.606321
 30
7.258123
 11
7.462767
 21
5.606321
 31
7.078182
 12
7.997340
 22
5.606321
 32
6.754372
 13
7.997340
 23
5.606321
 33
6.754372
 62
0
  0
3DFACE
  8
Cylinder4001
 10
7.279307
 20
5.606321
 30
7.352712
 11
7.462767
 21
5.606321
 31
7.078182
 12
7.897104
 22
5.606321
 32
7.258123
 13
7.897104
 23
5.606321
 33
7.258123
 62
0
  0
3DFACE
  8
Cylinder4001
 10
7.004754
 20
5.606321
 30
7.536137
 11
7.279307
 21
5.606321
 31
7.352712
 12
7.897104
 22
5.606321
 32
7.258123
 13
7.897104
 23
5.606321
 33
7.258123
 62
0
  0
3DFACE
  8
Cylinder4001
 10
7.611722
 20
5.606321
 30
7.685169
 11
7.004754
 21
5.606321
 31
7.536137
 12
7.897104
 22
5.606321
 32
7.258123
 13
7.897104
 23
5.606321
 33
7.258123
 62
0
  0
3DFACE
  8
Cylinder4001
 10
7.611722
 20
5.606321
 30
7.685169
 11
6.680906
 21
5.606321
 31
7.600533
 12
7.004754
 22
5.606321
 32
7.536137
 13
7.004754
 23
5.606321
 33
7.536137
 62
0
  0
3DFACE
  8
Cylinder4001
 10
7.611722
 20
5.606321
 30
7.685169
 11
5.750079
 21
5.606321
 31
7.685049
 12
6.680906
 22
5.606321
 32
7.600533
 13
6.680906
 23
5.606321
 33
7.600533
 62
0
  0
3DFACE
  8
Cylinder4001
 10
6.177125
 20
5.606321
 30
7.970432
 11
5.750079
 21
5.606321
 31
7.685049
 12
7.611722
 22
5.606321
 32
7.685169
 13
7.611722
 23
5.606321
 33
7.685169
 62
0
  0
3DFACE
  8
Cylinder4001
 10
7.184639
 20
5.606321
 30
7.970497
 11
6.177125
 21
5.606321
 31
7.970432
 12
7.611722
 22
5.606321
 32
7.685169
 13
7.611722
 23
5.606321
 33
7.685169
 62
0
  0
3DFACE
  8
Cylinder4001
 10
6.680876
 20
5.606321
 30
8.070668
 11
6.177125
 21
5.606321
 31
7.970432
 12
7.184639
 22
5.606321
 32
7.970497
 13
7.184639
 23
5.606321
 33
7.970497
 62
0
  0
3DFACE
  8
Cylinder4001
 10
7.184796
 20
5.606321
 30
5.538142
 11
6.177282
 21
5.606321
 31
5.538077
 12
6.681046
 22
5.606321
 32
5.437906
 13
6.681046
 23
5.606321
 33
5.437906
 62
0
  0
3DFACE
  8
Cylinder4001
 10
5.750199
 20
5.606321
 30
5.823405
 11
6.177282
 21
5.606321
 31
5.538077
 12
7.184796
 22
5.606321
 32
5.538142
 13
7.184796
 23
5.606321
 33
5.538142
 62
0
  0
3DFACE
  8
Cylinder4001
 10
7.611842
 20
5.606321
 30
5.823525
 11
5.750199
 21
5.606321
 31
5.823405
 12
7.184796
 22
5.606321
 32
5.538142
 13
7.184796
 23
5.606321
 33
5.538142
 62
0
  0
3DFACE
  8
Cylinder4001
 10
6.681015
 20
5.606321
 30
5.908042
 11
5.750199
 21
5.606321
 31
5.823405
 12
7.611842
 22
5.606321
 32
5.823525
 13
7.611842
 23
5.606321
 33
5.823525
 62
0
  0
3DFACE
  8
Cylinder4001
 10
6.357167
 20
5.606321
 30
5.972438
 11
5.750199
 21
5.606321
 31
5.823405
 12
6.681015
 22
5.606321
 32
5.908042
 13
6.681015
 23
5.606321
 33
5.908042
 62
0
  0
3DFACE
  8
Cylinder4001
 10
6.082614
 20
5.606321
 30
6.155863
 11
5.750199
 21
5.606321
 31
5.823405
 12
6.357167
 22
5.606321
 32
5.972438
 13
6.357167
 23
5.606321
 33
5.972438
 62
0
  0
3DFACE
  8
Cylinder4001
 10
5.464817
 20
5.606321
 30
6.250452
 11
5.750199
 21
5.606321
 31
5.823405
 12
6.082614
 22
5.606321
 32
6.155863
 13
6.082614
 23
5.606321
 33
6.155863
 62
0
  0
3DFACE
  8
Cylinder4001
 10
5.899154
 20
5.606321
 30
6.430393
 11
5.464817
 21
5.606321
 31
6.250452
 12
6.082614
 22
5.606321
 32
6.155863
 13
6.082614
 23
5.606321
 33
6.155863
 62
0
  0
3DFACE
  8
Cylinder4001
 10
5.364581
 20
5.606321
 30
6.754202
 11
5.464817
 21
5.606321
 31
6.250452
 12
5.899154
 22
5.606321
 32
6.430393
 13
5.899154
 23
5.606321
 33
6.430393
 62
0
  0
3DFACE
  8
Cylinder4001
 10
5.834716
 20
5.606321
 30
6.754232
 11
5.364581
 21
5.606321
 31
6.754202
 12
5.899154
 22
5.606321
 32
6.430393
 13
5.899154
 23
5.606321
 33
6.430393
 62
0
  0
3DFACE
  8
Cylinder4001
 10
5.899112
 20
5.606321
 30
7.078081
 11
5.364581
 21
5.606321
 31
6.754202
 12
5.834716
 22
5.606321
 32
6.754232
 13
5.834716
 23
5.606321
 33
6.754232
 62
0
  0
3DFACE
  8
Cylinder4001
 10
5.464752
 20
5.606321
 30
7.257966
 11
5.364581
 21
5.606321
 31
6.754202
 12
5.899112
 22
5.606321
 32
7.078081
 13
5.899112
 23
5.606321
 33
7.078081
 62
0
  0
3DFACE
  8
Cylinder4001
 10
6.082537
 20
5.606321
 30
7.352634
 11
5.464752
 21
5.606321
 31
7.257966
 12
5.899112
 22
5.606321
 32
7.078081
 13
5.899112
 23
5.606321
 33
7.078081
 62
0
  0
3DFACE
  8
Cylinder4001
 10
6.357067
 20
5.606321
 30
7.536095
 11
5.464752
 21
5.606321
 31
7.257966
 12
6.082537
 22
5.606321
 32
7.352634
 13
6.082537
 23
5.606321
 33
7.352634
 62
0
  0
3DFACE
  8
Cylinder4001
 10
5.750079
 20
5.606321
 30
7.685049
 11
5.464752
 21
5.606321
 31
7.257966
 12
6.357067
 22
5.606321
 32
7.536095
 13
6.357067
 23
5.606321
 33
7.536095
 62
0
  0
3DFACE
  8
Cylinder4001
 10
5.750079
 20
5.606321
 30
7.685049
 11
6.357067
 21
5.606321
 31
7.536095
 12
6.680906
 22
5.606321
 32
7.600533
 13
6.680906
 23
5.606321
 33
7.600533
 62
0
  0
3DFACE
  8
Cylinder4001
 10
5.899112
 20
5.606321
 30
7.078081
 11
5.834716
 21
5.606321
 31
6.754232
 12
5.834723
 22
1.958021
 32
6.754233
 13
5.899119
 23
1.958021
 33
7.078083
 62
1
  0
3DFACE
  8
Cylinder4001
 10
6.082537
 20
5.606321
 30
7.352634
 11
5.899112
 21
5.606321
 31
7.078081
 12
5.899119
 22
1.958021
 32
7.078083
 13
6.082541
 23
1.958021
 33
7.352637
 62
1
  0
3DFACE
  8
Cylinder4001
 10
6.357067
 20
5.606321
 30
7.536095
 11
6.082537
 21
5.606321
 31
7.352634
 12
6.082541
 22
1.958021
 32
7.352637
 13
6.357069
 23
1.958021
 33
7.536097
 62
1
  0
3DFACE
  8
Cylinder4001
 10
6.680906
 20
5.606321
 30
7.600533
 11
6.357067
 21
5.606321
 31
7.536095
 12
6.357069
 22
1.958021
 32
7.536097
 13
6.680906
 23
1.958021
 33
7.600534
 62
1
  0
3DFACE
  8
Cylinder4001
 10
7.004754
 20
5.606321
 30
7.536137
 11
6.680906
 21
5.606321
 31
7.600533
 12
6.680906
 22
1.958021
 32
7.600534
 13
7.004751
 23
1.958021
 33
7.536138
 62
1
  0
3DFACE
  8
Cylinder4001
 10
7.279307
 20
5.606321
 30
7.352712
 11
7.004754
 21
5.606321
 31
7.536137
 12
7.004751
 22
1.958021
 32
7.536138
 13
7.279302
 23
1.958021
 33
7.352714
 62
1
  0
3DFACE
  8
Cylinder4001
 10
7.462767
 20
5.606321
 30
7.078182
 11
7.279307
 21
5.606321
 31
7.352712
 12
7.279302
 22
1.958021
 32
7.352714
 13
7.462760
 23
1.958021
 33
7.078184
 62
1
  0
3DFACE
  8
Cylinder4001
 10
7.527205
 20
5.606321
 30
6.754342
 11
7.462767
 21
5.606321
 31
7.078182
 12
7.462760
 22
1.958021
 32
7.078184
 13
7.527198
 23
1.958021
 33
6.754343
 62
1
  0
3DFACE
  8
Cylinder4001
 10
7.004852
 20
1.958021
 30
5.972480
 11
6.357170
 21
1.958021
 31
5.972438
 12
6.681015
 22
1.958021
 32
5.908042
 13
6.681015
 23
1.958021
 33
5.908042
 62
1
  0
3DFACE
  8
Cylinder4001
 10
6.082619
 20
1.958021
 30
6.155862
 11
6.357170
 21
1.958021
 31
5.972438
 12
7.004852
 22
1.958021
 32
5.972480
 13
7.004852
 23
1.958021
 33
5.972480
 62
1
  0
3DFACE
  8
Cylinder4001
 10
7.279379
 20
1.958021
 30
6.155940
 11
6.082619
 21
1.958021
 31
6.155862
 12
7.004852
 22
1.958021
 32
5.972480
 13
7.004852
 23
1.958021
 33
5.972480
 62
1
  0
3DFACE
  8
Cylinder4001
 10
5.899161
 20
1.958021
 30
6.430393
 11
6.082619
 21
1.958021
 31
6.155862
 12
7.279379
 22
1.958021
 32
6.155940
 13
7.279379
 23
1.958021
 33
6.155940
 62
1
  0
3DFACE
  8
Cylinder4001
 10
7.462802
 20
1.958021
 30
6.430494
 11
5.899161
 21
1.958021
 31
6.430393
 12
7.279379
 22
1.958021
 32
6.155940
 13
7.279379
 23
1.958021
 33
6.155940
 62
1
  0
3DFACE
  8
Cylinder4001
 10
5.834723
 20
1.958021
 30
6.754233
 11
5.899161
 21
1.958021
 31
6.430393
 12
7.462802
 22
1.958021
 32
6.430494
 13
7.462802
 23
1.958021
 33
6.430494
 62
1
  0
3DFACE
  8
Cylinder4001
 10
7.527198
 20
1.958021
 30
6.754343
 11
5.834723
 21
1.958021
 31
6.754233
 12
7.462802
 22
1.958021
 32
6.430494
 13
7.462802
 23
1.958021
 33
6.430494
 62
1
  0
3DFACE
  8
Cylinder4001
 10
5.899119
 20
1.958021
 30
7.078083
 11
5.834723
 21
1.958021
 31
6.754233
 12
7.527198
 22
1.958021
 32
6.754343
 13
7.527198
 23
1.958021
 33
6.754343
 62
1
  0
3DFACE
  8
Cylinder4001
 10
7.462760
 20
1.958021
 30
7.078184
 11
5.899119
 21
1.958021
 31
7.078083
 12
7.527198
 22
1.958021
 32
6.754343
 13
7.527198
 23
1.958021
 33
6.754343
 62
1
  0
3DFACE
  8
Cylinder4001
 10
6.082541
 20
1.958021
 30
7.352637
 11
5.899119
 21
1.958021
 31
7.078083
 12
7.462760
 22
1.958021
 32
7.078184
 13
7.462760
 23
1.958021
 33
7.078184
 62
1
  0
3DFACE
  8
Cylinder4001
 10
7.279302
 20
1.958021
 30
7.352714
 11
6.082541
 21
1.958021
 31
7.352637
 12
7.462760
 22
1.958021
 32
7.078184
 13
7.462760
 23
1.958021
 33
7.078184
 62
1
  0
3DFACE
  8
Cylinder4001
 10
6.357069
 20
1.958021
 30
7.536097
 11
6.082541
 21
1.958021
 31
7.352637
 12
7.279302
 22
1.958021
 32
7.352714
 13
7.279302
 23
1.958021
 33
7.352714
 62
1
  0
3DFACE
  8
Cylinder4001
 10
7.004751
 20
1.958021
 30
7.536138
 11
6.357069
 21
1.958021
 31
7.536097
 12
7.279302
 22
1.958021
 32
7.352714
 13
7.279302
 23
1.958021
 33
7.352714
 62
1
  0
3DFACE
  8
Cylinder4001
 10
6.680906
 20
1.958021
 30
7.600534
 11
6.357069
 21
1.958021
 31
7.536097
 12
7.004751
 22
1.958021
 32
7.536138
 13
7.004751
 23
1.958021
 33
7.536138
 62
1
  0
3DFACE
  8
Cylinder4001
 10
5.899154
 20
5.606321
 30
6.430393
 11
6.082614
 21
5.606321
 31
6.155863
 12
6.082619
 22
1.958021
 32
6.155862
 13
5.899161
 23
1.958021
 33
6.430393
 62
1
  0
3DFACE
  8
Cylinder4001
 10
5.834716
 20
5.606321
 30
6.754232
 11
5.899154
 21
5.606321
 31
6.430393
 12
5.899161
 22
1.958021
 32
6.430393
 13
5.834723
 23
1.958021
 33
6.754233
 62
1
  0
3DFACE
  8
Cylinder4001
 10
6.082614
 20
5.606321
 30
6.155863
 11
6.357167
 21
5.606321
 31
5.972438
 12
6.357170
 22
1.958021
 32
5.972438
 13
6.082619
 23
1.958021
 33
6.155862
 62
1
  0
3DFACE
  8
Cylinder4001
 10
6.357167
 20
5.606321
 30
5.972438
 11
6.681015
 21
5.606321
 31
5.908042
 12
6.681015
 22
1.958021
 32
5.908042
 13
6.357170
 23
1.958021
 33
5.972438
 62
1
  0
3DFACE
  8
Cylinder4001
 10
6.681015
 20
5.606321
 30
5.908042
 11
7.004855
 21
5.606321
 31
5.972480
 12
7.004852
 22
1.958021
 32
5.972480
 13
6.681015
 23
1.958021
 33
5.908042
 62
1
  0
3DFACE
  8
Cylinder4001
 10
7.004855
 20
5.606321
 30
5.972480
 11
7.279384
 21
5.606321
 31
6.155940
 12
7.279379
 22
1.958021
 32
6.155940
 13
7.004852
 23
1.958021
 33
5.972480
 62
1
  0
3DFACE
  8
Cylinder4001
 10
7.279384
 20
5.606321
 30
6.155940
 11
7.462809
 21
5.606321
 31
6.430494
 12
7.462802
 22
1.958021
 32
6.430494
 13
7.279379
 23
1.958021
 33
6.155940
 62
1
  0
3DFACE
  8
Cylinder4001
 10
7.462809
 20
5.606321
 30
6.430494
 11
7.527205
 21
5.606321
 31
6.754342
 12
7.527198
 22
1.958021
 32
6.754343
 13
7.462802
 23
1.958021
 33
6.430494
 62
1
  0
3DFACE
  8
Cylinder1
 10
12.834140
 20
6.477229
 30
-2.255649
 11
13.560482
 21
6.477218
 31
-4.319694
 12
13.396077
 22
-1.691133
 32
-3.852495
 13
12.834156
 23
-2.182112
 33
-2.255656
 62
0
  0
3DFACE
  8
Cylinder1
 10
13.560482
 20
6.477218
 30
-4.319694
 11
12.310562
 21
6.477188
 31
-6.318534
 12
12.109113
 22
-1.297070
 32
-5.745714
 13
13.396077
 23
-1.691133
 33
-3.852495
 62
0
  0
3DFACE
  8
Cylinder1
 10
12.310562
 20
6.477188
 30
-6.318534
 11
10.084256
 21
6.477218
 31
-5.542941
 12
9.920102
 22
-1.690926
 32
-5.076420
 13
12.109113
 23
-1.297070
 33
-5.745714
 62
0
  0
3DFACE
  8
Cylinder1
 10
10.743642
 20
6.210110
 30
-3.612566
 11
11.054460
 21
6.210112
 31
-3.354273
 12
9.357927
 22
6.477229
 32
-3.478909
 13
9.357927
 23
6.477229
 33
-3.478909
 62
0
  0
3DFACE
  8
Cylinder1
 10
10.539702
 20
6.210106
 30
-3.963922
 11
10.743642
 21
6.210110
 31
-3.612566
 12
9.357927
 22
6.477229
 32
-3.478909
 13
9.357927
 23
6.477229
 33
-3.478909
 62
0
  0
3DFACE
  8
Cylinder1
 10
10.467242
 20
6.210102
 30
-4.365960
 11
10.539702
 21
6.210106
 31
-3.963922
 12
9.357927
 22
6.477229
 32
-3.478909
 13
9.357927
 23
6.477229
 33
-3.478909
 62
0
  0
3DFACE
  8
Cylinder1
 10
10.534996
 20
6.210095
 30
-4.770189
 11
10.467242
 21
6.210102
 31
-4.365960
 12
9.357927
 22
6.477229
 32
-3.478909
 13
9.357927
 23
6.477229
 33
-3.478909
 62
0
  0
3DFACE
  8
Cylinder1
 10
10.084256
 20
6.477218
 30
-5.542941
 11
10.534996
 21
6.210095
 31
-4.770189
 12
9.357927
 22
6.477229
 32
-3.478909
 13
9.357927
 23
6.477229
 33
-3.478909
 62
0
  0
3DFACE
  8
Cylinder1
 10
10.734797
 20
6.210091
 30
-5.127855
 11
10.534996
 21
6.210095
 31
-4.770189
 12
10.084256
 22
6.477218
 32
-5.542941
 13
10.084256
 23
6.477218
 33
-5.542941
 62
0
  0
3DFACE
  8
Cylinder1
 10
11.042545
 20
6.210087
 30
-5.395815
 11
10.734797
 21
6.210091
 31
-5.127855
 12
10.084256
 22
6.477218
 32
-5.542941
 13
10.084256
 23
6.477218
 33
-5.542941
 62
0
  0
3DFACE
  8
Cylinder1
 10
11.421118
 20
6.210083
 30
-5.541752
 11
11.042545
 21
6.210087
 31
-5.395815
 12
10.084256
 22
6.477218
 32
-5.542941
 13
10.084256
 23
6.477218
 33
-5.542941
 62
0
  0
3DFACE
  8
Cylinder1
 10
11.824859
 20
6.210080
 30
-5.548061
 11
11.421118
 21
6.210083
 31
-5.541752
 12
10.084256
 22
6.477218
 32
-5.542941
 13
10.084256
 23
6.477218
 33
-5.542941
 62
0
  0
3DFACE
  8
Cylinder1
 10
12.310562
 20
6.477188
 30
-6.318534
 11
11.824859
 21
6.210080
 31
-5.548061
 12
10.084256
 22
6.477218
 32
-5.542941
 13
10.084256
 23
6.477218
 33
-5.542941
 62
0
  0
3DFACE
  8
Cylinder1
 10
12.310562
 20
6.477188
 30
-6.318534
 11
12.205067
 21
6.210080
 31
-5.413983
 12
11.824859
 22
6.210080
 32
-5.548061
 13
11.824859
 23
6.210080
 33
-5.548061
 62
0
  0
3DFACE
  8
Cylinder1
 10
11.434668
 20
6.210111
 30
-3.220194
 11
9.357927
 21
6.477229
 31
-3.478909
 12
11.054460
 22
6.210112
 32
-3.354273
 13
11.054460
 23
6.210112
 33
-3.354273
 62
0
  0
3DFACE
  8
Cylinder1
 10
12.834140
 20
6.477229
 30
-2.255649
 11
9.357927
 21
6.477229
 31
-3.478909
 12
11.434668
 22
6.210111
 32
-3.220194
 13
11.434668
 23
6.210111
 33
-3.220194
 62
0
  0
3DFACE
  8
Cylinder1
 10
11.838408
 20
6.210110
 30
-3.226504
 11
12.834140
 21
6.477229
 31
-2.255649
 12
11.434668
 22
6.210111
 32
-3.220194
 13
11.434668
 23
6.210111
 33
-3.220194
 62
0
  0
3DFACE
  8
Cylinder1
 10
12.216980
 20
6.210105
 30
-3.372440
 11
12.834140
 21
6.477229
 31
-2.255649
 12
11.838408
 22
6.210110
 32
-3.226504
 13
11.838408
 23
6.210110
 33
-3.226504
 62
0
  0
3DFACE
  8
Cylinder1
 10
12.524730
 20
6.210100
 30
-3.640399
 11
12.834140
 21
6.477229
 31
-2.255649
 12
12.216980
 22
6.210105
 32
-3.372440
 13
12.216980
 23
6.210105
 33
-3.372440
 62
0
  0
3DFACE
  8
Cylinder1
 10
12.724529
 20
6.210095
 30
-3.998065
 11
12.834140
 21
6.477229
 31
-2.255649
 12
12.524730
 22
6.210100
 32
-3.640399
 13
12.524730
 23
6.210100
 33
-3.640399
 62
0
  0
3DFACE
  8
Cylinder1
 10
12.792285
 20
6.210091
 30
-4.402296
 11
12.834140
 21
6.477229
 31
-2.255649
 12
12.724529
 22
6.210095
 32
-3.998065
 13
12.724529
 23
6.210095
 33
-3.998065
 62
0
  0
3DFACE
  8
Cylinder1
 10
13.560482
 20
6.477218
 30
-4.319694
 11
12.834140
 21
6.477229
 31
-2.255649
 12
12.792285
 22
6.210091
 32
-4.402296
 13
12.792285
 23
6.210091
 33
-4.402296
 62
0
  0
3DFACE
  8
Cylinder1
 10
13.560482
 20
6.477218
 30
-4.319694
 11
12.792285
 21
6.210091
 31
-4.402296
 12
12.719824
 22
6.210087
 32
-4.804334
 13
12.719824
 23
6.210087
 33
-4.804334
 62
0
  0
3DFACE
  8
Cylinder1
 10
12.515884
 20
6.210083
 30
-5.155690
 11
13.560482
 21
6.477218
 31
-4.319694
 12
12.719824
 22
6.210087
 32
-4.804334
 13
12.719824
 23
6.210087
 33
-4.804334
 62
0
  0
3DFACE
  8
Cylinder1
 10
12.205067
 20
6.210080
 30
-5.413983
 11
13.560482
 21
6.477218
 31
-4.319694
 12
12.515884
 22
6.210083
 32
-5.155690
 13
12.515884
 23
6.210083
 33
-5.155690
 62
0
  0
3DFACE
  8
Cylinder1
 10
12.310562
 20
6.477188
 30
-6.318534
 11
13.560482
 21
6.477218
 31
-4.319694
 12
12.205067
 22
6.210080
 32
-5.413983
 13
12.205067
 23
6.210080
 33
-5.413983
 62
0
  0
3DFACE
  8
Cylinder1
 10
10.084256
 20
6.477218
 30
-5.542941
 11
9.357927
 21
6.477229
 31
-3.478909
 12
9.357936
 22
-2.182112
 32
-3.478909
 13
9.920102
 23
-1.690926
 33
-5.076420
 62
0
  0
3DFACE
  8
Cylinder1
 10
9.357927
 20
6.477229
 30
-3.478909
 11
12.834140
 21
6.477229
 31
-2.255649
 12
12.834156
 22
-2.182112
 32
-2.255656
 13
9.357936
 23
-2.182112
 33
-3.478909
 62
0
  0
3DFACE
  8
Cylinder1
 10
9.920102
 20
-1.690926
 30
-5.076420
 11
9.357936
 21
-2.182112
 31
-3.478909
 12
12.834156
 22
-2.182112
 32
-2.255656
 13
12.834156
 23
-2.182112
 33
-2.255656
 62
0
  0
3DFACE
  8
Cylinder1
 10
13.396077
 20
-1.691133
 30
-3.852495
 11
9.920102
 21
-1.690926
 31
-5.076420
 12
12.834156
 22
-2.182112
 32
-2.255656
 13
12.834156
 23
-2.182112
 33
-2.255656
 62
0
  0
3DFACE
  8
Cylinder1
 10
12.109113
 20
-1.297070
 30
-5.745714
 11
9.920102
 21
-1.690926
 31
-5.076420
 12
13.396077
 22
-1.691133
 32
-3.852495
 13
13.396077
 23
-1.691133
 33
-3.852495
 62
0
  0
3DFACE
  8
Cylinder1
 10
10.734848
 20
2.705099
 30
-5.127861
 11
10.535051
 21
2.705103
 31
-4.770198
 12
10.534996
 22
6.210095
 32
-4.770189
 13
10.734797
 23
6.210091
 33
-5.127855
 62
1
  0
3DFACE
  8
Cylinder1
 10
10.535051
 20
2.705103
 30
-4.770198
 11
10.467299
 21
2.705107
 31
-4.365971
 12
10.467242
 22
6.210102
 32
-4.365960
 13
10.534996
 23
6.210095
 33
-4.770189
 62
1
  0
3DFACE
  8
Cylinder1
 10
10.467299
 20
2.705107
 30
-4.365971
 11
10.539764
 21
2.705110
 31
-3.963935
 12
10.539702
 22
6.210106
 32
-3.963922
 13
10.467242
 23
6.210102
 33
-4.365960
 62
1
  0
3DFACE
  8
Cylinder1
 10
10.539764
 20
2.705110
 30
-3.963935
 11
10.743709
 21
2.705112
 31
-3.612578
 12
10.743642
 22
6.210110
 32
-3.612566
 13
10.539702
 23
6.210106
 33
-3.963922
 62
1
  0
3DFACE
  8
Cylinder1
 10
10.743709
 20
2.705112
 30
-3.612578
 11
11.054534
 21
2.705113
 31
-3.354284
 12
11.054460
 22
6.210112
 32
-3.354273
 13
10.743642
 23
6.210110
 33
-3.612566
 62
1
  0
3DFACE
  8
Cylinder1
 10
11.054534
 20
2.705113
 30
-3.354284
 11
11.434749
 21
2.705112
 31
-3.220199
 12
11.434668
 22
6.210111
 32
-3.220194
 13
11.054460
 23
6.210112
 33
-3.354273
 62
1
  0
3DFACE
  8
Cylinder1
 10
11.434749
 20
2.705112
 30
-3.220199
 11
11.838493
 21
2.705112
 31
-3.226504
 12
11.838408
 22
6.210110
 32
-3.226504
 13
11.434668
 23
6.210111
 33
-3.220194
 62
1
  0
3DFACE
  8
Cylinder1
 10
11.838493
 20
2.705112
 30
-3.226504
 11
12.217072
 21
2.705110
 31
-3.372435
 12
12.216980
 22
6.210105
 32
-3.372440
 13
11.838408
 23
6.210110
 33
-3.226504
 62
1
  0
3DFACE
  8
Cylinder1
 10
12.217072
 20
2.705110
 30
-3.372435
 11
12.524822
 21
2.705107
 31
-3.640388
 12
12.524730
 22
6.210100
 32
-3.640399
 13
12.216980
 23
6.210105
 33
-3.372440
 62
1
  0
3DFACE
  8
Cylinder1
 10
11.434749
 20
2.705112
 30
-3.220199
 11
11.054534
 21
2.705113
 31
-3.354284
 12
10.743709
 22
2.705112
 32
-3.612578
 13
10.743709
 23
2.705112
 33
-3.612578
 62
0
  0
3DFACE
  8
Cylinder1
 10
10.539764
 20
2.705110
 30
-3.963935
 11
11.434749
 21
2.705112
 31
-3.220199
 12
10.743709
 22
2.705112
 32
-3.612578
 13
10.743709
 23
2.705112
 33
-3.612578
 62
0
  0
3DFACE
  8
Cylinder1
 10
11.838493
 20
2.705112
 30
-3.226504
 11
11.434749
 21
2.705112
 31
-3.220199
 12
10.539764
 22
2.705110
 32
-3.963935
 13
10.539764
 23
2.705110
 33
-3.963935
 62
0
  0
3DFACE
  8
Cylinder1
 10
10.467299
 20
2.705107
 30
-4.365971
 11
11.838493
 21
2.705112
 31
-3.226504
 12
10.539764
 22
2.705110
 32
-3.963935
 13
10.539764
 23
2.705110
 33
-3.963935
 62
0
  0
3DFACE
  8
Cylinder1
 10
12.217072
 20
2.705110
 30
-3.372435
 11
11.838493
 21
2.705112
 31
-3.226504
 12
10.467299
 22
2.705107
 32
-4.365971
 13
10.467299
 23
2.705107
 33
-4.365971
 62
0
  0
3DFACE
  8
Cylinder1
 10
10.535051
 20
2.705103
 30
-4.770198
 11
12.217072
 21
2.705110
 31
-3.372435
 12
10.467299
 22
2.705107
 32
-4.365971
 13
10.467299
 23
2.705107
 33
-4.365971
 62
0
  0
3DFACE
  8
Cylinder1
 10
12.524822
 20
2.705107
 30
-3.640388
 11
12.217072
 21
2.705110
 31
-3.372435
 12
10.535051
 22
2.705103
 32
-4.770198
 13
10.535051
 23
2.705103
 33
-4.770198
 62
0
  0
3DFACE
  8
Cylinder1
 10
10.734848
 20
2.705099
 30
-5.127861
 11
12.524822
 21
2.705107
 31
-3.640388
 12
10.535051
 22
2.705103
 32
-4.770198
 13
10.535051
 23
2.705103
 33
-4.770198
 62
0
  0
3DFACE
  8
Cylinder1
 10
12.724623
 20
2.705102
 30
-3.998049
 11
12.524822
 21
2.705107
 31
-3.640388
 12
10.734848
 22
2.705099
 32
-5.127861
 13
10.734848
 23
2.705099
 33
-5.127861
 62
0
  0
3DFACE
  8
Cylinder1
 10
11.042602
 20
2.705096
 30
-5.395812
 11
12.724623
 21
2.705102
 31
-3.998049
 12
10.734848
 22
2.705099
 32
-5.127861
 13
10.734848
 23
2.705099
 33
-5.127861
 62
0
  0
3DFACE
  8
Cylinder1
 10
12.792376
 20
2.705099
 30
-4.402277
 11
12.724623
 21
2.705102
 31
-3.998049
 12
11.042602
 22
2.705096
 32
-5.395812
 13
11.042602
 23
2.705096
 33
-5.395812
 62
0
  0
3DFACE
  8
Cylinder1
 10
11.421178
 20
2.705093
 30
-5.541746
 11
12.792376
 21
2.705099
 31
-4.402277
 12
11.042602
 22
2.705096
 32
-5.395812
 13
11.042602
 23
2.705096
 33
-5.395812
 62
0
  0
3DFACE
  8
Cylinder1
 10
12.719909
 20
2.705095
 30
-4.804314
 11
12.792376
 21
2.705099
 31
-4.402277
 12
11.421178
 22
2.705093
 32
-5.541746
 13
11.421178
 23
2.705093
 33
-5.541746
 62
0
  0
3DFACE
  8
Cylinder1
 10
11.824924
 20
2.705092
 30
-5.548049
 11
12.719909
 21
2.705095
 31
-4.804314
 12
11.421178
 22
2.705093
 32
-5.541746
 13
11.421178
 23
2.705093
 33
-5.541746
 62
0
  0
3DFACE
  8
Cylinder1
 10
12.515962
 20
2.705093
 30
-5.155665
 11
12.719909
 21
2.705095
 31
-4.804314
 12
11.824924
 22
2.705092
 32
-5.548049
 13
11.824924
 23
2.705092
 33
-5.548049
 62
0
  0
3DFACE
  8
Cylinder1
 10
12.205142
 20
2.705092
 30
-5.413970
 11
12.515962
 21
2.705093
 31
-5.155665
 12
11.824924
 22
2.705092
 32
-5.548049
 13
11.824924
 23
2.705092
 33
-5.548049
 62
0
  0
3DFACE
  8
Cylinder1
 10
12.524822
 20
2.705107
 30
-3.640388
 11
12.724623
 21
2.705102
 31
-3.998049
 12
12.724529
 22
6.210095
 32
-3.998065
 13
12.524730
 23
6.210100
 33
-3.640399
 62
1
  0
3DFACE
  8
Cylinder1
 10
12.724623
 20
2.705102
 30
-3.998049
 11
12.792376
 21
2.705099
 31
-4.402277
 12
12.792285
 22
6.210091
 32
-4.402296
 13
12.724529
 23
6.210095
 33
-3.998065
 62
1
  0
3DFACE
  8
Cylinder1
 10
12.792376
 20
2.705099
 30
-4.402277
 11
12.719909
 21
2.705095
 31
-4.804314
 12
12.719824
 22
6.210087
 32
-4.804334
 13
12.792285
 23
6.210091
 33
-4.402296
 62
1
  0
3DFACE
  8
Cylinder1
 10
12.719909
 20
2.705095
 30
-4.804314
 11
12.515962
 21
2.705093
 31
-5.155665
 12
12.515884
 22
6.210083
 32
-5.155690
 13
12.719824
 23
6.210087
 33
-4.804334
 62
1
  0
3DFACE
  8
Cylinder1
 10
12.515962
 20
2.705093
 30
-5.155665
 11
12.205142
 21
2.705092
 31
-5.413970
 12
12.205067
 22
6.210080
 32
-5.413983
 13
12.515884
 23
6.210083
 33
-5.155690
 62
1
  0
3DFACE
  8
Cylinder1
 10
12.205142
 20
2.705092
 30
-5.413970
 11
11.824924
 21
2.705092
 31
-5.548049
 12
11.824859
 22
6.210080
 32
-5.548061
 13
12.205067
 23
6.210080
 33
-5.413983
 62
1
  0
3DFACE
  8
Cylinder1
 10
11.824924
 20
2.705092
 30
-5.548049
 11
11.421178
 21
2.705093
 31
-5.541746
 12
11.421118
 22
6.210083
 32
-5.541752
 13
11.824859
 23
6.210080
 33
-5.548061
 62
1
  0
3DFACE
  8
Cylinder1
 10
11.421178
 20
2.705093
 30
-5.541746
 11
11.042602
 21
2.705096
 31
-5.395812
 12
11.042545
 22
6.210087
 32
-5.395815
 13
11.421118
 23
6.210083
 33
-5.541752
 62
1
  0
3DFACE
  8
Cylinder1
 10
11.042602
 20
2.705096
 30
-5.395812
 11
10.734848
 21
2.705099
 31
-5.127861
 12
10.734797
 22
6.210091
 32
-5.127855
 13
11.042545
 23
6.210087
 33
-5.395815
 62
1
  0
3DFACE
  8
Cube3
 10
9.359833
 20
-2.173405
 30
-3.478716
 11
9.360098
 21
1.902448
 31
-3.478373
 12
7.069430
 22
1.274922
 32
3.033164
 13
7.069196
 23
-3.727204
 33
3.033265
 62
0
  0
3DFACE
  8
Cube3
 10
9.359833
 20
-2.173405
 30
-3.478716
 11
12.833334
 21
-2.173258
 31
-2.255704
 12
12.833582
 22
1.902562
 32
-2.255681
 13
9.360098
 23
1.902448
 33
-3.478373
 62
0
  0
3DFACE
  8
Cube3
 10
10.147217
 20
1.274940
 30
1.875487
 11
9.360098
 21
1.902448
 31
-3.478373
 12
12.833582
 22
1.902562
 32
-2.255681
 13
12.833582
 23
1.902562
 33
-2.255681
 62
0
  0
3DFACE
  8
Cube3
 10
7.069430
 20
1.274922
 30
3.033164
 11
10.147217
 21
1.274940
 31
1.875487
 12
10.147067
 22
-3.727205
 32
1.875517
 13
7.069196
 23
-3.727204
 33
3.033265
 62
0
  0
3DFACE
  8
Cube3
 10
12.833582
 20
1.902562
 30
-2.255681
 11
12.833334
 21
-2.173258
 31
-2.255704
 12
10.147067
 22
-3.727205
 32
1.875517
 13
10.147217
 23
1.274940
 33
1.875487
 62
0
  0
3DFACE
  8
Cube3
 10
9.359833
 20
-2.173405
 30
-3.478716
 11
7.069196
 21
-3.727204
 31
3.033265
 12
10.147067
 22
-3.727205
 32
1.875517
 13
10.147067
 23
-3.727205
 33
1.875517
 62
0
  0
3DFACE
  8
Cube3
 10
9.360098
 20
1.902448
 30
-3.478373
 11
10.147217
 21
1.274940
 31
1.875487
 12
7.069430
 22
1.274922
 32
3.033164
 13
7.069430
 23
1.274922
 33
3.033164
 62
0
  0
3DFACE
  8
Cube3
 10
10.147067
 20
-3.727205
 30
1.875517
 11
12.833334
 21
-2.173258
 31
-2.255704
 12
9.359833
 22
-2.173405
 32
-3.478716
 13
9.359833
 23
-2.173405
 33
-3.478716
 62
0
  0
3DFACE
  8
NoName6001
 10
10.745183
 20
-2.120528
 30
0.745822
 11
11.113769
 21
-0.045295
 31
0.164883
 12
11.699758
 22
-1.688573
 32
-0.761054
 13
11.699758
 23
-1.688573
 33
-0.761054
 62
0
  0
3DFACE
  8
NoName6001
 10
13.737365
 20
-1.233976
 30
1.670898
 11
11.113769
 21
-0.045295
 31
0.164883
 12
10.745183
 22
-2.120528
 32
0.745822
 13
10.745183
 23
-2.120528
 33
0.745822
 62
0
  0
3DFACE
  8
NoName6001
 10
11.699758
 20
-1.688573
 30
-0.761054
 11
11.113769
 21
-0.045295
 31
0.164883
 12
13.737365
 22
-1.233976
 32
1.670898
 13
13.737365
 23
-1.233976
 33
1.670898
 62
0
  0
3DFACE
  8
NoName6001
 10
10.745183
 20
-2.120528
 30
0.745822
 11
11.699758
 21
-1.688573
 31
-0.761054
 12
13.737365
 22
-1.233976
 32
1.670898
 13
13.737365
 23
-1.233976
 33
1.670898
 62
0
  0
3DFACE
  8
Cylinder1001
 10
-12.834743
 20
-2.182112
 30
-2.255392
 11
-13.396755
 21
-1.691133
 31
-3.852199
 12
-13.561187
 22
6.477219
 32
-4.319388
 13
-12.834726
 23
6.477229
 33
-2.255385
 62
0
  0
3DFACE
  8
Cylinder1001
 10
-13.396755
 20
-1.691133
 30
-3.852199
 11
-12.109899
 21
-1.297069
 31
-5.745492
 12
-12.311381
 22
6.477188
 32
-6.318301
 13
-13.561187
 23
6.477219
 33
-4.319388
 62
0
  0
3DFACE
  8
Cylinder1001
 10
-12.109899
 20
-1.297069
 30
-5.745492
 11
-9.920850
 21
-1.690925
 31
-5.076324
 12
-10.085031
 22
6.477219
 32
-5.542836
 13
-12.311381
 23
6.477188
 33
-6.318301
 62
0
  0
3DFACE
  8
Cylinder1001
 10
-10.744306
 20
6.210110
 30
-3.612422
 11
-9.358583
 21
6.477229
 31
-3.478845
 12
-11.055108
 22
6.210112
 32
-3.354111
 13
-11.055108
 23
6.210112
 33
-3.354111
 62
0
  0
3DFACE
  8
Cylinder1001
 10
-10.540386
 20
6.210107
 30
-3.963790
 11
-9.358583
 21
6.477229
 31
-3.478845
 12
-10.744306
 22
6.210110
 32
-3.612422
 13
-10.744306
 23
6.210110
 33
-3.612422
 62
0
  0
3DFACE
  8
Cylinder1001
 10
-10.467949
 20
6.210102
 30
-4.365832
 11
-9.358583
 21
6.477229
 31
-3.478845
 12
-10.540386
 22
6.210107
 32
-3.963790
 13
-10.540386
 23
6.210107
 33
-3.963790
 62
0
  0
3DFACE
  8
Cylinder1001
 10
-10.535727
 20
6.210096
 30
-4.770058
 11
-9.358583
 21
6.477229
 31
-3.478845
 12
-10.467949
 22
6.210102
 32
-4.365832
 13
-10.467949
 23
6.210102
 33
-4.365832
 62
0
  0
3DFACE
  8
Cylinder1001
 10
-10.085031
 20
6.477219
 30
-5.542836
 11
-9.358583
 21
6.477229
 31
-3.478845
 12
-10.535727
 22
6.210096
 32
-4.770058
 13
-10.535727
 23
6.210096
 33
-4.770058
 62
0
  0
3DFACE
  8
Cylinder1001
 10
-10.735547
 20
6.210092
 30
-5.127713
 11
-10.085031
 21
6.477219
 31
-5.542836
 12
-10.535727
 22
6.210096
 32
-4.770058
 13
-10.535727
 23
6.210096
 33
-4.770058
 62
0
  0
3DFACE
  8
Cylinder1001
 10
-11.043311
 20
6.210087
 30
-5.395655
 11
-10.085031
 21
6.477219
 31
-5.542836
 12
-10.735547
 22
6.210092
 32
-5.127713
 13
-10.735547
 23
6.210092
 33
-5.127713
 62
0
  0
3DFACE
  8
Cylinder1001
 10
-11.421892
 20
6.210084
 30
-5.541569
 11
-10.085031
 21
6.477219
 31
-5.542836
 12
-11.043311
 22
6.210087
 32
-5.395655
 13
-11.043311
 23
6.210087
 33
-5.395655
 62
0
  0
3DFACE
  8
Cylinder1001
 10
-11.825633
 20
6.210081
 30
-5.547856
 11
-10.085031
 21
6.477219
 31
-5.542836
 12
-11.421892
 22
6.210084
 32
-5.541569
 13
-11.421892
 23
6.210084
 33
-5.541569
 62
0
  0
3DFACE
  8
Cylinder1001
 10
-12.311381
 20
6.477188
 30
-6.318301
 11
-10.085031
 21
6.477219
 31
-5.542836
 12
-11.825633
 22
6.210081
 32
-5.547856
 13
-11.825633
 23
6.210081
 33
-5.547856
 62
0
  0
3DFACE
  8
Cylinder1001
 10
-12.311381
 20
6.477188
 30
-6.318301
 11
-11.825633
 21
6.210081
 31
-5.547856
 12
-12.205833
 22
6.210081
 32
-5.413756
 13
-12.205833
 23
6.210081
 33
-5.413756
 62
0
  0
3DFACE
  8
Cylinder1001
 10
-11.435309
 20
6.210112
 30
-3.220011
 11
-11.055108
 21
6.210112
 31
-3.354111
 12
-9.358583
 22
6.477229
 32
-3.478845
 13
-9.358583
 23
6.477229
 33
-3.478845
 62
0
  0
3DFACE
  8
Cylinder1001
 10
-12.834726
 20
6.477229
 30
-2.255385
 11
-11.435309
 21
6.210112
 31
-3.220011
 12
-9.358583
 22
6.477229
 32
-3.478845
 13
-9.358583
 23
6.477229
 33
-3.478845
 62
0
  0
3DFACE
  8
Cylinder1001
 10
-11.839050
 20
6.210110
 30
-3.226297
 11
-11.435309
 21
6.210112
 31
-3.220011
 12
-12.834726
 22
6.477229
 32
-2.255385
 13
-12.834726
 23
6.477229
 33
-2.255385
 62
0
  0
3DFACE
  8
Cylinder1001
 10
-12.217630
 20
6.210106
 30
-3.372212
 11
-11.839050
 21
6.210110
 31
-3.226297
 12
-12.834726
 22
6.477229
 32
-2.255385
 13
-12.834726
 23
6.477229
 33
-2.255385
 62
0
  0
3DFACE
  8
Cylinder1001
 10
-12.525395
 20
6.210101
 30
-3.640153
 11
-12.217630
 21
6.210106
 31
-3.372212
 12
-12.834726
 22
6.477229
 32
-2.255385
 13
-12.834726
 23
6.477229
 33
-2.255385
 62
0
  0
3DFACE
  8
Cylinder1001
 10
-12.725216
 20
6.210096
 30
-3.997808
 11
-12.525395
 21
6.210101
 31
-3.640153
 12
-12.834726
 22
6.477229
 32
-2.255385
 13
-12.834726
 23
6.477229
 33
-2.255385
 62
0
  0
3DFACE
  8
Cylinder1001
 10
-12.792994
 20
6.210092
 30
-4.402034
 11
-12.725216
 21
6.210096
 31
-3.997808
 12
-12.834726
 22
6.477229
 32
-2.255385
 13
-12.834726
 23
6.477229
 33
-2.255385
 62
0
  0
3DFACE
  8
Cylinder1001
 10
-13.561187
 20
6.477219
 30
-4.319388
 11
-12.792994
 21
6.210092
 31
-4.402034
 12
-12.834726
 22
6.477229
 32
-2.255385
 13
-12.834726
 23
6.477229
 33
-2.255385
 62
0
  0
3DFACE
  8
Cylinder1001
 10
-13.561187
 20
6.477219
 30
-4.319388
 11
-12.720556
 21
6.210087
 31
-4.804077
 12
-12.792994
 22
6.210092
 32
-4.402034
 13
-12.792994
 23
6.210092
 33
-4.402034
 62
0
  0
3DFACE
  8
Cylinder1001
 10
-12.516637
 20
6.210084
 30
-5.155445
 11
-12.720556
 21
6.210087
 31
-4.804077
 12
-13.561187
 22
6.477219
 32
-4.319388
 13
-13.561187
 23
6.477219
 33
-4.319388
 62
0
  0
3DFACE
  8
Cylinder1001
 10
-12.205833
 20
6.210081
 30
-5.413756
 11
-12.516637
 21
6.210084
 31
-5.155445
 12
-13.561187
 22
6.477219
 32
-4.319388
 13
-13.561187
 23
6.477219
 33
-4.319388
 62
0
  0
3DFACE
  8
Cylinder1001
 10
-12.311381
 20
6.477188
 30
-6.318301
 11
-12.205833
 21
6.210081
 31
-5.413756
 12
-13.561187
 22
6.477219
 32
-4.319388
 13
-13.561187
 23
6.477219
 33
-4.319388
 62
0
  0
3DFACE
  8
Cylinder1001
 10
-9.920850
 20
-1.690925
 30
-5.076324
 11
-9.358592
 21
-2.182112
 31
-3.478845
 12
-9.358583
 22
6.477229
 32
-3.478845
 13
-10.085031
 23
6.477219
 33
-5.542836
 62
0
  0
3DFACE
  8
Cylinder1001
 10
-9.358592
 20
-2.182112
 30
-3.478845
 11
-12.834743
 21
-2.182112
 31
-2.255392
 12
-12.834726
 22
6.477229
 32
-2.255385
 13
-9.358583
 23
6.477229
 33
-3.478845
 62
0
  0
3DFACE
  8
Cylinder1001
 10
-9.920850
 20
-1.690925
 30
-5.076324
 11
-12.834743
 21
-2.182112
 31
-2.255392
 12
-9.358592
 22
-2.182112
 32
-3.478845
 13
-9.358592
 23
-2.182112
 33
-3.478845
 62
0
  0
3DFACE
  8
Cylinder1001
 10
-13.396755
 20
-1.691133
 30
-3.852199
 11
-12.834743
 21
-2.182112
 31
-2.255392
 12
-9.920850
 22
-1.690925
 32
-5.076324
 13
-9.920850
 23
-1.690925
 33
-5.076324
 62
0
  0
3DFACE
  8
Cylinder1001
 10
-12.109899
 20
-1.297069
 30
-5.745492
 11
-13.396755
 21
-1.691133
 31
-3.852199
 12
-9.920850
 22
-1.690925
 32
-5.076324
 13
-9.920850
 23
-1.690925
 33
-5.076324
 62
0
  0
3DFACE
  8
Cylinder1001
 10
-10.735547
 20
6.210092
 30
-5.127713
 11
-10.535727
 21
6.210096
 31
-4.770058
 12
-10.535781
 22
2.705104
 32
-4.770067
 13
-10.735599
 23
2.705100
 33
-5.127717
 62
1
  0
3DFACE
  8
Cylinder1001
 10
-10.535727
 20
6.210096
 30
-4.770058
 11
-10.467949
 21
6.210102
 31
-4.365832
 12
-10.468006
 22
2.705108
 32
-4.365843
 13
-10.535781
 23
2.705104
 33
-4.770067
 62
1
  0
3DFACE
  8
Cylinder1001
 10
-10.467949
 20
6.210102
 30
-4.365832
 11
-10.540386
 21
6.210107
 31
-3.963790
 12
-10.540448
 22
2.705111
 32
-3.963803
 13
-10.468006
 23
2.705108
 33
-4.365843
 62
1
  0
3DFACE
  8
Cylinder1001
 10
-10.540386
 20
6.210107
 30
-3.963790
 11
-10.744306
 21
6.210110
 31
-3.612422
 12
-10.744372
 22
2.705112
 32
-3.612434
 13
-10.540448
 23
2.705111
 33
-3.963803
 62
1
  0
3DFACE
  8
Cylinder1001
 10
-10.744306
 20
6.210110
 30
-3.612422
 11
-11.055108
 21
6.210112
 31
-3.354111
 12
-11.055183
 22
2.705113
 32
-3.354122
 13
-10.744372
 23
2.705112
 33
-3.612434
 62
1
  0
3DFACE
  8
Cylinder1001
 10
-11.055108
 20
6.210112
 30
-3.354111
 11
-11.435309
 21
6.210112
 31
-3.220011
 12
-11.435390
 22
2.705113
 32
-3.220016
 13
-11.055183
 23
2.705113
 33
-3.354122
 62
1
  0
3DFACE
  8
Cylinder1001
 10
-11.435309
 20
6.210112
 30
-3.220011
 11
-11.839050
 21
6.210110
 31
-3.226297
 12
-11.839135
 22
2.705112
 32
-3.226297
 13
-11.435390
 23
2.705113
 33
-3.220016
 62
1
  0
3DFACE
  8
Cylinder1001
 10
-11.839050
 20
6.210110
 30
-3.226297
 11
-12.217630
 21
6.210106
 31
-3.372212
 12
-12.217723
 22
2.705110
 32
-3.372206
 13
-11.839135
 23
2.705112
 33
-3.226297
 62
1
  0
3DFACE
  8
Cylinder1001
 10
-12.217630
 20
6.210106
 30
-3.372212
 11
-12.525395
 21
6.210101
 31
-3.640153
 12
-12.525489
 22
2.705108
 32
-3.640142
 13
-12.217723
 23
2.705110
 33
-3.372206
 62
1
  0
3DFACE
  8
Cylinder1001
 10
-11.435390
 20
2.705113
 30
-3.220016
 11
-10.744372
 21
2.705112
 31
-3.612434
 12
-11.055183
 22
2.705113
 32
-3.354122
 13
-11.055183
 23
2.705113
 33
-3.354122
 62
0
  0
3DFACE
  8
Cylinder1001
 10
-10.540448
 20
2.705111
 30
-3.963803
 11
-10.744372
 21
2.705112
 31
-3.612434
 12
-11.435390
 22
2.705113
 32
-3.220016
 13
-11.435390
 23
2.705113
 33
-3.220016
 62
0
  0
3DFACE
  8
Cylinder1001
 10
-11.839135
 20
2.705112
 30
-3.226297
 11
-10.540448
 21
2.705111
 31
-3.963803
 12
-11.435390
 22
2.705113
 32
-3.220016
 13
-11.435390
 23
2.705113
 33
-3.220016
 62
0
  0
3DFACE
  8
Cylinder1001
 10
-10.468006
 20
2.705108
 30
-4.365843
 11
-10.540448
 21
2.705111
 31
-3.963803
 12
-11.839135
 22
2.705112
 32
-3.226297
 13
-11.839135
 23
2.705112
 33
-3.226297
 62
0
  0
3DFACE
  8
Cylinder1001
 10
-12.217723
 20
2.705110
 30
-3.372206
 11
-10.468006
 21
2.705108
 31
-4.365843
 12
-11.839135
 22
2.705112
 32
-3.226297
 13
-11.839135
 23
2.705112
 33
-3.226297
 62
0
  0
3DFACE
  8
Cylinder1001
 10
-10.535781
 20
2.705104
 30
-4.770067
 11
-10.468006
 21
2.705108
 31
-4.365843
 12
-12.217723
 22
2.705110
 32
-3.372206
 13
-12.217723
 23
2.705110
 33
-3.372206
 62
0
  0
3DFACE
  8
Cylinder1001
 10
-12.525489
 20
2.705108
 30
-3.640142
 11
-10.535781
 21
2.705104
 31
-4.770067
 12
-12.217723
 22
2.705110
 32
-3.372206
 13
-12.217723
 23
2.705110
 33
-3.372206
 62
0
  0
3DFACE
  8
Cylinder1001
 10
-10.735599
 20
2.705100
 30
-5.127717
 11
-10.535781
 21
2.705104
 31
-4.770067
 12
-12.525489
 22
2.705108
 32
-3.640142
 13
-12.525489
 23
2.705108
 33
-3.640142
 62
0
  0
3DFACE
  8
Cylinder1001
 10
-12.725309
 20
2.705103
 30
-3.997792
 11
-10.735599
 21
2.705100
 31
-5.127717
 12
-12.525489
 22
2.705108
 32
-3.640142
 13
-12.525489
 23
2.705108
 33
-3.640142
 62
0
  0
3DFACE
  8
Cylinder1001
 10
-11.043367
 20
2.705096
 30
-5.395651
 11
-10.735599
 21
2.705100
 31
-5.127717
 12
-12.725309
 22
2.705103
 32
-3.997792
 13
-12.725309
 23
2.705103
 33
-3.997792
 62
0
  0
3DFACE
  8
Cylinder1001
 10
-12.793085
 20
2.705099
 30
-4.402015
 11
-11.043367
 21
2.705096
 31
-5.395651
 12
-12.725309
 22
2.705103
 32
-3.997792
 13
-12.725309
 23
2.705103
 33
-3.997792
 62
0
  0
3DFACE
  8
Cylinder1001
 10
-11.421951
 20
2.705094
 30
-5.541563
 11
-11.043367
 21
2.705096
 31
-5.395651
 12
-12.793085
 22
2.705099
 32
-4.402015
 13
-12.793085
 23
2.705099
 33
-4.402015
 62
0
  0
3DFACE
  8
Cylinder1001
 10
-12.720641
 20
2.705096
 30
-4.804057
 11
-11.421951
 21
2.705094
 31
-5.541563
 12
-12.793085
 22
2.705099
 32
-4.402015
 13
-12.793085
 23
2.705099
 33
-4.402015
 62
0
  0
3DFACE
  8
Cylinder1001
 10
-11.825699
 20
2.705093
 30
-5.547843
 11
-11.421951
 21
2.705094
 31
-5.541563
 12
-12.720641
 22
2.705096
 32
-4.804057
 13
-12.720641
 23
2.705096
 33
-4.804057
 62
0
  0
3DFACE
  8
Cylinder1001
 10
-12.516714
 20
2.705093
 30
-5.155419
 11
-11.825699
 21
2.705093
 31
-5.547843
 12
-12.720641
 22
2.705096
 32
-4.804057
 13
-12.720641
 23
2.705096
 33
-4.804057
 62
0
  0
3DFACE
  8
Cylinder1001
 10
-12.205910
 20
2.705093
 30
-5.413743
 11
-11.825699
 21
2.705093
 31
-5.547843
 12
-12.516714
 22
2.705093
 32
-5.155419
 13
-12.516714
 23
2.705093
 33
-5.155419
 62
0
  0
3DFACE
  8
Cylinder1001
 10
-12.525395
 20
6.210101
 30
-3.640153
 11
-12.725216
 21
6.210096
 31
-3.997808
 12
-12.725309
 22
2.705103
 32
-3.997792
 13
-12.525489
 23
2.705108
 33
-3.640142
 62
1
  0
3DFACE
  8
Cylinder1001
 10
-12.725216
 20
6.210096
 30
-3.997808
 11
-12.792994
 21
6.210092
 31
-4.402034
 12
-12.793085
 22
2.705099
 32
-4.402015
 13
-12.725309
 23
2.705103
 33
-3.997792
 62
1
  0
3DFACE
  8
Cylinder1001
 10
-12.792994
 20
6.210092
 30
-4.402034
 11
-12.720556
 21
6.210087
 31
-4.804077
 12
-12.720641
 22
2.705096
 32
-4.804057
 13
-12.793085
 23
2.705099
 33
-4.402015
 62
1
  0
3DFACE
  8
Cylinder1001
 10
-12.720556
 20
6.210087
 30
-4.804077
 11
-12.516637
 21
6.210084
 31
-5.155445
 12
-12.516714
 22
2.705093
 32
-5.155419
 13
-12.720641
 23
2.705096
 33
-4.804057
 62
1
  0
3DFACE
  8
Cylinder1001
 10
-12.516637
 20
6.210084
 30
-5.155445
 11
-12.205833
 21
6.210081
 31
-5.413756
 12
-12.205910
 22
2.705093
 32
-5.413743
 13
-12.516714
 23
2.705093
 33
-5.155419
 62
1
  0
3DFACE
  8
Cylinder1001
 10
-12.205833
 20
6.210081
 30
-5.413756
 11
-11.825633
 21
6.210081
 31
-5.547856
 12
-11.825699
 22
2.705093
 32
-5.547843
 13
-12.205910
 23
2.705093
 33
-5.413743
 62
1
  0
3DFACE
  8
Cylinder1001
 10
-11.825633
 20
6.210081
 30
-5.547856
 11
-11.421892
 21
6.210084
 31
-5.541569
 12
-11.421951
 22
2.705094
 32
-5.541563
 13
-11.825699
 23
2.705093
 33
-5.547843
 62
1
  0
3DFACE
  8
Cylinder1001
 10
-11.421892
 20
6.210084
 30
-5.541569
 11
-11.043311
 21
6.210087
 31
-5.395655
 12
-11.043367
 22
2.705096
 32
-5.395651
 13
-11.421951
 23
2.705094
 33
-5.541563
 62
1
  0
3DFACE
  8
Cylinder1001
 10
-11.043311
 20
6.210087
 30
-5.395655
 11
-10.735547
 21
6.210092
 31
-5.127713
 12
-10.735599
 22
2.705100
 32
-5.127717
 13
-11.043367
 23
2.705096
 33
-5.395651
 62
1
  0
3DFACE
  8
Cube3001
 10
-7.069489
 20
-3.727203
 30
3.033195
 11
-7.069721
 21
1.274922
 31
3.033095
 12
-9.360751
 22
1.902448
 32
-3.478318
 13
-9.360488
 23
-2.173405
 33
-3.478661
 62
0
  0
3DFACE
  8
Cube3001
 10
-9.360751
 20
1.902448
 30
-3.478318
 11
-12.834163
 21
1.902562
 31
-2.255420
 12
-12.833918
 22
-2.173258
 32
-2.255443
 13
-9.360488
 23
-2.173405
 33
-3.478661
 62
0
  0
3DFACE
  8
Cube3001
 10
-12.834163
 20
1.902562
 30
-2.255420
 11
-9.360751
 21
1.902448
 31
-3.478318
 12
-10.147570
 22
1.274940
 32
1.875597
 13
-10.147570
 23
1.274940
 33
1.875597
 62
0
  0
3DFACE
  8
Cube3001
 10
-7.069489
 20
-3.727203
 30
3.033195
 11
-10.147422
 21
-3.727205
 31
1.875626
 12
-10.147570
 22
1.274940
 32
1.875597
 13
-7.069721
 23
1.274922
 33
3.033095
 62
0
  0
3DFACE
  8
Cube3001
 10
-10.147570
 20
1.274940
 30
1.875597
 11
-10.147422
 21
-3.727205
 31
1.875626
 12
-12.833918
 22
-2.173258
 32
-2.255443
 13
-12.834163
 23
1.902562
 33
-2.255420
 62
0
  0
3DFACE
  8
Cube3001
 10
-10.147422
 20
-3.727205
 30
1.875626
 11
-7.069489
 21
-3.727203
 31
3.033195
 12
-9.360488
 22
-2.173405
 32
-3.478661
 13
-9.360488
 23
-2.173405
 33
-3.478661
 62
0
  0
3DFACE
  8
Cube3001
 10
-7.069721
 20
1.274922
 30
3.033095
 11
-10.147570
 21
1.274940
 31
1.875597
 12
-9.360751
 22
1.902448
 32
-3.478318
 13
-9.360751
 23
1.902448
 33
-3.478318
 62
0
  0
3DFACE
  8
Cube3001
 10
-9.360488
 20
-2.173405
 30
-3.478661
 11
-12.833918
 21
-2.173258
 31
-2.255443
 12
-10.147422
 22
-3.727205
 32
1.875626
 13
-10.147422
 23
-3.727205
 33
1.875626
 62
0
  0
3DFACE
  8
NoName6002
 10
-11.700259
 20
-1.688567
 30
-0.760854
 11
-11.114218
 21
-0.045291
 31
0.165048
 12
-10.745600
 22
-2.120524
 32
0.745968
 13
-10.745600
 23
-2.120524
 33
0.745968
 62
0
  0
3DFACE
  8
NoName6002
 10
-10.745600
 20
-2.120524
 30
0.745968
 11
-11.114218
 21
-0.045291
 31
0.165048
 12
-13.737726
 22
-1.233972
 32
1.671217
 13
-13.737726
 23
-1.233972
 33
1.671217
 62
0
  0
3DFACE
  8
NoName6002
 10
-13.737726
 20
-1.233972
 30
1.671217
 11
-11.114218
 21
-0.045291
 31
0.165048
 12
-11.700259
 22
-1.688567
 32
-0.760854
 13
-11.700259
 23
-1.688567
 33
-0.760854
 62
0
  0
3DFACE
  8
NoName6002
 10
-13.737726
 20
-1.233972
 30
1.671217
 11
-11.700259
 21
-1.688567
 31
-0.760854
 12
-10.745600
 22
-2.120524
 32
0.745968
 13
-10.745600
 23
-2.120524
 33
0.745968
 62
0
 0
ENDSEC
 0
EOF
