  0
SECTION
  2
HEADER
  0
ENDSEC
  0
SECTION
  2
TABLES
  0
TABLE
  2
LAYER
  70
    153
  0
LAYER
  2
NoName6
 70
0
 62
15
  6
CONTINUOUS
  0
LAYER
  2
NoName7
 70
0
 62
15
  6
CONTINUOUS
  0
LAYER
  2
Sphere
 70
0
 62
15
  6
CONTINUOUS
  0
LAYER
  2
Cylinder
 70
0
 62
15
  6
CONTINUOUS
  0
ENDTAB
  0
ENDSEC
  0
SECTION
  2
ENTITIES
  0
3DFACE
  8
NoName6
 10
-1.972830
 20
-0.297834
 30
0.788728
 11
-1.500395
 21
0.436442
 31
1.117758
 12
-1.501653
 22
-0.903061
 32
1.121488
 13
-1.501653
 23
-0.903061
 33
1.121488
 62
0
  0
3DFACE
  8
NoName6
 10
-1.501124
 20
-0.231634
 30
-1.720263
 11
-1.500395
 21
0.436442
 31
1.117758
 12
-1.972830
 22
-0.297834
 32
0.788728
 13
-1.972830
 23
-0.297834
 33
0.788728
 62
0
  0
3DFACE
  8
NoName6
 10
-1.501653
 20
-0.903061
 30
1.121488
 11
-1.500395
 21
0.436442
 31
1.117758
 12
-1.501124
 22
-0.231634
 32
-1.720263
 13
-1.501124
 23
-0.231634
 33
-1.720263
 62
0
  0
3DFACE
  8
NoName6
 10
-1.972830
 20
-0.297834
 30
0.788728
 11
-1.501653
 21
-0.903061
 31
1.121488
 12
-1.501124
 22
-0.231634
 32
-1.720263
 13
-1.501124
 23
-0.231634
 33
-1.720263
 62
0
  0
3DFACE
  8
NoName7
 10
1.501491
 20
-0.903082
 30
1.121463
 11
1.500219
 21
0.436421
 31
1.117733
 12
1.972667
 22
-0.297861
 32
0.788695
 13
1.972667
 23
-0.297861
 33
0.788695
 62
0
  0
3DFACE
  8
NoName7
 10
1.972667
 20
-0.297861
 30
0.788695
 11
1.500219
 21
0.436421
 31
1.117733
 12
1.500996
 22
-0.231656
 32
-1.720288
 13
1.500996
 23
-0.231656
 33
-1.720288
 62
0
  0
3DFACE
  8
NoName7
 10
1.500996
 20
-0.231656
 30
-1.720288
 11
1.500219
 21
0.436421
 31
1.117733
 12
1.501491
 22
-0.903082
 32
1.121463
 13
1.501491
 23
-0.903082
 33
1.121463
 62
0
  0
3DFACE
  8
NoName7
 10
1.500996
 20
-0.231656
 30
-1.720288
 11
1.501491
 21
-0.903082
 31
1.121463
 12
1.972667
 22
-0.297861
 32
0.788695
 13
1.972667
 23
-0.297861
 33
0.788695
 62
0
  0
3DFACE
  8
Sphere
 10
0.000102
 20
-0.233970
 30
1.720275
 11
1.645918
 21
1.413064
 31
0.932898
 12
1.645933
 22
-1.881020
 32
0.932905
 13
1.645933
 23
-1.881020
 33
0.932905
 62
0
  0
3DFACE
  8
Sphere
 10
0.000102
 20
-0.233970
 30
1.720275
 11
-1.645719
 21
1.413082
 31
0.932924
 12
1.645918
 22
1.413064
 32
0.932898
 13
1.645918
 23
1.413064
 33
0.932898
 62
0
  0
3DFACE
  8
Sphere
 10
0.000102
 20
-0.233970
 30
1.720275
 11
-1.645704
 21
-1.881002
 31
0.932932
 12
-1.645719
 22
1.413082
 32
0.932924
 13
-1.645719
 23
1.413082
 33
0.932924
 62
0
  0
3DFACE
  8
Sphere
 10
0.000102
 20
-0.233970
 30
1.720275
 11
1.645933
 21
-1.881020
 31
0.932905
 12
-1.645704
 22
-1.881002
 32
0.932932
 13
-1.645704
 23
-1.881002
 33
0.932932
 62
0
  0
3DFACE
  8
Sphere
 10
1.645933
 20
-1.881020
 30
0.932905
 11
1.645918
 21
1.413064
 31
0.932898
 12
0.000121
 22
-0.233965
 32
-1.090165
 13
0.000121
 23
-0.233965
 33
-1.090165
 62
0
  0
3DFACE
  8
Sphere
 10
1.645918
 20
1.413064
 30
0.932898
 11
-1.645719
 21
1.413082
 31
0.932924
 12
0.000121
 22
-0.233965
 32
-1.090165
 13
0.000121
 23
-0.233965
 33
-1.090165
 62
0
  0
3DFACE
  8
Sphere
 10
-1.645719
 20
1.413082
 30
0.932924
 11
-1.645704
 21
-1.881002
 31
0.932932
 12
0.000121
 22
-0.233965
 32
-1.090165
 13
0.000121
 23
-0.233965
 33
-1.090165
 62
0
  0
3DFACE
  8
Sphere
 10
-1.645704
 20
-1.881002
 30
0.932932
 11
1.645933
 21
-1.881020
 31
0.932905
 12
0.000121
 22
-0.233965
 32
-1.090165
 13
0.000121
 23
-0.233965
 33
-1.090165
 62
0
  0
3DFACE
  8
Cylinder
 10
0.678123
 20
1.881003
 30
0.352576
 11
0.721639
 21
1.881004
 31
0.101802
 12
0.721648
 22
0.017589
 32
0.101806
 13
0.678133
 23
0.017588
 33
0.352580
 62
2
  0
3DFACE
  8
Cylinder
 10
0.552828
 20
1.881004
 30
0.573104
 11
0.678123
 21
1.881003
 31
0.352576
 12
0.678133
 22
0.017588
 32
0.352580
 13
0.552837
 23
0.017589
 33
0.573108
 62
2
  0
3DFACE
  8
Cylinder
 10
0.360866
 20
1.881005
 30
0.736786
 11
0.552828
 21
1.881004
 31
0.573104
 12
0.552837
 22
0.017589
 32
0.573108
 13
0.360875
 23
0.017590
 33
0.736790
 62
2
  0
3DFACE
  8
Cylinder
 10
0.125390
 20
1.881006
 30
0.823881
 11
0.360866
 21
1.881005
 31
0.736786
 12
0.360875
 22
0.017590
 32
0.736790
 13
0.125400
 23
0.017591
 33
0.823885
 62
2
  0
3DFACE
  8
Cylinder
 10
-0.125197
 20
1.881007
 30
0.823883
 11
0.125390
 21
1.881006
 31
0.823881
 12
0.125400
 22
0.017591
 32
0.823885
 13
-0.125187
 23
0.017592
 33
0.823887
 62
2
  0
3DFACE
  8
Cylinder
 10
-0.360671
 20
1.881009
 30
0.736792
 11
-0.125197
 21
1.881007
 31
0.823883
 12
-0.125187
 22
0.017592
 32
0.823887
 13
-0.360661
 23
0.017594
 33
0.736796
 62
2
  0
3DFACE
  8
Cylinder
 10
-0.552631
 20
1.881010
 30
0.573113
 11
-0.360671
 21
1.881009
 31
0.736792
 12
-0.360661
 22
0.017594
 32
0.736796
 13
-0.552621
 23
0.017595
 33
0.573117
 62
2
  0
3DFACE
  8
Cylinder
 10
-0.677923
 20
1.881012
 30
0.352587
 11
-0.552631
 21
1.881010
 31
0.573113
 12
-0.552621
 22
0.017595
 32
0.573117
 13
-0.677913
 23
0.017597
 33
0.352591
 62
2
  0
3DFACE
  8
Cylinder
 10
-0.721435
 20
1.881012
 30
0.101814
 11
-0.677923
 21
1.881012
 31
0.352587
 12
-0.677913
 22
0.017597
 32
0.352591
 13
-0.721425
 23
0.017597
 33
0.101818
 62
2
  0
3DFACE
  8
Cylinder
 10
-0.677919
 20
1.881013
 30
-0.148961
 11
-0.721435
 21
1.881012
 31
0.101814
 12
-0.721425
 22
0.017597
 32
0.101818
 13
-0.677910
 23
0.017598
 33
-0.148957
 62
2
  0
3DFACE
  8
Cylinder
 10
-0.552624
 20
1.881012
 30
-0.369488
 11
-0.677919
 21
1.881013
 31
-0.148961
 12
-0.677910
 22
0.017598
 32
-0.148957
 13
-0.552615
 23
0.017597
 33
-0.369484
 62
2
  0
3DFACE
  8
Cylinder
 10
-0.360662
 20
1.881011
 30
-0.533171
 11
-0.552624
 21
1.881012
 31
-0.369488
 12
-0.552615
 22
0.017597
 32
-0.369484
 13
-0.360652
 23
0.017597
 33
-0.533167
 62
2
  0
3DFACE
  8
Cylinder
 10
-0.125187
 20
1.881010
 30
-0.620265
 11
-0.360662
 21
1.881011
 31
-0.533171
 12
-0.360652
 22
0.017597
 32
-0.533167
 13
-0.125177
 23
0.017595
 33
-0.620261
 62
2
  0
3DFACE
  8
Cylinder
 10
0.125400
 20
1.881009
 30
-0.620267
 11
-0.125187
 21
1.881010
 31
-0.620265
 12
-0.125177
 22
0.017595
 32
-0.620261
 13
0.125410
 23
0.017594
 33
-0.620263
 62
2
  0
3DFACE
  8
Cylinder
 10
0.360875
 20
1.881007
 30
-0.533176
 11
0.125400
 21
1.881009
 31
-0.620267
 12
0.125410
 22
0.017594
 32
-0.620263
 13
0.360884
 23
0.017592
 33
-0.533172
 62
2
  0
3DFACE
  8
Cylinder
 10
0.552834
 20
1.881006
 30
-0.369497
 11
0.360875
 21
1.881007
 31
-0.533176
 12
0.360884
 22
0.017592
 32
-0.533172
 13
0.552844
 23
0.017591
 33
-0.369493
 62
2
  0
3DFACE
  8
Cylinder
 10
0.678126
 20
1.881004
 30
-0.148971
 11
0.552834
 21
1.881006
 31
-0.369497
 12
0.552844
 22
0.017591
 32
-0.369493
 13
0.678136
 23
0.017589
 33
-0.148967
 62
2
  0
3DFACE
  8
Cylinder
 10
0.721639
 20
1.881004
 30
0.101802
 11
0.678126
 21
1.881004
 31
-0.148971
 12
0.678136
 22
0.017589
 32
-0.148967
 13
0.721648
 23
0.017589
 33
0.101806
 62
2
  0
3DFACE
  8
Cylinder
 10
-0.360661
 20
0.017594
 30
0.736796
 11
-0.125187
 21
0.017592
 31
0.823887
 12
0.125400
 22
0.017591
 32
0.823885
 13
0.125400
 23
0.017591
 33
0.823885
 62
2
  0
3DFACE
  8
Cylinder
 10
0.360875
 20
0.017590
 30
0.736790
 11
-0.360661
 21
0.017594
 31
0.736796
 12
0.125400
 22
0.017591
 32
0.823885
 13
0.125400
 23
0.017591
 33
0.823885
 62
2
  0
3DFACE
  8
Cylinder
 10
-0.552621
 20
0.017595
 30
0.573117
 11
-0.360661
 21
0.017594
 31
0.736796
 12
0.360875
 22
0.017590
 32
0.736790
 13
0.360875
 23
0.017590
 33
0.736790
 62
2
  0
3DFACE
  8
Cylinder
 10
0.552837
 20
0.017589
 30
0.573108
 11
-0.552621
 21
0.017595
 31
0.573117
 12
0.360875
 22
0.017590
 32
0.736790
 13
0.360875
 23
0.017590
 33
0.736790
 62
2
  0
3DFACE
  8
Cylinder
 10
-0.677913
 20
0.017597
 30
0.352591
 11
-0.552621
 21
0.017595
 31
0.573117
 12
0.552837
 22
0.017589
 32
0.573108
 13
0.552837
 23
0.017589
 33
0.573108
 62
2
  0
3DFACE
  8
Cylinder
 10
0.678133
 20
0.017588
 30
0.352580
 11
-0.677913
 21
0.017597
 31
0.352591
 12
0.552837
 22
0.017589
 32
0.573108
 13
0.552837
 23
0.017589
 33
0.573108
 62
2
  0
3DFACE
  8
Cylinder
 10
0.721648
 20
0.017589
 30
0.101806
 11
-0.677913
 21
0.017597
 31
0.352591
 12
0.678133
 22
0.017588
 32
0.352580
 13
0.678133
 23
0.017588
 33
0.352580
 62
2
  0
3DFACE
  8
Cylinder
 10
-0.721425
 20
0.017597
 30
0.101818
 11
-0.677913
 21
0.017597
 31
0.352591
 12
0.721648
 22
0.017589
 32
0.101806
 13
0.721648
 23
0.017589
 33
0.101806
 62
2
  0
3DFACE
  8
Cylinder
 10
-0.677910
 20
0.017598
 30
-0.148957
 11
-0.721425
 21
0.017597
 31
0.101818
 12
0.721648
 22
0.017589
 32
0.101806
 13
0.721648
 23
0.017589
 33
0.101806
 62
2
  0
3DFACE
  8
Cylinder
 10
0.678136
 20
0.017589
 30
-0.148967
 11
-0.677910
 21
0.017598
 31
-0.148957
 12
0.721648
 22
0.017589
 32
0.101806
 13
0.721648
 23
0.017589
 33
0.101806
 62
2
  0
3DFACE
  8
Cylinder
 10
-0.552615
 20
0.017597
 30
-0.369484
 11
-0.677910
 21
0.017598
 31
-0.148957
 12
0.678136
 22
0.017589
 32
-0.148967
 13
0.678136
 23
0.017589
 33
-0.148967
 62
2
  0
3DFACE
  8
Cylinder
 10
0.552844
 20
0.017591
 30
-0.369493
 11
-0.552615
 21
0.017597
 31
-0.369484
 12
0.678136
 22
0.017589
 32
-0.148967
 13
0.678136
 23
0.017589
 33
-0.148967
 62
2
  0
3DFACE
  8
Cylinder
 10
-0.360652
 20
0.017597
 30
-0.533167
 11
-0.552615
 21
0.017597
 31
-0.369484
 12
0.552844
 22
0.017591
 32
-0.369493
 13
0.552844
 23
0.017591
 33
-0.369493
 62
2
  0
3DFACE
  8
Cylinder
 10
0.360884
 20
0.017592
 30
-0.533172
 11
-0.360652
 21
0.017597
 31
-0.533167
 12
0.552844
 22
0.017591
 32
-0.369493
 13
0.552844
 23
0.017591
 33
-0.369493
 62
2
  0
3DFACE
  8
Cylinder
 10
-0.125177
 20
0.017595
 30
-0.620261
 11
-0.360652
 21
0.017597
 31
-0.533167
 12
0.360884
 22
0.017592
 32
-0.533172
 13
0.360884
 23
0.017592
 33
-0.533172
 62
2
  0
3DFACE
  8
Cylinder
 10
0.125410
 20
0.017594
 30
-0.620263
 11
-0.125177
 21
0.017595
 31
-0.620261
 12
0.360884
 22
0.017592
 32
-0.533172
 13
0.360884
 23
0.017592
 33
-0.533172
 62
2
  0
3DFACE
  8
Cylinder
 10
0.232853
 20
1.881006
 30
0.511471
 11
0.552828
 21
1.881004
 31
0.573104
 12
0.080933
 22
1.881007
 32
0.567661
 13
0.080933
 23
1.881007
 33
0.567661
 62
0
  0
3DFACE
  8
Cylinder
 10
0.356699
 20
1.881005
 30
0.405870
 11
0.552828
 21
1.881004
 31
0.573104
 12
0.232853
 22
1.881006
 32
0.511471
 13
0.232853
 23
1.881006
 33
0.511471
 62
0
  0
3DFACE
  8
Cylinder
 10
0.678123
 20
1.881003
 30
0.352576
 11
0.552828
 21
1.881004
 31
0.573104
 12
0.356699
 22
1.881005
 32
0.405870
 13
0.356699
 23
1.881005
 33
0.405870
 62
0
  0
3DFACE
  8
Cylinder
 10
0.437535
 20
1.881005
 30
0.263594
 11
0.678123
 21
1.881003
 31
0.352576
 12
0.356699
 22
1.881005
 32
0.405870
 13
0.356699
 23
1.881005
 33
0.405870
 62
0
  0
3DFACE
  8
Cylinder
 10
0.721639
 20
1.881004
 30
0.101802
 11
0.678123
 21
1.881003
 31
0.352576
 12
0.437535
 22
1.881005
 32
0.263594
 13
0.437535
 23
1.881005
 33
0.263594
 62
0
  0
3DFACE
  8
Cylinder
 10
0.465609
 20
1.881005
 30
0.101804
 11
0.721639
 21
1.881004
 31
0.101802
 12
0.437535
 22
1.881005
 32
0.263594
 13
0.437535
 23
1.881005
 33
0.263594
 62
0
  0
3DFACE
  8
Cylinder
 10
0.437537
 20
1.881006
 30
-0.059985
 11
0.721639
 21
1.881004
 31
0.101802
 12
0.465609
 22
1.881005
 32
0.101804
 13
0.465609
 23
1.881005
 33
0.101804
 62
0
  0
3DFACE
  8
Cylinder
 10
0.678126
 20
1.881004
 30
-0.148971
 11
0.721639
 21
1.881004
 31
0.101802
 12
0.437537
 22
1.881006
 32
-0.059985
 13
0.437537
 23
1.881006
 33
-0.059985
 62
0
  0
3DFACE
  8
Cylinder
 10
0.356703
 20
1.881006
 30
-0.202260
 11
0.678126
 21
1.881004
 31
-0.148971
 12
0.437537
 22
1.881006
 32
-0.059985
 13
0.437537
 23
1.881006
 33
-0.059985
 62
0
  0
3DFACE
  8
Cylinder
 10
0.232858
 20
1.881007
 30
-0.307859
 11
0.678126
 21
1.881004
 31
-0.148971
 12
0.356703
 22
1.881006
 32
-0.202260
 13
0.356703
 23
1.881006
 33
-0.202260
 62
0
  0
3DFACE
  8
Cylinder
 10
0.080939
 20
1.881008
 30
-0.364047
 11
0.678126
 21
1.881004
 31
-0.148971
 12
0.232858
 22
1.881007
 32
-0.307859
 13
0.232858
 23
1.881007
 33
-0.307859
 62
0
  0
3DFACE
  8
Cylinder
 10
0.552834
 20
1.881006
 30
-0.369497
 11
0.678126
 21
1.881004
 31
-0.148971
 12
0.080939
 22
1.881008
 32
-0.364047
 13
0.080939
 23
1.881008
 33
-0.364047
 62
0
  0
3DFACE
  8
Cylinder
 10
0.552834
 20
1.881006
 30
-0.369497
 11
0.080939
 21
1.881008
 31
-0.364047
 12
-0.080730
 22
1.881009
 32
-0.364046
 13
-0.080730
 23
1.881009
 33
-0.364046
 62
0
  0
3DFACE
  8
Cylinder
 10
-0.552624
 20
1.881012
 30
-0.369488
 11
0.552834
 21
1.881006
 31
-0.369497
 12
-0.080730
 22
1.881009
 32
-0.364046
 13
-0.080730
 23
1.881009
 33
-0.364046
 62
0
  0
3DFACE
  8
Cylinder
 10
0.360875
 20
1.881007
 30
-0.533176
 11
0.552834
 21
1.881006
 31
-0.369497
 12
-0.552624
 22
1.881012
 32
-0.369488
 13
-0.552624
 23
1.881012
 33
-0.369488
 62
0
  0
3DFACE
  8
Cylinder
 10
-0.360662
 20
1.881011
 30
-0.533171
 11
0.360875
 21
1.881007
 31
-0.533176
 12
-0.552624
 22
1.881012
 32
-0.369488
 13
-0.552624
 23
1.881012
 33
-0.369488
 62
0
  0
3DFACE
  8
Cylinder
 10
0.125400
 20
1.881009
 30
-0.620267
 11
0.360875
 21
1.881007
 31
-0.533176
 12
-0.360662
 22
1.881011
 32
-0.533171
 13
-0.360662
 23
1.881011
 33
-0.533171
 62
0
  0
3DFACE
  8
Cylinder
 10
-0.125187
 20
1.881010
 30
-0.620265
 11
0.125400
 21
1.881009
 31
-0.620267
 12
-0.360662
 22
1.881011
 32
-0.533171
 13
-0.360662
 23
1.881011
 33
-0.533171
 62
0
  0
3DFACE
  8
Cylinder
 10
0.360866
 20
1.881005
 30
0.736786
 11
0.125390
 21
1.881006
 31
0.823881
 12
-0.125197
 22
1.881007
 32
0.823883
 13
-0.125197
 23
1.881007
 33
0.823883
 62
0
  0
3DFACE
  8
Cylinder
 10
-0.360671
 20
1.881009
 30
0.736792
 11
0.360866
 21
1.881005
 31
0.736786
 12
-0.125197
 22
1.881007
 32
0.823883
 13
-0.125197
 23
1.881007
 33
0.823883
 62
0
  0
3DFACE
  8
Cylinder
 10
0.552828
 20
1.881004
 30
0.573104
 11
0.360866
 21
1.881005
 31
0.736786
 12
-0.360671
 22
1.881009
 32
0.736792
 13
-0.360671
 23
1.881009
 33
0.736792
 62
0
  0
3DFACE
  8
Cylinder
 10
-0.552631
 20
1.881010
 30
0.573113
 11
0.552828
 21
1.881004
 31
0.573104
 12
-0.360671
 22
1.881009
 32
0.736792
 13
-0.360671
 23
1.881009
 33
0.736792
 62
0
  0
3DFACE
  8
Cylinder
 10
0.080933
 20
1.881007
 30
0.567661
 11
0.552828
 21
1.881004
 31
0.573104
 12
-0.552631
 22
1.881010
 32
0.573113
 13
-0.552631
 23
1.881010
 33
0.573113
 62
0
  0
3DFACE
  8
Cylinder
 10
-0.080736
 20
1.881008
 30
0.567663
 11
0.080933
 21
1.881007
 31
0.567661
 12
-0.552631
 22
1.881010
 32
0.573113
 13
-0.552631
 23
1.881010
 33
0.573113
 62
0
  0
3DFACE
  8
Cylinder
 10
-0.232655
 20
1.881009
 30
0.511475
 11
-0.080736
 21
1.881008
 31
0.567663
 12
-0.552631
 22
1.881010
 32
0.573113
 13
-0.552631
 23
1.881010
 33
0.573113
 62
0
  0
3DFACE
  8
Cylinder
 10
-0.356500
 20
1.881009
 30
0.405875
 11
-0.232655
 21
1.881009
 31
0.511475
 12
-0.552631
 22
1.881010
 32
0.573113
 13
-0.552631
 23
1.881010
 33
0.573113
 62
0
  0
3DFACE
  8
Cylinder
 10
-0.677923
 20
1.881012
 30
0.352587
 11
-0.356500
 21
1.881009
 31
0.405875
 12
-0.552631
 22
1.881010
 32
0.573113
 13
-0.552631
 23
1.881010
 33
0.573113
 62
0
  0
3DFACE
  8
Cylinder
 10
-0.437334
 20
1.881010
 30
0.263601
 11
-0.356500
 21
1.881009
 31
0.405875
 12
-0.677923
 22
1.881012
 32
0.352587
 13
-0.677923
 23
1.881012
 33
0.352587
 62
0
  0
3DFACE
  8
Cylinder
 10
-0.721435
 20
1.881012
 30
0.101814
 11
-0.437334
 21
1.881010
 31
0.263601
 12
-0.677923
 22
1.881012
 32
0.352587
 13
-0.677923
 23
1.881012
 33
0.352587
 62
0
  0
3DFACE
  8
Cylinder
 10
-0.465406
 20
1.881011
 30
0.101812
 11
-0.437334
 21
1.881010
 31
0.263601
 12
-0.721435
 22
1.881012
 32
0.101814
 13
-0.721435
 23
1.881012
 33
0.101814
 62
0
  0
3DFACE
  8
Cylinder
 10
-0.437331
 20
1.881011
 30
-0.059978
 11
-0.465406
 21
1.881011
 31
0.101812
 12
-0.721435
 22
1.881012
 32
0.101814
 13
-0.721435
 23
1.881012
 33
0.101814
 62
0
  0
3DFACE
  8
Cylinder
 10
-0.677919
 20
1.881013
 30
-0.148961
 11
-0.437331
 21
1.881011
 31
-0.059978
 12
-0.721435
 22
1.881012
 32
0.101814
 13
-0.721435
 23
1.881012
 33
0.101814
 62
0
  0
3DFACE
  8
Cylinder
 10
-0.356496
 20
1.881011
 30
-0.202254
 11
-0.437331
 21
1.881011
 31
-0.059978
 12
-0.677919
 22
1.881013
 32
-0.148961
 13
-0.677919
 23
1.881013
 33
-0.148961
 62
0
  0
3DFACE
  8
Cylinder
 10
-0.232649
 20
1.881010
 30
-0.307856
 11
-0.356496
 21
1.881011
 31
-0.202254
 12
-0.677919
 22
1.881013
 32
-0.148961
 13
-0.677919
 23
1.881013
 33
-0.148961
 62
0
  0
3DFACE
  8
Cylinder
 10
-0.080730
 20
1.881009
 30
-0.364046
 11
-0.232649
 21
1.881010
 31
-0.307856
 12
-0.677919
 22
1.881013
 32
-0.148961
 13
-0.677919
 23
1.881013
 33
-0.148961
 62
0
  0
3DFACE
  8
Cylinder
 10
-0.552624
 20
1.881012
 30
-0.369488
 11
-0.080730
 21
1.881009
 31
-0.364046
 12
-0.677919
 22
1.881013
 32
-0.148961
 13
-0.677919
 23
1.881013
 33
-0.148961
 62
0
  0
3DFACE
  8
Cylinder
 10
-0.437288
 20
1.133327
 30
-0.059810
 11
-0.465428
 21
1.133318
 31
0.101991
 12
-0.465406
 22
1.881011
 32
0.101812
 13
-0.437331
 23
1.881011
 33
-0.059978
 62
1
  0
3DFACE
  8
Cylinder
 10
-0.356395
 20
1.133318
 30
-0.202119
 11
-0.437288
 21
1.133327
 31
-0.059810
 12
-0.437331
 22
1.881011
 32
-0.059978
 13
-0.356496
 23
1.881011
 33
-0.202254
 62
1
  0
3DFACE
  8
Cylinder
 10
-0.232506
 20
1.133292
 30
-0.307770
 11
-0.356395
 21
1.133318
 31
-0.202119
 12
-0.356496
 22
1.881011
 32
-0.202254
 13
-0.232649
 23
1.881010
 33
-0.307856
 62
1
  0
3DFACE
  8
Cylinder
 10
-0.080564
 20
1.133251
 30
-0.364021
 11
-0.232506
 21
1.133292
 31
-0.307770
 12
-0.232649
 22
1.881010
 32
-0.307856
 13
-0.080730
 23
1.881009
 33
-0.364046
 62
1
  0
3DFACE
  8
Cylinder
 10
0.081105
 20
1.133201
 30
-0.364088
 11
-0.080564
 21
1.133251
 31
-0.364021
 12
-0.080730
 22
1.881009
 32
-0.364046
 13
0.080939
 23
1.881008
 33
-0.364047
 62
1
  0
3DFACE
  8
Cylinder
 10
0.233001
 20
1.133147
 30
-0.307960
 11
0.081105
 21
1.133201
 31
-0.364088
 12
0.080939
 22
1.881008
 32
-0.364047
 13
0.232858
 23
1.881007
 33
-0.307859
 62
1
  0
3DFACE
  8
Cylinder
 10
0.356804
 20
1.133096
 30
-0.202411
 11
0.233001
 21
1.133147
 31
-0.307960
 12
0.232858
 22
1.881007
 32
-0.307859
 13
0.356703
 23
1.881006
 33
-0.202260
 62
1
  0
3DFACE
  8
Cylinder
 10
0.437580
 20
1.133055
 30
-0.060169
 11
0.356804
 21
1.133096
 31
-0.202411
 12
0.356703
 22
1.881006
 32
-0.202260
 13
0.437537
 23
1.881006
 33
-0.059985
 62
1
  0
3DFACE
  8
Cylinder
 10
0.465587
 20
1.133028
 30
0.101609
 11
0.437580
 21
1.133055
 31
-0.060169
 12
0.437537
 22
1.881006
 32
-0.059985
 13
0.465609
 23
1.881005
 33
0.101804
 62
1
  0
3DFACE
  8
Cylinder
 10
-0.232842
 20
1.133199
 30
0.511560
 11
0.080724
 21
1.133095
 31
0.567621
 12
-0.080946
 22
1.133145
 32
0.567688
 13
-0.080946
 23
1.133145
 33
0.567688
 62
1
  0
3DFACE
  8
Cylinder
 10
0.232666
 20
1.133054
 30
0.511370
 11
0.080724
 21
1.133095
 31
0.567621
 12
-0.232842
 22
1.133199
 32
0.511560
 13
-0.232842
 23
1.133199
 33
0.511560
 62
1
  0
3DFACE
  8
Cylinder
 10
-0.356644
 20
1.133249
 30
0.406011
 11
0.232666
 21
1.133054
 31
0.511370
 12
-0.232842
 22
1.133199
 32
0.511560
 13
-0.232842
 23
1.133199
 33
0.511560
 62
1
  0
3DFACE
  8
Cylinder
 10
0.356555
 20
1.133027
 30
0.405719
 11
0.232666
 21
1.133054
 31
0.511370
 12
-0.356644
 22
1.133249
 32
0.406011
 13
-0.356644
 23
1.133249
 33
0.406011
 62
1
  0
3DFACE
  8
Cylinder
 10
-0.437421
 20
1.133291
 30
0.263769
 11
0.356555
 21
1.133027
 31
0.405719
 12
-0.356644
 22
1.133249
 32
0.406011
 13
-0.356644
 23
1.133249
 33
0.406011
 62
1
  0
3DFACE
  8
Cylinder
 10
0.437448
 20
1.133018
 30
0.263410
 11
0.356555
 21
1.133027
 31
0.405719
 12
-0.437421
 22
1.133291
 32
0.263769
 13
-0.437421
 23
1.133291
 33
0.263769
 62
1
  0
3DFACE
  8
Cylinder
 10
-0.465428
 20
1.133318
 30
0.101991
 11
0.437448
 21
1.133018
 31
0.263410
 12
-0.437421
 22
1.133291
 32
0.263769
 13
-0.437421
 23
1.133291
 33
0.263769
 62
1
  0
3DFACE
  8
Cylinder
 10
0.465587
 20
1.133028
 30
0.101609
 11
0.437448
 21
1.133018
 31
0.263410
 12
-0.465428
 22
1.133318
 32
0.101991
 13
-0.465428
 23
1.133318
 33
0.101991
 62
1
  0
3DFACE
  8
Cylinder
 10
-0.437288
 20
1.133327
 30
-0.059810
 11
0.465587
 21
1.133028
 31
0.101609
 12
-0.465428
 22
1.133318
 32
0.101991
 13
-0.465428
 23
1.133318
 33
0.101991
 62
1
  0
3DFACE
  8
Cylinder
 10
0.437580
 20
1.133055
 30
-0.060169
 11
0.465587
 21
1.133028
 31
0.101609
 12
-0.437288
 22
1.133327
 32
-0.059810
 13
-0.437288
 23
1.133327
 33
-0.059810
 62
1
  0
3DFACE
  8
Cylinder
 10
-0.356395
 20
1.133318
 30
-0.202119
 11
0.437580
 21
1.133055
 31
-0.060169
 12
-0.437288
 22
1.133327
 32
-0.059810
 13
-0.437288
 23
1.133327
 33
-0.059810
 62
1
  0
3DFACE
  8
Cylinder
 10
0.356804
 20
1.133096
 30
-0.202411
 11
0.437580
 21
1.133055
 31
-0.060169
 12
-0.356395
 22
1.133318
 32
-0.202119
 13
-0.356395
 23
1.133318
 33
-0.202119
 62
1
  0
3DFACE
  8
Cylinder
 10
-0.232506
 20
1.133292
 30
-0.307770
 11
0.356804
 21
1.133096
 31
-0.202411
 12
-0.356395
 22
1.133318
 32
-0.202119
 13
-0.356395
 23
1.133318
 33
-0.202119
 62
1
  0
3DFACE
  8
Cylinder
 10
0.233001
 20
1.133147
 30
-0.307960
 11
0.356804
 21
1.133096
 31
-0.202411
 12
-0.232506
 22
1.133292
 32
-0.307770
 13
-0.232506
 23
1.133292
 33
-0.307770
 62
1
  0
3DFACE
  8
Cylinder
 10
-0.080564
 20
1.133251
 30
-0.364021
 11
0.233001
 21
1.133147
 31
-0.307960
 12
-0.232506
 22
1.133292
 32
-0.307770
 13
-0.232506
 23
1.133292
 33
-0.307770
 62
1
  0
3DFACE
  8
Cylinder
 10
0.081105
 20
1.133201
 30
-0.364088
 11
0.233001
 21
1.133147
 31
-0.307960
 12
-0.080564
 22
1.133251
 32
-0.364021
 13
-0.080564
 23
1.133251
 33
-0.364021
 62
1
  0
3DFACE
  8
Cylinder
 10
-0.437421
 20
1.133291
 30
0.263769
 11
-0.356644
 21
1.133249
 31
0.406011
 12
-0.356500
 22
1.881009
 32
0.405875
 13
-0.437334
 23
1.881010
 33
0.263601
 62
1
  0
3DFACE
  8
Cylinder
 10
-0.465428
 20
1.133318
 30
0.101991
 11
-0.437421
 21
1.133291
 31
0.263769
 12
-0.437334
 22
1.881010
 32
0.263601
 13
-0.465406
 23
1.881011
 33
0.101812
 62
1
  0
3DFACE
  8
Cylinder
 10
-0.356644
 20
1.133249
 30
0.406011
 11
-0.232842
 21
1.133199
 31
0.511560
 12
-0.232655
 22
1.881009
 32
0.511475
 13
-0.356500
 23
1.881009
 33
0.405875
 62
1
  0
3DFACE
  8
Cylinder
 10
-0.232842
 20
1.133199
 30
0.511560
 11
-0.080946
 21
1.133145
 31
0.567688
 12
-0.080736
 22
1.881008
 32
0.567663
 13
-0.232655
 23
1.881009
 33
0.511475
 62
1
  0
3DFACE
  8
Cylinder
 10
-0.080946
 20
1.133145
 30
0.567688
 11
0.080724
 21
1.133095
 31
0.567621
 12
0.080933
 22
1.881007
 32
0.567661
 13
-0.080736
 23
1.881008
 33
0.567663
 62
1
  0
3DFACE
  8
Cylinder
 10
0.080724
 20
1.133095
 30
0.567621
 11
0.232666
 21
1.133054
 31
0.511370
 12
0.232853
 22
1.881006
 32
0.511471
 13
0.080933
 23
1.881007
 33
0.567661
 62
1
  0
3DFACE
  8
Cylinder
 10
0.232666
 20
1.133054
 30
0.511370
 11
0.356555
 21
1.133027
 31
0.405719
 12
0.356699
 22
1.881005
 32
0.405870
 13
0.232853
 23
1.881006
 33
0.511471
 62
1
  0
3DFACE
  8
Cylinder
 10
0.356555
 20
1.133027
 30
0.405719
 11
0.437448
 21
1.133018
 31
0.263410
 12
0.437535
 22
1.881005
 32
0.263594
 13
0.356699
 23
1.881005
 33
0.405870
 62
1
  0
3DFACE
  8
Cylinder
 10
0.437448
 20
1.133018
 30
0.263410
 11
0.465587
 21
1.133028
 31
0.101609
 12
0.465609
 22
1.881005
 32
0.101804
 13
0.437535
 23
1.881005
 33
0.263594
 62
1
 0
ENDSEC
 0
EOF
