  0
SECTION
  2
HEADER
  0
ENDSEC
  0
SECTION
  2
TABLES
  0
TABLE
  2
LAYER
  70
    153
  0
LAYER
  2
Cylinder2
 70
0
 62
15
  6
CONTINUOUS
  0
LAYER
  2
Cylinder3
 70
0
 62
15
  6
CONTINUOUS
  0
LAYER
  2
Cube1
 70
0
 62
15
  6
CONTINUOUS
  0
LAYER
  2
Cube
 70
0
 62
15
  6
CONTINUOUS
  0
LAYER
  2
Cylinder
 70
0
 62
15
  6
CONTINUOUS
  0
LAYER
  2
Cylinder4
 70
0
 62
15
  6
CONTINUOUS
  0
LAYER
  2
Cube1001
 70
0
 62
15
  6
CONTINUOUS
  0
LAYER
  2
Cube001
 70
0
 62
15
  6
CONTINUOUS
  0
LAYER
  2
Cylinder001
 70
0
 62
15
  6
CONTINUOUS
  0
LAYER
  2
Cylinder4001
 70
0
 62
15
  6
CONTINUOUS
  0
ENDTAB
  0
ENDSEC
  0
SECTION
  2
ENTITIES
  0
3DFACE
  8
Cylinder2
 10
1.475997
 20
-2.555146
 30
0.590394
 11
0.885599
 21
-2.555146
 31
-0.000006
 12
0.498389
 22
-0.777758
 32
-0.000007
 13
1.475996
 23
-0.777422
 33
0.977636
 62
4
  0
3DFACE
  8
Cylinder2
 10
0.885599
 20
-2.555146
 30
-0.000006
 11
1.475998
 21
-2.555146
 31
-0.590407
 12
1.475997
 22
-0.778096
 32
-0.977586
 13
0.498389
 23
-0.777758
 33
-0.000007
 62
4
  0
3DFACE
  8
Cylinder2
 10
2.066396
 20
-2.555147
 30
-0.000006
 11
1.475998
 21
-2.555146
 31
-0.590407
 12
0.885599
 22
-2.555146
 32
-0.000006
 13
1.475997
 23
-2.555146
 33
0.590394
 62
2
  0
3DFACE
  8
Cylinder2
 10
2.066396
 20
-2.555147
 30
-0.000006
 11
1.475997
 21
-2.555146
 31
0.590394
 12
1.475996
 22
-0.777422
 32
0.977636
 13
2.453604
 23
-0.777760
 33
-0.000008
 62
4
  0
3DFACE
  8
Cylinder2
 10
1.475998
 20
-2.555146
 30
-0.590407
 11
2.066396
 21
-2.555147
 31
-0.000006
 12
2.453604
 22
-0.777760
 32
-0.000008
 13
1.475997
 23
-0.778096
 33
-0.977586
 62
4
  0
3DFACE
  8
Cylinder2
 10
1.636955
 20
-0.450516
 30
0.751339
 11
1.475995
 21
4.113870
 31
0.000283
 12
1.564863
 22
2.547346
 32
0.224421
 13
1.564863
 23
2.547346
 33
0.224421
 62
0
  0
3DFACE
  8
Cylinder2
 10
1.475996
 20
-0.777422
 30
0.977636
 11
1.475995
 21
4.113870
 31
0.000283
 12
1.636955
 22
-0.450516
 32
0.751339
 13
1.636955
 23
-0.450516
 33
0.751339
 62
0
  0
3DFACE
  8
Cylinder2
 10
1.564863
 20
2.547346
 30
0.224421
 11
1.475995
 21
4.113870
 31
0.000283
 12
2.453604
 22
-0.777760
 32
-0.000008
 13
2.453604
 23
-0.777760
 33
-0.000008
 62
0
  0
3DFACE
  8
Cylinder2
 10
2.139042
 20
-0.350487
 30
0.229212
 11
1.564863
 21
2.547346
 31
0.224421
 12
2.453604
 22
-0.777760
 32
-0.000008
 13
2.453604
 23
-0.777760
 33
-0.000008
 62
0
  0
3DFACE
  8
Cylinder2
 10
1.636955
 20
-0.450516
 30
0.751339
 11
2.139042
 21
-0.350487
 31
0.229212
 12
2.453604
 22
-0.777760
 32
-0.000008
 13
2.453604
 23
-0.777760
 33
-0.000008
 62
0
  0
3DFACE
  8
Cylinder2
 10
1.475996
 20
-0.777422
 30
0.977636
 11
1.636955
 21
-0.450516
 31
0.751339
 12
2.453604
 22
-0.777760
 32
-0.000008
 13
2.453604
 23
-0.777760
 33
-0.000008
 62
0
  0
3DFACE
  8
Cylinder2
 10
1.475995
 20
4.113870
 30
0.000283
 11
1.475997
 21
-0.778096
 31
-0.977586
 12
2.453604
 22
-0.777760
 32
-0.000008
 13
2.453604
 23
-0.777760
 33
-0.000008
 62
0
  0
3DFACE
  8
Cylinder2
 10
1.475995
 20
4.113870
 30
0.000283
 11
1.475996
 21
-0.777422
 31
0.977636
 12
0.498389
 22
-0.777758
 32
-0.000007
 13
0.498389
 23
-0.777758
 33
-0.000007
 62
0
  0
3DFACE
  8
Cylinder2
 10
1.475995
 20
4.113870
 30
0.000283
 11
0.498389
 21
-0.777758
 31
-0.000007
 12
1.475997
 22
-0.778096
 32
-0.977586
 13
1.475997
 23
-0.778096
 33
-0.977586
 62
0
  0
3DFACE
  8
Cylinder2
 10
1.525375
 20
2.539706
 30
0.182914
 11
1.575648
 21
-0.462378
 31
0.686898
 12
1.636955
 22
-0.450516
 32
0.751339
 13
1.564863
 23
2.547346
 33
0.224421
 62
3
  0
3DFACE
  8
Cylinder2
 10
1.575648
 20
-0.462378
 30
0.686898
 11
2.090514
 21
-0.359878
 31
0.178203
 12
2.139042
 22
-0.350487
 32
0.229212
 13
1.636955
 23
-0.450516
 33
0.751339
 62
3
  0
3DFACE
  8
Cylinder2
 10
2.090514
 20
-0.359878
 30
0.178203
 11
1.575648
 21
-0.462378
 31
0.686898
 12
1.525375
 22
2.539706
 32
0.182914
 13
1.525375
 23
2.539706
 33
0.182914
 62
1
  0
3DFACE
  8
Cylinder2
 10
2.090514
 20
-0.359878
 30
0.178203
 11
1.525375
 21
2.539706
 31
0.182914
 12
1.564863
 22
2.547346
 32
0.224421
 13
2.139042
 23
-0.350487
 33
0.229212
 62
3
  0
3DFACE
  8
Cylinder3
 10
-1.475997
 20
-0.777422
 30
0.977637
 11
-0.498389
 21
-0.777761
 31
-0.000006
 12
-0.885597
 22
-2.554867
 32
-0.000006
 13
-1.475996
 23
-2.554866
 33
0.590394
 62
4
  0
3DFACE
  8
Cylinder3
 10
-0.498389
 20
-0.777761
 30
-0.000006
 11
-1.475996
 21
-0.778097
 31
-0.977585
 12
-1.475996
 22
-2.554867
 32
-0.590406
 13
-0.885597
 23
-2.554867
 33
-0.000006
 62
4
  0
3DFACE
  8
Cylinder3
 10
-1.475996
 20
-2.554866
 30
0.590394
 11
-0.885597
 21
-2.554867
 31
-0.000006
 12
-1.475996
 22
-2.554867
 32
-0.590406
 13
-2.066394
 23
-2.554866
 33
-0.000006
 62
2
  0
3DFACE
  8
Cylinder3
 10
-2.453604
 20
-0.777759
 30
-0.000006
 11
-1.475997
 21
-0.777422
 31
0.977637
 12
-1.475996
 22
-2.554866
 32
0.590394
 13
-2.066394
 23
-2.554866
 33
-0.000006
 62
4
  0
3DFACE
  8
Cylinder3
 10
-1.475996
 20
-0.778097
 30
-0.977585
 11
-2.453604
 21
-0.777759
 31
-0.000006
 12
-2.066394
 22
-2.554866
 32
-0.000006
 13
-1.475996
 23
-2.554867
 33
-0.590406
 62
4
  0
3DFACE
  8
Cylinder3
 10
-1.636955
 20
-0.450517
 30
0.751341
 11
-1.564865
 21
2.547345
 31
0.224422
 12
-1.475998
 22
4.113869
 32
0.000285
 13
-1.475998
 23
4.113869
 33
0.000285
 62
0
  0
3DFACE
  8
Cylinder3
 10
-1.475997
 20
-0.777422
 30
0.977637
 11
-1.636955
 21
-0.450517
 31
0.751341
 12
-1.475998
 22
4.113869
 32
0.000285
 13
-1.475998
 23
4.113869
 33
0.000285
 62
0
  0
3DFACE
  8
Cylinder3
 10
-1.564865
 20
2.547345
 30
0.224422
 11
-2.453604
 21
-0.777759
 31
-0.000006
 12
-1.475998
 22
4.113869
 32
0.000285
 13
-1.475998
 23
4.113869
 33
0.000285
 62
0
  0
3DFACE
  8
Cylinder3
 10
-2.139042
 20
-0.350486
 30
0.229214
 11
-2.453604
 21
-0.777759
 31
-0.000006
 12
-1.564865
 22
2.547345
 32
0.224422
 13
-1.564865
 23
2.547345
 33
0.224422
 62
0
  0
3DFACE
  8
Cylinder3
 10
-1.636955
 20
-0.450517
 30
0.751341
 11
-2.453604
 21
-0.777759
 31
-0.000006
 12
-2.139042
 22
-0.350486
 32
0.229214
 13
-2.139042
 23
-0.350486
 33
0.229214
 62
0
  0
3DFACE
  8
Cylinder3
 10
-1.475997
 20
-0.777422
 30
0.977637
 11
-2.453604
 21
-0.777759
 31
-0.000006
 12
-1.636955
 22
-0.450517
 32
0.751341
 13
-1.636955
 23
-0.450517
 33
0.751341
 62
0
  0
3DFACE
  8
Cylinder3
 10
-2.453604
 20
-0.777759
 30
-0.000006
 11
-1.475996
 21
-0.778097
 31
-0.977585
 12
-1.475998
 22
4.113869
 32
0.000285
 13
-1.475998
 23
4.113869
 33
0.000285
 62
0
  0
3DFACE
  8
Cylinder3
 10
-0.498389
 20
-0.777761
 30
-0.000006
 11
-1.475997
 21
-0.777422
 31
0.977637
 12
-1.475998
 22
4.113869
 32
0.000285
 13
-1.475998
 23
4.113869
 33
0.000285
 62
0
  0
3DFACE
  8
Cylinder3
 10
-1.475996
 20
-0.778097
 30
-0.977585
 11
-0.498389
 21
-0.777761
 31
-0.000006
 12
-1.475998
 22
4.113869
 32
0.000285
 13
-1.475998
 23
4.113869
 33
0.000285
 62
0
  0
3DFACE
  8
Cylinder3
 10
-1.564865
 20
2.547345
 30
0.224422
 11
-1.636955
 21
-0.450517
 31
0.751341
 12
-1.575649
 22
-0.462379
 32
0.686899
 13
-1.525378
 23
2.539705
 33
0.182916
 62
3
  0
3DFACE
  8
Cylinder3
 10
-1.636955
 20
-0.450517
 30
0.751341
 11
-2.139042
 21
-0.350486
 31
0.229214
 12
-2.090515
 22
-0.359877
 32
0.178205
 13
-1.575649
 23
-0.462379
 33
0.686899
 62
3
  0
3DFACE
  8
Cylinder3
 10
-1.525378
 20
2.539705
 30
0.182916
 11
-1.575649
 21
-0.462379
 31
0.686899
 12
-2.090515
 22
-0.359877
 32
0.178205
 13
-2.090515
 23
-0.359877
 33
0.178205
 62
1
  0
3DFACE
  8
Cylinder3
 10
-2.139042
 20
-0.350486
 30
0.229214
 11
-1.564865
 21
2.547345
 31
0.224422
 12
-1.525378
 22
2.539705
 32
0.182916
 13
-2.090515
 23
-0.359877
 33
0.178205
 62
3
  0
3DFACE
  8
Cube1
 10
-0.061826
 20
-2.213742
 30
-0.906503
 11
-0.061826
 21
-1.833632
 31
-0.906504
 12
-0.343089
 22
-1.833631
 32
-1.187768
 13
-0.343089
 23
-2.213742
 33
-1.187767
 62
0
  0
3DFACE
  8
Cube1
 10
-1.105515
 20
-1.833630
 30
0.137188
 11
-0.061826
 21
-1.833632
 31
-0.906504
 12
-0.061826
 22
-2.213742
 32
-0.906503
 13
-1.105515
 23
-2.213741
 33
0.137188
 62
0
  0
3DFACE
  8
Cube1
 10
-1.105515
 20
-2.213741
 30
0.137188
 11
-0.061826
 21
-2.213742
 31
-0.906503
 12
-0.343089
 22
-2.213742
 32
-1.187767
 13
-1.386778
 23
-2.213740
 33
-0.144076
 62
0
  0
3DFACE
  8
Cube1
 10
-1.386778
 20
-2.213740
 30
-0.144076
 11
-0.343089
 21
-2.213742
 31
-1.187767
 12
-0.343089
 22
-1.833631
 32
-1.187768
 13
-1.386778
 23
-1.833630
 33
-0.144076
 62
0
  0
3DFACE
  8
Cube1
 10
-1.105515
 20
-1.833630
 30
0.137188
 11
-1.105515
 21
-2.213741
 31
0.137188
 12
-1.386778
 22
-2.213740
 32
-0.144076
 13
-1.386778
 23
-1.833630
 33
-0.144076
 62
0
  0
3DFACE
  8
Cube1
 10
-0.061826
 20
-1.833632
 30
-0.906504
 11
-1.105515
 21
-1.833630
 31
0.137188
 12
-1.386778
 22
-1.833630
 32
-0.144076
 13
-0.343089
 23
-1.833631
 33
-1.187768
 62
0
  0
3DFACE
  8
Cube
 10
1.105928
 20
-2.213742
 30
0.137187
 11
1.105928
 21
-1.833631
 31
0.137187
 12
1.387191
 22
-1.833632
 32
-0.144077
 13
1.387191
 23
-2.213742
 33
-0.144077
 62
0
  0
3DFACE
  8
Cube
 10
0.062241
 20
-1.833631
 30
-0.906504
 11
1.105928
 21
-1.833631
 31
0.137187
 12
1.105928
 22
-2.213742
 32
0.137187
 13
0.062241
 23
-2.213742
 33
-0.906504
 62
0
  0
3DFACE
  8
Cube
 10
0.062241
 20
-2.213742
 30
-0.906504
 11
1.105928
 21
-2.213742
 31
0.137187
 12
1.387191
 22
-2.213742
 32
-0.144077
 13
0.343504
 23
-2.213742
 33
-1.187768
 62
0
  0
3DFACE
  8
Cube
 10
0.343504
 20
-2.213742
 30
-1.187768
 11
1.387191
 21
-2.213742
 31
-0.144077
 12
1.387191
 22
-1.833632
 32
-0.144077
 13
0.343504
 23
-1.833632
 33
-1.187768
 62
0
  0
3DFACE
  8
Cube
 10
0.062241
 20
-1.833631
 30
-0.906504
 11
0.062241
 21
-2.213742
 31
-0.906504
 12
0.343504
 22
-2.213742
 32
-1.187768
 13
0.343504
 23
-1.833632
 33
-1.187768
 62
0
  0
3DFACE
  8
Cube
 10
1.105928
 20
-1.833631
 30
0.137187
 11
0.062241
 21
-1.833631
 31
-0.906504
 12
0.343504
 22
-1.833632
 32
-1.187768
 13
1.387191
 23
-1.833632
 33
-0.144077
 62
0
  0
3DFACE
  8
Cylinder
 10
0.653135
 20
-1.482850
 30
-1.447190
 11
0.653136
 21
-2.636816
 31
-1.447188
 12
0.000001
 22
-2.992309
 32
-0.315922
 13
0.000000
 23
-1.482849
 33
-0.315923
 62
0
  0
3DFACE
  8
Cylinder
 10
-0.653134
 20
-1.482849
 30
-1.447190
 11
-0.653134
 21
-2.636815
 31
-1.447188
 12
0.653136
 22
-2.636816
 32
-1.447188
 13
0.653135
 23
-1.482850
 33
-1.447190
 62
0
  0
3DFACE
  8
Cylinder
 10
0.000000
 20
-1.482849
 30
-0.315923
 11
0.000001
 21
-2.992309
 31
-0.315922
 12
-0.653134
 22
-2.636815
 32
-1.447188
 13
-0.653134
 23
-1.482849
 33
-1.447190
 62
0
  0
3DFACE
  8
Cylinder
 10
-0.653134
 20
-1.482849
 30
-1.447190
 11
0.653135
 21
-1.482850
 31
-1.447190
 12
0.000000
 22
-1.482849
 32
-0.315923
 13
0.000000
 23
-1.482849
 33
-0.315923
 62
0
  0
3DFACE
  8
Cylinder
 10
0.000001
 20
-2.992309
 30
-0.315922
 11
0.653136
 21
-2.636816
 31
-1.447188
 12
-0.653134
 22
-2.636815
 32
-1.447188
 13
-0.653134
 23
-2.636815
 33
-1.447188
 62
0
  0
3DFACE
  8
Cylinder4
 10
-0.288534
 20
-0.993996
 30
-1.123802
 11
-0.312307
 21
-0.993996
 31
-1.004287
 12
-0.312307
 22
-1.974501
 32
-1.004287
 13
-0.288534
 23
-1.974501
 33
-1.123802
 62
0
  0
3DFACE
  8
Cylinder4
 10
-0.220834
 20
-0.993996
 30
-1.225121
 11
-0.288534
 21
-0.993996
 31
-1.123802
 12
-0.288534
 22
-1.974501
 32
-1.123802
 13
-0.220834
 23
-1.974501
 33
-1.225121
 62
0
  0
3DFACE
  8
Cylinder4
 10
-0.119515
 20
-0.993996
 30
-1.292821
 11
-0.220834
 21
-0.993996
 31
-1.225121
 12
-0.220834
 22
-1.974501
 32
-1.225121
 13
-0.119515
 23
-1.974501
 33
-1.292821
 62
0
  0
3DFACE
  8
Cylinder4
 10
0.000000
 20
-0.993996
 30
-1.316594
 11
-0.119515
 21
-0.993996
 31
-1.292821
 12
-0.119515
 22
-1.974501
 32
-1.292821
 13
0.000000
 23
-1.974501
 33
-1.316594
 62
0
  0
3DFACE
  8
Cylinder4
 10
0.119515
 20
-0.993996
 30
-1.292821
 11
0.000000
 21
-0.993996
 31
-1.316594
 12
0.000000
 22
-1.974501
 32
-1.316594
 13
0.119515
 23
-1.974501
 33
-1.292821
 62
0
  0
3DFACE
  8
Cylinder4
 10
0.220835
 20
-0.993996
 30
-1.225121
 11
0.119515
 21
-0.993996
 31
-1.292821
 12
0.119515
 22
-1.974501
 32
-1.292821
 13
0.220835
 23
-1.974501
 33
-1.225121
 62
0
  0
3DFACE
  8
Cylinder4
 10
0.288534
 20
-0.993996
 30
-1.123802
 11
0.220835
 21
-0.993996
 31
-1.225121
 12
0.220835
 22
-1.974501
 32
-1.225121
 13
0.288534
 23
-1.974501
 33
-1.123802
 62
0
  0
3DFACE
  8
Cylinder4
 10
0.312307
 20
-0.993996
 30
-1.004287
 11
0.288534
 21
-0.993996
 31
-1.123802
 12
0.288534
 22
-1.974501
 32
-1.123802
 13
0.312307
 23
-1.974501
 33
-1.004287
 62
0
  0
3DFACE
  8
Cylinder4
 10
0.288534
 20
-0.993996
 30
-0.884772
 11
0.312307
 21
-0.993996
 31
-1.004287
 12
0.312307
 22
-1.974501
 32
-1.004287
 13
0.288534
 23
-1.974501
 33
-0.884772
 62
0
  0
3DFACE
  8
Cylinder4
 10
0.220835
 20
-0.993996
 30
-0.783452
 11
0.288534
 21
-0.993996
 31
-0.884772
 12
0.288534
 22
-1.974501
 32
-0.884772
 13
0.220835
 23
-1.974501
 33
-0.783452
 62
0
  0
3DFACE
  8
Cylinder4
 10
0.119515
 20
-0.993996
 30
-0.715753
 11
0.220835
 21
-0.993996
 31
-0.783452
 12
0.220835
 22
-1.974501
 32
-0.783452
 13
0.119515
 23
-1.974501
 33
-0.715753
 62
0
  0
3DFACE
  8
Cylinder4
 10
0.000000
 20
-0.993996
 30
-0.691980
 11
0.119515
 21
-0.993996
 31
-0.715753
 12
0.119515
 22
-1.974501
 32
-0.715753
 13
0.000000
 23
-1.974501
 33
-0.691980
 62
0
  0
3DFACE
  8
Cylinder4
 10
-0.119515
 20
-0.993996
 30
-0.715753
 11
0.000000
 21
-0.993996
 31
-0.691980
 12
0.000000
 22
-1.974501
 32
-0.691980
 13
-0.119515
 23
-1.974501
 33
-0.715753
 62
0
  0
3DFACE
  8
Cylinder4
 10
-0.220834
 20
-0.993996
 30
-0.783452
 11
-0.119515
 21
-0.993996
 31
-0.715753
 12
-0.119515
 22
-1.974501
 32
-0.715753
 13
-0.220834
 23
-1.974501
 33
-0.783452
 62
0
  0
3DFACE
  8
Cylinder4
 10
-0.288534
 20
-0.993996
 30
-0.884772
 11
-0.220834
 21
-0.993996
 31
-0.783452
 12
-0.220834
 22
-1.974501
 32
-0.783452
 13
-0.288534
 23
-1.974501
 33
-0.884772
 62
0
  0
3DFACE
  8
Cylinder4
 10
-0.312307
 20
-0.993996
 30
-1.004287
 11
-0.288534
 21
-0.993996
 31
-0.884772
 12
-0.288534
 22
-1.974501
 32
-0.884772
 13
-0.312307
 23
-1.974501
 33
-1.004287
 62
0
  0
3DFACE
  8
Cylinder4
 10
-0.119515
 20
-1.974501
 30
-1.292821
 11
0.119515
 21
-1.974501
 31
-1.292821
 12
0.000000
 22
-1.974501
 32
-1.316594
 13
0.000000
 23
-1.974501
 33
-1.316594
 62
0
  0
3DFACE
  8
Cylinder4
 10
0.220835
 20
-1.974501
 30
-1.225121
 11
0.119515
 21
-1.974501
 31
-1.292821
 12
-0.119515
 22
-1.974501
 32
-1.292821
 13
-0.119515
 23
-1.974501
 33
-1.292821
 62
0
  0
3DFACE
  8
Cylinder4
 10
-0.220834
 20
-1.974501
 30
-1.225121
 11
0.220835
 21
-1.974501
 31
-1.225121
 12
-0.119515
 22
-1.974501
 32
-1.292821
 13
-0.119515
 23
-1.974501
 33
-1.292821
 62
0
  0
3DFACE
  8
Cylinder4
 10
0.288534
 20
-1.974501
 30
-1.123802
 11
0.220835
 21
-1.974501
 31
-1.225121
 12
-0.220834
 22
-1.974501
 32
-1.225121
 13
-0.220834
 23
-1.974501
 33
-1.225121
 62
0
  0
3DFACE
  8
Cylinder4
 10
-0.288534
 20
-1.974501
 30
-1.123802
 11
0.288534
 21
-1.974501
 31
-1.123802
 12
-0.220834
 22
-1.974501
 32
-1.225121
 13
-0.220834
 23
-1.974501
 33
-1.225121
 62
0
  0
3DFACE
  8
Cylinder4
 10
-0.312307
 20
-1.974501
 30
-1.004287
 11
0.288534
 21
-1.974501
 31
-1.123802
 12
-0.288534
 22
-1.974501
 32
-1.123802
 13
-0.288534
 23
-1.974501
 33
-1.123802
 62
0
  0
3DFACE
  8
Cylinder4
 10
0.312307
 20
-1.974501
 30
-1.004287
 11
0.288534
 21
-1.974501
 31
-1.123802
 12
-0.312307
 22
-1.974501
 32
-1.004287
 13
-0.312307
 23
-1.974501
 33
-1.004287
 62
0
  0
3DFACE
  8
Cylinder4
 10
0.288534
 20
-1.974501
 30
-0.884772
 11
0.312307
 21
-1.974501
 31
-1.004287
 12
-0.312307
 22
-1.974501
 32
-1.004287
 13
-0.312307
 23
-1.974501
 33
-1.004287
 62
0
  0
3DFACE
  8
Cylinder4
 10
-0.288534
 20
-1.974501
 30
-0.884772
 11
0.288534
 21
-1.974501
 31
-0.884772
 12
-0.312307
 22
-1.974501
 32
-1.004287
 13
-0.312307
 23
-1.974501
 33
-1.004287
 62
0
  0
3DFACE
  8
Cylinder4
 10
0.220835
 20
-1.974501
 30
-0.783452
 11
0.288534
 21
-1.974501
 31
-0.884772
 12
-0.288534
 22
-1.974501
 32
-0.884772
 13
-0.288534
 23
-1.974501
 33
-0.884772
 62
0
  0
3DFACE
  8
Cylinder4
 10
-0.220834
 20
-1.974501
 30
-0.783452
 11
0.220835
 21
-1.974501
 31
-0.783452
 12
-0.288534
 22
-1.974501
 32
-0.884772
 13
-0.288534
 23
-1.974501
 33
-0.884772
 62
0
  0
3DFACE
  8
Cylinder4
 10
0.119515
 20
-1.974501
 30
-0.715753
 11
0.220835
 21
-1.974501
 31
-0.783452
 12
-0.220834
 22
-1.974501
 32
-0.783452
 13
-0.220834
 23
-1.974501
 33
-0.783452
 62
0
  0
3DFACE
  8
Cylinder4
 10
-0.119515
 20
-1.974501
 30
-0.715753
 11
0.119515
 21
-1.974501
 31
-0.715753
 12
-0.220834
 22
-1.974501
 32
-0.783452
 13
-0.220834
 23
-1.974501
 33
-0.783452
 62
0
  0
3DFACE
  8
Cylinder4
 10
0.000000
 20
-1.974501
 30
-0.691980
 11
0.119515
 21
-1.974501
 31
-0.715753
 12
-0.119515
 22
-1.974501
 32
-0.715753
 13
-0.119515
 23
-1.974501
 33
-0.715753
 62
0
  0
3DFACE
  8
Cylinder4
 10
-0.076831
 20
-0.993996
 30
-1.189773
 11
-0.220834
 21
-0.993996
 31
-1.225121
 12
0.000000
 22
-0.993996
 32
-1.205056
 13
0.000000
 23
-0.993996
 33
-1.205056
 62
0
  0
3DFACE
  8
Cylinder4
 10
-0.141965
 20
-0.993996
 30
-1.146252
 11
-0.220834
 21
-0.993996
 31
-1.225121
 12
-0.076831
 22
-0.993996
 32
-1.189773
 13
-0.076831
 23
-0.993996
 33
-1.189773
 62
0
  0
3DFACE
  8
Cylinder4
 10
-0.288534
 20
-0.993996
 30
-1.123802
 11
-0.220834
 21
-0.993996
 31
-1.225121
 12
-0.141965
 22
-0.993996
 32
-1.146252
 13
-0.141965
 23
-0.993996
 33
-1.146252
 62
0
  0
3DFACE
  8
Cylinder4
 10
-0.185486
 20
-0.993996
 30
-1.081118
 11
-0.288534
 21
-0.993996
 31
-1.123802
 12
-0.141965
 22
-0.993996
 32
-1.146252
 13
-0.141965
 23
-0.993996
 33
-1.146252
 62
0
  0
3DFACE
  8
Cylinder4
 10
-0.312307
 20
-0.993996
 30
-1.004287
 11
-0.288534
 21
-0.993996
 31
-1.123802
 12
-0.185486
 22
-0.993996
 32
-1.081118
 13
-0.185486
 23
-0.993996
 33
-1.081118
 62
0
  0
3DFACE
  8
Cylinder4
 10
-0.200769
 20
-0.993996
 30
-1.004287
 11
-0.312307
 21
-0.993996
 31
-1.004287
 12
-0.185486
 22
-0.993996
 32
-1.081118
 13
-0.185486
 23
-0.993996
 33
-1.081118
 62
0
  0
3DFACE
  8
Cylinder4
 10
-0.185486
 20
-0.993996
 30
-0.927456
 11
-0.312307
 21
-0.993996
 31
-1.004287
 12
-0.200769
 22
-0.993996
 32
-1.004287
 13
-0.200769
 23
-0.993996
 33
-1.004287
 62
0
  0
3DFACE
  8
Cylinder4
 10
-0.288534
 20
-0.993996
 30
-0.884772
 11
-0.312307
 21
-0.993996
 31
-1.004287
 12
-0.185486
 22
-0.993996
 32
-0.927456
 13
-0.185486
 23
-0.993996
 33
-0.927456
 62
0
  0
3DFACE
  8
Cylinder4
 10
-0.141965
 20
-0.993996
 30
-0.862322
 11
-0.288534
 21
-0.993996
 31
-0.884772
 12
-0.185486
 22
-0.993996
 32
-0.927456
 13
-0.185486
 23
-0.993996
 33
-0.927456
 62
0
  0
3DFACE
  8
Cylinder4
 10
-0.076831
 20
-0.993996
 30
-0.818801
 11
-0.288534
 21
-0.993996
 31
-0.884772
 12
-0.141965
 22
-0.993996
 32
-0.862322
 13
-0.141965
 23
-0.993996
 33
-0.862322
 62
0
  0
3DFACE
  8
Cylinder4
 10
-0.220834
 20
-0.993996
 30
-0.783452
 11
-0.288534
 21
-0.993996
 31
-0.884772
 12
-0.076831
 22
-0.993996
 32
-0.818801
 13
-0.076831
 23
-0.993996
 33
-0.818801
 62
0
  0
3DFACE
  8
Cylinder4
 10
-0.220834
 20
-0.993996
 30
-0.783452
 11
-0.076831
 21
-0.993996
 31
-0.818801
 12
0.000000
 22
-0.993996
 32
-0.803518
 13
0.000000
 23
-0.993996
 33
-0.803518
 62
0
  0
3DFACE
  8
Cylinder4
 10
0.220835
 20
-0.993996
 30
-0.783452
 11
-0.220834
 21
-0.993996
 31
-0.783452
 12
0.000000
 22
-0.993996
 32
-0.803518
 13
0.000000
 23
-0.993996
 33
-0.803518
 62
0
  0
3DFACE
  8
Cylinder4
 10
-0.119515
 20
-0.993996
 30
-0.715753
 11
-0.220834
 21
-0.993996
 31
-0.783452
 12
0.220835
 22
-0.993996
 32
-0.783452
 13
0.220835
 23
-0.993996
 33
-0.783452
 62
0
  0
3DFACE
  8
Cylinder4
 10
0.119515
 20
-0.993996
 30
-0.715753
 11
-0.119515
 21
-0.993996
 31
-0.715753
 12
0.220835
 22
-0.993996
 32
-0.783452
 13
0.220835
 23
-0.993996
 33
-0.783452
 62
0
  0
3DFACE
  8
Cylinder4
 10
0.000000
 20
-0.993996
 30
-0.691980
 11
-0.119515
 21
-0.993996
 31
-0.715753
 12
0.119515
 22
-0.993996
 32
-0.715753
 13
0.119515
 23
-0.993996
 33
-0.715753
 62
0
  0
3DFACE
  8
Cylinder4
 10
0.119515
 20
-0.993996
 30
-1.292821
 11
-0.119515
 21
-0.993996
 31
-1.292821
 12
0.000000
 22
-0.993996
 32
-1.316594
 13
0.000000
 23
-0.993996
 33
-1.316594
 62
0
  0
3DFACE
  8
Cylinder4
 10
-0.220834
 20
-0.993996
 30
-1.225121
 11
-0.119515
 21
-0.993996
 31
-1.292821
 12
0.119515
 22
-0.993996
 32
-1.292821
 13
0.119515
 23
-0.993996
 33
-1.292821
 62
0
  0
3DFACE
  8
Cylinder4
 10
0.220835
 20
-0.993996
 30
-1.225121
 11
-0.220834
 21
-0.993996
 31
-1.225121
 12
0.119515
 22
-0.993996
 32
-1.292821
 13
0.119515
 23
-0.993996
 33
-1.292821
 62
0
  0
3DFACE
  8
Cylinder4
 10
0.000000
 20
-0.993996
 30
-1.205056
 11
-0.220834
 21
-0.993996
 31
-1.225121
 12
0.220835
 22
-0.993996
 32
-1.225121
 13
0.220835
 23
-0.993996
 33
-1.225121
 62
0
  0
3DFACE
  8
Cylinder4
 10
0.076831
 20
-0.993996
 30
-1.189773
 11
0.000000
 21
-0.993996
 31
-1.205056
 12
0.220835
 22
-0.993996
 32
-1.225121
 13
0.220835
 23
-0.993996
 33
-1.225121
 62
0
  0
3DFACE
  8
Cylinder4
 10
0.141965
 20
-0.993996
 30
-1.146252
 11
0.076831
 21
-0.993996
 31
-1.189773
 12
0.220835
 22
-0.993996
 32
-1.225121
 13
0.220835
 23
-0.993996
 33
-1.225121
 62
0
  0
3DFACE
  8
Cylinder4
 10
0.288534
 20
-0.993996
 30
-1.123802
 11
0.141965
 21
-0.993996
 31
-1.146252
 12
0.220835
 22
-0.993996
 32
-1.225121
 13
0.220835
 23
-0.993996
 33
-1.225121
 62
0
  0
3DFACE
  8
Cylinder4
 10
0.185486
 20
-0.993996
 30
-1.081118
 11
0.141965
 21
-0.993996
 31
-1.146252
 12
0.288534
 22
-0.993996
 32
-1.123802
 13
0.288534
 23
-0.993996
 33
-1.123802
 62
0
  0
3DFACE
  8
Cylinder4
 10
0.200769
 20
-0.993996
 30
-1.004287
 11
0.185486
 21
-0.993996
 31
-1.081118
 12
0.288534
 22
-0.993996
 32
-1.123802
 13
0.288534
 23
-0.993996
 33
-1.123802
 62
0
  0
3DFACE
  8
Cylinder4
 10
0.312307
 20
-0.993996
 30
-1.004287
 11
0.200769
 21
-0.993996
 31
-1.004287
 12
0.288534
 22
-0.993996
 32
-1.123802
 13
0.288534
 23
-0.993996
 33
-1.123802
 62
0
  0
3DFACE
  8
Cylinder4
 10
0.185486
 20
-0.993996
 30
-0.927456
 11
0.200769
 21
-0.993996
 31
-1.004287
 12
0.312307
 22
-0.993996
 32
-1.004287
 13
0.312307
 23
-0.993996
 33
-1.004287
 62
0
  0
3DFACE
  8
Cylinder4
 10
0.288534
 20
-0.993996
 30
-0.884772
 11
0.185486
 21
-0.993996
 31
-0.927456
 12
0.312307
 22
-0.993996
 32
-1.004287
 13
0.312307
 23
-0.993996
 33
-1.004287
 62
0
  0
3DFACE
  8
Cylinder4
 10
0.141965
 20
-0.993996
 30
-0.862322
 11
0.185486
 21
-0.993996
 31
-0.927456
 12
0.288534
 22
-0.993996
 32
-0.884772
 13
0.288534
 23
-0.993996
 33
-0.884772
 62
0
  0
3DFACE
  8
Cylinder4
 10
0.076831
 20
-0.993996
 30
-0.818801
 11
0.141965
 21
-0.993996
 31
-0.862322
 12
0.288534
 22
-0.993996
 32
-0.884772
 13
0.288534
 23
-0.993996
 33
-0.884772
 62
0
  0
3DFACE
  8
Cylinder4
 10
0.220835
 20
-0.993996
 30
-0.783452
 11
0.076831
 21
-0.993996
 31
-0.818801
 12
0.288534
 22
-0.993996
 32
-0.884772
 13
0.288534
 23
-0.993996
 33
-0.884772
 62
0
  0
3DFACE
  8
Cylinder4
 10
0.220835
 20
-0.993996
 30
-0.783452
 11
0.000000
 21
-0.993996
 31
-0.803518
 12
0.076831
 22
-0.993996
 32
-0.818801
 13
0.076831
 23
-0.993996
 33
-0.818801
 62
0
  0
3DFACE
  8
Cylinder4
 10
0.185485
 20
-1.466871
 30
-0.927455
 11
0.200768
 21
-1.466871
 31
-1.004287
 12
0.200769
 22
-0.993996
 32
-1.004287
 13
0.185486
 23
-0.993996
 33
-0.927456
 62
1
  0
3DFACE
  8
Cylinder4
 10
0.141965
 20
-1.466871
 30
-0.862321
 11
0.185485
 21
-1.466871
 31
-0.927455
 12
0.185486
 22
-0.993996
 32
-0.927456
 13
0.141965
 23
-0.993996
 33
-0.862322
 62
1
  0
3DFACE
  8
Cylinder4
 10
0.076831
 20
-1.466871
 30
-0.818800
 11
0.141965
 21
-1.466871
 31
-0.862321
 12
0.141965
 22
-0.993996
 32
-0.862322
 13
0.076831
 23
-0.993996
 33
-0.818801
 62
1
  0
3DFACE
  8
Cylinder4
 10
0.000000
 20
-1.466871
 30
-0.803517
 11
0.076831
 21
-1.466871
 31
-0.818800
 12
0.076831
 22
-0.993996
 32
-0.818801
 13
0.000000
 23
-0.993996
 33
-0.803518
 62
1
  0
3DFACE
  8
Cylinder4
 10
-0.076830
 20
-1.466871
 30
-0.818800
 11
0.000000
 21
-1.466871
 31
-0.803517
 12
0.000000
 22
-0.993996
 32
-0.803518
 13
-0.076831
 23
-0.993996
 33
-0.818801
 62
1
  0
3DFACE
  8
Cylinder4
 10
-0.141964
 20
-1.466871
 30
-0.862321
 11
-0.076830
 21
-1.466871
 31
-0.818800
 12
-0.076831
 22
-0.993996
 32
-0.818801
 13
-0.141965
 23
-0.993996
 33
-0.862322
 62
1
  0
3DFACE
  8
Cylinder4
 10
-0.185485
 20
-1.466871
 30
-0.927455
 11
-0.141964
 21
-1.466871
 31
-0.862321
 12
-0.141965
 22
-0.993996
 32
-0.862322
 13
-0.185486
 23
-0.993996
 33
-0.927456
 62
1
  0
3DFACE
  8
Cylinder4
 10
-0.200768
 20
-1.466871
 30
-1.004287
 11
-0.185485
 21
-1.466871
 31
-0.927455
 12
-0.185486
 22
-0.993996
 32
-0.927456
 13
-0.200769
 23
-0.993996
 33
-1.004287
 62
1
  0
3DFACE
  8
Cylinder4
 10
0.076831
 20
-1.466871
 30
-1.189774
 11
-0.076830
 21
-1.466871
 31
-1.189774
 12
0.000000
 22
-1.466871
 32
-1.205056
 13
0.000000
 23
-1.466871
 33
-1.205056
 62
1
  0
3DFACE
  8
Cylinder4
 10
-0.141964
 20
-1.466871
 30
-1.146253
 11
-0.076830
 21
-1.466871
 31
-1.189774
 12
0.076831
 22
-1.466871
 32
-1.189774
 13
0.076831
 23
-1.466871
 33
-1.189774
 62
1
  0
3DFACE
  8
Cylinder4
 10
0.141965
 20
-1.466871
 30
-1.146253
 11
-0.141964
 21
-1.466871
 31
-1.146253
 12
0.076831
 22
-1.466871
 32
-1.189774
 13
0.076831
 23
-1.466871
 33
-1.189774
 62
1
  0
3DFACE
  8
Cylinder4
 10
-0.185485
 20
-1.466871
 30
-1.081118
 11
-0.141964
 21
-1.466871
 31
-1.146253
 12
0.141965
 22
-1.466871
 32
-1.146253
 13
0.141965
 23
-1.466871
 33
-1.146253
 62
1
  0
3DFACE
  8
Cylinder4
 10
0.185485
 20
-1.466871
 30
-1.081118
 11
-0.185485
 21
-1.466871
 31
-1.081118
 12
0.141965
 22
-1.466871
 32
-1.146253
 13
0.141965
 23
-1.466871
 33
-1.146253
 62
1
  0
3DFACE
  8
Cylinder4
 10
-0.200768
 20
-1.466871
 30
-1.004287
 11
-0.185485
 21
-1.466871
 31
-1.081118
 12
0.185485
 22
-1.466871
 32
-1.081118
 13
0.185485
 23
-1.466871
 33
-1.081118
 62
1
  0
3DFACE
  8
Cylinder4
 10
0.200768
 20
-1.466871
 30
-1.004287
 11
-0.200768
 21
-1.466871
 31
-1.004287
 12
0.185485
 22
-1.466871
 32
-1.081118
 13
0.185485
 23
-1.466871
 33
-1.081118
 62
1
  0
3DFACE
  8
Cylinder4
 10
-0.185485
 20
-1.466871
 30
-0.927455
 11
-0.200768
 21
-1.466871
 31
-1.004287
 12
0.200768
 22
-1.466871
 32
-1.004287
 13
0.200768
 23
-1.466871
 33
-1.004287
 62
1
  0
3DFACE
  8
Cylinder4
 10
0.185485
 20
-1.466871
 30
-0.927455
 11
-0.185485
 21
-1.466871
 31
-0.927455
 12
0.200768
 22
-1.466871
 32
-1.004287
 13
0.200768
 23
-1.466871
 33
-1.004287
 62
1
  0
3DFACE
  8
Cylinder4
 10
-0.141964
 20
-1.466871
 30
-0.862321
 11
-0.185485
 21
-1.466871
 31
-0.927455
 12
0.185485
 22
-1.466871
 32
-0.927455
 13
0.185485
 23
-1.466871
 33
-0.927455
 62
1
  0
3DFACE
  8
Cylinder4
 10
0.141965
 20
-1.466871
 30
-0.862321
 11
-0.141964
 21
-1.466871
 31
-0.862321
 12
0.185485
 22
-1.466871
 32
-0.927455
 13
0.185485
 23
-1.466871
 33
-0.927455
 62
1
  0
3DFACE
  8
Cylinder4
 10
-0.076830
 20
-1.466871
 30
-0.818800
 11
-0.141964
 21
-1.466871
 31
-0.862321
 12
0.141965
 22
-1.466871
 32
-0.862321
 13
0.141965
 23
-1.466871
 33
-0.862321
 62
1
  0
3DFACE
  8
Cylinder4
 10
0.076831
 20
-1.466871
 30
-0.818800
 11
-0.076830
 21
-1.466871
 31
-0.818800
 12
0.141965
 22
-1.466871
 32
-0.862321
 13
0.141965
 23
-1.466871
 33
-0.862321
 62
1
  0
3DFACE
  8
Cylinder4
 10
0.000000
 20
-1.466871
 30
-0.803517
 11
-0.076830
 21
-1.466871
 31
-0.818800
 12
0.076831
 22
-1.466871
 32
-0.818800
 13
0.076831
 23
-1.466871
 33
-0.818800
 62
1
  0
3DFACE
  8
Cylinder4
 10
0.185485
 20
-1.466871
 30
-1.081118
 11
0.141965
 21
-1.466871
 31
-1.146253
 12
0.141965
 22
-0.993996
 32
-1.146252
 13
0.185486
 23
-0.993996
 33
-1.081118
 62
1
  0
3DFACE
  8
Cylinder4
 10
0.200768
 20
-1.466871
 30
-1.004287
 11
0.185485
 21
-1.466871
 31
-1.081118
 12
0.185486
 22
-0.993996
 32
-1.081118
 13
0.200769
 23
-0.993996
 33
-1.004287
 62
1
  0
3DFACE
  8
Cylinder4
 10
0.141965
 20
-1.466871
 30
-1.146253
 11
0.076831
 21
-1.466871
 31
-1.189774
 12
0.076831
 22
-0.993996
 32
-1.189773
 13
0.141965
 23
-0.993996
 33
-1.146252
 62
1
  0
3DFACE
  8
Cylinder4
 10
0.076831
 20
-1.466871
 30
-1.189774
 11
0.000000
 21
-1.466871
 31
-1.205056
 12
0.000000
 22
-0.993996
 32
-1.205056
 13
0.076831
 23
-0.993996
 33
-1.189773
 62
1
  0
3DFACE
  8
Cylinder4
 10
0.000000
 20
-1.466871
 30
-1.205056
 11
-0.076830
 21
-1.466871
 31
-1.189774
 12
-0.076831
 22
-0.993996
 32
-1.189773
 13
0.000000
 23
-0.993996
 33
-1.205056
 62
1
  0
3DFACE
  8
Cylinder4
 10
-0.076830
 20
-1.466871
 30
-1.189774
 11
-0.141964
 21
-1.466871
 31
-1.146253
 12
-0.141965
 22
-0.993996
 32
-1.146252
 13
-0.076831
 23
-0.993996
 33
-1.189773
 62
1
  0
3DFACE
  8
Cylinder4
 10
-0.141964
 20
-1.466871
 30
-1.146253
 11
-0.185485
 21
-1.466871
 31
-1.081118
 12
-0.185486
 22
-0.993996
 32
-1.081118
 13
-0.141965
 23
-0.993996
 33
-1.146252
 62
1
  0
3DFACE
  8
Cylinder4
 10
-0.185485
 20
-1.466871
 30
-1.081118
 11
-0.200768
 21
-1.466871
 31
-1.004287
 12
-0.200769
 22
-0.993996
 32
-1.004287
 13
-0.185486
 23
-0.993996
 33
-1.081118
 62
1
  0
3DFACE
  8
Cube1001
 10
0.062240
 20
-2.213742
 30
0.987349
 11
0.062240
 21
-1.833632
 31
0.987348
 12
0.343503
 22
-1.833632
 32
1.268612
 13
0.343503
 23
-2.213742
 33
1.268612
 62
0
  0
3DFACE
  8
Cube1001
 10
1.105928
 20
-1.833633
 30
-0.056342
 11
0.062240
 21
-1.833632
 31
0.987348
 12
0.062240
 22
-2.213742
 32
0.987349
 13
1.105929
 23
-2.213743
 33
-0.056342
 62
0
  0
3DFACE
  8
Cube1001
 10
1.105929
 20
-2.213743
 30
-0.056342
 11
0.062240
 21
-2.213742
 31
0.987349
 12
0.343503
 22
-2.213742
 32
1.268612
 13
1.387191
 23
-2.213743
 33
0.224922
 62
0
  0
3DFACE
  8
Cube1001
 10
1.387191
 20
-2.213743
 30
0.224922
 11
0.343503
 21
-2.213742
 31
1.268612
 12
0.343503
 22
-1.833632
 32
1.268612
 13
1.387191
 23
-1.833633
 33
0.224921
 62
0
  0
3DFACE
  8
Cube1001
 10
1.105928
 20
-1.833633
 30
-0.056342
 11
1.105929
 21
-2.213743
 31
-0.056342
 12
1.387191
 22
-2.213743
 32
0.224922
 13
1.387191
 23
-1.833633
 33
0.224921
 62
0
  0
3DFACE
  8
Cube1001
 10
0.062240
 20
-1.833632
 30
0.987348
 11
1.105928
 21
-1.833633
 31
-0.056342
 12
1.387191
 22
-1.833633
 32
0.224921
 13
0.343503
 23
-1.833632
 33
1.268612
 62
0
  0
3DFACE
  8
Cube001
 10
-1.105514
 20
-2.213739
 30
-0.056342
 11
-1.105515
 21
-1.833629
 31
-0.056343
 12
-1.386777
 22
-1.833629
 32
0.224921
 13
-1.386777
 23
-2.213739
 33
0.224921
 62
0
  0
3DFACE
  8
Cube001
 10
-0.061828
 20
-1.833629
 30
0.987348
 11
-1.105515
 21
-1.833629
 31
-0.056343
 12
-1.105514
 22
-2.213739
 32
-0.056342
 13
-0.061828
 23
-2.213739
 33
0.987348
 62
0
  0
3DFACE
  8
Cube001
 10
-0.061828
 20
-2.213739
 30
0.987348
 11
-1.105514
 21
-2.213739
 31
-0.056342
 12
-1.386777
 22
-2.213739
 32
0.224921
 13
-0.343090
 23
-2.213739
 33
1.268612
 62
0
  0
3DFACE
  8
Cube001
 10
-0.343090
 20
-2.213739
 30
1.268612
 11
-1.386777
 21
-2.213739
 31
0.224921
 12
-1.386777
 22
-1.833629
 32
0.224921
 13
-0.343091
 23
-1.833629
 33
1.268611
 62
0
  0
3DFACE
  8
Cube001
 10
-0.061828
 20
-1.833629
 30
0.987348
 11
-0.061828
 21
-2.213739
 31
0.987348
 12
-0.343090
 22
-2.213739
 32
1.268612
 13
-0.343091
 23
-1.833629
 33
1.268611
 62
0
  0
3DFACE
  8
Cube001
 10
-1.105515
 20
-1.833629
 30
-0.056343
 11
-0.061828
 21
-1.833629
 31
0.987348
 12
-0.343091
 22
-1.833629
 32
1.268611
 13
-1.386777
 23
-1.833629
 33
0.224921
 62
0
  0
3DFACE
  8
Cylinder001
 10
-0.653122
 20
-1.482839
 30
1.447181
 11
-0.653131
 21
-2.642519
 31
1.447192
 12
0.000001
 22
-2.992313
 32
0.315918
 13
0.000000
 23
-1.482846
 33
0.315919
 62
0
  0
3DFACE
  8
Cylinder001
 10
0.653135
 20
-1.482846
 30
1.447186
 11
0.653145
 21
-2.642515
 31
1.447197
 12
-0.653131
 22
-2.642519
 32
1.447192
 13
-0.653122
 23
-1.482839
 33
1.447181
 62
0
  0
3DFACE
  8
Cylinder001
 10
0.000000
 20
-1.482846
 30
0.315919
 11
0.000001
 21
-2.992313
 31
0.315918
 12
0.653145
 22
-2.642515
 32
1.447197
 13
0.653135
 23
-1.482846
 33
1.447186
 62
0
  0
3DFACE
  8
Cylinder001
 10
0.653135
 20
-1.482846
 30
1.447186
 11
-0.653122
 21
-1.482839
 31
1.447181
 12
0.000000
 22
-1.482846
 32
0.315919
 13
0.000000
 23
-1.482846
 33
0.315919
 62
0
  0
3DFACE
  8
Cylinder001
 10
0.000001
 20
-2.992313
 30
0.315918
 11
-0.653131
 21
-2.642519
 31
1.447192
 12
0.653145
 22
-2.642515
 32
1.447197
 13
0.653145
 23
-2.642515
 33
1.447197
 62
0
  0
3DFACE
  8
Cylinder4001
 10
-0.288534
 20
-0.993996
 30
0.884762
 11
-0.312307
 21
-0.993996
 31
1.004277
 12
-0.312307
 22
-1.974501
 32
1.004277
 13
-0.288534
 23
-1.974501
 33
0.884762
 62
0
  0
3DFACE
  8
Cylinder4001
 10
-0.220834
 20
-0.993996
 30
0.783442
 11
-0.288534
 21
-0.993996
 31
0.884762
 12
-0.288534
 22
-1.974501
 32
0.884762
 13
-0.220834
 23
-1.974501
 33
0.783442
 62
0
  0
3DFACE
  8
Cylinder4001
 10
-0.119515
 20
-0.993996
 30
0.715742
 11
-0.220834
 21
-0.993996
 31
0.783442
 12
-0.220834
 22
-1.974501
 32
0.783442
 13
-0.119515
 23
-1.974501
 33
0.715742
 62
0
  0
3DFACE
  8
Cylinder4001
 10
0.000000
 20
-0.993996
 30
0.691969
 11
-0.119515
 21
-0.993996
 31
0.715742
 12
-0.119515
 22
-1.974501
 32
0.715742
 13
0.000000
 23
-1.974501
 33
0.691969
 62
0
  0
3DFACE
  8
Cylinder4001
 10
0.119515
 20
-0.993996
 30
0.715742
 11
0.000000
 21
-0.993996
 31
0.691969
 12
0.000000
 22
-1.974501
 32
0.691969
 13
0.119515
 23
-1.974501
 33
0.715742
 62
0
  0
3DFACE
  8
Cylinder4001
 10
0.220835
 20
-0.993996
 30
0.783442
 11
0.119515
 21
-0.993996
 31
0.715742
 12
0.119515
 22
-1.974501
 32
0.715742
 13
0.220835
 23
-1.974501
 33
0.783442
 62
0
  0
3DFACE
  8
Cylinder4001
 10
0.288534
 20
-0.993996
 30
0.884762
 11
0.220835
 21
-0.993996
 31
0.783442
 12
0.220835
 22
-1.974501
 32
0.783442
 13
0.288534
 23
-1.974501
 33
0.884762
 62
0
  0
3DFACE
  8
Cylinder4001
 10
0.312307
 20
-0.993996
 30
1.004277
 11
0.288534
 21
-0.993996
 31
0.884762
 12
0.288534
 22
-1.974501
 32
0.884762
 13
0.312307
 23
-1.974501
 33
1.004277
 62
0
  0
3DFACE
  8
Cylinder4001
 10
0.288534
 20
-0.993996
 30
1.123791
 11
0.312307
 21
-0.993996
 31
1.004277
 12
0.312307
 22
-1.974501
 32
1.004277
 13
0.288534
 23
-1.974501
 33
1.123791
 62
0
  0
3DFACE
  8
Cylinder4001
 10
0.220835
 20
-0.993996
 30
1.225111
 11
0.288534
 21
-0.993996
 31
1.123791
 12
0.288534
 22
-1.974501
 32
1.123791
 13
0.220835
 23
-1.974501
 33
1.225111
 62
0
  0
3DFACE
  8
Cylinder4001
 10
0.119515
 20
-0.993996
 30
1.292811
 11
0.220835
 21
-0.993996
 31
1.225111
 12
0.220835
 22
-1.974501
 32
1.225111
 13
0.119515
 23
-1.974501
 33
1.292811
 62
0
  0
3DFACE
  8
Cylinder4001
 10
0.000000
 20
-0.993996
 30
1.316584
 11
0.119515
 21
-0.993996
 31
1.292811
 12
0.119515
 22
-1.974501
 32
1.292811
 13
0.000000
 23
-1.974501
 33
1.316584
 62
0
  0
3DFACE
  8
Cylinder4001
 10
-0.119515
 20
-0.993996
 30
1.292811
 11
0.000000
 21
-0.993996
 31
1.316584
 12
0.000000
 22
-1.974501
 32
1.316584
 13
-0.119515
 23
-1.974501
 33
1.292811
 62
0
  0
3DFACE
  8
Cylinder4001
 10
-0.220834
 20
-0.993996
 30
1.225111
 11
-0.119515
 21
-0.993996
 31
1.292811
 12
-0.119515
 22
-1.974501
 32
1.292811
 13
-0.220834
 23
-1.974501
 33
1.225111
 62
0
  0
3DFACE
  8
Cylinder4001
 10
-0.288534
 20
-0.993996
 30
1.123791
 11
-0.220834
 21
-0.993996
 31
1.225111
 12
-0.220834
 22
-1.974501
 32
1.225111
 13
-0.288534
 23
-1.974501
 33
1.123791
 62
0
  0
3DFACE
  8
Cylinder4001
 10
-0.312307
 20
-0.993996
 30
1.004277
 11
-0.288534
 21
-0.993996
 31
1.123791
 12
-0.288534
 22
-1.974501
 32
1.123791
 13
-0.312307
 23
-1.974501
 33
1.004277
 62
0
  0
3DFACE
  8
Cylinder4001
 10
-0.119515
 20
-1.974501
 30
0.715742
 11
0.119515
 21
-1.974501
 31
0.715742
 12
0.000000
 22
-1.974501
 32
0.691969
 13
0.000000
 23
-1.974501
 33
0.691969
 62
0
  0
3DFACE
  8
Cylinder4001
 10
0.220835
 20
-1.974501
 30
0.783442
 11
0.119515
 21
-1.974501
 31
0.715742
 12
-0.119515
 22
-1.974501
 32
0.715742
 13
-0.119515
 23
-1.974501
 33
0.715742
 62
0
  0
3DFACE
  8
Cylinder4001
 10
-0.220834
 20
-1.974501
 30
0.783442
 11
0.220835
 21
-1.974501
 31
0.783442
 12
-0.119515
 22
-1.974501
 32
0.715742
 13
-0.119515
 23
-1.974501
 33
0.715742
 62
0
  0
3DFACE
  8
Cylinder4001
 10
0.288534
 20
-1.974501
 30
0.884762
 11
0.220835
 21
-1.974501
 31
0.783442
 12
-0.220834
 22
-1.974501
 32
0.783442
 13
-0.220834
 23
-1.974501
 33
0.783442
 62
0
  0
3DFACE
  8
Cylinder4001
 10
-0.288534
 20
-1.974501
 30
0.884762
 11
0.288534
 21
-1.974501
 31
0.884762
 12
-0.220834
 22
-1.974501
 32
0.783442
 13
-0.220834
 23
-1.974501
 33
0.783442
 62
0
  0
3DFACE
  8
Cylinder4001
 10
-0.312307
 20
-1.974501
 30
1.004277
 11
0.288534
 21
-1.974501
 31
0.884762
 12
-0.288534
 22
-1.974501
 32
0.884762
 13
-0.288534
 23
-1.974501
 33
0.884762
 62
0
  0
3DFACE
  8
Cylinder4001
 10
0.312307
 20
-1.974501
 30
1.004277
 11
0.288534
 21
-1.974501
 31
0.884762
 12
-0.312307
 22
-1.974501
 32
1.004277
 13
-0.312307
 23
-1.974501
 33
1.004277
 62
0
  0
3DFACE
  8
Cylinder4001
 10
0.288534
 20
-1.974501
 30
1.123791
 11
0.312307
 21
-1.974501
 31
1.004277
 12
-0.312307
 22
-1.974501
 32
1.004277
 13
-0.312307
 23
-1.974501
 33
1.004277
 62
0
  0
3DFACE
  8
Cylinder4001
 10
-0.288534
 20
-1.974501
 30
1.123791
 11
0.288534
 21
-1.974501
 31
1.123791
 12
-0.312307
 22
-1.974501
 32
1.004277
 13
-0.312307
 23
-1.974501
 33
1.004277
 62
0
  0
3DFACE
  8
Cylinder4001
 10
0.220835
 20
-1.974501
 30
1.225111
 11
0.288534
 21
-1.974501
 31
1.123791
 12
-0.288534
 22
-1.974501
 32
1.123791
 13
-0.288534
 23
-1.974501
 33
1.123791
 62
0
  0
3DFACE
  8
Cylinder4001
 10
-0.220834
 20
-1.974501
 30
1.225111
 11
0.220835
 21
-1.974501
 31
1.225111
 12
-0.288534
 22
-1.974501
 32
1.123791
 13
-0.288534
 23
-1.974501
 33
1.123791
 62
0
  0
3DFACE
  8
Cylinder4001
 10
0.119515
 20
-1.974501
 30
1.292811
 11
0.220835
 21
-1.974501
 31
1.225111
 12
-0.220834
 22
-1.974501
 32
1.225111
 13
-0.220834
 23
-1.974501
 33
1.225111
 62
0
  0
3DFACE
  8
Cylinder4001
 10
-0.119515
 20
-1.974501
 30
1.292811
 11
0.119515
 21
-1.974501
 31
1.292811
 12
-0.220834
 22
-1.974501
 32
1.225111
 13
-0.220834
 23
-1.974501
 33
1.225111
 62
0
  0
3DFACE
  8
Cylinder4001
 10
0.000000
 20
-1.974501
 30
1.316584
 11
0.119515
 21
-1.974501
 31
1.292811
 12
-0.119515
 22
-1.974501
 32
1.292811
 13
-0.119515
 23
-1.974501
 33
1.292811
 62
0
  0
3DFACE
  8
Cylinder4001
 10
-0.076831
 20
-0.993996
 30
0.818790
 11
-0.220834
 21
-0.993996
 31
0.783442
 12
0.000000
 22
-0.993996
 32
0.803508
 13
0.000000
 23
-0.993996
 33
0.803508
 62
0
  0
3DFACE
  8
Cylinder4001
 10
-0.141965
 20
-0.993996
 30
0.862311
 11
-0.220834
 21
-0.993996
 31
0.783442
 12
-0.076831
 22
-0.993996
 32
0.818790
 13
-0.076831
 23
-0.993996
 33
0.818790
 62
0
  0
3DFACE
  8
Cylinder4001
 10
-0.288534
 20
-0.993996
 30
0.884762
 11
-0.220834
 21
-0.993996
 31
0.783442
 12
-0.141965
 22
-0.993996
 32
0.862311
 13
-0.141965
 23
-0.993996
 33
0.862311
 62
0
  0
3DFACE
  8
Cylinder4001
 10
-0.185486
 20
-0.993996
 30
0.927446
 11
-0.288534
 21
-0.993996
 31
0.884762
 12
-0.141965
 22
-0.993996
 32
0.862311
 13
-0.141965
 23
-0.993996
 33
0.862311
 62
0
  0
3DFACE
  8
Cylinder4001
 10
-0.312307
 20
-0.993996
 30
1.004277
 11
-0.288534
 21
-0.993996
 31
0.884762
 12
-0.185486
 22
-0.993996
 32
0.927446
 13
-0.185486
 23
-0.993996
 33
0.927446
 62
0
  0
3DFACE
  8
Cylinder4001
 10
-0.200769
 20
-0.993996
 30
1.004277
 11
-0.312307
 21
-0.993996
 31
1.004277
 12
-0.185486
 22
-0.993996
 32
0.927446
 13
-0.185486
 23
-0.993996
 33
0.927446
 62
0
  0
3DFACE
  8
Cylinder4001
 10
-0.185486
 20
-0.993996
 30
1.081107
 11
-0.312307
 21
-0.993996
 31
1.004277
 12
-0.200769
 22
-0.993996
 32
1.004277
 13
-0.200769
 23
-0.993996
 33
1.004277
 62
0
  0
3DFACE
  8
Cylinder4001
 10
-0.288534
 20
-0.993996
 30
1.123791
 11
-0.312307
 21
-0.993996
 31
1.004277
 12
-0.185486
 22
-0.993996
 32
1.081107
 13
-0.185486
 23
-0.993996
 33
1.081107
 62
0
  0
3DFACE
  8
Cylinder4001
 10
-0.141965
 20
-0.993996
 30
1.146242
 11
-0.288534
 21
-0.993996
 31
1.123791
 12
-0.185486
 22
-0.993996
 32
1.081107
 13
-0.185486
 23
-0.993996
 33
1.081107
 62
0
  0
3DFACE
  8
Cylinder4001
 10
-0.076831
 20
-0.993996
 30
1.189763
 11
-0.288534
 21
-0.993996
 31
1.123791
 12
-0.141965
 22
-0.993996
 32
1.146242
 13
-0.141965
 23
-0.993996
 33
1.146242
 62
0
  0
3DFACE
  8
Cylinder4001
 10
-0.220834
 20
-0.993996
 30
1.225111
 11
-0.288534
 21
-0.993996
 31
1.123791
 12
-0.076831
 22
-0.993996
 32
1.189763
 13
-0.076831
 23
-0.993996
 33
1.189763
 62
0
  0
3DFACE
  8
Cylinder4001
 10
-0.220834
 20
-0.993996
 30
1.225111
 11
-0.076831
 21
-0.993996
 31
1.189763
 12
0.000000
 22
-0.993996
 32
1.205046
 13
0.000000
 23
-0.993996
 33
1.205046
 62
0
  0
3DFACE
  8
Cylinder4001
 10
0.220835
 20
-0.993996
 30
1.225111
 11
-0.220834
 21
-0.993996
 31
1.225111
 12
0.000000
 22
-0.993996
 32
1.205046
 13
0.000000
 23
-0.993996
 33
1.205046
 62
0
  0
3DFACE
  8
Cylinder4001
 10
-0.119515
 20
-0.993996
 30
1.292811
 11
-0.220834
 21
-0.993996
 31
1.225111
 12
0.220835
 22
-0.993996
 32
1.225111
 13
0.220835
 23
-0.993996
 33
1.225111
 62
0
  0
3DFACE
  8
Cylinder4001
 10
0.119515
 20
-0.993996
 30
1.292811
 11
-0.119515
 21
-0.993996
 31
1.292811
 12
0.220835
 22
-0.993996
 32
1.225111
 13
0.220835
 23
-0.993996
 33
1.225111
 62
0
  0
3DFACE
  8
Cylinder4001
 10
0.000000
 20
-0.993996
 30
1.316584
 11
-0.119515
 21
-0.993996
 31
1.292811
 12
0.119515
 22
-0.993996
 32
1.292811
 13
0.119515
 23
-0.993996
 33
1.292811
 62
0
  0
3DFACE
  8
Cylinder4001
 10
0.119515
 20
-0.993996
 30
0.715742
 11
-0.119515
 21
-0.993996
 31
0.715742
 12
0.000000
 22
-0.993996
 32
0.691969
 13
0.000000
 23
-0.993996
 33
0.691969
 62
0
  0
3DFACE
  8
Cylinder4001
 10
-0.220834
 20
-0.993996
 30
0.783442
 11
-0.119515
 21
-0.993996
 31
0.715742
 12
0.119515
 22
-0.993996
 32
0.715742
 13
0.119515
 23
-0.993996
 33
0.715742
 62
0
  0
3DFACE
  8
Cylinder4001
 10
0.220835
 20
-0.993996
 30
0.783442
 11
-0.220834
 21
-0.993996
 31
0.783442
 12
0.119515
 22
-0.993996
 32
0.715742
 13
0.119515
 23
-0.993996
 33
0.715742
 62
0
  0
3DFACE
  8
Cylinder4001
 10
0.000000
 20
-0.993996
 30
0.803508
 11
-0.220834
 21
-0.993996
 31
0.783442
 12
0.220835
 22
-0.993996
 32
0.783442
 13
0.220835
 23
-0.993996
 33
0.783442
 62
0
  0
3DFACE
  8
Cylinder4001
 10
0.076831
 20
-0.993996
 30
0.818790
 11
0.000000
 21
-0.993996
 31
0.803508
 12
0.220835
 22
-0.993996
 32
0.783442
 13
0.220835
 23
-0.993996
 33
0.783442
 62
0
  0
3DFACE
  8
Cylinder4001
 10
0.141965
 20
-0.993996
 30
0.862311
 11
0.076831
 21
-0.993996
 31
0.818790
 12
0.220835
 22
-0.993996
 32
0.783442
 13
0.220835
 23
-0.993996
 33
0.783442
 62
0
  0
3DFACE
  8
Cylinder4001
 10
0.288534
 20
-0.993996
 30
0.884762
 11
0.141965
 21
-0.993996
 31
0.862311
 12
0.220835
 22
-0.993996
 32
0.783442
 13
0.220835
 23
-0.993996
 33
0.783442
 62
0
  0
3DFACE
  8
Cylinder4001
 10
0.185486
 20
-0.993996
 30
0.927446
 11
0.141965
 21
-0.993996
 31
0.862311
 12
0.288534
 22
-0.993996
 32
0.884762
 13
0.288534
 23
-0.993996
 33
0.884762
 62
0
  0
3DFACE
  8
Cylinder4001
 10
0.200769
 20
-0.993996
 30
1.004277
 11
0.185486
 21
-0.993996
 31
0.927446
 12
0.288534
 22
-0.993996
 32
0.884762
 13
0.288534
 23
-0.993996
 33
0.884762
 62
0
  0
3DFACE
  8
Cylinder4001
 10
0.312307
 20
-0.993996
 30
1.004277
 11
0.200769
 21
-0.993996
 31
1.004277
 12
0.288534
 22
-0.993996
 32
0.884762
 13
0.288534
 23
-0.993996
 33
0.884762
 62
0
  0
3DFACE
  8
Cylinder4001
 10
0.185486
 20
-0.993996
 30
1.081107
 11
0.200769
 21
-0.993996
 31
1.004277
 12
0.312307
 22
-0.993996
 32
1.004277
 13
0.312307
 23
-0.993996
 33
1.004277
 62
0
  0
3DFACE
  8
Cylinder4001
 10
0.288534
 20
-0.993996
 30
1.123791
 11
0.185486
 21
-0.993996
 31
1.081107
 12
0.312307
 22
-0.993996
 32
1.004277
 13
0.312307
 23
-0.993996
 33
1.004277
 62
0
  0
3DFACE
  8
Cylinder4001
 10
0.141965
 20
-0.993996
 30
1.146242
 11
0.185486
 21
-0.993996
 31
1.081107
 12
0.288534
 22
-0.993996
 32
1.123791
 13
0.288534
 23
-0.993996
 33
1.123791
 62
0
  0
3DFACE
  8
Cylinder4001
 10
0.076831
 20
-0.993996
 30
1.189763
 11
0.141965
 21
-0.993996
 31
1.146242
 12
0.288534
 22
-0.993996
 32
1.123791
 13
0.288534
 23
-0.993996
 33
1.123791
 62
0
  0
3DFACE
  8
Cylinder4001
 10
0.220835
 20
-0.993996
 30
1.225111
 11
0.076831
 21
-0.993996
 31
1.189763
 12
0.288534
 22
-0.993996
 32
1.123791
 13
0.288534
 23
-0.993996
 33
1.123791
 62
0
  0
3DFACE
  8
Cylinder4001
 10
0.220835
 20
-0.993996
 30
1.225111
 11
0.000000
 21
-0.993996
 31
1.205046
 12
0.076831
 22
-0.993996
 32
1.189763
 13
0.076831
 23
-0.993996
 33
1.189763
 62
0
  0
3DFACE
  8
Cylinder4001
 10
0.185485
 20
-1.466871
 30
1.081108
 11
0.200768
 21
-1.466871
 31
1.004277
 12
0.200769
 22
-0.993996
 32
1.004277
 13
0.185486
 23
-0.993996
 33
1.081107
 62
1
  0
3DFACE
  8
Cylinder4001
 10
0.141965
 20
-1.466871
 30
1.146243
 11
0.185485
 21
-1.466871
 31
1.081108
 12
0.185486
 22
-0.993996
 32
1.081107
 13
0.141965
 23
-0.993996
 33
1.146242
 62
1
  0
3DFACE
  8
Cylinder4001
 10
0.076831
 20
-1.466871
 30
1.189764
 11
0.141965
 21
-1.466871
 31
1.146243
 12
0.141965
 22
-0.993996
 32
1.146242
 13
0.076831
 23
-0.993996
 33
1.189763
 62
1
  0
3DFACE
  8
Cylinder4001
 10
0.000000
 20
-1.466871
 30
1.205046
 11
0.076831
 21
-1.466871
 31
1.189764
 12
0.076831
 22
-0.993996
 32
1.189763
 13
0.000000
 23
-0.993996
 33
1.205046
 62
1
  0
3DFACE
  8
Cylinder4001
 10
-0.076830
 20
-1.466871
 30
1.189764
 11
0.000000
 21
-1.466871
 31
1.205046
 12
0.000000
 22
-0.993996
 32
1.205046
 13
-0.076831
 23
-0.993996
 33
1.189763
 62
1
  0
3DFACE
  8
Cylinder4001
 10
-0.141964
 20
-1.466871
 30
1.146243
 11
-0.076830
 21
-1.466871
 31
1.189764
 12
-0.076831
 22
-0.993996
 32
1.189763
 13
-0.141965
 23
-0.993996
 33
1.146242
 62
1
  0
3DFACE
  8
Cylinder4001
 10
-0.185485
 20
-1.466871
 30
1.081108
 11
-0.141964
 21
-1.466871
 31
1.146243
 12
-0.141965
 22
-0.993996
 32
1.146242
 13
-0.185486
 23
-0.993996
 33
1.081107
 62
1
  0
3DFACE
  8
Cylinder4001
 10
-0.200768
 20
-1.466871
 30
1.004277
 11
-0.185485
 21
-1.466871
 31
1.081108
 12
-0.185486
 22
-0.993996
 32
1.081107
 13
-0.200769
 23
-0.993996
 33
1.004277
 62
1
  0
3DFACE
  8
Cylinder4001
 10
0.076831
 20
-1.466871
 30
0.818790
 11
-0.076830
 21
-1.466871
 31
0.818790
 12
0.000000
 22
-1.466871
 32
0.803507
 13
0.000000
 23
-1.466871
 33
0.803507
 62
1
  0
3DFACE
  8
Cylinder4001
 10
-0.141964
 20
-1.466871
 30
0.862311
 11
-0.076830
 21
-1.466871
 31
0.818790
 12
0.076831
 22
-1.466871
 32
0.818790
 13
0.076831
 23
-1.466871
 33
0.818790
 62
1
  0
3DFACE
  8
Cylinder4001
 10
0.141965
 20
-1.466871
 30
0.862311
 11
-0.141964
 21
-1.466871
 31
0.862311
 12
0.076831
 22
-1.466871
 32
0.818790
 13
0.076831
 23
-1.466871
 33
0.818790
 62
1
  0
3DFACE
  8
Cylinder4001
 10
-0.185485
 20
-1.466871
 30
0.927445
 11
-0.141964
 21
-1.466871
 31
0.862311
 12
0.141965
 22
-1.466871
 32
0.862311
 13
0.141965
 23
-1.466871
 33
0.862311
 62
1
  0
3DFACE
  8
Cylinder4001
 10
0.185485
 20
-1.466871
 30
0.927445
 11
-0.185485
 21
-1.466871
 31
0.927445
 12
0.141965
 22
-1.466871
 32
0.862311
 13
0.141965
 23
-1.466871
 33
0.862311
 62
1
  0
3DFACE
  8
Cylinder4001
 10
-0.200768
 20
-1.466871
 30
1.004277
 11
-0.185485
 21
-1.466871
 31
0.927445
 12
0.185485
 22
-1.466871
 32
0.927445
 13
0.185485
 23
-1.466871
 33
0.927445
 62
1
  0
3DFACE
  8
Cylinder4001
 10
0.200768
 20
-1.466871
 30
1.004277
 11
-0.200768
 21
-1.466871
 31
1.004277
 12
0.185485
 22
-1.466871
 32
0.927445
 13
0.185485
 23
-1.466871
 33
0.927445
 62
1
  0
3DFACE
  8
Cylinder4001
 10
-0.185485
 20
-1.466871
 30
1.081108
 11
-0.200768
 21
-1.466871
 31
1.004277
 12
0.200768
 22
-1.466871
 32
1.004277
 13
0.200768
 23
-1.466871
 33
1.004277
 62
1
  0
3DFACE
  8
Cylinder4001
 10
0.185485
 20
-1.466871
 30
1.081108
 11
-0.185485
 21
-1.466871
 31
1.081108
 12
0.200768
 22
-1.466871
 32
1.004277
 13
0.200768
 23
-1.466871
 33
1.004277
 62
1
  0
3DFACE
  8
Cylinder4001
 10
-0.141964
 20
-1.466871
 30
1.146243
 11
-0.185485
 21
-1.466871
 31
1.081108
 12
0.185485
 22
-1.466871
 32
1.081108
 13
0.185485
 23
-1.466871
 33
1.081108
 62
1
  0
3DFACE
  8
Cylinder4001
 10
0.141965
 20
-1.466871
 30
1.146243
 11
-0.141964
 21
-1.466871
 31
1.146243
 12
0.185485
 22
-1.466871
 32
1.081108
 13
0.185485
 23
-1.466871
 33
1.081108
 62
1
  0
3DFACE
  8
Cylinder4001
 10
-0.076830
 20
-1.466871
 30
1.189764
 11
-0.141964
 21
-1.466871
 31
1.146243
 12
0.141965
 22
-1.466871
 32
1.146243
 13
0.141965
 23
-1.466871
 33
1.146243
 62
1
  0
3DFACE
  8
Cylinder4001
 10
0.076831
 20
-1.466871
 30
1.189764
 11
-0.076830
 21
-1.466871
 31
1.189764
 12
0.141965
 22
-1.466871
 32
1.146243
 13
0.141965
 23
-1.466871
 33
1.146243
 62
1
  0
3DFACE
  8
Cylinder4001
 10
0.000000
 20
-1.466871
 30
1.205046
 11
-0.076830
 21
-1.466871
 31
1.189764
 12
0.076831
 22
-1.466871
 32
1.189764
 13
0.076831
 23
-1.466871
 33
1.189764
 62
1
  0
3DFACE
  8
Cylinder4001
 10
0.185485
 20
-1.466871
 30
0.927445
 11
0.141965
 21
-1.466871
 31
0.862311
 12
0.141965
 22
-0.993996
 32
0.862311
 13
0.185486
 23
-0.993996
 33
0.927446
 62
1
  0
3DFACE
  8
Cylinder4001
 10
0.200768
 20
-1.466871
 30
1.004277
 11
0.185485
 21
-1.466871
 31
0.927445
 12
0.185486
 22
-0.993996
 32
0.927446
 13
0.200769
 23
-0.993996
 33
1.004277
 62
1
  0
3DFACE
  8
Cylinder4001
 10
0.141965
 20
-1.466871
 30
0.862311
 11
0.076831
 21
-1.466871
 31
0.818790
 12
0.076831
 22
-0.993996
 32
0.818790
 13
0.141965
 23
-0.993996
 33
0.862311
 62
1
  0
3DFACE
  8
Cylinder4001
 10
0.076831
 20
-1.466871
 30
0.818790
 11
0.000000
 21
-1.466871
 31
0.803507
 12
0.000000
 22
-0.993996
 32
0.803508
 13
0.076831
 23
-0.993996
 33
0.818790
 62
1
  0
3DFACE
  8
Cylinder4001
 10
0.000000
 20
-1.466871
 30
0.803507
 11
-0.076830
 21
-1.466871
 31
0.818790
 12
-0.076831
 22
-0.993996
 32
0.818790
 13
0.000000
 23
-0.993996
 33
0.803508
 62
1
  0
3DFACE
  8
Cylinder4001
 10
-0.076830
 20
-1.466871
 30
0.818790
 11
-0.141964
 21
-1.466871
 31
0.862311
 12
-0.141965
 22
-0.993996
 32
0.862311
 13
-0.076831
 23
-0.993996
 33
0.818790
 62
1
  0
3DFACE
  8
Cylinder4001
 10
-0.141964
 20
-1.466871
 30
0.862311
 11
-0.185485
 21
-1.466871
 31
0.927445
 12
-0.185486
 22
-0.993996
 32
0.927446
 13
-0.141965
 23
-0.993996
 33
0.862311
 62
1
  0
3DFACE
  8
Cylinder4001
 10
-0.185485
 20
-1.466871
 30
0.927445
 11
-0.200768
 21
-1.466871
 31
1.004277
 12
-0.200769
 22
-0.993996
 32
1.004277
 13
-0.185486
 23
-0.993996
 33
0.927446
 62
1
 0
ENDSEC
 0
EOF
