  0
SECTION
  2
HEADER
  0
ENDSEC
  0
SECTION
  2
TABLES
  0
TABLE
  2
LAYER
  70
    153
  0
LAYER
  2
Cylinder4
 70
0
 62
15
  6
CONTINUOUS
  0
LAYER
  2
Cylinder5
 70
0
 62
15
  6
CONTINUOUS
  0
LAYER
  2
Cylinder3
 70
0
 62
15
  6
CONTINUOUS
  0
LAYER
  2
Cube2
 70
0
 62
15
  6
CONTINUOUS
  0
LAYER
  2
Cube
 70
0
 62
15
  6
CONTINUOUS
  0
LAYER
  2
NoName22
 70
0
 62
15
  6
CONTINUOUS
  0
LAYER
  2
NoName20
 70
0
 62
15
  6
CONTINUOUS
  0
LAYER
  2
NoName19
 70
0
 62
15
  6
CONTINUOUS
  0
LAYER
  2
NoName21
 70
0
 62
15
  6
CONTINUOUS
  0
LAYER
  2
NoName22001
 70
0
 62
15
  6
CONTINUOUS
  0
LAYER
  2
NoName20001
 70
0
 62
15
  6
CONTINUOUS
  0
LAYER
  2
NoName19001
 70
0
 62
15
  6
CONTINUOUS
  0
LAYER
  2
NoName21001
 70
0
 62
15
  6
CONTINUOUS
  0
LAYER
  2
NoName22002
 70
0
 62
15
  6
CONTINUOUS
  0
LAYER
  2
NoName20002
 70
0
 62
15
  6
CONTINUOUS
  0
LAYER
  2
NoName19002
 70
0
 62
15
  6
CONTINUOUS
  0
LAYER
  2
NoName21002
 70
0
 62
15
  6
CONTINUOUS
  0
LAYER
  2
NoName22003
 70
0
 62
15
  6
CONTINUOUS
  0
LAYER
  2
NoName20003
 70
0
 62
15
  6
CONTINUOUS
  0
LAYER
  2
NoName19003
 70
0
 62
15
  6
CONTINUOUS
  0
LAYER
  2
NoName21003
 70
0
 62
15
  6
CONTINUOUS
  0
ENDTAB
  0
ENDSEC
  0
SECTION
  2
ENTITIES
  0
3DFACE
  8
Cylinder4
 10
-0.749709
 20
0.500154
 30
0.026678
 11
0.749671
 21
0.500154
 31
0.026678
 12
0.749671
 22
-0.212844
 32
0.712910
 13
-0.749709
 23
-0.212844
 33
0.712910
 62
0
  0
3DFACE
  8
Cylinder4
 10
-0.749709
 20
0.227813
 30
-0.811501
 11
0.749671
 21
0.227813
 31
-0.811501
 12
0.749671
 22
0.500154
 32
0.026678
 13
-0.749709
 23
0.500154
 33
0.026678
 62
0
  0
3DFACE
  8
Cylinder4
 10
-0.749709
 20
-0.653500
 30
-0.811501
 11
0.749671
 21
-0.653500
 31
-0.811501
 12
0.749671
 22
0.227813
 32
-0.811501
 13
-0.749709
 23
0.227813
 33
-0.811501
 62
0
  0
3DFACE
  8
Cylinder4
 10
-0.749709
 20
-1.227221
 30
-0.321414
 11
0.749671
 21
-1.227221
 31
-0.321414
 12
0.749671
 22
-0.653500
 32
-0.811501
 13
-0.749709
 23
-0.653500
 33
-0.811501
 62
0
  0
3DFACE
  8
Cylinder4
 10
-0.749709
 20
-0.212844
 30
0.712910
 11
0.749671
 21
-0.212844
 31
0.712910
 12
0.749671
 22
-1.227221
 32
-0.321414
 13
-0.749709
 23
-1.227221
 33
-0.321414
 62
0
  0
3DFACE
  8
Cylinder4
 10
-0.749709
 20
-0.212844
 30
0.712910
 11
-0.749709
 21
0.227813
 31
-0.811501
 12
-0.749709
 22
0.500154
 32
0.026678
 13
-0.749709
 23
0.500154
 33
0.026678
 62
0
  0
3DFACE
  8
Cylinder4
 10
-0.749709
 20
-0.653500
 30
-0.811501
 11
-0.749709
 21
0.227813
 31
-0.811501
 12
-0.749709
 22
-0.212844
 32
0.712910
 13
-0.749709
 23
-0.212844
 33
0.712910
 62
0
  0
3DFACE
  8
Cylinder4
 10
-0.749709
 20
-1.227221
 30
-0.321414
 11
-0.749709
 21
-0.653500
 31
-0.811501
 12
-0.749709
 22
-0.212844
 32
0.712910
 13
-0.749709
 23
-0.212844
 33
0.712910
 62
0
  0
3DFACE
  8
Cylinder4
 10
0.749671
 20
-0.212844
 30
0.712910
 11
0.749671
 21
0.500154
 31
0.026678
 12
0.749671
 22
0.227813
 32
-0.811501
 13
0.749671
 23
0.227813
 33
-0.811501
 62
0
  0
3DFACE
  8
Cylinder4
 10
0.749671
 20
-0.653500
 30
-0.811501
 11
0.749671
 21
-0.212844
 31
0.712910
 12
0.749671
 22
0.227813
 32
-0.811501
 13
0.749671
 23
0.227813
 33
-0.811501
 62
0
  0
3DFACE
  8
Cylinder4
 10
0.749671
 20
-1.227221
 30
-0.321414
 11
0.749671
 21
-0.212844
 31
0.712910
 12
0.749671
 22
-0.653500
 32
-0.811501
 13
0.749671
 23
-0.653500
 33
-0.811501
 62
0
  0
3DFACE
  8
Cylinder5
 10
-0.749709
 20
0.500154
 30
0.026678
 11
-1.163833
 21
-0.210578
 31
-0.112793
 12
-0.749709
 22
0.227813
 32
-0.811501
 13
-0.749709
 23
0.227813
 33
-0.811501
 62
0
  0
3DFACE
  8
Cylinder5
 10
-0.749709
 20
-0.210937
 30
0.712910
 11
-1.163833
 21
-0.210578
 31
-0.112793
 12
-0.749709
 22
0.500154
 32
0.026678
 13
-0.749709
 23
0.500154
 33
0.026678
 62
0
  0
3DFACE
  8
Cylinder5
 10
-0.749709
 20
-1.227221
 30
-0.321414
 11
-1.163833
 21
-0.210578
 31
-0.112793
 12
-0.749709
 22
-0.210937
 32
0.712910
 13
-0.749709
 23
-0.210937
 33
0.712910
 62
0
  0
3DFACE
  8
Cylinder5
 10
-0.749709
 20
-0.653500
 30
-0.811501
 11
-1.163833
 21
-0.210578
 31
-0.112793
 12
-0.749709
 22
-1.227221
 32
-0.321414
 13
-0.749709
 23
-1.227221
 33
-0.321414
 62
0
  0
3DFACE
  8
Cylinder5
 10
-0.749709
 20
0.227813
 30
-0.811501
 11
-1.163833
 21
-0.210578
 31
-0.112793
 12
-0.749709
 22
-0.653500
 32
-0.811501
 13
-0.749709
 23
-0.653500
 33
-0.811501
 62
0
  0
3DFACE
  8
Cylinder5
 10
-0.749709
 20
-0.210937
 30
0.712910
 11
-0.749709
 21
-0.653500
 31
-0.811501
 12
-0.749709
 22
-1.227221
 32
-0.321414
 13
-0.749709
 23
-1.227221
 33
-0.321414
 62
0
  0
3DFACE
  8
Cylinder5
 10
-0.749709
 20
0.227813
 30
-0.811501
 11
-0.749709
 21
-0.653500
 31
-0.811501
 12
-0.749709
 22
-0.210937
 32
0.712910
 13
-0.749709
 23
-0.210937
 33
0.712910
 62
0
  0
3DFACE
  8
Cylinder5
 10
-0.749709
 20
0.500154
 30
0.026678
 11
-0.749709
 21
0.227813
 31
-0.811501
 12
-0.749709
 22
-0.210937
 32
0.712910
 13
-0.749709
 23
-0.210937
 33
0.712910
 62
0
  0
3DFACE
  8
Cylinder3
 10
0.749671
 20
0.227813
 30
-0.811501
 11
1.163795
 21
-0.210578
 31
-0.112793
 12
0.749671
 22
0.500154
 32
0.026678
 13
0.749671
 23
0.500154
 33
0.026678
 62
0
  0
3DFACE
  8
Cylinder3
 10
0.749671
 20
0.500154
 30
0.026678
 11
1.163795
 21
-0.210578
 31
-0.112793
 12
0.749671
 22
-0.210937
 32
0.712910
 13
0.749671
 23
-0.210937
 33
0.712910
 62
0
  0
3DFACE
  8
Cylinder3
 10
0.749671
 20
-0.210937
 30
0.712910
 11
1.163795
 21
-0.210578
 31
-0.112793
 12
0.749671
 22
-1.227221
 32
-0.321414
 13
0.749671
 23
-1.227221
 33
-0.321414
 62
0
  0
3DFACE
  8
Cylinder3
 10
0.749671
 20
-1.227221
 30
-0.321414
 11
1.163795
 21
-0.210578
 31
-0.112793
 12
0.749671
 22
-0.653500
 32
-0.811501
 13
0.749671
 23
-0.653500
 33
-0.811501
 62
0
  0
3DFACE
  8
Cylinder3
 10
0.749671
 20
-0.653500
 30
-0.811501
 11
1.163795
 21
-0.210578
 31
-0.112793
 12
0.749671
 22
0.227813
 32
-0.811501
 13
0.749671
 23
0.227813
 33
-0.811501
 62
0
  0
3DFACE
  8
Cylinder3
 10
0.749671
 20
-0.210937
 30
0.712910
 11
0.749671
 21
0.227813
 31
-0.811501
 12
0.749671
 22
0.500154
 32
0.026678
 13
0.749671
 23
0.500154
 33
0.026678
 62
0
  0
3DFACE
  8
Cylinder3
 10
0.749671
 20
-0.653500
 30
-0.811501
 11
0.749671
 21
0.227813
 31
-0.811501
 12
0.749671
 22
-0.210937
 32
0.712910
 13
0.749671
 23
-0.210937
 33
0.712910
 62
0
  0
3DFACE
  8
Cylinder3
 10
0.749671
 20
-1.227221
 30
-0.321414
 11
0.749671
 21
-0.653500
 31
-0.811501
 12
0.749671
 22
-0.210937
 32
0.712910
 13
0.749671
 23
-0.210937
 33
0.712910
 62
0
  0
3DFACE
  8
Cube2
 10
-0.580706
 20
0.061287
 30
-0.652265
 11
-0.580706
 21
0.061288
 31
-0.183222
 12
0.580669
 22
0.061287
 32
-0.183223
 13
0.580669
 23
0.061287
 33
-0.652265
 62
0
  0
3DFACE
  8
Cube2
 10
-0.580706
 20
0.765934
 30
-0.652264
 11
-0.580706
 21
0.061287
 31
-0.652265
 12
0.580669
 22
0.061287
 32
-0.652265
 13
0.580669
 23
0.765933
 33
-0.652264
 62
0
  0
3DFACE
  8
Cube2
 10
0.580669
 20
0.765933
 30
-0.652264
 11
0.580669
 21
0.061287
 31
-0.652265
 12
0.580669
 22
0.061287
 32
-0.183223
 13
0.580669
 23
0.765933
 33
-0.183222
 62
0
  0
3DFACE
  8
Cube2
 10
0.580669
 20
0.765933
 30
-0.183222
 11
0.580669
 21
0.061287
 31
-0.183223
 12
-0.580706
 22
0.061288
 32
-0.183222
 13
-0.580706
 23
0.765934
 33
-0.183221
 62
0
  0
3DFACE
  8
Cube2
 10
-0.580706
 20
0.765934
 30
-0.183221
 11
-0.580706
 21
0.061288
 31
-0.183222
 12
-0.580706
 22
0.061287
 32
-0.652265
 13
-0.580706
 23
0.765934
 33
-0.652264
 62
0
  0
3DFACE
  8
Cube2
 10
0.423050
 20
0.424963
 30
-0.350735
 11
-0.423124
 21
0.425278
 31
-0.350735
 12
-0.423086
 22
0.425150
 32
-0.480418
 13
0.423084
 23
0.424831
 33
-0.480426
 62
0
  0
3DFACE
  8
Cube2
 10
0.423084
 20
0.424831
 30
-0.480426
 11
-0.423086
 21
0.425150
 31
-0.480418
 12
-0.580706
 22
0.765934
 32
-0.652264
 13
0.580669
 23
0.765933
 33
-0.652264
 62
0
  0
3DFACE
  8
Cube2
 10
0.423050
 20
0.424963
 30
-0.350735
 11
0.423084
 21
0.424831
 31
-0.480426
 12
0.580669
 22
0.765933
 32
-0.652264
 13
0.580669
 23
0.765933
 33
-0.183222
 62
0
  0
3DFACE
  8
Cube2
 10
-0.423124
 20
0.425278
 30
-0.350735
 11
0.423050
 21
0.424963
 31
-0.350735
 12
0.580669
 22
0.765933
 32
-0.183222
 13
-0.580706
 23
0.765934
 33
-0.183221
 62
0
  0
3DFACE
  8
Cube2
 10
-0.423086
 20
0.425150
 30
-0.480418
 11
-0.423124
 21
0.425278
 31
-0.350735
 12
-0.580706
 22
0.765934
 32
-0.183221
 13
-0.580706
 23
0.765934
 33
-0.652264
 62
0
  0
3DFACE
  8
Cube
 10
0.542855
 20
0.687810
 30
-0.613178
 11
-0.542895
 21
0.687810
 31
-0.613178
 12
-0.542895
 22
0.061454
 32
-0.613178
 13
0.542855
 23
0.061454
 33
-0.613178
 62
0
  0
3DFACE
  8
Cube
 10
-0.542895
 20
0.687810
 30
-0.222306
 11
-0.542895
 21
0.687810
 31
-0.613178
 12
0.542855
 22
0.687810
 32
-0.613178
 13
0.542855
 23
0.687810
 33
-0.222306
 62
1
  0
3DFACE
  8
Cube
 10
0.542855
 20
0.687810
 30
-0.222306
 11
0.542855
 21
0.687810
 31
-0.613178
 12
0.542855
 22
0.061454
 32
-0.613178
 13
0.542855
 23
0.061454
 33
-0.222306
 62
0
  0
3DFACE
  8
Cube
 10
0.542855
 20
0.061454
 30
-0.222306
 11
0.542855
 21
0.061454
 31
-0.613178
 12
-0.542895
 22
0.061454
 32
-0.613178
 13
-0.542895
 23
0.061454
 33
-0.222306
 62
0
  0
3DFACE
  8
Cube
 10
-0.542895
 20
0.687810
 30
-0.222306
 11
0.542855
 21
0.687810
 31
-0.222306
 12
0.542855
 22
0.061454
 32
-0.222306
 13
-0.542895
 23
0.061454
 33
-0.222306
 62
0
  0
3DFACE
  8
Cube
 10
-0.542895
 20
0.687810
 30
-0.613178
 11
-0.542895
 21
0.687810
 31
-0.222306
 12
-0.542895
 22
0.061454
 32
-0.222306
 13
-0.542895
 23
0.061454
 33
-0.613178
 62
0
  0
3DFACE
  8
NoName22
 10
2.428765
 20
-0.286138
 30
-1.247703
 11
0.881604
 21
-0.483584
 31
-0.359582
 12
0.978454
 22
-0.289038
 32
-0.199531
 13
0.978454
 23
-0.289038
 33
-0.199531
 62
0
  0
3DFACE
  8
NoName22
 10
0.978454
 20
-0.289038
 30
-0.199531
 11
0.881604
 21
-0.483584
 31
-0.359582
 12
0.798850
 22
-0.289038
 32
-0.518951
 13
0.798850
 23
-0.289038
 33
-0.518951
 62
0
  0
3DFACE
  8
NoName22
 10
0.798850
 20
-0.289038
 30
-0.518951
 11
0.881604
 21
-0.483584
 31
-0.359582
 12
2.428765
 22
-0.286138
 32
-1.247703
 13
2.428765
 23
-0.286138
 33
-1.247703
 62
0
  0
3DFACE
  8
NoName22
 10
2.428765
 20
-0.286138
 30
-1.247703
 11
0.978454
 21
-0.289038
 31
-0.199531
 12
0.798850
 22
-0.289038
 32
-0.518951
 13
0.798850
 23
-0.289038
 33
-0.518951
 62
0
  0
3DFACE
  8
NoName20
 10
2.090643
 20
-0.288062
 30
-1.147333
 11
2.506573
 21
-0.486586
 31
-1.239179
 12
2.768104
 22
-0.289037
 32
-0.996561
 13
2.768104
 23
-0.289037
 33
-0.996561
 62
0
  0
3DFACE
  8
NoName20
 10
2.768104
 20
-0.289037
 30
-0.996561
 11
2.506573
 21
-0.486586
 31
-1.239179
 12
2.420230
 22
-0.289062
 32
-1.604676
 13
2.420230
 23
-0.289062
 33
-1.604676
 62
0
  0
3DFACE
  8
NoName20
 10
2.420230
 20
-0.289062
 30
-1.604676
 11
2.506573
 21
-0.486586
 31
-1.239179
 12
2.090643
 22
-0.288062
 32
-1.147333
 13
2.090643
 23
-0.288062
 33
-1.147333
 62
0
  0
3DFACE
  8
NoName20
 10
2.090643
 20
-0.288062
 30
-1.147333
 11
2.768104
 21
-0.289037
 31
-0.996561
 12
2.420230
 22
-0.289062
 32
-1.604676
 13
2.420230
 23
-0.289062
 33
-1.604676
 62
0
  0
3DFACE
  8
NoName19
 10
2.931467
 20
0.599342
 30
-1.722938
 11
2.506768
 21
-0.381003
 31
-1.493646
 12
2.440521
 22
-0.419266
 32
-1.330827
 13
2.440521
 23
-0.419266
 33
-1.330827
 62
0
  0
3DFACE
  8
NoName19
 10
2.440521
 20
-0.419266
 30
-1.330827
 11
2.506768
 21
-0.381003
 31
-1.493646
 12
2.341108
 22
-0.426633
 32
-1.546184
 13
2.341108
 23
-0.426633
 33
-1.546184
 62
0
  0
3DFACE
  8
NoName19
 10
2.341108
 20
-0.426633
 30
-1.546184
 11
2.506768
 21
-0.381003
 31
-1.493646
 12
2.931467
 22
0.599342
 32
-1.722938
 13
2.931467
 23
0.599342
 33
-1.722938
 62
0
  0
3DFACE
  8
NoName19
 10
2.931467
 20
0.599342
 30
-1.722938
 11
2.440521
 21
-0.419266
 31
-1.330827
 12
2.341108
 22
-0.426633
 32
-1.546184
 13
2.341108
 23
-0.426633
 33
-1.546184
 62
0
  0
3DFACE
  8
NoName21
 10
3.061496
 20
0.563900
 30
-1.459992
 11
2.713163
 21
-0.407532
 31
-1.100778
 12
2.677668
 22
-0.436481
 32
-0.926806
 13
2.677668
 23
-0.436481
 33
-0.926806
 62
0
  0
3DFACE
  8
NoName21
 10
2.677668
 20
-0.436481
 30
-0.926806
 11
2.713163
 21
-0.407532
 31
-1.100778
 12
2.542308
 22
-0.459575
 32
-1.120355
 13
2.542308
 23
-0.459575
 33
-1.120355
 62
0
  0
3DFACE
  8
NoName21
 10
2.542308
 20
-0.459575
 30
-1.120355
 11
2.713163
 21
-0.407532
 31
-1.100778
 12
3.061496
 22
0.563900
 32
-1.459992
 13
3.061496
 23
0.563900
 33
-1.459992
 62
0
  0
3DFACE
  8
NoName21
 10
3.061496
 20
0.563900
 30
-1.459992
 11
2.677668
 21
-0.436481
 31
-0.926806
 12
2.542308
 22
-0.459575
 32
-1.120355
 13
2.542308
 23
-0.459575
 33
-1.120355
 62
0
  0
3DFACE
  8
NoName22001
 10
0.986255
 20
-0.289038
 30
0.107210
 11
0.881816
 21
-0.483584
 31
0.262416
 12
2.384453
 22
-0.286138
 32
1.223950
 13
2.384453
 23
-0.286138
 33
1.223950
 62
0
  0
3DFACE
  8
NoName22001
 10
0.791490
 20
-0.289038
 30
0.417618
 11
0.881816
 21
-0.483584
 31
0.262416
 12
0.986255
 22
-0.289038
 32
0.107210
 13
0.986255
 23
-0.289038
 33
0.107210
 62
0
  0
3DFACE
  8
NoName22001
 10
2.384453
 20
-0.286138
 30
1.223950
 11
0.881816
 21
-0.483584
 31
0.262416
 12
0.791490
 22
-0.289038
 32
0.417618
 13
0.791490
 23
-0.289038
 33
0.417618
 62
0
  0
3DFACE
  8
NoName22001
 10
0.791490
 20
-0.289038
 30
0.417618
 11
0.986255
 21
-0.289038
 31
0.107210
 12
2.384453
 22
-0.286138
 32
1.223950
 13
2.384453
 23
-0.286138
 33
1.223950
 62
0
  0
3DFACE
  8
NoName20001
 10
2.735483
 20
-0.289037
 30
0.989428
 11
2.462580
 21
-0.486586
 31
1.219181
 12
2.051551
 22
-0.288062
 32
1.107428
 13
2.051551
 23
-0.288062
 33
1.107428
 62
0
  0
3DFACE
  8
NoName20001
 10
2.358752
 20
-0.289062
 30
1.580100
 11
2.462580
 21
-0.486586
 31
1.219181
 12
2.735483
 22
-0.289037
 32
0.989428
 13
2.735483
 23
-0.289037
 33
0.989428
 62
0
  0
3DFACE
  8
NoName20001
 10
2.051551
 20
-0.288062
 30
1.107428
 11
2.462580
 21
-0.486586
 31
1.219181
 12
2.358752
 22
-0.289062
 32
1.580100
 13
2.358752
 23
-0.289062
 33
1.580100
 62
0
  0
3DFACE
  8
NoName20001
 10
2.358752
 20
-0.289062
 30
1.580100
 11
2.735483
 21
-0.289037
 31
0.989428
 12
2.051551
 22
-0.288062
 32
1.107428
 13
2.051551
 23
-0.288062
 33
1.107428
 62
0
  0
3DFACE
  8
NoName19001
 10
2.391982
 20
-0.419248
 30
1.307654
 11
2.450323
 21
-0.380986
 31
1.473489
 12
2.863485
 22
0.599349
 32
1.722986
 13
2.863485
 23
0.599349
 33
1.722986
 62
0
  0
3DFACE
  8
NoName19001
 10
2.282342
 20
-0.426617
 30
1.517989
 11
2.450323
 21
-0.380986
 31
1.473489
 12
2.391982
 22
-0.419248
 32
1.307654
 13
2.391982
 23
-0.419248
 33
1.307654
 62
0
  0
3DFACE
  8
NoName19001
 10
2.863485
 20
0.599349
 30
1.722986
 11
2.450323
 21
-0.380986
 31
1.473489
 12
2.282342
 22
-0.426617
 32
1.517989
 13
2.282342
 23
-0.426617
 33
1.517989
 62
0
  0
3DFACE
  8
NoName19001
 10
2.282342
 20
-0.426617
 30
1.517989
 11
2.391982
 21
-0.419248
 31
1.307654
 12
2.863485
 22
0.599349
 32
1.722986
 13
2.863485
 23
0.599349
 33
1.722986
 62
0
  0
3DFACE
  8
NoName21001
 10
2.648386
 20
-0.436474
 30
0.915482
 11
2.675473
 21
-0.407528
 31
1.090975
 12
3.006114
 22
0.563871
 32
1.466568
 13
3.006114
 23
0.563871
 33
1.466568
 62
0
  0
3DFACE
  8
NoName21001
 10
2.503882
 20
-0.459568
 30
1.102304
 11
2.675473
 21
-0.407528
 31
1.090975
 12
2.648386
 22
-0.436474
 32
0.915482
 13
2.648386
 23
-0.436474
 33
0.915482
 62
0
  0
3DFACE
  8
NoName21001
 10
3.006114
 20
0.563871
 30
1.466568
 11
2.675473
 21
-0.407528
 31
1.090975
 12
2.503882
 22
-0.459568
 32
1.102304
 13
2.503882
 23
-0.459568
 33
1.102304
 62
0
  0
3DFACE
  8
NoName21001
 10
2.503882
 20
-0.459568
 30
1.102304
 11
2.648386
 21
-0.436474
 31
0.915482
 12
3.006114
 22
0.563871
 32
1.466568
 13
3.006114
 23
0.563871
 33
1.466568
 62
0
  0
3DFACE
  8
NoName22002
 10
-2.384839
 20
-0.286137
 30
1.223951
 11
-0.882202
 21
-0.483583
 31
0.262416
 12
-0.986641
 22
-0.289037
 32
0.107211
 13
-0.986641
 23
-0.289037
 33
0.107211
 62
0
  0
3DFACE
  8
NoName22002
 10
-0.986641
 20
-0.289037
 30
0.107211
 11
-0.882202
 21
-0.483583
 31
0.262416
 12
-0.791876
 22
-0.289037
 32
0.417618
 13
-0.791876
 23
-0.289037
 33
0.417618
 62
0
  0
3DFACE
  8
NoName22002
 10
-0.791876
 20
-0.289037
 30
0.417618
 11
-0.882202
 21
-0.483583
 31
0.262416
 12
-2.384839
 22
-0.286137
 32
1.223951
 13
-2.384839
 23
-0.286137
 33
1.223951
 62
0
  0
3DFACE
  8
NoName22002
 10
-2.384839
 20
-0.286137
 30
1.223951
 11
-0.986641
 21
-0.289037
 31
0.107211
 12
-0.791876
 22
-0.289037
 32
0.417618
 13
-0.791876
 23
-0.289037
 33
0.417618
 62
0
  0
3DFACE
  8
NoName20002
 10
-2.051938
 20
-0.288062
 30
1.107429
 11
-2.462967
 21
-0.486586
 31
1.219181
 12
-2.735870
 22
-0.289036
 32
0.989428
 13
-2.735870
 23
-0.289036
 33
0.989428
 62
0
  0
3DFACE
  8
NoName20002
 10
-2.735870
 20
-0.289036
 30
0.989428
 11
-2.462967
 21
-0.486586
 31
1.219181
 12
-2.359138
 22
-0.289061
 32
1.580100
 13
-2.359138
 23
-0.289061
 33
1.580100
 62
0
  0
3DFACE
  8
NoName20002
 10
-2.359138
 20
-0.289061
 30
1.580100
 11
-2.462967
 21
-0.486586
 31
1.219181
 12
-2.051938
 22
-0.288062
 32
1.107429
 13
-2.051938
 23
-0.288062
 33
1.107429
 62
0
  0
3DFACE
  8
NoName20002
 10
-2.051938
 20
-0.288062
 30
1.107429
 11
-2.735870
 21
-0.289036
 31
0.989428
 12
-2.359138
 22
-0.289061
 32
1.580100
 13
-2.359138
 23
-0.289061
 33
1.580100
 62
0
  0
3DFACE
  8
NoName19002
 10
-2.863945
 20
0.599335
 30
1.722933
 11
-2.450782
 21
-0.381003
 31
1.473441
 12
-2.392443
 22
-0.419266
 32
1.307612
 13
-2.392443
 23
-0.419266
 33
1.307612
 62
0
  0
3DFACE
  8
NoName19002
 10
-2.392443
 20
-0.419266
 30
1.307612
 11
-2.450782
 21
-0.381003
 31
1.473441
 12
-2.282796
 22
-0.426633
 32
1.517943
 13
-2.282796
 23
-0.426633
 33
1.517943
 62
0
  0
3DFACE
  8
NoName19002
 10
-2.282796
 20
-0.426633
 30
1.517943
 11
-2.450782
 21
-0.381003
 31
1.473441
 12
-2.863945
 22
0.599335
 32
1.722933
 13
-2.863945
 23
0.599335
 33
1.722933
 62
0
  0
3DFACE
  8
NoName19002
 10
-2.863945
 20
0.599335
 30
1.722933
 11
-2.392443
 21
-0.419266
 31
1.307612
 12
-2.282796
 22
-0.426633
 32
1.517943
 13
-2.282796
 23
-0.426633
 33
1.517943
 62
0
  0
3DFACE
  8
NoName21002
 10
-3.006541
 20
0.563880
 30
1.466526
 11
-2.675899
 21
-0.407531
 31
1.090941
 12
-2.648813
 22
-0.436479
 32
0.915453
 13
-2.648813
 23
-0.436479
 33
0.915453
 62
0
  0
3DFACE
  8
NoName21002
 10
-2.648813
 20
-0.436479
 30
0.915453
 11
-2.675899
 21
-0.407531
 31
1.090941
 12
-2.504305
 22
-0.459572
 32
1.102271
 13
-2.504305
 23
-0.459572
 33
1.102271
 62
0
  0
3DFACE
  8
NoName21002
 10
-2.504305
 20
-0.459572
 30
1.102271
 11
-2.675899
 21
-0.407531
 31
1.090941
 12
-3.006541
 22
0.563880
 32
1.466526
 13
-3.006541
 23
0.563880
 33
1.466526
 62
0
  0
3DFACE
  8
NoName21002
 10
-3.006541
 20
0.563880
 30
1.466526
 11
-2.648813
 21
-0.436479
 31
0.915453
 12
-2.504305
 22
-0.459572
 32
1.102271
 13
-2.504305
 23
-0.459572
 33
1.102271
 62
0
  0
3DFACE
  8
NoName22003
 10
-0.978492
 20
-0.289038
 30
-0.199531
 11
-0.881642
 21
-0.483584
 31
-0.359582
 12
-2.428803
 22
-0.286138
 32
-1.247703
 13
-2.428803
 23
-0.286138
 33
-1.247703
 62
0
  0
3DFACE
  8
NoName22003
 10
-0.798888
 20
-0.289038
 30
-0.518951
 11
-0.881642
 21
-0.483584
 31
-0.359582
 12
-0.978492
 22
-0.289038
 32
-0.199531
 13
-0.978492
 23
-0.289038
 33
-0.199531
 62
0
  0
3DFACE
  8
NoName22003
 10
-2.428803
 20
-0.286138
 30
-1.247703
 11
-0.881642
 21
-0.483584
 31
-0.359582
 12
-0.798888
 22
-0.289038
 32
-0.518951
 13
-0.798888
 23
-0.289038
 33
-0.518951
 62
0
  0
3DFACE
  8
NoName22003
 10
-0.798888
 20
-0.289038
 30
-0.518951
 11
-0.978492
 21
-0.289038
 31
-0.199531
 12
-2.428803
 22
-0.286138
 32
-1.247703
 13
-2.428803
 23
-0.286138
 33
-1.247703
 62
0
  0
3DFACE
  8
NoName20003
 10
-2.768143
 20
-0.289037
 30
-0.996560
 11
-2.506612
 21
-0.486586
 31
-1.239178
 12
-2.090682
 22
-0.288062
 32
-1.147332
 13
-2.090682
 23
-0.288062
 33
-1.147332
 62
0
  0
3DFACE
  8
NoName20003
 10
-2.420269
 20
-0.289062
 30
-1.604675
 11
-2.506612
 21
-0.486586
 31
-1.239178
 12
-2.768143
 22
-0.289037
 32
-0.996560
 13
-2.768143
 23
-0.289037
 33
-0.996560
 62
0
  0
3DFACE
  8
NoName20003
 10
-2.090682
 20
-0.288062
 30
-1.147332
 11
-2.506612
 21
-0.486586
 31
-1.239178
 12
-2.420269
 22
-0.289062
 32
-1.604675
 13
-2.420269
 23
-0.289062
 33
-1.604675
 62
0
  0
3DFACE
  8
NoName20003
 10
-2.420269
 20
-0.289062
 30
-1.604675
 11
-2.768143
 21
-0.289037
 31
-0.996560
 12
-2.090682
 22
-0.288062
 32
-1.147332
 13
-2.090682
 23
-0.288062
 33
-1.147332
 62
0
  0
3DFACE
  8
NoName19003
 10
-2.440492
 20
-0.419250
 30
-1.330866
 11
-2.506741
 21
-0.380989
 31
-1.493689
 12
-2.931438
 22
0.599352
 32
-1.722987
 13
-2.931438
 23
0.599352
 33
-1.722987
 62
0
  0
3DFACE
  8
NoName19003
 10
-2.341085
 20
-0.426620
 30
-1.546225
 11
-2.506741
 21
-0.380989
 31
-1.493689
 12
-2.440492
 22
-0.419250
 32
-1.330866
 13
-2.440492
 23
-0.419250
 33
-1.330866
 62
0
  0
3DFACE
  8
NoName19003
 10
-2.931438
 20
0.599352
 30
-1.722987
 11
-2.506741
 21
-0.380989
 31
-1.493689
 12
-2.341085
 22
-0.426620
 32
-1.546225
 13
-2.341085
 23
-0.426620
 33
-1.546225
 62
0
  0
3DFACE
  8
NoName19003
 10
-2.341085
 20
-0.426620
 30
-1.546225
 11
-2.440492
 21
-0.419250
 31
-1.330866
 12
-2.931438
 22
0.599352
 32
-1.722987
 13
-2.931438
 23
0.599352
 33
-1.722987
 62
0
  0
3DFACE
  8
NoName21003
 10
-2.677667
 20
-0.436485
 30
-0.926834
 11
-2.713164
 21
-0.407537
 31
-1.100810
 12
-3.061496
 22
0.563883
 32
-1.460034
 13
-3.061496
 23
0.563883
 33
-1.460034
 62
0
  0
3DFACE
  8
NoName21003
 10
-2.542312
 20
-0.459579
 30
-1.120386
 11
-2.713164
 21
-0.407537
 31
-1.100810
 12
-2.677667
 22
-0.436485
 32
-0.926834
 13
-2.677667
 23
-0.436485
 33
-0.926834
 62
0
  0
3DFACE
  8
NoName21003
 10
-3.061496
 20
0.563883
 30
-1.460034
 11
-2.713164
 21
-0.407537
 31
-1.100810
 12
-2.542312
 22
-0.459579
 32
-1.120386
 13
-2.542312
 23
-0.459579
 33
-1.120386
 62
0
  0
3DFACE
  8
NoName21003
 10
-2.542312
 20
-0.459579
 30
-1.120386
 11
-2.677667
 21
-0.436485
 31
-0.926834
 12
-3.061496
 22
0.563883
 32
-1.460034
 13
-3.061496
 23
0.563883
 33
-1.460034
 62
0
 0
ENDSEC
 0
EOF
