  0
SECTION
  2
HEADER
  0
ENDSEC
  0
SECTION
  2
TABLES
  0
TABLE
  2
LAYER
  70
    153
  0
LAYER
  2
Cylinder
 70
0
 62
15
  6
CONTINUOUS
  0
LAYER
  2
LowerBody
 70
0
 62
15
  6
CONTINUOUS
  0
LAYER
  2
Cube1
 70
0
 62
15
  6
CONTINUOUS
  0
LAYER
  2
Cube2
 70
0
 62
15
  6
CONTINUOUS
  0
LAYER
  2
Cylinder1
 70
0
 62
15
  6
CONTINUOUS
  0
LAYER
  2
Cylinder6
 70
0
 62
15
  6
CONTINUOUS
  0
LAYER
  2
RUArm
 70
0
 62
15
  6
CONTINUOUS
  0
LAYER
  2
Cylinder2
 70
0
 62
15
  6
CONTINUOUS
  0
LAYER
  2
Cylinder4
 70
0
 62
15
  6
CONTINUOUS
  0
ENDTAB
  0
ENDSEC
  0
SECTION
  2
ENTITIES
  0
3DFACE
  8
Cylinder
 10
-1.701466
 20
-0.781506
 30
0.871659
 11
-0.850730
 21
-0.781508
 31
0.514585
 12
-0.850729
 22
0.393687
 32
0.661615
 13
-1.701473
 23
0.393687
 33
1.081718
 62
0
  0
3DFACE
  8
Cylinder
 10
-0.850730
 20
-0.781508
 30
0.514585
 11
0.850757
 21
-0.781508
 31
0.514589
 12
0.850758
 22
0.393687
 32
0.661619
 13
-0.850729
 23
0.393687
 33
0.661615
 62
0
  0
3DFACE
  8
Cylinder
 10
0.850757
 20
-0.781508
 30
0.514589
 11
1.701501
 21
-0.781508
 31
0.871665
 12
1.701501
 22
0.393687
 32
1.081725
 13
0.850758
 23
0.393687
 33
0.661619
 62
0
  0
3DFACE
  8
Cylinder
 10
0.850758
 20
0.393687
 30
1.648858
 11
1.701501
 21
0.393687
 31
1.081725
 12
0.850757
 22
-0.781510
 32
1.813599
 13
0.850757
 23
-0.781510
 33
1.813599
 62
0
  0
3DFACE
  8
Cylinder
 10
0.850757
 20
-0.781510
 30
1.813599
 11
-0.850730
 21
-0.781510
 31
1.813596
 12
-0.850729
 22
0.393687
 32
1.648855
 13
0.850758
 23
0.393687
 33
1.648858
 62
0
  0
3DFACE
  8
Cylinder
 10
-0.850729
 20
0.393687
 30
1.648855
 11
-0.850730
 21
-0.781510
 31
1.813596
 12
-1.701473
 22
0.393687
 32
1.081718
 13
-1.701473
 23
0.393687
 33
1.081718
 62
0
  0
3DFACE
  8
Cylinder
 10
1.701501
 20
-0.781508
 30
0.871665
 11
0.850757
 21
-0.781508
 31
0.514589
 12
-0.850730
 22
-0.781508
 32
0.514585
 13
-0.850730
 23
-0.781508
 33
0.514585
 62
0
  0
3DFACE
  8
Cylinder
 10
-1.701466
 20
-0.781506
 30
0.871659
 11
1.701501
 21
-0.781508
 31
0.871665
 12
-0.850730
 22
-0.781508
 32
0.514585
 13
-0.850730
 23
-0.781508
 33
0.514585
 62
0
  0
3DFACE
  8
Cylinder
 10
0.850757
 20
-0.781510
 30
1.813599
 11
1.701501
 21
-0.781508
 31
0.871665
 12
-1.701466
 22
-0.781506
 32
0.871659
 13
-1.701466
 23
-0.781506
 33
0.871659
 62
0
  0
3DFACE
  8
Cylinder
 10
-0.850730
 20
-0.781510
 30
1.813596
 11
0.850757
 21
-0.781510
 31
1.813599
 12
-1.701466
 22
-0.781506
 32
0.871659
 13
-1.701466
 23
-0.781506
 33
0.871659
 62
0
  0
3DFACE
  8
Cylinder
 10
-0.850729
 20
0.393687
 30
0.661615
 11
0.850758
 21
0.393687
 31
0.661619
 12
0.000014
 22
0.603156
 32
0.878664
 13
0.000014
 23
0.603156
 33
0.878664
 62
0
  0
3DFACE
  8
Cylinder
 10
0.000014
 20
0.603156
 30
0.878664
 11
-0.236965
 21
0.555726
 31
0.851418
 12
-0.850729
 22
0.393687
 32
0.661615
 13
-0.850729
 23
0.393687
 33
0.661615
 62
4
  0
3DFACE
  8
Cylinder
 10
-0.327213
 20
0.562871
 30
0.917715
 11
-0.236965
 21
0.555726
 31
0.851418
 12
0.000014
 22
0.603156
 32
0.878664
 13
0.000014
 23
0.603156
 33
0.878664
 62
4
  0
3DFACE
  8
Cylinder
 10
-0.885307
 20
0.475501
 30
0.927548
 11
-0.850729
 21
0.393687
 31
0.661615
 12
-0.236965
 22
0.555726
 32
0.851418
 13
-0.236965
 23
0.555726
 33
0.851418
 62
4
  0
3DFACE
  8
Cylinder
 10
-0.948427
 20
0.486394
 30
0.991850
 11
-0.850729
 21
0.393687
 31
0.661615
 12
-0.885307
 22
0.475501
 32
0.927548
 13
-0.885307
 23
0.475501
 33
0.927548
 62
4
  0
3DFACE
  8
Cylinder
 10
-1.701473
 20
0.393687
 30
1.081718
 11
-0.850729
 21
0.393687
 31
0.661615
 12
-0.948427
 22
0.486394
 32
0.991850
 13
-0.948427
 23
0.486394
 33
0.991850
 62
4
  0
3DFACE
  8
Cylinder
 10
0.850758
 20
0.393687
 30
1.648858
 11
-0.850729
 21
0.393687
 31
1.648855
 12
0.000014
 22
0.603156
 32
0.878664
 13
0.000014
 23
0.603156
 33
0.878664
 62
0
  0
3DFACE
  8
Cylinder
 10
-1.701466
 20
-0.781506
 30
0.871659
 11
-1.701473
 21
0.393687
 31
1.081718
 12
-0.850730
 22
-0.781510
 32
1.813596
 13
-0.850730
 23
-0.781510
 33
1.813596
 62
0
  0
3DFACE
  8
Cylinder
 10
1.701501
 20
-0.781508
 30
0.871665
 11
0.850757
 21
-0.781510
 31
1.813599
 12
1.701501
 22
0.393687
 32
1.081725
 13
1.701501
 23
0.393687
 33
1.081725
 62
0
  0
3DFACE
  8
Cylinder
 10
0.610352
 20
0.500699
 30
1.125919
 11
0.000014
 21
0.603156
 31
0.878664
 12
0.326876
 22
0.562916
 32
0.917673
 13
0.326876
 23
0.562916
 33
0.917673
 62
1
  0
3DFACE
  8
Cylinder
 10
0.850758
 20
0.393687
 30
1.648858
 11
0.000014
 21
0.603156
 31
0.878664
 12
0.610352
 22
0.500699
 32
1.125919
 13
0.610352
 23
0.500699
 33
1.125919
 62
1
  0
3DFACE
  8
Cylinder
 10
0.850758
 20
0.393687
 30
1.648858
 11
0.610352
 21
0.500699
 31
1.125919
 12
1.267259
 22
0.402186
 32
1.316942
 13
1.267259
 23
0.402186
 33
1.316942
 62
1
  0
3DFACE
  8
Cylinder
 10
1.267259
 20
0.402186
 30
1.316942
 11
0.948109
 21
0.486436
 31
0.991813
 12
1.701501
 22
0.393687
 32
1.081725
 13
1.701501
 23
0.393687
 33
1.081725
 62
1
  0
3DFACE
  8
Cylinder
 10
0.850758
 20
0.393687
 30
1.648858
 11
1.267259
 21
0.402186
 31
1.316942
 12
1.701501
 22
0.393687
 32
1.081725
 13
1.701501
 23
0.393687
 33
1.081725
 62
1
  0
3DFACE
  8
Cylinder
 10
-0.610629
 20
0.500667
 30
1.125916
 11
-0.327213
 21
0.562871
 31
0.917715
 12
0.000014
 22
0.603156
 32
0.878664
 13
0.000014
 23
0.603156
 33
0.878664
 62
4
  0
3DFACE
  8
Cylinder
 10
-0.850729
 20
0.393687
 30
1.648855
 11
-0.610629
 21
0.500667
 31
1.125916
 12
0.000014
 22
0.603156
 32
0.878664
 13
0.000014
 23
0.603156
 33
0.878664
 62
4
  0
3DFACE
  8
Cylinder
 10
-0.850729
 20
0.393687
 30
1.648855
 11
-1.267537
 21
0.402155
 31
1.316937
 12
-0.610629
 22
0.500667
 32
1.125916
 13
-0.610629
 23
0.500667
 33
1.125916
 62
4
  0
3DFACE
  8
Cylinder
 10
-1.267537
 20
0.402155
 30
1.316937
 11
-1.701473
 21
0.393687
 31
1.081718
 12
-0.948427
 22
0.486394
 32
0.991850
 13
-0.948427
 23
0.486394
 33
0.991850
 62
4
  0
3DFACE
  8
Cylinder
 10
-0.850729
 20
0.393687
 30
1.648855
 11
-1.701473
 21
0.393687
 31
1.081718
 12
-1.267537
 22
0.402155
 32
1.316937
 13
-1.267537
 23
0.402155
 33
1.316937
 62
4
  0
3DFACE
  8
Cylinder
 10
-1.267537
 20
0.402155
 30
1.316937
 11
-0.885307
 21
0.351054
 31
0.927548
 12
-1.267537
 22
0.351054
 32
1.316937
 13
-1.267537
 23
0.351054
 33
1.316937
 62
4
  0
3DFACE
  8
Cylinder
 10
-0.885307
 20
0.475501
 30
0.927548
 11
-0.885307
 21
0.351054
 31
0.927548
 12
-1.267537
 22
0.402155
 32
1.316937
 13
-1.267537
 23
0.402155
 33
1.316937
 62
4
  0
3DFACE
  8
Cylinder
 10
-0.948427
 20
0.486394
 30
0.991850
 11
-0.885307
 21
0.475501
 31
0.927548
 12
-1.267537
 22
0.402155
 32
1.316937
 13
-1.267537
 23
0.402155
 33
1.316937
 62
4
  0
3DFACE
  8
Cylinder
 10
-1.267537
 20
0.351054
 30
1.316937
 11
-0.610629
 21
0.351054
 31
1.125916
 12
-0.610629
 22
0.500667
 32
1.125916
 13
-1.267537
 23
0.402155
 33
1.316937
 62
4
  0
3DFACE
  8
Cylinder
 10
-0.610629
 20
0.351054
 30
1.125916
 11
-1.267537
 21
0.351054
 31
1.316937
 12
-0.885307
 22
0.351054
 32
0.927548
 13
-0.236966
 23
0.351054
 33
0.851418
 62
3
  0
3DFACE
  8
Cylinder
 10
-0.236966
 20
0.351054
 30
0.851418
 11
-0.885307
 21
0.351054
 31
0.927548
 12
-0.885307
 22
0.475501
 32
0.927548
 13
-0.236965
 23
0.555726
 33
0.851418
 62
4
  0
3DFACE
  8
Cylinder
 10
-0.610629
 20
0.500667
 30
1.125916
 11
-0.610629
 21
0.351054
 31
1.125916
 12
-0.236966
 22
0.351054
 32
0.851418
 13
-0.236966
 23
0.351054
 33
0.851418
 62
4
  0
3DFACE
  8
Cylinder
 10
-0.236965
 20
0.555726
 30
0.851418
 11
-0.610629
 21
0.500667
 31
1.125916
 12
-0.236966
 22
0.351054
 32
0.851418
 13
-0.236966
 23
0.351054
 33
0.851418
 62
4
  0
3DFACE
  8
Cylinder
 10
-0.327213
 20
0.562871
 30
0.917715
 11
-0.610629
 21
0.500667
 31
1.125916
 12
-0.236965
 22
0.555726
 32
0.851418
 13
-0.236965
 23
0.555726
 33
0.851418
 62
4
  0
3DFACE
  8
Cylinder
 10
0.000014
 20
0.603156
 30
0.878664
 11
0.850758
 21
0.393687
 31
0.661619
 12
0.236688
 22
0.555776
 32
0.851419
 13
0.236688
 23
0.555776
 33
0.851419
 62
1
  0
3DFACE
  8
Cylinder
 10
0.326876
 20
0.562916
 30
0.917673
 11
0.000014
 21
0.603156
 31
0.878664
 12
0.236688
 22
0.555776
 32
0.851419
 13
0.236688
 23
0.555776
 33
0.851419
 62
1
  0
3DFACE
  8
Cylinder
 10
0.885030
 20
0.475551
 30
0.927551
 11
0.236688
 21
0.555776
 31
0.851419
 12
0.850758
 22
0.393687
 32
0.661619
 13
0.850758
 23
0.393687
 33
0.661619
 62
1
  0
3DFACE
  8
Cylinder
 10
0.948109
 20
0.486436
 30
0.991813
 11
0.885030
 21
0.475551
 31
0.927551
 12
0.850758
 22
0.393687
 32
0.661619
 13
0.850758
 23
0.393687
 33
0.661619
 62
1
  0
3DFACE
  8
Cylinder
 10
1.701501
 20
0.393687
 30
1.081725
 11
0.948109
 21
0.486436
 31
0.991813
 12
0.850758
 22
0.393687
 32
0.661619
 13
0.850758
 23
0.393687
 33
0.661619
 62
1
  0
3DFACE
  8
Cylinder
 10
1.267259
 20
0.351054
 30
1.316942
 11
0.610351
 21
0.351054
 31
1.125919
 12
0.236688
 22
0.351054
 32
0.851419
 13
0.885030
 23
0.351054
 33
0.927551
 62
2
  0
3DFACE
  8
Cylinder
 10
0.885030
 20
0.351054
 30
0.927551
 11
0.236688
 21
0.351054
 31
0.851419
 12
0.236688
 22
0.555776
 32
0.851419
 13
0.885030
 23
0.475551
 33
0.927551
 62
4
  0
3DFACE
  8
Cylinder
 10
0.610351
 20
0.351054
 30
1.125919
 11
1.267259
 21
0.351054
 31
1.316942
 12
1.267259
 22
0.402186
 32
1.316942
 13
0.610352
 23
0.500699
 33
1.125919
 62
4
  0
3DFACE
  8
Cylinder
 10
0.610352
 20
0.500699
 30
1.125919
 11
0.236688
 21
0.351054
 31
0.851419
 12
0.610351
 22
0.351054
 32
1.125919
 13
0.610351
 23
0.351054
 33
1.125919
 62
4
  0
3DFACE
  8
Cylinder
 10
0.236688
 20
0.555776
 30
0.851419
 11
0.236688
 21
0.351054
 31
0.851419
 12
0.610352
 22
0.500699
 32
1.125919
 13
0.610352
 23
0.500699
 33
1.125919
 62
4
  0
3DFACE
  8
Cylinder
 10
0.326876
 20
0.562916
 30
0.917673
 11
0.236688
 21
0.555776
 31
0.851419
 12
0.610352
 22
0.500699
 32
1.125919
 13
0.610352
 23
0.500699
 33
1.125919
 62
4
  0
3DFACE
  8
Cylinder
 10
1.267259
 20
0.402186
 30
1.316942
 11
1.267259
 21
0.351054
 31
1.316942
 12
0.885030
 22
0.351054
 32
0.927551
 13
0.885030
 23
0.351054
 33
0.927551
 62
4
  0
3DFACE
  8
Cylinder
 10
0.885030
 20
0.475551
 30
0.927551
 11
1.267259
 21
0.402186
 31
1.316942
 12
0.885030
 22
0.351054
 32
0.927551
 13
0.885030
 23
0.351054
 33
0.927551
 62
4
  0
3DFACE
  8
Cylinder
 10
0.948109
 20
0.486436
 30
0.991813
 11
1.267259
 21
0.402186
 31
1.316942
 12
0.885030
 22
0.475551
 32
0.927551
 13
0.885030
 23
0.475551
 33
0.927551
 62
4
  0
3DFACE
  8
LowerBody
 10
1.488958
 20
1.451884
 30
-1.327134
 11
1.488956
 21
-1.029907
 31
-1.824116
 12
2.316148
 22
-0.037190
 32
-0.498831
 13
2.316148
 23
-0.037190
 33
-0.498831
 62
0
  0
3DFACE
  8
LowerBody
 10
1.488958
 20
1.451884
 30
-1.327134
 11
-1.488927
 21
1.451886
 31
-1.327138
 12
-1.488930
 22
-1.029908
 32
-1.824122
 13
1.488956
 23
-1.029907
 33
-1.824116
 62
0
  0
3DFACE
  8
LowerBody
 10
1.488958
 20
1.451884
 30
-1.327134
 11
2.316148
 21
-0.037190
 31
-0.498831
 12
1.819834
 22
-0.037190
 32
-0.805304
 13
1.819834
 23
-0.037190
 33
-0.805304
 62
0
  0
3DFACE
  8
LowerBody
 10
1.819834
 20
-0.037190
 30
-0.805304
 11
2.316148
 21
-0.037190
 31
-0.498831
 12
2.067990
 22
-1.029907
 32
-0.498832
 13
2.067990
 23
-1.029907
 33
-0.498832
 62
0
  0
3DFACE
  8
LowerBody
 10
-2.067965
 20
-1.029907
 30
-0.498841
 11
-1.488930
 21
-1.029908
 31
-1.824122
 12
-2.316121
 22
-0.037191
 32
-0.498841
 13
-2.316121
 23
-0.037191
 33
-0.498841
 62
0
  0
3DFACE
  8
LowerBody
 10
-2.067965
 20
-1.029907
 30
-0.498841
 11
2.067990
 21
-1.029907
 31
-0.498832
 12
1.488956
 22
-1.029907
 32
-1.824116
 13
-1.488930
 23
-1.029908
 33
-1.824122
 62
0
  0
3DFACE
  8
LowerBody
 10
-1.488927
 20
1.451886
 30
-1.327138
 11
-2.316121
 21
-0.037191
 31
-0.498841
 12
-1.488930
 22
-1.029908
 32
-1.824122
 13
-1.488930
 23
-1.029908
 33
-1.824122
 62
0
  0
3DFACE
  8
LowerBody
 10
2.067990
 20
-1.029907
 30
-0.498832
 11
2.316148
 21
-0.037190
 31
-0.498831
 12
1.488956
 22
-1.029907
 32
-1.824116
 13
1.488956
 23
-1.029907
 33
-1.824116
 62
0
  0
3DFACE
  8
LowerBody
 10
-2.067965
 20
-1.029907
 30
-0.498841
 11
-2.316121
 21
-0.037191
 31
-0.498841
 12
-1.819807
 22
-0.037193
 32
-0.805310
 13
-1.819807
 23
-0.037193
 33
-0.805310
 62
0
  0
3DFACE
  8
LowerBody
 10
-1.819807
 20
-0.037193
 30
-0.805310
 11
-2.316121
 21
-0.037191
 31
-0.498841
 12
-1.488927
 22
1.451886
 32
-1.327138
 13
-1.488927
 23
1.451886
 33
-1.327138
 62
0
  0
3DFACE
  8
LowerBody
 10
2.067990
 20
-1.029907
 30
-0.498832
 11
-2.067965
 21
-1.029907
 31
-0.498841
 12
-1.819807
 22
-0.037193
 32
-0.805310
 13
1.819834
 23
-0.037190
 33
-0.805304
 62
0
  0
3DFACE
  8
LowerBody
 10
1.819834
 20
-0.037190
 30
-0.805304
 11
-1.819807
 21
-0.037193
 31
-0.805310
 12
-1.488927
 22
1.451886
 32
-1.327138
 13
1.488958
 23
1.451884
 33
-1.327134
 62
0
  0
3DFACE
  8
Cube1
 10
-1.540313
 20
0.001030
 30
-1.006392
 11
-2.800579
 21
0.001028
 31
0.010477
 12
-2.800580
 22
-1.399266
 32
-0.318591
 13
-2.800580
 23
-1.399266
 33
-0.318591
 62
0
  0
3DFACE
  8
Cube1
 10
-2.800579
 20
0.001028
 30
0.010477
 11
-2.800578
 21
1.401323
 31
0.369177
 12
-2.800579
 22
0.421119
 32
1.081697
 13
-2.800579
 23
0.421119
 33
1.081697
 62
0
  0
3DFACE
  8
Cube1
 10
-2.800580
 20
-1.259236
 30
1.081697
 11
-2.800579
 21
0.001028
 31
0.010477
 12
-2.800579
 22
0.421119
 32
1.081697
 13
-2.800579
 23
0.421119
 33
1.081697
 62
0
  0
3DFACE
  8
Cube1
 10
-2.800580
 20
-1.399266
 30
-0.318591
 11
-2.800579
 21
0.001028
 31
0.010477
 12
-2.800580
 22
-1.259236
 32
1.081697
 13
-2.800580
 23
-1.259236
 33
1.081697
 62
0
  0
3DFACE
  8
Cube1
 10
-0.980195
 20
-1.119208
 30
0.447459
 11
0.980220
 21
-1.119208
 31
0.447463
 12
0.980220
 22
-1.399266
 32
-0.318583
 13
-0.980195
 23
-1.399266
 33
-0.318587
 62
0
  0
3DFACE
  8
Cube1
 10
0.980221
 20
0.421119
 30
0.661618
 11
-0.980194
 21
0.421119
 31
0.661614
 12
-0.980193
 22
1.401322
 32
0.369181
 13
0.980222
 23
1.401322
 33
0.369185
 62
0
  0
3DFACE
  8
Cube1
 10
0.980221
 20
0.421119
 30
0.661618
 11
2.800606
 21
0.421119
 31
1.081708
 12
2.800605
 22
-1.259236
 32
1.081708
 13
0.980220
 23
-1.119208
 33
0.447463
 62
0
  0
3DFACE
  8
Cube1
 10
2.800606
 20
0.001030
 30
0.010488
 11
2.800606
 21
0.421119
 31
1.081708
 12
2.800607
 22
1.401322
 32
0.369188
 13
2.800607
 23
1.401322
 33
0.369188
 62
0
  0
3DFACE
  8
Cube1
 10
2.800605
 20
-1.259236
 30
1.081708
 11
2.800606
 21
0.421119
 31
1.081708
 12
2.800606
 22
0.001030
 32
0.010488
 13
2.800606
 23
0.001030
 33
0.010488
 62
0
  0
3DFACE
  8
Cube1
 10
2.800605
 20
-1.399266
 30
-0.318580
 11
2.800605
 21
-1.259236
 31
1.081708
 12
2.800606
 22
0.001030
 32
0.010488
 13
2.800606
 23
0.001030
 33
0.010488
 62
0
  0
3DFACE
  8
Cube1
 10
-0.980195
 20
-1.119208
 30
0.447459
 11
-0.980194
 21
0.421119
 31
0.661614
 12
0.980221
 22
0.421119
 32
0.661618
 13
0.980220
 23
-1.119208
 33
0.447463
 62
0
  0
3DFACE
  8
Cube1
 10
-0.980194
 20
0.421119
 30
0.661614
 11
-0.980195
 21
-1.119208
 31
0.447459
 12
-2.800580
 22
-1.259236
 32
1.081697
 13
-2.800579
 23
0.421119
 33
1.081697
 62
0
  0
3DFACE
  8
Cube1
 10
2.800606
 20
0.421119
 30
1.081708
 11
0.980222
 21
1.401322
 31
0.369185
 12
2.800607
 22
1.401322
 32
0.369188
 13
2.800607
 23
1.401322
 33
0.369188
 62
0
  0
3DFACE
  8
Cube1
 10
-0.980193
 20
1.401322
 30
0.369181
 11
-2.800579
 21
0.421119
 31
1.081697
 12
-2.800578
 22
1.401323
 32
0.369177
 13
-2.800578
 23
1.401323
 33
0.369177
 62
0
  0
3DFACE
  8
Cube1
 10
-0.980195
 20
-1.119208
 30
0.447459
 11
-0.980195
 21
-1.399266
 31
-0.318587
 12
-2.800580
 22
-1.259236
 32
1.081697
 13
-2.800580
 23
-1.259236
 33
1.081697
 62
0
  0
3DFACE
  8
Cube1
 10
2.800605
 20
-1.399266
 30
-0.318580
 11
0.980220
 21
-1.399266
 31
-0.318583
 12
2.800605
 22
-1.259236
 32
1.081708
 13
2.800605
 23
-1.259236
 33
1.081708
 62
0
  0
3DFACE
  8
Cube1
 10
0.980222
 20
1.401322
 30
0.369185
 11
2.800606
 21
0.421119
 31
1.081708
 12
0.980221
 22
0.421119
 32
0.661618
 13
0.980221
 23
0.421119
 33
0.661618
 62
0
  0
3DFACE
  8
Cube1
 10
-2.800579
 20
0.421119
 30
1.081697
 11
-0.980193
 21
1.401322
 31
0.369181
 12
-0.980194
 22
0.421119
 32
0.661614
 13
-0.980194
 23
0.421119
 33
0.661614
 62
0
  0
3DFACE
  8
Cube1
 10
-2.800580
 20
-1.399266
 30
-0.318591
 11
-2.800580
 21
-1.259236
 31
1.081697
 12
-0.980195
 22
-1.399266
 32
-0.318587
 13
-0.980195
 23
-1.399266
 33
-0.318587
 62
0
  0
3DFACE
  8
Cube1
 10
0.980220
 20
-1.119208
 30
0.447463
 11
2.800605
 21
-1.259236
 31
1.081708
 12
0.980220
 22
-1.399266
 32
-0.318583
 13
0.980220
 23
-1.399266
 33
-0.318583
 62
0
  0
3DFACE
  8
Cube1
 10
-2.800578
 20
1.401323
 30
0.369177
 11
-2.800579
 21
0.001028
 31
0.010477
 12
-1.540313
 22
0.001030
 32
-1.006392
 13
-1.540313
 23
0.001030
 33
-1.006392
 62
0
  0
3DFACE
  8
Cube1
 10
1.540340
 20
0.001030
 30
-1.006386
 11
2.800606
 21
0.001030
 31
0.010488
 12
2.800607
 22
1.401322
 32
0.369188
 13
2.800607
 23
1.401322
 33
0.369188
 62
0
  0
3DFACE
  8
Cube1
 10
2.800605
 20
-1.399266
 30
-0.318580
 11
2.800606
 21
0.001030
 31
0.010488
 12
1.540340
 22
0.001030
 32
-1.006386
 13
1.540340
 23
0.001030
 33
-1.006386
 62
0
  0
3DFACE
  8
Cube1
 10
-0.980193
 20
1.401322
 30
0.369181
 11
-2.800578
 21
1.401323
 31
0.369177
 12
-1.540313
 22
0.001030
 32
-1.006392
 13
-1.540313
 23
0.001030
 33
-1.006392
 62
0
  0
3DFACE
  8
Cube1
 10
0.980222
 20
1.401322
 30
0.369185
 11
-0.980193
 21
1.401322
 31
0.369181
 12
-1.540313
 22
0.001030
 32
-1.006392
 13
-1.540313
 23
0.001030
 33
-1.006392
 62
0
  0
3DFACE
  8
Cube1
 10
1.540340
 20
0.001030
 30
-1.006386
 11
0.980222
 21
1.401322
 31
0.369185
 12
-1.540313
 22
0.001030
 32
-1.006392
 13
-1.540313
 23
0.001030
 33
-1.006392
 62
0
  0
3DFACE
  8
Cube1
 10
2.800607
 20
1.401322
 30
0.369188
 11
0.980222
 21
1.401322
 31
0.369185
 12
1.540340
 22
0.001030
 32
-1.006386
 13
1.540340
 23
0.001030
 33
-1.006386
 62
0
  0
3DFACE
  8
Cube1
 10
-0.980195
 20
-1.399266
 30
-0.318587
 11
-1.540313
 21
0.001030
 31
-1.006392
 12
-2.800580
 22
-1.399266
 32
-0.318591
 13
-2.800580
 23
-1.399266
 33
-0.318591
 62
0
  0
3DFACE
  8
Cube1
 10
0.980220
 20
-1.399266
 30
-0.318583
 11
-1.540313
 21
0.001030
 31
-1.006392
 12
-0.980195
 22
-1.399266
 32
-0.318587
 13
-0.980195
 23
-1.399266
 33
-0.318587
 62
0
  0
3DFACE
  8
Cube1
 10
1.540340
 20
0.001030
 30
-1.006386
 11
-1.540313
 21
0.001030
 31
-1.006392
 12
0.980220
 22
-1.399266
 32
-0.318583
 13
0.980220
 23
-1.399266
 33
-0.318583
 62
0
  0
3DFACE
  8
Cube1
 10
2.800605
 20
-1.399266
 30
-0.318580
 11
1.540340
 21
0.001030
 31
-1.006386
 12
0.980220
 22
-1.399266
 32
-0.318583
 13
0.980220
 23
-1.399266
 33
-0.318583
 62
0
  0
3DFACE
  8
Cube2
 10
-2.800581
 20
-0.783148
 30
1.291742
 11
-2.800581
 21
0.393102
 31
1.291742
 12
-2.800581
 22
0.589144
 32
-1.291811
 13
-2.800581
 23
-0.587106
 33
-1.291811
 62
0
  0
3DFACE
  8
Cube2
 10
-2.800581
 20
0.589144
 30
-1.291811
 11
-3.570744
 21
0.589143
 31
-1.291813
 12
-3.570744
 22
-0.587106
 32
-1.291812
 13
-2.800581
 23
-0.587106
 33
-1.291811
 62
0
  0
3DFACE
  8
Cube2
 10
-3.570744
 20
0.589143
 30
-1.291813
 11
-2.800581
 21
0.589144
 31
-1.291811
 12
-3.500729
 22
0.393102
 32
0.450584
 13
-3.500729
 23
0.393102
 33
0.450584
 62
0
  0
3DFACE
  8
Cube2
 10
-2.800581
 20
-0.783148
 30
1.291742
 11
-3.500730
 21
-0.783148
 31
0.450584
 12
-3.500729
 22
0.393102
 32
0.450584
 13
-2.800581
 23
0.393102
 33
1.291742
 62
0
  0
3DFACE
  8
Cube2
 10
-3.500729
 20
0.393102
 30
0.450584
 11
-3.500730
 21
-0.783148
 31
0.450584
 12
-3.570744
 22
-0.587106
 32
-1.291812
 13
-3.570744
 23
0.589143
 33
-1.291813
 62
0
  0
3DFACE
  8
Cube2
 10
-3.500730
 20
-0.783148
 30
0.450584
 11
-2.800581
 21
-0.783148
 31
1.291742
 12
-2.800581
 22
-0.587106
 32
-1.291811
 13
-2.800581
 23
-0.587106
 33
-1.291811
 62
0
  0
3DFACE
  8
Cube2
 10
-2.800581
 20
0.393102
 30
1.291742
 11
-3.500729
 21
0.393102
 31
0.450584
 12
-2.800581
 22
0.589144
 32
-1.291811
 13
-2.800581
 23
0.589144
 33
-1.291811
 62
0
  0
3DFACE
  8
Cube2
 10
-2.800581
 20
-0.587106
 30
-1.291811
 11
-3.570744
 21
-0.587106
 31
-1.291812
 12
-3.500730
 22
-0.783148
 32
0.450584
 13
-3.500730
 23
-0.783148
 33
0.450584
 62
0
  0
3DFACE
  8
Cylinder1
 10
-2.700485
 20
-0.291531
 30
-1.291789
 11
-2.700484
 21
1.431574
 31
-1.291789
 12
-3.292107
 22
1.431573
 32
-2.285995
 13
-3.292115
 23
-0.536278
 33
-2.089987
 62
0
  0
3DFACE
  8
Cylinder1
 10
-3.883737
 20
-0.291532
 30
-1.291791
 11
-3.883736
 21
1.431574
 31
-1.291792
 12
-2.700484
 22
1.431574
 32
-1.291789
 13
-2.700485
 23
-0.291531
 33
-1.291789
 62
0
  0
3DFACE
  8
Cylinder1
 10
-3.292115
 20
-0.536278
 30
-2.089987
 11
-3.292107
 21
1.431573
 31
-2.285995
 12
-3.883736
 22
1.431574
 32
-1.291792
 13
-3.883737
 23
-0.291532
 33
-1.291791
 62
0
  0
3DFACE
  8
Cylinder1
 10
-3.883737
 20
-0.291532
 30
-1.291791
 11
-2.700485
 21
-0.291531
 31
-1.291789
 12
-3.292115
 22
-0.536278
 32
-2.089987
 13
-3.292115
 23
-0.536278
 33
-2.089987
 62
0
  0
3DFACE
  8
Cylinder1
 10
-3.292107
 20
1.431573
 30
-2.285995
 11
-2.700484
 21
1.431574
 31
-1.291789
 12
-3.883736
 22
1.431574
 32
-1.291792
 13
-3.883736
 23
1.431574
 33
-1.291792
 62
0
  0
3DFACE
  8
Cylinder6
 10
-3.563791
 20
2.701265
 30
-1.752970
 11
-3.586116
 21
2.701265
 31
-1.640733
 12
-3.586116
 22
1.242435
 32
-1.640733
 13
-3.563790
 23
1.242435
 33
-1.752970
 62
0
  0
3DFACE
  8
Cylinder6
 10
-3.500214
 20
2.701265
 30
-1.848120
 11
-3.563791
 21
2.701265
 31
-1.752970
 12
-3.563790
 22
1.242435
 32
-1.752970
 13
-3.500214
 23
1.242435
 33
-1.848119
 62
0
  0
3DFACE
  8
Cylinder6
 10
-3.405065
 20
2.701265
 30
-1.911697
 11
-3.500214
 21
2.701265
 31
-1.848120
 12
-3.500214
 22
1.242435
 32
-1.848119
 13
-3.405064
 23
1.242435
 33
-1.911695
 62
0
  0
3DFACE
  8
Cylinder6
 10
-3.292828
 20
2.701265
 30
-1.934022
 11
-3.405065
 21
2.701265
 31
-1.911697
 12
-3.405064
 22
1.242435
 32
-1.911695
 13
-3.292828
 23
1.242435
 33
-1.934021
 62
0
  0
3DFACE
  8
Cylinder6
 10
-3.180592
 20
2.701265
 30
-1.911697
 11
-3.292828
 21
2.701265
 31
-1.934022
 12
-3.292828
 22
1.242435
 32
-1.934021
 13
-3.180592
 23
1.242435
 33
-1.911695
 62
0
  0
3DFACE
  8
Cylinder6
 10
-3.085442
 20
2.701265
 30
-1.848120
 11
-3.180592
 21
2.701265
 31
-1.911697
 12
-3.180592
 22
1.242435
 32
-1.911695
 13
-3.085442
 23
1.242435
 33
-1.848119
 62
0
  0
3DFACE
  8
Cylinder6
 10
-3.021865
 20
2.701265
 30
-1.752970
 11
-3.085442
 21
2.701265
 31
-1.848120
 12
-3.085442
 22
1.242435
 32
-1.848119
 13
-3.021866
 23
1.242435
 33
-1.752970
 62
0
  0
3DFACE
  8
Cylinder6
 10
-2.999540
 20
2.701265
 30
-1.640733
 11
-3.021865
 21
2.701265
 31
-1.752970
 12
-3.021866
 22
1.242435
 32
-1.752970
 13
-2.999541
 23
1.242435
 33
-1.640733
 62
0
  0
3DFACE
  8
Cylinder6
 10
-3.021865
 20
2.701265
 30
-1.528497
 11
-2.999540
 21
2.701265
 31
-1.640733
 12
-2.999541
 22
1.242435
 32
-1.640733
 13
-3.021866
 23
1.242435
 33
-1.528497
 62
0
  0
3DFACE
  8
Cylinder6
 10
-3.085442
 20
2.701265
 30
-1.433347
 11
-3.021865
 21
2.701265
 31
-1.528497
 12
-3.021866
 22
1.242435
 32
-1.528497
 13
-3.085442
 23
1.242435
 33
-1.433348
 62
0
  0
3DFACE
  8
Cylinder6
 10
-3.180592
 20
2.701265
 30
-1.369770
 11
-3.085442
 21
2.701265
 31
-1.433347
 12
-3.085442
 22
1.242435
 32
-1.433348
 13
-3.180592
 23
1.242435
 33
-1.369772
 62
0
  0
3DFACE
  8
Cylinder6
 10
-3.292828
 20
2.701265
 30
-1.347445
 11
-3.180592
 21
2.701265
 31
-1.369770
 12
-3.180592
 22
1.242435
 32
-1.369772
 13
-3.292828
 23
1.242435
 33
-1.347446
 62
0
  0
3DFACE
  8
Cylinder6
 10
-3.405065
 20
2.701265
 30
-1.369770
 11
-3.292828
 21
2.701265
 31
-1.347445
 12
-3.292828
 22
1.242435
 32
-1.347446
 13
-3.405064
 23
1.242435
 33
-1.369772
 62
0
  0
3DFACE
  8
Cylinder6
 10
-3.500214
 20
2.701265
 30
-1.433347
 11
-3.405065
 21
2.701265
 31
-1.369770
 12
-3.405064
 22
1.242435
 32
-1.369772
 13
-3.500214
 23
1.242435
 33
-1.433348
 62
0
  0
3DFACE
  8
Cylinder6
 10
-3.563791
 20
2.701265
 30
-1.528497
 11
-3.500214
 21
2.701265
 31
-1.433347
 12
-3.500214
 22
1.242435
 32
-1.433348
 13
-3.563790
 23
1.242435
 33
-1.528497
 62
0
  0
3DFACE
  8
Cylinder6
 10
-3.586116
 20
2.701265
 30
-1.640733
 11
-3.563791
 21
2.701265
 31
-1.528497
 12
-3.563790
 22
1.242435
 32
-1.528497
 13
-3.586116
 23
1.242435
 33
-1.640733
 62
0
  0
3DFACE
  8
Cylinder6
 10
-3.405064
 20
1.242435
 30
-1.911695
 11
-3.180592
 21
1.242435
 31
-1.911695
 12
-3.292828
 22
1.242435
 32
-1.934021
 13
-3.292828
 23
1.242435
 33
-1.934021
 62
0
  0
3DFACE
  8
Cylinder6
 10
-3.085442
 20
1.242435
 30
-1.848119
 11
-3.180592
 21
1.242435
 31
-1.911695
 12
-3.405064
 22
1.242435
 32
-1.911695
 13
-3.405064
 23
1.242435
 33
-1.911695
 62
0
  0
3DFACE
  8
Cylinder6
 10
-3.500214
 20
1.242435
 30
-1.848119
 11
-3.085442
 21
1.242435
 31
-1.848119
 12
-3.405064
 22
1.242435
 32
-1.911695
 13
-3.405064
 23
1.242435
 33
-1.911695
 62
0
  0
3DFACE
  8
Cylinder6
 10
-3.021866
 20
1.242435
 30
-1.752970
 11
-3.085442
 21
1.242435
 31
-1.848119
 12
-3.500214
 22
1.242435
 32
-1.848119
 13
-3.500214
 23
1.242435
 33
-1.848119
 62
0
  0
3DFACE
  8
Cylinder6
 10
-3.563790
 20
1.242435
 30
-1.752970
 11
-3.021866
 21
1.242435
 31
-1.752970
 12
-3.500214
 22
1.242435
 32
-1.848119
 13
-3.500214
 23
1.242435
 33
-1.848119
 62
0
  0
3DFACE
  8
Cylinder6
 10
-3.586116
 20
1.242435
 30
-1.640733
 11
-3.021866
 21
1.242435
 31
-1.752970
 12
-3.563790
 22
1.242435
 32
-1.752970
 13
-3.563790
 23
1.242435
 33
-1.752970
 62
0
  0
3DFACE
  8
Cylinder6
 10
-2.999541
 20
1.242435
 30
-1.640733
 11
-3.021866
 21
1.242435
 31
-1.752970
 12
-3.586116
 22
1.242435
 32
-1.640733
 13
-3.586116
 23
1.242435
 33
-1.640733
 62
0
  0
3DFACE
  8
Cylinder6
 10
-3.021866
 20
1.242435
 30
-1.528497
 11
-2.999541
 21
1.242435
 31
-1.640733
 12
-3.586116
 22
1.242435
 32
-1.640733
 13
-3.586116
 23
1.242435
 33
-1.640733
 62
0
  0
3DFACE
  8
Cylinder6
 10
-3.563790
 20
1.242435
 30
-1.528497
 11
-3.021866
 21
1.242435
 31
-1.528497
 12
-3.586116
 22
1.242435
 32
-1.640733
 13
-3.586116
 23
1.242435
 33
-1.640733
 62
0
  0
3DFACE
  8
Cylinder6
 10
-3.085442
 20
1.242435
 30
-1.433348
 11
-3.021866
 21
1.242435
 31
-1.528497
 12
-3.563790
 22
1.242435
 32
-1.528497
 13
-3.563790
 23
1.242435
 33
-1.528497
 62
0
  0
3DFACE
  8
Cylinder6
 10
-3.500214
 20
1.242435
 30
-1.433348
 11
-3.085442
 21
1.242435
 31
-1.433348
 12
-3.563790
 22
1.242435
 32
-1.528497
 13
-3.563790
 23
1.242435
 33
-1.528497
 62
0
  0
3DFACE
  8
Cylinder6
 10
-3.180592
 20
1.242435
 30
-1.369772
 11
-3.085442
 21
1.242435
 31
-1.433348
 12
-3.500214
 22
1.242435
 32
-1.433348
 13
-3.500214
 23
1.242435
 33
-1.433348
 62
0
  0
3DFACE
  8
Cylinder6
 10
-3.405064
 20
1.242435
 30
-1.369772
 11
-3.180592
 21
1.242435
 31
-1.369772
 12
-3.500214
 22
1.242435
 32
-1.433348
 13
-3.500214
 23
1.242435
 33
-1.433348
 62
0
  0
3DFACE
  8
Cylinder6
 10
-3.292828
 20
1.242435
 30
-1.347446
 11
-3.180592
 21
1.242435
 31
-1.369772
 12
-3.405064
 22
1.242435
 32
-1.369772
 13
-3.405064
 23
1.242435
 33
-1.369772
 62
0
  0
3DFACE
  8
Cylinder6
 10
-3.364980
 20
2.701265
 30
-1.814924
 11
-3.500214
 21
2.701265
 31
-1.848120
 12
-3.292828
 22
2.701265
 32
-1.829276
 13
-3.292828
 23
2.701265
 33
-1.829276
 62
0
  0
3DFACE
  8
Cylinder6
 10
-3.426148
 20
2.701265
 30
-1.774053
 11
-3.500214
 21
2.701265
 31
-1.848120
 12
-3.364980
 22
2.701265
 32
-1.814924
 13
-3.364980
 23
2.701265
 33
-1.814924
 62
0
  0
3DFACE
  8
Cylinder6
 10
-3.563791
 20
2.701265
 30
-1.752970
 11
-3.500214
 21
2.701265
 31
-1.848120
 12
-3.426148
 22
2.701265
 32
-1.774053
 13
-3.426148
 23
2.701265
 33
-1.774053
 62
0
  0
3DFACE
  8
Cylinder6
 10
-3.467019
 20
2.701265
 30
-1.712886
 11
-3.563791
 21
2.701265
 31
-1.752970
 12
-3.426148
 22
2.701265
 32
-1.774053
 13
-3.426148
 23
2.701265
 33
-1.774053
 62
0
  0
3DFACE
  8
Cylinder6
 10
-3.586116
 20
2.701265
 30
-1.640733
 11
-3.563791
 21
2.701265
 31
-1.752970
 12
-3.467019
 22
2.701265
 32
-1.712886
 13
-3.467019
 23
2.701265
 33
-1.712886
 62
0
  0
3DFACE
  8
Cylinder6
 10
-3.481370
 20
2.701265
 30
-1.640733
 11
-3.586116
 21
2.701265
 31
-1.640733
 12
-3.467019
 22
2.701265
 32
-1.712886
 13
-3.467019
 23
2.701265
 33
-1.712886
 62
0
  0
3DFACE
  8
Cylinder6
 10
-3.467019
 20
2.701265
 30
-1.568581
 11
-3.586116
 21
2.701265
 31
-1.640733
 12
-3.481370
 22
2.701265
 32
-1.640733
 13
-3.481370
 23
2.701265
 33
-1.640733
 62
0
  0
3DFACE
  8
Cylinder6
 10
-3.563791
 20
2.701265
 30
-1.528497
 11
-3.586116
 21
2.701265
 31
-1.640733
 12
-3.467019
 22
2.701265
 32
-1.568581
 13
-3.467019
 23
2.701265
 33
-1.568581
 62
0
  0
3DFACE
  8
Cylinder6
 10
-3.426148
 20
2.701265
 30
-1.507414
 11
-3.563791
 21
2.701265
 31
-1.528497
 12
-3.467019
 22
2.701265
 32
-1.568581
 13
-3.467019
 23
2.701265
 33
-1.568581
 62
0
  0
3DFACE
  8
Cylinder6
 10
-3.364980
 20
2.701265
 30
-1.466543
 11
-3.563791
 21
2.701265
 31
-1.528497
 12
-3.426148
 22
2.701265
 32
-1.507414
 13
-3.426148
 23
2.701265
 33
-1.507414
 62
0
  0
3DFACE
  8
Cylinder6
 10
-3.500214
 20
2.701265
 30
-1.433347
 11
-3.563791
 21
2.701265
 31
-1.528497
 12
-3.364980
 22
2.701265
 32
-1.466543
 13
-3.364980
 23
2.701265
 33
-1.466543
 62
0
  0
3DFACE
  8
Cylinder6
 10
-3.500214
 20
2.701265
 30
-1.433347
 11
-3.364980
 21
2.701265
 31
-1.466543
 12
-3.292828
 22
2.701265
 32
-1.452191
 13
-3.292828
 23
2.701265
 33
-1.452191
 62
0
  0
3DFACE
  8
Cylinder6
 10
-3.085442
 20
2.701265
 30
-1.433347
 11
-3.500214
 21
2.701265
 31
-1.433347
 12
-3.292828
 22
2.701265
 32
-1.452191
 13
-3.292828
 23
2.701265
 33
-1.452191
 62
0
  0
3DFACE
  8
Cylinder6
 10
-3.405065
 20
2.701265
 30
-1.369770
 11
-3.500214
 21
2.701265
 31
-1.433347
 12
-3.085442
 22
2.701265
 32
-1.433347
 13
-3.085442
 23
2.701265
 33
-1.433347
 62
0
  0
3DFACE
  8
Cylinder6
 10
-3.180592
 20
2.701265
 30
-1.369770
 11
-3.405065
 21
2.701265
 31
-1.369770
 12
-3.085442
 22
2.701265
 32
-1.433347
 13
-3.085442
 23
2.701265
 33
-1.433347
 62
0
  0
3DFACE
  8
Cylinder6
 10
-3.292828
 20
2.701265
 30
-1.347445
 11
-3.405065
 21
2.701265
 31
-1.369770
 12
-3.180592
 22
2.701265
 32
-1.369770
 13
-3.180592
 23
2.701265
 33
-1.369770
 62
0
  0
3DFACE
  8
Cylinder6
 10
-3.180592
 20
2.701265
 30
-1.911697
 11
-3.405065
 21
2.701265
 31
-1.911697
 12
-3.292828
 22
2.701265
 32
-1.934022
 13
-3.292828
 23
2.701265
 33
-1.934022
 62
0
  0
3DFACE
  8
Cylinder6
 10
-3.500214
 20
2.701265
 30
-1.848120
 11
-3.405065
 21
2.701265
 31
-1.911697
 12
-3.180592
 22
2.701265
 32
-1.911697
 13
-3.180592
 23
2.701265
 33
-1.911697
 62
0
  0
3DFACE
  8
Cylinder6
 10
-3.085442
 20
2.701265
 30
-1.848120
 11
-3.500214
 21
2.701265
 31
-1.848120
 12
-3.180592
 22
2.701265
 32
-1.911697
 13
-3.180592
 23
2.701265
 33
-1.911697
 62
0
  0
3DFACE
  8
Cylinder6
 10
-3.292828
 20
2.701265
 30
-1.829276
 11
-3.500214
 21
2.701265
 31
-1.848120
 12
-3.085442
 22
2.701265
 32
-1.848120
 13
-3.085442
 23
2.701265
 33
-1.848120
 62
0
  0
3DFACE
  8
Cylinder6
 10
-3.220676
 20
2.701265
 30
-1.814924
 11
-3.292828
 21
2.701265
 31
-1.829276
 12
-3.085442
 22
2.701265
 32
-1.848120
 13
-3.085442
 23
2.701265
 33
-1.848120
 62
0
  0
3DFACE
  8
Cylinder6
 10
-3.159508
 20
2.701265
 30
-1.774053
 11
-3.220676
 21
2.701265
 31
-1.814924
 12
-3.085442
 22
2.701265
 32
-1.848120
 13
-3.085442
 23
2.701265
 33
-1.848120
 62
0
  0
3DFACE
  8
Cylinder6
 10
-3.021865
 20
2.701265
 30
-1.752970
 11
-3.159508
 21
2.701265
 31
-1.774053
 12
-3.085442
 22
2.701265
 32
-1.848120
 13
-3.085442
 23
2.701265
 33
-1.848120
 62
0
  0
3DFACE
  8
Cylinder6
 10
-3.118638
 20
2.701265
 30
-1.712886
 11
-3.159508
 21
2.701265
 31
-1.774053
 12
-3.021865
 22
2.701265
 32
-1.752970
 13
-3.021865
 23
2.701265
 33
-1.752970
 62
0
  0
3DFACE
  8
Cylinder6
 10
-3.104286
 20
2.701265
 30
-1.640733
 11
-3.118638
 21
2.701265
 31
-1.712886
 12
-3.021865
 22
2.701265
 32
-1.752970
 13
-3.021865
 23
2.701265
 33
-1.752970
 62
0
  0
3DFACE
  8
Cylinder6
 10
-2.999540
 20
2.701265
 30
-1.640733
 11
-3.104286
 21
2.701265
 31
-1.640733
 12
-3.021865
 22
2.701265
 32
-1.752970
 13
-3.021865
 23
2.701265
 33
-1.752970
 62
0
  0
3DFACE
  8
Cylinder6
 10
-3.118638
 20
2.701265
 30
-1.568581
 11
-3.104286
 21
2.701265
 31
-1.640733
 12
-2.999540
 22
2.701265
 32
-1.640733
 13
-2.999540
 23
2.701265
 33
-1.640733
 62
0
  0
3DFACE
  8
Cylinder6
 10
-3.021865
 20
2.701265
 30
-1.528497
 11
-3.118638
 21
2.701265
 31
-1.568581
 12
-2.999540
 22
2.701265
 32
-1.640733
 13
-2.999540
 23
2.701265
 33
-1.640733
 62
0
  0
3DFACE
  8
Cylinder6
 10
-3.159508
 20
2.701265
 30
-1.507414
 11
-3.118638
 21
2.701265
 31
-1.568581
 12
-3.021865
 22
2.701265
 32
-1.528497
 13
-3.021865
 23
2.701265
 33
-1.528497
 62
0
  0
3DFACE
  8
Cylinder6
 10
-3.220676
 20
2.701265
 30
-1.466543
 11
-3.159508
 21
2.701265
 31
-1.507414
 12
-3.021865
 22
2.701265
 32
-1.528497
 13
-3.021865
 23
2.701265
 33
-1.528497
 62
0
  0
3DFACE
  8
Cylinder6
 10
-3.085442
 20
2.701265
 30
-1.433347
 11
-3.220676
 21
2.701265
 31
-1.466543
 12
-3.021865
 22
2.701265
 32
-1.528497
 13
-3.021865
 23
2.701265
 33
-1.528497
 62
0
  0
3DFACE
  8
Cylinder6
 10
-3.085442
 20
2.701265
 30
-1.433347
 11
-3.292828
 21
2.701265
 31
-1.452191
 12
-3.220676
 22
2.701265
 32
-1.466543
 13
-3.220676
 23
2.701265
 33
-1.466543
 62
0
  0
3DFACE
  8
Cylinder6
 10
-3.118639
 20
1.488336
 30
-1.568581
 11
-3.104287
 21
1.488336
 31
-1.640733
 12
-3.104286
 22
2.701265
 32
-1.640733
 13
-3.118638
 23
2.701265
 33
-1.568581
 62
1
  0
3DFACE
  8
Cylinder6
 10
-3.159509
 20
1.488336
 30
-1.507413
 11
-3.118639
 21
1.488336
 31
-1.568581
 12
-3.118638
 22
2.701265
 32
-1.568581
 13
-3.159508
 23
2.701265
 33
-1.507414
 62
1
  0
3DFACE
  8
Cylinder6
 10
-3.220676
 20
1.488336
 30
-1.466542
 11
-3.159509
 21
1.488336
 31
-1.507413
 12
-3.159508
 22
2.701265
 32
-1.507414
 13
-3.220676
 23
2.701265
 33
-1.466543
 62
1
  0
3DFACE
  8
Cylinder6
 10
-3.292828
 20
1.488336
 30
-1.452191
 11
-3.220676
 21
1.488336
 31
-1.466542
 12
-3.220676
 22
2.701265
 32
-1.466543
 13
-3.292828
 23
2.701265
 33
-1.452191
 62
1
  0
3DFACE
  8
Cylinder6
 10
-3.364980
 20
1.488336
 30
-1.466542
 11
-3.292828
 21
1.488336
 31
-1.452191
 12
-3.292828
 22
2.701265
 32
-1.452191
 13
-3.364980
 23
2.701265
 33
-1.466543
 62
1
  0
3DFACE
  8
Cylinder6
 10
-3.426147
 20
1.488336
 30
-1.507413
 11
-3.364980
 21
1.488336
 31
-1.466542
 12
-3.364980
 22
2.701265
 32
-1.466543
 13
-3.426148
 23
2.701265
 33
-1.507414
 62
1
  0
3DFACE
  8
Cylinder6
 10
-3.467017
 20
1.488336
 30
-1.568581
 11
-3.426147
 21
1.488336
 31
-1.507413
 12
-3.426148
 22
2.701265
 32
-1.507414
 13
-3.467019
 23
2.701265
 33
-1.568581
 62
1
  0
3DFACE
  8
Cylinder6
 10
-3.481369
 20
1.488336
 30
-1.640733
 11
-3.467017
 21
1.488336
 31
-1.568581
 12
-3.467019
 22
2.701265
 32
-1.568581
 13
-3.481370
 23
2.701265
 33
-1.640733
 62
1
  0
3DFACE
  8
Cylinder6
 10
-3.220676
 20
1.488336
 30
-1.814924
 11
-3.364980
 21
1.488336
 31
-1.814924
 12
-3.292828
 22
1.488336
 32
-1.829276
 13
-3.292828
 23
1.488336
 33
-1.829276
 62
1
  0
3DFACE
  8
Cylinder6
 10
-3.426147
 20
1.488336
 30
-1.774053
 11
-3.364980
 21
1.488336
 31
-1.814924
 12
-3.220676
 22
1.488336
 32
-1.814924
 13
-3.220676
 23
1.488336
 33
-1.814924
 62
1
  0
3DFACE
  8
Cylinder6
 10
-3.159509
 20
1.488336
 30
-1.774053
 11
-3.426147
 21
1.488336
 31
-1.774053
 12
-3.220676
 22
1.488336
 32
-1.814924
 13
-3.220676
 23
1.488336
 33
-1.814924
 62
1
  0
3DFACE
  8
Cylinder6
 10
-3.467017
 20
1.488336
 30
-1.712886
 11
-3.426147
 21
1.488336
 31
-1.774053
 12
-3.159509
 22
1.488336
 32
-1.774053
 13
-3.159509
 23
1.488336
 33
-1.774053
 62
1
  0
3DFACE
  8
Cylinder6
 10
-3.118639
 20
1.488336
 30
-1.712886
 11
-3.467017
 21
1.488336
 31
-1.712886
 12
-3.159509
 22
1.488336
 32
-1.774053
 13
-3.159509
 23
1.488336
 33
-1.774053
 62
1
  0
3DFACE
  8
Cylinder6
 10
-3.481369
 20
1.488336
 30
-1.640733
 11
-3.467017
 21
1.488336
 31
-1.712886
 12
-3.118639
 22
1.488336
 32
-1.712886
 13
-3.118639
 23
1.488336
 33
-1.712886
 62
1
  0
3DFACE
  8
Cylinder6
 10
-3.104287
 20
1.488336
 30
-1.640733
 11
-3.481369
 21
1.488336
 31
-1.640733
 12
-3.118639
 22
1.488336
 32
-1.712886
 13
-3.118639
 23
1.488336
 33
-1.712886
 62
1
  0
3DFACE
  8
Cylinder6
 10
-3.467017
 20
1.488336
 30
-1.568581
 11
-3.481369
 21
1.488336
 31
-1.640733
 12
-3.104287
 22
1.488336
 32
-1.640733
 13
-3.104287
 23
1.488336
 33
-1.640733
 62
1
  0
3DFACE
  8
Cylinder6
 10
-3.118639
 20
1.488336
 30
-1.568581
 11
-3.467017
 21
1.488336
 31
-1.568581
 12
-3.104287
 22
1.488336
 32
-1.640733
 13
-3.104287
 23
1.488336
 33
-1.640733
 62
1
  0
3DFACE
  8
Cylinder6
 10
-3.426147
 20
1.488336
 30
-1.507413
 11
-3.467017
 21
1.488336
 31
-1.568581
 12
-3.118639
 22
1.488336
 32
-1.568581
 13
-3.118639
 23
1.488336
 33
-1.568581
 62
1
  0
3DFACE
  8
Cylinder6
 10
-3.159509
 20
1.488336
 30
-1.507413
 11
-3.426147
 21
1.488336
 31
-1.507413
 12
-3.118639
 22
1.488336
 32
-1.568581
 13
-3.118639
 23
1.488336
 33
-1.568581
 62
1
  0
3DFACE
  8
Cylinder6
 10
-3.364980
 20
1.488336
 30
-1.466542
 11
-3.426147
 21
1.488336
 31
-1.507413
 12
-3.159509
 22
1.488336
 32
-1.507413
 13
-3.159509
 23
1.488336
 33
-1.507413
 62
1
  0
3DFACE
  8
Cylinder6
 10
-3.220676
 20
1.488336
 30
-1.466542
 11
-3.364980
 21
1.488336
 31
-1.466542
 12
-3.159509
 22
1.488336
 32
-1.507413
 13
-3.159509
 23
1.488336
 33
-1.507413
 62
1
  0
3DFACE
  8
Cylinder6
 10
-3.292828
 20
1.488336
 30
-1.452191
 11
-3.364980
 21
1.488336
 31
-1.466542
 12
-3.220676
 22
1.488336
 32
-1.466542
 13
-3.220676
 23
1.488336
 33
-1.466542
 62
1
  0
3DFACE
  8
Cylinder6
 10
-3.118639
 20
1.488336
 30
-1.712886
 11
-3.159509
 21
1.488336
 31
-1.774053
 12
-3.159508
 22
2.701265
 32
-1.774053
 13
-3.118638
 23
2.701265
 33
-1.712886
 62
1
  0
3DFACE
  8
Cylinder6
 10
-3.104287
 20
1.488336
 30
-1.640733
 11
-3.118639
 21
1.488336
 31
-1.712886
 12
-3.118638
 22
2.701265
 32
-1.712886
 13
-3.104286
 23
2.701265
 33
-1.640733
 62
1
  0
3DFACE
  8
Cylinder6
 10
-3.159509
 20
1.488336
 30
-1.774053
 11
-3.220676
 21
1.488336
 31
-1.814924
 12
-3.220676
 22
2.701265
 32
-1.814924
 13
-3.159508
 23
2.701265
 33
-1.774053
 62
1
  0
3DFACE
  8
Cylinder6
 10
-3.220676
 20
1.488336
 30
-1.814924
 11
-3.292828
 21
1.488336
 31
-1.829276
 12
-3.292828
 22
2.701265
 32
-1.829276
 13
-3.220676
 23
2.701265
 33
-1.814924
 62
1
  0
3DFACE
  8
Cylinder6
 10
-3.292828
 20
1.488336
 30
-1.829276
 11
-3.364980
 21
1.488336
 31
-1.814924
 12
-3.364980
 22
2.701265
 32
-1.814924
 13
-3.292828
 23
2.701265
 33
-1.829276
 62
1
  0
3DFACE
  8
Cylinder6
 10
-3.364980
 20
1.488336
 30
-1.814924
 11
-3.426147
 21
1.488336
 31
-1.774053
 12
-3.426148
 22
2.701265
 32
-1.774053
 13
-3.364980
 23
2.701265
 33
-1.814924
 62
1
  0
3DFACE
  8
Cylinder6
 10
-3.426147
 20
1.488336
 30
-1.774053
 11
-3.467017
 21
1.488336
 31
-1.712886
 12
-3.467019
 22
2.701265
 32
-1.712886
 13
-3.426148
 23
2.701265
 33
-1.774053
 62
1
  0
3DFACE
  8
Cylinder6
 10
-3.467017
 20
1.488336
 30
-1.712886
 11
-3.481369
 21
1.488336
 31
-1.640733
 12
-3.481370
 22
2.701265
 32
-1.640733
 13
-3.467019
 23
2.701265
 33
-1.712886
 62
1
  0
3DFACE
  8
RUArm
 10
2.800607
 20
-0.587099
 30
-1.291800
 11
2.800607
 21
0.589151
 31
-1.291801
 12
2.800607
 22
0.393109
 32
1.291752
 13
2.800607
 23
-0.783140
 33
1.291752
 62
0
  0
3DFACE
  8
RUArm
 10
2.800607
 20
-0.587099
 30
-1.291800
 11
3.570770
 21
-0.587099
 31
-1.291799
 12
3.570770
 22
0.589151
 32
-1.291799
 13
2.800607
 23
0.589151
 33
-1.291801
 62
0
  0
3DFACE
  8
RUArm
 10
3.500755
 20
0.393109
 30
0.450597
 11
2.800607
 21
0.589151
 31
-1.291801
 12
3.570770
 22
0.589151
 32
-1.291799
 13
3.570770
 23
0.589151
 33
-1.291799
 62
0
  0
3DFACE
  8
RUArm
 10
2.800607
 20
0.393109
 30
1.291752
 11
3.500755
 21
0.393109
 31
0.450597
 12
3.500755
 22
-0.783140
 32
0.450597
 13
2.800607
 23
-0.783140
 33
1.291752
 62
0
  0
3DFACE
  8
RUArm
 10
3.570770
 20
0.589151
 30
-1.291799
 11
3.570770
 21
-0.587099
 31
-1.291799
 12
3.500755
 22
-0.783140
 32
0.450597
 13
3.500755
 23
0.393109
 33
0.450597
 62
0
  0
3DFACE
  8
RUArm
 10
2.800607
 20
-0.587099
 30
-1.291800
 11
2.800607
 21
-0.783140
 31
1.291752
 12
3.500755
 22
-0.783140
 32
0.450597
 13
3.500755
 23
-0.783140
 33
0.450597
 62
0
  0
3DFACE
  8
RUArm
 10
2.800607
 20
0.589151
 30
-1.291801
 11
3.500755
 21
0.393109
 31
0.450597
 12
2.800607
 22
0.393109
 32
1.291752
 13
2.800607
 23
0.393109
 33
1.291752
 62
0
  0
3DFACE
  8
RUArm
 10
3.500755
 20
-0.783140
 30
0.450597
 11
3.570770
 21
-0.587099
 31
-1.291799
 12
2.800607
 22
-0.587099
 32
-1.291800
 13
2.800607
 23
-0.587099
 33
-1.291800
 62
0
  0
3DFACE
  8
Cylinder2
 10
3.883736
 20
-0.291523
 30
-1.291777
 11
3.883740
 21
1.431578
 31
-1.291768
 12
3.292117
 22
1.431576
 32
-2.285974
 13
3.292106
 23
-0.536270
 33
-2.089975
 62
0
  0
3DFACE
  8
Cylinder2
 10
2.700485
 20
-0.291523
 30
-1.291779
 11
2.700488
 21
1.431575
 31
-1.291770
 12
3.883740
 22
1.431578
 32
-1.291768
 13
3.883736
 23
-0.291523
 33
-1.291777
 62
0
  0
3DFACE
  8
Cylinder2
 10
3.292106
 20
-0.536270
 30
-2.089975
 11
3.292117
 21
1.431576
 31
-2.285974
 12
2.700488
 22
1.431575
 32
-1.291770
 13
2.700485
 23
-0.291523
 33
-1.291779
 62
0
  0
3DFACE
  8
Cylinder2
 10
2.700485
 20
-0.291523
 30
-1.291779
 11
3.883736
 21
-0.291523
 31
-1.291777
 12
3.292106
 22
-0.536270
 32
-2.089975
 13
3.292106
 23
-0.536270
 33
-2.089975
 62
0
  0
3DFACE
  8
Cylinder2
 10
3.292117
 20
1.431576
 30
-2.285974
 11
3.883740
 21
1.431578
 31
-1.291768
 12
2.700488
 22
1.431575
 32
-1.291770
 13
2.700488
 23
1.431575
 33
-1.291770
 62
0
  0
3DFACE
  8
Cylinder4
 10
3.021865
 20
2.701266
 30
-1.752970
 11
2.999540
 21
2.701266
 31
-1.640733
 12
2.999541
 22
1.242435
 32
-1.640733
 13
3.021866
 23
1.242435
 33
-1.752970
 62
0
  0
3DFACE
  8
Cylinder4
 10
3.085442
 20
2.701266
 30
-1.848120
 11
3.021865
 21
2.701266
 31
-1.752970
 12
3.021866
 22
1.242435
 32
-1.752970
 13
3.085442
 23
1.242435
 33
-1.848119
 62
0
  0
3DFACE
  8
Cylinder4
 10
3.180592
 20
2.701266
 30
-1.911697
 11
3.085442
 21
2.701266
 31
-1.848120
 12
3.085442
 22
1.242435
 32
-1.848119
 13
3.180592
 23
1.242435
 33
-1.911695
 62
0
  0
3DFACE
  8
Cylinder4
 10
3.292828
 20
2.701266
 30
-1.934022
 11
3.180592
 21
2.701266
 31
-1.911697
 12
3.180592
 22
1.242435
 32
-1.911695
 13
3.292828
 23
1.242435
 33
-1.934021
 62
0
  0
3DFACE
  8
Cylinder4
 10
3.405065
 20
2.701266
 30
-1.911697
 11
3.292828
 21
2.701266
 31
-1.934022
 12
3.292828
 22
1.242435
 32
-1.934021
 13
3.405064
 23
1.242435
 33
-1.911695
 62
0
  0
3DFACE
  8
Cylinder4
 10
3.500214
 20
2.701266
 30
-1.848120
 11
3.405065
 21
2.701266
 31
-1.911697
 12
3.405064
 22
1.242435
 32
-1.911695
 13
3.500214
 23
1.242435
 33
-1.848119
 62
0
  0
3DFACE
  8
Cylinder4
 10
3.563791
 20
2.701266
 30
-1.752970
 11
3.500214
 21
2.701266
 31
-1.848120
 12
3.500214
 22
1.242435
 32
-1.848119
 13
3.563790
 23
1.242435
 33
-1.752970
 62
0
  0
3DFACE
  8
Cylinder4
 10
3.586116
 20
2.701266
 30
-1.640733
 11
3.563791
 21
2.701266
 31
-1.752970
 12
3.563790
 22
1.242435
 32
-1.752970
 13
3.586116
 23
1.242435
 33
-1.640733
 62
0
  0
3DFACE
  8
Cylinder4
 10
3.563791
 20
2.701266
 30
-1.528497
 11
3.586116
 21
2.701266
 31
-1.640733
 12
3.586116
 22
1.242435
 32
-1.640733
 13
3.563790
 23
1.242435
 33
-1.528497
 62
0
  0
3DFACE
  8
Cylinder4
 10
3.500214
 20
2.701266
 30
-1.433347
 11
3.563791
 21
2.701266
 31
-1.528497
 12
3.563790
 22
1.242435
 32
-1.528497
 13
3.500214
 23
1.242435
 33
-1.433348
 62
0
  0
3DFACE
  8
Cylinder4
 10
3.405065
 20
2.701266
 30
-1.369770
 11
3.500214
 21
2.701266
 31
-1.433347
 12
3.500214
 22
1.242435
 32
-1.433348
 13
3.405064
 23
1.242435
 33
-1.369772
 62
0
  0
3DFACE
  8
Cylinder4
 10
3.292828
 20
2.701266
 30
-1.347445
 11
3.405065
 21
2.701266
 31
-1.369770
 12
3.405064
 22
1.242435
 32
-1.369772
 13
3.292828
 23
1.242435
 33
-1.347446
 62
0
  0
3DFACE
  8
Cylinder4
 10
3.180592
 20
2.701266
 30
-1.369770
 11
3.292828
 21
2.701266
 31
-1.347445
 12
3.292828
 22
1.242435
 32
-1.347446
 13
3.180592
 23
1.242435
 33
-1.369772
 62
0
  0
3DFACE
  8
Cylinder4
 10
3.085442
 20
2.701266
 30
-1.433347
 11
3.180592
 21
2.701266
 31
-1.369770
 12
3.180592
 22
1.242435
 32
-1.369772
 13
3.085442
 23
1.242435
 33
-1.433348
 62
0
  0
3DFACE
  8
Cylinder4
 10
3.021865
 20
2.701266
 30
-1.528497
 11
3.085442
 21
2.701266
 31
-1.433347
 12
3.085442
 22
1.242435
 32
-1.433348
 13
3.021866
 23
1.242435
 33
-1.528497
 62
0
  0
3DFACE
  8
Cylinder4
 10
2.999540
 20
2.701266
 30
-1.640733
 11
3.021865
 21
2.701266
 31
-1.528497
 12
3.021866
 22
1.242435
 32
-1.528497
 13
2.999541
 23
1.242435
 33
-1.640733
 62
0
  0
3DFACE
  8
Cylinder4
 10
3.180592
 20
1.242435
 30
-1.911695
 11
3.405064
 21
1.242435
 31
-1.911695
 12
3.292828
 22
1.242435
 32
-1.934021
 13
3.292828
 23
1.242435
 33
-1.934021
 62
0
  0
3DFACE
  8
Cylinder4
 10
3.500214
 20
1.242435
 30
-1.848119
 11
3.405064
 21
1.242435
 31
-1.911695
 12
3.180592
 22
1.242435
 32
-1.911695
 13
3.180592
 23
1.242435
 33
-1.911695
 62
0
  0
3DFACE
  8
Cylinder4
 10
3.085442
 20
1.242435
 30
-1.848119
 11
3.500214
 21
1.242435
 31
-1.848119
 12
3.180592
 22
1.242435
 32
-1.911695
 13
3.180592
 23
1.242435
 33
-1.911695
 62
0
  0
3DFACE
  8
Cylinder4
 10
3.563790
 20
1.242435
 30
-1.752970
 11
3.500214
 21
1.242435
 31
-1.848119
 12
3.085442
 22
1.242435
 32
-1.848119
 13
3.085442
 23
1.242435
 33
-1.848119
 62
0
  0
3DFACE
  8
Cylinder4
 10
3.021866
 20
1.242435
 30
-1.752970
 11
3.563790
 21
1.242435
 31
-1.752970
 12
3.085442
 22
1.242435
 32
-1.848119
 13
3.085442
 23
1.242435
 33
-1.848119
 62
0
  0
3DFACE
  8
Cylinder4
 10
2.999541
 20
1.242435
 30
-1.640733
 11
3.563790
 21
1.242435
 31
-1.752970
 12
3.021866
 22
1.242435
 32
-1.752970
 13
3.021866
 23
1.242435
 33
-1.752970
 62
0
  0
3DFACE
  8
Cylinder4
 10
3.586116
 20
1.242435
 30
-1.640733
 11
3.563790
 21
1.242435
 31
-1.752970
 12
2.999541
 22
1.242435
 32
-1.640733
 13
2.999541
 23
1.242435
 33
-1.640733
 62
0
  0
3DFACE
  8
Cylinder4
 10
3.563790
 20
1.242435
 30
-1.528497
 11
3.586116
 21
1.242435
 31
-1.640733
 12
2.999541
 22
1.242435
 32
-1.640733
 13
2.999541
 23
1.242435
 33
-1.640733
 62
0
  0
3DFACE
  8
Cylinder4
 10
3.021866
 20
1.242435
 30
-1.528497
 11
3.563790
 21
1.242435
 31
-1.528497
 12
2.999541
 22
1.242435
 32
-1.640733
 13
2.999541
 23
1.242435
 33
-1.640733
 62
0
  0
3DFACE
  8
Cylinder4
 10
3.500214
 20
1.242435
 30
-1.433348
 11
3.563790
 21
1.242435
 31
-1.528497
 12
3.021866
 22
1.242435
 32
-1.528497
 13
3.021866
 23
1.242435
 33
-1.528497
 62
0
  0
3DFACE
  8
Cylinder4
 10
3.085442
 20
1.242435
 30
-1.433348
 11
3.500214
 21
1.242435
 31
-1.433348
 12
3.021866
 22
1.242435
 32
-1.528497
 13
3.021866
 23
1.242435
 33
-1.528497
 62
0
  0
3DFACE
  8
Cylinder4
 10
3.405064
 20
1.242435
 30
-1.369772
 11
3.500214
 21
1.242435
 31
-1.433348
 12
3.085442
 22
1.242435
 32
-1.433348
 13
3.085442
 23
1.242435
 33
-1.433348
 62
0
  0
3DFACE
  8
Cylinder4
 10
3.180592
 20
1.242435
 30
-1.369772
 11
3.405064
 21
1.242435
 31
-1.369772
 12
3.085442
 22
1.242435
 32
-1.433348
 13
3.085442
 23
1.242435
 33
-1.433348
 62
0
  0
3DFACE
  8
Cylinder4
 10
3.292828
 20
1.242435
 30
-1.347446
 11
3.405064
 21
1.242435
 31
-1.369772
 12
3.180592
 22
1.242435
 32
-1.369772
 13
3.180592
 23
1.242435
 33
-1.369772
 62
0
  0
3DFACE
  8
Cylinder4
 10
3.220676
 20
2.701266
 30
-1.814924
 11
3.085442
 21
2.701266
 31
-1.848120
 12
3.292828
 22
2.701266
 32
-1.829276
 13
3.292828
 23
2.701266
 33
-1.829276
 62
0
  0
3DFACE
  8
Cylinder4
 10
3.159508
 20
2.701266
 30
-1.774053
 11
3.085442
 21
2.701266
 31
-1.848120
 12
3.220676
 22
2.701266
 32
-1.814924
 13
3.220676
 23
2.701266
 33
-1.814924
 62
0
  0
3DFACE
  8
Cylinder4
 10
3.021865
 20
2.701266
 30
-1.752970
 11
3.085442
 21
2.701266
 31
-1.848120
 12
3.159508
 22
2.701266
 32
-1.774053
 13
3.159508
 23
2.701266
 33
-1.774053
 62
0
  0
3DFACE
  8
Cylinder4
 10
3.118638
 20
2.701266
 30
-1.712886
 11
3.021865
 21
2.701266
 31
-1.752970
 12
3.159508
 22
2.701266
 32
-1.774053
 13
3.159508
 23
2.701266
 33
-1.774053
 62
0
  0
3DFACE
  8
Cylinder4
 10
2.999540
 20
2.701266
 30
-1.640733
 11
3.021865
 21
2.701266
 31
-1.752970
 12
3.118638
 22
2.701266
 32
-1.712886
 13
3.118638
 23
2.701266
 33
-1.712886
 62
0
  0
3DFACE
  8
Cylinder4
 10
3.104286
 20
2.701266
 30
-1.640733
 11
2.999540
 21
2.701266
 31
-1.640733
 12
3.118638
 22
2.701266
 32
-1.712886
 13
3.118638
 23
2.701266
 33
-1.712886
 62
0
  0
3DFACE
  8
Cylinder4
 10
3.118638
 20
2.701266
 30
-1.568581
 11
2.999540
 21
2.701266
 31
-1.640733
 12
3.104286
 22
2.701266
 32
-1.640733
 13
3.104286
 23
2.701266
 33
-1.640733
 62
0
  0
3DFACE
  8
Cylinder4
 10
3.021865
 20
2.701266
 30
-1.528497
 11
2.999540
 21
2.701266
 31
-1.640733
 12
3.118638
 22
2.701266
 32
-1.568581
 13
3.118638
 23
2.701266
 33
-1.568581
 62
0
  0
3DFACE
  8
Cylinder4
 10
3.159508
 20
2.701266
 30
-1.507414
 11
3.021865
 21
2.701266
 31
-1.528497
 12
3.118638
 22
2.701266
 32
-1.568581
 13
3.118638
 23
2.701266
 33
-1.568581
 62
0
  0
3DFACE
  8
Cylinder4
 10
3.220676
 20
2.701266
 30
-1.466543
 11
3.021865
 21
2.701266
 31
-1.528497
 12
3.159508
 22
2.701266
 32
-1.507414
 13
3.159508
 23
2.701266
 33
-1.507414
 62
0
  0
3DFACE
  8
Cylinder4
 10
3.085442
 20
2.701266
 30
-1.433347
 11
3.021865
 21
2.701266
 31
-1.528497
 12
3.220676
 22
2.701266
 32
-1.466543
 13
3.220676
 23
2.701266
 33
-1.466543
 62
0
  0
3DFACE
  8
Cylinder4
 10
3.085442
 20
2.701266
 30
-1.433347
 11
3.220676
 21
2.701266
 31
-1.466543
 12
3.292828
 22
2.701266
 32
-1.452191
 13
3.292828
 23
2.701266
 33
-1.452191
 62
0
  0
3DFACE
  8
Cylinder4
 10
3.500214
 20
2.701266
 30
-1.433347
 11
3.085442
 21
2.701266
 31
-1.433347
 12
3.292828
 22
2.701266
 32
-1.452191
 13
3.292828
 23
2.701266
 33
-1.452191
 62
0
  0
3DFACE
  8
Cylinder4
 10
3.180592
 20
2.701266
 30
-1.369770
 11
3.085442
 21
2.701266
 31
-1.433347
 12
3.500214
 22
2.701266
 32
-1.433347
 13
3.500214
 23
2.701266
 33
-1.433347
 62
0
  0
3DFACE
  8
Cylinder4
 10
3.405065
 20
2.701266
 30
-1.369770
 11
3.180592
 21
2.701266
 31
-1.369770
 12
3.500214
 22
2.701266
 32
-1.433347
 13
3.500214
 23
2.701266
 33
-1.433347
 62
0
  0
3DFACE
  8
Cylinder4
 10
3.292828
 20
2.701266
 30
-1.347445
 11
3.180592
 21
2.701266
 31
-1.369770
 12
3.405065
 22
2.701266
 32
-1.369770
 13
3.405065
 23
2.701266
 33
-1.369770
 62
0
  0
3DFACE
  8
Cylinder4
 10
3.405065
 20
2.701266
 30
-1.911697
 11
3.180592
 21
2.701266
 31
-1.911697
 12
3.292828
 22
2.701266
 32
-1.934022
 13
3.292828
 23
2.701266
 33
-1.934022
 62
0
  0
3DFACE
  8
Cylinder4
 10
3.085442
 20
2.701266
 30
-1.848120
 11
3.180592
 21
2.701266
 31
-1.911697
 12
3.405065
 22
2.701266
 32
-1.911697
 13
3.405065
 23
2.701266
 33
-1.911697
 62
0
  0
3DFACE
  8
Cylinder4
 10
3.500214
 20
2.701266
 30
-1.848120
 11
3.085442
 21
2.701266
 31
-1.848120
 12
3.405065
 22
2.701266
 32
-1.911697
 13
3.405065
 23
2.701266
 33
-1.911697
 62
0
  0
3DFACE
  8
Cylinder4
 10
3.292828
 20
2.701266
 30
-1.829276
 11
3.085442
 21
2.701266
 31
-1.848120
 12
3.500214
 22
2.701266
 32
-1.848120
 13
3.500214
 23
2.701266
 33
-1.848120
 62
0
  0
3DFACE
  8
Cylinder4
 10
3.364980
 20
2.701266
 30
-1.814924
 11
3.292828
 21
2.701266
 31
-1.829276
 12
3.500214
 22
2.701266
 32
-1.848120
 13
3.500214
 23
2.701266
 33
-1.848120
 62
0
  0
3DFACE
  8
Cylinder4
 10
3.426148
 20
2.701266
 30
-1.774053
 11
3.364980
 21
2.701266
 31
-1.814924
 12
3.500214
 22
2.701266
 32
-1.848120
 13
3.500214
 23
2.701266
 33
-1.848120
 62
0
  0
3DFACE
  8
Cylinder4
 10
3.563791
 20
2.701266
 30
-1.752970
 11
3.426148
 21
2.701266
 31
-1.774053
 12
3.500214
 22
2.701266
 32
-1.848120
 13
3.500214
 23
2.701266
 33
-1.848120
 62
0
  0
3DFACE
  8
Cylinder4
 10
3.467019
 20
2.701266
 30
-1.712886
 11
3.426148
 21
2.701266
 31
-1.774053
 12
3.563791
 22
2.701266
 32
-1.752970
 13
3.563791
 23
2.701266
 33
-1.752970
 62
0
  0
3DFACE
  8
Cylinder4
 10
3.481370
 20
2.701266
 30
-1.640733
 11
3.467019
 21
2.701266
 31
-1.712886
 12
3.563791
 22
2.701266
 32
-1.752970
 13
3.563791
 23
2.701266
 33
-1.752970
 62
0
  0
3DFACE
  8
Cylinder4
 10
3.586116
 20
2.701266
 30
-1.640733
 11
3.481370
 21
2.701266
 31
-1.640733
 12
3.563791
 22
2.701266
 32
-1.752970
 13
3.563791
 23
2.701266
 33
-1.752970
 62
0
  0
3DFACE
  8
Cylinder4
 10
3.467019
 20
2.701266
 30
-1.568581
 11
3.481370
 21
2.701266
 31
-1.640733
 12
3.586116
 22
2.701266
 32
-1.640733
 13
3.586116
 23
2.701266
 33
-1.640733
 62
0
  0
3DFACE
  8
Cylinder4
 10
3.563791
 20
2.701266
 30
-1.528497
 11
3.467019
 21
2.701266
 31
-1.568581
 12
3.586116
 22
2.701266
 32
-1.640733
 13
3.586116
 23
2.701266
 33
-1.640733
 62
0
  0
3DFACE
  8
Cylinder4
 10
3.426148
 20
2.701266
 30
-1.507414
 11
3.467019
 21
2.701266
 31
-1.568581
 12
3.563791
 22
2.701266
 32
-1.528497
 13
3.563791
 23
2.701266
 33
-1.528497
 62
0
  0
3DFACE
  8
Cylinder4
 10
3.364980
 20
2.701266
 30
-1.466543
 11
3.426148
 21
2.701266
 31
-1.507414
 12
3.563791
 22
2.701266
 32
-1.528497
 13
3.563791
 23
2.701266
 33
-1.528497
 62
0
  0
3DFACE
  8
Cylinder4
 10
3.500214
 20
2.701266
 30
-1.433347
 11
3.364980
 21
2.701266
 31
-1.466543
 12
3.563791
 22
2.701266
 32
-1.528497
 13
3.563791
 23
2.701266
 33
-1.528497
 62
0
  0
3DFACE
  8
Cylinder4
 10
3.500214
 20
2.701266
 30
-1.433347
 11
3.292828
 21
2.701266
 31
-1.452191
 12
3.364980
 22
2.701266
 32
-1.466543
 13
3.364980
 23
2.701266
 33
-1.466543
 62
0
  0
3DFACE
  8
Cylinder4
 10
3.467017
 20
1.488336
 30
-1.568581
 11
3.481369
 21
1.488336
 31
-1.640733
 12
3.481370
 22
2.701266
 32
-1.640733
 13
3.467019
 23
2.701266
 33
-1.568581
 62
1
  0
3DFACE
  8
Cylinder4
 10
3.426147
 20
1.488336
 30
-1.507413
 11
3.467017
 21
1.488336
 31
-1.568581
 12
3.467019
 22
2.701266
 32
-1.568581
 13
3.426148
 23
2.701266
 33
-1.507414
 62
1
  0
3DFACE
  8
Cylinder4
 10
3.364980
 20
1.488336
 30
-1.466542
 11
3.426147
 21
1.488336
 31
-1.507413
 12
3.426148
 22
2.701266
 32
-1.507414
 13
3.364980
 23
2.701266
 33
-1.466543
 62
1
  0
3DFACE
  8
Cylinder4
 10
3.292828
 20
1.488336
 30
-1.452191
 11
3.364980
 21
1.488336
 31
-1.466542
 12
3.364980
 22
2.701266
 32
-1.466543
 13
3.292828
 23
2.701266
 33
-1.452191
 62
1
  0
3DFACE
  8
Cylinder4
 10
3.220676
 20
1.488336
 30
-1.466542
 11
3.292828
 21
1.488336
 31
-1.452191
 12
3.292828
 22
2.701266
 32
-1.452191
 13
3.220676
 23
2.701266
 33
-1.466543
 62
1
  0
3DFACE
  8
Cylinder4
 10
3.159509
 20
1.488336
 30
-1.507413
 11
3.220676
 21
1.488336
 31
-1.466542
 12
3.220676
 22
2.701266
 32
-1.466543
 13
3.159508
 23
2.701266
 33
-1.507414
 62
1
  0
3DFACE
  8
Cylinder4
 10
3.118639
 20
1.488336
 30
-1.568581
 11
3.159509
 21
1.488336
 31
-1.507413
 12
3.159508
 22
2.701266
 32
-1.507414
 13
3.118638
 23
2.701266
 33
-1.568581
 62
1
  0
3DFACE
  8
Cylinder4
 10
3.104287
 20
1.488336
 30
-1.640733
 11
3.118639
 21
1.488336
 31
-1.568581
 12
3.118638
 22
2.701266
 32
-1.568581
 13
3.104286
 23
2.701266
 33
-1.640733
 62
1
  0
3DFACE
  8
Cylinder4
 10
3.364980
 20
1.488336
 30
-1.814924
 11
3.220676
 21
1.488336
 31
-1.814924
 12
3.292828
 22
1.488336
 32
-1.829276
 13
3.292828
 23
1.488336
 33
-1.829276
 62
1
  0
3DFACE
  8
Cylinder4
 10
3.159509
 20
1.488336
 30
-1.774053
 11
3.220676
 21
1.488336
 31
-1.814924
 12
3.364980
 22
1.488336
 32
-1.814924
 13
3.364980
 23
1.488336
 33
-1.814924
 62
1
  0
3DFACE
  8
Cylinder4
 10
3.426147
 20
1.488336
 30
-1.774053
 11
3.159509
 21
1.488336
 31
-1.774053
 12
3.364980
 22
1.488336
 32
-1.814924
 13
3.364980
 23
1.488336
 33
-1.814924
 62
1
  0
3DFACE
  8
Cylinder4
 10
3.118639
 20
1.488336
 30
-1.712886
 11
3.159509
 21
1.488336
 31
-1.774053
 12
3.426147
 22
1.488336
 32
-1.774053
 13
3.426147
 23
1.488336
 33
-1.774053
 62
1
  0
3DFACE
  8
Cylinder4
 10
3.467017
 20
1.488336
 30
-1.712886
 11
3.118639
 21
1.488336
 31
-1.712886
 12
3.426147
 22
1.488336
 32
-1.774053
 13
3.426147
 23
1.488336
 33
-1.774053
 62
1
  0
3DFACE
  8
Cylinder4
 10
3.104287
 20
1.488336
 30
-1.640733
 11
3.118639
 21
1.488336
 31
-1.712886
 12
3.467017
 22
1.488336
 32
-1.712886
 13
3.467017
 23
1.488336
 33
-1.712886
 62
1
  0
3DFACE
  8
Cylinder4
 10
3.481369
 20
1.488336
 30
-1.640733
 11
3.104287
 21
1.488336
 31
-1.640733
 12
3.467017
 22
1.488336
 32
-1.712886
 13
3.467017
 23
1.488336
 33
-1.712886
 62
1
  0
3DFACE
  8
Cylinder4
 10
3.118639
 20
1.488336
 30
-1.568581
 11
3.104287
 21
1.488336
 31
-1.640733
 12
3.481369
 22
1.488336
 32
-1.640733
 13
3.481369
 23
1.488336
 33
-1.640733
 62
1
  0
3DFACE
  8
Cylinder4
 10
3.467017
 20
1.488336
 30
-1.568581
 11
3.118639
 21
1.488336
 31
-1.568581
 12
3.481369
 22
1.488336
 32
-1.640733
 13
3.481369
 23
1.488336
 33
-1.640733
 62
1
  0
3DFACE
  8
Cylinder4
 10
3.159509
 20
1.488336
 30
-1.507413
 11
3.118639
 21
1.488336
 31
-1.568581
 12
3.467017
 22
1.488336
 32
-1.568581
 13
3.467017
 23
1.488336
 33
-1.568581
 62
1
  0
3DFACE
  8
Cylinder4
 10
3.426147
 20
1.488336
 30
-1.507413
 11
3.159509
 21
1.488336
 31
-1.507413
 12
3.467017
 22
1.488336
 32
-1.568581
 13
3.467017
 23
1.488336
 33
-1.568581
 62
1
  0
3DFACE
  8
Cylinder4
 10
3.220676
 20
1.488336
 30
-1.466542
 11
3.159509
 21
1.488336
 31
-1.507413
 12
3.426147
 22
1.488336
 32
-1.507413
 13
3.426147
 23
1.488336
 33
-1.507413
 62
1
  0
3DFACE
  8
Cylinder4
 10
3.364980
 20
1.488336
 30
-1.466542
 11
3.220676
 21
1.488336
 31
-1.466542
 12
3.426147
 22
1.488336
 32
-1.507413
 13
3.426147
 23
1.488336
 33
-1.507413
 62
1
  0
3DFACE
  8
Cylinder4
 10
3.292828
 20
1.488336
 30
-1.452191
 11
3.220676
 21
1.488336
 31
-1.466542
 12
3.364980
 22
1.488336
 32
-1.466542
 13
3.364980
 23
1.488336
 33
-1.466542
 62
1
  0
3DFACE
  8
Cylinder4
 10
3.467017
 20
1.488336
 30
-1.712886
 11
3.426147
 21
1.488336
 31
-1.774053
 12
3.426148
 22
2.701266
 32
-1.774053
 13
3.467019
 23
2.701266
 33
-1.712886
 62
1
  0
3DFACE
  8
Cylinder4
 10
3.481369
 20
1.488336
 30
-1.640733
 11
3.467017
 21
1.488336
 31
-1.712886
 12
3.467019
 22
2.701266
 32
-1.712886
 13
3.481370
 23
2.701266
 33
-1.640733
 62
1
  0
3DFACE
  8
Cylinder4
 10
3.426147
 20
1.488336
 30
-1.774053
 11
3.364980
 21
1.488336
 31
-1.814924
 12
3.364980
 22
2.701266
 32
-1.814924
 13
3.426148
 23
2.701266
 33
-1.774053
 62
1
  0
3DFACE
  8
Cylinder4
 10
3.364980
 20
1.488336
 30
-1.814924
 11
3.292828
 21
1.488336
 31
-1.829276
 12
3.292828
 22
2.701266
 32
-1.829276
 13
3.364980
 23
2.701266
 33
-1.814924
 62
1
  0
3DFACE
  8
Cylinder4
 10
3.292828
 20
1.488336
 30
-1.829276
 11
3.220676
 21
1.488336
 31
-1.814924
 12
3.220676
 22
2.701266
 32
-1.814924
 13
3.292828
 23
2.701266
 33
-1.829276
 62
1
  0
3DFACE
  8
Cylinder4
 10
3.220676
 20
1.488336
 30
-1.814924
 11
3.159509
 21
1.488336
 31
-1.774053
 12
3.159508
 22
2.701266
 32
-1.774053
 13
3.220676
 23
2.701266
 33
-1.814924
 62
1
  0
3DFACE
  8
Cylinder4
 10
3.159509
 20
1.488336
 30
-1.774053
 11
3.118639
 21
1.488336
 31
-1.712886
 12
3.118638
 22
2.701266
 32
-1.712886
 13
3.159508
 23
2.701266
 33
-1.774053
 62
1
  0
3DFACE
  8
Cylinder4
 10
3.118639
 20
1.488336
 30
-1.712886
 11
3.104287
 21
1.488336
 31
-1.640733
 12
3.104286
 22
2.701266
 32
-1.640733
 13
3.118638
 23
2.701266
 33
-1.712886
 62
1
 0
ENDSEC
 0
EOF
