  0
SECTION
  2
HEADER
  0
ENDSEC
  0
SECTION
  2
TABLES
  0
TABLE
  2
LAYER
  70
    153
  0
LAYER
  2
NoName5
 70
0
 62
15
  6
CONTINUOUS
  0
LAYER
  2
Cylinder4
 70
0
 62
15
  6
CONTINUOUS
  0
LAYER
  2
Cylinder3
 70
0
 62
15
  6
CONTINUOUS
  0
LAYER
  2
NoName1
 70
0
 62
15
  6
CONTINUOUS
  0
LAYER
  2
Cylinder
 70
0
 62
15
  6
CONTINUOUS
  0
LAYER
  2
Cylinder2
 70
0
 62
15
  6
CONTINUOUS
  0
LAYER
  2
NoName1001
 70
0
 62
15
  6
CONTINUOUS
  0
ENDTAB
  0
ENDSEC
  0
SECTION
  2
ENTITIES
  0
3DFACE
  8
NoName5
 10
-0.755234
 20
1.267493
 30
0.805101
 11
0.000302
 21
-2.835261
 31
-0.293864
 12
-1.545788
 22
1.058236
 32
-0.073250
 13
-1.545788
 23
1.058236
 33
-0.073250
 62
0
  0
3DFACE
  8
NoName5
 10
-1.545788
 20
1.058236
 30
-0.073250
 11
0.000302
 21
-2.835261
 31
-0.293864
 12
0.000299
 22
1.058060
 32
-0.375589
 13
0.000299
 23
1.058060
 33
-0.375589
 62
0
  0
3DFACE
  8
NoName5
 10
0.755837
 20
1.267493
 30
0.805101
 11
0.000302
 21
-2.835261
 31
-0.293864
 12
-0.755234
 22
1.267493
 32
0.805101
 13
-0.755234
 23
1.267493
 33
0.805101
 62
4
  0
3DFACE
  8
NoName5
 10
0.000299
 20
1.058060
 30
-0.375589
 11
0.000302
 21
-2.835261
 31
-0.293864
 12
1.545396
 22
1.058237
 32
-0.073250
 13
1.545396
 23
1.058237
 33
-0.073250
 62
0
  0
3DFACE
  8
NoName5
 10
1.545396
 20
1.058237
 30
-0.073250
 11
0.000302
 21
-2.835261
 31
-0.293864
 12
0.755837
 22
1.267493
 32
0.805101
 13
0.755837
 23
1.267493
 33
0.805101
 62
0
  0
3DFACE
  8
NoName5
 10
0.755837
 20
1.267493
 30
0.805101
 11
0.966616
 21
2.114208
 31
-0.074360
 12
1.545396
 22
1.058237
 32
-0.073250
 13
1.545396
 23
1.058237
 33
-0.073250
 62
0
  0
3DFACE
  8
NoName5
 10
0.966616
 20
2.114208
 30
-0.074360
 11
0.000299
 21
1.058060
 31
-0.375589
 12
1.545396
 22
1.058237
 32
-0.073250
 13
1.545396
 23
1.058237
 33
-0.073250
 62
0
  0
3DFACE
  8
NoName5
 10
-0.755234
 20
1.267493
 30
0.805101
 11
0.000300
 21
2.835260
 31
-0.074353
 12
0.755837
 22
1.267493
 32
0.805101
 13
0.755837
 23
1.267493
 33
0.805101
 62
4
  0
3DFACE
  8
NoName5
 10
-0.966004
 20
2.113544
 30
-0.074354
 11
-0.827484
 21
1.739835
 31
0.343841
 12
-0.755234
 22
1.267493
 32
0.805101
 13
-0.755234
 23
1.267493
 33
0.805101
 62
2
  0
3DFACE
  8
NoName5
 10
-0.576944
 20
2.275154
 30
0.038680
 11
-0.827484
 21
1.739835
 31
0.343841
 12
-0.966004
 22
2.113544
 32
-0.074354
 13
-0.966004
 23
2.113544
 33
-0.074354
 62
2
  0
3DFACE
  8
NoName5
 10
-0.063252
 20
2.751844
 30
-0.042845
 11
-0.576944
 21
2.275154
 31
0.038680
 12
-0.966004
 22
2.113544
 32
-0.074354
 13
-0.966004
 23
2.113544
 33
-0.074354
 62
2
  0
3DFACE
  8
NoName5
 10
0.000300
 20
2.835260
 30
-0.074353
 11
-0.063252
 21
2.751844
 31
-0.042845
 12
-0.966004
 22
2.113544
 32
-0.074354
 13
-0.966004
 23
2.113544
 33
-0.074354
 62
2
  0
3DFACE
  8
NoName5
 10
-0.297209
 20
2.305260
 30
0.195403
 11
-0.755234
 21
1.267493
 31
0.805101
 12
-0.827484
 22
1.739835
 32
0.343841
 13
-0.827484
 23
1.739835
 33
0.343841
 62
2
  0
3DFACE
  8
NoName5
 10
-0.063252
 20
2.751844
 30
-0.042845
 11
-0.755234
 21
1.267493
 31
0.805101
 12
-0.297209
 22
2.305260
 32
0.195403
 13
-0.297209
 23
2.305260
 33
0.195403
 62
2
  0
3DFACE
  8
NoName5
 10
0.000300
 20
2.835260
 30
-0.074353
 11
-0.755234
 21
1.267493
 31
0.805101
 12
-0.063252
 22
2.751844
 32
-0.042845
 13
-0.063252
 23
2.751844
 33
-0.042845
 62
2
  0
3DFACE
  8
NoName5
 10
-0.966004
 20
2.113544
 30
-0.074354
 11
0.000299
 21
1.058060
 31
-0.375589
 12
0.000300
 22
2.835260
 32
-0.074353
 13
0.000300
 23
2.835260
 33
-0.074353
 62
0
  0
3DFACE
  8
NoName5
 10
0.297560
 20
2.305492
 30
0.195403
 11
0.827834
 21
1.740345
 31
0.343841
 12
0.755837
 22
1.267493
 32
0.805101
 13
0.755837
 23
1.267493
 33
0.805101
 62
2
  0
3DFACE
  8
NoName5
 10
0.063603
 20
2.752056
 30
-0.042845
 11
0.297560
 21
2.305492
 31
0.195403
 12
0.755837
 22
1.267493
 32
0.805101
 13
0.755837
 23
1.267493
 33
0.805101
 62
2
  0
3DFACE
  8
NoName5
 10
0.000300
 20
2.835260
 30
-0.074353
 11
0.063603
 21
2.752056
 31
-0.042845
 12
0.755837
 22
1.267493
 32
0.805101
 13
0.755837
 23
1.267493
 33
0.805101
 62
2
  0
3DFACE
  8
NoName5
 10
0.966616
 20
2.114208
 30
-0.074360
 11
0.755837
 21
1.267493
 31
0.805101
 12
0.827834
 22
1.740345
 32
0.343841
 13
0.827834
 23
1.740345
 33
0.343841
 62
2
  0
3DFACE
  8
NoName5
 10
0.577295
 20
2.275670
 30
0.038680
 11
0.966616
 21
2.114208
 31
-0.074360
 12
0.827834
 22
1.740345
 32
0.343841
 13
0.827834
 23
1.740345
 33
0.343841
 62
2
  0
3DFACE
  8
NoName5
 10
0.063603
 20
2.752056
 30
-0.042845
 11
0.966616
 21
2.114208
 31
-0.074360
 12
0.577295
 22
2.275670
 32
0.038680
 13
0.577295
 23
2.275670
 33
0.038680
 62
2
  0
3DFACE
  8
NoName5
 10
0.000300
 20
2.835260
 30
-0.074353
 11
0.966616
 21
2.114208
 31
-0.074360
 12
0.063603
 22
2.752056
 32
-0.042845
 13
0.063603
 23
2.752056
 33
-0.042845
 62
2
  0
3DFACE
  8
NoName5
 10
0.000299
 20
1.058060
 30
-0.375589
 11
0.966616
 21
2.114208
 31
-0.074360
 12
0.000300
 22
2.835260
 32
-0.074353
 13
0.000300
 23
2.835260
 33
-0.074353
 62
0
  0
3DFACE
  8
NoName5
 10
-0.966004
 20
2.113544
 30
-0.074354
 11
-0.755234
 21
1.267493
 31
0.805101
 12
-1.545788
 22
1.058236
 32
-0.073250
 13
-1.545788
 23
1.058236
 33
-0.073250
 62
0
  0
3DFACE
  8
NoName5
 10
0.000299
 20
1.058060
 30
-0.375589
 11
-0.966004
 21
2.113544
 31
-0.074354
 12
-1.545788
 22
1.058236
 32
-0.073250
 13
-1.545788
 23
1.058236
 33
-0.073250
 62
0
  0
3DFACE
  8
NoName5
 10
0.827834
 20
1.606970
 30
0.343841
 11
0.827834
 21
1.740345
 31
0.343841
 12
0.297560
 22
2.305492
 32
0.195403
 13
0.297569
 23
2.238543
 33
0.195403
 62
2
  0
3DFACE
  8
NoName5
 10
0.577295
 20
2.169105
 30
0.038680
 11
0.827834
 21
1.606970
 31
0.343841
 12
0.297569
 22
2.238543
 32
0.195403
 13
0.063622
 23
2.714192
 33
-0.042845
 62
3
  0
3DFACE
  8
NoName5
 10
0.297569
 20
2.238543
 30
0.195403
 11
0.297560
 21
2.305492
 31
0.195403
 12
0.063603
 22
2.752056
 32
-0.042845
 13
0.063622
 23
2.714192
 33
-0.042845
 62
2
  0
3DFACE
  8
NoName5
 10
0.577295
 20
2.169105
 30
0.038680
 11
0.577295
 21
2.275670
 31
0.038680
 12
0.827834
 22
1.740345
 32
0.343841
 13
0.827834
 23
1.606970
 33
0.343841
 62
2
  0
3DFACE
  8
NoName5
 10
0.063622
 20
2.714192
 30
-0.042845
 11
0.063603
 21
2.752056
 31
-0.042845
 12
0.577295
 22
2.275670
 32
0.038680
 13
0.577295
 23
2.169105
 33
0.038680
 62
2
  0
3DFACE
  8
NoName5
 10
-0.063271
 20
2.714192
 30
-0.042845
 11
-0.576944
 21
2.169105
 31
0.038681
 12
-0.576944
 22
2.275154
 32
0.038680
 13
-0.063252
 23
2.751844
 33
-0.042845
 62
2
  0
3DFACE
  8
NoName5
 10
-0.576944
 20
2.169105
 30
0.038681
 11
-0.827484
 21
1.606970
 31
0.343842
 12
-0.827484
 22
1.739835
 32
0.343841
 13
-0.576944
 23
2.275154
 33
0.038680
 62
2
  0
3DFACE
  8
NoName5
 10
-0.297218
 20
2.238543
 30
0.195404
 11
-0.827484
 21
1.606970
 31
0.343842
 12
-0.576944
 22
2.169105
 32
0.038681
 13
-0.063271
 23
2.714192
 33
-0.042845
 62
1
  0
3DFACE
  8
NoName5
 10
-0.827484
 20
1.606970
 30
0.343842
 11
-0.297218
 21
2.238543
 31
0.195404
 12
-0.297209
 22
2.305260
 32
0.195403
 13
-0.827484
 23
1.739835
 33
0.343841
 62
2
  0
3DFACE
  8
NoName5
 10
-0.297218
 20
2.238543
 30
0.195404
 11
-0.063271
 21
2.714192
 31
-0.042845
 12
-0.063252
 22
2.751844
 32
-0.042845
 13
-0.297209
 23
2.305260
 33
0.195403
 62
2
  0
3DFACE
  8
Cylinder4
 10
-0.770423
 20
0.815102
 30
-0.149606
 11
-2.447946
 21
0.815097
 31
-0.744954
 12
-2.524495
 22
0.687951
 32
-0.529274
 13
-0.846972
 23
0.687957
 33
0.066074
 62
0
  0
3DFACE
  8
Cylinder4
 10
-0.846972
 20
0.687957
 30
0.066074
 11
-2.524495
 21
0.687951
 31
-0.529274
 12
-2.524495
 22
0.942242
 32
-0.529274
 13
-0.846972
 23
0.942248
 33
0.066074
 62
0
  0
3DFACE
  8
Cylinder4
 10
-0.846972
 20
0.942248
 30
0.066074
 11
-2.524495
 21
0.942242
 31
-0.529274
 12
-2.447946
 22
0.815097
 32
-0.744954
 13
-0.770423
 23
0.815102
 33
-0.149606
 62
0
  0
3DFACE
  8
Cylinder4
 10
-0.770423
 20
0.815102
 30
-0.149606
 11
-0.846972
 21
0.687957
 31
0.066074
 12
-0.846972
 22
0.942248
 32
0.066074
 13
-0.846972
 23
0.942248
 33
0.066074
 62
0
  0
3DFACE
  8
Cylinder4
 10
-2.524495
 20
0.942242
 30
-0.529274
 11
-2.524495
 21
0.687951
 31
-0.529274
 12
-2.447946
 22
0.815097
 32
-0.744954
 13
-2.447946
 23
0.815097
 33
-0.744954
 62
0
  0
3DFACE
  8
Cylinder3
 10
-2.719775
 20
2.173750
 30
-0.643287
 11
-2.733325
 21
2.173750
 31
-0.575168
 12
-2.733325
 22
0.972254
 32
-0.575168
 13
-2.719775
 23
0.972254
 33
-0.643287
 62
0
  0
3DFACE
  8
Cylinder3
 10
-2.681189
 20
2.173750
 30
-0.701035
 11
-2.719775
 21
2.173750
 31
-0.643287
 12
-2.719775
 22
0.972254
 32
-0.643287
 13
-2.681189
 23
0.972254
 33
-0.701036
 62
0
  0
3DFACE
  8
Cylinder3
 10
-2.623440
 20
2.173750
 30
-0.739622
 11
-2.681189
 21
2.173750
 31
-0.701035
 12
-2.681189
 22
0.972254
 32
-0.701036
 13
-2.623440
 23
0.972254
 33
-0.739622
 62
0
  0
3DFACE
  8
Cylinder3
 10
-2.555321
 20
2.173750
 30
-0.753172
 11
-2.623440
 21
2.173750
 31
-0.739622
 12
-2.623440
 22
0.972254
 32
-0.739622
 13
-2.555321
 23
0.972254
 33
-0.753172
 62
0
  0
3DFACE
  8
Cylinder3
 10
-2.487202
 20
2.173750
 30
-0.739622
 11
-2.555321
 21
2.173750
 31
-0.753172
 12
-2.555321
 22
0.972254
 32
-0.753172
 13
-2.487202
 23
0.972254
 33
-0.739622
 62
0
  0
3DFACE
  8
Cylinder3
 10
-2.429453
 20
2.173750
 30
-0.701035
 11
-2.487202
 21
2.173750
 31
-0.739622
 12
-2.487202
 22
0.972254
 32
-0.739622
 13
-2.429453
 23
0.972254
 33
-0.701036
 62
0
  0
3DFACE
  8
Cylinder3
 10
-2.390867
 20
2.173750
 30
-0.643287
 11
-2.429453
 21
2.173750
 31
-0.701035
 12
-2.429453
 22
0.972254
 32
-0.701036
 13
-2.390867
 23
0.972254
 33
-0.643287
 62
0
  0
3DFACE
  8
Cylinder3
 10
-2.377317
 20
2.173750
 30
-0.575168
 11
-2.390867
 21
2.173750
 31
-0.643287
 12
-2.390867
 22
0.972254
 32
-0.643287
 13
-2.377317
 23
0.972254
 33
-0.575168
 62
0
  0
3DFACE
  8
Cylinder3
 10
-2.390867
 20
2.173750
 30
-0.507049
 11
-2.377317
 21
2.173750
 31
-0.575168
 12
-2.377317
 22
0.972254
 32
-0.575168
 13
-2.390867
 23
0.972254
 33
-0.507049
 62
0
  0
3DFACE
  8
Cylinder3
 10
-2.429453
 20
2.173750
 30
-0.449300
 11
-2.390867
 21
2.173750
 31
-0.507049
 12
-2.390867
 22
0.972254
 32
-0.507049
 13
-2.429453
 23
0.972254
 33
-0.449300
 62
0
  0
3DFACE
  8
Cylinder3
 10
-2.487202
 20
2.173750
 30
-0.410714
 11
-2.429453
 21
2.173750
 31
-0.449300
 12
-2.429453
 22
0.972254
 32
-0.449300
 13
-2.487202
 23
0.972254
 33
-0.410714
 62
0
  0
3DFACE
  8
Cylinder3
 10
-2.555321
 20
2.173750
 30
-0.397164
 11
-2.487202
 21
2.173750
 31
-0.410714
 12
-2.487202
 22
0.972254
 32
-0.410714
 13
-2.555321
 23
0.972254
 33
-0.397164
 62
0
  0
3DFACE
  8
Cylinder3
 10
-2.623440
 20
2.173750
 30
-0.410714
 11
-2.555321
 21
2.173750
 31
-0.397164
 12
-2.555321
 22
0.972254
 32
-0.397164
 13
-2.623440
 23
0.972254
 33
-0.410714
 62
0
  0
3DFACE
  8
Cylinder3
 10
-2.681189
 20
2.173750
 30
-0.449300
 11
-2.623440
 21
2.173750
 31
-0.410714
 12
-2.623440
 22
0.972254
 32
-0.410714
 13
-2.681189
 23
0.972254
 33
-0.449300
 62
0
  0
3DFACE
  8
Cylinder3
 10
-2.719775
 20
2.173750
 30
-0.507049
 11
-2.681189
 21
2.173750
 31
-0.449300
 12
-2.681189
 22
0.972254
 32
-0.449300
 13
-2.719775
 23
0.972254
 33
-0.507049
 62
0
  0
3DFACE
  8
Cylinder3
 10
-2.733325
 20
2.173750
 30
-0.575168
 11
-2.719775
 21
2.173750
 31
-0.507049
 12
-2.719775
 22
0.972254
 32
-0.507049
 13
-2.733325
 23
0.972254
 33
-0.575168
 62
0
  0
3DFACE
  8
Cylinder3
 10
-2.623440
 20
0.972254
 30
-0.739622
 11
-2.487202
 21
0.972254
 31
-0.739622
 12
-2.555321
 22
0.972254
 32
-0.753172
 13
-2.555321
 23
0.972254
 33
-0.753172
 62
0
  0
3DFACE
  8
Cylinder3
 10
-2.429453
 20
0.972254
 30
-0.701036
 11
-2.487202
 21
0.972254
 31
-0.739622
 12
-2.623440
 22
0.972254
 32
-0.739622
 13
-2.623440
 23
0.972254
 33
-0.739622
 62
0
  0
3DFACE
  8
Cylinder3
 10
-2.681189
 20
0.972254
 30
-0.701036
 11
-2.429453
 21
0.972254
 31
-0.701036
 12
-2.623440
 22
0.972254
 32
-0.739622
 13
-2.623440
 23
0.972254
 33
-0.739622
 62
0
  0
3DFACE
  8
Cylinder3
 10
-2.390867
 20
0.972254
 30
-0.643287
 11
-2.429453
 21
0.972254
 31
-0.701036
 12
-2.681189
 22
0.972254
 32
-0.701036
 13
-2.681189
 23
0.972254
 33
-0.701036
 62
0
  0
3DFACE
  8
Cylinder3
 10
-2.719775
 20
0.972254
 30
-0.643287
 11
-2.390867
 21
0.972254
 31
-0.643287
 12
-2.681189
 22
0.972254
 32
-0.701036
 13
-2.681189
 23
0.972254
 33
-0.701036
 62
0
  0
3DFACE
  8
Cylinder3
 10
-2.733325
 20
0.972254
 30
-0.575168
 11
-2.390867
 21
0.972254
 31
-0.643287
 12
-2.719775
 22
0.972254
 32
-0.643287
 13
-2.719775
 23
0.972254
 33
-0.643287
 62
0
  0
3DFACE
  8
Cylinder3
 10
-2.377317
 20
0.972254
 30
-0.575168
 11
-2.390867
 21
0.972254
 31
-0.643287
 12
-2.733325
 22
0.972254
 32
-0.575168
 13
-2.733325
 23
0.972254
 33
-0.575168
 62
0
  0
3DFACE
  8
Cylinder3
 10
-2.390867
 20
0.972254
 30
-0.507049
 11
-2.377317
 21
0.972254
 31
-0.575168
 12
-2.733325
 22
0.972254
 32
-0.575168
 13
-2.733325
 23
0.972254
 33
-0.575168
 62
0
  0
3DFACE
  8
Cylinder3
 10
-2.719775
 20
0.972254
 30
-0.507049
 11
-2.390867
 21
0.972254
 31
-0.507049
 12
-2.733325
 22
0.972254
 32
-0.575168
 13
-2.733325
 23
0.972254
 33
-0.575168
 62
0
  0
3DFACE
  8
Cylinder3
 10
-2.429453
 20
0.972254
 30
-0.449300
 11
-2.390867
 21
0.972254
 31
-0.507049
 12
-2.719775
 22
0.972254
 32
-0.507049
 13
-2.719775
 23
0.972254
 33
-0.507049
 62
0
  0
3DFACE
  8
Cylinder3
 10
-2.681189
 20
0.972254
 30
-0.449300
 11
-2.429453
 21
0.972254
 31
-0.449300
 12
-2.719775
 22
0.972254
 32
-0.507049
 13
-2.719775
 23
0.972254
 33
-0.507049
 62
0
  0
3DFACE
  8
Cylinder3
 10
-2.487202
 20
0.972254
 30
-0.410714
 11
-2.429453
 21
0.972254
 31
-0.449300
 12
-2.681189
 22
0.972254
 32
-0.449300
 13
-2.681189
 23
0.972254
 33
-0.449300
 62
0
  0
3DFACE
  8
Cylinder3
 10
-2.623440
 20
0.972254
 30
-0.410714
 11
-2.487202
 21
0.972254
 31
-0.410714
 12
-2.681189
 22
0.972254
 32
-0.449300
 13
-2.681189
 23
0.972254
 33
-0.449300
 62
0
  0
3DFACE
  8
Cylinder3
 10
-2.555321
 20
0.972254
 30
-0.397164
 11
-2.487202
 21
0.972254
 31
-0.410714
 12
-2.623440
 22
0.972254
 32
-0.410714
 13
-2.623440
 23
0.972254
 33
-0.410714
 62
0
  0
3DFACE
  8
Cylinder3
 10
-2.599112
 20
2.173750
 30
-0.680888
 11
-2.681189
 21
2.173750
 31
-0.701035
 12
-2.555321
 22
2.173750
 32
-0.689599
 13
-2.555321
 23
2.173750
 33
-0.689599
 62
0
  0
3DFACE
  8
Cylinder3
 10
-2.636236
 20
2.173750
 30
-0.656083
 11
-2.681189
 21
2.173750
 31
-0.701035
 12
-2.599112
 22
2.173750
 32
-0.680888
 13
-2.599112
 23
2.173750
 33
-0.680888
 62
0
  0
3DFACE
  8
Cylinder3
 10
-2.719775
 20
2.173750
 30
-0.643287
 11
-2.681189
 21
2.173750
 31
-0.701035
 12
-2.636236
 22
2.173750
 32
-0.656083
 13
-2.636236
 23
2.173750
 33
-0.656083
 62
0
  0
3DFACE
  8
Cylinder3
 10
-2.661041
 20
2.173750
 30
-0.618959
 11
-2.719775
 21
2.173750
 31
-0.643287
 12
-2.636236
 22
2.173750
 32
-0.656083
 13
-2.636236
 23
2.173750
 33
-0.656083
 62
0
  0
3DFACE
  8
Cylinder3
 10
-2.733325
 20
2.173750
 30
-0.575168
 11
-2.719775
 21
2.173750
 31
-0.643287
 12
-2.661041
 22
2.173750
 32
-0.618959
 13
-2.661041
 23
2.173750
 33
-0.618959
 62
0
  0
3DFACE
  8
Cylinder3
 10
-2.669752
 20
2.173750
 30
-0.575168
 11
-2.733325
 21
2.173750
 31
-0.575168
 12
-2.661041
 22
2.173750
 32
-0.618959
 13
-2.661041
 23
2.173750
 33
-0.618959
 62
0
  0
3DFACE
  8
Cylinder3
 10
-2.661041
 20
2.173750
 30
-0.531377
 11
-2.733325
 21
2.173750
 31
-0.575168
 12
-2.669752
 22
2.173750
 32
-0.575168
 13
-2.669752
 23
2.173750
 33
-0.575168
 62
0
  0
3DFACE
  8
Cylinder3
 10
-2.719775
 20
2.173750
 30
-0.507049
 11
-2.733325
 21
2.173750
 31
-0.575168
 12
-2.661041
 22
2.173750
 32
-0.531377
 13
-2.661041
 23
2.173750
 33
-0.531377
 62
0
  0
3DFACE
  8
Cylinder3
 10
-2.636236
 20
2.173750
 30
-0.494253
 11
-2.719775
 21
2.173750
 31
-0.507049
 12
-2.661041
 22
2.173750
 32
-0.531377
 13
-2.661041
 23
2.173750
 33
-0.531377
 62
0
  0
3DFACE
  8
Cylinder3
 10
-2.599112
 20
2.173750
 30
-0.469447
 11
-2.719775
 21
2.173750
 31
-0.507049
 12
-2.636236
 22
2.173750
 32
-0.494253
 13
-2.636236
 23
2.173750
 33
-0.494253
 62
0
  0
3DFACE
  8
Cylinder3
 10
-2.681189
 20
2.173750
 30
-0.449300
 11
-2.719775
 21
2.173750
 31
-0.507049
 12
-2.599112
 22
2.173750
 32
-0.469447
 13
-2.599112
 23
2.173750
 33
-0.469447
 62
0
  0
3DFACE
  8
Cylinder3
 10
-2.681189
 20
2.173750
 30
-0.449300
 11
-2.599112
 21
2.173750
 31
-0.469447
 12
-2.555321
 22
2.173750
 32
-0.460737
 13
-2.555321
 23
2.173750
 33
-0.460737
 62
0
  0
3DFACE
  8
Cylinder3
 10
-2.429453
 20
2.173750
 30
-0.449300
 11
-2.681189
 21
2.173750
 31
-0.449300
 12
-2.555321
 22
2.173750
 32
-0.460737
 13
-2.555321
 23
2.173750
 33
-0.460737
 62
0
  0
3DFACE
  8
Cylinder3
 10
-2.623440
 20
2.173750
 30
-0.410714
 11
-2.681189
 21
2.173750
 31
-0.449300
 12
-2.429453
 22
2.173750
 32
-0.449300
 13
-2.429453
 23
2.173750
 33
-0.449300
 62
0
  0
3DFACE
  8
Cylinder3
 10
-2.487202
 20
2.173750
 30
-0.410714
 11
-2.623440
 21
2.173750
 31
-0.410714
 12
-2.429453
 22
2.173750
 32
-0.449300
 13
-2.429453
 23
2.173750
 33
-0.449300
 62
0
  0
3DFACE
  8
Cylinder3
 10
-2.555321
 20
2.173750
 30
-0.397164
 11
-2.623440
 21
2.173750
 31
-0.410714
 12
-2.487202
 22
2.173750
 32
-0.410714
 13
-2.487202
 23
2.173750
 33
-0.410714
 62
0
  0
3DFACE
  8
Cylinder3
 10
-2.487202
 20
2.173750
 30
-0.739622
 11
-2.623440
 21
2.173750
 31
-0.739622
 12
-2.555321
 22
2.173750
 32
-0.753172
 13
-2.555321
 23
2.173750
 33
-0.753172
 62
0
  0
3DFACE
  8
Cylinder3
 10
-2.681189
 20
2.173750
 30
-0.701035
 11
-2.623440
 21
2.173750
 31
-0.739622
 12
-2.487202
 22
2.173750
 32
-0.739622
 13
-2.487202
 23
2.173750
 33
-0.739622
 62
0
  0
3DFACE
  8
Cylinder3
 10
-2.429453
 20
2.173750
 30
-0.701035
 11
-2.681189
 21
2.173750
 31
-0.701035
 12
-2.487202
 22
2.173750
 32
-0.739622
 13
-2.487202
 23
2.173750
 33
-0.739622
 62
0
  0
3DFACE
  8
Cylinder3
 10
-2.555321
 20
2.173750
 30
-0.689599
 11
-2.681189
 21
2.173750
 31
-0.701035
 12
-2.429453
 22
2.173750
 32
-0.701035
 13
-2.429453
 23
2.173750
 33
-0.701035
 62
0
  0
3DFACE
  8
Cylinder3
 10
-2.511530
 20
2.173750
 30
-0.680888
 11
-2.555321
 21
2.173750
 31
-0.689599
 12
-2.429453
 22
2.173750
 32
-0.701035
 13
-2.429453
 23
2.173750
 33
-0.701035
 62
0
  0
3DFACE
  8
Cylinder3
 10
-2.474406
 20
2.173750
 30
-0.656083
 11
-2.511530
 21
2.173750
 31
-0.680888
 12
-2.429453
 22
2.173750
 32
-0.701035
 13
-2.429453
 23
2.173750
 33
-0.701035
 62
0
  0
3DFACE
  8
Cylinder3
 10
-2.390867
 20
2.173750
 30
-0.643287
 11
-2.474406
 21
2.173750
 31
-0.656083
 12
-2.429453
 22
2.173750
 32
-0.701035
 13
-2.429453
 23
2.173750
 33
-0.701035
 62
0
  0
3DFACE
  8
Cylinder3
 10
-2.449600
 20
2.173750
 30
-0.618959
 11
-2.474406
 21
2.173750
 31
-0.656083
 12
-2.390867
 22
2.173750
 32
-0.643287
 13
-2.390867
 23
2.173750
 33
-0.643287
 62
0
  0
3DFACE
  8
Cylinder3
 10
-2.440890
 20
2.173750
 30
-0.575168
 11
-2.449600
 21
2.173750
 31
-0.618959
 12
-2.390867
 22
2.173750
 32
-0.643287
 13
-2.390867
 23
2.173750
 33
-0.643287
 62
0
  0
3DFACE
  8
Cylinder3
 10
-2.377317
 20
2.173750
 30
-0.575168
 11
-2.440890
 21
2.173750
 31
-0.575168
 12
-2.390867
 22
2.173750
 32
-0.643287
 13
-2.390867
 23
2.173750
 33
-0.643287
 62
0
  0
3DFACE
  8
Cylinder3
 10
-2.449600
 20
2.173750
 30
-0.531377
 11
-2.440890
 21
2.173750
 31
-0.575168
 12
-2.377317
 22
2.173750
 32
-0.575168
 13
-2.377317
 23
2.173750
 33
-0.575168
 62
0
  0
3DFACE
  8
Cylinder3
 10
-2.390867
 20
2.173750
 30
-0.507049
 11
-2.449600
 21
2.173750
 31
-0.531377
 12
-2.377317
 22
2.173750
 32
-0.575168
 13
-2.377317
 23
2.173750
 33
-0.575168
 62
0
  0
3DFACE
  8
Cylinder3
 10
-2.474406
 20
2.173750
 30
-0.494253
 11
-2.449600
 21
2.173750
 31
-0.531377
 12
-2.390867
 22
2.173750
 32
-0.507049
 13
-2.390867
 23
2.173750
 33
-0.507049
 62
0
  0
3DFACE
  8
Cylinder3
 10
-2.511530
 20
2.173750
 30
-0.469447
 11
-2.474406
 21
2.173750
 31
-0.494253
 12
-2.390867
 22
2.173750
 32
-0.507049
 13
-2.390867
 23
2.173750
 33
-0.507049
 62
0
  0
3DFACE
  8
Cylinder3
 10
-2.429453
 20
2.173750
 30
-0.449300
 11
-2.511530
 21
2.173750
 31
-0.469447
 12
-2.390867
 22
2.173750
 32
-0.507049
 13
-2.390867
 23
2.173750
 33
-0.507049
 62
0
  0
3DFACE
  8
Cylinder3
 10
-2.429453
 20
2.173750
 30
-0.449300
 11
-2.555321
 21
2.173750
 31
-0.460737
 12
-2.511530
 22
2.173750
 32
-0.469447
 13
-2.511530
 23
2.173750
 33
-0.469447
 62
0
  0
3DFACE
  8
Cylinder3
 10
-2.449600
 20
1.188765
 30
-0.531377
 11
-2.440890
 21
1.188765
 31
-0.575168
 12
-2.440890
 22
2.173750
 32
-0.575168
 13
-2.449600
 23
2.173750
 33
-0.531377
 62
1
  0
3DFACE
  8
Cylinder3
 10
-2.474406
 20
1.188765
 30
-0.494253
 11
-2.449600
 21
1.188765
 31
-0.531377
 12
-2.449600
 22
2.173750
 32
-0.531377
 13
-2.474406
 23
2.173750
 33
-0.494253
 62
1
  0
3DFACE
  8
Cylinder3
 10
-2.511530
 20
1.188765
 30
-0.469447
 11
-2.474406
 21
1.188765
 31
-0.494253
 12
-2.474406
 22
2.173750
 32
-0.494253
 13
-2.511530
 23
2.173750
 33
-0.469447
 62
1
  0
3DFACE
  8
Cylinder3
 10
-2.555321
 20
1.188765
 30
-0.460737
 11
-2.511530
 21
1.188765
 31
-0.469447
 12
-2.511530
 22
2.173750
 32
-0.469447
 13
-2.555321
 23
2.173750
 33
-0.460737
 62
1
  0
3DFACE
  8
Cylinder3
 10
-2.599112
 20
1.188765
 30
-0.469447
 11
-2.555321
 21
1.188765
 31
-0.460737
 12
-2.555321
 22
2.173750
 32
-0.460737
 13
-2.599112
 23
2.173750
 33
-0.469447
 62
1
  0
3DFACE
  8
Cylinder3
 10
-2.636236
 20
1.188765
 30
-0.494253
 11
-2.599112
 21
1.188765
 31
-0.469447
 12
-2.599112
 22
2.173750
 32
-0.469447
 13
-2.636236
 23
2.173750
 33
-0.494253
 62
1
  0
3DFACE
  8
Cylinder3
 10
-2.661041
 20
1.188765
 30
-0.531377
 11
-2.636236
 21
1.188765
 31
-0.494253
 12
-2.636236
 22
2.173750
 32
-0.494253
 13
-2.661041
 23
2.173750
 33
-0.531377
 62
1
  0
3DFACE
  8
Cylinder3
 10
-2.669752
 20
1.188765
 30
-0.575168
 11
-2.661041
 21
1.188765
 31
-0.531377
 12
-2.661041
 22
2.173750
 32
-0.531377
 13
-2.669752
 23
2.173750
 33
-0.575168
 62
1
  0
3DFACE
  8
Cylinder3
 10
-2.511530
 20
1.188765
 30
-0.680888
 11
-2.599112
 21
1.188765
 31
-0.680888
 12
-2.555321
 22
1.188765
 32
-0.689599
 13
-2.555321
 23
1.188765
 33
-0.689599
 62
1
  0
3DFACE
  8
Cylinder3
 10
-2.636236
 20
1.188765
 30
-0.656083
 11
-2.599112
 21
1.188765
 31
-0.680888
 12
-2.511530
 22
1.188765
 32
-0.680888
 13
-2.511530
 23
1.188765
 33
-0.680888
 62
1
  0
3DFACE
  8
Cylinder3
 10
-2.474406
 20
1.188765
 30
-0.656083
 11
-2.636236
 21
1.188765
 31
-0.656083
 12
-2.511530
 22
1.188765
 32
-0.680888
 13
-2.511530
 23
1.188765
 33
-0.680888
 62
1
  0
3DFACE
  8
Cylinder3
 10
-2.661041
 20
1.188765
 30
-0.618959
 11
-2.636236
 21
1.188765
 31
-0.656083
 12
-2.474406
 22
1.188765
 32
-0.656083
 13
-2.474406
 23
1.188765
 33
-0.656083
 62
1
  0
3DFACE
  8
Cylinder3
 10
-2.449600
 20
1.188765
 30
-0.618959
 11
-2.661041
 21
1.188765
 31
-0.618959
 12
-2.474406
 22
1.188765
 32
-0.656083
 13
-2.474406
 23
1.188765
 33
-0.656083
 62
1
  0
3DFACE
  8
Cylinder3
 10
-2.669752
 20
1.188765
 30
-0.575168
 11
-2.661041
 21
1.188765
 31
-0.618959
 12
-2.449600
 22
1.188765
 32
-0.618959
 13
-2.449600
 23
1.188765
 33
-0.618959
 62
1
  0
3DFACE
  8
Cylinder3
 10
-2.440890
 20
1.188765
 30
-0.575168
 11
-2.669752
 21
1.188765
 31
-0.575168
 12
-2.449600
 22
1.188765
 32
-0.618959
 13
-2.449600
 23
1.188765
 33
-0.618959
 62
1
  0
3DFACE
  8
Cylinder3
 10
-2.661041
 20
1.188765
 30
-0.531377
 11
-2.669752
 21
1.188765
 31
-0.575168
 12
-2.440890
 22
1.188765
 32
-0.575168
 13
-2.440890
 23
1.188765
 33
-0.575168
 62
1
  0
3DFACE
  8
Cylinder3
 10
-2.449600
 20
1.188765
 30
-0.531377
 11
-2.661041
 21
1.188765
 31
-0.531377
 12
-2.440890
 22
1.188765
 32
-0.575168
 13
-2.440890
 23
1.188765
 33
-0.575168
 62
1
  0
3DFACE
  8
Cylinder3
 10
-2.636236
 20
1.188765
 30
-0.494253
 11
-2.661041
 21
1.188765
 31
-0.531377
 12
-2.449600
 22
1.188765
 32
-0.531377
 13
-2.449600
 23
1.188765
 33
-0.531377
 62
1
  0
3DFACE
  8
Cylinder3
 10
-2.474406
 20
1.188765
 30
-0.494253
 11
-2.636236
 21
1.188765
 31
-0.494253
 12
-2.449600
 22
1.188765
 32
-0.531377
 13
-2.449600
 23
1.188765
 33
-0.531377
 62
1
  0
3DFACE
  8
Cylinder3
 10
-2.599112
 20
1.188765
 30
-0.469447
 11
-2.636236
 21
1.188765
 31
-0.494253
 12
-2.474406
 22
1.188765
 32
-0.494253
 13
-2.474406
 23
1.188765
 33
-0.494253
 62
1
  0
3DFACE
  8
Cylinder3
 10
-2.511530
 20
1.188765
 30
-0.469447
 11
-2.599112
 21
1.188765
 31
-0.469447
 12
-2.474406
 22
1.188765
 32
-0.494253
 13
-2.474406
 23
1.188765
 33
-0.494253
 62
1
  0
3DFACE
  8
Cylinder3
 10
-2.555321
 20
1.188765
 30
-0.460737
 11
-2.599112
 21
1.188765
 31
-0.469447
 12
-2.511530
 22
1.188765
 32
-0.469447
 13
-2.511530
 23
1.188765
 33
-0.469447
 62
1
  0
3DFACE
  8
Cylinder3
 10
-2.449600
 20
1.188765
 30
-0.618959
 11
-2.474406
 21
1.188765
 31
-0.656083
 12
-2.474406
 22
2.173750
 32
-0.656083
 13
-2.449600
 23
2.173750
 33
-0.618959
 62
1
  0
3DFACE
  8
Cylinder3
 10
-2.440890
 20
1.188765
 30
-0.575168
 11
-2.449600
 21
1.188765
 31
-0.618959
 12
-2.449600
 22
2.173750
 32
-0.618959
 13
-2.440890
 23
2.173750
 33
-0.575168
 62
1
  0
3DFACE
  8
Cylinder3
 10
-2.474406
 20
1.188765
 30
-0.656083
 11
-2.511530
 21
1.188765
 31
-0.680888
 12
-2.511530
 22
2.173750
 32
-0.680888
 13
-2.474406
 23
2.173750
 33
-0.656083
 62
1
  0
3DFACE
  8
Cylinder3
 10
-2.511530
 20
1.188765
 30
-0.680888
 11
-2.555321
 21
1.188765
 31
-0.689599
 12
-2.555321
 22
2.173750
 32
-0.689599
 13
-2.511530
 23
2.173750
 33
-0.680888
 62
1
  0
3DFACE
  8
Cylinder3
 10
-2.555321
 20
1.188765
 30
-0.689599
 11
-2.599112
 21
1.188765
 31
-0.680888
 12
-2.599112
 22
2.173750
 32
-0.680888
 13
-2.555321
 23
2.173750
 33
-0.689599
 62
1
  0
3DFACE
  8
Cylinder3
 10
-2.599112
 20
1.188765
 30
-0.680888
 11
-2.636236
 21
1.188765
 31
-0.656083
 12
-2.636236
 22
2.173750
 32
-0.656083
 13
-2.599112
 23
2.173750
 33
-0.680888
 62
1
  0
3DFACE
  8
Cylinder3
 10
-2.636236
 20
1.188765
 30
-0.656083
 11
-2.661041
 21
1.188765
 31
-0.618959
 12
-2.661041
 22
2.173750
 32
-0.618959
 13
-2.636236
 23
2.173750
 33
-0.656083
 62
1
  0
3DFACE
  8
Cylinder3
 10
-2.661041
 20
1.188765
 30
-0.618959
 11
-2.669752
 21
1.188765
 31
-0.575168
 12
-2.669752
 22
2.173750
 32
-0.575168
 13
-2.661041
 23
2.173750
 33
-0.618959
 62
1
  0
3DFACE
  8
NoName1
 10
-2.555964
 20
1.057720
 30
-0.128648
 11
-2.925971
 21
1.057657
 31
-0.805097
 12
-2.184698
 22
1.057728
 32
-0.805101
 13
-2.184698
 23
1.057728
 33
-0.805101
 62
0
  0
3DFACE
  8
NoName1
 10
-2.555963
 20
-1.098092
 30
-0.573989
 11
-2.555964
 21
1.057720
 31
-0.128648
 12
-2.184698
 22
1.057728
 32
-0.805101
 13
-2.184698
 23
1.057728
 33
-0.805101
 62
0
  0
3DFACE
  8
NoName1
 10
-2.925971
 20
1.057657
 30
-0.805097
 11
-2.555964
 21
1.057720
 31
-0.128648
 12
-2.555963
 22
-1.098092
 32
-0.573989
 13
-2.555963
 23
-1.098092
 33
-0.573989
 62
0
  0
3DFACE
  8
NoName1
 10
-2.555963
 20
-1.098092
 30
-0.573989
 11
-2.184698
 21
1.057728
 31
-0.805101
 12
-2.925971
 22
1.057657
 32
-0.805097
 13
-2.925971
 23
1.057657
 33
-0.805097
 62
0
  0
3DFACE
  8
Cylinder
 10
0.795470
 20
0.942245
 30
-0.077713
 11
2.472991
 21
0.942245
 31
-0.673063
 12
2.549536
 22
0.815100
 32
-0.457381
 13
0.872014
 23
0.815100
 33
0.137969
 62
0
  0
3DFACE
  8
Cylinder
 10
0.795470
 20
0.687954
 30
-0.077713
 11
2.472992
 21
0.687954
 31
-0.673063
 12
2.472991
 22
0.942245
 32
-0.673063
 13
0.795470
 23
0.942245
 33
-0.077713
 62
0
  0
3DFACE
  8
Cylinder
 10
0.872014
 20
0.815100
 30
0.137969
 11
2.549536
 21
0.815100
 31
-0.457381
 12
2.472992
 22
0.687954
 32
-0.673063
 13
0.795470
 23
0.687954
 33
-0.077713
 62
0
  0
3DFACE
  8
Cylinder
 10
0.795470
 20
0.687954
 30
-0.077713
 11
0.795470
 21
0.942245
 31
-0.077713
 12
0.872014
 22
0.815100
 32
0.137969
 13
0.872014
 23
0.815100
 33
0.137969
 62
0
  0
3DFACE
  8
Cylinder
 10
2.549536
 20
0.815100
 30
-0.457381
 11
2.472991
 21
0.942245
 31
-0.673063
 12
2.472992
 22
0.687954
 32
-0.673063
 13
2.472992
 23
0.687954
 33
-0.673063
 62
0
  0
3DFACE
  8
Cylinder2
 10
2.391473
 20
2.173750
 30
-0.643287
 11
2.377923
 21
2.173750
 31
-0.575168
 12
2.377923
 22
0.972254
 32
-0.575168
 13
2.391473
 23
0.972254
 33
-0.643287
 62
0
  0
3DFACE
  8
Cylinder2
 10
2.430059
 20
2.173750
 30
-0.701035
 11
2.391473
 21
2.173750
 31
-0.643287
 12
2.391473
 22
0.972254
 32
-0.643287
 13
2.430059
 23
0.972254
 33
-0.701036
 62
0
  0
3DFACE
  8
Cylinder2
 10
2.487808
 20
2.173750
 30
-0.739622
 11
2.430059
 21
2.173750
 31
-0.701035
 12
2.430059
 22
0.972254
 32
-0.701036
 13
2.487808
 23
0.972254
 33
-0.739622
 62
0
  0
3DFACE
  8
Cylinder2
 10
2.555927
 20
2.173750
 30
-0.753172
 11
2.487808
 21
2.173750
 31
-0.739622
 12
2.487808
 22
0.972254
 32
-0.739622
 13
2.555927
 23
0.972254
 33
-0.753172
 62
0
  0
3DFACE
  8
Cylinder2
 10
2.624046
 20
2.173750
 30
-0.739622
 11
2.555927
 21
2.173750
 31
-0.753172
 12
2.555927
 22
0.972254
 32
-0.753172
 13
2.624046
 23
0.972254
 33
-0.739622
 62
0
  0
3DFACE
  8
Cylinder2
 10
2.681795
 20
2.173750
 30
-0.701035
 11
2.624046
 21
2.173750
 31
-0.739622
 12
2.624046
 22
0.972254
 32
-0.739622
 13
2.681795
 23
0.972254
 33
-0.701036
 62
0
  0
3DFACE
  8
Cylinder2
 10
2.720381
 20
2.173750
 30
-0.643287
 11
2.681795
 21
2.173750
 31
-0.701035
 12
2.681795
 22
0.972254
 32
-0.701036
 13
2.720381
 23
0.972254
 33
-0.643287
 62
0
  0
3DFACE
  8
Cylinder2
 10
2.733931
 20
2.173750
 30
-0.575168
 11
2.720381
 21
2.173750
 31
-0.643287
 12
2.720381
 22
0.972254
 32
-0.643287
 13
2.733931
 23
0.972254
 33
-0.575168
 62
0
  0
3DFACE
  8
Cylinder2
 10
2.720381
 20
2.173750
 30
-0.507049
 11
2.733931
 21
2.173750
 31
-0.575168
 12
2.733931
 22
0.972254
 32
-0.575168
 13
2.720381
 23
0.972254
 33
-0.507049
 62
0
  0
3DFACE
  8
Cylinder2
 10
2.681795
 20
2.173750
 30
-0.449300
 11
2.720381
 21
2.173750
 31
-0.507049
 12
2.720381
 22
0.972254
 32
-0.507049
 13
2.681795
 23
0.972254
 33
-0.449300
 62
0
  0
3DFACE
  8
Cylinder2
 10
2.624046
 20
2.173750
 30
-0.410714
 11
2.681795
 21
2.173750
 31
-0.449300
 12
2.681795
 22
0.972254
 32
-0.449300
 13
2.624046
 23
0.972254
 33
-0.410714
 62
0
  0
3DFACE
  8
Cylinder2
 10
2.555927
 20
2.173750
 30
-0.397164
 11
2.624046
 21
2.173750
 31
-0.410714
 12
2.624046
 22
0.972254
 32
-0.410714
 13
2.555927
 23
0.972254
 33
-0.397164
 62
0
  0
3DFACE
  8
Cylinder2
 10
2.487808
 20
2.173750
 30
-0.410714
 11
2.555927
 21
2.173750
 31
-0.397164
 12
2.555927
 22
0.972254
 32
-0.397164
 13
2.487808
 23
0.972254
 33
-0.410714
 62
0
  0
3DFACE
  8
Cylinder2
 10
2.430059
 20
2.173750
 30
-0.449300
 11
2.487808
 21
2.173750
 31
-0.410714
 12
2.487808
 22
0.972254
 32
-0.410714
 13
2.430059
 23
0.972254
 33
-0.449300
 62
0
  0
3DFACE
  8
Cylinder2
 10
2.391473
 20
2.173750
 30
-0.507049
 11
2.430059
 21
2.173750
 31
-0.449300
 12
2.430059
 22
0.972254
 32
-0.449300
 13
2.391473
 23
0.972254
 33
-0.507049
 62
0
  0
3DFACE
  8
Cylinder2
 10
2.377923
 20
2.173750
 30
-0.575168
 11
2.391473
 21
2.173750
 31
-0.507049
 12
2.391473
 22
0.972254
 32
-0.507049
 13
2.377923
 23
0.972254
 33
-0.575168
 62
0
  0
3DFACE
  8
Cylinder2
 10
2.487808
 20
0.972254
 30
-0.739622
 11
2.624046
 21
0.972254
 31
-0.739622
 12
2.555927
 22
0.972254
 32
-0.753172
 13
2.555927
 23
0.972254
 33
-0.753172
 62
0
  0
3DFACE
  8
Cylinder2
 10
2.681795
 20
0.972254
 30
-0.701036
 11
2.624046
 21
0.972254
 31
-0.739622
 12
2.487808
 22
0.972254
 32
-0.739622
 13
2.487808
 23
0.972254
 33
-0.739622
 62
0
  0
3DFACE
  8
Cylinder2
 10
2.430059
 20
0.972254
 30
-0.701036
 11
2.681795
 21
0.972254
 31
-0.701036
 12
2.487808
 22
0.972254
 32
-0.739622
 13
2.487808
 23
0.972254
 33
-0.739622
 62
0
  0
3DFACE
  8
Cylinder2
 10
2.720381
 20
0.972254
 30
-0.643287
 11
2.681795
 21
0.972254
 31
-0.701036
 12
2.430059
 22
0.972254
 32
-0.701036
 13
2.430059
 23
0.972254
 33
-0.701036
 62
0
  0
3DFACE
  8
Cylinder2
 10
2.391473
 20
0.972254
 30
-0.643287
 11
2.720381
 21
0.972254
 31
-0.643287
 12
2.430059
 22
0.972254
 32
-0.701036
 13
2.430059
 23
0.972254
 33
-0.701036
 62
0
  0
3DFACE
  8
Cylinder2
 10
2.377923
 20
0.972254
 30
-0.575168
 11
2.720381
 21
0.972254
 31
-0.643287
 12
2.391473
 22
0.972254
 32
-0.643287
 13
2.391473
 23
0.972254
 33
-0.643287
 62
0
  0
3DFACE
  8
Cylinder2
 10
2.733931
 20
0.972254
 30
-0.575168
 11
2.720381
 21
0.972254
 31
-0.643287
 12
2.377923
 22
0.972254
 32
-0.575168
 13
2.377923
 23
0.972254
 33
-0.575168
 62
0
  0
3DFACE
  8
Cylinder2
 10
2.720381
 20
0.972254
 30
-0.507049
 11
2.733931
 21
0.972254
 31
-0.575168
 12
2.377923
 22
0.972254
 32
-0.575168
 13
2.377923
 23
0.972254
 33
-0.575168
 62
0
  0
3DFACE
  8
Cylinder2
 10
2.391473
 20
0.972254
 30
-0.507049
 11
2.720381
 21
0.972254
 31
-0.507049
 12
2.377923
 22
0.972254
 32
-0.575168
 13
2.377923
 23
0.972254
 33
-0.575168
 62
0
  0
3DFACE
  8
Cylinder2
 10
2.681795
 20
0.972254
 30
-0.449300
 11
2.720381
 21
0.972254
 31
-0.507049
 12
2.391473
 22
0.972254
 32
-0.507049
 13
2.391473
 23
0.972254
 33
-0.507049
 62
0
  0
3DFACE
  8
Cylinder2
 10
2.430059
 20
0.972254
 30
-0.449300
 11
2.681795
 21
0.972254
 31
-0.449300
 12
2.391473
 22
0.972254
 32
-0.507049
 13
2.391473
 23
0.972254
 33
-0.507049
 62
0
  0
3DFACE
  8
Cylinder2
 10
2.624046
 20
0.972254
 30
-0.410714
 11
2.681795
 21
0.972254
 31
-0.449300
 12
2.430059
 22
0.972254
 32
-0.449300
 13
2.430059
 23
0.972254
 33
-0.449300
 62
0
  0
3DFACE
  8
Cylinder2
 10
2.487808
 20
0.972254
 30
-0.410714
 11
2.624046
 21
0.972254
 31
-0.410714
 12
2.430059
 22
0.972254
 32
-0.449300
 13
2.430059
 23
0.972254
 33
-0.449300
 62
0
  0
3DFACE
  8
Cylinder2
 10
2.555927
 20
0.972254
 30
-0.397164
 11
2.624046
 21
0.972254
 31
-0.410714
 12
2.487808
 22
0.972254
 32
-0.410714
 13
2.487808
 23
0.972254
 33
-0.410714
 62
0
  0
3DFACE
  8
Cylinder2
 10
2.512136
 20
2.173750
 30
-0.680888
 11
2.430059
 21
2.173750
 31
-0.701035
 12
2.555927
 22
2.173750
 32
-0.689599
 13
2.555927
 23
2.173750
 33
-0.689599
 62
0
  0
3DFACE
  8
Cylinder2
 10
2.475012
 20
2.173750
 30
-0.656083
 11
2.430059
 21
2.173750
 31
-0.701035
 12
2.512136
 22
2.173750
 32
-0.680888
 13
2.512136
 23
2.173750
 33
-0.680888
 62
0
  0
3DFACE
  8
Cylinder2
 10
2.391473
 20
2.173750
 30
-0.643287
 11
2.430059
 21
2.173750
 31
-0.701035
 12
2.475012
 22
2.173750
 32
-0.656083
 13
2.475012
 23
2.173750
 33
-0.656083
 62
0
  0
3DFACE
  8
Cylinder2
 10
2.450207
 20
2.173750
 30
-0.618959
 11
2.391473
 21
2.173750
 31
-0.643287
 12
2.475012
 22
2.173750
 32
-0.656083
 13
2.475012
 23
2.173750
 33
-0.656083
 62
0
  0
3DFACE
  8
Cylinder2
 10
2.377923
 20
2.173750
 30
-0.575168
 11
2.391473
 21
2.173750
 31
-0.643287
 12
2.450207
 22
2.173750
 32
-0.618959
 13
2.450207
 23
2.173750
 33
-0.618959
 62
0
  0
3DFACE
  8
Cylinder2
 10
2.441496
 20
2.173750
 30
-0.575168
 11
2.377923
 21
2.173750
 31
-0.575168
 12
2.450207
 22
2.173750
 32
-0.618959
 13
2.450207
 23
2.173750
 33
-0.618959
 62
0
  0
3DFACE
  8
Cylinder2
 10
2.450207
 20
2.173750
 30
-0.531377
 11
2.377923
 21
2.173750
 31
-0.575168
 12
2.441496
 22
2.173750
 32
-0.575168
 13
2.441496
 23
2.173750
 33
-0.575168
 62
0
  0
3DFACE
  8
Cylinder2
 10
2.391473
 20
2.173750
 30
-0.507049
 11
2.377923
 21
2.173750
 31
-0.575168
 12
2.450207
 22
2.173750
 32
-0.531377
 13
2.450207
 23
2.173750
 33
-0.531377
 62
0
  0
3DFACE
  8
Cylinder2
 10
2.475012
 20
2.173750
 30
-0.494253
 11
2.391473
 21
2.173750
 31
-0.507049
 12
2.450207
 22
2.173750
 32
-0.531377
 13
2.450207
 23
2.173750
 33
-0.531377
 62
0
  0
3DFACE
  8
Cylinder2
 10
2.512136
 20
2.173750
 30
-0.469447
 11
2.391473
 21
2.173750
 31
-0.507049
 12
2.475012
 22
2.173750
 32
-0.494253
 13
2.475012
 23
2.173750
 33
-0.494253
 62
0
  0
3DFACE
  8
Cylinder2
 10
2.430059
 20
2.173750
 30
-0.449300
 11
2.391473
 21
2.173750
 31
-0.507049
 12
2.512136
 22
2.173750
 32
-0.469447
 13
2.512136
 23
2.173750
 33
-0.469447
 62
0
  0
3DFACE
  8
Cylinder2
 10
2.430059
 20
2.173750
 30
-0.449300
 11
2.512136
 21
2.173750
 31
-0.469447
 12
2.555927
 22
2.173750
 32
-0.460737
 13
2.555927
 23
2.173750
 33
-0.460737
 62
0
  0
3DFACE
  8
Cylinder2
 10
2.681795
 20
2.173750
 30
-0.449300
 11
2.430059
 21
2.173750
 31
-0.449300
 12
2.555927
 22
2.173750
 32
-0.460737
 13
2.555927
 23
2.173750
 33
-0.460737
 62
0
  0
3DFACE
  8
Cylinder2
 10
2.487808
 20
2.173750
 30
-0.410714
 11
2.430059
 21
2.173750
 31
-0.449300
 12
2.681795
 22
2.173750
 32
-0.449300
 13
2.681795
 23
2.173750
 33
-0.449300
 62
0
  0
3DFACE
  8
Cylinder2
 10
2.624046
 20
2.173750
 30
-0.410714
 11
2.487808
 21
2.173750
 31
-0.410714
 12
2.681795
 22
2.173750
 32
-0.449300
 13
2.681795
 23
2.173750
 33
-0.449300
 62
0
  0
3DFACE
  8
Cylinder2
 10
2.555927
 20
2.173750
 30
-0.397164
 11
2.487808
 21
2.173750
 31
-0.410714
 12
2.624046
 22
2.173750
 32
-0.410714
 13
2.624046
 23
2.173750
 33
-0.410714
 62
0
  0
3DFACE
  8
Cylinder2
 10
2.624046
 20
2.173750
 30
-0.739622
 11
2.487808
 21
2.173750
 31
-0.739622
 12
2.555927
 22
2.173750
 32
-0.753172
 13
2.555927
 23
2.173750
 33
-0.753172
 62
0
  0
3DFACE
  8
Cylinder2
 10
2.430059
 20
2.173750
 30
-0.701035
 11
2.487808
 21
2.173750
 31
-0.739622
 12
2.624046
 22
2.173750
 32
-0.739622
 13
2.624046
 23
2.173750
 33
-0.739622
 62
0
  0
3DFACE
  8
Cylinder2
 10
2.681795
 20
2.173750
 30
-0.701035
 11
2.430059
 21
2.173750
 31
-0.701035
 12
2.624046
 22
2.173750
 32
-0.739622
 13
2.624046
 23
2.173750
 33
-0.739622
 62
0
  0
3DFACE
  8
Cylinder2
 10
2.555927
 20
2.173750
 30
-0.689599
 11
2.430059
 21
2.173750
 31
-0.701035
 12
2.681795
 22
2.173750
 32
-0.701035
 13
2.681795
 23
2.173750
 33
-0.701035
 62
0
  0
3DFACE
  8
Cylinder2
 10
2.599718
 20
2.173750
 30
-0.680888
 11
2.555927
 21
2.173750
 31
-0.689599
 12
2.681795
 22
2.173750
 32
-0.701035
 13
2.681795
 23
2.173750
 33
-0.701035
 62
0
  0
3DFACE
  8
Cylinder2
 10
2.636842
 20
2.173750
 30
-0.656083
 11
2.599718
 21
2.173750
 31
-0.680888
 12
2.681795
 22
2.173750
 32
-0.701035
 13
2.681795
 23
2.173750
 33
-0.701035
 62
0
  0
3DFACE
  8
Cylinder2
 10
2.720381
 20
2.173750
 30
-0.643287
 11
2.636842
 21
2.173750
 31
-0.656083
 12
2.681795
 22
2.173750
 32
-0.701035
 13
2.681795
 23
2.173750
 33
-0.701035
 62
0
  0
3DFACE
  8
Cylinder2
 10
2.661648
 20
2.173750
 30
-0.618959
 11
2.636842
 21
2.173750
 31
-0.656083
 12
2.720381
 22
2.173750
 32
-0.643287
 13
2.720381
 23
2.173750
 33
-0.643287
 62
0
  0
3DFACE
  8
Cylinder2
 10
2.670358
 20
2.173750
 30
-0.575168
 11
2.661648
 21
2.173750
 31
-0.618959
 12
2.720381
 22
2.173750
 32
-0.643287
 13
2.720381
 23
2.173750
 33
-0.643287
 62
0
  0
3DFACE
  8
Cylinder2
 10
2.733931
 20
2.173750
 30
-0.575168
 11
2.670358
 21
2.173750
 31
-0.575168
 12
2.720381
 22
2.173750
 32
-0.643287
 13
2.720381
 23
2.173750
 33
-0.643287
 62
0
  0
3DFACE
  8
Cylinder2
 10
2.661648
 20
2.173750
 30
-0.531377
 11
2.670358
 21
2.173750
 31
-0.575168
 12
2.733931
 22
2.173750
 32
-0.575168
 13
2.733931
 23
2.173750
 33
-0.575168
 62
0
  0
3DFACE
  8
Cylinder2
 10
2.720381
 20
2.173750
 30
-0.507049
 11
2.661648
 21
2.173750
 31
-0.531377
 12
2.733931
 22
2.173750
 32
-0.575168
 13
2.733931
 23
2.173750
 33
-0.575168
 62
0
  0
3DFACE
  8
Cylinder2
 10
2.636842
 20
2.173750
 30
-0.494253
 11
2.661648
 21
2.173750
 31
-0.531377
 12
2.720381
 22
2.173750
 32
-0.507049
 13
2.720381
 23
2.173750
 33
-0.507049
 62
0
  0
3DFACE
  8
Cylinder2
 10
2.599718
 20
2.173750
 30
-0.469447
 11
2.636842
 21
2.173750
 31
-0.494253
 12
2.720381
 22
2.173750
 32
-0.507049
 13
2.720381
 23
2.173750
 33
-0.507049
 62
0
  0
3DFACE
  8
Cylinder2
 10
2.681795
 20
2.173750
 30
-0.449300
 11
2.599718
 21
2.173750
 31
-0.469447
 12
2.720381
 22
2.173750
 32
-0.507049
 13
2.720381
 23
2.173750
 33
-0.507049
 62
0
  0
3DFACE
  8
Cylinder2
 10
2.681795
 20
2.173750
 30
-0.449300
 11
2.555927
 21
2.173750
 31
-0.460737
 12
2.599718
 22
2.173750
 32
-0.469447
 13
2.599718
 23
2.173750
 33
-0.469447
 62
0
  0
3DFACE
  8
Cylinder2
 10
2.661648
 20
1.188765
 30
-0.531377
 11
2.670358
 21
1.188765
 31
-0.575168
 12
2.670358
 22
2.173750
 32
-0.575168
 13
2.661648
 23
2.173750
 33
-0.531377
 62
1
  0
3DFACE
  8
Cylinder2
 10
2.636842
 20
1.188765
 30
-0.494253
 11
2.661648
 21
1.188765
 31
-0.531377
 12
2.661648
 22
2.173750
 32
-0.531377
 13
2.636842
 23
2.173750
 33
-0.494253
 62
1
  0
3DFACE
  8
Cylinder2
 10
2.599718
 20
1.188765
 30
-0.469447
 11
2.636842
 21
1.188765
 31
-0.494253
 12
2.636842
 22
2.173750
 32
-0.494253
 13
2.599718
 23
2.173750
 33
-0.469447
 62
1
  0
3DFACE
  8
Cylinder2
 10
2.555927
 20
1.188765
 30
-0.460737
 11
2.599718
 21
1.188765
 31
-0.469447
 12
2.599718
 22
2.173750
 32
-0.469447
 13
2.555927
 23
2.173750
 33
-0.460737
 62
1
  0
3DFACE
  8
Cylinder2
 10
2.512136
 20
1.188765
 30
-0.469447
 11
2.555927
 21
1.188765
 31
-0.460737
 12
2.555927
 22
2.173750
 32
-0.460737
 13
2.512136
 23
2.173750
 33
-0.469447
 62
1
  0
3DFACE
  8
Cylinder2
 10
2.475012
 20
1.188765
 30
-0.494253
 11
2.512136
 21
1.188765
 31
-0.469447
 12
2.512136
 22
2.173750
 32
-0.469447
 13
2.475012
 23
2.173750
 33
-0.494253
 62
1
  0
3DFACE
  8
Cylinder2
 10
2.450207
 20
1.188765
 30
-0.531377
 11
2.475012
 21
1.188765
 31
-0.494253
 12
2.475012
 22
2.173750
 32
-0.494253
 13
2.450207
 23
2.173750
 33
-0.531377
 62
1
  0
3DFACE
  8
Cylinder2
 10
2.441496
 20
1.188765
 30
-0.575168
 11
2.450207
 21
1.188765
 31
-0.531377
 12
2.450207
 22
2.173750
 32
-0.531377
 13
2.441496
 23
2.173750
 33
-0.575168
 62
1
  0
3DFACE
  8
Cylinder2
 10
2.599718
 20
1.188765
 30
-0.680888
 11
2.512136
 21
1.188765
 31
-0.680888
 12
2.555927
 22
1.188765
 32
-0.689599
 13
2.555927
 23
1.188765
 33
-0.689599
 62
1
  0
3DFACE
  8
Cylinder2
 10
2.475012
 20
1.188765
 30
-0.656083
 11
2.512136
 21
1.188765
 31
-0.680888
 12
2.599718
 22
1.188765
 32
-0.680888
 13
2.599718
 23
1.188765
 33
-0.680888
 62
1
  0
3DFACE
  8
Cylinder2
 10
2.636842
 20
1.188765
 30
-0.656083
 11
2.475012
 21
1.188765
 31
-0.656083
 12
2.599718
 22
1.188765
 32
-0.680888
 13
2.599718
 23
1.188765
 33
-0.680888
 62
1
  0
3DFACE
  8
Cylinder2
 10
2.450207
 20
1.188765
 30
-0.618959
 11
2.475012
 21
1.188765
 31
-0.656083
 12
2.636842
 22
1.188765
 32
-0.656083
 13
2.636842
 23
1.188765
 33
-0.656083
 62
1
  0
3DFACE
  8
Cylinder2
 10
2.661648
 20
1.188765
 30
-0.618959
 11
2.450207
 21
1.188765
 31
-0.618959
 12
2.636842
 22
1.188765
 32
-0.656083
 13
2.636842
 23
1.188765
 33
-0.656083
 62
1
  0
3DFACE
  8
Cylinder2
 10
2.441496
 20
1.188765
 30
-0.575168
 11
2.450207
 21
1.188765
 31
-0.618959
 12
2.661648
 22
1.188765
 32
-0.618959
 13
2.661648
 23
1.188765
 33
-0.618959
 62
1
  0
3DFACE
  8
Cylinder2
 10
2.670358
 20
1.188765
 30
-0.575168
 11
2.441496
 21
1.188765
 31
-0.575168
 12
2.661648
 22
1.188765
 32
-0.618959
 13
2.661648
 23
1.188765
 33
-0.618959
 62
1
  0
3DFACE
  8
Cylinder2
 10
2.450207
 20
1.188765
 30
-0.531377
 11
2.441496
 21
1.188765
 31
-0.575168
 12
2.670358
 22
1.188765
 32
-0.575168
 13
2.670358
 23
1.188765
 33
-0.575168
 62
1
  0
3DFACE
  8
Cylinder2
 10
2.661648
 20
1.188765
 30
-0.531377
 11
2.450207
 21
1.188765
 31
-0.531377
 12
2.670358
 22
1.188765
 32
-0.575168
 13
2.670358
 23
1.188765
 33
-0.575168
 62
1
  0
3DFACE
  8
Cylinder2
 10
2.475012
 20
1.188765
 30
-0.494253
 11
2.450207
 21
1.188765
 31
-0.531377
 12
2.661648
 22
1.188765
 32
-0.531377
 13
2.661648
 23
1.188765
 33
-0.531377
 62
1
  0
3DFACE
  8
Cylinder2
 10
2.636842
 20
1.188765
 30
-0.494253
 11
2.475012
 21
1.188765
 31
-0.494253
 12
2.661648
 22
1.188765
 32
-0.531377
 13
2.661648
 23
1.188765
 33
-0.531377
 62
1
  0
3DFACE
  8
Cylinder2
 10
2.512136
 20
1.188765
 30
-0.469447
 11
2.475012
 21
1.188765
 31
-0.494253
 12
2.636842
 22
1.188765
 32
-0.494253
 13
2.636842
 23
1.188765
 33
-0.494253
 62
1
  0
3DFACE
  8
Cylinder2
 10
2.599718
 20
1.188765
 30
-0.469447
 11
2.512136
 21
1.188765
 31
-0.469447
 12
2.636842
 22
1.188765
 32
-0.494253
 13
2.636842
 23
1.188765
 33
-0.494253
 62
1
  0
3DFACE
  8
Cylinder2
 10
2.555927
 20
1.188765
 30
-0.460737
 11
2.512136
 21
1.188765
 31
-0.469447
 12
2.599718
 22
1.188765
 32
-0.469447
 13
2.599718
 23
1.188765
 33
-0.469447
 62
1
  0
3DFACE
  8
Cylinder2
 10
2.661648
 20
1.188765
 30
-0.618959
 11
2.636842
 21
1.188765
 31
-0.656083
 12
2.636842
 22
2.173750
 32
-0.656083
 13
2.661648
 23
2.173750
 33
-0.618959
 62
1
  0
3DFACE
  8
Cylinder2
 10
2.670358
 20
1.188765
 30
-0.575168
 11
2.661648
 21
1.188765
 31
-0.618959
 12
2.661648
 22
2.173750
 32
-0.618959
 13
2.670358
 23
2.173750
 33
-0.575168
 62
1
  0
3DFACE
  8
Cylinder2
 10
2.636842
 20
1.188765
 30
-0.656083
 11
2.599718
 21
1.188765
 31
-0.680888
 12
2.599718
 22
2.173750
 32
-0.680888
 13
2.636842
 23
2.173750
 33
-0.656083
 62
1
  0
3DFACE
  8
Cylinder2
 10
2.599718
 20
1.188765
 30
-0.680888
 11
2.555927
 21
1.188765
 31
-0.689599
 12
2.555927
 22
2.173750
 32
-0.689599
 13
2.599718
 23
2.173750
 33
-0.680888
 62
1
  0
3DFACE
  8
Cylinder2
 10
2.555927
 20
1.188765
 30
-0.689599
 11
2.512136
 21
1.188765
 31
-0.680888
 12
2.512136
 22
2.173750
 32
-0.680888
 13
2.555927
 23
2.173750
 33
-0.689599
 62
1
  0
3DFACE
  8
Cylinder2
 10
2.512136
 20
1.188765
 30
-0.680888
 11
2.475012
 21
1.188765
 31
-0.656083
 12
2.475012
 22
2.173750
 32
-0.656083
 13
2.512136
 23
2.173750
 33
-0.680888
 62
1
  0
3DFACE
  8
Cylinder2
 10
2.475012
 20
1.188765
 30
-0.656083
 11
2.450207
 21
1.188765
 31
-0.618959
 12
2.450207
 22
2.173750
 32
-0.618959
 13
2.475012
 23
2.173750
 33
-0.656083
 62
1
  0
3DFACE
  8
Cylinder2
 10
2.450207
 20
1.188765
 30
-0.618959
 11
2.441496
 21
1.188765
 31
-0.575168
 12
2.441496
 22
2.173750
 32
-0.575168
 13
2.450207
 23
2.173750
 33
-0.618959
 62
1
  0
3DFACE
  8
NoName1001
 10
2.555282
 20
1.057720
 30
-0.128648
 11
2.185276
 21
1.057657
 31
-0.805097
 12
2.926548
 22
1.057728
 32
-0.805101
 13
2.926548
 23
1.057728
 33
-0.805101
 62
0
  0
3DFACE
  8
NoName1001
 10
2.555284
 20
-1.098092
 30
-0.573989
 11
2.555282
 21
1.057720
 31
-0.128648
 12
2.926548
 22
1.057728
 32
-0.805101
 13
2.926548
 23
1.057728
 33
-0.805101
 62
0
  0
3DFACE
  8
NoName1001
 10
2.185276
 20
1.057657
 30
-0.805097
 11
2.555282
 21
1.057720
 31
-0.128648
 12
2.555284
 22
-1.098092
 32
-0.573989
 13
2.555284
 23
-1.098092
 33
-0.573989
 62
0
  0
3DFACE
  8
NoName1001
 10
2.555284
 20
-1.098092
 30
-0.573989
 11
2.926548
 21
1.057728
 31
-0.805101
 12
2.185276
 22
1.057657
 32
-0.805097
 13
2.185276
 23
1.057657
 33
-0.805097
 62
0
 0
ENDSEC
 0
EOF
