  0
SECTION
  2
HEADER
  0
ENDSEC
  0
SECTION
  2
TABLES
  0
TABLE
  2
LAYER
  70
    153
  0
LAYER
  2
Cube
 70
0
 62
15
  6
CONTINUOUS
  0
LAYER
  2
Cube4
 70
0
 62
15
  6
CONTINUOUS
  0
LAYER
  2
NoName6
 70
0
 62
15
  6
CONTINUOUS
  0
LAYER
  2
NoName8
 70
0
 62
15
  6
CONTINUOUS
  0
LAYER
  2
NoName9
 70
0
 62
15
  6
CONTINUOUS
  0
LAYER
  2
NoName14
 70
0
 62
15
  6
CONTINUOUS
  0
LAYER
  2
Cube3
 70
0
 62
15
  6
CONTINUOUS
  0
LAYER
  2
NoName6001
 70
0
 62
15
  6
CONTINUOUS
  0
LAYER
  2
Cylinder1
 70
0
 62
15
  6
CONTINUOUS
  0
LAYER
  2
Sphere
 70
0
 62
15
  6
CONTINUOUS
  0
LAYER
  2
Cube3001
 70
0
 62
15
  6
CONTINUOUS
  0
LAYER
  2
NoName6002
 70
0
 62
15
  6
CONTINUOUS
  0
LAYER
  2
Cylinder1001
 70
0
 62
15
  6
CONTINUOUS
  0
LAYER
  2
Sphere001
 70
0
 62
15
  6
CONTINUOUS
  0
ENDTAB
  0
ENDSEC
  0
SECTION
  2
ENTITIES
  0
3DFACE
  8
Cube
 10
5.593380
 20
5.836160
 30
-2.441474
 11
-5.593406
 21
5.836161
 31
-2.441469
 12
-5.593374
 22
5.836170
 32
-0.482104
 13
5.593384
 23
5.836160
 33
-0.482106
 62
0
  0
3DFACE
  8
Cube
 10
-5.593385
 20
6.744943
 30
-2.441473
 11
-5.593406
 21
5.836161
 31
-2.441469
 12
5.593380
 22
5.836160
 32
-2.441474
 13
5.593384
 23
6.744943
 33
-2.441473
 62
0
  0
3DFACE
  8
Cube
 10
5.593384
 20
6.744943
 30
-2.441473
 11
5.593380
 21
5.836160
 31
-2.441474
 12
5.593384
 22
5.836160
 32
-0.482106
 13
5.593384
 23
8.028027
 33
-0.482053
 62
0
  0
3DFACE
  8
Cube
 10
5.593384
 20
8.028027
 30
-0.482053
 11
5.593384
 21
5.836160
 31
-0.482106
 12
-5.593374
 22
5.836170
 32
-0.482104
 13
-5.593385
 23
8.028027
 33
-0.482053
 62
0
  0
3DFACE
  8
Cube
 10
-5.593385
 20
6.744943
 30
-2.441473
 11
5.593384
 21
6.744943
 31
-2.441473
 12
5.593384
 22
8.028027
 32
-0.482053
 13
-5.593385
 23
8.028027
 33
-0.482053
 62
0
  0
3DFACE
  8
Cube
 10
-5.593406
 20
5.836161
 30
-2.441469
 11
-5.593385
 21
6.744943
 31
-2.441473
 12
-5.593385
 22
8.028027
 32
-0.482053
 13
-5.593374
 23
5.836170
 33
-0.482104
 62
0
  0
3DFACE
  8
Cube4
 10
4.822488
 20
2.057354
 30
-9.908897
 11
11.996239
 21
4.312647
 31
-0.119967
 12
5.998119
 22
8.631292
 32
-0.119967
 13
5.998119
 23
8.631292
 33
-0.119967
 62
0
  0
3DFACE
  8
Cube4
 10
-4.822488
 20
2.057354
 30
-9.908897
 11
-5.998119
 21
8.631292
 31
-0.119967
 12
-11.996239
 22
4.312647
 32
-0.119967
 13
-11.996239
 23
4.312647
 33
-0.119967
 62
1
  0
3DFACE
  8
Cube4
 10
4.822488
 20
2.057354
 30
-9.908897
 11
5.998119
 21
8.631292
 31
-0.119967
 12
5.758344
 22
8.475634
 32
-0.351750
 13
5.758344
 23
8.475634
 33
-0.351750
 62
0
  0
3DFACE
  8
Cube4
 10
3.538892
 20
6.984706
 30
-2.571818
 11
4.822488
 21
2.057354
 31
-9.908897
 12
5.758344
 22
8.475634
 32
-0.351750
 13
5.758344
 23
8.475634
 33
-0.351750
 62
0
  0
3DFACE
  8
Cube4
 10
-3.538891
 20
6.984697
 30
-2.571833
 11
4.822488
 21
2.057354
 31
-9.908897
 12
3.538892
 22
6.984706
 32
-2.571818
 13
3.538892
 23
6.984706
 33
-2.571818
 62
0
  0
3DFACE
  8
Cube4
 10
-4.822488
 20
2.057354
 30
-9.908897
 11
4.822488
 21
2.057354
 31
-9.908897
 12
-3.538891
 22
6.984697
 32
-2.571833
 13
-3.538891
 23
6.984697
 33
-2.571833
 62
0
  0
3DFACE
  8
Cube4
 10
-5.758194
 20
8.475636
 30
-0.351748
 11
-4.822488
 21
2.057354
 31
-9.908897
 12
-3.538891
 22
6.984697
 32
-2.571833
 13
-3.538891
 23
6.984697
 33
-2.571833
 62
0
  0
3DFACE
  8
Cube4
 10
-5.998119
 20
8.631292
 30
-0.119967
 11
-4.822488
 21
2.057354
 31
-9.908897
 12
-5.758194
 22
8.475636
 32
-0.351748
 13
-5.758194
 23
8.475636
 33
-0.351748
 62
0
  0
3DFACE
  8
Cube4
 10
-5.758194
 20
8.475636
 30
-0.351748
 11
5.758344
 21
8.475634
 31
-0.351750
 12
5.998119
 22
8.631292
 32
-0.119967
 13
5.998119
 23
8.631292
 33
-0.119967
 62
0
  0
3DFACE
  8
Cube4
 10
-5.998119
 20
8.631292
 30
-0.119967
 11
-5.758194
 21
8.475636
 31
-0.351748
 12
5.998119
 22
8.631292
 32
-0.119967
 13
5.998119
 23
8.631292
 33
-0.119967
 62
0
  0
3DFACE
  8
Cube4
 10
11.996239
 20
-8.631294
 30
-1.259610
 11
11.996239
 21
4.312647
 31
-0.119967
 12
4.822488
 22
2.057354
 32
-9.908897
 13
4.822488
 23
2.057354
 33
-9.908897
 62
0
  0
3DFACE
  8
Cube4
 10
-11.996239
 20
3.053042
 30
7.029792
 11
-11.996239
 21
-6.795870
 31
5.458285
 12
-11.996239
 22
-8.631294
 32
-1.259610
 13
-11.996239
 23
4.312647
 33
-0.119967
 62
0
  0
3DFACE
  8
Cube4
 10
-4.822488
 20
2.057354
 30
-9.908897
 11
-11.996239
 21
-8.631294
 31
-1.259610
 12
11.996239
 22
-8.631294
 32
-1.259610
 13
4.822488
 23
2.057354
 33
-9.908897
 62
0
  0
3DFACE
  8
Cube4
 10
3.274973
 20
-6.795870
 30
9.908890
 11
11.996239
 21
-8.631294
 31
-1.259610
 12
-11.996239
 22
-8.631294
 32
-1.259610
 13
-3.274973
 23
-6.795870
 33
9.908890
 62
0
  0
3DFACE
  8
Cube4
 10
11.996239
 20
-6.795870
 30
5.458285
 11
3.274973
 21
-6.795870
 31
9.908890
 12
11.996239
 22
3.053042
 32
7.029793
 13
11.996239
 23
3.053042
 33
7.029793
 62
1
  0
3DFACE
  8
Cube4
 10
11.996239
 20
3.053042
 30
7.029793
 11
11.996239
 21
4.312647
 31
-0.119967
 12
11.996239
 22
-8.631294
 32
-1.259610
 13
11.996239
 23
-6.795870
 33
5.458285
 62
0
  0
3DFACE
  8
Cube4
 10
-11.996239
 20
4.312647
 30
-0.119967
 11
-11.996239
 21
-8.631294
 31
-1.259610
 12
-4.822488
 22
2.057354
 32
-9.908897
 13
-4.822488
 23
2.057354
 33
-9.908897
 62
0
  0
3DFACE
  8
Cube4
 10
11.996239
 20
3.053042
 30
7.029793
 11
3.274973
 21
3.053042
 31
9.908890
 12
5.998119
 22
8.631292
 32
-0.119967
 13
5.998119
 23
8.631292
 33
-0.119967
 62
1
  0
3DFACE
  8
Cube4
 10
-5.998119
 20
8.631292
 30
-0.119967
 11
5.998119
 21
8.631292
 31
-0.119967
 12
3.274973
 22
3.053042
 32
9.908890
 13
-3.274973
 23
3.053042
 33
9.908890
 62
1
  0
3DFACE
  8
Cube4
 10
-5.998119
 20
8.631292
 30
-0.119967
 11
-3.274973
 21
3.053042
 31
9.908890
 12
-11.996239
 22
3.053042
 32
7.029792
 13
-11.996239
 23
3.053042
 33
7.029792
 62
1
  0
3DFACE
  8
Cube4
 10
5.998119
 20
8.631292
 30
-0.119967
 11
11.996239
 21
4.312647
 31
-0.119967
 12
11.996239
 22
3.053042
 32
7.029793
 13
11.996239
 23
3.053042
 33
7.029793
 62
0
  0
3DFACE
  8
Cube4
 10
-11.996239
 20
3.053042
 30
7.029792
 11
-11.996239
 21
4.312647
 31
-0.119967
 12
-5.998119
 22
8.631292
 32
-0.119967
 13
-5.998119
 23
8.631292
 33
-0.119967
 62
1
  0
3DFACE
  8
Cube4
 10
-11.996239
 20
-6.795870
 30
5.458285
 11
-11.996239
 21
3.053042
 31
7.029792
 12
-3.274973
 22
-6.795870
 32
9.908890
 13
-3.274973
 23
-6.795870
 33
9.908890
 62
0
  0
3DFACE
  8
Cube4
 10
-3.274973
 20
3.053042
 30
9.908890
 11
3.274973
 21
3.053042
 31
9.908890
 12
3.274973
 22
-6.795870
 32
9.908890
 13
-3.274973
 23
-6.795870
 33
9.908890
 62
1
  0
3DFACE
  8
Cube4
 10
3.274973
 20
3.053042
 30
9.908890
 11
11.996239
 21
3.053042
 31
7.029793
 12
3.274973
 22
-6.795870
 32
9.908890
 13
3.274973
 23
-6.795870
 33
9.908890
 62
1
  0
3DFACE
  8
Cube4
 10
11.996239
 20
-6.795870
 30
5.458285
 11
11.996239
 21
-8.631294
 31
-1.259610
 12
3.274973
 22
-6.795870
 32
9.908890
 13
3.274973
 23
-6.795870
 33
9.908890
 62
0
  0
3DFACE
  8
Cube4
 10
-3.274973
 20
3.053042
 30
9.908890
 11
-3.274973
 21
-6.795870
 31
9.908890
 12
-11.996239
 22
3.053042
 32
7.029792
 13
-11.996239
 23
3.053042
 33
7.029792
 62
0
  0
3DFACE
  8
Cube4
 10
-11.996239
 20
-6.795870
 30
5.458285
 11
-3.274973
 21
-6.795870
 31
9.908890
 12
-11.996239
 22
-8.631294
 32
-1.259610
 13
-11.996239
 23
-8.631294
 33
-1.259610
 62
0
  0
3DFACE
  8
Cube4
 10
3.298966
 20
5.836110
 30
-1.459009
 11
-3.298966
 21
5.836145
 31
-1.463551
 12
-3.296113
 22
5.836169
 32
-1.747630
 13
3.297221
 23
5.836157
 33
-1.747623
 62
2
  0
3DFACE
  8
Cube4
 10
3.297221
 20
5.836157
 30
-1.747623
 11
-3.296113
 21
5.836169
 31
-1.747630
 12
-3.538891
 22
6.984697
 32
-2.571833
 13
3.538892
 23
6.984706
 33
-2.571818
 62
2
  0
3DFACE
  8
Cube4
 10
3.298966
 20
5.836110
 30
-1.459009
 11
3.297221
 21
5.836157
 31
-1.747623
 12
3.538892
 22
6.984706
 32
-2.571818
 13
5.758344
 23
8.475634
 33
-0.351750
 62
2
  0
3DFACE
  8
Cube4
 10
-3.296113
 20
5.836169
 30
-1.747630
 11
-3.298966
 21
5.836145
 31
-1.463551
 12
-5.758194
 22
8.475636
 32
-0.351748
 13
-3.538891
 23
6.984697
 33
-2.571833
 62
2
  0
3DFACE
  8
Cube4
 10
-3.298966
 20
5.836145
 30
-1.463551
 11
3.298966
 21
5.836110
 31
-1.459009
 12
5.758344
 22
8.475634
 32
-0.351750
 13
-5.758194
 23
8.475636
 33
-0.351748
 62
2
  0
3DFACE
  8
NoName6
 10
6.689520
 20
-1.912354
 30
8.591625
 11
7.703528
 21
0.242285
 31
8.063872
 12
9.796680
 22
-2.484940
 32
7.498011
 13
9.796680
 23
-2.484940
 33
7.498011
 62
0
  0
3DFACE
  8
NoName6
 10
9.561146
 20
-0.146065
 30
13.016816
 11
7.703528
 21
0.242285
 31
8.063872
 12
6.689520
 22
-1.912354
 32
8.591625
 13
6.689520
 23
-1.912354
 33
8.591625
 62
0
  0
3DFACE
  8
NoName6
 10
9.796680
 20
-2.484940
 30
7.498011
 11
7.703528
 21
0.242285
 31
8.063872
 12
9.561146
 22
-0.146065
 32
13.016816
 13
9.561146
 23
-0.146065
 33
13.016816
 62
0
  0
3DFACE
  8
NoName6
 10
6.689520
 20
-1.912354
 30
8.591625
 11
9.796680
 21
-2.484940
 31
7.498011
 12
9.561146
 22
-0.146065
 32
13.016816
 13
9.561146
 23
-0.146065
 33
13.016816
 62
0
  0
3DFACE
  8
NoName8
 10
-9.795403
 20
-2.484945
 30
7.498021
 11
-7.702243
 21
0.242275
 31
8.063847
 12
-6.688225
 22
-1.912363
 32
8.591583
 13
-6.688225
 23
-1.912363
 33
8.591583
 62
0
  0
3DFACE
  8
NoName8
 10
-6.688225
 20
-1.912363
 30
8.591583
 11
-7.702243
 21
0.242275
 31
8.063847
 12
-9.559778
 22
-0.146070
 32
13.016823
 13
-9.559778
 23
-0.146070
 33
13.016823
 62
0
  0
3DFACE
  8
NoName8
 10
-9.559778
 20
-0.146070
 30
13.016823
 11
-7.702243
 21
0.242275
 31
8.063847
 12
-9.795403
 22
-2.484945
 32
7.498021
 13
-9.795403
 23
-2.484945
 33
7.498021
 62
0
  0
3DFACE
  8
NoName8
 10
-9.559778
 20
-0.146070
 30
13.016823
 11
-9.795403
 21
-2.484945
 31
7.498021
 12
-6.688225
 22
-1.912363
 32
8.591583
 13
-6.688225
 23
-1.912363
 33
8.591583
 62
0
  0
3DFACE
  8
NoName9
 10
-8.964928
 20
3.619942
 30
6.380687
 11
-6.975958
 21
5.489360
 31
4.394679
 12
-5.703624
 22
4.342583
 32
6.424348
 13
-5.703624
 23
4.342583
 33
6.424348
 62
0
  0
3DFACE
  8
NoName9
 10
-5.703624
 20
4.342583
 30
6.424348
 11
-6.975958
 21
5.489360
 31
4.394679
 12
-7.655114
 22
9.230518
 32
8.050714
 13
-7.655114
 23
9.230518
 33
8.050714
 62
0
  0
3DFACE
  8
NoName9
 10
-7.655114
 20
9.230518
 30
8.050714
 11
-6.975958
 21
5.489360
 31
4.394679
 12
-8.964928
 22
3.619942
 32
6.380687
 13
-8.964928
 23
3.619942
 33
6.380687
 62
0
  0
3DFACE
  8
NoName9
 10
-7.655114
 20
9.230518
 30
8.050714
 11
-8.964928
 21
3.619942
 31
6.380687
 12
-5.703624
 22
4.342583
 32
6.424348
 13
-5.703624
 23
4.342583
 33
6.424348
 62
0
  0
3DFACE
  8
NoName14
 10
5.698989
 20
4.342563
 30
6.424368
 11
6.971321
 21
5.489342
 31
4.394698
 12
8.960290
 22
3.619918
 32
6.380705
 13
8.960290
 23
3.619918
 33
6.380705
 62
0
  0
3DFACE
  8
NoName14
 10
7.650475
 20
9.230501
 30
8.050734
 11
6.971321
 21
5.489342
 31
4.394698
 12
5.698989
 22
4.342563
 32
6.424368
 13
5.698989
 23
4.342563
 33
6.424368
 62
0
  0
3DFACE
  8
NoName14
 10
8.960290
 20
3.619918
 30
6.380705
 11
6.971321
 21
5.489342
 31
4.394698
 12
7.650475
 22
9.230501
 32
8.050734
 13
7.650475
 23
9.230501
 33
8.050734
 62
0
  0
3DFACE
  8
NoName14
 10
5.698989
 20
4.342563
 30
6.424368
 11
8.960290
 21
3.619918
 31
6.380705
 12
7.650475
 22
9.230501
 32
8.050734
 13
7.650475
 23
9.230501
 33
8.050734
 62
0
  0
3DFACE
  8
Cube3
 10
11.999613
 20
-3.577291
 30
-5.339090
 11
12.000263
 21
3.720140
 31
-5.338667
 12
12.001456
 22
2.596614
 32
7.019952
 13
12.001121
 23
-6.359219
 33
7.020262
 62
0
  0
3DFACE
  8
Cube3
 10
11.999613
 20
-3.577291
 30
-5.339090
 11
18.592813
 21
-3.577026
 31
-5.337899
 12
18.593245
 22
3.720344
 32
-5.338007
 13
12.000263
 23
3.720140
 33
-5.338667
 62
0
  0
3DFACE
  8
Cube3
 10
16.511473
 20
2.596646
 30
3.235605
 11
12.000263
 21
3.720140
 31
-5.338667
 12
18.593245
 22
3.720344
 32
-5.338007
 13
18.593245
 23
3.720344
 33
-5.338007
 62
0
  0
3DFACE
  8
Cube3
 10
12.001456
 20
2.596614
 30
7.019952
 11
16.511473
 21
2.596646
 31
3.235605
 12
16.511238
 22
-6.359221
 32
3.235744
 13
12.001121
 23
-6.359219
 33
7.020262
 62
0
  0
3DFACE
  8
Cube3
 10
18.593245
 20
3.720344
 30
-5.338007
 11
18.592813
 21
-3.577026
 31
-5.337899
 12
16.511238
 22
-6.359221
 32
3.235744
 13
16.511473
 23
2.596646
 33
3.235605
 62
0
  0
3DFACE
  8
Cube3
 10
11.999613
 20
-3.577291
 30
-5.339090
 11
12.001121
 21
-6.359219
 31
7.020262
 12
16.511238
 22
-6.359221
 32
3.235744
 13
16.511238
 23
-6.359221
 33
3.235744
 62
0
  0
3DFACE
  8
Cube3
 10
12.000263
 20
3.720140
 30
-5.338667
 11
16.511473
 21
2.596646
 31
3.235605
 12
12.001456
 22
2.596614
 32
7.019952
 13
12.001456
 23
2.596614
 33
7.019952
 62
0
  0
3DFACE
  8
Cube3
 10
16.511238
 20
-6.359221
 30
3.235744
 11
18.592813
 21
-3.577026
 31
-5.337899
 12
11.999613
 22
-3.577291
 32
-5.339090
 13
11.999613
 23
-3.577291
 33
-5.339090
 62
0
  0
3DFACE
  8
NoName6001
 10
12.897324
 20
-1.912354
 30
5.982453
 11
13.705654
 21
0.242285
 31
5.174161
 12
15.531701
 22
-2.484940
 32
4.004960
 13
15.531701
 23
-2.484940
 33
4.004960
 62
0
  0
3DFACE
  8
NoName6001
 10
16.966923
 20
-0.146065
 30
9.339072
 11
13.705654
 21
0.242285
 31
5.174161
 12
12.897324
 22
-1.912354
 32
5.982453
 13
12.897324
 23
-1.912354
 33
5.982453
 62
0
  0
3DFACE
  8
NoName6001
 10
15.531701
 20
-2.484940
 30
4.004960
 11
13.705654
 21
0.242285
 31
5.174161
 12
16.966923
 22
-0.146065
 32
9.339072
 13
16.966923
 23
-0.146065
 33
9.339072
 62
0
  0
3DFACE
  8
NoName6001
 10
12.897324
 20
-1.912354
 30
5.982453
 11
15.531701
 21
-2.484940
 31
4.004960
 12
16.966923
 22
-0.146065
 32
9.339072
 13
16.966923
 23
-0.146065
 33
9.339072
 62
0
  0
3DFACE
  8
Cylinder1
 10
18.594175
 20
11.910842
 30
-5.338277
 11
18.594204
 21
11.910823
 31
-9.255893
 12
18.594204
 22
-2.713830
 32
-8.369139
 13
18.594200
 23
-3.592881
 33
-5.338298
 62
0
  0
3DFACE
  8
Cylinder1
 10
18.594204
 20
11.910823
 30
-9.255893
 11
15.295295
 21
11.910769
 31
-11.888871
 12
15.295503
 22
-2.008297
 32
-10.801717
 13
18.594204
 23
-2.713830
 33
-8.369139
 62
0
  0
3DFACE
  8
Cylinder1
 10
15.295295
 20
11.910769
 30
-11.888871
 11
11.996255
 21
11.910823
 31
-9.255863
 12
11.996275
 22
-2.713459
 32
-8.370402
 13
15.295503
 23
-2.008297
 33
-10.801717
 62
0
  0
3DFACE
  8
Cylinder1
 10
14.095585
 20
11.910838
 30
-6.107555
 11
14.878585
 21
11.910840
 31
-5.818171
 12
11.996242
 22
11.910842
 32
-5.338276
 13
11.996242
 23
11.910842
 33
-5.338276
 62
0
  0
3DFACE
  8
Cylinder1
 10
13.457278
 20
11.910832
 30
-6.651420
 11
14.095585
 21
11.910838
 31
-6.107555
 12
11.996242
 22
11.910842
 32
-5.338276
 13
11.996242
 23
11.910842
 33
-5.338276
 62
0
  0
3DFACE
  8
Cylinder1
 10
13.040653
 20
11.910827
 30
-7.384168
 11
13.457278
 21
11.910832
 31
-6.651420
 12
11.996242
 22
11.910842
 32
-5.338276
 13
11.996242
 23
11.910842
 33
-5.338276
 62
0
  0
3DFACE
  8
Cylinder1
 10
12.895961
 20
11.910819
 30
-8.217418
 11
13.040653
 21
11.910827
 31
-7.384168
 12
11.996242
 22
11.910842
 32
-5.338276
 13
11.996242
 23
11.910842
 33
-5.338276
 62
0
  0
3DFACE
  8
Cylinder1
 10
11.996255
 20
11.910823
 30
-9.255863
 11
12.895961
 21
11.910819
 31
-8.217418
 12
11.996242
 22
11.910842
 32
-5.338276
 13
11.996242
 23
11.910842
 33
-5.338276
 62
0
  0
3DFACE
  8
Cylinder1
 10
13.040653
 20
11.910811
 30
-9.050668
 11
12.895961
 21
11.910819
 31
-8.217418
 12
11.996255
 22
11.910823
 32
-9.255863
 13
11.996255
 23
11.910823
 33
-9.255863
 62
0
  0
3DFACE
  8
Cylinder1
 10
13.457278
 20
11.910806
 30
-9.783416
 11
13.040653
 21
11.910811
 31
-9.050668
 12
11.996255
 22
11.910823
 32
-9.255863
 13
11.996255
 23
11.910823
 33
-9.255863
 62
0
  0
3DFACE
  8
Cylinder1
 10
14.095585
 20
11.910801
 30
-10.327281
 11
13.457278
 21
11.910806
 31
-9.783416
 12
11.996255
 22
11.910823
 32
-9.255863
 13
11.996255
 23
11.910823
 33
-9.255863
 62
0
  0
3DFACE
  8
Cylinder1
 10
15.295295
 20
11.910769
 30
-11.888871
 11
14.095585
 21
11.910801
 31
-10.327281
 12
11.996255
 22
11.910823
 32
-9.255863
 13
11.996255
 23
11.910823
 33
-9.255863
 62
0
  0
3DFACE
  8
Cylinder1
 10
15.295295
 20
11.910769
 30
-11.888871
 11
14.878585
 21
11.910798
 31
-10.616666
 12
14.095585
 22
11.910801
 32
-10.327281
 13
14.095585
 23
11.910801
 33
-10.327281
 62
0
  0
3DFACE
  8
Cylinder1
 10
15.295295
 20
11.910769
 30
-11.888871
 11
15.711835
 21
11.910798
 31
-10.616666
 12
14.878585
 22
11.910798
 32
-10.616666
 13
14.878585
 23
11.910798
 33
-10.616666
 62
0
  0
3DFACE
  8
Cylinder1
 10
15.711835
 20
11.910840
 30
-5.818171
 11
11.996242
 21
11.910842
 31
-5.338276
 12
14.878585
 22
11.910840
 32
-5.818171
 13
14.878585
 23
11.910840
 33
-5.818171
 62
0
  0
3DFACE
  8
Cylinder1
 10
18.594175
 20
11.910842
 30
-5.338277
 11
11.996242
 21
11.910842
 31
-5.338276
 12
15.711835
 22
11.910840
 32
-5.818171
 13
15.711835
 23
11.910840
 33
-5.818171
 62
0
  0
3DFACE
  8
Cylinder1
 10
16.494835
 20
11.910838
 30
-6.107555
 11
18.594175
 21
11.910842
 31
-5.338277
 12
15.711835
 22
11.910840
 32
-5.818171
 13
15.711835
 23
11.910840
 33
-5.818171
 62
0
  0
3DFACE
  8
Cylinder1
 10
17.133141
 20
11.910832
 30
-6.651421
 11
18.594175
 21
11.910842
 31
-5.338277
 12
16.494835
 22
11.910838
 32
-6.107555
 13
16.494835
 23
11.910838
 33
-6.107555
 62
0
  0
3DFACE
  8
Cylinder1
 10
17.549767
 20
11.910827
 30
-7.384169
 11
18.594175
 21
11.910842
 31
-5.338277
 12
17.133141
 22
11.910832
 32
-6.651421
 13
17.133141
 23
11.910832
 33
-6.651421
 62
0
  0
3DFACE
  8
Cylinder1
 10
17.694458
 20
11.910819
 30
-8.217419
 11
18.594175
 21
11.910842
 31
-5.338277
 12
17.549767
 22
11.910827
 32
-7.384169
 13
17.549767
 23
11.910827
 33
-7.384169
 62
0
  0
3DFACE
  8
Cylinder1
 10
17.549767
 20
11.910811
 30
-9.050669
 11
18.594175
 21
11.910842
 31
-5.338277
 12
17.694458
 22
11.910819
 32
-8.217419
 13
17.694458
 23
11.910819
 33
-8.217419
 62
0
  0
3DFACE
  8
Cylinder1
 10
18.594204
 20
11.910823
 30
-9.255893
 11
18.594175
 21
11.910842
 31
-5.338277
 12
17.549767
 22
11.910811
 32
-9.050669
 13
17.549767
 23
11.910811
 33
-9.050669
 62
0
  0
3DFACE
  8
Cylinder1
 10
17.133141
 20
11.910806
 30
-9.783417
 11
18.594204
 21
11.910823
 31
-9.255893
 12
17.549767
 22
11.910811
 32
-9.050669
 13
17.549767
 23
11.910811
 33
-9.050669
 62
0
  0
3DFACE
  8
Cylinder1
 10
16.494835
 20
11.910801
 30
-10.327282
 11
18.594204
 21
11.910823
 31
-9.255893
 12
17.133141
 22
11.910806
 32
-9.783417
 13
17.133141
 23
11.910806
 33
-9.783417
 62
0
  0
3DFACE
  8
Cylinder1
 10
15.295295
 20
11.910769
 30
-11.888871
 11
18.594204
 21
11.910823
 31
-9.255893
 12
16.494835
 22
11.910801
 32
-10.327282
 13
16.494835
 23
11.910801
 33
-10.327282
 62
0
  0
3DFACE
  8
Cylinder1
 10
15.295295
 20
11.910769
 30
-11.888871
 11
16.494835
 21
11.910801
 31
-10.327282
 12
15.711835
 22
11.910798
 32
-10.616666
 13
15.711835
 23
11.910798
 33
-10.616666
 62
0
  0
3DFACE
  8
Cylinder1
 10
11.996255
 20
11.910823
 30
-9.255863
 11
11.996242
 21
11.910842
 31
-5.338276
 12
11.996257
 22
-3.592881
 32
-5.338282
 13
11.996275
 23
-2.713459
 33
-8.370402
 62
0
  0
3DFACE
  8
Cylinder1
 10
11.996242
 20
11.910842
 30
-5.338276
 11
18.594175
 21
11.910842
 31
-5.338277
 12
18.594200
 22
-3.592881
 32
-5.338298
 13
11.996257
 23
-3.592881
 33
-5.338282
 62
0
  0
3DFACE
  8
Cylinder1
 10
11.996275
 20
-2.713459
 30
-8.370402
 11
11.996257
 21
-3.592881
 31
-5.338282
 12
18.594200
 22
-3.592881
 32
-5.338298
 13
18.594200
 23
-3.592881
 33
-5.338298
 62
0
  0
3DFACE
  8
Cylinder1
 10
18.594204
 20
-2.713830
 30
-8.369139
 11
11.996275
 21
-2.713459
 31
-8.370402
 12
18.594200
 22
-3.592881
 32
-5.338298
 13
18.594200
 23
-3.592881
 33
-5.338298
 62
0
  0
3DFACE
  8
Cylinder1
 10
15.295503
 20
-2.008297
 30
-10.801717
 11
11.996275
 21
-2.713459
 31
-8.370402
 12
18.594204
 22
-2.713830
 32
-8.369139
 13
18.594204
 23
-2.713830
 33
-8.369139
 62
0
  0
3DFACE
  8
Cylinder1
 10
13.040728
 20
9.231082
 30
-9.050671
 11
12.896038
 21
9.231084
 31
-8.217428
 12
12.895961
 22
11.910819
 32
-8.217418
 13
13.040653
 23
11.910811
 33
-9.050668
 62
1
  0
3DFACE
  8
Cylinder1
 10
12.896038
 20
9.231084
 30
-8.217428
 11
13.040725
 21
9.231087
 31
-7.384190
 12
13.040653
 22
11.910827
 32
-7.384168
 13
12.895961
 23
11.910819
 33
-8.217418
 62
1
  0
3DFACE
  8
Cylinder1
 10
13.040725
 20
9.231087
 30
-7.384190
 11
13.457355
 21
9.231089
 31
-6.651458
 12
13.457278
 22
11.910832
 32
-6.651420
 13
13.040653
 23
11.910827
 33
-7.384168
 62
1
  0
3DFACE
  8
Cylinder1
 10
13.457355
 20
9.231089
 30
-6.651458
 11
14.095662
 21
9.231090
 31
-6.107602
 12
14.095585
 22
11.910838
 32
-6.107555
 13
13.457278
 23
11.910832
 33
-6.651420
 62
1
  0
3DFACE
  8
Cylinder1
 10
14.095662
 20
9.231090
 30
-6.107602
 11
14.878668
 21
9.231090
 31
-5.818234
 12
14.878585
 22
11.910840
 32
-5.818171
 13
14.095585
 23
11.910838
 33
-6.107555
 62
1
  0
3DFACE
  8
Cylinder1
 10
14.878668
 20
9.231090
 30
-5.818234
 11
15.711923
 21
9.231090
 31
-5.818242
 12
15.711835
 22
11.910840
 32
-5.818171
 13
14.878585
 23
11.910840
 33
-5.818171
 62
1
  0
3DFACE
  8
Cylinder1
 10
15.711923
 20
9.231090
 30
-5.818242
 11
16.494923
 21
9.231090
 31
-6.107631
 12
16.494835
 22
11.910838
 32
-6.107555
 13
15.711835
 23
11.910840
 33
-5.818171
 62
1
  0
3DFACE
  8
Cylinder1
 10
16.494923
 20
9.231090
 30
-6.107631
 11
17.133240
 21
9.231089
 31
-6.651496
 12
17.133141
 22
11.910832
 32
-6.651421
 13
16.494835
 23
11.910838
 33
-6.107555
 62
1
  0
3DFACE
  8
Cylinder1
 10
17.133240
 20
9.231089
 30
-6.651496
 11
17.549864
 21
9.231087
 31
-7.384242
 12
17.549767
 22
11.910827
 32
-7.384169
 13
17.133141
 23
11.910832
 33
-6.651421
 62
1
  0
3DFACE
  8
Cylinder1
 10
15.711923
 20
9.231090
 30
-5.818242
 11
14.878668
 21
9.231090
 31
-5.818234
 12
14.095662
 22
9.231090
 32
-6.107602
 13
14.095662
 23
9.231090
 33
-6.107602
 62
0
  0
3DFACE
  8
Cylinder1
 10
13.457355
 20
9.231089
 30
-6.651458
 11
15.711923
 21
9.231090
 31
-5.818242
 12
14.095662
 22
9.231090
 32
-6.107602
 13
14.095662
 23
9.231090
 33
-6.107602
 62
0
  0
3DFACE
  8
Cylinder1
 10
16.494923
 20
9.231090
 30
-6.107631
 11
15.711923
 21
9.231090
 31
-5.818242
 12
13.457355
 22
9.231089
 32
-6.651458
 13
13.457355
 23
9.231089
 33
-6.651458
 62
0
  0
3DFACE
  8
Cylinder1
 10
13.040725
 20
9.231087
 30
-7.384190
 11
16.494923
 21
9.231090
 31
-6.107631
 12
13.457355
 22
9.231089
 32
-6.651458
 13
13.457355
 23
9.231089
 33
-6.651458
 62
0
  0
3DFACE
  8
Cylinder1
 10
17.133240
 20
9.231089
 30
-6.651496
 11
16.494923
 21
9.231090
 31
-6.107631
 12
13.040725
 22
9.231087
 32
-7.384190
 13
13.040725
 23
9.231087
 33
-7.384190
 62
0
  0
3DFACE
  8
Cylinder1
 10
12.896038
 20
9.231084
 30
-8.217428
 11
17.133240
 21
9.231089
 31
-6.651496
 12
13.040725
 22
9.231087
 32
-7.384190
 13
13.040725
 23
9.231087
 33
-7.384190
 62
0
  0
3DFACE
  8
Cylinder1
 10
17.549864
 20
9.231087
 30
-7.384242
 11
17.133240
 21
9.231089
 31
-6.651496
 12
12.896038
 22
9.231084
 32
-8.217428
 13
12.896038
 23
9.231084
 33
-8.217428
 62
0
  0
3DFACE
  8
Cylinder1
 10
13.040728
 20
9.231082
 30
-9.050671
 11
17.549864
 21
9.231087
 31
-7.384242
 12
12.896038
 22
9.231084
 32
-8.217428
 13
12.896038
 23
9.231084
 33
-8.217428
 62
0
  0
3DFACE
  8
Cylinder1
 10
17.694563
 20
9.231084
 30
-8.217484
 11
17.549864
 21
9.231087
 31
-7.384242
 12
13.040728
 22
9.231082
 32
-9.050671
 13
13.040728
 23
9.231082
 33
-9.050671
 62
0
  0
3DFACE
  8
Cylinder1
 10
13.457361
 20
9.231077
 30
-9.783416
 11
17.694563
 21
9.231084
 31
-8.217484
 12
13.040728
 22
9.231082
 32
-9.050671
 13
13.040728
 23
9.231082
 33
-9.050671
 62
0
  0
3DFACE
  8
Cylinder1
 10
17.549868
 20
9.231082
 30
-9.050726
 11
17.694563
 21
9.231084
 31
-8.217484
 12
13.457361
 22
9.231077
 32
-9.783416
 13
13.457361
 23
9.231077
 33
-9.783416
 62
0
  0
3DFACE
  8
Cylinder1
 10
14.095668
 20
9.231076
 30
-10.327281
 11
17.549868
 21
9.231082
 31
-9.050726
 12
13.457361
 22
9.231077
 32
-9.783416
 13
13.457361
 23
9.231077
 33
-9.783416
 62
0
  0
3DFACE
  8
Cylinder1
 10
17.133242
 20
9.231077
 30
-9.783456
 11
17.549868
 21
9.231082
 31
-9.050726
 12
14.095668
 22
9.231076
 32
-10.327281
 13
14.095668
 23
9.231076
 33
-10.327281
 62
0
  0
3DFACE
  8
Cylinder1
 10
14.878674
 20
9.231076
 30
-10.616673
 11
17.133242
 21
9.231077
 31
-9.783456
 12
14.095668
 22
9.231076
 32
-10.327281
 13
14.095668
 23
9.231076
 33
-10.327281
 62
0
  0
3DFACE
  8
Cylinder1
 10
16.494932
 20
9.231076
 30
-10.327304
 11
17.133242
 21
9.231077
 31
-9.783456
 12
14.878674
 22
9.231076
 32
-10.616673
 13
14.878674
 23
9.231076
 33
-10.616673
 62
0
  0
3DFACE
  8
Cylinder1
 10
15.711932
 20
9.231076
 30
-10.616689
 11
16.494932
 21
9.231076
 31
-10.327304
 12
14.878674
 22
9.231076
 32
-10.616673
 13
14.878674
 23
9.231076
 33
-10.616673
 62
0
  0
3DFACE
  8
Cylinder1
 10
17.549864
 20
9.231087
 30
-7.384242
 11
17.694563
 21
9.231084
 31
-8.217484
 12
17.694458
 22
11.910819
 32
-8.217419
 13
17.549767
 23
11.910827
 33
-7.384169
 62
1
  0
3DFACE
  8
Cylinder1
 10
17.694563
 20
9.231084
 30
-8.217484
 11
17.549868
 21
9.231082
 31
-9.050726
 12
17.549767
 22
11.910811
 32
-9.050669
 13
17.694458
 23
11.910819
 33
-8.217419
 62
1
  0
3DFACE
  8
Cylinder1
 10
17.549868
 20
9.231082
 30
-9.050726
 11
17.133242
 21
9.231077
 31
-9.783456
 12
17.133141
 22
11.910806
 32
-9.783417
 13
17.549767
 23
11.910811
 33
-9.050669
 62
1
  0
3DFACE
  8
Cylinder1
 10
17.133242
 20
9.231077
 30
-9.783456
 11
16.494932
 21
9.231076
 31
-10.327304
 12
16.494835
 22
11.910801
 32
-10.327282
 13
17.133141
 23
11.910806
 33
-9.783417
 62
1
  0
3DFACE
  8
Cylinder1
 10
16.494932
 20
9.231076
 30
-10.327304
 11
15.711932
 21
9.231076
 31
-10.616689
 12
15.711835
 22
11.910798
 32
-10.616666
 13
16.494835
 23
11.910801
 33
-10.327282
 62
1
  0
3DFACE
  8
Cylinder1
 10
15.711932
 20
9.231076
 30
-10.616689
 11
14.878674
 21
9.231076
 31
-10.616673
 12
14.878585
 22
11.910798
 32
-10.616666
 13
15.711835
 23
11.910798
 33
-10.616666
 62
1
  0
3DFACE
  8
Cylinder1
 10
14.878674
 20
9.231076
 30
-10.616673
 11
14.095668
 21
9.231076
 31
-10.327281
 12
14.095585
 22
11.910801
 32
-10.327281
 13
14.878585
 23
11.910798
 33
-10.616666
 62
1
  0
3DFACE
  8
Cylinder1
 10
14.095668
 20
9.231076
 30
-10.327281
 11
13.457361
 21
9.231077
 31
-9.783416
 12
13.457278
 22
11.910806
 32
-9.783416
 13
14.095585
 23
11.910801
 33
-10.327281
 62
1
  0
3DFACE
  8
Cylinder1
 10
13.457361
 20
9.231077
 30
-9.783416
 11
13.040728
 21
9.231082
 31
-9.050671
 12
13.040653
 22
11.910811
 32
-9.050668
 13
13.457278
 23
11.910806
 33
-9.783416
 62
1
  0
3DFACE
  8
Sphere
 10
15.295208
 20
9.531020
 30
-8.217422
 11
16.078207
 21
9.512934
 31
-8.506807
 12
16.128458
 22
9.512934
 32
-8.217422
 13
16.128458
 23
9.512934
 33
-8.217422
 62
0
  0
3DFACE
  8
Sphere
 10
15.295208
 20
9.531020
 30
-8.217422
 11
15.933515
 21
9.512934
 31
-8.761288
 12
16.078207
 22
9.512934
 32
-8.506807
 13
16.078207
 23
9.512934
 33
-8.506807
 62
0
  0
3DFACE
  8
Sphere
 10
15.295208
 20
9.531020
 30
-8.217422
 11
15.711833
 21
9.512934
 31
-8.950171
 12
15.933515
 22
9.512934
 32
-8.761288
 13
15.933515
 23
9.512934
 33
-8.761288
 62
0
  0
3DFACE
  8
Sphere
 10
15.295208
 20
9.531020
 30
-8.217422
 11
15.439900
 21
9.512934
 31
-9.050673
 12
15.711833
 22
9.512934
 32
-8.950171
 13
15.711833
 23
9.512934
 33
-8.950171
 62
0
  0
3DFACE
  8
Sphere
 10
15.295208
 20
9.531020
 30
-8.217422
 11
15.150516
 21
9.512934
 31
-9.050673
 12
15.439900
 22
9.512934
 32
-9.050673
 13
15.439900
 23
9.512934
 33
-9.050673
 62
0
  0
3DFACE
  8
Sphere
 10
15.295208
 20
9.531020
 30
-8.217422
 11
14.878583
 21
9.512934
 31
-8.950171
 12
15.150516
 22
9.512934
 32
-9.050673
 13
15.150516
 23
9.512934
 33
-9.050673
 62
0
  0
3DFACE
  8
Sphere
 10
15.295208
 20
9.531020
 30
-8.217422
 11
14.656901
 21
9.512934
 31
-8.761288
 12
14.878583
 22
9.512934
 32
-8.950171
 13
14.878583
 23
9.512934
 33
-8.950171
 62
0
  0
3DFACE
  8
Sphere
 10
15.295208
 20
9.531020
 30
-8.217422
 11
14.512209
 21
9.512934
 31
-8.506807
 12
14.656901
 22
9.512934
 32
-8.761288
 13
14.656901
 23
9.512934
 33
-8.761288
 62
0
  0
3DFACE
  8
Sphere
 10
15.295208
 20
9.531020
 30
-8.217422
 11
14.461958
 21
9.512934
 31
-8.217422
 12
14.512209
 22
9.512934
 32
-8.506807
 13
14.512209
 23
9.512934
 33
-8.506807
 62
0
  0
3DFACE
  8
Sphere
 10
15.295208
 20
9.531020
 30
-8.217422
 11
14.512209
 21
9.512934
 31
-7.928038
 12
14.461958
 22
9.512934
 32
-8.217422
 13
14.461958
 23
9.512934
 33
-8.217422
 62
0
  0
3DFACE
  8
Sphere
 10
15.295208
 20
9.531020
 30
-8.217422
 11
14.656901
 21
9.512934
 31
-7.673557
 12
14.512209
 22
9.512934
 32
-7.928038
 13
14.512209
 23
9.512934
 33
-7.928038
 62
0
  0
3DFACE
  8
Sphere
 10
15.295208
 20
9.531020
 30
-8.217422
 11
14.878583
 21
9.512934
 31
-7.484674
 12
14.656901
 22
9.512934
 32
-7.673557
 13
14.656901
 23
9.512934
 33
-7.673557
 62
0
  0
3DFACE
  8
Sphere
 10
15.295208
 20
9.531020
 30
-8.217422
 11
15.150516
 21
9.512934
 31
-7.384172
 12
14.878583
 22
9.512934
 32
-7.484674
 13
14.878583
 23
9.512934
 33
-7.484674
 62
0
  0
3DFACE
  8
Sphere
 10
15.295208
 20
9.531020
 30
-8.217422
 11
15.439900
 21
9.512934
 31
-7.384172
 12
15.150516
 22
9.512934
 32
-7.384172
 13
15.150516
 23
9.512934
 33
-7.384172
 62
0
  0
3DFACE
  8
Sphere
 10
15.295208
 20
9.531020
 30
-8.217422
 11
15.711833
 21
9.512934
 31
-7.484674
 12
15.439900
 22
9.512934
 32
-7.384172
 13
15.439900
 23
9.512934
 33
-7.384172
 62
0
  0
3DFACE
  8
Sphere
 10
15.295208
 20
9.531020
 30
-8.217422
 11
15.933515
 21
9.512934
 31
-7.673557
 12
15.711833
 22
9.512934
 32
-7.484674
 13
15.711833
 23
9.512934
 33
-7.484674
 62
0
  0
3DFACE
  8
Sphere
 10
15.295208
 20
9.531020
 30
-8.217422
 11
16.078207
 21
9.512934
 31
-7.928038
 12
15.933515
 22
9.512934
 32
-7.673557
 13
15.933515
 23
9.512934
 33
-7.673557
 62
0
  0
3DFACE
  8
Sphere
 10
15.295208
 20
9.531020
 30
-8.217422
 11
16.128458
 21
9.512934
 31
-8.217422
 12
16.078207
 22
9.512934
 32
-7.928038
 13
16.078207
 23
9.512934
 33
-7.928038
 62
0
  0
3DFACE
  8
Sphere
 10
16.128458
 20
9.512934
 30
-8.217422
 11
16.078207
 21
9.512934
 31
-8.506807
 12
16.766766
 22
9.460855
 32
-8.761288
 13
16.861206
 23
9.460855
 33
-8.217422
 62
0
  0
3DFACE
  8
Sphere
 10
16.078207
 20
9.512934
 30
-8.506807
 11
15.933515
 21
9.512934
 31
-8.761288
 12
16.494833
 22
9.460855
 32
-9.239555
 13
16.766766
 23
9.460855
 33
-8.761288
 62
0
  0
3DFACE
  8
Sphere
 10
15.933515
 20
9.512934
 30
-8.761288
 11
15.711833
 21
9.512934
 31
-8.950171
 12
16.078207
 22
9.460855
 32
-9.594538
 13
16.494833
 23
9.460855
 33
-9.239555
 62
0
  0
3DFACE
  8
Sphere
 10
15.711833
 20
9.512934
 30
-8.950171
 11
15.439900
 21
9.512934
 31
-9.050673
 12
15.567141
 22
9.460855
 32
-9.783421
 13
16.078207
 23
9.460855
 33
-9.594538
 62
0
  0
3DFACE
  8
Sphere
 10
15.439900
 20
9.512934
 30
-9.050673
 11
15.150516
 21
9.512934
 31
-9.050673
 12
15.023275
 22
9.460855
 32
-9.783421
 13
15.567141
 23
9.460855
 33
-9.783421
 62
0
  0
3DFACE
  8
Sphere
 10
15.150516
 20
9.512934
 30
-9.050673
 11
14.878583
 21
9.512934
 31
-8.950171
 12
14.512209
 22
9.460855
 32
-9.594538
 13
15.023275
 23
9.460855
 33
-9.783421
 62
0
  0
3DFACE
  8
Sphere
 10
14.878583
 20
9.512934
 30
-8.950171
 11
14.656901
 21
9.512934
 31
-8.761288
 12
14.095584
 22
9.460855
 32
-9.239555
 13
14.512209
 23
9.460855
 33
-9.594538
 62
0
  0
3DFACE
  8
Sphere
 10
14.656901
 20
9.512934
 30
-8.761288
 11
14.512209
 21
9.512934
 31
-8.506807
 12
13.823651
 22
9.460855
 32
-8.761288
 13
14.095584
 23
9.460855
 33
-9.239555
 62
0
  0
3DFACE
  8
Sphere
 10
14.512209
 20
9.512934
 30
-8.506807
 11
14.461958
 21
9.512934
 31
-8.217422
 12
13.729210
 22
9.460855
 32
-8.217422
 13
13.823651
 23
9.460855
 33
-8.761288
 62
0
  0
3DFACE
  8
Sphere
 10
14.461958
 20
9.512934
 30
-8.217422
 11
14.512209
 21
9.512934
 31
-7.928038
 12
13.823651
 22
9.460855
 32
-7.673557
 13
13.729210
 23
9.460855
 33
-8.217422
 62
0
  0
3DFACE
  8
Sphere
 10
14.512209
 20
9.512934
 30
-7.928038
 11
14.656901
 21
9.512934
 31
-7.673557
 12
14.095584
 22
9.460855
 32
-7.195290
 13
13.823651
 23
9.460855
 33
-7.673557
 62
0
  0
3DFACE
  8
Sphere
 10
14.656901
 20
9.512934
 30
-7.673557
 11
14.878583
 21
9.512934
 31
-7.484674
 12
14.512209
 22
9.460855
 32
-6.840307
 13
14.095584
 23
9.460855
 33
-7.195290
 62
0
  0
3DFACE
  8
Sphere
 10
14.878583
 20
9.512934
 30
-7.484674
 11
15.150516
 21
9.512934
 31
-7.384172
 12
15.023275
 22
9.460855
 32
-6.651424
 13
14.512209
 23
9.460855
 33
-6.840307
 62
0
  0
3DFACE
  8
Sphere
 10
15.150516
 20
9.512934
 30
-7.384172
 11
15.439900
 21
9.512934
 31
-7.384172
 12
15.567141
 22
9.460855
 32
-6.651424
 13
15.023275
 23
9.460855
 33
-6.651424
 62
0
  0
3DFACE
  8
Sphere
 10
15.439900
 20
9.512934
 30
-7.384172
 11
15.711833
 21
9.512934
 31
-7.484674
 12
16.078207
 22
9.460855
 32
-6.840307
 13
15.567141
 23
9.460855
 33
-6.651424
 62
0
  0
3DFACE
  8
Sphere
 10
15.711833
 20
9.512934
 30
-7.484674
 11
15.933515
 21
9.512934
 31
-7.673557
 12
16.494833
 22
9.460855
 32
-7.195290
 13
16.078207
 23
9.460855
 33
-6.840307
 62
0
  0
3DFACE
  8
Sphere
 10
15.933515
 20
9.512934
 30
-7.673557
 11
16.078207
 21
9.512934
 31
-7.928038
 12
16.766766
 22
9.460855
 32
-7.673557
 13
16.494833
 23
9.460855
 33
-7.195290
 62
0
  0
3DFACE
  8
Sphere
 10
16.078207
 20
9.512934
 30
-7.928038
 11
16.128458
 21
9.512934
 31
-8.217422
 12
16.861206
 22
9.460855
 32
-8.217422
 13
16.766766
 23
9.460855
 33
-7.673557
 62
0
  0
3DFACE
  8
Sphere
 10
16.861206
 20
9.460855
 30
-8.217422
 11
16.766766
 21
9.460855
 31
-8.761288
 12
17.277832
 22
9.381067
 32
-8.950171
 13
17.405071
 23
9.381067
 33
-8.217422
 62
0
  0
3DFACE
  8
Sphere
 10
16.766766
 20
9.460855
 30
-8.761288
 11
16.494833
 21
9.460855
 31
-9.239555
 12
16.911457
 22
9.381067
 32
-9.594539
 13
17.277832
 23
9.381067
 33
-8.950171
 62
0
  0
3DFACE
  8
Sphere
 10
16.494833
 20
9.460855
 30
-9.239555
 11
16.078207
 21
9.460855
 31
-9.594538
 12
16.350140
 22
9.381067
 32
-10.072805
 13
16.911457
 23
9.381067
 33
-9.594539
 62
0
  0
3DFACE
  8
Sphere
 10
16.078207
 20
9.460855
 30
-9.594538
 11
15.567141
 21
9.460855
 31
-9.783421
 12
15.661582
 22
9.381067
 32
-10.327286
 13
16.350140
 23
9.381067
 33
-10.072805
 62
0
  0
3DFACE
  8
Sphere
 10
15.567141
 20
9.460855
 30
-9.783421
 11
15.023275
 21
9.460855
 31
-9.783421
 12
14.928834
 22
9.381067
 32
-10.327286
 13
15.661582
 23
9.381067
 33
-10.327286
 62
0
  0
3DFACE
  8
Sphere
 10
15.023275
 20
9.460855
 30
-9.783421
 11
14.512209
 21
9.460855
 31
-9.594538
 12
14.240276
 22
9.381067
 32
-10.072805
 13
14.928834
 23
9.381067
 33
-10.327286
 62
0
  0
3DFACE
  8
Sphere
 10
14.512209
 20
9.460855
 30
-9.594538
 11
14.095584
 21
9.460855
 31
-9.239555
 12
13.678959
 22
9.381067
 32
-9.594539
 13
14.240276
 23
9.381067
 33
-10.072805
 62
0
  0
3DFACE
  8
Sphere
 10
14.095584
 20
9.460855
 30
-9.239555
 11
13.823651
 21
9.460855
 31
-8.761288
 12
13.312584
 22
9.381067
 32
-8.950171
 13
13.678959
 23
9.381067
 33
-9.594539
 62
0
  0
3DFACE
  8
Sphere
 10
13.823651
 20
9.460855
 30
-8.761288
 11
13.729210
 21
9.460855
 31
-8.217422
 12
13.185344
 22
9.381067
 32
-8.217422
 13
13.312584
 23
9.381067
 33
-8.950171
 62
0
  0
3DFACE
  8
Sphere
 10
13.729210
 20
9.460855
 30
-8.217422
 11
13.823651
 21
9.460855
 31
-7.673557
 12
13.312584
 22
9.381067
 32
-7.484674
 13
13.185344
 23
9.381067
 33
-8.217422
 62
0
  0
3DFACE
  8
Sphere
 10
13.823651
 20
9.460855
 30
-7.673557
 11
14.095584
 21
9.460855
 31
-7.195290
 12
13.678959
 22
9.381067
 32
-6.840307
 13
13.312584
 23
9.381067
 33
-7.484674
 62
0
  0
3DFACE
  8
Sphere
 10
14.095584
 20
9.460855
 30
-7.195290
 11
14.512209
 21
9.460855
 31
-6.840307
 12
14.240276
 22
9.381067
 32
-6.362040
 13
13.678959
 23
9.381067
 33
-6.840307
 62
0
  0
3DFACE
  8
Sphere
 10
14.512209
 20
9.460855
 30
-6.840307
 11
15.023275
 21
9.460855
 31
-6.651424
 12
14.928834
 22
9.381067
 32
-6.107559
 13
14.240276
 23
9.381067
 33
-6.362040
 62
0
  0
3DFACE
  8
Sphere
 10
15.023275
 20
9.460855
 30
-6.651424
 11
15.567141
 21
9.460855
 31
-6.651424
 12
15.661582
 22
9.381067
 32
-6.107559
 13
14.928834
 23
9.381067
 33
-6.107559
 62
0
  0
3DFACE
  8
Sphere
 10
15.567141
 20
9.460855
 30
-6.651424
 11
16.078207
 21
9.460855
 31
-6.840307
 12
16.350140
 22
9.381067
 32
-6.362040
 13
15.661582
 23
9.381067
 33
-6.107559
 62
0
  0
3DFACE
  8
Sphere
 10
16.078207
 20
9.460855
 30
-6.840307
 11
16.494833
 21
9.460855
 31
-7.195290
 12
16.911457
 22
9.381067
 32
-6.840307
 13
16.350140
 23
9.381067
 33
-6.362040
 62
0
  0
3DFACE
  8
Sphere
 10
16.494833
 20
9.460855
 30
-7.195290
 11
16.766766
 21
9.460855
 31
-7.673557
 12
17.277832
 22
9.381067
 32
-7.484674
 13
16.911457
 23
9.381067
 33
-6.840307
 62
0
  0
3DFACE
  8
Sphere
 10
16.766766
 20
9.460855
 30
-7.673557
 11
16.861206
 21
9.460855
 31
-8.217422
 12
17.405071
 22
9.381067
 32
-8.217422
 13
17.277832
 23
9.381067
 33
-7.484674
 62
0
  0
3DFACE
  8
Sphere
 10
17.405071
 20
9.381067
 30
-8.217422
 11
17.277832
 21
9.381067
 31
-8.950171
 12
17.549765
 22
9.283193
 32
-9.050673
 13
17.694456
 23
9.283193
 33
-8.217422
 62
0
  0
3DFACE
  8
Sphere
 10
17.277832
 20
9.381067
 30
-8.950171
 11
16.911457
 21
9.381067
 31
-9.594539
 12
17.133139
 22
9.283193
 32
-9.783421
 13
17.549765
 23
9.283193
 33
-9.050673
 62
0
  0
3DFACE
  8
Sphere
 10
16.911457
 20
9.381067
 30
-9.594539
 11
16.350140
 21
9.381067
 31
-10.072805
 12
16.494833
 22
9.283193
 32
-10.327286
 13
17.133139
 23
9.283193
 33
-9.783421
 62
0
  0
3DFACE
  8
Sphere
 10
16.350140
 20
9.381067
 30
-10.072805
 11
15.661582
 21
9.381067
 31
-10.327286
 12
15.711833
 22
9.283193
 32
-10.616671
 13
16.494833
 23
9.283193
 33
-10.327286
 62
0
  0
3DFACE
  8
Sphere
 10
15.661582
 20
9.381067
 30
-10.327286
 11
14.928834
 21
9.381067
 31
-10.327286
 12
14.878583
 22
9.283193
 32
-10.616671
 13
15.711833
 23
9.283193
 33
-10.616671
 62
0
  0
3DFACE
  8
Sphere
 10
14.928834
 20
9.381067
 30
-10.327286
 11
14.240276
 21
9.381067
 31
-10.072805
 12
14.095584
 22
9.283193
 32
-10.327286
 13
14.878583
 23
9.283193
 33
-10.616671
 62
0
  0
3DFACE
  8
Sphere
 10
14.240276
 20
9.381067
 30
-10.072805
 11
13.678959
 21
9.381067
 31
-9.594539
 12
13.457277
 22
9.283193
 32
-9.783421
 13
14.095584
 23
9.283193
 33
-10.327286
 62
0
  0
3DFACE
  8
Sphere
 10
13.678959
 20
9.381067
 30
-9.594539
 11
13.312584
 21
9.381067
 31
-8.950171
 12
13.040651
 22
9.283193
 32
-9.050673
 13
13.457277
 23
9.283193
 33
-9.783421
 62
0
  0
3DFACE
  8
Sphere
 10
13.312584
 20
9.381067
 30
-8.950171
 11
13.185344
 21
9.381067
 31
-8.217422
 12
12.895960
 22
9.283193
 32
-8.217422
 13
13.040651
 23
9.283193
 33
-9.050673
 62
0
  0
3DFACE
  8
Sphere
 10
13.185344
 20
9.381067
 30
-8.217422
 11
13.312584
 21
9.381067
 31
-7.484674
 12
13.040651
 22
9.283193
 32
-7.384172
 13
12.895960
 23
9.283193
 33
-8.217422
 62
0
  0
3DFACE
  8
Sphere
 10
13.312584
 20
9.381067
 30
-7.484674
 11
13.678959
 21
9.381067
 31
-6.840307
 12
13.457277
 22
9.283193
 32
-6.651424
 13
13.040651
 23
9.283193
 33
-7.384172
 62
0
  0
3DFACE
  8
Sphere
 10
13.678959
 20
9.381067
 30
-6.840307
 11
14.240276
 21
9.381067
 31
-6.362040
 12
14.095584
 22
9.283193
 32
-6.107559
 13
13.457277
 23
9.283193
 33
-6.651424
 62
0
  0
3DFACE
  8
Sphere
 10
14.240276
 20
9.381067
 30
-6.362040
 11
14.928834
 21
9.381067
 31
-6.107559
 12
14.878583
 22
9.283193
 32
-5.818174
 13
14.095584
 23
9.283193
 33
-6.107559
 62
0
  0
3DFACE
  8
Sphere
 10
14.928834
 20
9.381067
 30
-6.107559
 11
15.661582
 21
9.381067
 31
-6.107559
 12
15.711833
 22
9.283193
 32
-5.818174
 13
14.878583
 23
9.283193
 33
-5.818174
 62
0
  0
3DFACE
  8
Sphere
 10
15.661582
 20
9.381067
 30
-6.107559
 11
16.350140
 21
9.381067
 31
-6.362040
 12
16.494833
 22
9.283193
 32
-6.107559
 13
15.711833
 23
9.283193
 33
-5.818174
 62
0
  0
3DFACE
  8
Sphere
 10
16.350140
 20
9.381067
 30
-6.362040
 11
16.911457
 21
9.381067
 31
-6.840307
 12
17.133139
 22
9.283193
 32
-6.651424
 13
16.494833
 23
9.283193
 33
-6.107559
 62
0
  0
3DFACE
  8
Sphere
 10
16.911457
 20
9.381067
 30
-6.840307
 11
17.277832
 21
9.381067
 31
-7.484674
 12
17.549765
 22
9.283193
 32
-7.384172
 13
17.133139
 23
9.283193
 33
-6.651424
 62
0
  0
3DFACE
  8
Sphere
 10
17.277832
 20
9.381067
 30
-7.484674
 11
17.405071
 21
9.381067
 31
-8.217422
 12
17.694456
 22
9.283193
 32
-8.217422
 13
17.549765
 23
9.283193
 33
-7.384172
 62
0
  0
3DFACE
  8
Sphere
 10
17.694456
 20
9.283193
 30
-8.217422
 11
17.549765
 21
9.283193
 31
-9.050673
 12
17.549765
 22
9.179036
 32
-9.050673
 13
17.694456
 23
9.179036
 33
-8.217422
 62
0
  0
3DFACE
  8
Sphere
 10
17.549765
 20
9.283193
 30
-9.050673
 11
17.133139
 21
9.283193
 31
-9.783421
 12
17.133139
 22
9.179036
 32
-9.783421
 13
17.549765
 23
9.179036
 33
-9.050673
 62
0
  0
3DFACE
  8
Sphere
 10
17.133139
 20
9.283193
 30
-9.783421
 11
16.494833
 21
9.283193
 31
-10.327286
 12
16.494833
 22
9.179036
 32
-10.327286
 13
17.133139
 23
9.179036
 33
-9.783421
 62
0
  0
3DFACE
  8
Sphere
 10
16.494833
 20
9.283193
 30
-10.327286
 11
15.711833
 21
9.283193
 31
-10.616671
 12
15.711833
 22
9.179036
 32
-10.616671
 13
16.494833
 23
9.179036
 33
-10.327286
 62
0
  0
3DFACE
  8
Sphere
 10
15.711833
 20
9.283193
 30
-10.616671
 11
14.878583
 21
9.283193
 31
-10.616671
 12
14.878583
 22
9.179036
 32
-10.616671
 13
15.711833
 23
9.179036
 33
-10.616671
 62
0
  0
3DFACE
  8
Sphere
 10
14.878583
 20
9.283193
 30
-10.616671
 11
14.095584
 21
9.283193
 31
-10.327286
 12
14.095584
 22
9.179036
 32
-10.327286
 13
14.878583
 23
9.179036
 33
-10.616671
 62
0
  0
3DFACE
  8
Sphere
 10
14.095584
 20
9.283193
 30
-10.327286
 11
13.457277
 21
9.283193
 31
-9.783421
 12
13.457277
 22
9.179036
 32
-9.783421
 13
14.095584
 23
9.179036
 33
-10.327286
 62
0
  0
3DFACE
  8
Sphere
 10
13.457277
 20
9.283193
 30
-9.783421
 11
13.040651
 21
9.283193
 31
-9.050673
 12
13.040651
 22
9.179036
 32
-9.050673
 13
13.457277
 23
9.179036
 33
-9.783421
 62
0
  0
3DFACE
  8
Sphere
 10
13.040651
 20
9.283193
 30
-9.050673
 11
12.895960
 21
9.283193
 31
-8.217422
 12
12.895960
 22
9.179036
 32
-8.217422
 13
13.040651
 23
9.179036
 33
-9.050673
 62
0
  0
3DFACE
  8
Sphere
 10
12.895960
 20
9.283193
 30
-8.217422
 11
13.040651
 21
9.283193
 31
-7.384172
 12
13.040651
 22
9.179036
 32
-7.384172
 13
12.895960
 23
9.179036
 33
-8.217422
 62
0
  0
3DFACE
  8
Sphere
 10
13.040651
 20
9.283193
 30
-7.384172
 11
13.457277
 21
9.283193
 31
-6.651424
 12
13.457277
 22
9.179036
 32
-6.651424
 13
13.040651
 23
9.179036
 33
-7.384172
 62
0
  0
3DFACE
  8
Sphere
 10
13.457277
 20
9.283193
 30
-6.651424
 11
14.095584
 21
9.283193
 31
-6.107559
 12
14.095584
 22
9.179036
 32
-6.107559
 13
13.457277
 23
9.179036
 33
-6.651424
 62
0
  0
3DFACE
  8
Sphere
 10
14.095584
 20
9.283193
 30
-6.107559
 11
14.878583
 21
9.283193
 31
-5.818174
 12
14.878583
 22
9.179036
 32
-5.818174
 13
14.095584
 23
9.179036
 33
-6.107559
 62
0
  0
3DFACE
  8
Sphere
 10
14.878583
 20
9.283193
 30
-5.818174
 11
15.711833
 21
9.283193
 31
-5.818174
 12
15.711833
 22
9.179036
 32
-5.818174
 13
14.878583
 23
9.179036
 33
-5.818174
 62
0
  0
3DFACE
  8
Sphere
 10
15.711833
 20
9.283193
 30
-5.818174
 11
16.494833
 21
9.283193
 31
-6.107559
 12
16.494833
 22
9.179036
 32
-6.107559
 13
15.711833
 23
9.179036
 33
-5.818174
 62
0
  0
3DFACE
  8
Sphere
 10
16.494833
 20
9.283193
 30
-6.107559
 11
17.133139
 21
9.283193
 31
-6.651424
 12
17.133139
 22
9.179036
 32
-6.651424
 13
16.494833
 23
9.179036
 33
-6.107559
 62
0
  0
3DFACE
  8
Sphere
 10
17.133139
 20
9.283193
 30
-6.651424
 11
17.549765
 21
9.283193
 31
-7.384172
 12
17.549765
 22
9.179036
 32
-7.384172
 13
17.133139
 23
9.179036
 33
-6.651424
 62
0
  0
3DFACE
  8
Sphere
 10
17.549765
 20
9.283193
 30
-7.384172
 11
17.694456
 21
9.283193
 31
-8.217422
 12
17.694456
 22
9.179036
 32
-8.217422
 13
17.549765
 23
9.179036
 33
-7.384172
 62
0
  0
3DFACE
  8
Sphere
 10
17.694456
 20
9.179036
 30
-8.217422
 11
17.549765
 21
9.179036
 31
-9.050673
 12
17.277832
 22
9.081161
 32
-8.950171
 13
17.405071
 23
9.081161
 33
-8.217422
 62
0
  0
3DFACE
  8
Sphere
 10
17.549765
 20
9.179036
 30
-9.050673
 11
17.133139
 21
9.179036
 31
-9.783421
 12
16.911457
 22
9.081161
 32
-9.594538
 13
17.277832
 23
9.081161
 33
-8.950171
 62
0
  0
3DFACE
  8
Sphere
 10
17.133139
 20
9.179036
 30
-9.783421
 11
16.494833
 21
9.179036
 31
-10.327286
 12
16.350140
 22
9.081161
 32
-10.072805
 13
16.911457
 23
9.081161
 33
-9.594538
 62
0
  0
3DFACE
  8
Sphere
 10
16.494833
 20
9.179036
 30
-10.327286
 11
15.711833
 21
9.179036
 31
-10.616671
 12
15.661582
 22
9.081161
 32
-10.327286
 13
16.350140
 23
9.081161
 33
-10.072805
 62
0
  0
3DFACE
  8
Sphere
 10
15.711833
 20
9.179036
 30
-10.616671
 11
14.878583
 21
9.179036
 31
-10.616671
 12
14.928834
 22
9.081161
 32
-10.327286
 13
15.661582
 23
9.081161
 33
-10.327286
 62
0
  0
3DFACE
  8
Sphere
 10
14.878583
 20
9.179036
 30
-10.616671
 11
14.095584
 21
9.179036
 31
-10.327286
 12
14.240276
 22
9.081161
 32
-10.072805
 13
14.928834
 23
9.081161
 33
-10.327286
 62
0
  0
3DFACE
  8
Sphere
 10
14.095584
 20
9.179036
 30
-10.327286
 11
13.457277
 21
9.179036
 31
-9.783421
 12
13.678959
 22
9.081161
 32
-9.594538
 13
14.240276
 23
9.081161
 33
-10.072805
 62
0
  0
3DFACE
  8
Sphere
 10
13.457277
 20
9.179036
 30
-9.783421
 11
13.040651
 21
9.179036
 31
-9.050673
 12
13.312585
 22
9.081161
 32
-8.950171
 13
13.678959
 23
9.081161
 33
-9.594538
 62
0
  0
3DFACE
  8
Sphere
 10
13.040651
 20
9.179036
 30
-9.050673
 11
12.895960
 21
9.179036
 31
-8.217422
 12
13.185345
 22
9.081161
 32
-8.217422
 13
13.312585
 23
9.081161
 33
-8.950171
 62
0
  0
3DFACE
  8
Sphere
 10
12.895960
 20
9.179036
 30
-8.217422
 11
13.040651
 21
9.179036
 31
-7.384172
 12
13.312585
 22
9.081161
 32
-7.484674
 13
13.185345
 23
9.081161
 33
-8.217422
 62
0
  0
3DFACE
  8
Sphere
 10
13.040651
 20
9.179036
 30
-7.384172
 11
13.457277
 21
9.179036
 31
-6.651424
 12
13.678959
 22
9.081161
 32
-6.840307
 13
13.312585
 23
9.081161
 33
-7.484674
 62
0
  0
3DFACE
  8
Sphere
 10
13.457277
 20
9.179036
 30
-6.651424
 11
14.095584
 21
9.179036
 31
-6.107559
 12
14.240276
 22
9.081161
 32
-6.362040
 13
13.678959
 23
9.081161
 33
-6.840307
 62
0
  0
3DFACE
  8
Sphere
 10
14.095584
 20
9.179036
 30
-6.107559
 11
14.878583
 21
9.179036
 31
-5.818174
 12
14.928834
 22
9.081161
 32
-6.107559
 13
14.240276
 23
9.081161
 33
-6.362040
 62
0
  0
3DFACE
  8
Sphere
 10
14.878583
 20
9.179036
 30
-5.818174
 11
15.711833
 21
9.179036
 31
-5.818174
 12
15.661582
 22
9.081161
 32
-6.107559
 13
14.928834
 23
9.081161
 33
-6.107559
 62
0
  0
3DFACE
  8
Sphere
 10
15.711833
 20
9.179036
 30
-5.818174
 11
16.494833
 21
9.179036
 31
-6.107559
 12
16.350140
 22
9.081161
 32
-6.362040
 13
15.661582
 23
9.081161
 33
-6.107559
 62
0
  0
3DFACE
  8
Sphere
 10
16.494833
 20
9.179036
 30
-6.107559
 11
17.133139
 21
9.179036
 31
-6.651424
 12
16.911457
 22
9.081161
 32
-6.840307
 13
16.350140
 23
9.081161
 33
-6.362040
 62
0
  0
3DFACE
  8
Sphere
 10
17.133139
 20
9.179036
 30
-6.651424
 11
17.549765
 21
9.179036
 31
-7.384172
 12
17.277832
 22
9.081161
 32
-7.484674
 13
16.911457
 23
9.081161
 33
-6.840307
 62
0
  0
3DFACE
  8
Sphere
 10
17.549765
 20
9.179036
 30
-7.384172
 11
17.694456
 21
9.179036
 31
-8.217422
 12
17.405071
 22
9.081161
 32
-8.217422
 13
17.277832
 23
9.081161
 33
-7.484674
 62
0
  0
3DFACE
  8
Sphere
 10
17.405071
 20
9.081161
 30
-8.217422
 11
17.277832
 21
9.081161
 31
-8.950171
 12
16.766766
 22
9.001373
 32
-8.761288
 13
16.861206
 23
9.001373
 33
-8.217422
 62
0
  0
3DFACE
  8
Sphere
 10
17.277832
 20
9.081161
 30
-8.950171
 11
16.911457
 21
9.081161
 31
-9.594538
 12
16.494833
 22
9.001373
 32
-9.239555
 13
16.766766
 23
9.001373
 33
-8.761288
 62
0
  0
3DFACE
  8
Sphere
 10
16.911457
 20
9.081161
 30
-9.594538
 11
16.350140
 21
9.081161
 31
-10.072805
 12
16.078207
 22
9.001373
 32
-9.594538
 13
16.494833
 23
9.001373
 33
-9.239555
 62
0
  0
3DFACE
  8
Sphere
 10
16.350140
 20
9.081161
 30
-10.072805
 11
15.661582
 21
9.081161
 31
-10.327286
 12
15.567141
 22
9.001373
 32
-9.783421
 13
16.078207
 23
9.001373
 33
-9.594538
 62
0
  0
3DFACE
  8
Sphere
 10
15.661582
 20
9.081161
 30
-10.327286
 11
14.928834
 21
9.081161
 31
-10.327286
 12
15.023275
 22
9.001373
 32
-9.783421
 13
15.567141
 23
9.001373
 33
-9.783421
 62
0
  0
3DFACE
  8
Sphere
 10
14.928834
 20
9.081161
 30
-10.327286
 11
14.240276
 21
9.081161
 31
-10.072805
 12
14.512209
 22
9.001373
 32
-9.594538
 13
15.023275
 23
9.001373
 33
-9.783421
 62
0
  0
3DFACE
  8
Sphere
 10
14.240276
 20
9.081161
 30
-10.072805
 11
13.678959
 21
9.081161
 31
-9.594538
 12
14.095584
 22
9.001373
 32
-9.239555
 13
14.512209
 23
9.001373
 33
-9.594538
 62
0
  0
3DFACE
  8
Sphere
 10
13.678959
 20
9.081161
 30
-9.594538
 11
13.312585
 21
9.081161
 31
-8.950171
 12
13.823650
 22
9.001373
 32
-8.761288
 13
14.095584
 23
9.001373
 33
-9.239555
 62
0
  0
3DFACE
  8
Sphere
 10
13.312585
 20
9.081161
 30
-8.950171
 11
13.185345
 21
9.081161
 31
-8.217422
 12
13.729210
 22
9.001373
 32
-8.217422
 13
13.823650
 23
9.001373
 33
-8.761288
 62
0
  0
3DFACE
  8
Sphere
 10
13.185345
 20
9.081161
 30
-8.217422
 11
13.312585
 21
9.081161
 31
-7.484674
 12
13.823650
 22
9.001373
 32
-7.673557
 13
13.729210
 23
9.001373
 33
-8.217422
 62
0
  0
3DFACE
  8
Sphere
 10
13.312585
 20
9.081161
 30
-7.484674
 11
13.678959
 21
9.081161
 31
-6.840307
 12
14.095584
 22
9.001373
 32
-7.195290
 13
13.823650
 23
9.001373
 33
-7.673557
 62
0
  0
3DFACE
  8
Sphere
 10
13.678959
 20
9.081161
 30
-6.840307
 11
14.240276
 21
9.081161
 31
-6.362040
 12
14.512209
 22
9.001373
 32
-6.840307
 13
14.095584
 23
9.001373
 33
-7.195290
 62
0
  0
3DFACE
  8
Sphere
 10
14.240276
 20
9.081161
 30
-6.362040
 11
14.928834
 21
9.081161
 31
-6.107559
 12
15.023275
 22
9.001373
 32
-6.651424
 13
14.512209
 23
9.001373
 33
-6.840307
 62
0
  0
3DFACE
  8
Sphere
 10
14.928834
 20
9.081161
 30
-6.107559
 11
15.661582
 21
9.081161
 31
-6.107559
 12
15.567141
 22
9.001373
 32
-6.651424
 13
15.023275
 23
9.001373
 33
-6.651424
 62
0
  0
3DFACE
  8
Sphere
 10
15.661582
 20
9.081161
 30
-6.107559
 11
16.350140
 21
9.081161
 31
-6.362040
 12
16.078207
 22
9.001373
 32
-6.840307
 13
15.567141
 23
9.001373
 33
-6.651424
 62
0
  0
3DFACE
  8
Sphere
 10
16.350140
 20
9.081161
 30
-6.362040
 11
16.911457
 21
9.081161
 31
-6.840307
 12
16.494833
 22
9.001373
 32
-7.195290
 13
16.078207
 23
9.001373
 33
-6.840307
 62
0
  0
3DFACE
  8
Sphere
 10
16.911457
 20
9.081161
 30
-6.840307
 11
17.277832
 21
9.081161
 31
-7.484674
 12
16.766766
 22
9.001373
 32
-7.673557
 13
16.494833
 23
9.001373
 33
-7.195290
 62
0
  0
3DFACE
  8
Sphere
 10
17.277832
 20
9.081161
 30
-7.484674
 11
17.405071
 21
9.081161
 31
-8.217422
 12
16.861206
 22
9.001373
 32
-8.217422
 13
16.766766
 23
9.001373
 33
-7.673557
 62
0
  0
3DFACE
  8
Sphere
 10
16.861206
 20
9.001373
 30
-8.217422
 11
16.766766
 21
9.001373
 31
-8.761288
 12
16.078207
 22
8.949295
 32
-8.506807
 13
16.128458
 23
8.949295
 33
-8.217422
 62
0
  0
3DFACE
  8
Sphere
 10
16.766766
 20
9.001373
 30
-8.761288
 11
16.494833
 21
9.001373
 31
-9.239555
 12
15.933515
 22
8.949295
 32
-8.761288
 13
16.078207
 23
8.949295
 33
-8.506807
 62
0
  0
3DFACE
  8
Sphere
 10
16.494833
 20
9.001373
 30
-9.239555
 11
16.078207
 21
9.001373
 31
-9.594538
 12
15.711833
 22
8.949295
 32
-8.950171
 13
15.933515
 23
8.949295
 33
-8.761288
 62
0
  0
3DFACE
  8
Sphere
 10
16.078207
 20
9.001373
 30
-9.594538
 11
15.567141
 21
9.001373
 31
-9.783421
 12
15.439900
 22
8.949295
 32
-9.050673
 13
15.711833
 23
8.949295
 33
-8.950171
 62
0
  0
3DFACE
  8
Sphere
 10
15.567141
 20
9.001373
 30
-9.783421
 11
15.023275
 21
9.001373
 31
-9.783421
 12
15.150516
 22
8.949295
 32
-9.050673
 13
15.439900
 23
8.949295
 33
-9.050673
 62
0
  0
3DFACE
  8
Sphere
 10
15.023275
 20
9.001373
 30
-9.783421
 11
14.512209
 21
9.001373
 31
-9.594538
 12
14.878583
 22
8.949295
 32
-8.950171
 13
15.150516
 23
8.949295
 33
-9.050673
 62
0
  0
3DFACE
  8
Sphere
 10
14.512209
 20
9.001373
 30
-9.594538
 11
14.095584
 21
9.001373
 31
-9.239555
 12
14.656901
 22
8.949295
 32
-8.761288
 13
14.878583
 23
8.949295
 33
-8.950171
 62
0
  0
3DFACE
  8
Sphere
 10
14.095584
 20
9.001373
 30
-9.239555
 11
13.823650
 21
9.001373
 31
-8.761288
 12
14.512209
 22
8.949295
 32
-8.506807
 13
14.656901
 23
8.949295
 33
-8.761288
 62
0
  0
3DFACE
  8
Sphere
 10
13.823650
 20
9.001373
 30
-8.761288
 11
13.729210
 21
9.001373
 31
-8.217422
 12
14.461958
 22
8.949295
 32
-8.217422
 13
14.512209
 23
8.949295
 33
-8.506807
 62
0
  0
3DFACE
  8
Sphere
 10
13.729210
 20
9.001373
 30
-8.217422
 11
13.823650
 21
9.001373
 31
-7.673557
 12
14.512209
 22
8.949295
 32
-7.928038
 13
14.461958
 23
8.949295
 33
-8.217422
 62
0
  0
3DFACE
  8
Sphere
 10
13.823650
 20
9.001373
 30
-7.673557
 11
14.095584
 21
9.001373
 31
-7.195290
 12
14.656901
 22
8.949295
 32
-7.673557
 13
14.512209
 23
8.949295
 33
-7.928038
 62
0
  0
3DFACE
  8
Sphere
 10
14.095584
 20
9.001373
 30
-7.195290
 11
14.512209
 21
9.001373
 31
-6.840307
 12
14.878583
 22
8.949295
 32
-7.484674
 13
14.656901
 23
8.949295
 33
-7.673557
 62
0
  0
3DFACE
  8
Sphere
 10
14.512209
 20
9.001373
 30
-6.840307
 11
15.023275
 21
9.001373
 31
-6.651424
 12
15.150516
 22
8.949295
 32
-7.384172
 13
14.878583
 23
8.949295
 33
-7.484674
 62
0
  0
3DFACE
  8
Sphere
 10
15.023275
 20
9.001373
 30
-6.651424
 11
15.567141
 21
9.001373
 31
-6.651424
 12
15.439900
 22
8.949295
 32
-7.384172
 13
15.150516
 23
8.949295
 33
-7.384172
 62
0
  0
3DFACE
  8
Sphere
 10
15.567141
 20
9.001373
 30
-6.651424
 11
16.078207
 21
9.001373
 31
-6.840307
 12
15.711833
 22
8.949295
 32
-7.484674
 13
15.439900
 23
8.949295
 33
-7.384172
 62
0
  0
3DFACE
  8
Sphere
 10
16.078207
 20
9.001373
 30
-6.840307
 11
16.494833
 21
9.001373
 31
-7.195290
 12
15.933515
 22
8.949295
 32
-7.673557
 13
15.711833
 23
8.949295
 33
-7.484674
 62
0
  0
3DFACE
  8
Sphere
 10
16.494833
 20
9.001373
 30
-7.195290
 11
16.766766
 21
9.001373
 31
-7.673557
 12
16.078207
 22
8.949295
 32
-7.928038
 13
15.933515
 23
8.949295
 33
-7.673557
 62
0
  0
3DFACE
  8
Sphere
 10
16.766766
 20
9.001373
 30
-7.673557
 11
16.861206
 21
9.001373
 31
-8.217422
 12
16.128458
 22
8.949295
 32
-8.217422
 13
16.078207
 23
8.949295
 33
-7.928038
 62
0
  0
3DFACE
  8
Sphere
 10
16.128458
 20
8.949295
 30
-8.217422
 11
16.078207
 21
8.949295
 31
-8.506807
 12
15.295208
 22
8.931209
 32
-8.217422
 13
15.295208
 23
8.931209
 33
-8.217422
 62
0
  0
3DFACE
  8
Sphere
 10
16.078207
 20
8.949295
 30
-8.506807
 11
15.933515
 21
8.949295
 31
-8.761288
 12
15.295208
 22
8.931209
 32
-8.217422
 13
15.295208
 23
8.931209
 33
-8.217422
 62
0
  0
3DFACE
  8
Sphere
 10
15.933515
 20
8.949295
 30
-8.761288
 11
15.711833
 21
8.949295
 31
-8.950171
 12
15.295208
 22
8.931209
 32
-8.217422
 13
15.295208
 23
8.931209
 33
-8.217422
 62
0
  0
3DFACE
  8
Sphere
 10
15.711833
 20
8.949295
 30
-8.950171
 11
15.439900
 21
8.949295
 31
-9.050673
 12
15.295208
 22
8.931209
 32
-8.217422
 13
15.295208
 23
8.931209
 33
-8.217422
 62
0
  0
3DFACE
  8
Sphere
 10
15.439900
 20
8.949295
 30
-9.050673
 11
15.150516
 21
8.949295
 31
-9.050673
 12
15.295208
 22
8.931209
 32
-8.217422
 13
15.295208
 23
8.931209
 33
-8.217422
 62
0
  0
3DFACE
  8
Sphere
 10
15.150516
 20
8.949295
 30
-9.050673
 11
14.878583
 21
8.949295
 31
-8.950171
 12
15.295208
 22
8.931209
 32
-8.217422
 13
15.295208
 23
8.931209
 33
-8.217422
 62
0
  0
3DFACE
  8
Sphere
 10
14.878583
 20
8.949295
 30
-8.950171
 11
14.656901
 21
8.949295
 31
-8.761288
 12
15.295208
 22
8.931209
 32
-8.217422
 13
15.295208
 23
8.931209
 33
-8.217422
 62
0
  0
3DFACE
  8
Sphere
 10
14.656901
 20
8.949295
 30
-8.761288
 11
14.512209
 21
8.949295
 31
-8.506807
 12
15.295208
 22
8.931209
 32
-8.217422
 13
15.295208
 23
8.931209
 33
-8.217422
 62
0
  0
3DFACE
  8
Sphere
 10
14.512209
 20
8.949295
 30
-8.506807
 11
14.461958
 21
8.949295
 31
-8.217422
 12
15.295208
 22
8.931209
 32
-8.217422
 13
15.295208
 23
8.931209
 33
-8.217422
 62
0
  0
3DFACE
  8
Sphere
 10
14.461958
 20
8.949295
 30
-8.217422
 11
14.512209
 21
8.949295
 31
-7.928038
 12
15.295208
 22
8.931209
 32
-8.217422
 13
15.295208
 23
8.931209
 33
-8.217422
 62
0
  0
3DFACE
  8
Sphere
 10
14.512209
 20
8.949295
 30
-7.928038
 11
14.656901
 21
8.949295
 31
-7.673557
 12
15.295208
 22
8.931209
 32
-8.217422
 13
15.295208
 23
8.931209
 33
-8.217422
 62
0
  0
3DFACE
  8
Sphere
 10
14.656901
 20
8.949295
 30
-7.673557
 11
14.878583
 21
8.949295
 31
-7.484674
 12
15.295208
 22
8.931209
 32
-8.217422
 13
15.295208
 23
8.931209
 33
-8.217422
 62
0
  0
3DFACE
  8
Sphere
 10
14.878583
 20
8.949295
 30
-7.484674
 11
15.150516
 21
8.949295
 31
-7.384172
 12
15.295208
 22
8.931209
 32
-8.217422
 13
15.295208
 23
8.931209
 33
-8.217422
 62
0
  0
3DFACE
  8
Sphere
 10
15.150516
 20
8.949295
 30
-7.384172
 11
15.439900
 21
8.949295
 31
-7.384172
 12
15.295208
 22
8.931209
 32
-8.217422
 13
15.295208
 23
8.931209
 33
-8.217422
 62
0
  0
3DFACE
  8
Sphere
 10
15.439900
 20
8.949295
 30
-7.384172
 11
15.711833
 21
8.949295
 31
-7.484674
 12
15.295208
 22
8.931209
 32
-8.217422
 13
15.295208
 23
8.931209
 33
-8.217422
 62
0
  0
3DFACE
  8
Sphere
 10
15.711833
 20
8.949295
 30
-7.484674
 11
15.933515
 21
8.949295
 31
-7.673557
 12
15.295208
 22
8.931209
 32
-8.217422
 13
15.295208
 23
8.931209
 33
-8.217422
 62
0
  0
3DFACE
  8
Sphere
 10
15.933515
 20
8.949295
 30
-7.673557
 11
16.078207
 21
8.949295
 31
-7.928038
 12
15.295208
 22
8.931209
 32
-8.217422
 13
15.295208
 23
8.931209
 33
-8.217422
 62
0
  0
3DFACE
  8
Sphere
 10
16.078207
 20
8.949295
 30
-7.928038
 11
16.128458
 21
8.949295
 31
-8.217422
 12
15.295208
 22
8.931209
 32
-8.217422
 13
15.295208
 23
8.931209
 33
-8.217422
 62
0
  0
3DFACE
  8
Cube3001
 10
-12.001134
 20
-6.359218
 30
7.020248
 11
-12.001466
 21
2.596615
 31
7.019940
 12
-12.000249
 22
3.720139
 32
-5.338679
 13
-11.999601
 23
-3.577291
 33
-5.339103
 62
0
  0
3DFACE
  8
Cube3001
 10
-12.000249
 20
3.720139
 30
-5.338679
 11
-18.593229
 21
3.720342
 31
-5.338006
 12
-18.592802
 22
-3.577028
 32
-5.337899
 13
-11.999601
 23
-3.577291
 33
-5.339103
 62
0
  0
3DFACE
  8
Cube3001
 10
-18.593229
 20
3.720342
 30
-5.338006
 11
-12.000249
 21
3.720139
 31
-5.338679
 12
-16.511475
 22
2.596646
 32
3.235602
 13
-16.511475
 23
2.596646
 33
3.235602
 62
0
  0
3DFACE
  8
Cube3001
 10
-12.001134
 20
-6.359218
 30
7.020248
 11
-16.511242
 21
-6.359222
 31
3.235739
 12
-16.511475
 22
2.596646
 32
3.235602
 13
-12.001466
 23
2.596615
 33
7.019940
 62
0
  0
3DFACE
  8
Cube3001
 10
-16.511475
 20
2.596646
 30
3.235602
 11
-16.511242
 21
-6.359222
 31
3.235739
 12
-18.592802
 22
-3.577028
 32
-5.337899
 13
-18.593229
 23
3.720342
 33
-5.338006
 62
0
  0
3DFACE
  8
Cube3001
 10
-16.511242
 20
-6.359222
 30
3.235739
 11
-12.001134
 21
-6.359218
 31
7.020248
 12
-11.999601
 22
-3.577291
 32
-5.339103
 13
-11.999601
 23
-3.577291
 33
-5.339103
 62
0
  0
3DFACE
  8
Cube3001
 10
-12.001466
 20
2.596615
 30
7.019940
 11
-16.511475
 21
2.596646
 31
3.235602
 12
-12.000249
 22
3.720139
 32
-5.338679
 13
-12.000249
 23
3.720139
 33
-5.338679
 62
0
  0
3DFACE
  8
Cube3001
 10
-11.999601
 20
-3.577291
 30
-5.339103
 11
-18.592802
 21
-3.577028
 31
-5.337899
 12
-16.511242
 22
-6.359222
 32
3.235739
 13
-16.511242
 23
-6.359222
 33
3.235739
 62
0
  0
3DFACE
  8
NoName6002
 10
-15.531708
 20
-2.484957
 30
4.004959
 11
-13.705661
 21
0.242262
 31
5.174159
 12
-12.897330
 22
-1.912376
 32
5.982450
 13
-12.897330
 23
-1.912376
 33
5.982450
 62
0
  0
3DFACE
  8
NoName6002
 10
-12.897330
 20
-1.912376
 30
5.982450
 11
-13.705661
 21
0.242262
 31
5.174159
 12
-16.966930
 22
-0.146084
 32
9.339070
 13
-16.966930
 23
-0.146084
 33
9.339070
 62
0
  0
3DFACE
  8
NoName6002
 10
-16.966930
 20
-0.146084
 30
9.339070
 11
-13.705661
 21
0.242262
 31
5.174159
 12
-15.531708
 22
-2.484957
 32
4.004959
 13
-15.531708
 23
-2.484957
 33
4.004959
 62
0
  0
3DFACE
  8
NoName6002
 10
-16.966930
 20
-0.146084
 30
9.339070
 11
-15.531708
 21
-2.484957
 31
4.004959
 12
-12.897330
 22
-1.912376
 32
5.982450
 13
-12.897330
 23
-1.912376
 33
5.982450
 62
0
  0
3DFACE
  8
Cylinder1001
 10
-18.594202
 20
-3.592879
 30
-5.338300
 11
-18.594206
 21
-2.713828
 31
-8.369141
 12
-18.594206
 22
11.910823
 32
-9.255894
 13
-18.594179
 23
11.910843
 33
-5.338279
 62
0
  0
3DFACE
  8
Cylinder1001
 10
-18.594206
 20
-2.713828
 30
-8.369141
 11
-15.295505
 21
-2.008295
 31
-10.801717
 12
-15.295297
 22
11.910769
 32
-11.888871
 13
-18.594206
 23
11.910823
 33
-9.255894
 62
0
  0
3DFACE
  8
Cylinder1001
 10
-15.295505
 20
-2.008295
 30
-10.801717
 11
-11.996276
 21
-2.713456
 31
-8.370402
 12
-11.996256
 22
11.910823
 32
-9.255862
 13
-15.295297
 23
11.910769
 33
-11.888871
 62
0
  0
3DFACE
  8
Cylinder1001
 10
-14.095587
 20
11.910839
 30
-6.107556
 11
-11.996243
 21
11.910843
 31
-5.338277
 12
-14.878586
 22
11.910841
 32
-5.818172
 13
-14.878586
 23
11.910841
 33
-5.818172
 62
0
  0
3DFACE
  8
Cylinder1001
 10
-13.457280
 20
11.910833
 30
-6.651421
 11
-11.996243
 21
11.910843
 31
-5.338277
 12
-14.095587
 22
11.910839
 32
-6.107556
 13
-14.095587
 23
11.910839
 33
-6.107556
 62
0
  0
3DFACE
  8
Cylinder1001
 10
-13.040654
 20
11.910829
 30
-7.384168
 11
-11.996243
 21
11.910843
 31
-5.338277
 12
-13.457280
 22
11.910833
 32
-6.651421
 13
-13.457280
 23
11.910833
 33
-6.651421
 62
0
  0
3DFACE
  8
Cylinder1001
 10
-12.895962
 20
11.910819
 30
-8.217418
 11
-11.996243
 21
11.910843
 31
-5.338277
 12
-13.040654
 22
11.910829
 32
-7.384168
 13
-13.040654
 23
11.910829
 33
-7.384168
 62
0
  0
3DFACE
  8
Cylinder1001
 10
-11.996256
 20
11.910823
 30
-9.255862
 11
-11.996243
 21
11.910843
 31
-5.338277
 12
-12.895962
 22
11.910819
 32
-8.217418
 13
-12.895962
 23
11.910819
 33
-8.217418
 62
0
  0
3DFACE
  8
Cylinder1001
 10
-13.040654
 20
11.910811
 30
-9.050668
 11
-11.996256
 21
11.910823
 31
-9.255862
 12
-12.895962
 22
11.910819
 32
-8.217418
 13
-12.895962
 23
11.910819
 33
-8.217418
 62
0
  0
3DFACE
  8
Cylinder1001
 10
-13.457280
 20
11.910807
 30
-9.783416
 11
-11.996256
 21
11.910823
 31
-9.255862
 12
-13.040654
 22
11.910811
 32
-9.050668
 13
-13.040654
 23
11.910811
 33
-9.050668
 62
0
  0
3DFACE
  8
Cylinder1001
 10
-14.095587
 20
11.910801
 30
-10.327281
 11
-11.996256
 21
11.910823
 31
-9.255862
 12
-13.457280
 22
11.910807
 32
-9.783416
 13
-13.457280
 23
11.910807
 33
-9.783416
 62
0
  0
3DFACE
  8
Cylinder1001
 10
-15.295297
 20
11.910769
 30
-11.888871
 11
-11.996256
 21
11.910823
 31
-9.255862
 12
-14.095587
 22
11.910801
 32
-10.327281
 13
-14.095587
 23
11.910801
 33
-10.327281
 62
0
  0
3DFACE
  8
Cylinder1001
 10
-15.295297
 20
11.910769
 30
-11.888871
 11
-14.095587
 21
11.910801
 31
-10.327281
 12
-14.878586
 22
11.910799
 32
-10.616666
 13
-14.878586
 23
11.910799
 33
-10.616666
 62
0
  0
3DFACE
  8
Cylinder1001
 10
-15.295297
 20
11.910769
 30
-11.888871
 11
-14.878586
 21
11.910799
 31
-10.616666
 12
-15.711837
 22
11.910799
 32
-10.616667
 13
-15.711837
 23
11.910799
 33
-10.616667
 62
0
  0
3DFACE
  8
Cylinder1001
 10
-15.711837
 20
11.910841
 30
-5.818172
 11
-14.878586
 21
11.910841
 31
-5.818172
 12
-11.996243
 22
11.910843
 32
-5.338277
 13
-11.996243
 23
11.910843
 33
-5.338277
 62
0
  0
3DFACE
  8
Cylinder1001
 10
-18.594179
 20
11.910843
 30
-5.338279
 11
-15.711837
 21
11.910841
 31
-5.818172
 12
-11.996243
 22
11.910843
 32
-5.338277
 13
-11.996243
 23
11.910843
 33
-5.338277
 62
0
  0
3DFACE
  8
Cylinder1001
 10
-16.494837
 20
11.910839
 30
-6.107557
 11
-15.711837
 21
11.910841
 31
-5.818172
 12
-18.594179
 22
11.910843
 32
-5.338279
 13
-18.594179
 23
11.910843
 33
-5.338279
 62
0
  0
3DFACE
  8
Cylinder1001
 10
-17.133142
 20
11.910833
 30
-6.651422
 11
-16.494837
 21
11.910839
 31
-6.107557
 12
-18.594179
 22
11.910843
 32
-5.338279
 13
-18.594179
 23
11.910843
 33
-5.338279
 62
0
  0
3DFACE
  8
Cylinder1001
 10
-17.549768
 20
11.910827
 30
-7.384170
 11
-17.133142
 21
11.910833
 31
-6.651422
 12
-18.594179
 22
11.910843
 32
-5.338279
 13
-18.594179
 23
11.910843
 33
-5.338279
 62
0
  0
3DFACE
  8
Cylinder1001
 10
-17.694460
 20
11.910819
 30
-8.217420
 11
-17.549768
 21
11.910827
 31
-7.384170
 12
-18.594179
 22
11.910843
 32
-5.338279
 13
-18.594179
 23
11.910843
 33
-5.338279
 62
0
  0
3DFACE
  8
Cylinder1001
 10
-17.549768
 20
11.910811
 30
-9.050670
 11
-17.694460
 21
11.910819
 31
-8.217420
 12
-18.594179
 22
11.910843
 32
-5.338279
 13
-18.594179
 23
11.910843
 33
-5.338279
 62
0
  0
3DFACE
  8
Cylinder1001
 10
-18.594206
 20
11.910823
 30
-9.255894
 11
-17.549768
 21
11.910811
 31
-9.050670
 12
-18.594179
 22
11.910843
 32
-5.338279
 13
-18.594179
 23
11.910843
 33
-5.338279
 62
0
  0
3DFACE
  8
Cylinder1001
 10
-17.133142
 20
11.910807
 30
-9.783417
 11
-17.549768
 21
11.910811
 31
-9.050670
 12
-18.594206
 22
11.910823
 32
-9.255894
 13
-18.594206
 23
11.910823
 33
-9.255894
 62
0
  0
3DFACE
  8
Cylinder1001
 10
-16.494837
 20
11.910801
 30
-10.327282
 11
-17.133142
 21
11.910807
 31
-9.783417
 12
-18.594206
 22
11.910823
 32
-9.255894
 13
-18.594206
 23
11.910823
 33
-9.255894
 62
0
  0
3DFACE
  8
Cylinder1001
 10
-15.295297
 20
11.910769
 30
-11.888871
 11
-16.494837
 21
11.910801
 31
-10.327282
 12
-18.594206
 22
11.910823
 32
-9.255894
 13
-18.594206
 23
11.910823
 33
-9.255894
 62
0
  0
3DFACE
  8
Cylinder1001
 10
-15.295297
 20
11.910769
 30
-11.888871
 11
-15.711837
 21
11.910799
 31
-10.616667
 12
-16.494837
 22
11.910801
 32
-10.327282
 13
-16.494837
 23
11.910801
 33
-10.327282
 62
0
  0
3DFACE
  8
Cylinder1001
 10
-11.996276
 20
-2.713456
 30
-8.370402
 11
-11.996258
 21
-3.592879
 31
-5.338282
 12
-11.996243
 22
11.910843
 32
-5.338277
 13
-11.996256
 23
11.910823
 33
-9.255862
 62
0
  0
3DFACE
  8
Cylinder1001
 10
-11.996258
 20
-3.592879
 30
-5.338282
 11
-18.594202
 21
-3.592879
 31
-5.338300
 12
-18.594179
 22
11.910843
 32
-5.338279
 13
-11.996243
 23
11.910843
 33
-5.338277
 62
0
  0
3DFACE
  8
Cylinder1001
 10
-11.996276
 20
-2.713456
 30
-8.370402
 11
-18.594202
 21
-3.592879
 31
-5.338300
 12
-11.996258
 22
-3.592879
 32
-5.338282
 13
-11.996258
 23
-3.592879
 33
-5.338282
 62
0
  0
3DFACE
  8
Cylinder1001
 10
-18.594206
 20
-2.713828
 30
-8.369141
 11
-18.594202
 21
-3.592879
 31
-5.338300
 12
-11.996276
 22
-2.713456
 32
-8.370402
 13
-11.996276
 23
-2.713456
 33
-8.370402
 62
0
  0
3DFACE
  8
Cylinder1001
 10
-15.295505
 20
-2.008295
 30
-10.801717
 11
-18.594206
 21
-2.713828
 31
-8.369141
 12
-11.996276
 22
-2.713456
 32
-8.370402
 13
-11.996276
 23
-2.713456
 33
-8.370402
 62
0
  0
3DFACE
  8
Cylinder1001
 10
-13.040654
 20
11.910811
 30
-9.050668
 11
-12.895962
 21
11.910819
 31
-8.217418
 12
-12.896039
 22
9.231086
 32
-8.217428
 13
-13.040729
 23
9.231082
 33
-9.050671
 62
1
  0
3DFACE
  8
Cylinder1001
 10
-12.895962
 20
11.910819
 30
-8.217418
 11
-13.040654
 21
11.910829
 31
-7.384168
 12
-13.040726
 22
9.231088
 32
-7.384190
 13
-12.896039
 23
9.231086
 33
-8.217428
 62
1
  0
3DFACE
  8
Cylinder1001
 10
-13.040654
 20
11.910829
 30
-7.384168
 11
-13.457280
 21
11.910833
 31
-6.651421
 12
-13.457356
 22
9.231090
 32
-6.651459
 13
-13.040726
 23
9.231088
 33
-7.384190
 62
1
  0
3DFACE
  8
Cylinder1001
 10
-13.457280
 20
11.910833
 30
-6.651421
 11
-14.095587
 21
11.910839
 31
-6.107556
 12
-14.095664
 22
9.231090
 32
-6.107603
 13
-13.457356
 23
9.231090
 33
-6.651459
 62
1
  0
3DFACE
  8
Cylinder1001
 10
-14.095587
 20
11.910839
 30
-6.107556
 11
-14.878586
 21
11.910841
 31
-5.818172
 12
-14.878670
 22
9.231090
 32
-5.818235
 13
-14.095664
 23
9.231090
 33
-6.107603
 62
1
  0
3DFACE
  8
Cylinder1001
 10
-14.878586
 20
11.910841
 30
-5.818172
 11
-15.711837
 21
11.910841
 31
-5.818172
 12
-15.711925
 22
9.231090
 32
-5.818243
 13
-14.878670
 23
9.231090
 33
-5.818235
 62
1
  0
3DFACE
  8
Cylinder1001
 10
-15.711837
 20
11.910841
 30
-5.818172
 11
-16.494837
 21
11.910839
 31
-6.107557
 12
-16.494925
 22
9.231090
 32
-6.107633
 13
-15.711925
 23
9.231090
 33
-5.818243
 62
1
  0
3DFACE
  8
Cylinder1001
 10
-16.494837
 20
11.910839
 30
-6.107557
 11
-17.133142
 21
11.910833
 31
-6.651422
 12
-17.133242
 22
9.231090
 32
-6.651498
 13
-16.494925
 23
9.231090
 33
-6.107633
 62
1
  0
3DFACE
  8
Cylinder1001
 10
-17.133142
 20
11.910833
 30
-6.651422
 11
-17.549768
 21
11.910827
 31
-7.384170
 12
-17.549866
 22
9.231088
 32
-7.384243
 13
-17.133242
 23
9.231090
 33
-6.651498
 62
1
  0
3DFACE
  8
Cylinder1001
 10
-15.711925
 20
9.231090
 30
-5.818243
 11
-14.095664
 21
9.231090
 31
-6.107603
 12
-14.878670
 22
9.231090
 32
-5.818235
 13
-14.878670
 23
9.231090
 33
-5.818235
 62
0
  0
3DFACE
  8
Cylinder1001
 10
-13.457356
 20
9.231090
 30
-6.651459
 11
-14.095664
 21
9.231090
 31
-6.107603
 12
-15.711925
 22
9.231090
 32
-5.818243
 13
-15.711925
 23
9.231090
 33
-5.818243
 62
0
  0
3DFACE
  8
Cylinder1001
 10
-16.494925
 20
9.231090
 30
-6.107633
 11
-13.457356
 21
9.231090
 31
-6.651459
 12
-15.711925
 22
9.231090
 32
-5.818243
 13
-15.711925
 23
9.231090
 33
-5.818243
 62
0
  0
3DFACE
  8
Cylinder1001
 10
-13.040726
 20
9.231088
 30
-7.384190
 11
-13.457356
 21
9.231090
 31
-6.651459
 12
-16.494925
 22
9.231090
 32
-6.107633
 13
-16.494925
 23
9.231090
 33
-6.107633
 62
0
  0
3DFACE
  8
Cylinder1001
 10
-17.133242
 20
9.231090
 30
-6.651498
 11
-13.040726
 21
9.231088
 31
-7.384190
 12
-16.494925
 22
9.231090
 32
-6.107633
 13
-16.494925
 23
9.231090
 33
-6.107633
 62
0
  0
3DFACE
  8
Cylinder1001
 10
-12.896039
 20
9.231086
 30
-8.217428
 11
-13.040726
 21
9.231088
 31
-7.384190
 12
-17.133242
 22
9.231090
 32
-6.651498
 13
-17.133242
 23
9.231090
 33
-6.651498
 62
0
  0
3DFACE
  8
Cylinder1001
 10
-17.549866
 20
9.231088
 30
-7.384243
 11
-12.896039
 21
9.231086
 31
-8.217428
 12
-17.133242
 22
9.231090
 32
-6.651498
 13
-17.133242
 23
9.231090
 33
-6.651498
 62
0
  0
3DFACE
  8
Cylinder1001
 10
-13.040729
 20
9.231082
 30
-9.050671
 11
-12.896039
 21
9.231086
 31
-8.217428
 12
-17.549866
 22
9.231088
 32
-7.384243
 13
-17.549866
 23
9.231088
 33
-7.384243
 62
0
  0
3DFACE
  8
Cylinder1001
 10
-17.694565
 20
9.231086
 30
-8.217485
 11
-13.040729
 21
9.231082
 31
-9.050671
 12
-17.549866
 22
9.231088
 32
-7.384243
 13
-17.549866
 23
9.231088
 33
-7.384243
 62
0
  0
3DFACE
  8
Cylinder1001
 10
-13.457362
 20
9.231078
 30
-9.783415
 11
-13.040729
 21
9.231082
 31
-9.050671
 12
-17.694565
 22
9.231086
 32
-8.217485
 13
-17.694565
 23
9.231086
 33
-8.217485
 62
0
  0
3DFACE
  8
Cylinder1001
 10
-17.549870
 20
9.231082
 30
-9.050728
 11
-13.457362
 21
9.231078
 31
-9.783415
 12
-17.694565
 22
9.231086
 32
-8.217485
 13
-17.694565
 23
9.231086
 33
-8.217485
 62
0
  0
3DFACE
  8
Cylinder1001
 10
-14.095670
 20
9.231078
 30
-10.327280
 11
-13.457362
 21
9.231078
 31
-9.783415
 12
-17.549870
 22
9.231082
 32
-9.050728
 13
-17.549870
 23
9.231082
 33
-9.050728
 62
0
  0
3DFACE
  8
Cylinder1001
 10
-17.133244
 20
9.231078
 30
-9.783457
 11
-14.095670
 21
9.231078
 31
-10.327280
 12
-17.549870
 22
9.231082
 32
-9.050728
 13
-17.549870
 23
9.231082
 33
-9.050728
 62
0
  0
3DFACE
  8
Cylinder1001
 10
-14.878675
 20
9.231076
 30
-10.616673
 11
-14.095670
 21
9.231078
 31
-10.327280
 12
-17.133244
 22
9.231078
 32
-9.783457
 13
-17.133244
 23
9.231078
 33
-9.783457
 62
0
  0
3DFACE
  8
Cylinder1001
 10
-16.494934
 20
9.231078
 30
-10.327304
 11
-14.878675
 21
9.231076
 31
-10.616673
 12
-17.133244
 22
9.231078
 32
-9.783457
 13
-17.133244
 23
9.231078
 33
-9.783457
 62
0
  0
3DFACE
  8
Cylinder1001
 10
-15.711934
 20
9.231076
 30
-10.616689
 11
-14.878675
 21
9.231076
 31
-10.616673
 12
-16.494934
 22
9.231078
 32
-10.327304
 13
-16.494934
 23
9.231078
 33
-10.327304
 62
0
  0
3DFACE
  8
Cylinder1001
 10
-17.549768
 20
11.910827
 30
-7.384170
 11
-17.694460
 21
11.910819
 31
-8.217420
 12
-17.694565
 22
9.231086
 32
-8.217485
 13
-17.549866
 23
9.231088
 33
-7.384243
 62
1
  0
3DFACE
  8
Cylinder1001
 10
-17.694460
 20
11.910819
 30
-8.217420
 11
-17.549768
 21
11.910811
 31
-9.050670
 12
-17.549870
 22
9.231082
 32
-9.050728
 13
-17.694565
 23
9.231086
 33
-8.217485
 62
1
  0
3DFACE
  8
Cylinder1001
 10
-17.549768
 20
11.910811
 30
-9.050670
 11
-17.133142
 21
11.910807
 31
-9.783417
 12
-17.133244
 22
9.231078
 32
-9.783457
 13
-17.549870
 23
9.231082
 33
-9.050728
 62
1
  0
3DFACE
  8
Cylinder1001
 10
-17.133142
 20
11.910807
 30
-9.783417
 11
-16.494837
 21
11.910801
 31
-10.327282
 12
-16.494934
 22
9.231078
 32
-10.327304
 13
-17.133244
 23
9.231078
 33
-9.783457
 62
1
  0
3DFACE
  8
Cylinder1001
 10
-16.494837
 20
11.910801
 30
-10.327282
 11
-15.711837
 21
11.910799
 31
-10.616667
 12
-15.711934
 22
9.231076
 32
-10.616689
 13
-16.494934
 23
9.231078
 33
-10.327304
 62
1
  0
3DFACE
  8
Cylinder1001
 10
-15.711837
 20
11.910799
 30
-10.616667
 11
-14.878586
 21
11.910799
 31
-10.616666
 12
-14.878675
 22
9.231076
 32
-10.616673
 13
-15.711934
 23
9.231076
 33
-10.616689
 62
1
  0
3DFACE
  8
Cylinder1001
 10
-14.878586
 20
11.910799
 30
-10.616666
 11
-14.095587
 21
11.910801
 31
-10.327281
 12
-14.095670
 22
9.231078
 32
-10.327280
 13
-14.878675
 23
9.231076
 33
-10.616673
 62
1
  0
3DFACE
  8
Cylinder1001
 10
-14.095587
 20
11.910801
 30
-10.327281
 11
-13.457280
 21
11.910807
 31
-9.783416
 12
-13.457362
 22
9.231078
 32
-9.783415
 13
-14.095670
 23
9.231078
 33
-10.327280
 62
1
  0
3DFACE
  8
Cylinder1001
 10
-13.457280
 20
11.910807
 30
-9.783416
 11
-13.040654
 21
11.910811
 31
-9.050668
 12
-13.040729
 22
9.231082
 32
-9.050671
 13
-13.457362
 23
9.231078
 33
-9.783415
 62
1
  0
3DFACE
  8
Sphere001
 10
-16.128458
 20
9.512958
 30
-8.217422
 11
-16.078207
 21
9.512958
 31
-8.506807
 12
-15.295208
 22
9.531042
 32
-8.217422
 13
-15.295208
 23
9.531042
 33
-8.217422
 62
0
  0
3DFACE
  8
Sphere001
 10
-16.078207
 20
9.512958
 30
-8.506807
 11
-15.933515
 21
9.512958
 31
-8.761288
 12
-15.295208
 22
9.531042
 32
-8.217422
 13
-15.295208
 23
9.531042
 33
-8.217422
 62
0
  0
3DFACE
  8
Sphere001
 10
-15.933515
 20
9.512958
 30
-8.761288
 11
-15.711833
 21
9.512958
 31
-8.950171
 12
-15.295208
 22
9.531042
 32
-8.217422
 13
-15.295208
 23
9.531042
 33
-8.217422
 62
0
  0
3DFACE
  8
Sphere001
 10
-15.711833
 20
9.512958
 30
-8.950171
 11
-15.439900
 21
9.512958
 31
-9.050673
 12
-15.295208
 22
9.531042
 32
-8.217422
 13
-15.295208
 23
9.531042
 33
-8.217422
 62
0
  0
3DFACE
  8
Sphere001
 10
-15.439900
 20
9.512958
 30
-9.050673
 11
-15.150516
 21
9.512958
 31
-9.050673
 12
-15.295208
 22
9.531042
 32
-8.217422
 13
-15.295208
 23
9.531042
 33
-8.217422
 62
0
  0
3DFACE
  8
Sphere001
 10
-15.150516
 20
9.512958
 30
-9.050673
 11
-14.878583
 21
9.512958
 31
-8.950171
 12
-15.295208
 22
9.531042
 32
-8.217422
 13
-15.295208
 23
9.531042
 33
-8.217422
 62
0
  0
3DFACE
  8
Sphere001
 10
-14.878583
 20
9.512958
 30
-8.950171
 11
-14.656901
 21
9.512958
 31
-8.761288
 12
-15.295208
 22
9.531042
 32
-8.217422
 13
-15.295208
 23
9.531042
 33
-8.217422
 62
0
  0
3DFACE
  8
Sphere001
 10
-14.656901
 20
9.512958
 30
-8.761288
 11
-14.512209
 21
9.512958
 31
-8.506807
 12
-15.295208
 22
9.531042
 32
-8.217422
 13
-15.295208
 23
9.531042
 33
-8.217422
 62
0
  0
3DFACE
  8
Sphere001
 10
-14.512209
 20
9.512958
 30
-8.506807
 11
-14.461958
 21
9.512958
 31
-8.217422
 12
-15.295208
 22
9.531042
 32
-8.217422
 13
-15.295208
 23
9.531042
 33
-8.217422
 62
0
  0
3DFACE
  8
Sphere001
 10
-14.461958
 20
9.512958
 30
-8.217422
 11
-14.512209
 21
9.512958
 31
-7.928038
 12
-15.295208
 22
9.531042
 32
-8.217422
 13
-15.295208
 23
9.531042
 33
-8.217422
 62
0
  0
3DFACE
  8
Sphere001
 10
-14.512209
 20
9.512958
 30
-7.928038
 11
-14.656901
 21
9.512958
 31
-7.673557
 12
-15.295208
 22
9.531042
 32
-8.217422
 13
-15.295208
 23
9.531042
 33
-8.217422
 62
0
  0
3DFACE
  8
Sphere001
 10
-14.656901
 20
9.512958
 30
-7.673557
 11
-14.878583
 21
9.512958
 31
-7.484674
 12
-15.295208
 22
9.531042
 32
-8.217422
 13
-15.295208
 23
9.531042
 33
-8.217422
 62
0
  0
3DFACE
  8
Sphere001
 10
-14.878583
 20
9.512958
 30
-7.484674
 11
-15.150516
 21
9.512958
 31
-7.384172
 12
-15.295208
 22
9.531042
 32
-8.217422
 13
-15.295208
 23
9.531042
 33
-8.217422
 62
0
  0
3DFACE
  8
Sphere001
 10
-15.150516
 20
9.512958
 30
-7.384172
 11
-15.439900
 21
9.512958
 31
-7.384172
 12
-15.295208
 22
9.531042
 32
-8.217422
 13
-15.295208
 23
9.531042
 33
-8.217422
 62
0
  0
3DFACE
  8
Sphere001
 10
-15.439900
 20
9.512958
 30
-7.384172
 11
-15.711833
 21
9.512958
 31
-7.484674
 12
-15.295208
 22
9.531042
 32
-8.217422
 13
-15.295208
 23
9.531042
 33
-8.217422
 62
0
  0
3DFACE
  8
Sphere001
 10
-15.711833
 20
9.512958
 30
-7.484674
 11
-15.933515
 21
9.512958
 31
-7.673557
 12
-15.295208
 22
9.531042
 32
-8.217422
 13
-15.295208
 23
9.531042
 33
-8.217422
 62
0
  0
3DFACE
  8
Sphere001
 10
-15.933515
 20
9.512958
 30
-7.673557
 11
-16.078207
 21
9.512958
 31
-7.928038
 12
-15.295208
 22
9.531042
 32
-8.217422
 13
-15.295208
 23
9.531042
 33
-8.217422
 62
0
  0
3DFACE
  8
Sphere001
 10
-16.078207
 20
9.512958
 30
-7.928038
 11
-16.128458
 21
9.512958
 31
-8.217422
 12
-15.295208
 22
9.531042
 32
-8.217422
 13
-15.295208
 23
9.531042
 33
-8.217422
 62
0
  0
3DFACE
  8
Sphere001
 10
-16.861206
 20
9.460877
 30
-8.217422
 11
-16.766766
 21
9.460877
 31
-8.761288
 12
-16.078207
 22
9.512958
 32
-8.506807
 13
-16.128458
 23
9.512958
 33
-8.217422
 62
0
  0
3DFACE
  8
Sphere001
 10
-16.766766
 20
9.460877
 30
-8.761288
 11
-16.494833
 21
9.460877
 31
-9.239555
 12
-15.933515
 22
9.512958
 32
-8.761288
 13
-16.078207
 23
9.512958
 33
-8.506807
 62
0
  0
3DFACE
  8
Sphere001
 10
-16.494833
 20
9.460877
 30
-9.239555
 11
-16.078207
 21
9.460877
 31
-9.594538
 12
-15.711833
 22
9.512958
 32
-8.950171
 13
-15.933515
 23
9.512958
 33
-8.761288
 62
0
  0
3DFACE
  8
Sphere001
 10
-16.078207
 20
9.460877
 30
-9.594538
 11
-15.567141
 21
9.460877
 31
-9.783421
 12
-15.439900
 22
9.512958
 32
-9.050673
 13
-15.711833
 23
9.512958
 33
-8.950171
 62
0
  0
3DFACE
  8
Sphere001
 10
-15.567141
 20
9.460877
 30
-9.783421
 11
-15.023275
 21
9.460877
 31
-9.783421
 12
-15.150516
 22
9.512958
 32
-9.050673
 13
-15.439900
 23
9.512958
 33
-9.050673
 62
0
  0
3DFACE
  8
Sphere001
 10
-15.023275
 20
9.460877
 30
-9.783421
 11
-14.512209
 21
9.460877
 31
-9.594538
 12
-14.878583
 22
9.512958
 32
-8.950171
 13
-15.150516
 23
9.512958
 33
-9.050673
 62
0
  0
3DFACE
  8
Sphere001
 10
-14.512209
 20
9.460877
 30
-9.594538
 11
-14.095584
 21
9.460877
 31
-9.239555
 12
-14.656901
 22
9.512958
 32
-8.761288
 13
-14.878583
 23
9.512958
 33
-8.950171
 62
0
  0
3DFACE
  8
Sphere001
 10
-14.095584
 20
9.460877
 30
-9.239555
 11
-13.823650
 21
9.460877
 31
-8.761288
 12
-14.512209
 22
9.512958
 32
-8.506807
 13
-14.656901
 23
9.512958
 33
-8.761288
 62
0
  0
3DFACE
  8
Sphere001
 10
-13.823650
 20
9.460877
 30
-8.761288
 11
-13.729210
 21
9.460877
 31
-8.217422
 12
-14.461958
 22
9.512958
 32
-8.217422
 13
-14.512209
 23
9.512958
 33
-8.506807
 62
0
  0
3DFACE
  8
Sphere001
 10
-13.729210
 20
9.460877
 30
-8.217422
 11
-13.823650
 21
9.460877
 31
-7.673557
 12
-14.512209
 22
9.512958
 32
-7.928038
 13
-14.461958
 23
9.512958
 33
-8.217422
 62
0
  0
3DFACE
  8
Sphere001
 10
-13.823650
 20
9.460877
 30
-7.673557
 11
-14.095584
 21
9.460877
 31
-7.195290
 12
-14.656901
 22
9.512958
 32
-7.673557
 13
-14.512209
 23
9.512958
 33
-7.928038
 62
0
  0
3DFACE
  8
Sphere001
 10
-14.095584
 20
9.460877
 30
-7.195290
 11
-14.512209
 21
9.460877
 31
-6.840307
 12
-14.878583
 22
9.512958
 32
-7.484674
 13
-14.656901
 23
9.512958
 33
-7.673557
 62
0
  0
3DFACE
  8
Sphere001
 10
-14.512209
 20
9.460877
 30
-6.840307
 11
-15.023275
 21
9.460877
 31
-6.651424
 12
-15.150516
 22
9.512958
 32
-7.384172
 13
-14.878583
 23
9.512958
 33
-7.484674
 62
0
  0
3DFACE
  8
Sphere001
 10
-15.023275
 20
9.460877
 30
-6.651424
 11
-15.567141
 21
9.460877
 31
-6.651424
 12
-15.439900
 22
9.512958
 32
-7.384172
 13
-15.150516
 23
9.512958
 33
-7.384172
 62
0
  0
3DFACE
  8
Sphere001
 10
-15.567141
 20
9.460877
 30
-6.651424
 11
-16.078207
 21
9.460877
 31
-6.840307
 12
-15.711833
 22
9.512958
 32
-7.484674
 13
-15.439900
 23
9.512958
 33
-7.384172
 62
0
  0
3DFACE
  8
Sphere001
 10
-16.078207
 20
9.460877
 30
-6.840307
 11
-16.494833
 21
9.460877
 31
-7.195290
 12
-15.933515
 22
9.512958
 32
-7.673557
 13
-15.711833
 23
9.512958
 33
-7.484674
 62
0
  0
3DFACE
  8
Sphere001
 10
-16.494833
 20
9.460877
 30
-7.195290
 11
-16.766766
 21
9.460877
 31
-7.673557
 12
-16.078207
 22
9.512958
 32
-7.928038
 13
-15.933515
 23
9.512958
 33
-7.673557
 62
0
  0
3DFACE
  8
Sphere001
 10
-16.766766
 20
9.460877
 30
-7.673557
 11
-16.861206
 21
9.460877
 31
-8.217422
 12
-16.128458
 22
9.512958
 32
-8.217422
 13
-16.078207
 23
9.512958
 33
-7.928038
 62
0
  0
3DFACE
  8
Sphere001
 10
-17.405071
 20
9.381089
 30
-8.217422
 11
-17.277832
 21
9.381089
 31
-8.950171
 12
-16.766766
 22
9.460877
 32
-8.761288
 13
-16.861206
 23
9.460877
 33
-8.217422
 62
0
  0
3DFACE
  8
Sphere001
 10
-17.277832
 20
9.381089
 30
-8.950171
 11
-16.911457
 21
9.381089
 31
-9.594538
 12
-16.494833
 22
9.460877
 32
-9.239555
 13
-16.766766
 23
9.460877
 33
-8.761288
 62
0
  0
3DFACE
  8
Sphere001
 10
-16.911457
 20
9.381089
 30
-9.594538
 11
-16.350140
 21
9.381089
 31
-10.072805
 12
-16.078207
 22
9.460877
 32
-9.594538
 13
-16.494833
 23
9.460877
 33
-9.239555
 62
0
  0
3DFACE
  8
Sphere001
 10
-16.350140
 20
9.381089
 30
-10.072805
 11
-15.661582
 21
9.381089
 31
-10.327286
 12
-15.567141
 22
9.460877
 32
-9.783421
 13
-16.078207
 23
9.460877
 33
-9.594538
 62
0
  0
3DFACE
  8
Sphere001
 10
-15.661582
 20
9.381089
 30
-10.327286
 11
-14.928834
 21
9.381089
 31
-10.327286
 12
-15.023275
 22
9.460877
 32
-9.783421
 13
-15.567141
 23
9.460877
 33
-9.783421
 62
0
  0
3DFACE
  8
Sphere001
 10
-14.928834
 20
9.381089
 30
-10.327286
 11
-14.240275
 21
9.381089
 31
-10.072805
 12
-14.512209
 22
9.460877
 32
-9.594538
 13
-15.023275
 23
9.460877
 33
-9.783421
 62
0
  0
3DFACE
  8
Sphere001
 10
-14.240275
 20
9.381089
 30
-10.072805
 11
-13.678958
 21
9.381089
 31
-9.594538
 12
-14.095584
 22
9.460877
 32
-9.239555
 13
-14.512209
 23
9.460877
 33
-9.594538
 62
0
  0
3DFACE
  8
Sphere001
 10
-13.678958
 20
9.381089
 30
-9.594538
 11
-13.312584
 21
9.381089
 31
-8.950171
 12
-13.823650
 22
9.460877
 32
-8.761288
 13
-14.095584
 23
9.460877
 33
-9.239555
 62
0
  0
3DFACE
  8
Sphere001
 10
-13.312584
 20
9.381089
 30
-8.950171
 11
-13.185344
 21
9.381089
 31
-8.217422
 12
-13.729210
 22
9.460877
 32
-8.217422
 13
-13.823650
 23
9.460877
 33
-8.761288
 62
0
  0
3DFACE
  8
Sphere001
 10
-13.185344
 20
9.381089
 30
-8.217422
 11
-13.312584
 21
9.381089
 31
-7.484674
 12
-13.823650
 22
9.460877
 32
-7.673557
 13
-13.729210
 23
9.460877
 33
-8.217422
 62
0
  0
3DFACE
  8
Sphere001
 10
-13.312584
 20
9.381089
 30
-7.484674
 11
-13.678958
 21
9.381089
 31
-6.840307
 12
-14.095584
 22
9.460877
 32
-7.195290
 13
-13.823650
 23
9.460877
 33
-7.673557
 62
0
  0
3DFACE
  8
Sphere001
 10
-13.678958
 20
9.381089
 30
-6.840307
 11
-14.240275
 21
9.381089
 31
-6.362040
 12
-14.512209
 22
9.460877
 32
-6.840307
 13
-14.095584
 23
9.460877
 33
-7.195290
 62
0
  0
3DFACE
  8
Sphere001
 10
-14.240275
 20
9.381089
 30
-6.362040
 11
-14.928834
 21
9.381089
 31
-6.107559
 12
-15.023275
 22
9.460877
 32
-6.651424
 13
-14.512209
 23
9.460877
 33
-6.840307
 62
0
  0
3DFACE
  8
Sphere001
 10
-14.928834
 20
9.381089
 30
-6.107559
 11
-15.661582
 21
9.381089
 31
-6.107559
 12
-15.567141
 22
9.460877
 32
-6.651424
 13
-15.023275
 23
9.460877
 33
-6.651424
 62
0
  0
3DFACE
  8
Sphere001
 10
-15.661582
 20
9.381089
 30
-6.107559
 11
-16.350140
 21
9.381089
 31
-6.362040
 12
-16.078207
 22
9.460877
 32
-6.840307
 13
-15.567141
 23
9.460877
 33
-6.651424
 62
0
  0
3DFACE
  8
Sphere001
 10
-16.350140
 20
9.381089
 30
-6.362040
 11
-16.911457
 21
9.381089
 31
-6.840307
 12
-16.494833
 22
9.460877
 32
-7.195290
 13
-16.078207
 23
9.460877
 33
-6.840307
 62
0
  0
3DFACE
  8
Sphere001
 10
-16.911457
 20
9.381089
 30
-6.840307
 11
-17.277832
 21
9.381089
 31
-7.484674
 12
-16.766766
 22
9.460877
 32
-7.673557
 13
-16.494833
 23
9.460877
 33
-7.195290
 62
0
  0
3DFACE
  8
Sphere001
 10
-17.277832
 20
9.381089
 30
-7.484674
 11
-17.405071
 21
9.381089
 31
-8.217422
 12
-16.861206
 22
9.460877
 32
-8.217422
 13
-16.766766
 23
9.460877
 33
-7.673557
 62
0
  0
3DFACE
  8
Sphere001
 10
-17.694456
 20
9.283214
 30
-8.217422
 11
-17.549765
 21
9.283214
 31
-9.050673
 12
-17.277832
 22
9.381089
 32
-8.950171
 13
-17.405071
 23
9.381089
 33
-8.217422
 62
0
  0
3DFACE
  8
Sphere001
 10
-17.549765
 20
9.283214
 30
-9.050673
 11
-17.133139
 21
9.283214
 31
-9.783421
 12
-16.911457
 22
9.381089
 32
-9.594538
 13
-17.277832
 23
9.381089
 33
-8.950171
 62
0
  0
3DFACE
  8
Sphere001
 10
-17.133139
 20
9.283214
 30
-9.783421
 11
-16.494833
 21
9.283214
 31
-10.327286
 12
-16.350140
 22
9.381089
 32
-10.072805
 13
-16.911457
 23
9.381089
 33
-9.594538
 62
0
  0
3DFACE
  8
Sphere001
 10
-16.494833
 20
9.283214
 30
-10.327286
 11
-15.711833
 21
9.283214
 31
-10.616671
 12
-15.661582
 22
9.381089
 32
-10.327286
 13
-16.350140
 23
9.381089
 33
-10.072805
 62
0
  0
3DFACE
  8
Sphere001
 10
-15.711833
 20
9.283214
 30
-10.616671
 11
-14.878583
 21
9.283214
 31
-10.616671
 12
-14.928834
 22
9.381089
 32
-10.327286
 13
-15.661582
 23
9.381089
 33
-10.327286
 62
0
  0
3DFACE
  8
Sphere001
 10
-14.878583
 20
9.283214
 30
-10.616671
 11
-14.095584
 21
9.283214
 31
-10.327286
 12
-14.240275
 22
9.381089
 32
-10.072805
 13
-14.928834
 23
9.381089
 33
-10.327286
 62
0
  0
3DFACE
  8
Sphere001
 10
-14.095584
 20
9.283214
 30
-10.327286
 11
-13.457276
 21
9.283214
 31
-9.783421
 12
-13.678958
 22
9.381089
 32
-9.594538
 13
-14.240275
 23
9.381089
 33
-10.072805
 62
0
  0
3DFACE
  8
Sphere001
 10
-13.457276
 20
9.283214
 30
-9.783421
 11
-13.040651
 21
9.283214
 31
-9.050673
 12
-13.312584
 22
9.381089
 32
-8.950171
 13
-13.678958
 23
9.381089
 33
-9.594538
 62
0
  0
3DFACE
  8
Sphere001
 10
-13.040651
 20
9.283214
 30
-9.050673
 11
-12.895959
 21
9.283214
 31
-8.217422
 12
-13.185344
 22
9.381089
 32
-8.217422
 13
-13.312584
 23
9.381089
 33
-8.950171
 62
0
  0
3DFACE
  8
Sphere001
 10
-12.895959
 20
9.283214
 30
-8.217422
 11
-13.040651
 21
9.283214
 31
-7.384172
 12
-13.312584
 22
9.381089
 32
-7.484674
 13
-13.185344
 23
9.381089
 33
-8.217422
 62
0
  0
3DFACE
  8
Sphere001
 10
-13.040651
 20
9.283214
 30
-7.384172
 11
-13.457276
 21
9.283214
 31
-6.651424
 12
-13.678958
 22
9.381089
 32
-6.840307
 13
-13.312584
 23
9.381089
 33
-7.484674
 62
0
  0
3DFACE
  8
Sphere001
 10
-13.457276
 20
9.283214
 30
-6.651424
 11
-14.095584
 21
9.283214
 31
-6.107559
 12
-14.240275
 22
9.381089
 32
-6.362040
 13
-13.678958
 23
9.381089
 33
-6.840307
 62
0
  0
3DFACE
  8
Sphere001
 10
-14.095584
 20
9.283214
 30
-6.107559
 11
-14.878583
 21
9.283214
 31
-5.818174
 12
-14.928834
 22
9.381089
 32
-6.107559
 13
-14.240275
 23
9.381089
 33
-6.362040
 62
0
  0
3DFACE
  8
Sphere001
 10
-14.878583
 20
9.283214
 30
-5.818174
 11
-15.711833
 21
9.283214
 31
-5.818174
 12
-15.661582
 22
9.381089
 32
-6.107559
 13
-14.928834
 23
9.381089
 33
-6.107559
 62
0
  0
3DFACE
  8
Sphere001
 10
-15.711833
 20
9.283214
 30
-5.818174
 11
-16.494833
 21
9.283214
 31
-6.107559
 12
-16.350140
 22
9.381089
 32
-6.362040
 13
-15.661582
 23
9.381089
 33
-6.107559
 62
0
  0
3DFACE
  8
Sphere001
 10
-16.494833
 20
9.283214
 30
-6.107559
 11
-17.133139
 21
9.283214
 31
-6.651424
 12
-16.911457
 22
9.381089
 32
-6.840307
 13
-16.350140
 23
9.381089
 33
-6.362040
 62
0
  0
3DFACE
  8
Sphere001
 10
-17.133139
 20
9.283214
 30
-6.651424
 11
-17.549765
 21
9.283214
 31
-7.384172
 12
-17.277832
 22
9.381089
 32
-7.484674
 13
-16.911457
 23
9.381089
 33
-6.840307
 62
0
  0
3DFACE
  8
Sphere001
 10
-17.549765
 20
9.283214
 30
-7.384172
 11
-17.694456
 21
9.283214
 31
-8.217422
 12
-17.405071
 22
9.381089
 32
-8.217422
 13
-17.277832
 23
9.381089
 33
-7.484674
 62
0
  0
3DFACE
  8
Sphere001
 10
-17.694456
 20
9.179059
 30
-8.217422
 11
-17.549765
 21
9.179059
 31
-9.050673
 12
-17.549765
 22
9.283214
 32
-9.050673
 13
-17.694456
 23
9.283214
 33
-8.217422
 62
0
  0
3DFACE
  8
Sphere001
 10
-17.549765
 20
9.179059
 30
-9.050673
 11
-17.133139
 21
9.179059
 31
-9.783421
 12
-17.133139
 22
9.283214
 32
-9.783421
 13
-17.549765
 23
9.283214
 33
-9.050673
 62
0
  0
3DFACE
  8
Sphere001
 10
-17.133139
 20
9.179059
 30
-9.783421
 11
-16.494833
 21
9.179059
 31
-10.327286
 12
-16.494833
 22
9.283214
 32
-10.327286
 13
-17.133139
 23
9.283214
 33
-9.783421
 62
0
  0
3DFACE
  8
Sphere001
 10
-16.494833
 20
9.179059
 30
-10.327286
 11
-15.711833
 21
9.179059
 31
-10.616671
 12
-15.711833
 22
9.283214
 32
-10.616671
 13
-16.494833
 23
9.283214
 33
-10.327286
 62
0
  0
3DFACE
  8
Sphere001
 10
-15.711833
 20
9.179059
 30
-10.616671
 11
-14.878583
 21
9.179059
 31
-10.616671
 12
-14.878583
 22
9.283214
 32
-10.616671
 13
-15.711833
 23
9.283214
 33
-10.616671
 62
0
  0
3DFACE
  8
Sphere001
 10
-14.878583
 20
9.179059
 30
-10.616671
 11
-14.095584
 21
9.179059
 31
-10.327286
 12
-14.095584
 22
9.283214
 32
-10.327286
 13
-14.878583
 23
9.283214
 33
-10.616671
 62
0
  0
3DFACE
  8
Sphere001
 10
-14.095584
 20
9.179059
 30
-10.327286
 11
-13.457276
 21
9.179059
 31
-9.783421
 12
-13.457276
 22
9.283214
 32
-9.783421
 13
-14.095584
 23
9.283214
 33
-10.327286
 62
0
  0
3DFACE
  8
Sphere001
 10
-13.457276
 20
9.179059
 30
-9.783421
 11
-13.040651
 21
9.179059
 31
-9.050673
 12
-13.040651
 22
9.283214
 32
-9.050673
 13
-13.457276
 23
9.283214
 33
-9.783421
 62
0
  0
3DFACE
  8
Sphere001
 10
-13.040651
 20
9.179059
 30
-9.050673
 11
-12.895959
 21
9.179059
 31
-8.217422
 12
-12.895959
 22
9.283214
 32
-8.217422
 13
-13.040651
 23
9.283214
 33
-9.050673
 62
0
  0
3DFACE
  8
Sphere001
 10
-12.895959
 20
9.179059
 30
-8.217422
 11
-13.040651
 21
9.179059
 31
-7.384172
 12
-13.040651
 22
9.283214
 32
-7.384172
 13
-12.895959
 23
9.283214
 33
-8.217422
 62
0
  0
3DFACE
  8
Sphere001
 10
-13.040651
 20
9.179059
 30
-7.384172
 11
-13.457276
 21
9.179059
 31
-6.651424
 12
-13.457276
 22
9.283214
 32
-6.651424
 13
-13.040651
 23
9.283214
 33
-7.384172
 62
0
  0
3DFACE
  8
Sphere001
 10
-13.457276
 20
9.179059
 30
-6.651424
 11
-14.095584
 21
9.179059
 31
-6.107559
 12
-14.095584
 22
9.283214
 32
-6.107559
 13
-13.457276
 23
9.283214
 33
-6.651424
 62
0
  0
3DFACE
  8
Sphere001
 10
-14.095584
 20
9.179059
 30
-6.107559
 11
-14.878583
 21
9.179059
 31
-5.818174
 12
-14.878583
 22
9.283214
 32
-5.818174
 13
-14.095584
 23
9.283214
 33
-6.107559
 62
0
  0
3DFACE
  8
Sphere001
 10
-14.878583
 20
9.179059
 30
-5.818174
 11
-15.711833
 21
9.179059
 31
-5.818174
 12
-15.711833
 22
9.283214
 32
-5.818174
 13
-14.878583
 23
9.283214
 33
-5.818174
 62
0
  0
3DFACE
  8
Sphere001
 10
-15.711833
 20
9.179059
 30
-5.818174
 11
-16.494833
 21
9.179059
 31
-6.107559
 12
-16.494833
 22
9.283214
 32
-6.107559
 13
-15.711833
 23
9.283214
 33
-5.818174
 62
0
  0
3DFACE
  8
Sphere001
 10
-16.494833
 20
9.179059
 30
-6.107559
 11
-17.133139
 21
9.179059
 31
-6.651424
 12
-17.133139
 22
9.283214
 32
-6.651424
 13
-16.494833
 23
9.283214
 33
-6.107559
 62
0
  0
3DFACE
  8
Sphere001
 10
-17.133139
 20
9.179059
 30
-6.651424
 11
-17.549765
 21
9.179059
 31
-7.384172
 12
-17.549765
 22
9.283214
 32
-7.384172
 13
-17.133139
 23
9.283214
 33
-6.651424
 62
0
  0
3DFACE
  8
Sphere001
 10
-17.549765
 20
9.179059
 30
-7.384172
 11
-17.694456
 21
9.179059
 31
-8.217422
 12
-17.694456
 22
9.283214
 32
-8.217422
 13
-17.549765
 23
9.283214
 33
-7.384172
 62
0
  0
3DFACE
  8
Sphere001
 10
-17.405071
 20
9.081183
 30
-8.217422
 11
-17.277832
 21
9.081183
 31
-8.950171
 12
-17.549765
 22
9.179059
 32
-9.050673
 13
-17.694456
 23
9.179059
 33
-8.217422
 62
0
  0
3DFACE
  8
Sphere001
 10
-17.277832
 20
9.081183
 30
-8.950171
 11
-16.911457
 21
9.081183
 31
-9.594538
 12
-17.133139
 22
9.179059
 32
-9.783421
 13
-17.549765
 23
9.179059
 33
-9.050673
 62
0
  0
3DFACE
  8
Sphere001
 10
-16.911457
 20
9.081183
 30
-9.594538
 11
-16.350140
 21
9.081183
 31
-10.072805
 12
-16.494833
 22
9.179059
 32
-10.327286
 13
-17.133139
 23
9.179059
 33
-9.783421
 62
0
  0
3DFACE
  8
Sphere001
 10
-16.350140
 20
9.081183
 30
-10.072805
 11
-15.661582
 21
9.081183
 31
-10.327286
 12
-15.711833
 22
9.179059
 32
-10.616671
 13
-16.494833
 23
9.179059
 33
-10.327286
 62
0
  0
3DFACE
  8
Sphere001
 10
-15.661582
 20
9.081183
 30
-10.327286
 11
-14.928834
 21
9.081183
 31
-10.327286
 12
-14.878583
 22
9.179059
 32
-10.616671
 13
-15.711833
 23
9.179059
 33
-10.616671
 62
0
  0
3DFACE
  8
Sphere001
 10
-14.928834
 20
9.081183
 30
-10.327286
 11
-14.240276
 21
9.081183
 31
-10.072805
 12
-14.095584
 22
9.179059
 32
-10.327286
 13
-14.878583
 23
9.179059
 33
-10.616671
 62
0
  0
3DFACE
  8
Sphere001
 10
-14.240276
 20
9.081183
 30
-10.072805
 11
-13.678958
 21
9.081183
 31
-9.594538
 12
-13.457276
 22
9.179059
 32
-9.783421
 13
-14.095584
 23
9.179059
 33
-10.327286
 62
0
  0
3DFACE
  8
Sphere001
 10
-13.678958
 20
9.081183
 30
-9.594538
 11
-13.312584
 21
9.081183
 31
-8.950171
 12
-13.040651
 22
9.179059
 32
-9.050673
 13
-13.457276
 23
9.179059
 33
-9.783421
 62
0
  0
3DFACE
  8
Sphere001
 10
-13.312584
 20
9.081183
 30
-8.950171
 11
-13.185344
 21
9.081183
 31
-8.217422
 12
-12.895959
 22
9.179059
 32
-8.217422
 13
-13.040651
 23
9.179059
 33
-9.050673
 62
0
  0
3DFACE
  8
Sphere001
 10
-13.185344
 20
9.081183
 30
-8.217422
 11
-13.312584
 21
9.081183
 31
-7.484674
 12
-13.040651
 22
9.179059
 32
-7.384172
 13
-12.895959
 23
9.179059
 33
-8.217422
 62
0
  0
3DFACE
  8
Sphere001
 10
-13.312584
 20
9.081183
 30
-7.484674
 11
-13.678958
 21
9.081183
 31
-6.840307
 12
-13.457276
 22
9.179059
 32
-6.651424
 13
-13.040651
 23
9.179059
 33
-7.384172
 62
0
  0
3DFACE
  8
Sphere001
 10
-13.678958
 20
9.081183
 30
-6.840307
 11
-14.240276
 21
9.081183
 31
-6.362040
 12
-14.095584
 22
9.179059
 32
-6.107559
 13
-13.457276
 23
9.179059
 33
-6.651424
 62
0
  0
3DFACE
  8
Sphere001
 10
-14.240276
 20
9.081183
 30
-6.362040
 11
-14.928834
 21
9.081183
 31
-6.107559
 12
-14.878583
 22
9.179059
 32
-5.818174
 13
-14.095584
 23
9.179059
 33
-6.107559
 62
0
  0
3DFACE
  8
Sphere001
 10
-14.928834
 20
9.081183
 30
-6.107559
 11
-15.661582
 21
9.081183
 31
-6.107559
 12
-15.711833
 22
9.179059
 32
-5.818174
 13
-14.878583
 23
9.179059
 33
-5.818174
 62
0
  0
3DFACE
  8
Sphere001
 10
-15.661582
 20
9.081183
 30
-6.107559
 11
-16.350140
 21
9.081183
 31
-6.362040
 12
-16.494833
 22
9.179059
 32
-6.107559
 13
-15.711833
 23
9.179059
 33
-5.818174
 62
0
  0
3DFACE
  8
Sphere001
 10
-16.350140
 20
9.081183
 30
-6.362040
 11
-16.911457
 21
9.081183
 31
-6.840307
 12
-17.133139
 22
9.179059
 32
-6.651424
 13
-16.494833
 23
9.179059
 33
-6.107559
 62
0
  0
3DFACE
  8
Sphere001
 10
-16.911457
 20
9.081183
 30
-6.840307
 11
-17.277832
 21
9.081183
 31
-7.484674
 12
-17.549765
 22
9.179059
 32
-7.384172
 13
-17.133139
 23
9.179059
 33
-6.651424
 62
0
  0
3DFACE
  8
Sphere001
 10
-17.277832
 20
9.081183
 30
-7.484674
 11
-17.405071
 21
9.081183
 31
-8.217422
 12
-17.694456
 22
9.179059
 32
-8.217422
 13
-17.549765
 23
9.179059
 33
-7.384172
 62
0
  0
3DFACE
  8
Sphere001
 10
-16.861206
 20
9.001395
 30
-8.217422
 11
-16.766766
 21
9.001395
 31
-8.761288
 12
-17.277832
 22
9.081183
 32
-8.950171
 13
-17.405071
 23
9.081183
 33
-8.217422
 62
0
  0
3DFACE
  8
Sphere001
 10
-16.766766
 20
9.001395
 30
-8.761288
 11
-16.494833
 21
9.001395
 31
-9.239555
 12
-16.911457
 22
9.081183
 32
-9.594538
 13
-17.277832
 23
9.081183
 33
-8.950171
 62
0
  0
3DFACE
  8
Sphere001
 10
-16.494833
 20
9.001395
 30
-9.239555
 11
-16.078207
 21
9.001395
 31
-9.594538
 12
-16.350140
 22
9.081183
 32
-10.072805
 13
-16.911457
 23
9.081183
 33
-9.594538
 62
0
  0
3DFACE
  8
Sphere001
 10
-16.078207
 20
9.001395
 30
-9.594538
 11
-15.567141
 21
9.001395
 31
-9.783421
 12
-15.661582
 22
9.081183
 32
-10.327286
 13
-16.350140
 23
9.081183
 33
-10.072805
 62
0
  0
3DFACE
  8
Sphere001
 10
-15.567141
 20
9.001395
 30
-9.783421
 11
-15.023275
 21
9.001395
 31
-9.783421
 12
-14.928834
 22
9.081183
 32
-10.327286
 13
-15.661582
 23
9.081183
 33
-10.327286
 62
0
  0
3DFACE
  8
Sphere001
 10
-15.023275
 20
9.001395
 30
-9.783421
 11
-14.512209
 21
9.001395
 31
-9.594538
 12
-14.240276
 22
9.081183
 32
-10.072805
 13
-14.928834
 23
9.081183
 33
-10.327286
 62
0
  0
3DFACE
  8
Sphere001
 10
-14.512209
 20
9.001395
 30
-9.594538
 11
-14.095583
 21
9.001395
 31
-9.239555
 12
-13.678958
 22
9.081183
 32
-9.594538
 13
-14.240276
 23
9.081183
 33
-10.072805
 62
0
  0
3DFACE
  8
Sphere001
 10
-14.095583
 20
9.001395
 30
-9.239555
 11
-13.823650
 21
9.001395
 31
-8.761288
 12
-13.312584
 22
9.081183
 32
-8.950171
 13
-13.678958
 23
9.081183
 33
-9.594538
 62
0
  0
3DFACE
  8
Sphere001
 10
-13.823650
 20
9.001395
 30
-8.761288
 11
-13.729209
 21
9.001395
 31
-8.217422
 12
-13.185344
 22
9.081183
 32
-8.217422
 13
-13.312584
 23
9.081183
 33
-8.950171
 62
0
  0
3DFACE
  8
Sphere001
 10
-13.729209
 20
9.001395
 30
-8.217422
 11
-13.823650
 21
9.001395
 31
-7.673557
 12
-13.312584
 22
9.081183
 32
-7.484674
 13
-13.185344
 23
9.081183
 33
-8.217422
 62
0
  0
3DFACE
  8
Sphere001
 10
-13.823650
 20
9.001395
 30
-7.673557
 11
-14.095583
 21
9.001395
 31
-7.195290
 12
-13.678958
 22
9.081183
 32
-6.840307
 13
-13.312584
 23
9.081183
 33
-7.484674
 62
0
  0
3DFACE
  8
Sphere001
 10
-14.095583
 20
9.001395
 30
-7.195290
 11
-14.512209
 21
9.001395
 31
-6.840307
 12
-14.240276
 22
9.081183
 32
-6.362040
 13
-13.678958
 23
9.081183
 33
-6.840307
 62
0
  0
3DFACE
  8
Sphere001
 10
-14.512209
 20
9.001395
 30
-6.840307
 11
-15.023275
 21
9.001395
 31
-6.651424
 12
-14.928834
 22
9.081183
 32
-6.107559
 13
-14.240276
 23
9.081183
 33
-6.362040
 62
0
  0
3DFACE
  8
Sphere001
 10
-15.023275
 20
9.001395
 30
-6.651424
 11
-15.567141
 21
9.001395
 31
-6.651424
 12
-15.661582
 22
9.081183
 32
-6.107559
 13
-14.928834
 23
9.081183
 33
-6.107559
 62
0
  0
3DFACE
  8
Sphere001
 10
-15.567141
 20
9.001395
 30
-6.651424
 11
-16.078207
 21
9.001395
 31
-6.840307
 12
-16.350140
 22
9.081183
 32
-6.362040
 13
-15.661582
 23
9.081183
 33
-6.107559
 62
0
  0
3DFACE
  8
Sphere001
 10
-16.078207
 20
9.001395
 30
-6.840307
 11
-16.494833
 21
9.001395
 31
-7.195290
 12
-16.911457
 22
9.081183
 32
-6.840307
 13
-16.350140
 23
9.081183
 33
-6.362040
 62
0
  0
3DFACE
  8
Sphere001
 10
-16.494833
 20
9.001395
 30
-7.195290
 11
-16.766766
 21
9.001395
 31
-7.673557
 12
-17.277832
 22
9.081183
 32
-7.484674
 13
-16.911457
 23
9.081183
 33
-6.840307
 62
0
  0
3DFACE
  8
Sphere001
 10
-16.766766
 20
9.001395
 30
-7.673557
 11
-16.861206
 21
9.001395
 31
-8.217422
 12
-17.405071
 22
9.081183
 32
-8.217422
 13
-17.277832
 23
9.081183
 33
-7.484674
 62
0
  0
3DFACE
  8
Sphere001
 10
-16.128458
 20
8.949315
 30
-8.217422
 11
-16.078207
 21
8.949315
 31
-8.506807
 12
-16.766766
 22
9.001395
 32
-8.761288
 13
-16.861206
 23
9.001395
 33
-8.217422
 62
0
  0
3DFACE
  8
Sphere001
 10
-16.078207
 20
8.949315
 30
-8.506807
 11
-15.933515
 21
8.949315
 31
-8.761288
 12
-16.494833
 22
9.001395
 32
-9.239555
 13
-16.766766
 23
9.001395
 33
-8.761288
 62
0
  0
3DFACE
  8
Sphere001
 10
-15.933515
 20
8.949315
 30
-8.761288
 11
-15.711833
 21
8.949315
 31
-8.950171
 12
-16.078207
 22
9.001395
 32
-9.594538
 13
-16.494833
 23
9.001395
 33
-9.239555
 62
0
  0
3DFACE
  8
Sphere001
 10
-15.711833
 20
8.949315
 30
-8.950171
 11
-15.439900
 21
8.949315
 31
-9.050673
 12
-15.567141
 22
9.001395
 32
-9.783421
 13
-16.078207
 23
9.001395
 33
-9.594538
 62
0
  0
3DFACE
  8
Sphere001
 10
-15.439900
 20
8.949315
 30
-9.050673
 11
-15.150516
 21
8.949315
 31
-9.050673
 12
-15.023275
 22
9.001395
 32
-9.783421
 13
-15.567141
 23
9.001395
 33
-9.783421
 62
0
  0
3DFACE
  8
Sphere001
 10
-15.150516
 20
8.949315
 30
-9.050673
 11
-14.878583
 21
8.949315
 31
-8.950171
 12
-14.512209
 22
9.001395
 32
-9.594538
 13
-15.023275
 23
9.001395
 33
-9.783421
 62
0
  0
3DFACE
  8
Sphere001
 10
-14.878583
 20
8.949315
 30
-8.950171
 11
-14.656901
 21
8.949315
 31
-8.761288
 12
-14.095583
 22
9.001395
 32
-9.239555
 13
-14.512209
 23
9.001395
 33
-9.594538
 62
0
  0
3DFACE
  8
Sphere001
 10
-14.656901
 20
8.949315
 30
-8.761288
 11
-14.512209
 21
8.949315
 31
-8.506807
 12
-13.823650
 22
9.001395
 32
-8.761288
 13
-14.095583
 23
9.001395
 33
-9.239555
 62
0
  0
3DFACE
  8
Sphere001
 10
-14.512209
 20
8.949315
 30
-8.506807
 11
-14.461957
 21
8.949315
 31
-8.217422
 12
-13.729209
 22
9.001395
 32
-8.217422
 13
-13.823650
 23
9.001395
 33
-8.761288
 62
0
  0
3DFACE
  8
Sphere001
 10
-14.461957
 20
8.949315
 30
-8.217422
 11
-14.512209
 21
8.949315
 31
-7.928038
 12
-13.823650
 22
9.001395
 32
-7.673557
 13
-13.729209
 23
9.001395
 33
-8.217422
 62
0
  0
3DFACE
  8
Sphere001
 10
-14.512209
 20
8.949315
 30
-7.928038
 11
-14.656901
 21
8.949315
 31
-7.673557
 12
-14.095583
 22
9.001395
 32
-7.195290
 13
-13.823650
 23
9.001395
 33
-7.673557
 62
0
  0
3DFACE
  8
Sphere001
 10
-14.656901
 20
8.949315
 30
-7.673557
 11
-14.878583
 21
8.949315
 31
-7.484674
 12
-14.512209
 22
9.001395
 32
-6.840307
 13
-14.095583
 23
9.001395
 33
-7.195290
 62
0
  0
3DFACE
  8
Sphere001
 10
-14.878583
 20
8.949315
 30
-7.484674
 11
-15.150516
 21
8.949315
 31
-7.384172
 12
-15.023275
 22
9.001395
 32
-6.651424
 13
-14.512209
 23
9.001395
 33
-6.840307
 62
0
  0
3DFACE
  8
Sphere001
 10
-15.150516
 20
8.949315
 30
-7.384172
 11
-15.439900
 21
8.949315
 31
-7.384172
 12
-15.567141
 22
9.001395
 32
-6.651424
 13
-15.023275
 23
9.001395
 33
-6.651424
 62
0
  0
3DFACE
  8
Sphere001
 10
-15.439900
 20
8.949315
 30
-7.384172
 11
-15.711833
 21
8.949315
 31
-7.484674
 12
-16.078207
 22
9.001395
 32
-6.840307
 13
-15.567141
 23
9.001395
 33
-6.651424
 62
0
  0
3DFACE
  8
Sphere001
 10
-15.711833
 20
8.949315
 30
-7.484674
 11
-15.933515
 21
8.949315
 31
-7.673557
 12
-16.494833
 22
9.001395
 32
-7.195290
 13
-16.078207
 23
9.001395
 33
-6.840307
 62
0
  0
3DFACE
  8
Sphere001
 10
-15.933515
 20
8.949315
 30
-7.673557
 11
-16.078207
 21
8.949315
 31
-7.928038
 12
-16.766766
 22
9.001395
 32
-7.673557
 13
-16.494833
 23
9.001395
 33
-7.195290
 62
0
  0
3DFACE
  8
Sphere001
 10
-16.078207
 20
8.949315
 30
-7.928038
 11
-16.128458
 21
8.949315
 31
-8.217422
 12
-16.861206
 22
9.001395
 32
-8.217422
 13
-16.766766
 23
9.001395
 33
-7.673557
 62
0
  0
3DFACE
  8
Sphere001
 10
-15.295208
 20
8.931231
 30
-8.217422
 11
-16.078207
 21
8.949315
 31
-8.506807
 12
-16.128458
 22
8.949315
 32
-8.217422
 13
-16.128458
 23
8.949315
 33
-8.217422
 62
0
  0
3DFACE
  8
Sphere001
 10
-15.295208
 20
8.931231
 30
-8.217422
 11
-15.933515
 21
8.949315
 31
-8.761288
 12
-16.078207
 22
8.949315
 32
-8.506807
 13
-16.078207
 23
8.949315
 33
-8.506807
 62
0
  0
3DFACE
  8
Sphere001
 10
-15.295208
 20
8.931231
 30
-8.217422
 11
-15.711833
 21
8.949315
 31
-8.950171
 12
-15.933515
 22
8.949315
 32
-8.761288
 13
-15.933515
 23
8.949315
 33
-8.761288
 62
0
  0
3DFACE
  8
Sphere001
 10
-15.295208
 20
8.931231
 30
-8.217422
 11
-15.439900
 21
8.949315
 31
-9.050673
 12
-15.711833
 22
8.949315
 32
-8.950171
 13
-15.711833
 23
8.949315
 33
-8.950171
 62
0
  0
3DFACE
  8
Sphere001
 10
-15.295208
 20
8.931231
 30
-8.217422
 11
-15.150516
 21
8.949315
 31
-9.050673
 12
-15.439900
 22
8.949315
 32
-9.050673
 13
-15.439900
 23
8.949315
 33
-9.050673
 62
0
  0
3DFACE
  8
Sphere001
 10
-15.295208
 20
8.931231
 30
-8.217422
 11
-14.878583
 21
8.949315
 31
-8.950171
 12
-15.150516
 22
8.949315
 32
-9.050673
 13
-15.150516
 23
8.949315
 33
-9.050673
 62
0
  0
3DFACE
  8
Sphere001
 10
-15.295208
 20
8.931231
 30
-8.217422
 11
-14.656901
 21
8.949315
 31
-8.761288
 12
-14.878583
 22
8.949315
 32
-8.950171
 13
-14.878583
 23
8.949315
 33
-8.950171
 62
0
  0
3DFACE
  8
Sphere001
 10
-15.295208
 20
8.931231
 30
-8.217422
 11
-14.512209
 21
8.949315
 31
-8.506807
 12
-14.656901
 22
8.949315
 32
-8.761288
 13
-14.656901
 23
8.949315
 33
-8.761288
 62
0
  0
3DFACE
  8
Sphere001
 10
-15.295208
 20
8.931231
 30
-8.217422
 11
-14.461957
 21
8.949315
 31
-8.217422
 12
-14.512209
 22
8.949315
 32
-8.506807
 13
-14.512209
 23
8.949315
 33
-8.506807
 62
0
  0
3DFACE
  8
Sphere001
 10
-15.295208
 20
8.931231
 30
-8.217422
 11
-14.512209
 21
8.949315
 31
-7.928038
 12
-14.461957
 22
8.949315
 32
-8.217422
 13
-14.461957
 23
8.949315
 33
-8.217422
 62
0
  0
3DFACE
  8
Sphere001
 10
-15.295208
 20
8.931231
 30
-8.217422
 11
-14.656901
 21
8.949315
 31
-7.673557
 12
-14.512209
 22
8.949315
 32
-7.928038
 13
-14.512209
 23
8.949315
 33
-7.928038
 62
0
  0
3DFACE
  8
Sphere001
 10
-15.295208
 20
8.931231
 30
-8.217422
 11
-14.878583
 21
8.949315
 31
-7.484674
 12
-14.656901
 22
8.949315
 32
-7.673557
 13
-14.656901
 23
8.949315
 33
-7.673557
 62
0
  0
3DFACE
  8
Sphere001
 10
-15.295208
 20
8.931231
 30
-8.217422
 11
-15.150516
 21
8.949315
 31
-7.384172
 12
-14.878583
 22
8.949315
 32
-7.484674
 13
-14.878583
 23
8.949315
 33
-7.484674
 62
0
  0
3DFACE
  8
Sphere001
 10
-15.295208
 20
8.931231
 30
-8.217422
 11
-15.439900
 21
8.949315
 31
-7.384172
 12
-15.150516
 22
8.949315
 32
-7.384172
 13
-15.150516
 23
8.949315
 33
-7.384172
 62
0
  0
3DFACE
  8
Sphere001
 10
-15.295208
 20
8.931231
 30
-8.217422
 11
-15.711833
 21
8.949315
 31
-7.484674
 12
-15.439900
 22
8.949315
 32
-7.384172
 13
-15.439900
 23
8.949315
 33
-7.384172
 62
0
  0
3DFACE
  8
Sphere001
 10
-15.295208
 20
8.931231
 30
-8.217422
 11
-15.933515
 21
8.949315
 31
-7.673557
 12
-15.711833
 22
8.949315
 32
-7.484674
 13
-15.711833
 23
8.949315
 33
-7.484674
 62
0
  0
3DFACE
  8
Sphere001
 10
-15.295208
 20
8.931231
 30
-8.217422
 11
-16.078207
 21
8.949315
 31
-7.928038
 12
-15.933515
 22
8.949315
 32
-7.673557
 13
-15.933515
 23
8.949315
 33
-7.673557
 62
0
  0
3DFACE
  8
Sphere001
 10
-15.295208
 20
8.931231
 30
-8.217422
 11
-16.128458
 21
8.949315
 31
-8.217422
 12
-16.078207
 22
8.949315
 32
-7.928038
 13
-16.078207
 23
8.949315
 33
-7.928038
 62
0
 0
ENDSEC
 0
EOF
