  0
SECTION
  2
HEADER
  0
ENDSEC
  0
SECTION
  2
TABLES
  0
TABLE
  2
LAYER
  70
    153
  0
LAYER
  2
Cube
 70
0
 62
15
  6
CONTINUOUS
  0
LAYER
  2
Cube4
 70
0
 62
15
  6
CONTINUOUS
  0
LAYER
  2
NoName6
 70
0
 62
15
  6
CONTINUOUS
  0
LAYER
  2
NoName8
 70
0
 62
15
  6
CONTINUOUS
  0
LAYER
  2
NoName9
 70
0
 62
15
  6
CONTINUOUS
  0
LAYER
  2
NoName14
 70
0
 62
15
  6
CONTINUOUS
  0
LAYER
  2
Cube3
 70
0
 62
15
  6
CONTINUOUS
  0
LAYER
  2
NoName6001
 70
0
 62
15
  6
CONTINUOUS
  0
LAYER
  2
Cylinder1
 70
0
 62
15
  6
CONTINUOUS
  0
LAYER
  2
Sphere
 70
0
 62
15
  6
CONTINUOUS
  0
LAYER
  2
Sphere1
 70
0
 62
15
  6
CONTINUOUS
  0
LAYER
  2
Cube3001
 70
0
 62
15
  6
CONTINUOUS
  0
LAYER
  2
NoName6002
 70
0
 62
15
  6
CONTINUOUS
  0
LAYER
  2
Cylinder1001
 70
0
 62
15
  6
CONTINUOUS
  0
LAYER
  2
Sphere001
 70
0
 62
15
  6
CONTINUOUS
  0
LAYER
  2
Sphere1001
 70
0
 62
15
  6
CONTINUOUS
  0
ENDTAB
  0
ENDSEC
  0
SECTION
  2
ENTITIES
  0
3DFACE
  8
Cube
 10
2.179743
 20
2.274358
 30
-0.951444
 11
-2.179753
 21
2.274358
 31
-0.951442
 12
-2.179741
 22
2.274362
 32
-0.187877
 13
2.179744
 23
2.274358
 33
-0.187877
 62
0
  0
3DFACE
  8
Cube
 10
-2.179745
 20
2.628511
 30
-0.951443
 11
-2.179753
 21
2.274358
 31
-0.951442
 12
2.179743
 22
2.274358
 32
-0.951444
 13
2.179744
 23
2.628511
 33
-0.951443
 62
0
  0
3DFACE
  8
Cube
 10
2.179744
 20
2.628511
 30
-0.951443
 11
2.179743
 21
2.274358
 31
-0.951444
 12
2.179744
 22
2.274358
 32
-0.187877
 13
2.179744
 23
3.128530
 33
-0.187857
 62
0
  0
3DFACE
  8
Cube
 10
2.179744
 20
3.128530
 30
-0.187857
 11
2.179744
 21
2.274358
 31
-0.187877
 12
-2.179741
 22
2.274362
 32
-0.187877
 13
-2.179745
 23
3.128530
 33
-0.187857
 62
0
  0
3DFACE
  8
Cube
 10
-2.179745
 20
2.628511
 30
-0.951443
 11
2.179744
 21
2.628511
 31
-0.951443
 12
2.179744
 22
3.128530
 32
-0.187857
 13
-2.179745
 23
3.128530
 33
-0.187857
 62
1
  0
3DFACE
  8
Cube
 10
-2.179753
 20
2.274358
 30
-0.951442
 11
-2.179745
 21
2.628511
 31
-0.951443
 12
-2.179745
 22
3.128530
 32
-0.187857
 13
-2.179741
 23
2.274362
 33
-0.187877
 62
0
  0
3DFACE
  8
Cube4
 10
1.879326
 20
0.801752
 30
-3.861504
 11
4.674941
 21
1.680641
 31
-0.046753
 12
2.337470
 22
3.363620
 32
-0.046753
 13
2.337470
 23
3.363620
 33
-0.046753
 62
0
  0
3DFACE
  8
Cube4
 10
-1.879326
 20
0.801752
 30
-3.861504
 11
-2.337470
 21
3.363620
 31
-0.046753
 12
-4.674941
 22
1.680641
 32
-0.046753
 13
-4.674941
 23
1.680641
 33
-0.046753
 62
1
  0
3DFACE
  8
Cube4
 10
1.879326
 20
0.801752
 30
-3.861504
 11
2.337470
 21
3.363620
 31
-0.046753
 12
2.244030
 22
3.302959
 32
-0.137079
 13
2.244030
 23
3.302959
 33
-0.137079
 62
0
  0
3DFACE
  8
Cube4
 10
1.379108
 20
2.721944
 30
-1.002241
 11
1.879326
 21
0.801752
 31
-3.861504
 12
2.244030
 22
3.302959
 32
-0.137079
 13
2.244030
 23
3.302959
 33
-0.137079
 62
0
  0
3DFACE
  8
Cube4
 10
-1.379108
 20
2.721941
 30
-1.002246
 11
1.879326
 21
0.801752
 31
-3.861504
 12
1.379108
 22
2.721944
 32
-1.002241
 13
1.379108
 23
2.721944
 33
-1.002241
 62
0
  0
3DFACE
  8
Cube4
 10
-1.879326
 20
0.801752
 30
-3.861504
 11
1.879326
 21
0.801752
 31
-3.861504
 12
-1.379108
 22
2.721941
 32
-1.002246
 13
-1.379108
 23
2.721941
 33
-1.002246
 62
0
  0
3DFACE
  8
Cube4
 10
-2.243971
 20
3.302960
 30
-0.137078
 11
-1.879326
 21
0.801752
 31
-3.861504
 12
-1.379108
 22
2.721941
 32
-1.002246
 13
-1.379108
 23
2.721941
 33
-1.002246
 62
0
  0
3DFACE
  8
Cube4
 10
-2.337470
 20
3.363620
 30
-0.046753
 11
-1.879326
 21
0.801752
 31
-3.861504
 12
-2.243971
 22
3.302960
 32
-0.137078
 13
-2.243971
 23
3.302960
 33
-0.137078
 62
0
  0
3DFACE
  8
Cube4
 10
-2.243971
 20
3.302960
 30
-0.137078
 11
2.244030
 21
3.302959
 31
-0.137079
 12
2.337470
 22
3.363620
 32
-0.046753
 13
2.337470
 23
3.363620
 33
-0.046753
 62
0
  0
3DFACE
  8
Cube4
 10
-2.337470
 20
3.363620
 30
-0.046753
 11
-2.243971
 21
3.302960
 31
-0.137078
 12
2.337470
 22
3.363620
 32
-0.046753
 13
2.337470
 23
3.363620
 33
-0.046753
 62
0
  0
3DFACE
  8
Cube4
 10
4.674941
 20
-3.363620
 30
-0.490872
 11
4.674941
 21
1.680641
 31
-0.046753
 12
1.879326
 22
0.801752
 32
-3.861504
 13
1.879326
 23
0.801752
 33
-3.861504
 62
0
  0
3DFACE
  8
Cube4
 10
-4.674941
 20
1.189773
 30
2.739512
 11
-4.674941
 21
-2.648354
 31
2.127095
 12
-4.674941
 22
-3.363620
 32
-0.490872
 13
-4.674941
 23
1.680641
 33
-0.046753
 62
0
  0
3DFACE
  8
Cube4
 10
-1.879326
 20
0.801752
 30
-3.861504
 11
-4.674941
 21
-3.363620
 31
-0.490872
 12
4.674941
 22
-3.363620
 32
-0.490872
 13
1.879326
 23
0.801752
 33
-3.861504
 62
0
  0
3DFACE
  8
Cube4
 10
1.276259
 20
-2.648354
 30
3.861498
 11
4.674941
 21
-3.363620
 31
-0.490872
 12
-4.674941
 22
-3.363620
 32
-0.490872
 13
-1.276259
 23
-2.648354
 33
3.861498
 62
0
  0
3DFACE
  8
Cube4
 10
4.674941
 20
-2.648354
 30
2.127095
 11
1.276259
 21
-2.648354
 31
3.861498
 12
4.674941
 22
1.189773
 32
2.739512
 13
4.674941
 23
1.189773
 33
2.739512
 62
1
  0
3DFACE
  8
Cube4
 10
4.674941
 20
1.189773
 30
2.739512
 11
4.674941
 21
1.680641
 31
-0.046753
 12
4.674941
 22
-3.363620
 32
-0.490872
 13
4.674941
 23
-2.648354
 33
2.127095
 62
0
  0
3DFACE
  8
Cube4
 10
-4.674941
 20
1.680641
 30
-0.046753
 11
-4.674941
 21
-3.363620
 31
-0.490872
 12
-1.879326
 22
0.801752
 32
-3.861504
 13
-1.879326
 23
0.801752
 33
-3.861504
 62
0
  0
3DFACE
  8
Cube4
 10
4.674941
 20
1.189773
 30
2.739512
 11
1.276259
 21
1.189773
 31
3.861498
 12
2.337470
 22
3.363620
 32
-0.046753
 13
2.337470
 23
3.363620
 33
-0.046753
 62
1
  0
3DFACE
  8
Cube4
 10
-2.337470
 20
3.363620
 30
-0.046753
 11
2.337470
 21
3.363620
 31
-0.046753
 12
1.276259
 22
1.189773
 32
3.861498
 13
-1.276259
 23
1.189773
 33
3.861497
 62
1
  0
3DFACE
  8
Cube4
 10
-2.337470
 20
3.363620
 30
-0.046753
 11
-1.276259
 21
1.189773
 31
3.861497
 12
-4.674941
 22
1.189773
 32
2.739512
 13
-4.674941
 23
1.189773
 33
2.739512
 62
1
  0
3DFACE
  8
Cube4
 10
2.337470
 20
3.363620
 30
-0.046753
 11
4.674941
 21
1.680641
 31
-0.046753
 12
4.674941
 22
1.189773
 32
2.739512
 13
4.674941
 23
1.189773
 33
2.739512
 62
0
  0
3DFACE
  8
Cube4
 10
-4.674941
 20
1.189773
 30
2.739512
 11
-4.674941
 21
1.680641
 31
-0.046753
 12
-2.337470
 22
3.363620
 32
-0.046753
 13
-2.337470
 23
3.363620
 33
-0.046753
 62
1
  0
3DFACE
  8
Cube4
 10
-4.674941
 20
-2.648354
 30
2.127095
 11
-4.674941
 21
1.189773
 31
2.739512
 12
-1.276259
 22
-2.648354
 32
3.861498
 13
-1.276259
 23
-2.648354
 33
3.861498
 62
0
  0
3DFACE
  8
Cube4
 10
-1.276259
 20
1.189773
 30
3.861497
 11
1.276259
 21
1.189773
 31
3.861498
 12
1.276259
 22
-2.648354
 32
3.861498
 13
-1.276259
 23
-2.648354
 33
3.861498
 62
1
  0
3DFACE
  8
Cube4
 10
1.276259
 20
1.189773
 30
3.861498
 11
4.674941
 21
1.189773
 31
2.739512
 12
1.276259
 22
-2.648354
 32
3.861498
 13
1.276259
 23
-2.648354
 33
3.861498
 62
1
  0
3DFACE
  8
Cube4
 10
4.674941
 20
-2.648354
 30
2.127095
 11
4.674941
 21
-3.363620
 31
-0.490872
 12
1.276259
 22
-2.648354
 32
3.861498
 13
1.276259
 23
-2.648354
 33
3.861498
 62
0
  0
3DFACE
  8
Cube4
 10
-1.276259
 20
1.189773
 30
3.861497
 11
-1.276259
 21
-2.648354
 31
3.861498
 12
-4.674941
 22
1.189773
 32
2.739512
 13
-4.674941
 23
1.189773
 33
2.739512
 62
0
  0
3DFACE
  8
Cube4
 10
-4.674941
 20
-2.648354
 30
2.127095
 11
-1.276259
 21
-2.648354
 31
3.861498
 12
-4.674941
 22
-3.363620
 32
-0.490872
 13
-4.674941
 23
-3.363620
 33
-0.490872
 62
0
  0
3DFACE
  8
Cube4
 10
1.285609
 20
2.274335
 30
-0.568578
 11
-1.285609
 21
2.274349
 31
-0.570348
 12
-1.284497
 22
2.274359
 32
-0.681054
 13
1.284929
 23
2.274354
 33
-0.681051
 62
2
  0
3DFACE
  8
Cube4
 10
1.284929
 20
2.274354
 30
-0.681051
 11
-1.284497
 21
2.274359
 31
-0.681054
 12
-1.379108
 22
2.721941
 32
-1.002246
 13
1.379108
 23
2.721944
 33
-1.002241
 62
2
  0
3DFACE
  8
Cube4
 10
1.285609
 20
2.274335
 30
-0.568578
 11
1.284929
 21
2.274354
 31
-0.681051
 12
1.379108
 22
2.721944
 32
-1.002241
 13
2.244030
 23
3.302959
 33
-0.137079
 62
2
  0
3DFACE
  8
Cube4
 10
-1.284497
 20
2.274359
 30
-0.681054
 11
-1.285609
 21
2.274349
 31
-0.570348
 12
-2.243971
 22
3.302960
 32
-0.137078
 13
-1.379108
 23
2.721941
 33
-1.002246
 62
2
  0
3DFACE
  8
Cube4
 10
-1.285609
 20
2.274349
 30
-0.570348
 11
1.285609
 21
2.274335
 31
-0.568578
 12
2.244030
 22
3.302959
 32
-0.137079
 13
-2.243971
 23
3.302960
 33
-0.137078
 62
2
  0
3DFACE
  8
NoName6
 10
2.606905
 20
-0.745245
 30
3.348154
 11
3.002064
 21
0.094418
 31
3.142488
 12
3.817766
 22
-0.968381
 32
2.921973
 13
3.817766
 23
-0.968381
 33
2.921973
 62
0
  0
3DFACE
  8
NoName6
 10
3.725978
 20
-0.056921
 30
5.072653
 11
3.002064
 21
0.094418
 31
3.142488
 12
2.606905
 22
-0.745245
 32
3.348154
 13
2.606905
 23
-0.745245
 33
3.348154
 62
0
  0
3DFACE
  8
NoName6
 10
3.817766
 20
-0.968381
 30
2.921973
 11
3.002064
 21
0.094418
 31
3.142488
 12
3.725978
 22
-0.056921
 32
5.072653
 13
3.725978
 23
-0.056921
 33
5.072653
 62
0
  0
3DFACE
  8
NoName6
 10
2.606905
 20
-0.745245
 30
3.348154
 11
3.817766
 21
-0.968381
 31
2.921973
 12
3.725978
 22
-0.056921
 32
5.072653
 13
3.725978
 23
-0.056921
 33
5.072653
 62
0
  0
3DFACE
  8
NoName8
 10
-3.817267
 20
-0.968385
 30
2.921983
 11
-3.001561
 21
0.094416
 31
3.142486
 12
-2.606398
 22
-0.745248
 32
3.348145
 13
-2.606398
 23
-0.745248
 33
3.348145
 62
0
  0
3DFACE
  8
NoName8
 10
-2.606398
 20
-0.745248
 30
3.348145
 11
-3.001561
 21
0.094416
 31
3.142486
 12
-3.725444
 22
-0.056923
 32
5.072664
 13
-3.725444
 23
-0.056923
 33
5.072664
 62
0
  0
3DFACE
  8
NoName8
 10
-3.725444
 20
-0.056923
 30
5.072664
 11
-3.001561
 21
0.094416
 31
3.142486
 12
-3.817267
 22
-0.968385
 32
2.921983
 13
-3.817267
 23
-0.968385
 33
2.921983
 62
0
  0
3DFACE
  8
NoName8
 10
-3.725444
 20
-0.056923
 30
5.072664
 11
-3.817267
 21
-0.968385
 31
2.921983
 12
-2.606398
 22
-0.745248
 32
3.348145
 13
-2.606398
 23
-0.745248
 33
3.348145
 62
0
  0
3DFACE
  8
NoName9
 10
-3.493635
 20
1.410695
 30
2.486558
 11
-2.718533
 21
2.139209
 31
1.712610
 12
-2.222704
 22
1.692309
 32
2.503573
 13
-2.222704
 23
1.692309
 33
2.503573
 62
0
  0
3DFACE
  8
NoName9
 10
-2.222704
 20
1.692309
 30
2.503573
 11
-2.718533
 21
2.139209
 31
1.712610
 12
-2.983200
 22
3.597141
 32
3.137369
 13
-2.983200
 23
3.597141
 33
3.137369
 62
0
  0
3DFACE
  8
NoName9
 10
-2.983200
 20
3.597141
 30
3.137369
 11
-2.718533
 21
2.139209
 31
1.712610
 12
-3.493635
 22
1.410695
 32
2.486558
 13
-3.493635
 23
1.410695
 33
2.486558
 62
0
  0
3DFACE
  8
NoName9
 10
-2.983200
 20
3.597141
 30
3.137369
 11
-3.493635
 21
1.410695
 31
2.486558
 12
-2.222704
 22
1.692309
 32
2.503573
 13
-2.222704
 23
1.692309
 33
2.503573
 62
0
  0
3DFACE
  8
NoName14
 10
2.220894
 20
1.692305
 30
2.503577
 11
2.716722
 21
2.139206
 31
1.712614
 12
3.491824
 22
1.410690
 32
2.486562
 13
3.491824
 23
1.410690
 33
2.486562
 62
0
  0
3DFACE
  8
NoName14
 10
2.981389
 20
3.597138
 30
3.137372
 11
2.716722
 21
2.139206
 31
1.712614
 12
2.220894
 22
1.692305
 32
2.503577
 13
2.220894
 23
1.692305
 33
2.503577
 62
0
  0
3DFACE
  8
NoName14
 10
3.491824
 20
1.410690
 30
2.486562
 11
2.716722
 21
2.139206
 31
1.712614
 12
2.981389
 22
3.597138
 32
3.137372
 13
2.981389
 23
3.597138
 33
3.137372
 62
0
  0
3DFACE
  8
NoName14
 10
2.220894
 20
1.692305
 30
2.503577
 11
3.491824
 21
1.410690
 31
2.486562
 12
2.981389
 22
3.597138
 32
3.137372
 13
2.981389
 23
3.597138
 33
3.137372
 62
0
  0
3DFACE
  8
Cube3
 10
4.676257
 20
-1.394072
 30
-2.080646
 11
4.676510
 21
1.449740
 31
-2.080481
 12
4.676975
 22
1.011901
 32
2.735679
 13
4.676845
 23
-2.478190
 33
2.735800
 62
0
  0
3DFACE
  8
Cube3
 10
4.676257
 20
-1.394072
 30
-2.080646
 11
7.245630
 21
-1.393968
 31
-2.080181
 12
7.245798
 22
1.449819
 32
-2.080224
 13
4.676510
 23
1.449740
 33
-2.080481
 62
0
  0
3DFACE
  8
Cube3
 10
6.434530
 20
1.011914
 30
1.260917
 11
4.676510
 21
1.449740
 31
-2.080481
 12
7.245798
 22
1.449819
 32
-2.080224
 13
7.245798
 23
1.449819
 33
-2.080224
 62
0
  0
3DFACE
  8
Cube3
 10
4.676975
 20
1.011901
 30
2.735679
 11
6.434530
 21
1.011914
 31
1.260917
 12
6.434439
 22
-2.478191
 32
1.260971
 13
4.676845
 23
-2.478190
 33
2.735800
 62
0
  0
3DFACE
  8
Cube3
 10
7.245798
 20
1.449819
 30
-2.080224
 11
7.245630
 21
-1.393968
 31
-2.080181
 12
6.434439
 22
-2.478191
 32
1.260971
 13
6.434530
 23
1.011914
 33
1.260917
 62
0
  0
3DFACE
  8
Cube3
 10
4.676257
 20
-1.394072
 30
-2.080646
 11
4.676845
 21
-2.478190
 31
2.735800
 12
6.434439
 22
-2.478191
 32
1.260971
 13
6.434439
 23
-2.478191
 33
1.260971
 62
0
  0
3DFACE
  8
Cube3
 10
4.676510
 20
1.449740
 30
-2.080481
 11
6.434530
 21
1.011914
 31
1.260917
 12
4.676975
 22
1.011901
 32
2.735679
 13
4.676975
 23
1.011901
 33
2.735679
 62
0
  0
3DFACE
  8
Cube3
 10
6.434439
 20
-2.478191
 30
1.260971
 11
7.245630
 21
-1.393968
 31
-2.080181
 12
4.676257
 22
-1.394072
 32
-2.080646
 13
4.676257
 23
-1.394072
 33
-2.080646
 62
0
  0
3DFACE
  8
NoName6001
 10
5.026103
 20
-0.745245
 30
2.331376
 11
5.341109
 21
0.094418
 31
2.016384
 12
6.052721
 22
-0.968381
 32
1.560746
 13
6.052721
 23
-0.968381
 33
1.560746
 62
0
  0
3DFACE
  8
NoName6001
 10
6.612027
 20
-0.056921
 30
3.639453
 11
5.341109
 21
0.094418
 31
2.016384
 12
5.026103
 22
-0.745245
 32
2.331376
 13
5.026103
 23
-0.745245
 33
2.331376
 62
0
  0
3DFACE
  8
NoName6001
 10
6.052721
 20
-0.968381
 30
1.560746
 11
5.341109
 21
0.094418
 31
2.016384
 12
6.612027
 22
-0.056921
 32
3.639453
 13
6.612027
 23
-0.056921
 33
3.639453
 62
0
  0
3DFACE
  8
NoName6001
 10
5.026103
 20
-0.745245
 30
2.331376
 11
6.052721
 21
-0.968381
 31
1.560746
 12
6.612027
 22
-0.056921
 32
3.639453
 13
6.612027
 23
-0.056921
 33
3.639453
 62
0
  0
3DFACE
  8
Cylinder1
 10
7.246159
 20
4.641664
 30
-2.080334
 11
7.246170
 21
4.641657
 31
-3.607030
 12
7.246170
 22
-1.057579
 32
-3.261462
 13
7.246169
 23
-1.400145
 33
-2.080342
 62
0
  0
3DFACE
  8
Cylinder1
 10
7.246170
 20
4.641657
 30
-3.607030
 11
5.960584
 21
4.641635
 31
-4.633103
 12
5.960664
 22
-0.782632
 32
-4.209438
 13
7.246170
 23
-1.057579
 33
-3.261462
 62
0
  0
3DFACE
  8
Cylinder1
 10
5.960584
 20
4.641635
 30
-4.633103
 11
4.674946
 21
4.641657
 31
-3.607018
 12
4.674954
 22
-1.057434
 32
-3.261954
 13
5.960664
 23
-0.782632
 33
-4.209438
 62
0
  0
3DFACE
  8
Cylinder1
 10
5.493056
 20
4.641663
 30
-2.380122
 11
5.798192
 21
4.641664
 31
-2.267349
 12
4.674942
 22
4.641664
 32
-2.080333
 13
4.674942
 23
4.641664
 33
-2.080333
 62
0
  0
3DFACE
  8
Cylinder1
 10
5.244308
 20
4.641661
 30
-2.592066
 11
5.493056
 21
4.641663
 31
-2.380122
 12
4.674942
 22
4.641664
 32
-2.080333
 13
4.674942
 23
4.641664
 33
-2.080333
 62
0
  0
3DFACE
  8
Cylinder1
 10
5.081949
 20
4.641658
 30
-2.877618
 11
5.244308
 21
4.641661
 31
-2.592066
 12
4.674942
 22
4.641664
 32
-2.080333
 13
4.674942
 23
4.641664
 33
-2.080333
 62
0
  0
3DFACE
  8
Cylinder1
 10
5.025562
 20
4.641655
 30
-3.202336
 11
5.081949
 21
4.641658
 31
-2.877618
 12
4.674942
 22
4.641664
 32
-2.080333
 13
4.674942
 23
4.641664
 33
-2.080333
 62
0
  0
3DFACE
  8
Cylinder1
 10
4.674946
 20
4.641657
 30
-3.607018
 11
5.025562
 21
4.641655
 31
-3.202336
 12
4.674942
 22
4.641664
 32
-2.080333
 13
4.674942
 23
4.641664
 33
-2.080333
 62
0
  0
3DFACE
  8
Cylinder1
 10
5.081949
 20
4.641653
 30
-3.527054
 11
5.025562
 21
4.641655
 31
-3.202336
 12
4.674946
 22
4.641657
 32
-3.607018
 13
4.674946
 23
4.641657
 33
-3.607018
 62
0
  0
3DFACE
  8
Cylinder1
 10
5.244308
 20
4.641650
 30
-3.812606
 11
5.081949
 21
4.641653
 31
-3.527054
 12
4.674946
 22
4.641657
 32
-3.607018
 13
4.674946
 23
4.641657
 33
-3.607018
 62
0
  0
3DFACE
  8
Cylinder1
 10
5.493056
 20
4.641648
 30
-4.024551
 11
5.244308
 21
4.641650
 31
-3.812606
 12
4.674946
 22
4.641657
 32
-3.607018
 13
4.674946
 23
4.641657
 33
-3.607018
 62
0
  0
3DFACE
  8
Cylinder1
 10
5.960584
 20
4.641635
 30
-4.633103
 11
5.493056
 21
4.641648
 31
-4.024551
 12
4.674946
 22
4.641657
 32
-3.607018
 13
4.674946
 23
4.641657
 33
-3.607018
 62
0
  0
3DFACE
  8
Cylinder1
 10
5.960584
 20
4.641635
 30
-4.633103
 11
5.798192
 21
4.641647
 31
-4.137324
 12
5.493056
 22
4.641648
 32
-4.024551
 13
5.493056
 23
4.641648
 33
-4.024551
 62
0
  0
3DFACE
  8
Cylinder1
 10
5.960584
 20
4.641635
 30
-4.633103
 11
6.122910
 21
4.641647
 31
-4.137324
 12
5.798192
 22
4.641647
 32
-4.137324
 13
5.798192
 23
4.641647
 33
-4.137324
 62
0
  0
3DFACE
  8
Cylinder1
 10
6.122910
 20
4.641664
 30
-2.267349
 11
4.674942
 21
4.641664
 31
-2.080333
 12
5.798192
 22
4.641664
 32
-2.267349
 13
5.798192
 23
4.641664
 33
-2.267349
 62
0
  0
3DFACE
  8
Cylinder1
 10
7.246159
 20
4.641664
 30
-2.080334
 11
4.674942
 21
4.641664
 31
-2.080333
 12
6.122910
 22
4.641664
 32
-2.267349
 13
6.122910
 23
4.641664
 33
-2.267349
 62
0
  0
3DFACE
  8
Cylinder1
 10
6.428045
 20
4.641663
 30
-2.380122
 11
7.246159
 21
4.641664
 31
-2.080334
 12
6.122910
 22
4.641664
 32
-2.267349
 13
6.122910
 23
4.641664
 33
-2.267349
 62
0
  0
3DFACE
  8
Cylinder1
 10
6.676793
 20
4.641661
 30
-2.592067
 11
7.246159
 21
4.641664
 31
-2.080334
 12
6.428045
 22
4.641663
 32
-2.380122
 13
6.428045
 23
4.641663
 33
-2.380122
 62
0
  0
3DFACE
  8
Cylinder1
 10
6.839152
 20
4.641658
 30
-2.877619
 11
7.246159
 21
4.641664
 31
-2.080334
 12
6.676793
 22
4.641661
 32
-2.592067
 13
6.676793
 23
4.641661
 33
-2.592067
 62
0
  0
3DFACE
  8
Cylinder1
 10
6.895539
 20
4.641655
 30
-3.202337
 11
7.246159
 21
4.641664
 31
-2.080334
 12
6.839152
 22
4.641658
 32
-2.877619
 13
6.839152
 23
4.641658
 33
-2.877619
 62
0
  0
3DFACE
  8
Cylinder1
 10
6.839152
 20
4.641653
 30
-3.527055
 11
7.246159
 21
4.641664
 31
-2.080334
 12
6.895539
 22
4.641655
 32
-3.202337
 13
6.895539
 23
4.641655
 33
-3.202337
 62
0
  0
3DFACE
  8
Cylinder1
 10
7.246170
 20
4.641657
 30
-3.607030
 11
7.246159
 21
4.641664
 31
-2.080334
 12
6.839152
 22
4.641653
 32
-3.527055
 13
6.839152
 23
4.641653
 33
-3.527055
 62
0
  0
3DFACE
  8
Cylinder1
 10
6.676793
 20
4.641650
 30
-3.812607
 11
7.246170
 21
4.641657
 31
-3.607030
 12
6.839152
 22
4.641653
 32
-3.527055
 13
6.839152
 23
4.641653
 33
-3.527055
 62
0
  0
3DFACE
  8
Cylinder1
 10
6.428044
 20
4.641648
 30
-4.024551
 11
7.246170
 21
4.641657
 31
-3.607030
 12
6.676793
 22
4.641650
 32
-3.812607
 13
6.676793
 23
4.641650
 33
-3.812607
 62
0
  0
3DFACE
  8
Cylinder1
 10
5.960584
 20
4.641635
 30
-4.633103
 11
7.246170
 21
4.641657
 31
-3.607030
 12
6.428044
 22
4.641648
 32
-4.024551
 13
6.428044
 23
4.641648
 33
-4.024551
 62
0
  0
3DFACE
  8
Cylinder1
 10
5.960584
 20
4.641635
 30
-4.633103
 11
6.428044
 21
4.641648
 31
-4.024551
 12
6.122910
 22
4.641647
 32
-4.137324
 13
6.122910
 23
4.641647
 33
-4.137324
 62
0
  0
3DFACE
  8
Cylinder1
 10
4.674946
 20
4.641657
 30
-3.607018
 11
4.674942
 21
4.641664
 31
-2.080333
 12
4.674948
 22
-1.400145
 32
-2.080335
 13
4.674954
 23
-1.057434
 33
-3.261954
 62
0
  0
3DFACE
  8
Cylinder1
 10
4.674942
 20
4.641664
 30
-2.080333
 11
7.246159
 21
4.641664
 31
-2.080334
 12
7.246169
 22
-1.400145
 32
-2.080342
 13
4.674948
 23
-1.400145
 33
-2.080335
 62
0
  0
3DFACE
  8
Cylinder1
 10
4.674954
 20
-1.057434
 30
-3.261954
 11
4.674948
 21
-1.400145
 31
-2.080335
 12
7.246169
 22
-1.400145
 32
-2.080342
 13
7.246169
 23
-1.400145
 33
-2.080342
 62
0
  0
3DFACE
  8
Cylinder1
 10
7.246170
 20
-1.057579
 30
-3.261462
 11
4.674954
 21
-1.057434
 31
-3.261954
 12
7.246169
 22
-1.400145
 32
-2.080342
 13
7.246169
 23
-1.400145
 33
-2.080342
 62
0
  0
3DFACE
  8
Cylinder1
 10
5.960664
 20
-0.782632
 30
-4.209438
 11
4.674954
 21
-1.057434
 31
-3.261954
 12
7.246170
 22
-1.057579
 32
-3.261462
 13
7.246170
 23
-1.057579
 33
-3.261462
 62
0
  0
3DFACE
  8
Cylinder1
 10
5.081978
 20
3.597360
 30
-3.527055
 11
5.025592
 21
3.597361
 31
-3.202340
 12
5.025562
 22
4.641655
 32
-3.202336
 13
5.081949
 23
4.641653
 33
-3.527054
 62
1
  0
3DFACE
  8
Cylinder1
 10
5.025592
 20
3.597361
 30
-3.202340
 11
5.081977
 21
3.597362
 31
-2.877627
 12
5.081949
 22
4.641658
 32
-2.877618
 13
5.025562
 23
4.641655
 33
-3.202336
 62
1
  0
3DFACE
  8
Cylinder1
 10
5.081977
 20
3.597362
 30
-2.877627
 11
5.244338
 21
3.597363
 31
-2.592081
 12
5.244308
 22
4.641661
 32
-2.592066
 13
5.081949
 23
4.641658
 33
-2.877618
 62
1
  0
3DFACE
  8
Cylinder1
 10
5.244338
 20
3.597363
 30
-2.592081
 11
5.493087
 21
3.597363
 31
-2.380140
 12
5.493056
 22
4.641663
 32
-2.380122
 13
5.244308
 23
4.641661
 33
-2.592066
 62
1
  0
3DFACE
  8
Cylinder1
 10
5.493087
 20
3.597363
 30
-2.380140
 11
5.798224
 21
3.597363
 31
-2.267373
 12
5.798192
 22
4.641664
 32
-2.267349
 13
5.493056
 23
4.641663
 33
-2.380122
 62
1
  0
3DFACE
  8
Cylinder1
 10
5.798224
 20
3.597363
 30
-2.267373
 11
6.122944
 21
3.597363
 31
-2.267376
 12
6.122910
 22
4.641664
 32
-2.267349
 13
5.798192
 23
4.641664
 33
-2.267349
 62
1
  0
3DFACE
  8
Cylinder1
 10
6.122944
 20
3.597363
 30
-2.267376
 11
6.428079
 21
3.597363
 31
-2.380152
 12
6.428045
 22
4.641663
 32
-2.380122
 13
6.122910
 23
4.641664
 33
-2.267349
 62
1
  0
3DFACE
  8
Cylinder1
 10
6.428079
 20
3.597363
 30
-2.380152
 11
6.676831
 21
3.597363
 31
-2.592096
 12
6.676793
 22
4.641661
 32
-2.592067
 13
6.428045
 23
4.641663
 33
-2.380122
 62
1
  0
3DFACE
  8
Cylinder1
 10
6.676831
 20
3.597363
 30
-2.592096
 11
6.839190
 21
3.597362
 31
-2.877647
 12
6.839152
 22
4.641658
 32
-2.877619
 13
6.676793
 23
4.641661
 33
-2.592067
 62
1
  0
3DFACE
  8
Cylinder1
 10
6.122944
 20
3.597363
 30
-2.267376
 11
5.798224
 21
3.597363
 31
-2.267373
 12
5.493087
 22
3.597363
 32
-2.380140
 13
5.493087
 23
3.597363
 33
-2.380140
 62
0
  0
3DFACE
  8
Cylinder1
 10
5.244338
 20
3.597363
 30
-2.592081
 11
6.122944
 21
3.597363
 31
-2.267376
 12
5.493087
 22
3.597363
 32
-2.380140
 13
5.493087
 23
3.597363
 33
-2.380140
 62
0
  0
3DFACE
  8
Cylinder1
 10
6.428079
 20
3.597363
 30
-2.380152
 11
6.122944
 21
3.597363
 31
-2.267376
 12
5.244338
 22
3.597363
 32
-2.592081
 13
5.244338
 23
3.597363
 33
-2.592081
 62
0
  0
3DFACE
  8
Cylinder1
 10
5.081977
 20
3.597362
 30
-2.877627
 11
6.428079
 21
3.597363
 31
-2.380152
 12
5.244338
 22
3.597363
 32
-2.592081
 13
5.244338
 23
3.597363
 33
-2.592081
 62
0
  0
3DFACE
  8
Cylinder1
 10
6.676831
 20
3.597363
 30
-2.592096
 11
6.428079
 21
3.597363
 31
-2.380152
 12
5.081977
 22
3.597362
 32
-2.877627
 13
5.081977
 23
3.597362
 33
-2.877627
 62
0
  0
3DFACE
  8
Cylinder1
 10
5.025592
 20
3.597361
 30
-3.202340
 11
6.676831
 21
3.597363
 31
-2.592096
 12
5.081977
 22
3.597362
 32
-2.877627
 13
5.081977
 23
3.597362
 33
-2.877627
 62
0
  0
3DFACE
  8
Cylinder1
 10
6.839190
 20
3.597362
 30
-2.877647
 11
6.676831
 21
3.597363
 31
-2.592096
 12
5.025592
 22
3.597361
 32
-3.202340
 13
5.025592
 23
3.597361
 33
-3.202340
 62
0
  0
3DFACE
  8
Cylinder1
 10
5.081978
 20
3.597360
 30
-3.527055
 11
6.839190
 21
3.597362
 31
-2.877647
 12
5.025592
 22
3.597361
 32
-3.202340
 13
5.025592
 23
3.597361
 33
-3.202340
 62
0
  0
3DFACE
  8
Cylinder1
 10
6.895579
 20
3.597361
 30
-3.202363
 11
6.839190
 21
3.597362
 31
-2.877647
 12
5.081978
 22
3.597360
 32
-3.527055
 13
5.081978
 23
3.597360
 33
-3.527055
 62
0
  0
3DFACE
  8
Cylinder1
 10
5.244340
 20
3.597358
 30
-3.812606
 11
6.895579
 21
3.597361
 31
-3.202363
 12
5.081978
 22
3.597360
 32
-3.527055
 13
5.081978
 23
3.597360
 33
-3.527055
 62
0
  0
3DFACE
  8
Cylinder1
 10
6.839191
 20
3.597360
 30
-3.527077
 11
6.895579
 21
3.597361
 31
-3.202363
 12
5.244340
 22
3.597358
 32
-3.812606
 13
5.244340
 23
3.597358
 33
-3.812606
 62
0
  0
3DFACE
  8
Cylinder1
 10
5.493088
 20
3.597358
 30
-4.024550
 11
6.839191
 21
3.597360
 31
-3.527077
 12
5.244340
 22
3.597358
 32
-3.812606
 13
5.244340
 23
3.597358
 33
-3.812606
 62
0
  0
3DFACE
  8
Cylinder1
 10
6.676832
 20
3.597358
 30
-3.812622
 11
6.839191
 21
3.597360
 31
-3.527077
 12
5.493088
 22
3.597358
 32
-4.024550
 13
5.493088
 23
3.597358
 33
-4.024550
 62
0
  0
3DFACE
  8
Cylinder1
 10
5.798226
 20
3.597358
 30
-4.137327
 11
6.676832
 21
3.597358
 31
-3.812622
 12
5.493088
 22
3.597358
 32
-4.024550
 13
5.493088
 23
3.597358
 33
-4.024550
 62
0
  0
3DFACE
  8
Cylinder1
 10
6.428082
 20
3.597358
 30
-4.024560
 11
6.676832
 21
3.597358
 31
-3.812622
 12
5.798226
 22
3.597358
 32
-4.137327
 13
5.798226
 23
3.597358
 33
-4.137327
 62
0
  0
3DFACE
  8
Cylinder1
 10
6.122947
 20
3.597358
 30
-4.137333
 11
6.428082
 21
3.597358
 31
-4.024560
 12
5.798226
 22
3.597358
 32
-4.137327
 13
5.798226
 23
3.597358
 33
-4.137327
 62
0
  0
3DFACE
  8
Cylinder1
 10
6.839190
 20
3.597362
 30
-2.877647
 11
6.895579
 21
3.597361
 31
-3.202363
 12
6.895539
 22
4.641655
 32
-3.202337
 13
6.839152
 23
4.641658
 33
-2.877619
 62
1
  0
3DFACE
  8
Cylinder1
 10
6.895579
 20
3.597361
 30
-3.202363
 11
6.839191
 21
3.597360
 31
-3.527077
 12
6.839152
 22
4.641653
 32
-3.527055
 13
6.895539
 23
4.641655
 33
-3.202337
 62
1
  0
3DFACE
  8
Cylinder1
 10
6.839191
 20
3.597360
 30
-3.527077
 11
6.676832
 21
3.597358
 31
-3.812622
 12
6.676793
 22
4.641650
 32
-3.812607
 13
6.839152
 23
4.641653
 33
-3.527055
 62
1
  0
3DFACE
  8
Cylinder1
 10
6.676832
 20
3.597358
 30
-3.812622
 11
6.428082
 21
3.597358
 31
-4.024560
 12
6.428044
 22
4.641648
 32
-4.024551
 13
6.676793
 23
4.641650
 33
-3.812607
 62
1
  0
3DFACE
  8
Cylinder1
 10
6.428082
 20
3.597358
 30
-4.024560
 11
6.122947
 21
3.597358
 31
-4.137333
 12
6.122910
 22
4.641647
 32
-4.137324
 13
6.428044
 23
4.641648
 33
-4.024551
 62
1
  0
3DFACE
  8
Cylinder1
 10
6.122947
 20
3.597358
 30
-4.137333
 11
5.798226
 21
3.597358
 31
-4.137327
 12
5.798192
 22
4.641647
 32
-4.137324
 13
6.122910
 23
4.641647
 33
-4.137324
 62
1
  0
3DFACE
  8
Cylinder1
 10
5.798226
 20
3.597358
 30
-4.137327
 11
5.493088
 21
3.597358
 31
-4.024550
 12
5.493056
 22
4.641648
 32
-4.024551
 13
5.798192
 23
4.641647
 33
-4.137324
 62
1
  0
3DFACE
  8
Cylinder1
 10
5.493088
 20
3.597358
 30
-4.024550
 11
5.244340
 21
3.597358
 31
-3.812606
 12
5.244308
 22
4.641650
 32
-3.812606
 13
5.493056
 23
4.641648
 33
-4.024551
 62
1
  0
3DFACE
  8
Cylinder1
 10
5.244340
 20
3.597358
 30
-3.812606
 11
5.081978
 21
3.597360
 31
-3.527055
 12
5.081949
 22
4.641653
 32
-3.527054
 13
5.244308
 23
4.641650
 33
-3.812606
 62
1
  0
3DFACE
  8
Sphere
 10
5.960550
 20
3.714241
 30
-3.202338
 11
6.265685
 21
3.707193
 31
-3.315111
 12
6.285268
 22
3.707193
 32
-3.202338
 13
6.285268
 23
3.707193
 33
-3.202338
 62
0
  0
3DFACE
  8
Sphere
 10
5.960550
 20
3.714241
 30
-3.202338
 11
6.209298
 21
3.707193
 31
-3.414282
 12
6.265685
 22
3.707193
 32
-3.315111
 13
6.265685
 23
3.707193
 33
-3.315111
 62
0
  0
3DFACE
  8
Sphere
 10
5.960550
 20
3.714241
 30
-3.202338
 11
6.122909
 21
3.707193
 31
-3.487890
 12
6.209298
 22
3.707193
 32
-3.414282
 13
6.209298
 23
3.707193
 33
-3.414282
 62
0
  0
3DFACE
  8
Sphere
 10
5.960550
 20
3.714241
 30
-3.202338
 11
6.016936
 21
3.707193
 31
-3.527056
 12
6.122909
 22
3.707193
 32
-3.487890
 13
6.122909
 23
3.707193
 33
-3.487890
 62
0
  0
3DFACE
  8
Sphere
 10
5.960550
 20
3.714241
 30
-3.202338
 11
5.904163
 21
3.707193
 31
-3.527056
 12
6.016936
 22
3.707193
 32
-3.527056
 13
6.016936
 23
3.707193
 33
-3.527056
 62
0
  0
3DFACE
  8
Sphere
 10
5.960550
 20
3.714241
 30
-3.202338
 11
5.798191
 21
3.707193
 31
-3.487890
 12
5.904163
 22
3.707193
 32
-3.527056
 13
5.904163
 23
3.707193
 33
-3.527056
 62
0
  0
3DFACE
  8
Sphere
 10
5.960550
 20
3.714241
 30
-3.202338
 11
5.711802
 21
3.707193
 31
-3.414282
 12
5.798191
 22
3.707193
 32
-3.487890
 13
5.798191
 23
3.707193
 33
-3.487890
 62
0
  0
3DFACE
  8
Sphere
 10
5.960550
 20
3.714241
 30
-3.202338
 11
5.655415
 21
3.707193
 31
-3.315111
 12
5.711802
 22
3.707193
 32
-3.414282
 13
5.711802
 23
3.707193
 33
-3.414282
 62
0
  0
3DFACE
  8
Sphere
 10
5.960550
 20
3.714241
 30
-3.202338
 11
5.635832
 21
3.707193
 31
-3.202338
 12
5.655415
 22
3.707193
 32
-3.315111
 13
5.655415
 23
3.707193
 33
-3.315111
 62
0
  0
3DFACE
  8
Sphere
 10
5.960550
 20
3.714241
 30
-3.202338
 11
5.655415
 21
3.707193
 31
-3.089564
 12
5.635832
 22
3.707193
 32
-3.202338
 13
5.635832
 23
3.707193
 33
-3.202338
 62
0
  0
3DFACE
  8
Sphere
 10
5.960550
 20
3.714241
 30
-3.202338
 11
5.711802
 21
3.707193
 31
-2.990393
 12
5.655415
 22
3.707193
 32
-3.089564
 13
5.655415
 23
3.707193
 33
-3.089564
 62
0
  0
3DFACE
  8
Sphere
 10
5.960550
 20
3.714241
 30
-3.202338
 11
5.798191
 21
3.707193
 31
-2.916785
 12
5.711802
 22
3.707193
 32
-2.990393
 13
5.711802
 23
3.707193
 33
-2.990393
 62
0
  0
3DFACE
  8
Sphere
 10
5.960550
 20
3.714241
 30
-3.202338
 11
5.904163
 21
3.707193
 31
-2.877620
 12
5.798191
 22
3.707193
 32
-2.916785
 13
5.798191
 23
3.707193
 33
-2.916785
 62
0
  0
3DFACE
  8
Sphere
 10
5.960550
 20
3.714241
 30
-3.202338
 11
6.016936
 21
3.707193
 31
-2.877620
 12
5.904163
 22
3.707193
 32
-2.877620
 13
5.904163
 23
3.707193
 33
-2.877620
 62
0
  0
3DFACE
  8
Sphere
 10
5.960550
 20
3.714241
 30
-3.202338
 11
6.122909
 21
3.707193
 31
-2.916785
 12
6.016936
 22
3.707193
 32
-2.877620
 13
6.016936
 23
3.707193
 33
-2.877620
 62
0
  0
3DFACE
  8
Sphere
 10
5.960550
 20
3.714241
 30
-3.202338
 11
6.209298
 21
3.707193
 31
-2.990393
 12
6.122909
 22
3.707193
 32
-2.916785
 13
6.122909
 23
3.707193
 33
-2.916785
 62
0
  0
3DFACE
  8
Sphere
 10
5.960550
 20
3.714241
 30
-3.202338
 11
6.265685
 21
3.707193
 31
-3.089564
 12
6.209298
 22
3.707193
 32
-2.990393
 13
6.209298
 23
3.707193
 33
-2.990393
 62
0
  0
3DFACE
  8
Sphere
 10
5.960550
 20
3.714241
 30
-3.202338
 11
6.285268
 21
3.707193
 31
-3.202338
 12
6.265685
 22
3.707193
 32
-3.089564
 13
6.265685
 23
3.707193
 33
-3.089564
 62
0
  0
3DFACE
  8
Sphere
 10
6.285268
 20
3.707193
 30
-3.202338
 11
6.265685
 21
3.707193
 31
-3.315111
 12
6.534016
 22
3.686898
 32
-3.414282
 13
6.570820
 23
3.686898
 33
-3.202338
 62
0
  0
3DFACE
  8
Sphere
 10
6.265685
 20
3.707193
 30
-3.315111
 11
6.209298
 21
3.707193
 31
-3.414282
 12
6.428044
 22
3.686898
 32
-3.600663
 13
6.534016
 23
3.686898
 33
-3.414282
 62
0
  0
3DFACE
  8
Sphere
 10
6.209298
 20
3.707193
 30
-3.414282
 11
6.122909
 21
3.707193
 31
-3.487890
 12
6.265685
 22
3.686898
 32
-3.739000
 13
6.428044
 23
3.686898
 33
-3.600663
 62
0
  0
3DFACE
  8
Sphere
 10
6.122909
 20
3.707193
 30
-3.487890
 11
6.016936
 21
3.707193
 31
-3.527056
 12
6.066522
 22
3.686898
 32
-3.812608
 13
6.265685
 23
3.686898
 33
-3.739000
 62
0
  0
3DFACE
  8
Sphere
 10
6.016936
 20
3.707193
 30
-3.527056
 11
5.904163
 21
3.707193
 31
-3.527056
 12
5.854578
 22
3.686898
 32
-3.812608
 13
6.066522
 23
3.686898
 33
-3.812608
 62
0
  0
3DFACE
  8
Sphere
 10
5.904163
 20
3.707193
 30
-3.527056
 11
5.798191
 21
3.707193
 31
-3.487890
 12
5.655415
 22
3.686898
 32
-3.739000
 13
5.854578
 23
3.686898
 33
-3.812608
 62
0
  0
3DFACE
  8
Sphere
 10
5.798191
 20
3.707193
 30
-3.487890
 11
5.711802
 21
3.707193
 31
-3.414282
 12
5.493056
 22
3.686898
 32
-3.600663
 13
5.655415
 23
3.686898
 33
-3.739000
 62
0
  0
3DFACE
  8
Sphere
 10
5.711802
 20
3.707193
 30
-3.414282
 11
5.655415
 21
3.707193
 31
-3.315111
 12
5.387084
 22
3.686898
 32
-3.414282
 13
5.493056
 23
3.686898
 33
-3.600663
 62
0
  0
3DFACE
  8
Sphere
 10
5.655415
 20
3.707193
 30
-3.315111
 11
5.635832
 21
3.707193
 31
-3.202338
 12
5.350280
 22
3.686898
 32
-3.202338
 13
5.387084
 23
3.686898
 33
-3.414282
 62
0
  0
3DFACE
  8
Sphere
 10
5.635832
 20
3.707193
 30
-3.202338
 11
5.655415
 21
3.707193
 31
-3.089564
 12
5.387084
 22
3.686898
 32
-2.990393
 13
5.350280
 23
3.686898
 33
-3.202338
 62
0
  0
3DFACE
  8
Sphere
 10
5.655415
 20
3.707193
 30
-3.089564
 11
5.711802
 21
3.707193
 31
-2.990393
 12
5.493056
 22
3.686898
 32
-2.804012
 13
5.387084
 23
3.686898
 33
-2.990393
 62
0
  0
3DFACE
  8
Sphere
 10
5.711802
 20
3.707193
 30
-2.990393
 11
5.798191
 21
3.707193
 31
-2.916785
 12
5.655415
 22
3.686898
 32
-2.665675
 13
5.493056
 23
3.686898
 33
-2.804012
 62
0
  0
3DFACE
  8
Sphere
 10
5.798191
 20
3.707193
 30
-2.916785
 11
5.904163
 21
3.707193
 31
-2.877620
 12
5.854578
 22
3.686898
 32
-2.592067
 13
5.655415
 23
3.686898
 33
-2.665675
 62
0
  0
3DFACE
  8
Sphere
 10
5.904163
 20
3.707193
 30
-2.877620
 11
6.016936
 21
3.707193
 31
-2.877620
 12
6.066522
 22
3.686898
 32
-2.592067
 13
5.854578
 23
3.686898
 33
-2.592067
 62
0
  0
3DFACE
  8
Sphere
 10
6.016936
 20
3.707193
 30
-2.877620
 11
6.122909
 21
3.707193
 31
-2.916785
 12
6.265685
 22
3.686898
 32
-2.665675
 13
6.066522
 23
3.686898
 33
-2.592067
 62
0
  0
3DFACE
  8
Sphere
 10
6.122909
 20
3.707193
 30
-2.916785
 11
6.209298
 21
3.707193
 31
-2.990393
 12
6.428044
 22
3.686898
 32
-2.804012
 13
6.265685
 23
3.686898
 33
-2.665675
 62
0
  0
3DFACE
  8
Sphere
 10
6.209298
 20
3.707193
 30
-2.990393
 11
6.265685
 21
3.707193
 31
-3.089564
 12
6.534016
 22
3.686898
 32
-2.990393
 13
6.428044
 23
3.686898
 33
-2.804012
 62
0
  0
3DFACE
  8
Sphere
 10
6.265685
 20
3.707193
 30
-3.089564
 11
6.285268
 21
3.707193
 31
-3.202338
 12
6.570820
 22
3.686898
 32
-3.202338
 13
6.534016
 23
3.686898
 33
-2.990393
 62
0
  0
3DFACE
  8
Sphere
 10
6.570820
 20
3.686898
 30
-3.202338
 11
6.534016
 21
3.686898
 31
-3.414282
 12
6.733179
 22
3.655805
 32
-3.487890
 13
6.782764
 23
3.655805
 33
-3.202338
 62
0
  0
3DFACE
  8
Sphere
 10
6.534016
 20
3.686898
 30
-3.414282
 11
6.428044
 21
3.686898
 31
-3.600663
 12
6.590403
 22
3.655805
 32
-3.739000
 13
6.733179
 23
3.655805
 33
-3.487890
 62
0
  0
3DFACE
  8
Sphere
 10
6.428044
 20
3.686898
 30
-3.600663
 11
6.265685
 21
3.686898
 31
-3.739000
 12
6.371657
 22
3.655805
 32
-3.925381
 13
6.590403
 23
3.655805
 33
-3.739000
 62
0
  0
3DFACE
  8
Sphere
 10
6.265685
 20
3.686898
 30
-3.739000
 11
6.066522
 21
3.686898
 31
-3.812608
 12
6.103326
 22
3.655805
 32
-4.024552
 13
6.371657
 23
3.655805
 33
-3.925381
 62
0
  0
3DFACE
  8
Sphere
 10
6.066522
 20
3.686898
 30
-3.812608
 11
5.854578
 21
3.686898
 31
-3.812608
 12
5.817774
 22
3.655805
 32
-4.024552
 13
6.103326
 23
3.655805
 33
-4.024552
 62
0
  0
3DFACE
  8
Sphere
 10
5.854578
 20
3.686898
 30
-3.812608
 11
5.655415
 21
3.686898
 31
-3.739000
 12
5.549443
 22
3.655805
 32
-3.925381
 13
5.817774
 23
3.655805
 33
-4.024552
 62
0
  0
3DFACE
  8
Sphere
 10
5.655415
 20
3.686898
 30
-3.739000
 11
5.493056
 21
3.686898
 31
-3.600663
 12
5.330697
 22
3.655805
 32
-3.739000
 13
5.549443
 23
3.655805
 33
-3.925381
 62
0
  0
3DFACE
  8
Sphere
 10
5.493056
 20
3.686898
 30
-3.600663
 11
5.387084
 21
3.686898
 31
-3.414282
 12
5.187921
 22
3.655805
 32
-3.487890
 13
5.330697
 23
3.655805
 33
-3.739000
 62
0
  0
3DFACE
  8
Sphere
 10
5.387084
 20
3.686898
 30
-3.414282
 11
5.350280
 21
3.686898
 31
-3.202338
 12
5.138335
 22
3.655805
 32
-3.202338
 13
5.187921
 23
3.655805
 33
-3.487890
 62
0
  0
3DFACE
  8
Sphere
 10
5.350280
 20
3.686898
 30
-3.202338
 11
5.387084
 21
3.686898
 31
-2.990393
 12
5.187921
 22
3.655805
 32
-2.916785
 13
5.138335
 23
3.655805
 33
-3.202338
 62
0
  0
3DFACE
  8
Sphere
 10
5.387084
 20
3.686898
 30
-2.990393
 11
5.493056
 21
3.686898
 31
-2.804012
 12
5.330697
 22
3.655805
 32
-2.665675
 13
5.187921
 23
3.655805
 33
-2.916785
 62
0
  0
3DFACE
  8
Sphere
 10
5.493056
 20
3.686898
 30
-2.804012
 11
5.655415
 21
3.686898
 31
-2.665675
 12
5.549443
 22
3.655805
 32
-2.479294
 13
5.330697
 23
3.655805
 33
-2.665675
 62
0
  0
3DFACE
  8
Sphere
 10
5.655415
 20
3.686898
 30
-2.665675
 11
5.854578
 21
3.686898
 31
-2.592067
 12
5.817774
 22
3.655805
 32
-2.380123
 13
5.549443
 23
3.655805
 33
-2.479294
 62
0
  0
3DFACE
  8
Sphere
 10
5.854578
 20
3.686898
 30
-2.592067
 11
6.066522
 21
3.686898
 31
-2.592067
 12
6.103326
 22
3.655805
 32
-2.380123
 13
5.817774
 23
3.655805
 33
-2.380123
 62
0
  0
3DFACE
  8
Sphere
 10
6.066522
 20
3.686898
 30
-2.592067
 11
6.265685
 21
3.686898
 31
-2.665675
 12
6.371657
 22
3.655805
 32
-2.479294
 13
6.103326
 23
3.655805
 33
-2.380123
 62
0
  0
3DFACE
  8
Sphere
 10
6.265685
 20
3.686898
 30
-2.665675
 11
6.428044
 21
3.686898
 31
-2.804012
 12
6.590403
 22
3.655805
 32
-2.665675
 13
6.371657
 23
3.655805
 33
-2.479294
 62
0
  0
3DFACE
  8
Sphere
 10
6.428044
 20
3.686898
 30
-2.804012
 11
6.534016
 21
3.686898
 31
-2.990393
 12
6.733179
 22
3.655805
 32
-2.916785
 13
6.590403
 23
3.655805
 33
-2.665675
 62
0
  0
3DFACE
  8
Sphere
 10
6.534016
 20
3.686898
 30
-2.990393
 11
6.570820
 21
3.686898
 31
-3.202338
 12
6.782764
 22
3.655805
 32
-3.202338
 13
6.733179
 23
3.655805
 33
-2.916785
 62
0
  0
3DFACE
  8
Sphere
 10
6.782764
 20
3.655805
 30
-3.202338
 11
6.733179
 21
3.655805
 31
-3.487890
 12
6.839151
 22
3.617663
 32
-3.527056
 13
6.895537
 23
3.617663
 33
-3.202338
 62
0
  0
3DFACE
  8
Sphere
 10
6.733179
 20
3.655805
 30
-3.487890
 11
6.590403
 21
3.655805
 31
-3.739000
 12
6.676792
 22
3.617663
 32
-3.812608
 13
6.839151
 23
3.617663
 33
-3.527056
 62
0
  0
3DFACE
  8
Sphere
 10
6.590403
 20
3.655805
 30
-3.739000
 11
6.371657
 21
3.655805
 31
-3.925381
 12
6.428044
 22
3.617663
 32
-4.024552
 13
6.676792
 23
3.617663
 33
-3.812608
 62
0
  0
3DFACE
  8
Sphere
 10
6.371657
 20
3.655805
 30
-3.925381
 11
6.103326
 21
3.655805
 31
-4.024552
 12
6.122909
 22
3.617663
 32
-4.137326
 13
6.428044
 23
3.617663
 33
-4.024552
 62
0
  0
3DFACE
  8
Sphere
 10
6.103326
 20
3.655805
 30
-4.024552
 11
5.817774
 21
3.655805
 31
-4.024552
 12
5.798191
 22
3.617663
 32
-4.137326
 13
6.122909
 23
3.617663
 33
-4.137326
 62
0
  0
3DFACE
  8
Sphere
 10
5.817774
 20
3.655805
 30
-4.024552
 11
5.549443
 21
3.655805
 31
-3.925381
 12
5.493056
 22
3.617663
 32
-4.024552
 13
5.798191
 23
3.617663
 33
-4.137326
 62
0
  0
3DFACE
  8
Sphere
 10
5.549443
 20
3.655805
 30
-3.925381
 11
5.330697
 21
3.655805
 31
-3.739000
 12
5.244308
 22
3.617663
 32
-3.812608
 13
5.493056
 23
3.617663
 33
-4.024552
 62
0
  0
3DFACE
  8
Sphere
 10
5.330697
 20
3.655805
 30
-3.739000
 11
5.187921
 21
3.655805
 31
-3.487890
 12
5.081949
 22
3.617663
 32
-3.527056
 13
5.244308
 23
3.617663
 33
-3.812608
 62
0
  0
3DFACE
  8
Sphere
 10
5.187921
 20
3.655805
 30
-3.487890
 11
5.138335
 21
3.655805
 31
-3.202338
 12
5.025562
 22
3.617663
 32
-3.202338
 13
5.081949
 23
3.617663
 33
-3.527056
 62
0
  0
3DFACE
  8
Sphere
 10
5.138335
 20
3.655805
 30
-3.202338
 11
5.187921
 21
3.655805
 31
-2.916785
 12
5.081949
 22
3.617663
 32
-2.877620
 13
5.025562
 23
3.617663
 33
-3.202338
 62
0
  0
3DFACE
  8
Sphere
 10
5.187921
 20
3.655805
 30
-2.916785
 11
5.330697
 21
3.655805
 31
-2.665675
 12
5.244308
 22
3.617663
 32
-2.592067
 13
5.081949
 23
3.617663
 33
-2.877620
 62
0
  0
3DFACE
  8
Sphere
 10
5.330697
 20
3.655805
 30
-2.665675
 11
5.549443
 21
3.655805
 31
-2.479294
 12
5.493056
 22
3.617663
 32
-2.380123
 13
5.244308
 23
3.617663
 33
-2.592067
 62
0
  0
3DFACE
  8
Sphere
 10
5.549443
 20
3.655805
 30
-2.479294
 11
5.817774
 21
3.655805
 31
-2.380123
 12
5.798191
 22
3.617663
 32
-2.267349
 13
5.493056
 23
3.617663
 33
-2.380123
 62
0
  0
3DFACE
  8
Sphere
 10
5.817774
 20
3.655805
 30
-2.380123
 11
6.103326
 21
3.655805
 31
-2.380123
 12
6.122909
 22
3.617663
 32
-2.267349
 13
5.798191
 23
3.617663
 33
-2.267349
 62
0
  0
3DFACE
  8
Sphere
 10
6.103326
 20
3.655805
 30
-2.380123
 11
6.371657
 21
3.655805
 31
-2.479294
 12
6.428044
 22
3.617663
 32
-2.380123
 13
6.122909
 23
3.617663
 33
-2.267349
 62
0
  0
3DFACE
  8
Sphere
 10
6.371657
 20
3.655805
 30
-2.479294
 11
6.590403
 21
3.655805
 31
-2.665675
 12
6.676792
 22
3.617663
 32
-2.592067
 13
6.428044
 23
3.617663
 33
-2.380123
 62
0
  0
3DFACE
  8
Sphere
 10
6.590403
 20
3.655805
 30
-2.665675
 11
6.733179
 21
3.655805
 31
-2.916785
 12
6.839151
 22
3.617663
 32
-2.877620
 13
6.676792
 23
3.617663
 33
-2.592067
 62
0
  0
3DFACE
  8
Sphere
 10
6.733179
 20
3.655805
 30
-2.916785
 11
6.782764
 21
3.655805
 31
-3.202338
 12
6.895537
 22
3.617663
 32
-3.202338
 13
6.839151
 23
3.617663
 33
-2.877620
 62
0
  0
3DFACE
  8
Sphere
 10
6.895537
 20
3.617663
 30
-3.202338
 11
6.839151
 21
3.617663
 31
-3.527056
 12
6.839151
 22
3.577073
 32
-3.527056
 13
6.895537
 23
3.577073
 33
-3.202338
 62
0
  0
3DFACE
  8
Sphere
 10
6.839151
 20
3.617663
 30
-3.527056
 11
6.676792
 21
3.617663
 31
-3.812608
 12
6.676792
 22
3.577073
 32
-3.812608
 13
6.839151
 23
3.577073
 33
-3.527056
 62
0
  0
3DFACE
  8
Sphere
 10
6.676792
 20
3.617663
 30
-3.812608
 11
6.428044
 21
3.617663
 31
-4.024552
 12
6.428044
 22
3.577073
 32
-4.024552
 13
6.676792
 23
3.577073
 33
-3.812608
 62
0
  0
3DFACE
  8
Sphere
 10
6.428044
 20
3.617663
 30
-4.024552
 11
6.122909
 21
3.617663
 31
-4.137326
 12
6.122909
 22
3.577073
 32
-4.137326
 13
6.428044
 23
3.577073
 33
-4.024552
 62
0
  0
3DFACE
  8
Sphere
 10
6.122909
 20
3.617663
 30
-4.137326
 11
5.798191
 21
3.617663
 31
-4.137326
 12
5.798191
 22
3.577073
 32
-4.137326
 13
6.122909
 23
3.577073
 33
-4.137326
 62
0
  0
3DFACE
  8
Sphere
 10
5.798191
 20
3.617663
 30
-4.137326
 11
5.493056
 21
3.617663
 31
-4.024552
 12
5.493056
 22
3.577073
 32
-4.024552
 13
5.798191
 23
3.577073
 33
-4.137326
 62
0
  0
3DFACE
  8
Sphere
 10
5.493056
 20
3.617663
 30
-4.024552
 11
5.244308
 21
3.617663
 31
-3.812608
 12
5.244308
 22
3.577073
 32
-3.812608
 13
5.493056
 23
3.577073
 33
-4.024552
 62
0
  0
3DFACE
  8
Sphere
 10
5.244308
 20
3.617663
 30
-3.812608
 11
5.081949
 21
3.617663
 31
-3.527056
 12
5.081949
 22
3.577073
 32
-3.527056
 13
5.244308
 23
3.577073
 33
-3.812608
 62
0
  0
3DFACE
  8
Sphere
 10
5.081949
 20
3.617663
 30
-3.527056
 11
5.025562
 21
3.617663
 31
-3.202338
 12
5.025562
 22
3.577073
 32
-3.202338
 13
5.081949
 23
3.577073
 33
-3.527056
 62
0
  0
3DFACE
  8
Sphere
 10
5.025562
 20
3.617663
 30
-3.202338
 11
5.081949
 21
3.617663
 31
-2.877620
 12
5.081949
 22
3.577073
 32
-2.877620
 13
5.025562
 23
3.577073
 33
-3.202338
 62
0
  0
3DFACE
  8
Sphere
 10
5.081949
 20
3.617663
 30
-2.877620
 11
5.244308
 21
3.617663
 31
-2.592067
 12
5.244308
 22
3.577073
 32
-2.592067
 13
5.081949
 23
3.577073
 33
-2.877620
 62
0
  0
3DFACE
  8
Sphere
 10
5.244308
 20
3.617663
 30
-2.592067
 11
5.493056
 21
3.617663
 31
-2.380123
 12
5.493056
 22
3.577073
 32
-2.380122
 13
5.244308
 23
3.577073
 33
-2.592067
 62
0
  0
3DFACE
  8
Sphere
 10
5.493056
 20
3.617663
 30
-2.380123
 11
5.798191
 21
3.617663
 31
-2.267349
 12
5.798191
 22
3.577073
 32
-2.267349
 13
5.493056
 23
3.577073
 33
-2.380122
 62
0
  0
3DFACE
  8
Sphere
 10
5.798191
 20
3.617663
 30
-2.267349
 11
6.122909
 21
3.617663
 31
-2.267349
 12
6.122909
 22
3.577073
 32
-2.267349
 13
5.798191
 23
3.577073
 33
-2.267349
 62
0
  0
3DFACE
  8
Sphere
 10
6.122909
 20
3.617663
 30
-2.267349
 11
6.428044
 21
3.617663
 31
-2.380123
 12
6.428044
 22
3.577073
 32
-2.380122
 13
6.122909
 23
3.577073
 33
-2.267349
 62
0
  0
3DFACE
  8
Sphere
 10
6.428044
 20
3.617663
 30
-2.380123
 11
6.676792
 21
3.617663
 31
-2.592067
 12
6.676792
 22
3.577073
 32
-2.592067
 13
6.428044
 23
3.577073
 33
-2.380122
 62
0
  0
3DFACE
  8
Sphere
 10
6.676792
 20
3.617663
 30
-2.592067
 11
6.839151
 21
3.617663
 31
-2.877620
 12
6.839151
 22
3.577073
 32
-2.877620
 13
6.676792
 23
3.577073
 33
-2.592067
 62
0
  0
3DFACE
  8
Sphere
 10
6.839151
 20
3.617663
 30
-2.877620
 11
6.895537
 21
3.617663
 31
-3.202338
 12
6.895537
 22
3.577073
 32
-3.202338
 13
6.839151
 23
3.577073
 33
-2.877620
 62
0
  0
3DFACE
  8
Sphere
 10
6.895537
 20
3.577073
 30
-3.202338
 11
6.839151
 21
3.577073
 31
-3.527056
 12
6.733179
 22
3.538931
 32
-3.487890
 13
6.782764
 23
3.538931
 33
-3.202338
 62
0
  0
3DFACE
  8
Sphere
 10
6.839151
 20
3.577073
 30
-3.527056
 11
6.676792
 21
3.577073
 31
-3.812608
 12
6.590403
 22
3.538931
 32
-3.739000
 13
6.733179
 23
3.538931
 33
-3.487890
 62
0
  0
3DFACE
  8
Sphere
 10
6.676792
 20
3.577073
 30
-3.812608
 11
6.428044
 21
3.577073
 31
-4.024552
 12
6.371657
 22
3.538931
 32
-3.925381
 13
6.590403
 23
3.538931
 33
-3.739000
 62
0
  0
3DFACE
  8
Sphere
 10
6.428044
 20
3.577073
 30
-4.024552
 11
6.122909
 21
3.577073
 31
-4.137326
 12
6.103326
 22
3.538931
 32
-4.024552
 13
6.371657
 23
3.538931
 33
-3.925381
 62
0
  0
3DFACE
  8
Sphere
 10
6.122909
 20
3.577073
 30
-4.137326
 11
5.798191
 21
3.577073
 31
-4.137326
 12
5.817774
 22
3.538931
 32
-4.024552
 13
6.103326
 23
3.538931
 33
-4.024552
 62
0
  0
3DFACE
  8
Sphere
 10
5.798191
 20
3.577073
 30
-4.137326
 11
5.493056
 21
3.577073
 31
-4.024552
 12
5.549443
 22
3.538931
 32
-3.925381
 13
5.817774
 23
3.538931
 33
-4.024552
 62
0
  0
3DFACE
  8
Sphere
 10
5.493056
 20
3.577073
 30
-4.024552
 11
5.244308
 21
3.577073
 31
-3.812608
 12
5.330697
 22
3.538931
 32
-3.739000
 13
5.549443
 23
3.538931
 33
-3.925381
 62
0
  0
3DFACE
  8
Sphere
 10
5.244308
 20
3.577073
 30
-3.812608
 11
5.081949
 21
3.577073
 31
-3.527056
 12
5.187921
 22
3.538931
 32
-3.487890
 13
5.330697
 23
3.538931
 33
-3.739000
 62
0
  0
3DFACE
  8
Sphere
 10
5.081949
 20
3.577073
 30
-3.527056
 11
5.025562
 21
3.577073
 31
-3.202338
 12
5.138335
 22
3.538931
 32
-3.202338
 13
5.187921
 23
3.538931
 33
-3.487890
 62
0
  0
3DFACE
  8
Sphere
 10
5.025562
 20
3.577073
 30
-3.202338
 11
5.081949
 21
3.577073
 31
-2.877620
 12
5.187921
 22
3.538931
 32
-2.916785
 13
5.138335
 23
3.538931
 33
-3.202338
 62
0
  0
3DFACE
  8
Sphere
 10
5.081949
 20
3.577073
 30
-2.877620
 11
5.244308
 21
3.577073
 31
-2.592067
 12
5.330697
 22
3.538931
 32
-2.665675
 13
5.187921
 23
3.538931
 33
-2.916785
 62
0
  0
3DFACE
  8
Sphere
 10
5.244308
 20
3.577073
 30
-2.592067
 11
5.493056
 21
3.577073
 31
-2.380122
 12
5.549443
 22
3.538931
 32
-2.479294
 13
5.330697
 23
3.538931
 33
-2.665675
 62
0
  0
3DFACE
  8
Sphere
 10
5.493056
 20
3.577073
 30
-2.380122
 11
5.798191
 21
3.577073
 31
-2.267349
 12
5.817774
 22
3.538931
 32
-2.380123
 13
5.549443
 23
3.538931
 33
-2.479294
 62
0
  0
3DFACE
  8
Sphere
 10
5.798191
 20
3.577073
 30
-2.267349
 11
6.122909
 21
3.577073
 31
-2.267349
 12
6.103326
 22
3.538931
 32
-2.380123
 13
5.817774
 23
3.538931
 33
-2.380123
 62
0
  0
3DFACE
  8
Sphere
 10
6.122909
 20
3.577073
 30
-2.267349
 11
6.428044
 21
3.577073
 31
-2.380122
 12
6.371657
 22
3.538931
 32
-2.479294
 13
6.103326
 23
3.538931
 33
-2.380123
 62
0
  0
3DFACE
  8
Sphere
 10
6.428044
 20
3.577073
 30
-2.380122
 11
6.676792
 21
3.577073
 31
-2.592067
 12
6.590403
 22
3.538931
 32
-2.665675
 13
6.371657
 23
3.538931
 33
-2.479294
 62
0
  0
3DFACE
  8
Sphere
 10
6.676792
 20
3.577073
 30
-2.592067
 11
6.839151
 21
3.577073
 31
-2.877620
 12
6.733179
 22
3.538931
 32
-2.916785
 13
6.590403
 23
3.538931
 33
-2.665675
 62
0
  0
3DFACE
  8
Sphere
 10
6.839151
 20
3.577073
 30
-2.877620
 11
6.895537
 21
3.577073
 31
-3.202338
 12
6.782764
 22
3.538931
 32
-3.202338
 13
6.733179
 23
3.538931
 33
-2.916785
 62
0
  0
3DFACE
  8
Sphere
 10
6.782764
 20
3.538931
 30
-3.202338
 11
6.733179
 21
3.538931
 31
-3.487890
 12
6.534016
 22
3.507838
 32
-3.414282
 13
6.570820
 23
3.507838
 33
-3.202338
 62
0
  0
3DFACE
  8
Sphere
 10
6.733179
 20
3.538931
 30
-3.487890
 11
6.590403
 21
3.538931
 31
-3.739000
 12
6.428044
 22
3.507838
 32
-3.600663
 13
6.534016
 23
3.507838
 33
-3.414282
 62
0
  0
3DFACE
  8
Sphere
 10
6.590403
 20
3.538931
 30
-3.739000
 11
6.371657
 21
3.538931
 31
-3.925381
 12
6.265685
 22
3.507838
 32
-3.739000
 13
6.428044
 23
3.507838
 33
-3.600663
 62
0
  0
3DFACE
  8
Sphere
 10
6.371657
 20
3.538931
 30
-3.925381
 11
6.103326
 21
3.538931
 31
-4.024552
 12
6.066522
 22
3.507838
 32
-3.812608
 13
6.265685
 23
3.507838
 33
-3.739000
 62
0
  0
3DFACE
  8
Sphere
 10
6.103326
 20
3.538931
 30
-4.024552
 11
5.817774
 21
3.538931
 31
-4.024552
 12
5.854578
 22
3.507838
 32
-3.812608
 13
6.066522
 23
3.507838
 33
-3.812608
 62
0
  0
3DFACE
  8
Sphere
 10
5.817774
 20
3.538931
 30
-4.024552
 11
5.549443
 21
3.538931
 31
-3.925381
 12
5.655415
 22
3.507838
 32
-3.739000
 13
5.854578
 23
3.507838
 33
-3.812608
 62
0
  0
3DFACE
  8
Sphere
 10
5.549443
 20
3.538931
 30
-3.925381
 11
5.330697
 21
3.538931
 31
-3.739000
 12
5.493056
 22
3.507838
 32
-3.600663
 13
5.655415
 23
3.507838
 33
-3.739000
 62
0
  0
3DFACE
  8
Sphere
 10
5.330697
 20
3.538931
 30
-3.739000
 11
5.187921
 21
3.538931
 31
-3.487890
 12
5.387084
 22
3.507838
 32
-3.414282
 13
5.493056
 23
3.507838
 33
-3.600663
 62
0
  0
3DFACE
  8
Sphere
 10
5.187921
 20
3.538931
 30
-3.487890
 11
5.138335
 21
3.538931
 31
-3.202338
 12
5.350280
 22
3.507838
 32
-3.202338
 13
5.387084
 23
3.507838
 33
-3.414282
 62
0
  0
3DFACE
  8
Sphere
 10
5.138335
 20
3.538931
 30
-3.202338
 11
5.187921
 21
3.538931
 31
-2.916785
 12
5.387084
 22
3.507838
 32
-2.990393
 13
5.350280
 23
3.507838
 33
-3.202338
 62
0
  0
3DFACE
  8
Sphere
 10
5.187921
 20
3.538931
 30
-2.916785
 11
5.330697
 21
3.538931
 31
-2.665675
 12
5.493056
 22
3.507838
 32
-2.804012
 13
5.387084
 23
3.507838
 33
-2.990393
 62
0
  0
3DFACE
  8
Sphere
 10
5.330697
 20
3.538931
 30
-2.665675
 11
5.549443
 21
3.538931
 31
-2.479294
 12
5.655415
 22
3.507838
 32
-2.665675
 13
5.493056
 23
3.507838
 33
-2.804012
 62
0
  0
3DFACE
  8
Sphere
 10
5.549443
 20
3.538931
 30
-2.479294
 11
5.817774
 21
3.538931
 31
-2.380123
 12
5.854578
 22
3.507838
 32
-2.592067
 13
5.655415
 23
3.507838
 33
-2.665675
 62
0
  0
3DFACE
  8
Sphere
 10
5.817774
 20
3.538931
 30
-2.380123
 11
6.103326
 21
3.538931
 31
-2.380123
 12
6.066522
 22
3.507838
 32
-2.592067
 13
5.854578
 23
3.507838
 33
-2.592067
 62
0
  0
3DFACE
  8
Sphere
 10
6.103326
 20
3.538931
 30
-2.380123
 11
6.371657
 21
3.538931
 31
-2.479294
 12
6.265685
 22
3.507838
 32
-2.665675
 13
6.066522
 23
3.507838
 33
-2.592067
 62
0
  0
3DFACE
  8
Sphere
 10
6.371657
 20
3.538931
 30
-2.479294
 11
6.590403
 21
3.538931
 31
-2.665675
 12
6.428044
 22
3.507838
 32
-2.804012
 13
6.265685
 23
3.507838
 33
-2.665675
 62
0
  0
3DFACE
  8
Sphere
 10
6.590403
 20
3.538931
 30
-2.665675
 11
6.733179
 21
3.538931
 31
-2.916785
 12
6.534016
 22
3.507838
 32
-2.990393
 13
6.428044
 23
3.507838
 33
-2.804012
 62
0
  0
3DFACE
  8
Sphere
 10
6.733179
 20
3.538931
 30
-2.916785
 11
6.782764
 21
3.538931
 31
-3.202338
 12
6.570820
 22
3.507838
 32
-3.202338
 13
6.534016
 23
3.507838
 33
-2.990393
 62
0
  0
3DFACE
  8
Sphere
 10
6.570820
 20
3.507838
 30
-3.202338
 11
6.534016
 21
3.507838
 31
-3.414282
 12
6.265685
 22
3.487543
 32
-3.315111
 13
6.285268
 23
3.487543
 33
-3.202338
 62
0
  0
3DFACE
  8
Sphere
 10
6.534016
 20
3.507838
 30
-3.414282
 11
6.428044
 21
3.507838
 31
-3.600663
 12
6.209298
 22
3.487543
 32
-3.414282
 13
6.265685
 23
3.487543
 33
-3.315111
 62
0
  0
3DFACE
  8
Sphere
 10
6.428044
 20
3.507838
 30
-3.600663
 11
6.265685
 21
3.507838
 31
-3.739000
 12
6.122909
 22
3.487543
 32
-3.487890
 13
6.209298
 23
3.487543
 33
-3.414282
 62
0
  0
3DFACE
  8
Sphere
 10
6.265685
 20
3.507838
 30
-3.739000
 11
6.066522
 21
3.507838
 31
-3.812608
 12
6.016936
 22
3.487543
 32
-3.527056
 13
6.122909
 23
3.487543
 33
-3.487890
 62
0
  0
3DFACE
  8
Sphere
 10
6.066522
 20
3.507838
 30
-3.812608
 11
5.854578
 21
3.507838
 31
-3.812608
 12
5.904163
 22
3.487543
 32
-3.527056
 13
6.016936
 23
3.487543
 33
-3.527056
 62
0
  0
3DFACE
  8
Sphere
 10
5.854578
 20
3.507838
 30
-3.812608
 11
5.655415
 21
3.507838
 31
-3.739000
 12
5.798191
 22
3.487543
 32
-3.487890
 13
5.904163
 23
3.487543
 33
-3.527056
 62
0
  0
3DFACE
  8
Sphere
 10
5.655415
 20
3.507838
 30
-3.739000
 11
5.493056
 21
3.507838
 31
-3.600663
 12
5.711802
 22
3.487543
 32
-3.414282
 13
5.798191
 23
3.487543
 33
-3.487890
 62
0
  0
3DFACE
  8
Sphere
 10
5.493056
 20
3.507838
 30
-3.600663
 11
5.387084
 21
3.507838
 31
-3.414282
 12
5.655415
 22
3.487543
 32
-3.315111
 13
5.711802
 23
3.487543
 33
-3.414282
 62
0
  0
3DFACE
  8
Sphere
 10
5.387084
 20
3.507838
 30
-3.414282
 11
5.350280
 21
3.507838
 31
-3.202338
 12
5.635832
 22
3.487543
 32
-3.202338
 13
5.655415
 23
3.487543
 33
-3.315111
 62
0
  0
3DFACE
  8
Sphere
 10
5.350280
 20
3.507838
 30
-3.202338
 11
5.387084
 21
3.507838
 31
-2.990393
 12
5.655415
 22
3.487543
 32
-3.089564
 13
5.635832
 23
3.487543
 33
-3.202338
 62
0
  0
3DFACE
  8
Sphere
 10
5.387084
 20
3.507838
 30
-2.990393
 11
5.493056
 21
3.507838
 31
-2.804012
 12
5.711802
 22
3.487543
 32
-2.990393
 13
5.655415
 23
3.487543
 33
-3.089564
 62
0
  0
3DFACE
  8
Sphere
 10
5.493056
 20
3.507838
 30
-2.804012
 11
5.655415
 21
3.507838
 31
-2.665675
 12
5.798191
 22
3.487543
 32
-2.916785
 13
5.711802
 23
3.487543
 33
-2.990393
 62
0
  0
3DFACE
  8
Sphere
 10
5.655415
 20
3.507838
 30
-2.665675
 11
5.854578
 21
3.507838
 31
-2.592067
 12
5.904163
 22
3.487543
 32
-2.877619
 13
5.798191
 23
3.487543
 33
-2.916785
 62
0
  0
3DFACE
  8
Sphere
 10
5.854578
 20
3.507838
 30
-2.592067
 11
6.066522
 21
3.507838
 31
-2.592067
 12
6.016936
 22
3.487543
 32
-2.877619
 13
5.904163
 23
3.487543
 33
-2.877619
 62
0
  0
3DFACE
  8
Sphere
 10
6.066522
 20
3.507838
 30
-2.592067
 11
6.265685
 21
3.507838
 31
-2.665675
 12
6.122909
 22
3.487543
 32
-2.916785
 13
6.016936
 23
3.487543
 33
-2.877619
 62
0
  0
3DFACE
  8
Sphere
 10
6.265685
 20
3.507838
 30
-2.665675
 11
6.428044
 21
3.507838
 31
-2.804012
 12
6.209298
 22
3.487543
 32
-2.990393
 13
6.122909
 23
3.487543
 33
-2.916785
 62
0
  0
3DFACE
  8
Sphere
 10
6.428044
 20
3.507838
 30
-2.804012
 11
6.534016
 21
3.507838
 31
-2.990393
 12
6.265685
 22
3.487543
 32
-3.089564
 13
6.209298
 23
3.487543
 33
-2.990393
 62
0
  0
3DFACE
  8
Sphere
 10
6.534016
 20
3.507838
 30
-2.990393
 11
6.570820
 21
3.507838
 31
-3.202338
 12
6.285268
 22
3.487543
 32
-3.202338
 13
6.265685
 23
3.487543
 33
-3.089564
 62
0
  0
3DFACE
  8
Sphere
 10
6.285268
 20
3.487543
 30
-3.202338
 11
6.265685
 21
3.487543
 31
-3.315111
 12
5.960550
 22
3.480494
 32
-3.202338
 13
5.960550
 23
3.480494
 33
-3.202338
 62
0
  0
3DFACE
  8
Sphere
 10
6.265685
 20
3.487543
 30
-3.315111
 11
6.209298
 21
3.487543
 31
-3.414282
 12
5.960550
 22
3.480494
 32
-3.202338
 13
5.960550
 23
3.480494
 33
-3.202338
 62
0
  0
3DFACE
  8
Sphere
 10
6.209298
 20
3.487543
 30
-3.414282
 11
6.122909
 21
3.487543
 31
-3.487890
 12
5.960550
 22
3.480494
 32
-3.202338
 13
5.960550
 23
3.480494
 33
-3.202338
 62
0
  0
3DFACE
  8
Sphere
 10
6.122909
 20
3.487543
 30
-3.487890
 11
6.016936
 21
3.487543
 31
-3.527056
 12
5.960550
 22
3.480494
 32
-3.202338
 13
5.960550
 23
3.480494
 33
-3.202338
 62
0
  0
3DFACE
  8
Sphere
 10
6.016936
 20
3.487543
 30
-3.527056
 11
5.904163
 21
3.487543
 31
-3.527056
 12
5.960550
 22
3.480494
 32
-3.202338
 13
5.960550
 23
3.480494
 33
-3.202338
 62
0
  0
3DFACE
  8
Sphere
 10
5.904163
 20
3.487543
 30
-3.527056
 11
5.798191
 21
3.487543
 31
-3.487890
 12
5.960550
 22
3.480494
 32
-3.202338
 13
5.960550
 23
3.480494
 33
-3.202338
 62
0
  0
3DFACE
  8
Sphere
 10
5.798191
 20
3.487543
 30
-3.487890
 11
5.711802
 21
3.487543
 31
-3.414282
 12
5.960550
 22
3.480494
 32
-3.202338
 13
5.960550
 23
3.480494
 33
-3.202338
 62
0
  0
3DFACE
  8
Sphere
 10
5.711802
 20
3.487543
 30
-3.414282
 11
5.655415
 21
3.487543
 31
-3.315111
 12
5.960550
 22
3.480494
 32
-3.202338
 13
5.960550
 23
3.480494
 33
-3.202338
 62
0
  0
3DFACE
  8
Sphere
 10
5.655415
 20
3.487543
 30
-3.315111
 11
5.635832
 21
3.487543
 31
-3.202338
 12
5.960550
 22
3.480494
 32
-3.202338
 13
5.960550
 23
3.480494
 33
-3.202338
 62
0
  0
3DFACE
  8
Sphere
 10
5.635832
 20
3.487543
 30
-3.202338
 11
5.655415
 21
3.487543
 31
-3.089564
 12
5.960550
 22
3.480494
 32
-3.202338
 13
5.960550
 23
3.480494
 33
-3.202338
 62
0
  0
3DFACE
  8
Sphere
 10
5.655415
 20
3.487543
 30
-3.089564
 11
5.711802
 21
3.487543
 31
-2.990393
 12
5.960550
 22
3.480494
 32
-3.202338
 13
5.960550
 23
3.480494
 33
-3.202338
 62
0
  0
3DFACE
  8
Sphere
 10
5.711802
 20
3.487543
 30
-2.990393
 11
5.798191
 21
3.487543
 31
-2.916785
 12
5.960550
 22
3.480494
 32
-3.202338
 13
5.960550
 23
3.480494
 33
-3.202338
 62
0
  0
3DFACE
  8
Sphere
 10
5.798191
 20
3.487543
 30
-2.916785
 11
5.904163
 21
3.487543
 31
-2.877619
 12
5.960550
 22
3.480494
 32
-3.202338
 13
5.960550
 23
3.480494
 33
-3.202338
 62
0
  0
3DFACE
  8
Sphere
 10
5.904163
 20
3.487543
 30
-2.877619
 11
6.016936
 21
3.487543
 31
-2.877619
 12
5.960550
 22
3.480494
 32
-3.202338
 13
5.960550
 23
3.480494
 33
-3.202338
 62
0
  0
3DFACE
  8
Sphere
 10
6.016936
 20
3.487543
 30
-2.877619
 11
6.122909
 21
3.487543
 31
-2.916785
 12
5.960550
 22
3.480494
 32
-3.202338
 13
5.960550
 23
3.480494
 33
-3.202338
 62
0
  0
3DFACE
  8
Sphere
 10
6.122909
 20
3.487543
 30
-2.916785
 11
6.209298
 21
3.487543
 31
-2.990393
 12
5.960550
 22
3.480494
 32
-3.202338
 13
5.960550
 23
3.480494
 33
-3.202338
 62
0
  0
3DFACE
  8
Sphere
 10
6.209298
 20
3.487543
 30
-2.990393
 11
6.265685
 21
3.487543
 31
-3.089564
 12
5.960550
 22
3.480494
 32
-3.202338
 13
5.960550
 23
3.480494
 33
-3.202338
 62
0
  0
3DFACE
  8
Sphere
 10
6.265685
 20
3.487543
 30
-3.089564
 11
6.285268
 21
3.487543
 31
-3.202338
 12
5.960550
 22
3.480494
 32
-3.202338
 13
5.960550
 23
3.480494
 33
-3.202338
 62
0
  0
3DFACE
  8
Sphere1
 10
5.960550
 20
4.990493
 30
-3.202338
 11
6.265685
 21
4.969348
 31
-3.315111
 12
6.285268
 22
4.969348
 32
-3.202338
 13
6.285268
 23
4.969348
 33
-3.202338
 62
0
  0
3DFACE
  8
Sphere1
 10
5.960550
 20
4.990493
 30
-3.202338
 11
6.209298
 21
4.969348
 31
-3.414282
 12
6.265685
 22
4.969348
 32
-3.315111
 13
6.265685
 23
4.969348
 33
-3.315111
 62
0
  0
3DFACE
  8
Sphere1
 10
5.960550
 20
4.990493
 30
-3.202338
 11
6.122909
 21
4.969348
 31
-3.487890
 12
6.209298
 22
4.969348
 32
-3.414282
 13
6.209298
 23
4.969348
 33
-3.414282
 62
0
  0
3DFACE
  8
Sphere1
 10
5.960550
 20
4.990493
 30
-3.202338
 11
6.016936
 21
4.969348
 31
-3.527056
 12
6.122909
 22
4.969348
 32
-3.487890
 13
6.122909
 23
4.969348
 33
-3.487890
 62
0
  0
3DFACE
  8
Sphere1
 10
5.960550
 20
4.990493
 30
-3.202338
 11
5.904163
 21
4.969348
 31
-3.527056
 12
6.016936
 22
4.969348
 32
-3.527056
 13
6.016936
 23
4.969348
 33
-3.527056
 62
0
  0
3DFACE
  8
Sphere1
 10
5.960550
 20
4.990493
 30
-3.202338
 11
5.798191
 21
4.969348
 31
-3.487890
 12
5.904163
 22
4.969348
 32
-3.527056
 13
5.904163
 23
4.969348
 33
-3.527056
 62
0
  0
3DFACE
  8
Sphere1
 10
5.960550
 20
4.990493
 30
-3.202338
 11
5.711802
 21
4.969348
 31
-3.414282
 12
5.798191
 22
4.969348
 32
-3.487890
 13
5.798191
 23
4.969348
 33
-3.487890
 62
0
  0
3DFACE
  8
Sphere1
 10
5.960550
 20
4.990493
 30
-3.202338
 11
5.655415
 21
4.969348
 31
-3.315111
 12
5.711802
 22
4.969348
 32
-3.414282
 13
5.711802
 23
4.969348
 33
-3.414282
 62
0
  0
3DFACE
  8
Sphere1
 10
5.960550
 20
4.990493
 30
-3.202338
 11
5.635832
 21
4.969348
 31
-3.202338
 12
5.655415
 22
4.969348
 32
-3.315111
 13
5.655415
 23
4.969348
 33
-3.315111
 62
0
  0
3DFACE
  8
Sphere1
 10
5.960550
 20
4.990493
 30
-3.202338
 11
5.655415
 21
4.969348
 31
-3.089564
 12
5.635832
 22
4.969348
 32
-3.202338
 13
5.635832
 23
4.969348
 33
-3.202338
 62
0
  0
3DFACE
  8
Sphere1
 10
5.960550
 20
4.990493
 30
-3.202338
 11
5.711802
 21
4.969348
 31
-2.990393
 12
5.655415
 22
4.969348
 32
-3.089564
 13
5.655415
 23
4.969348
 33
-3.089564
 62
0
  0
3DFACE
  8
Sphere1
 10
5.960550
 20
4.990493
 30
-3.202338
 11
5.798191
 21
4.969348
 31
-2.916785
 12
5.711802
 22
4.969348
 32
-2.990393
 13
5.711802
 23
4.969348
 33
-2.990393
 62
0
  0
3DFACE
  8
Sphere1
 10
5.960550
 20
4.990493
 30
-3.202338
 11
5.904163
 21
4.969348
 31
-2.877620
 12
5.798191
 22
4.969348
 32
-2.916785
 13
5.798191
 23
4.969348
 33
-2.916785
 62
0
  0
3DFACE
  8
Sphere1
 10
5.960550
 20
4.990493
 30
-3.202338
 11
6.016936
 21
4.969348
 31
-2.877620
 12
5.904163
 22
4.969348
 32
-2.877620
 13
5.904163
 23
4.969348
 33
-2.877620
 62
0
  0
3DFACE
  8
Sphere1
 10
5.960550
 20
4.990493
 30
-3.202338
 11
6.122909
 21
4.969348
 31
-2.916785
 12
6.016936
 22
4.969348
 32
-2.877620
 13
6.016936
 23
4.969348
 33
-2.877620
 62
0
  0
3DFACE
  8
Sphere1
 10
5.960550
 20
4.990493
 30
-3.202338
 11
6.209298
 21
4.969348
 31
-2.990393
 12
6.122909
 22
4.969348
 32
-2.916785
 13
6.122909
 23
4.969348
 33
-2.916785
 62
0
  0
3DFACE
  8
Sphere1
 10
5.960550
 20
4.990493
 30
-3.202338
 11
6.265685
 21
4.969348
 31
-3.089564
 12
6.209298
 22
4.969348
 32
-2.990393
 13
6.209298
 23
4.969348
 33
-2.990393
 62
0
  0
3DFACE
  8
Sphere1
 10
5.960550
 20
4.990493
 30
-3.202338
 11
6.285268
 21
4.969348
 31
-3.202338
 12
6.265685
 22
4.969348
 32
-3.089564
 13
6.265685
 23
4.969348
 33
-3.089564
 62
0
  0
3DFACE
  8
Sphere1
 10
6.285268
 20
4.969348
 30
-3.202338
 11
6.265685
 21
4.969348
 31
-3.315111
 12
6.534016
 22
4.908463
 32
-3.414282
 13
6.570820
 23
4.908463
 33
-3.202338
 62
0
  0
3DFACE
  8
Sphere1
 10
6.265685
 20
4.969348
 30
-3.315111
 11
6.209298
 21
4.969348
 31
-3.414282
 12
6.428044
 22
4.908463
 32
-3.600663
 13
6.534016
 23
4.908463
 33
-3.414282
 62
0
  0
3DFACE
  8
Sphere1
 10
6.209298
 20
4.969348
 30
-3.414282
 11
6.122909
 21
4.969348
 31
-3.487890
 12
6.265685
 22
4.908463
 32
-3.739000
 13
6.428044
 23
4.908463
 33
-3.600663
 62
0
  0
3DFACE
  8
Sphere1
 10
6.122909
 20
4.969348
 30
-3.487890
 11
6.016936
 21
4.969348
 31
-3.527056
 12
6.066522
 22
4.908463
 32
-3.812608
 13
6.265685
 23
4.908463
 33
-3.739000
 62
0
  0
3DFACE
  8
Sphere1
 10
6.016936
 20
4.969348
 30
-3.527056
 11
5.904163
 21
4.969348
 31
-3.527056
 12
5.854578
 22
4.908463
 32
-3.812608
 13
6.066522
 23
4.908463
 33
-3.812608
 62
0
  0
3DFACE
  8
Sphere1
 10
5.904163
 20
4.969348
 30
-3.527056
 11
5.798191
 21
4.969348
 31
-3.487890
 12
5.655415
 22
4.908463
 32
-3.739000
 13
5.854578
 23
4.908463
 33
-3.812608
 62
0
  0
3DFACE
  8
Sphere1
 10
5.798191
 20
4.969348
 30
-3.487890
 11
5.711802
 21
4.969348
 31
-3.414282
 12
5.493056
 22
4.908463
 32
-3.600663
 13
5.655415
 23
4.908463
 33
-3.739000
 62
0
  0
3DFACE
  8
Sphere1
 10
5.711802
 20
4.969348
 30
-3.414282
 11
5.655415
 21
4.969348
 31
-3.315111
 12
5.387084
 22
4.908463
 32
-3.414282
 13
5.493056
 23
4.908463
 33
-3.600663
 62
0
  0
3DFACE
  8
Sphere1
 10
5.655415
 20
4.969348
 30
-3.315111
 11
5.635832
 21
4.969348
 31
-3.202338
 12
5.350280
 22
4.908463
 32
-3.202338
 13
5.387084
 23
4.908463
 33
-3.414282
 62
0
  0
3DFACE
  8
Sphere1
 10
5.635832
 20
4.969348
 30
-3.202338
 11
5.655415
 21
4.969348
 31
-3.089564
 12
5.387084
 22
4.908463
 32
-2.990393
 13
5.350280
 23
4.908463
 33
-3.202338
 62
0
  0
3DFACE
  8
Sphere1
 10
5.655415
 20
4.969348
 30
-3.089564
 11
5.711802
 21
4.969348
 31
-2.990393
 12
5.493056
 22
4.908463
 32
-2.804012
 13
5.387084
 23
4.908463
 33
-2.990393
 62
0
  0
3DFACE
  8
Sphere1
 10
5.711802
 20
4.969348
 30
-2.990393
 11
5.798191
 21
4.969348
 31
-2.916785
 12
5.655415
 22
4.908463
 32
-2.665675
 13
5.493056
 23
4.908463
 33
-2.804012
 62
0
  0
3DFACE
  8
Sphere1
 10
5.798191
 20
4.969348
 30
-2.916785
 11
5.904163
 21
4.969348
 31
-2.877620
 12
5.854578
 22
4.908463
 32
-2.592067
 13
5.655415
 23
4.908463
 33
-2.665675
 62
0
  0
3DFACE
  8
Sphere1
 10
5.904163
 20
4.969348
 30
-2.877620
 11
6.016936
 21
4.969348
 31
-2.877620
 12
6.066522
 22
4.908463
 32
-2.592067
 13
5.854578
 23
4.908463
 33
-2.592067
 62
0
  0
3DFACE
  8
Sphere1
 10
6.016936
 20
4.969348
 30
-2.877620
 11
6.122909
 21
4.969348
 31
-2.916785
 12
6.265685
 22
4.908463
 32
-2.665675
 13
6.066522
 23
4.908463
 33
-2.592067
 62
0
  0
3DFACE
  8
Sphere1
 10
6.122909
 20
4.969348
 30
-2.916785
 11
6.209298
 21
4.969348
 31
-2.990393
 12
6.428044
 22
4.908463
 32
-2.804012
 13
6.265685
 23
4.908463
 33
-2.665675
 62
0
  0
3DFACE
  8
Sphere1
 10
6.209298
 20
4.969348
 30
-2.990393
 11
6.265685
 21
4.969348
 31
-3.089564
 12
6.534016
 22
4.908463
 32
-2.990393
 13
6.428044
 23
4.908463
 33
-2.804012
 62
0
  0
3DFACE
  8
Sphere1
 10
6.265685
 20
4.969348
 30
-3.089564
 11
6.285268
 21
4.969348
 31
-3.202338
 12
6.570820
 22
4.908463
 32
-3.202338
 13
6.534016
 23
4.908463
 33
-2.990393
 62
0
  0
3DFACE
  8
Sphere1
 10
6.570820
 20
4.908463
 30
-3.202338
 11
6.534016
 21
4.908463
 31
-3.414282
 12
6.733179
 22
4.815183
 32
-3.487890
 13
6.782764
 23
4.815183
 33
-3.202338
 62
0
  0
3DFACE
  8
Sphere1
 10
6.534016
 20
4.908463
 30
-3.414282
 11
6.428044
 21
4.908463
 31
-3.600663
 12
6.590403
 22
4.815183
 32
-3.739000
 13
6.733179
 23
4.815183
 33
-3.487890
 62
0
  0
3DFACE
  8
Sphere1
 10
6.428044
 20
4.908463
 30
-3.600663
 11
6.265685
 21
4.908463
 31
-3.739000
 12
6.371657
 22
4.815183
 32
-3.925381
 13
6.590403
 23
4.815183
 33
-3.739000
 62
0
  0
3DFACE
  8
Sphere1
 10
6.265685
 20
4.908463
 30
-3.739000
 11
6.066522
 21
4.908463
 31
-3.812608
 12
6.103326
 22
4.815183
 32
-4.024552
 13
6.371657
 23
4.815183
 33
-3.925381
 62
0
  0
3DFACE
  8
Sphere1
 10
6.066522
 20
4.908463
 30
-3.812608
 11
5.854578
 21
4.908463
 31
-3.812608
 12
5.817774
 22
4.815183
 32
-4.024552
 13
6.103326
 23
4.815183
 33
-4.024552
 62
0
  0
3DFACE
  8
Sphere1
 10
5.854578
 20
4.908463
 30
-3.812608
 11
5.655415
 21
4.908463
 31
-3.739000
 12
5.549443
 22
4.815183
 32
-3.925381
 13
5.817774
 23
4.815183
 33
-4.024552
 62
0
  0
3DFACE
  8
Sphere1
 10
5.655415
 20
4.908463
 30
-3.739000
 11
5.493056
 21
4.908463
 31
-3.600663
 12
5.330697
 22
4.815183
 32
-3.739000
 13
5.549443
 23
4.815183
 33
-3.925381
 62
0
  0
3DFACE
  8
Sphere1
 10
5.493056
 20
4.908463
 30
-3.600663
 11
5.387084
 21
4.908463
 31
-3.414282
 12
5.187921
 22
4.815183
 32
-3.487890
 13
5.330697
 23
4.815183
 33
-3.739000
 62
0
  0
3DFACE
  8
Sphere1
 10
5.387084
 20
4.908463
 30
-3.414282
 11
5.350280
 21
4.908463
 31
-3.202338
 12
5.138335
 22
4.815183
 32
-3.202338
 13
5.187921
 23
4.815183
 33
-3.487890
 62
0
  0
3DFACE
  8
Sphere1
 10
5.350280
 20
4.908463
 30
-3.202338
 11
5.387084
 21
4.908463
 31
-2.990393
 12
5.187921
 22
4.815183
 32
-2.916785
 13
5.138335
 23
4.815183
 33
-3.202338
 62
0
  0
3DFACE
  8
Sphere1
 10
5.387084
 20
4.908463
 30
-2.990393
 11
5.493056
 21
4.908463
 31
-2.804012
 12
5.330697
 22
4.815183
 32
-2.665675
 13
5.187921
 23
4.815183
 33
-2.916785
 62
0
  0
3DFACE
  8
Sphere1
 10
5.493056
 20
4.908463
 30
-2.804012
 11
5.655415
 21
4.908463
 31
-2.665675
 12
5.549443
 22
4.815183
 32
-2.479294
 13
5.330697
 23
4.815183
 33
-2.665675
 62
0
  0
3DFACE
  8
Sphere1
 10
5.655415
 20
4.908463
 30
-2.665675
 11
5.854578
 21
4.908463
 31
-2.592067
 12
5.817774
 22
4.815183
 32
-2.380123
 13
5.549443
 23
4.815183
 33
-2.479294
 62
0
  0
3DFACE
  8
Sphere1
 10
5.854578
 20
4.908463
 30
-2.592067
 11
6.066522
 21
4.908463
 31
-2.592067
 12
6.103326
 22
4.815183
 32
-2.380123
 13
5.817774
 23
4.815183
 33
-2.380123
 62
0
  0
3DFACE
  8
Sphere1
 10
6.066522
 20
4.908463
 30
-2.592067
 11
6.265685
 21
4.908463
 31
-2.665675
 12
6.371657
 22
4.815183
 32
-2.479294
 13
6.103326
 23
4.815183
 33
-2.380123
 62
0
  0
3DFACE
  8
Sphere1
 10
6.265685
 20
4.908463
 30
-2.665675
 11
6.428044
 21
4.908463
 31
-2.804012
 12
6.590403
 22
4.815183
 32
-2.665675
 13
6.371657
 23
4.815183
 33
-2.479294
 62
0
  0
3DFACE
  8
Sphere1
 10
6.428044
 20
4.908463
 30
-2.804012
 11
6.534016
 21
4.908463
 31
-2.990393
 12
6.733179
 22
4.815183
 32
-2.916785
 13
6.590403
 23
4.815183
 33
-2.665675
 62
0
  0
3DFACE
  8
Sphere1
 10
6.534016
 20
4.908463
 30
-2.990393
 11
6.570820
 21
4.908463
 31
-3.202338
 12
6.782764
 22
4.815183
 32
-3.202338
 13
6.733179
 23
4.815183
 33
-2.916785
 62
0
  0
3DFACE
  8
Sphere1
 10
6.782764
 20
4.815183
 30
-3.202338
 11
6.733179
 21
4.815183
 31
-3.487890
 12
6.839151
 22
4.700757
 32
-3.527056
 13
6.895537
 23
4.700757
 33
-3.202338
 62
0
  0
3DFACE
  8
Sphere1
 10
6.733179
 20
4.815183
 30
-3.487890
 11
6.590403
 21
4.815183
 31
-3.739000
 12
6.676792
 22
4.700757
 32
-3.812608
 13
6.839151
 23
4.700757
 33
-3.527056
 62
0
  0
3DFACE
  8
Sphere1
 10
6.590403
 20
4.815183
 30
-3.739000
 11
6.371657
 21
4.815183
 31
-3.925381
 12
6.428044
 22
4.700757
 32
-4.024552
 13
6.676792
 23
4.700757
 33
-3.812608
 62
0
  0
3DFACE
  8
Sphere1
 10
6.371657
 20
4.815183
 30
-3.925381
 11
6.103326
 21
4.815183
 31
-4.024552
 12
6.122909
 22
4.700757
 32
-4.137326
 13
6.428044
 23
4.700757
 33
-4.024552
 62
0
  0
3DFACE
  8
Sphere1
 10
6.103326
 20
4.815183
 30
-4.024552
 11
5.817774
 21
4.815183
 31
-4.024552
 12
5.798191
 22
4.700757
 32
-4.137326
 13
6.122909
 23
4.700757
 33
-4.137326
 62
0
  0
3DFACE
  8
Sphere1
 10
5.817774
 20
4.815183
 30
-4.024552
 11
5.549443
 21
4.815183
 31
-3.925381
 12
5.493056
 22
4.700757
 32
-4.024552
 13
5.798191
 23
4.700757
 33
-4.137326
 62
0
  0
3DFACE
  8
Sphere1
 10
5.549443
 20
4.815183
 30
-3.925381
 11
5.330697
 21
4.815183
 31
-3.739000
 12
5.244308
 22
4.700757
 32
-3.812608
 13
5.493056
 23
4.700757
 33
-4.024552
 62
0
  0
3DFACE
  8
Sphere1
 10
5.330697
 20
4.815183
 30
-3.739000
 11
5.187921
 21
4.815183
 31
-3.487890
 12
5.081949
 22
4.700757
 32
-3.527056
 13
5.244308
 23
4.700757
 33
-3.812608
 62
0
  0
3DFACE
  8
Sphere1
 10
5.187921
 20
4.815183
 30
-3.487890
 11
5.138335
 21
4.815183
 31
-3.202338
 12
5.025562
 22
4.700757
 32
-3.202338
 13
5.081949
 23
4.700757
 33
-3.527056
 62
0
  0
3DFACE
  8
Sphere1
 10
5.138335
 20
4.815183
 30
-3.202338
 11
5.187921
 21
4.815183
 31
-2.916785
 12
5.081949
 22
4.700757
 32
-2.877620
 13
5.025562
 23
4.700757
 33
-3.202338
 62
0
  0
3DFACE
  8
Sphere1
 10
5.187921
 20
4.815183
 30
-2.916785
 11
5.330697
 21
4.815183
 31
-2.665675
 12
5.244308
 22
4.700757
 32
-2.592067
 13
5.081949
 23
4.700757
 33
-2.877620
 62
0
  0
3DFACE
  8
Sphere1
 10
5.330697
 20
4.815183
 30
-2.665675
 11
5.549443
 21
4.815183
 31
-2.479294
 12
5.493056
 22
4.700757
 32
-2.380123
 13
5.244308
 23
4.700757
 33
-2.592067
 62
0
  0
3DFACE
  8
Sphere1
 10
5.549443
 20
4.815183
 30
-2.479294
 11
5.817774
 21
4.815183
 31
-2.380123
 12
5.798191
 22
4.700757
 32
-2.267349
 13
5.493056
 23
4.700757
 33
-2.380123
 62
0
  0
3DFACE
  8
Sphere1
 10
5.817774
 20
4.815183
 30
-2.380123
 11
6.103326
 21
4.815183
 31
-2.380123
 12
6.122909
 22
4.700757
 32
-2.267349
 13
5.798191
 23
4.700757
 33
-2.267349
 62
0
  0
3DFACE
  8
Sphere1
 10
6.103326
 20
4.815183
 30
-2.380123
 11
6.371657
 21
4.815183
 31
-2.479294
 12
6.428044
 22
4.700757
 32
-2.380123
 13
6.122909
 23
4.700757
 33
-2.267349
 62
0
  0
3DFACE
  8
Sphere1
 10
6.371657
 20
4.815183
 30
-2.479294
 11
6.590403
 21
4.815183
 31
-2.665675
 12
6.676792
 22
4.700757
 32
-2.592067
 13
6.428044
 23
4.700757
 33
-2.380123
 62
0
  0
3DFACE
  8
Sphere1
 10
6.590403
 20
4.815183
 30
-2.665675
 11
6.733179
 21
4.815183
 31
-2.916785
 12
6.839151
 22
4.700757
 32
-2.877620
 13
6.676792
 23
4.700757
 33
-2.592067
 62
0
  0
3DFACE
  8
Sphere1
 10
6.733179
 20
4.815183
 30
-2.916785
 11
6.782764
 21
4.815183
 31
-3.202338
 12
6.895537
 22
4.700757
 32
-3.202338
 13
6.839151
 23
4.700757
 33
-2.877620
 62
0
  0
3DFACE
  8
Sphere1
 10
6.895537
 20
4.700757
 30
-3.202338
 11
6.839151
 21
4.700757
 31
-3.527056
 12
6.839151
 22
4.578988
 32
-3.527056
 13
6.895537
 23
4.578988
 33
-3.202338
 62
0
  0
3DFACE
  8
Sphere1
 10
6.839151
 20
4.700757
 30
-3.527056
 11
6.676792
 21
4.700757
 31
-3.812608
 12
6.676792
 22
4.578988
 32
-3.812608
 13
6.839151
 23
4.578988
 33
-3.527056
 62
0
  0
3DFACE
  8
Sphere1
 10
6.676792
 20
4.700757
 30
-3.812608
 11
6.428044
 21
4.700757
 31
-4.024552
 12
6.428044
 22
4.578988
 32
-4.024552
 13
6.676792
 23
4.578988
 33
-3.812608
 62
0
  0
3DFACE
  8
Sphere1
 10
6.428044
 20
4.700757
 30
-4.024552
 11
6.122909
 21
4.700757
 31
-4.137326
 12
6.122909
 22
4.578988
 32
-4.137326
 13
6.428044
 23
4.578988
 33
-4.024552
 62
0
  0
3DFACE
  8
Sphere1
 10
6.122909
 20
4.700757
 30
-4.137326
 11
5.798191
 21
4.700757
 31
-4.137326
 12
5.798191
 22
4.578988
 32
-4.137326
 13
6.122909
 23
4.578988
 33
-4.137326
 62
0
  0
3DFACE
  8
Sphere1
 10
5.798191
 20
4.700757
 30
-4.137326
 11
5.493056
 21
4.700757
 31
-4.024552
 12
5.493056
 22
4.578988
 32
-4.024552
 13
5.798191
 23
4.578988
 33
-4.137326
 62
0
  0
3DFACE
  8
Sphere1
 10
5.493056
 20
4.700757
 30
-4.024552
 11
5.244308
 21
4.700757
 31
-3.812608
 12
5.244308
 22
4.578988
 32
-3.812608
 13
5.493056
 23
4.578988
 33
-4.024552
 62
0
  0
3DFACE
  8
Sphere1
 10
5.244308
 20
4.700757
 30
-3.812608
 11
5.081949
 21
4.700757
 31
-3.527056
 12
5.081949
 22
4.578988
 32
-3.527056
 13
5.244308
 23
4.578988
 33
-3.812608
 62
0
  0
3DFACE
  8
Sphere1
 10
5.081949
 20
4.700757
 30
-3.527056
 11
5.025562
 21
4.700757
 31
-3.202338
 12
5.025562
 22
4.578988
 32
-3.202338
 13
5.081949
 23
4.578988
 33
-3.527056
 62
0
  0
3DFACE
  8
Sphere1
 10
5.025562
 20
4.700757
 30
-3.202338
 11
5.081949
 21
4.700757
 31
-2.877620
 12
5.081949
 22
4.578988
 32
-2.877620
 13
5.025562
 23
4.578988
 33
-3.202338
 62
0
  0
3DFACE
  8
Sphere1
 10
5.081949
 20
4.700757
 30
-2.877620
 11
5.244308
 21
4.700757
 31
-2.592067
 12
5.244308
 22
4.578988
 32
-2.592067
 13
5.081949
 23
4.578988
 33
-2.877620
 62
0
  0
3DFACE
  8
Sphere1
 10
5.244308
 20
4.700757
 30
-2.592067
 11
5.493056
 21
4.700757
 31
-2.380123
 12
5.493056
 22
4.578988
 32
-2.380122
 13
5.244308
 23
4.578988
 33
-2.592067
 62
0
  0
3DFACE
  8
Sphere1
 10
5.493056
 20
4.700757
 30
-2.380123
 11
5.798191
 21
4.700757
 31
-2.267349
 12
5.798191
 22
4.578988
 32
-2.267349
 13
5.493056
 23
4.578988
 33
-2.380122
 62
0
  0
3DFACE
  8
Sphere1
 10
5.798191
 20
4.700757
 30
-2.267349
 11
6.122909
 21
4.700757
 31
-2.267349
 12
6.122909
 22
4.578988
 32
-2.267349
 13
5.798191
 23
4.578988
 33
-2.267349
 62
0
  0
3DFACE
  8
Sphere1
 10
6.122909
 20
4.700757
 30
-2.267349
 11
6.428044
 21
4.700757
 31
-2.380123
 12
6.428044
 22
4.578988
 32
-2.380122
 13
6.122909
 23
4.578988
 33
-2.267349
 62
0
  0
3DFACE
  8
Sphere1
 10
6.428044
 20
4.700757
 30
-2.380123
 11
6.676792
 21
4.700757
 31
-2.592067
 12
6.676792
 22
4.578988
 32
-2.592067
 13
6.428044
 23
4.578988
 33
-2.380122
 62
0
  0
3DFACE
  8
Sphere1
 10
6.676792
 20
4.700757
 30
-2.592067
 11
6.839151
 21
4.700757
 31
-2.877620
 12
6.839151
 22
4.578988
 32
-2.877620
 13
6.676792
 23
4.578988
 33
-2.592067
 62
0
  0
3DFACE
  8
Sphere1
 10
6.839151
 20
4.700757
 30
-2.877620
 11
6.895537
 21
4.700757
 31
-3.202338
 12
6.895537
 22
4.578988
 32
-3.202338
 13
6.839151
 23
4.578988
 33
-2.877620
 62
0
  0
3DFACE
  8
Sphere1
 10
6.895537
 20
4.578988
 30
-3.202338
 11
6.839151
 21
4.578988
 31
-3.527056
 12
6.733179
 22
4.464562
 32
-3.487890
 13
6.782764
 23
4.464562
 33
-3.202338
 62
0
  0
3DFACE
  8
Sphere1
 10
6.839151
 20
4.578988
 30
-3.527056
 11
6.676792
 21
4.578988
 31
-3.812608
 12
6.590403
 22
4.464562
 32
-3.739000
 13
6.733179
 23
4.464562
 33
-3.487890
 62
0
  0
3DFACE
  8
Sphere1
 10
6.676792
 20
4.578988
 30
-3.812608
 11
6.428044
 21
4.578988
 31
-4.024552
 12
6.371657
 22
4.464562
 32
-3.925381
 13
6.590403
 23
4.464562
 33
-3.739000
 62
0
  0
3DFACE
  8
Sphere1
 10
6.428044
 20
4.578988
 30
-4.024552
 11
6.122909
 21
4.578988
 31
-4.137326
 12
6.103326
 22
4.464562
 32
-4.024552
 13
6.371657
 23
4.464562
 33
-3.925381
 62
0
  0
3DFACE
  8
Sphere1
 10
6.122909
 20
4.578988
 30
-4.137326
 11
5.798191
 21
4.578988
 31
-4.137326
 12
5.817774
 22
4.464562
 32
-4.024552
 13
6.103326
 23
4.464562
 33
-4.024552
 62
0
  0
3DFACE
  8
Sphere1
 10
5.798191
 20
4.578988
 30
-4.137326
 11
5.493056
 21
4.578988
 31
-4.024552
 12
5.549443
 22
4.464562
 32
-3.925381
 13
5.817774
 23
4.464562
 33
-4.024552
 62
0
  0
3DFACE
  8
Sphere1
 10
5.493056
 20
4.578988
 30
-4.024552
 11
5.244308
 21
4.578988
 31
-3.812608
 12
5.330697
 22
4.464562
 32
-3.739000
 13
5.549443
 23
4.464562
 33
-3.925381
 62
0
  0
3DFACE
  8
Sphere1
 10
5.244308
 20
4.578988
 30
-3.812608
 11
5.081949
 21
4.578988
 31
-3.527056
 12
5.187921
 22
4.464562
 32
-3.487890
 13
5.330697
 23
4.464562
 33
-3.739000
 62
0
  0
3DFACE
  8
Sphere1
 10
5.081949
 20
4.578988
 30
-3.527056
 11
5.025562
 21
4.578988
 31
-3.202338
 12
5.138335
 22
4.464562
 32
-3.202338
 13
5.187921
 23
4.464562
 33
-3.487890
 62
0
  0
3DFACE
  8
Sphere1
 10
5.025562
 20
4.578988
 30
-3.202338
 11
5.081949
 21
4.578988
 31
-2.877620
 12
5.187921
 22
4.464562
 32
-2.916785
 13
5.138335
 23
4.464562
 33
-3.202338
 62
0
  0
3DFACE
  8
Sphere1
 10
5.081949
 20
4.578988
 30
-2.877620
 11
5.244308
 21
4.578988
 31
-2.592067
 12
5.330697
 22
4.464562
 32
-2.665675
 13
5.187921
 23
4.464562
 33
-2.916785
 62
0
  0
3DFACE
  8
Sphere1
 10
5.244308
 20
4.578988
 30
-2.592067
 11
5.493056
 21
4.578988
 31
-2.380122
 12
5.549443
 22
4.464562
 32
-2.479294
 13
5.330697
 23
4.464562
 33
-2.665675
 62
0
  0
3DFACE
  8
Sphere1
 10
5.493056
 20
4.578988
 30
-2.380122
 11
5.798191
 21
4.578988
 31
-2.267349
 12
5.817774
 22
4.464562
 32
-2.380123
 13
5.549443
 23
4.464562
 33
-2.479294
 62
0
  0
3DFACE
  8
Sphere1
 10
5.798191
 20
4.578988
 30
-2.267349
 11
6.122909
 21
4.578988
 31
-2.267349
 12
6.103326
 22
4.464562
 32
-2.380123
 13
5.817774
 23
4.464562
 33
-2.380123
 62
0
  0
3DFACE
  8
Sphere1
 10
6.122909
 20
4.578988
 30
-2.267349
 11
6.428044
 21
4.578988
 31
-2.380122
 12
6.371657
 22
4.464562
 32
-2.479294
 13
6.103326
 23
4.464562
 33
-2.380123
 62
0
  0
3DFACE
  8
Sphere1
 10
6.428044
 20
4.578988
 30
-2.380122
 11
6.676792
 21
4.578988
 31
-2.592067
 12
6.590403
 22
4.464562
 32
-2.665675
 13
6.371657
 23
4.464562
 33
-2.479294
 62
0
  0
3DFACE
  8
Sphere1
 10
6.676792
 20
4.578988
 30
-2.592067
 11
6.839151
 21
4.578988
 31
-2.877620
 12
6.733179
 22
4.464562
 32
-2.916785
 13
6.590403
 23
4.464562
 33
-2.665675
 62
0
  0
3DFACE
  8
Sphere1
 10
6.839151
 20
4.578988
 30
-2.877620
 11
6.895537
 21
4.578988
 31
-3.202338
 12
6.782764
 22
4.464562
 32
-3.202338
 13
6.733179
 23
4.464562
 33
-2.916785
 62
0
  0
3DFACE
  8
Sphere1
 10
6.782764
 20
4.464562
 30
-3.202338
 11
6.733179
 21
4.464562
 31
-3.487890
 12
6.534016
 22
4.371282
 32
-3.414282
 13
6.570820
 23
4.371282
 33
-3.202338
 62
0
  0
3DFACE
  8
Sphere1
 10
6.733179
 20
4.464562
 30
-3.487890
 11
6.590403
 21
4.464562
 31
-3.739000
 12
6.428044
 22
4.371282
 32
-3.600663
 13
6.534016
 23
4.371282
 33
-3.414282
 62
0
  0
3DFACE
  8
Sphere1
 10
6.590403
 20
4.464562
 30
-3.739000
 11
6.371657
 21
4.464562
 31
-3.925381
 12
6.265685
 22
4.371282
 32
-3.739000
 13
6.428044
 23
4.371282
 33
-3.600663
 62
0
  0
3DFACE
  8
Sphere1
 10
6.371657
 20
4.464562
 30
-3.925381
 11
6.103326
 21
4.464562
 31
-4.024552
 12
6.066522
 22
4.371282
 32
-3.812608
 13
6.265685
 23
4.371282
 33
-3.739000
 62
0
  0
3DFACE
  8
Sphere1
 10
6.103326
 20
4.464562
 30
-4.024552
 11
5.817774
 21
4.464562
 31
-4.024552
 12
5.854578
 22
4.371282
 32
-3.812608
 13
6.066522
 23
4.371282
 33
-3.812608
 62
0
  0
3DFACE
  8
Sphere1
 10
5.817774
 20
4.464562
 30
-4.024552
 11
5.549443
 21
4.464562
 31
-3.925381
 12
5.655415
 22
4.371282
 32
-3.739000
 13
5.854578
 23
4.371282
 33
-3.812608
 62
0
  0
3DFACE
  8
Sphere1
 10
5.549443
 20
4.464562
 30
-3.925381
 11
5.330697
 21
4.464562
 31
-3.739000
 12
5.493056
 22
4.371282
 32
-3.600663
 13
5.655415
 23
4.371282
 33
-3.739000
 62
0
  0
3DFACE
  8
Sphere1
 10
5.330697
 20
4.464562
 30
-3.739000
 11
5.187921
 21
4.464562
 31
-3.487890
 12
5.387084
 22
4.371282
 32
-3.414282
 13
5.493056
 23
4.371282
 33
-3.600663
 62
0
  0
3DFACE
  8
Sphere1
 10
5.187921
 20
4.464562
 30
-3.487890
 11
5.138335
 21
4.464562
 31
-3.202338
 12
5.350280
 22
4.371282
 32
-3.202338
 13
5.387084
 23
4.371282
 33
-3.414282
 62
0
  0
3DFACE
  8
Sphere1
 10
5.138335
 20
4.464562
 30
-3.202338
 11
5.187921
 21
4.464562
 31
-2.916785
 12
5.387084
 22
4.371282
 32
-2.990393
 13
5.350280
 23
4.371282
 33
-3.202338
 62
0
  0
3DFACE
  8
Sphere1
 10
5.187921
 20
4.464562
 30
-2.916785
 11
5.330697
 21
4.464562
 31
-2.665675
 12
5.493056
 22
4.371282
 32
-2.804012
 13
5.387084
 23
4.371282
 33
-2.990393
 62
0
  0
3DFACE
  8
Sphere1
 10
5.330697
 20
4.464562
 30
-2.665675
 11
5.549443
 21
4.464562
 31
-2.479294
 12
5.655415
 22
4.371282
 32
-2.665675
 13
5.493056
 23
4.371282
 33
-2.804012
 62
0
  0
3DFACE
  8
Sphere1
 10
5.549443
 20
4.464562
 30
-2.479294
 11
5.817774
 21
4.464562
 31
-2.380123
 12
5.854578
 22
4.371282
 32
-2.592067
 13
5.655415
 23
4.371282
 33
-2.665675
 62
0
  0
3DFACE
  8
Sphere1
 10
5.817774
 20
4.464562
 30
-2.380123
 11
6.103326
 21
4.464562
 31
-2.380123
 12
6.066522
 22
4.371282
 32
-2.592067
 13
5.854578
 23
4.371282
 33
-2.592067
 62
0
  0
3DFACE
  8
Sphere1
 10
6.103326
 20
4.464562
 30
-2.380123
 11
6.371657
 21
4.464562
 31
-2.479294
 12
6.265685
 22
4.371282
 32
-2.665675
 13
6.066522
 23
4.371282
 33
-2.592067
 62
0
  0
3DFACE
  8
Sphere1
 10
6.371657
 20
4.464562
 30
-2.479294
 11
6.590403
 21
4.464562
 31
-2.665675
 12
6.428044
 22
4.371282
 32
-2.804012
 13
6.265685
 23
4.371282
 33
-2.665675
 62
0
  0
3DFACE
  8
Sphere1
 10
6.590403
 20
4.464562
 30
-2.665675
 11
6.733179
 21
4.464562
 31
-2.916785
 12
6.534016
 22
4.371282
 32
-2.990393
 13
6.428044
 23
4.371282
 33
-2.804012
 62
0
  0
3DFACE
  8
Sphere1
 10
6.733179
 20
4.464562
 30
-2.916785
 11
6.782764
 21
4.464562
 31
-3.202338
 12
6.570820
 22
4.371282
 32
-3.202338
 13
6.534016
 23
4.371282
 33
-2.990393
 62
0
  0
3DFACE
  8
Sphere1
 10
6.570820
 20
4.371282
 30
-3.202338
 11
6.534016
 21
4.371282
 31
-3.414282
 12
6.265685
 22
4.310397
 32
-3.315111
 13
6.285268
 23
4.310397
 33
-3.202338
 62
0
  0
3DFACE
  8
Sphere1
 10
6.534016
 20
4.371282
 30
-3.414282
 11
6.428044
 21
4.371282
 31
-3.600663
 12
6.209298
 22
4.310397
 32
-3.414282
 13
6.265685
 23
4.310397
 33
-3.315111
 62
0
  0
3DFACE
  8
Sphere1
 10
6.428044
 20
4.371282
 30
-3.600663
 11
6.265685
 21
4.371282
 31
-3.739000
 12
6.122909
 22
4.310397
 32
-3.487890
 13
6.209298
 23
4.310397
 33
-3.414282
 62
0
  0
3DFACE
  8
Sphere1
 10
6.265685
 20
4.371282
 30
-3.739000
 11
6.066522
 21
4.371282
 31
-3.812608
 12
6.016936
 22
4.310397
 32
-3.527056
 13
6.122909
 23
4.310397
 33
-3.487890
 62
0
  0
3DFACE
  8
Sphere1
 10
6.066522
 20
4.371282
 30
-3.812608
 11
5.854578
 21
4.371282
 31
-3.812608
 12
5.904163
 22
4.310397
 32
-3.527056
 13
6.016936
 23
4.310397
 33
-3.527056
 62
0
  0
3DFACE
  8
Sphere1
 10
5.854578
 20
4.371282
 30
-3.812608
 11
5.655415
 21
4.371282
 31
-3.739000
 12
5.798191
 22
4.310397
 32
-3.487890
 13
5.904163
 23
4.310397
 33
-3.527056
 62
0
  0
3DFACE
  8
Sphere1
 10
5.655415
 20
4.371282
 30
-3.739000
 11
5.493056
 21
4.371282
 31
-3.600663
 12
5.711802
 22
4.310397
 32
-3.414282
 13
5.798191
 23
4.310397
 33
-3.487890
 62
0
  0
3DFACE
  8
Sphere1
 10
5.493056
 20
4.371282
 30
-3.600663
 11
5.387084
 21
4.371282
 31
-3.414282
 12
5.655415
 22
4.310397
 32
-3.315111
 13
5.711802
 23
4.310397
 33
-3.414282
 62
0
  0
3DFACE
  8
Sphere1
 10
5.387084
 20
4.371282
 30
-3.414282
 11
5.350280
 21
4.371282
 31
-3.202338
 12
5.635832
 22
4.310397
 32
-3.202338
 13
5.655415
 23
4.310397
 33
-3.315111
 62
0
  0
3DFACE
  8
Sphere1
 10
5.350280
 20
4.371282
 30
-3.202338
 11
5.387084
 21
4.371282
 31
-2.990393
 12
5.655415
 22
4.310397
 32
-3.089564
 13
5.635832
 23
4.310397
 33
-3.202338
 62
0
  0
3DFACE
  8
Sphere1
 10
5.387084
 20
4.371282
 30
-2.990393
 11
5.493056
 21
4.371282
 31
-2.804012
 12
5.711802
 22
4.310397
 32
-2.990393
 13
5.655415
 23
4.310397
 33
-3.089564
 62
0
  0
3DFACE
  8
Sphere1
 10
5.493056
 20
4.371282
 30
-2.804012
 11
5.655415
 21
4.371282
 31
-2.665675
 12
5.798191
 22
4.310397
 32
-2.916785
 13
5.711802
 23
4.310397
 33
-2.990393
 62
0
  0
3DFACE
  8
Sphere1
 10
5.655415
 20
4.371282
 30
-2.665675
 11
5.854578
 21
4.371282
 31
-2.592067
 12
5.904163
 22
4.310397
 32
-2.877619
 13
5.798191
 23
4.310397
 33
-2.916785
 62
0
  0
3DFACE
  8
Sphere1
 10
5.854578
 20
4.371282
 30
-2.592067
 11
6.066522
 21
4.371282
 31
-2.592067
 12
6.016936
 22
4.310397
 32
-2.877619
 13
5.904163
 23
4.310397
 33
-2.877619
 62
0
  0
3DFACE
  8
Sphere1
 10
6.066522
 20
4.371282
 30
-2.592067
 11
6.265685
 21
4.371282
 31
-2.665675
 12
6.122909
 22
4.310397
 32
-2.916785
 13
6.016936
 23
4.310397
 33
-2.877619
 62
0
  0
3DFACE
  8
Sphere1
 10
6.265685
 20
4.371282
 30
-2.665675
 11
6.428044
 21
4.371282
 31
-2.804012
 12
6.209298
 22
4.310397
 32
-2.990393
 13
6.122909
 23
4.310397
 33
-2.916785
 62
0
  0
3DFACE
  8
Sphere1
 10
6.428044
 20
4.371282
 30
-2.804012
 11
6.534016
 21
4.371282
 31
-2.990393
 12
6.265685
 22
4.310397
 32
-3.089564
 13
6.209298
 23
4.310397
 33
-2.990393
 62
0
  0
3DFACE
  8
Sphere1
 10
6.534016
 20
4.371282
 30
-2.990393
 11
6.570820
 21
4.371282
 31
-3.202338
 12
6.285268
 22
4.310397
 32
-3.202338
 13
6.265685
 23
4.310397
 33
-3.089564
 62
0
  0
3DFACE
  8
Sphere1
 10
6.285268
 20
4.310397
 30
-3.202338
 11
6.265685
 21
4.310397
 31
-3.315111
 12
5.960550
 22
4.289252
 32
-3.202338
 13
5.960550
 23
4.289252
 33
-3.202338
 62
0
  0
3DFACE
  8
Sphere1
 10
6.265685
 20
4.310397
 30
-3.315111
 11
6.209298
 21
4.310397
 31
-3.414282
 12
5.960550
 22
4.289252
 32
-3.202338
 13
5.960550
 23
4.289252
 33
-3.202338
 62
0
  0
3DFACE
  8
Sphere1
 10
6.209298
 20
4.310397
 30
-3.414282
 11
6.122909
 21
4.310397
 31
-3.487890
 12
5.960550
 22
4.289252
 32
-3.202338
 13
5.960550
 23
4.289252
 33
-3.202338
 62
0
  0
3DFACE
  8
Sphere1
 10
6.122909
 20
4.310397
 30
-3.487890
 11
6.016936
 21
4.310397
 31
-3.527056
 12
5.960550
 22
4.289252
 32
-3.202338
 13
5.960550
 23
4.289252
 33
-3.202338
 62
0
  0
3DFACE
  8
Sphere1
 10
6.016936
 20
4.310397
 30
-3.527056
 11
5.904163
 21
4.310397
 31
-3.527056
 12
5.960550
 22
4.289252
 32
-3.202338
 13
5.960550
 23
4.289252
 33
-3.202338
 62
0
  0
3DFACE
  8
Sphere1
 10
5.904163
 20
4.310397
 30
-3.527056
 11
5.798191
 21
4.310397
 31
-3.487890
 12
5.960550
 22
4.289252
 32
-3.202338
 13
5.960550
 23
4.289252
 33
-3.202338
 62
0
  0
3DFACE
  8
Sphere1
 10
5.798191
 20
4.310397
 30
-3.487890
 11
5.711802
 21
4.310397
 31
-3.414282
 12
5.960550
 22
4.289252
 32
-3.202338
 13
5.960550
 23
4.289252
 33
-3.202338
 62
0
  0
3DFACE
  8
Sphere1
 10
5.711802
 20
4.310397
 30
-3.414282
 11
5.655415
 21
4.310397
 31
-3.315111
 12
5.960550
 22
4.289252
 32
-3.202338
 13
5.960550
 23
4.289252
 33
-3.202338
 62
0
  0
3DFACE
  8
Sphere1
 10
5.655415
 20
4.310397
 30
-3.315111
 11
5.635832
 21
4.310397
 31
-3.202338
 12
5.960550
 22
4.289252
 32
-3.202338
 13
5.960550
 23
4.289252
 33
-3.202338
 62
0
  0
3DFACE
  8
Sphere1
 10
5.635832
 20
4.310397
 30
-3.202338
 11
5.655415
 21
4.310397
 31
-3.089564
 12
5.960550
 22
4.289252
 32
-3.202338
 13
5.960550
 23
4.289252
 33
-3.202338
 62
0
  0
3DFACE
  8
Sphere1
 10
5.655415
 20
4.310397
 30
-3.089564
 11
5.711802
 21
4.310397
 31
-2.990393
 12
5.960550
 22
4.289252
 32
-3.202338
 13
5.960550
 23
4.289252
 33
-3.202338
 62
0
  0
3DFACE
  8
Sphere1
 10
5.711802
 20
4.310397
 30
-2.990393
 11
5.798191
 21
4.310397
 31
-2.916785
 12
5.960550
 22
4.289252
 32
-3.202338
 13
5.960550
 23
4.289252
 33
-3.202338
 62
0
  0
3DFACE
  8
Sphere1
 10
5.798191
 20
4.310397
 30
-2.916785
 11
5.904163
 21
4.310397
 31
-2.877619
 12
5.960550
 22
4.289252
 32
-3.202338
 13
5.960550
 23
4.289252
 33
-3.202338
 62
0
  0
3DFACE
  8
Sphere1
 10
5.904163
 20
4.310397
 30
-2.877619
 11
6.016936
 21
4.310397
 31
-2.877619
 12
5.960550
 22
4.289252
 32
-3.202338
 13
5.960550
 23
4.289252
 33
-3.202338
 62
0
  0
3DFACE
  8
Sphere1
 10
6.016936
 20
4.310397
 30
-2.877619
 11
6.122909
 21
4.310397
 31
-2.916785
 12
5.960550
 22
4.289252
 32
-3.202338
 13
5.960550
 23
4.289252
 33
-3.202338
 62
0
  0
3DFACE
  8
Sphere1
 10
6.122909
 20
4.310397
 30
-2.916785
 11
6.209298
 21
4.310397
 31
-2.990393
 12
5.960550
 22
4.289252
 32
-3.202338
 13
5.960550
 23
4.289252
 33
-3.202338
 62
0
  0
3DFACE
  8
Sphere1
 10
6.209298
 20
4.310397
 30
-2.990393
 11
6.265685
 21
4.310397
 31
-3.089564
 12
5.960550
 22
4.289252
 32
-3.202338
 13
5.960550
 23
4.289252
 33
-3.202338
 62
0
  0
3DFACE
  8
Sphere1
 10
6.265685
 20
4.310397
 30
-3.089564
 11
6.285268
 21
4.310397
 31
-3.202338
 12
5.960550
 22
4.289252
 32
-3.202338
 13
5.960550
 23
4.289252
 33
-3.202338
 62
0
  0
3DFACE
  8
Cube3001
 10
-4.676850
 20
-2.478189
 30
2.735794
 11
-4.676979
 21
1.011902
 31
2.735674
 12
-4.676505
 22
1.449740
 32
-2.080486
 13
-4.676252
 23
-1.394072
 33
-2.080651
 62
0
  0
3DFACE
  8
Cube3001
 10
-4.676505
 20
1.449740
 30
-2.080486
 11
-7.245792
 21
1.449819
 31
-2.080224
 12
-7.245625
 22
-1.393969
 32
-2.080181
 13
-4.676252
 23
-1.394072
 33
-2.080651
 62
0
  0
3DFACE
  8
Cube3001
 10
-7.245792
 20
1.449819
 30
-2.080224
 11
-4.676505
 21
1.449740
 31
-2.080486
 12
-6.434531
 22
1.011914
 32
1.260916
 13
-6.434531
 23
1.011914
 33
1.260916
 62
0
  0
3DFACE
  8
Cube3001
 10
-4.676850
 20
-2.478189
 30
2.735794
 11
-6.434441
 21
-2.478191
 31
1.260969
 12
-6.434531
 22
1.011914
 32
1.260916
 13
-4.676979
 23
1.011902
 33
2.735674
 62
0
  0
3DFACE
  8
Cube3001
 10
-6.434531
 20
1.011914
 30
1.260916
 11
-6.434441
 21
-2.478191
 31
1.260969
 12
-7.245625
 22
-1.393969
 32
-2.080181
 13
-7.245792
 23
1.449819
 33
-2.080224
 62
0
  0
3DFACE
  8
Cube3001
 10
-6.434441
 20
-2.478191
 30
1.260969
 11
-4.676850
 21
-2.478189
 31
2.735794
 12
-4.676252
 22
-1.394072
 32
-2.080651
 13
-4.676252
 23
-1.394072
 33
-2.080651
 62
0
  0
3DFACE
  8
Cube3001
 10
-4.676979
 20
1.011902
 30
2.735674
 11
-6.434531
 21
1.011914
 31
1.260916
 12
-4.676505
 22
1.449740
 32
-2.080486
 13
-4.676505
 23
1.449740
 33
-2.080486
 62
0
  0
3DFACE
  8
Cube3001
 10
-4.676252
 20
-1.394072
 30
-2.080651
 11
-7.245625
 21
-1.393969
 31
-2.080181
 12
-6.434441
 22
-2.478191
 32
1.260969
 13
-6.434441
 23
-2.478191
 33
1.260969
 62
0
  0
3DFACE
  8
NoName6002
 10
-6.052723
 20
-0.968384
 30
1.560745
 11
-5.341112
 21
0.094416
 31
2.016383
 12
-5.026105
 22
-0.745248
 32
2.331375
 13
-5.026105
 23
-0.745248
 33
2.331375
 62
0
  0
3DFACE
  8
NoName6002
 10
-5.026105
 20
-0.745248
 30
2.331375
 11
-5.341112
 21
0.094416
 31
2.016383
 12
-6.612030
 22
-0.056923
 32
3.639452
 13
-6.612030
 23
-0.056923
 33
3.639452
 62
0
  0
3DFACE
  8
NoName6002
 10
-6.612030
 20
-0.056923
 30
3.639452
 11
-5.341112
 21
0.094416
 31
2.016383
 12
-6.052723
 22
-0.968384
 32
1.560745
 13
-6.052723
 23
-0.968384
 33
1.560745
 62
0
  0
3DFACE
  8
NoName6002
 10
-6.612030
 20
-0.056923
 30
3.639452
 11
-6.052723
 21
-0.968384
 31
1.560745
 12
-5.026105
 22
-0.745248
 32
2.331375
 13
-5.026105
 23
-0.745248
 33
2.331375
 62
0
  0
3DFACE
  8
Cylinder1001
 10
-7.246170
 20
-1.400145
 30
-2.080343
 11
-7.246171
 21
-1.057579
 31
-3.261463
 12
-7.246171
 22
4.641655
 32
-3.607031
 13
-7.246160
 23
4.641664
 33
-2.080335
 62
0
  0
3DFACE
  8
Cylinder1001
 10
-7.246171
 20
-1.057579
 30
-3.261463
 11
-5.960665
 21
-0.782632
 31
-4.209438
 12
-5.960584
 22
4.641635
 32
-4.633103
 13
-7.246171
 23
4.641655
 33
-3.607031
 62
0
  0
3DFACE
  8
Cylinder1001
 10
-5.960665
 20
-0.782632
 30
-4.209438
 11
-4.674955
 21
-1.057434
 31
-3.261954
 12
-4.674947
 22
4.641655
 32
-3.607018
 13
-5.960584
 23
4.641635
 33
-4.633103
 62
0
  0
3DFACE
  8
Cylinder1001
 10
-5.493057
 20
4.641662
 30
-2.380122
 11
-4.674942
 21
4.641664
 31
-2.080333
 12
-5.798192
 22
4.641663
 32
-2.267349
 13
-5.798192
 23
4.641663
 33
-2.267349
 62
0
  0
3DFACE
  8
Cylinder1001
 10
-5.244308
 20
4.641660
 30
-2.592066
 11
-4.674942
 21
4.641664
 31
-2.080333
 12
-5.493057
 22
4.641662
 32
-2.380122
 13
-5.493057
 23
4.641662
 33
-2.380122
 62
0
  0
3DFACE
  8
Cylinder1001
 10
-5.081950
 20
4.641658
 30
-2.877618
 11
-4.674942
 21
4.641664
 31
-2.080333
 12
-5.244308
 22
4.641660
 32
-2.592066
 13
-5.244308
 23
4.641660
 33
-2.592066
 62
0
  0
3DFACE
  8
Cylinder1001
 10
-5.025563
 20
4.641654
 30
-3.202336
 11
-4.674942
 21
4.641664
 31
-2.080333
 12
-5.081950
 22
4.641658
 32
-2.877618
 13
-5.081950
 23
4.641658
 33
-2.877618
 62
0
  0
3DFACE
  8
Cylinder1001
 10
-4.674947
 20
4.641655
 30
-3.607018
 11
-4.674942
 21
4.641664
 31
-2.080333
 12
-5.025563
 22
4.641654
 32
-3.202336
 13
-5.025563
 23
4.641654
 33
-3.202336
 62
0
  0
3DFACE
  8
Cylinder1001
 10
-5.081950
 20
4.641651
 30
-3.527054
 11
-4.674947
 21
4.641655
 31
-3.607018
 12
-5.025563
 22
4.641654
 32
-3.202336
 13
-5.025563
 23
4.641654
 33
-3.202336
 62
0
  0
3DFACE
  8
Cylinder1001
 10
-5.244308
 20
4.641649
 30
-3.812606
 11
-4.674947
 21
4.641655
 31
-3.607018
 12
-5.081950
 22
4.641651
 32
-3.527054
 13
-5.081950
 23
4.641651
 33
-3.527054
 62
0
  0
3DFACE
  8
Cylinder1001
 10
-5.493057
 20
4.641647
 30
-4.024551
 11
-4.674947
 21
4.641655
 31
-3.607018
 12
-5.244308
 22
4.641649
 32
-3.812606
 13
-5.244308
 23
4.641649
 33
-3.812606
 62
0
  0
3DFACE
  8
Cylinder1001
 10
-5.960584
 20
4.641635
 30
-4.633103
 11
-4.674947
 21
4.641655
 31
-3.607018
 12
-5.493057
 22
4.641647
 32
-4.024551
 13
-5.493057
 23
4.641647
 33
-4.024551
 62
0
  0
3DFACE
  8
Cylinder1001
 10
-5.960584
 20
4.641635
 30
-4.633103
 11
-5.493057
 21
4.641647
 31
-4.024551
 12
-5.798192
 22
4.641646
 32
-4.137324
 13
-5.798192
 23
4.641646
 33
-4.137324
 62
0
  0
3DFACE
  8
Cylinder1001
 10
-5.960584
 20
4.641635
 30
-4.633103
 11
-5.798192
 21
4.641646
 31
-4.137324
 12
-6.122910
 22
4.641646
 32
-4.137324
 13
-6.122910
 23
4.641646
 33
-4.137324
 62
0
  0
3DFACE
  8
Cylinder1001
 10
-6.122910
 20
4.641663
 30
-2.267349
 11
-5.798192
 21
4.641663
 31
-2.267349
 12
-4.674942
 22
4.641664
 32
-2.080333
 13
-4.674942
 23
4.641664
 33
-2.080333
 62
0
  0
3DFACE
  8
Cylinder1001
 10
-7.246160
 20
4.641664
 30
-2.080335
 11
-6.122910
 21
4.641663
 31
-2.267349
 12
-4.674942
 22
4.641664
 32
-2.080333
 13
-4.674942
 23
4.641664
 33
-2.080333
 62
0
  0
3DFACE
  8
Cylinder1001
 10
-6.428045
 20
4.641662
 30
-2.380123
 11
-6.122910
 21
4.641663
 31
-2.267349
 12
-7.246160
 22
4.641664
 32
-2.080335
 13
-7.246160
 23
4.641664
 33
-2.080335
 62
0
  0
3DFACE
  8
Cylinder1001
 10
-6.676794
 20
4.641660
 30
-2.592067
 11
-6.428045
 21
4.641662
 31
-2.380123
 12
-7.246160
 22
4.641664
 32
-2.080335
 13
-7.246160
 23
4.641664
 33
-2.080335
 62
0
  0
3DFACE
  8
Cylinder1001
 10
-6.839153
 20
4.641657
 30
-2.877619
 11
-6.676794
 21
4.641660
 31
-2.592067
 12
-7.246160
 22
4.641664
 32
-2.080335
 13
-7.246160
 23
4.641664
 33
-2.080335
 62
0
  0
3DFACE
  8
Cylinder1001
 10
-6.895539
 20
4.641654
 30
-3.202337
 11
-6.839153
 21
4.641657
 31
-2.877619
 12
-7.246160
 22
4.641664
 32
-2.080335
 13
-7.246160
 23
4.641664
 33
-2.080335
 62
0
  0
3DFACE
  8
Cylinder1001
 10
-6.839153
 20
4.641651
 30
-3.527055
 11
-6.895539
 21
4.641654
 31
-3.202337
 12
-7.246160
 22
4.641664
 32
-2.080335
 13
-7.246160
 23
4.641664
 33
-2.080335
 62
0
  0
3DFACE
  8
Cylinder1001
 10
-7.246171
 20
4.641655
 30
-3.607031
 11
-6.839153
 21
4.641651
 31
-3.527055
 12
-7.246160
 22
4.641664
 32
-2.080335
 13
-7.246160
 23
4.641664
 33
-2.080335
 62
0
  0
3DFACE
  8
Cylinder1001
 10
-6.676794
 20
4.641649
 30
-3.812607
 11
-6.839153
 21
4.641651
 31
-3.527055
 12
-7.246171
 22
4.641655
 32
-3.607031
 13
-7.246171
 23
4.641655
 33
-3.607031
 62
0
  0
3DFACE
  8
Cylinder1001
 10
-6.428045
 20
4.641647
 30
-4.024551
 11
-6.676794
 21
4.641649
 31
-3.812607
 12
-7.246171
 22
4.641655
 32
-3.607031
 13
-7.246171
 23
4.641655
 33
-3.607031
 62
0
  0
3DFACE
  8
Cylinder1001
 10
-5.960584
 20
4.641635
 30
-4.633103
 11
-6.428045
 21
4.641647
 31
-4.024551
 12
-7.246171
 22
4.641655
 32
-3.607031
 13
-7.246171
 23
4.641655
 33
-3.607031
 62
0
  0
3DFACE
  8
Cylinder1001
 10
-5.960584
 20
4.641635
 30
-4.633103
 11
-6.122910
 21
4.641646
 31
-4.137324
 12
-6.428045
 22
4.641647
 32
-4.024551
 13
-6.428045
 23
4.641647
 33
-4.024551
 62
0
  0
3DFACE
  8
Cylinder1001
 10
-4.674955
 20
-1.057434
 30
-3.261954
 11
-4.674948
 21
-1.400145
 31
-2.080336
 12
-4.674942
 22
4.641664
 32
-2.080333
 13
-4.674947
 23
4.641655
 33
-3.607018
 62
0
  0
3DFACE
  8
Cylinder1001
 10
-4.674948
 20
-1.400145
 30
-2.080336
 11
-7.246170
 21
-1.400145
 31
-2.080343
 12
-7.246160
 22
4.641664
 32
-2.080335
 13
-4.674942
 23
4.641664
 33
-2.080333
 62
0
  0
3DFACE
  8
Cylinder1001
 10
-4.674955
 20
-1.057434
 30
-3.261954
 11
-7.246170
 21
-1.400145
 31
-2.080343
 12
-4.674948
 22
-1.400145
 32
-2.080336
 13
-4.674948
 23
-1.400145
 33
-2.080336
 62
0
  0
3DFACE
  8
Cylinder1001
 10
-7.246171
 20
-1.057579
 30
-3.261463
 11
-7.246170
 21
-1.400145
 31
-2.080343
 12
-4.674955
 22
-1.057434
 32
-3.261954
 13
-4.674955
 23
-1.057434
 33
-3.261954
 62
0
  0
3DFACE
  8
Cylinder1001
 10
-5.960665
 20
-0.782632
 30
-4.209438
 11
-7.246171
 21
-1.057579
 31
-3.261463
 12
-4.674955
 22
-1.057434
 32
-3.261954
 13
-4.674955
 23
-1.057434
 33
-3.261954
 62
0
  0
3DFACE
  8
Cylinder1001
 10
-5.081950
 20
4.641651
 30
-3.527054
 11
-5.025563
 21
4.641654
 31
-3.202336
 12
-5.025593
 22
3.597361
 32
-3.202340
 13
-5.081978
 23
3.597359
 33
-3.527055
 62
1
  0
3DFACE
  8
Cylinder1001
 10
-5.025563
 20
4.641654
 30
-3.202336
 11
-5.081950
 21
4.641658
 31
-2.877618
 12
-5.081977
 22
3.597361
 32
-2.877627
 13
-5.025593
 23
3.597361
 33
-3.202340
 62
1
  0
3DFACE
  8
Cylinder1001
 10
-5.081950
 20
4.641658
 30
-2.877618
 11
-5.244308
 21
4.641660
 31
-2.592066
 12
-5.244339
 22
3.597362
 32
-2.592081
 13
-5.081977
 23
3.597361
 33
-2.877627
 62
1
  0
3DFACE
  8
Cylinder1001
 10
-5.244308
 20
4.641660
 30
-2.592066
 11
-5.493057
 21
4.641662
 31
-2.380122
 12
-5.493087
 22
3.597362
 32
-2.380140
 13
-5.244339
 23
3.597362
 33
-2.592081
 62
1
  0
3DFACE
  8
Cylinder1001
 10
-5.493057
 20
4.641662
 30
-2.380122
 11
-5.798192
 21
4.641663
 31
-2.267349
 12
-5.798224
 22
3.597362
 32
-2.267374
 13
-5.493087
 23
3.597362
 33
-2.380140
 62
1
  0
3DFACE
  8
Cylinder1001
 10
-5.798192
 20
4.641663
 30
-2.267349
 11
-6.122910
 21
4.641663
 31
-2.267349
 12
-6.122944
 22
3.597362
 32
-2.267377
 13
-5.798224
 23
3.597362
 33
-2.267374
 62
1
  0
3DFACE
  8
Cylinder1001
 10
-6.122910
 20
4.641663
 30
-2.267349
 11
-6.428045
 21
4.641662
 31
-2.380123
 12
-6.428080
 22
3.597362
 32
-2.380152
 13
-6.122944
 23
3.597362
 33
-2.267377
 62
1
  0
3DFACE
  8
Cylinder1001
 10
-6.428045
 20
4.641662
 30
-2.380123
 11
-6.676794
 21
4.641660
 31
-2.592067
 12
-6.676832
 22
3.597362
 32
-2.592097
 13
-6.428080
 23
3.597362
 33
-2.380152
 62
1
  0
3DFACE
  8
Cylinder1001
 10
-6.676794
 20
4.641660
 30
-2.592067
 11
-6.839153
 21
4.641657
 31
-2.877619
 12
-6.839191
 22
3.597361
 32
-2.877648
 13
-6.676832
 23
3.597362
 33
-2.592097
 62
1
  0
3DFACE
  8
Cylinder1001
 10
-6.122944
 20
3.597362
 30
-2.267377
 11
-5.493087
 21
3.597362
 31
-2.380140
 12
-5.798224
 22
3.597362
 32
-2.267374
 13
-5.798224
 23
3.597362
 33
-2.267374
 62
0
  0
3DFACE
  8
Cylinder1001
 10
-5.244339
 20
3.597362
 30
-2.592081
 11
-5.493087
 21
3.597362
 31
-2.380140
 12
-6.122944
 22
3.597362
 32
-2.267377
 13
-6.122944
 23
3.597362
 33
-2.267377
 62
0
  0
3DFACE
  8
Cylinder1001
 10
-6.428080
 20
3.597362
 30
-2.380152
 11
-5.244339
 21
3.597362
 31
-2.592081
 12
-6.122944
 22
3.597362
 32
-2.267377
 13
-6.122944
 23
3.597362
 33
-2.267377
 62
0
  0
3DFACE
  8
Cylinder1001
 10
-5.081977
 20
3.597361
 30
-2.877627
 11
-5.244339
 21
3.597362
 31
-2.592081
 12
-6.428080
 22
3.597362
 32
-2.380152
 13
-6.428080
 23
3.597362
 33
-2.380152
 62
0
  0
3DFACE
  8
Cylinder1001
 10
-6.676832
 20
3.597362
 30
-2.592097
 11
-5.081977
 21
3.597361
 31
-2.877627
 12
-6.428080
 22
3.597362
 32
-2.380152
 13
-6.428080
 23
3.597362
 33
-2.380152
 62
0
  0
3DFACE
  8
Cylinder1001
 10
-5.025593
 20
3.597361
 30
-3.202340
 11
-5.081977
 21
3.597361
 31
-2.877627
 12
-6.676832
 22
3.597362
 32
-2.592097
 13
-6.676832
 23
3.597362
 33
-2.592097
 62
0
  0
3DFACE
  8
Cylinder1001
 10
-6.839191
 20
3.597361
 30
-2.877648
 11
-5.025593
 21
3.597361
 31
-3.202340
 12
-6.676832
 22
3.597362
 32
-2.592097
 13
-6.676832
 23
3.597362
 33
-2.592097
 62
0
  0
3DFACE
  8
Cylinder1001
 10
-5.081978
 20
3.597359
 30
-3.527055
 11
-5.025593
 21
3.597361
 31
-3.202340
 12
-6.839191
 22
3.597361
 32
-2.877648
 13
-6.839191
 23
3.597361
 33
-2.877648
 62
0
  0
3DFACE
  8
Cylinder1001
 10
-6.895580
 20
3.597361
 30
-3.202363
 11
-5.081978
 21
3.597359
 31
-3.527055
 12
-6.839191
 22
3.597361
 32
-2.877648
 13
-6.839191
 23
3.597361
 33
-2.877648
 62
0
  0
3DFACE
  8
Cylinder1001
 10
-5.244341
 20
3.597358
 30
-3.812606
 11
-5.081978
 21
3.597359
 31
-3.527055
 12
-6.895580
 22
3.597361
 32
-3.202363
 13
-6.895580
 23
3.597361
 33
-3.202363
 62
0
  0
3DFACE
  8
Cylinder1001
 10
-6.839192
 20
3.597359
 30
-3.527077
 11
-5.244341
 21
3.597358
 31
-3.812606
 12
-6.895580
 22
3.597361
 32
-3.202363
 13
-6.895580
 23
3.597361
 33
-3.202363
 62
0
  0
3DFACE
  8
Cylinder1001
 10
-5.493089
 20
3.597358
 30
-4.024550
 11
-5.244341
 21
3.597358
 31
-3.812606
 12
-6.839192
 22
3.597359
 32
-3.527077
 13
-6.839192
 23
3.597359
 33
-3.527077
 62
0
  0
3DFACE
  8
Cylinder1001
 10
-6.676833
 20
3.597358
 30
-3.812622
 11
-5.493089
 21
3.597358
 31
-4.024550
 12
-6.839192
 22
3.597359
 32
-3.527077
 13
-6.839192
 23
3.597359
 33
-3.527077
 62
0
  0
3DFACE
  8
Cylinder1001
 10
-5.798227
 20
3.597357
 30
-4.137327
 11
-5.493089
 21
3.597358
 31
-4.024550
 12
-6.676833
 22
3.597358
 32
-3.812622
 13
-6.676833
 23
3.597358
 33
-3.812622
 62
0
  0
3DFACE
  8
Cylinder1001
 10
-6.428083
 20
3.597358
 30
-4.024560
 11
-5.798227
 21
3.597357
 31
-4.137327
 12
-6.676833
 22
3.597358
 32
-3.812622
 13
-6.676833
 23
3.597358
 33
-3.812622
 62
0
  0
3DFACE
  8
Cylinder1001
 10
-6.122948
 20
3.597357
 30
-4.137333
 11
-5.798227
 21
3.597357
 31
-4.137327
 12
-6.428083
 22
3.597358
 32
-4.024560
 13
-6.428083
 23
3.597358
 33
-4.024560
 62
0
  0
3DFACE
  8
Cylinder1001
 10
-6.839153
 20
4.641657
 30
-2.877619
 11
-6.895539
 21
4.641654
 31
-3.202337
 12
-6.895580
 22
3.597361
 32
-3.202363
 13
-6.839191
 23
3.597361
 33
-2.877648
 62
1
  0
3DFACE
  8
Cylinder1001
 10
-6.895539
 20
4.641654
 30
-3.202337
 11
-6.839153
 21
4.641651
 31
-3.527055
 12
-6.839192
 22
3.597359
 32
-3.527077
 13
-6.895580
 23
3.597361
 33
-3.202363
 62
1
  0
3DFACE
  8
Cylinder1001
 10
-6.839153
 20
4.641651
 30
-3.527055
 11
-6.676794
 21
4.641649
 31
-3.812607
 12
-6.676833
 22
3.597358
 32
-3.812622
 13
-6.839192
 23
3.597359
 33
-3.527077
 62
1
  0
3DFACE
  8
Cylinder1001
 10
-6.676794
 20
4.641649
 30
-3.812607
 11
-6.428045
 21
4.641647
 31
-4.024551
 12
-6.428083
 22
3.597358
 32
-4.024560
 13
-6.676833
 23
3.597358
 33
-3.812622
 62
1
  0
3DFACE
  8
Cylinder1001
 10
-6.428045
 20
4.641647
 30
-4.024551
 11
-6.122910
 21
4.641646
 31
-4.137324
 12
-6.122948
 22
3.597357
 32
-4.137333
 13
-6.428083
 23
3.597358
 33
-4.024560
 62
1
  0
3DFACE
  8
Cylinder1001
 10
-6.122910
 20
4.641646
 30
-4.137324
 11
-5.798192
 21
4.641646
 31
-4.137324
 12
-5.798227
 22
3.597357
 32
-4.137327
 13
-6.122948
 23
3.597357
 33
-4.137333
 62
1
  0
3DFACE
  8
Cylinder1001
 10
-5.798192
 20
4.641646
 30
-4.137324
 11
-5.493057
 21
4.641647
 31
-4.024551
 12
-5.493089
 22
3.597358
 32
-4.024550
 13
-5.798227
 23
3.597357
 33
-4.137327
 62
1
  0
3DFACE
  8
Cylinder1001
 10
-5.493057
 20
4.641647
 30
-4.024551
 11
-5.244308
 21
4.641649
 31
-3.812606
 12
-5.244341
 22
3.597358
 32
-3.812606
 13
-5.493089
 23
3.597358
 33
-4.024550
 62
1
  0
3DFACE
  8
Cylinder1001
 10
-5.244308
 20
4.641649
 30
-3.812606
 11
-5.081950
 21
4.641651
 31
-3.527054
 12
-5.081978
 22
3.597359
 32
-3.527055
 13
-5.244341
 23
3.597358
 33
-3.812606
 62
1
  0
3DFACE
  8
Sphere001
 10
-6.285268
 20
3.707203
 30
-3.202338
 11
-6.265685
 21
3.707203
 31
-3.315111
 12
-5.960550
 22
3.714250
 32
-3.202338
 13
-5.960550
 23
3.714250
 33
-3.202338
 62
0
  0
3DFACE
  8
Sphere001
 10
-6.265685
 20
3.707203
 30
-3.315111
 11
-6.209298
 21
3.707203
 31
-3.414282
 12
-5.960550
 22
3.714250
 32
-3.202338
 13
-5.960550
 23
3.714250
 33
-3.202338
 62
0
  0
3DFACE
  8
Sphere001
 10
-6.209298
 20
3.707203
 30
-3.414282
 11
-6.122909
 21
3.707203
 31
-3.487890
 12
-5.960550
 22
3.714250
 32
-3.202338
 13
-5.960550
 23
3.714250
 33
-3.202338
 62
0
  0
3DFACE
  8
Sphere001
 10
-6.122909
 20
3.707203
 30
-3.487890
 11
-6.016936
 21
3.707203
 31
-3.527056
 12
-5.960550
 22
3.714250
 32
-3.202338
 13
-5.960550
 23
3.714250
 33
-3.202338
 62
0
  0
3DFACE
  8
Sphere001
 10
-6.016936
 20
3.707203
 30
-3.527056
 11
-5.904163
 21
3.707203
 31
-3.527056
 12
-5.960550
 22
3.714250
 32
-3.202338
 13
-5.960550
 23
3.714250
 33
-3.202338
 62
0
  0
3DFACE
  8
Sphere001
 10
-5.904163
 20
3.707203
 30
-3.527056
 11
-5.798191
 21
3.707203
 31
-3.487890
 12
-5.960550
 22
3.714250
 32
-3.202338
 13
-5.960550
 23
3.714250
 33
-3.202338
 62
0
  0
3DFACE
  8
Sphere001
 10
-5.798191
 20
3.707203
 30
-3.487890
 11
-5.711802
 21
3.707203
 31
-3.414282
 12
-5.960550
 22
3.714250
 32
-3.202338
 13
-5.960550
 23
3.714250
 33
-3.202338
 62
0
  0
3DFACE
  8
Sphere001
 10
-5.711802
 20
3.707203
 30
-3.414282
 11
-5.655415
 21
3.707203
 31
-3.315111
 12
-5.960550
 22
3.714250
 32
-3.202338
 13
-5.960550
 23
3.714250
 33
-3.202338
 62
0
  0
3DFACE
  8
Sphere001
 10
-5.655415
 20
3.707203
 30
-3.315111
 11
-5.635832
 21
3.707203
 31
-3.202338
 12
-5.960550
 22
3.714250
 32
-3.202338
 13
-5.960550
 23
3.714250
 33
-3.202338
 62
0
  0
3DFACE
  8
Sphere001
 10
-5.635832
 20
3.707203
 30
-3.202338
 11
-5.655415
 21
3.707203
 31
-3.089564
 12
-5.960550
 22
3.714250
 32
-3.202338
 13
-5.960550
 23
3.714250
 33
-3.202338
 62
0
  0
3DFACE
  8
Sphere001
 10
-5.655415
 20
3.707203
 30
-3.089564
 11
-5.711802
 21
3.707203
 31
-2.990393
 12
-5.960550
 22
3.714250
 32
-3.202338
 13
-5.960550
 23
3.714250
 33
-3.202338
 62
0
  0
3DFACE
  8
Sphere001
 10
-5.711802
 20
3.707203
 30
-2.990393
 11
-5.798191
 21
3.707203
 31
-2.916785
 12
-5.960550
 22
3.714250
 32
-3.202338
 13
-5.960550
 23
3.714250
 33
-3.202338
 62
0
  0
3DFACE
  8
Sphere001
 10
-5.798191
 20
3.707203
 30
-2.916785
 11
-5.904163
 21
3.707203
 31
-2.877620
 12
-5.960550
 22
3.714250
 32
-3.202338
 13
-5.960550
 23
3.714250
 33
-3.202338
 62
0
  0
3DFACE
  8
Sphere001
 10
-5.904163
 20
3.707203
 30
-2.877620
 11
-6.016936
 21
3.707203
 31
-2.877620
 12
-5.960550
 22
3.714250
 32
-3.202338
 13
-5.960550
 23
3.714250
 33
-3.202338
 62
0
  0
3DFACE
  8
Sphere001
 10
-6.016936
 20
3.707203
 30
-2.877620
 11
-6.122909
 21
3.707203
 31
-2.916785
 12
-5.960550
 22
3.714250
 32
-3.202338
 13
-5.960550
 23
3.714250
 33
-3.202338
 62
0
  0
3DFACE
  8
Sphere001
 10
-6.122909
 20
3.707203
 30
-2.916785
 11
-6.209298
 21
3.707203
 31
-2.990393
 12
-5.960550
 22
3.714250
 32
-3.202338
 13
-5.960550
 23
3.714250
 33
-3.202338
 62
0
  0
3DFACE
  8
Sphere001
 10
-6.209298
 20
3.707203
 30
-2.990393
 11
-6.265685
 21
3.707203
 31
-3.089564
 12
-5.960550
 22
3.714250
 32
-3.202338
 13
-5.960550
 23
3.714250
 33
-3.202338
 62
0
  0
3DFACE
  8
Sphere001
 10
-6.265685
 20
3.707203
 30
-3.089564
 11
-6.285268
 21
3.707203
 31
-3.202338
 12
-5.960550
 22
3.714250
 32
-3.202338
 13
-5.960550
 23
3.714250
 33
-3.202338
 62
0
  0
3DFACE
  8
Sphere001
 10
-6.570820
 20
3.686907
 30
-3.202338
 11
-6.534016
 21
3.686907
 31
-3.414282
 12
-6.265685
 22
3.707203
 32
-3.315111
 13
-6.285268
 23
3.707203
 33
-3.202338
 62
0
  0
3DFACE
  8
Sphere001
 10
-6.534016
 20
3.686907
 30
-3.414282
 11
-6.428044
 21
3.686907
 31
-3.600663
 12
-6.209298
 22
3.707203
 32
-3.414282
 13
-6.265685
 23
3.707203
 33
-3.315111
 62
0
  0
3DFACE
  8
Sphere001
 10
-6.428044
 20
3.686907
 30
-3.600663
 11
-6.265685
 21
3.686907
 31
-3.739000
 12
-6.122909
 22
3.707203
 32
-3.487890
 13
-6.209298
 23
3.707203
 33
-3.414282
 62
0
  0
3DFACE
  8
Sphere001
 10
-6.265685
 20
3.686907
 30
-3.739000
 11
-6.066522
 21
3.686907
 31
-3.812608
 12
-6.016936
 22
3.707203
 32
-3.527056
 13
-6.122909
 23
3.707203
 33
-3.487890
 62
0
  0
3DFACE
  8
Sphere001
 10
-6.066522
 20
3.686907
 30
-3.812608
 11
-5.854578
 21
3.686907
 31
-3.812608
 12
-5.904163
 22
3.707203
 32
-3.527056
 13
-6.016936
 23
3.707203
 33
-3.527056
 62
0
  0
3DFACE
  8
Sphere001
 10
-5.854578
 20
3.686907
 30
-3.812608
 11
-5.655415
 21
3.686907
 31
-3.739000
 12
-5.798191
 22
3.707203
 32
-3.487890
 13
-5.904163
 23
3.707203
 33
-3.527056
 62
0
  0
3DFACE
  8
Sphere001
 10
-5.655415
 20
3.686907
 30
-3.739000
 11
-5.493056
 21
3.686907
 31
-3.600663
 12
-5.711802
 22
3.707203
 32
-3.414282
 13
-5.798191
 23
3.707203
 33
-3.487890
 62
0
  0
3DFACE
  8
Sphere001
 10
-5.493056
 20
3.686907
 30
-3.600663
 11
-5.387084
 21
3.686907
 31
-3.414282
 12
-5.655415
 22
3.707203
 32
-3.315111
 13
-5.711802
 23
3.707203
 33
-3.414282
 62
0
  0
3DFACE
  8
Sphere001
 10
-5.387084
 20
3.686907
 30
-3.414282
 11
-5.350280
 21
3.686907
 31
-3.202338
 12
-5.635832
 22
3.707203
 32
-3.202338
 13
-5.655415
 23
3.707203
 33
-3.315111
 62
0
  0
3DFACE
  8
Sphere001
 10
-5.350280
 20
3.686907
 30
-3.202338
 11
-5.387084
 21
3.686907
 31
-2.990393
 12
-5.655415
 22
3.707203
 32
-3.089564
 13
-5.635832
 23
3.707203
 33
-3.202338
 62
0
  0
3DFACE
  8
Sphere001
 10
-5.387084
 20
3.686907
 30
-2.990393
 11
-5.493056
 21
3.686907
 31
-2.804012
 12
-5.711802
 22
3.707203
 32
-2.990393
 13
-5.655415
 23
3.707203
 33
-3.089564
 62
0
  0
3DFACE
  8
Sphere001
 10
-5.493056
 20
3.686907
 30
-2.804012
 11
-5.655415
 21
3.686907
 31
-2.665675
 12
-5.798191
 22
3.707203
 32
-2.916785
 13
-5.711802
 23
3.707203
 33
-2.990393
 62
0
  0
3DFACE
  8
Sphere001
 10
-5.655415
 20
3.686907
 30
-2.665675
 11
-5.854578
 21
3.686907
 31
-2.592067
 12
-5.904163
 22
3.707203
 32
-2.877620
 13
-5.798191
 23
3.707203
 33
-2.916785
 62
0
  0
3DFACE
  8
Sphere001
 10
-5.854578
 20
3.686907
 30
-2.592067
 11
-6.066522
 21
3.686907
 31
-2.592067
 12
-6.016936
 22
3.707203
 32
-2.877620
 13
-5.904163
 23
3.707203
 33
-2.877620
 62
0
  0
3DFACE
  8
Sphere001
 10
-6.066522
 20
3.686907
 30
-2.592067
 11
-6.265685
 21
3.686907
 31
-2.665675
 12
-6.122909
 22
3.707203
 32
-2.916785
 13
-6.016936
 23
3.707203
 33
-2.877620
 62
0
  0
3DFACE
  8
Sphere001
 10
-6.265685
 20
3.686907
 30
-2.665675
 11
-6.428044
 21
3.686907
 31
-2.804012
 12
-6.209298
 22
3.707203
 32
-2.990393
 13
-6.122909
 23
3.707203
 33
-2.916785
 62
0
  0
3DFACE
  8
Sphere001
 10
-6.428044
 20
3.686907
 30
-2.804012
 11
-6.534016
 21
3.686907
 31
-2.990393
 12
-6.265685
 22
3.707203
 32
-3.089564
 13
-6.209298
 23
3.707203
 33
-2.990393
 62
0
  0
3DFACE
  8
Sphere001
 10
-6.534016
 20
3.686907
 30
-2.990393
 11
-6.570820
 21
3.686907
 31
-3.202338
 12
-6.285268
 22
3.707203
 32
-3.202338
 13
-6.265685
 23
3.707203
 33
-3.089564
 62
0
  0
3DFACE
  8
Sphere001
 10
-6.782764
 20
3.655814
 30
-3.202338
 11
-6.733179
 21
3.655814
 31
-3.487890
 12
-6.534016
 22
3.686907
 32
-3.414282
 13
-6.570820
 23
3.686907
 33
-3.202338
 62
0
  0
3DFACE
  8
Sphere001
 10
-6.733179
 20
3.655814
 30
-3.487890
 11
-6.590403
 21
3.655814
 31
-3.739000
 12
-6.428044
 22
3.686907
 32
-3.600663
 13
-6.534016
 23
3.686907
 33
-3.414282
 62
0
  0
3DFACE
  8
Sphere001
 10
-6.590403
 20
3.655814
 30
-3.739000
 11
-6.371657
 21
3.655814
 31
-3.925381
 12
-6.265685
 22
3.686907
 32
-3.739000
 13
-6.428044
 23
3.686907
 33
-3.600663
 62
0
  0
3DFACE
  8
Sphere001
 10
-6.371657
 20
3.655814
 30
-3.925381
 11
-6.103326
 21
3.655814
 31
-4.024552
 12
-6.066522
 22
3.686907
 32
-3.812608
 13
-6.265685
 23
3.686907
 33
-3.739000
 62
0
  0
3DFACE
  8
Sphere001
 10
-6.103326
 20
3.655814
 30
-4.024552
 11
-5.817774
 21
3.655814
 31
-4.024552
 12
-5.854578
 22
3.686907
 32
-3.812608
 13
-6.066522
 23
3.686907
 33
-3.812608
 62
0
  0
3DFACE
  8
Sphere001
 10
-5.817774
 20
3.655814
 30
-4.024552
 11
-5.549442
 21
3.655814
 31
-3.925381
 12
-5.655415
 22
3.686907
 32
-3.739000
 13
-5.854578
 23
3.686907
 33
-3.812608
 62
0
  0
3DFACE
  8
Sphere001
 10
-5.549442
 20
3.655814
 30
-3.925381
 11
-5.330697
 21
3.655814
 31
-3.739000
 12
-5.493056
 22
3.686907
 32
-3.600663
 13
-5.655415
 23
3.686907
 33
-3.739000
 62
0
  0
3DFACE
  8
Sphere001
 10
-5.330697
 20
3.655814
 30
-3.739000
 11
-5.187921
 21
3.655814
 31
-3.487890
 12
-5.387084
 22
3.686907
 32
-3.414282
 13
-5.493056
 23
3.686907
 33
-3.600663
 62
0
  0
3DFACE
  8
Sphere001
 10
-5.187921
 20
3.655814
 30
-3.487890
 11
-5.138335
 21
3.655814
 31
-3.202338
 12
-5.350280
 22
3.686907
 32
-3.202338
 13
-5.387084
 23
3.686907
 33
-3.414282
 62
0
  0
3DFACE
  8
Sphere001
 10
-5.138335
 20
3.655814
 30
-3.202338
 11
-5.187921
 21
3.655814
 31
-2.916785
 12
-5.387084
 22
3.686907
 32
-2.990393
 13
-5.350280
 23
3.686907
 33
-3.202338
 62
0
  0
3DFACE
  8
Sphere001
 10
-5.187921
 20
3.655814
 30
-2.916785
 11
-5.330697
 21
3.655814
 31
-2.665675
 12
-5.493056
 22
3.686907
 32
-2.804012
 13
-5.387084
 23
3.686907
 33
-2.990393
 62
0
  0
3DFACE
  8
Sphere001
 10
-5.330697
 20
3.655814
 30
-2.665675
 11
-5.549442
 21
3.655814
 31
-2.479294
 12
-5.655415
 22
3.686907
 32
-2.665675
 13
-5.493056
 23
3.686907
 33
-2.804012
 62
0
  0
3DFACE
  8
Sphere001
 10
-5.549442
 20
3.655814
 30
-2.479294
 11
-5.817774
 21
3.655814
 31
-2.380122
 12
-5.854578
 22
3.686907
 32
-2.592067
 13
-5.655415
 23
3.686907
 33
-2.665675
 62
0
  0
3DFACE
  8
Sphere001
 10
-5.817774
 20
3.655814
 30
-2.380122
 11
-6.103326
 21
3.655814
 31
-2.380122
 12
-6.066522
 22
3.686907
 32
-2.592067
 13
-5.854578
 23
3.686907
 33
-2.592067
 62
0
  0
3DFACE
  8
Sphere001
 10
-6.103326
 20
3.655814
 30
-2.380122
 11
-6.371657
 21
3.655814
 31
-2.479294
 12
-6.265685
 22
3.686907
 32
-2.665675
 13
-6.066522
 23
3.686907
 33
-2.592067
 62
0
  0
3DFACE
  8
Sphere001
 10
-6.371657
 20
3.655814
 30
-2.479294
 11
-6.590403
 21
3.655814
 31
-2.665675
 12
-6.428044
 22
3.686907
 32
-2.804012
 13
-6.265685
 23
3.686907
 33
-2.665675
 62
0
  0
3DFACE
  8
Sphere001
 10
-6.590403
 20
3.655814
 30
-2.665675
 11
-6.733179
 21
3.655814
 31
-2.916785
 12
-6.534016
 22
3.686907
 32
-2.990393
 13
-6.428044
 23
3.686907
 33
-2.804012
 62
0
  0
3DFACE
  8
Sphere001
 10
-6.733179
 20
3.655814
 30
-2.916785
 11
-6.782764
 21
3.655814
 31
-3.202338
 12
-6.570820
 22
3.686907
 32
-3.202338
 13
-6.534016
 23
3.686907
 33
-2.990393
 62
0
  0
3DFACE
  8
Sphere001
 10
-6.895538
 20
3.617671
 30
-3.202338
 11
-6.839151
 21
3.617671
 31
-3.527056
 12
-6.733179
 22
3.655814
 32
-3.487890
 13
-6.782764
 23
3.655814
 33
-3.202338
 62
0
  0
3DFACE
  8
Sphere001
 10
-6.839151
 20
3.617671
 30
-3.527056
 11
-6.676792
 21
3.617671
 31
-3.812608
 12
-6.590403
 22
3.655814
 32
-3.739000
 13
-6.733179
 23
3.655814
 33
-3.487890
 62
0
  0
3DFACE
  8
Sphere001
 10
-6.676792
 20
3.617671
 30
-3.812608
 11
-6.428044
 21
3.617671
 31
-4.024552
 12
-6.371657
 22
3.655814
 32
-3.925381
 13
-6.590403
 23
3.655814
 33
-3.739000
 62
0
  0
3DFACE
  8
Sphere001
 10
-6.428044
 20
3.617671
 30
-4.024552
 11
-6.122909
 21
3.617671
 31
-4.137326
 12
-6.103326
 22
3.655814
 32
-4.024552
 13
-6.371657
 23
3.655814
 33
-3.925381
 62
0
  0
3DFACE
  8
Sphere001
 10
-6.122909
 20
3.617671
 30
-4.137326
 11
-5.798191
 21
3.617671
 31
-4.137326
 12
-5.817774
 22
3.655814
 32
-4.024552
 13
-6.103326
 23
3.655814
 33
-4.024552
 62
0
  0
3DFACE
  8
Sphere001
 10
-5.798191
 20
3.617671
 30
-4.137326
 11
-5.493056
 21
3.617671
 31
-4.024552
 12
-5.549442
 22
3.655814
 32
-3.925381
 13
-5.817774
 23
3.655814
 33
-4.024552
 62
0
  0
3DFACE
  8
Sphere001
 10
-5.493056
 20
3.617671
 30
-4.024552
 11
-5.244308
 21
3.617671
 31
-3.812608
 12
-5.330697
 22
3.655814
 32
-3.739000
 13
-5.549442
 23
3.655814
 33
-3.925381
 62
0
  0
3DFACE
  8
Sphere001
 10
-5.244308
 20
3.617671
 30
-3.812608
 11
-5.081949
 21
3.617671
 31
-3.527056
 12
-5.187921
 22
3.655814
 32
-3.487890
 13
-5.330697
 23
3.655814
 33
-3.739000
 62
0
  0
3DFACE
  8
Sphere001
 10
-5.081949
 20
3.617671
 30
-3.527056
 11
-5.025562
 21
3.617671
 31
-3.202338
 12
-5.138335
 22
3.655814
 32
-3.202338
 13
-5.187921
 23
3.655814
 33
-3.487890
 62
0
  0
3DFACE
  8
Sphere001
 10
-5.025562
 20
3.617671
 30
-3.202338
 11
-5.081949
 21
3.617671
 31
-2.877620
 12
-5.187921
 22
3.655814
 32
-2.916785
 13
-5.138335
 23
3.655814
 33
-3.202338
 62
0
  0
3DFACE
  8
Sphere001
 10
-5.081949
 20
3.617671
 30
-2.877620
 11
-5.244308
 21
3.617671
 31
-2.592067
 12
-5.330697
 22
3.655814
 32
-2.665675
 13
-5.187921
 23
3.655814
 33
-2.916785
 62
0
  0
3DFACE
  8
Sphere001
 10
-5.244308
 20
3.617671
 30
-2.592067
 11
-5.493056
 21
3.617671
 31
-2.380123
 12
-5.549442
 22
3.655814
 32
-2.479294
 13
-5.330697
 23
3.655814
 33
-2.665675
 62
0
  0
3DFACE
  8
Sphere001
 10
-5.493056
 20
3.617671
 30
-2.380123
 11
-5.798191
 21
3.617671
 31
-2.267349
 12
-5.817774
 22
3.655814
 32
-2.380122
 13
-5.549442
 23
3.655814
 33
-2.479294
 62
0
  0
3DFACE
  8
Sphere001
 10
-5.798191
 20
3.617671
 30
-2.267349
 11
-6.122909
 21
3.617671
 31
-2.267349
 12
-6.103326
 22
3.655814
 32
-2.380122
 13
-5.817774
 23
3.655814
 33
-2.380122
 62
0
  0
3DFACE
  8
Sphere001
 10
-6.122909
 20
3.617671
 30
-2.267349
 11
-6.428044
 21
3.617671
 31
-2.380123
 12
-6.371657
 22
3.655814
 32
-2.479294
 13
-6.103326
 23
3.655814
 33
-2.380122
 62
0
  0
3DFACE
  8
Sphere001
 10
-6.428044
 20
3.617671
 30
-2.380123
 11
-6.676792
 21
3.617671
 31
-2.592067
 12
-6.590403
 22
3.655814
 32
-2.665675
 13
-6.371657
 23
3.655814
 33
-2.479294
 62
0
  0
3DFACE
  8
Sphere001
 10
-6.676792
 20
3.617671
 30
-2.592067
 11
-6.839151
 21
3.617671
 31
-2.877620
 12
-6.733179
 22
3.655814
 32
-2.916785
 13
-6.590403
 23
3.655814
 33
-2.665675
 62
0
  0
3DFACE
  8
Sphere001
 10
-6.839151
 20
3.617671
 30
-2.877620
 11
-6.895538
 21
3.617671
 31
-3.202338
 12
-6.782764
 22
3.655814
 32
-3.202338
 13
-6.733179
 23
3.655814
 33
-2.916785
 62
0
  0
3DFACE
  8
Sphere001
 10
-6.895538
 20
3.577082
 30
-3.202338
 11
-6.839151
 21
3.577082
 31
-3.527056
 12
-6.839151
 22
3.617671
 32
-3.527056
 13
-6.895538
 23
3.617671
 33
-3.202338
 62
0
  0
3DFACE
  8
Sphere001
 10
-6.839151
 20
3.577082
 30
-3.527056
 11
-6.676792
 21
3.577082
 31
-3.812608
 12
-6.676792
 22
3.617671
 32
-3.812608
 13
-6.839151
 23
3.617671
 33
-3.527056
 62
0
  0
3DFACE
  8
Sphere001
 10
-6.676792
 20
3.577082
 30
-3.812608
 11
-6.428044
 21
3.577082
 31
-4.024552
 12
-6.428044
 22
3.617671
 32
-4.024552
 13
-6.676792
 23
3.617671
 33
-3.812608
 62
0
  0
3DFACE
  8
Sphere001
 10
-6.428044
 20
3.577082
 30
-4.024552
 11
-6.122909
 21
3.577082
 31
-4.137326
 12
-6.122909
 22
3.617671
 32
-4.137326
 13
-6.428044
 23
3.617671
 33
-4.024552
 62
0
  0
3DFACE
  8
Sphere001
 10
-6.122909
 20
3.577082
 30
-4.137326
 11
-5.798191
 21
3.577082
 31
-4.137326
 12
-5.798191
 22
3.617671
 32
-4.137326
 13
-6.122909
 23
3.617671
 33
-4.137326
 62
0
  0
3DFACE
  8
Sphere001
 10
-5.798191
 20
3.577082
 30
-4.137326
 11
-5.493056
 21
3.577082
 31
-4.024552
 12
-5.493056
 22
3.617671
 32
-4.024552
 13
-5.798191
 23
3.617671
 33
-4.137326
 62
0
  0
3DFACE
  8
Sphere001
 10
-5.493056
 20
3.577082
 30
-4.024552
 11
-5.244308
 21
3.577082
 31
-3.812608
 12
-5.244308
 22
3.617671
 32
-3.812608
 13
-5.493056
 23
3.617671
 33
-4.024552
 62
0
  0
3DFACE
  8
Sphere001
 10
-5.244308
 20
3.577082
 30
-3.812608
 11
-5.081949
 21
3.577082
 31
-3.527056
 12
-5.081949
 22
3.617671
 32
-3.527056
 13
-5.244308
 23
3.617671
 33
-3.812608
 62
0
  0
3DFACE
  8
Sphere001
 10
-5.081949
 20
3.577082
 30
-3.527056
 11
-5.025562
 21
3.577082
 31
-3.202338
 12
-5.025562
 22
3.617671
 32
-3.202338
 13
-5.081949
 23
3.617671
 33
-3.527056
 62
0
  0
3DFACE
  8
Sphere001
 10
-5.025562
 20
3.577082
 30
-3.202338
 11
-5.081949
 21
3.577082
 31
-2.877620
 12
-5.081949
 22
3.617671
 32
-2.877620
 13
-5.025562
 23
3.617671
 33
-3.202338
 62
0
  0
3DFACE
  8
Sphere001
 10
-5.081949
 20
3.577082
 30
-2.877620
 11
-5.244308
 21
3.577082
 31
-2.592067
 12
-5.244308
 22
3.617671
 32
-2.592067
 13
-5.081949
 23
3.617671
 33
-2.877620
 62
0
  0
3DFACE
  8
Sphere001
 10
-5.244308
 20
3.577082
 30
-2.592067
 11
-5.493056
 21
3.577082
 31
-2.380122
 12
-5.493056
 22
3.617671
 32
-2.380123
 13
-5.244308
 23
3.617671
 33
-2.592067
 62
0
  0
3DFACE
  8
Sphere001
 10
-5.493056
 20
3.577082
 30
-2.380122
 11
-5.798191
 21
3.577082
 31
-2.267349
 12
-5.798191
 22
3.617671
 32
-2.267349
 13
-5.493056
 23
3.617671
 33
-2.380123
 62
0
  0
3DFACE
  8
Sphere001
 10
-5.798191
 20
3.577082
 30
-2.267349
 11
-6.122909
 21
3.577082
 31
-2.267349
 12
-6.122909
 22
3.617671
 32
-2.267349
 13
-5.798191
 23
3.617671
 33
-2.267349
 62
0
  0
3DFACE
  8
Sphere001
 10
-6.122909
 20
3.577082
 30
-2.267349
 11
-6.428044
 21
3.577082
 31
-2.380122
 12
-6.428044
 22
3.617671
 32
-2.380123
 13
-6.122909
 23
3.617671
 33
-2.267349
 62
0
  0
3DFACE
  8
Sphere001
 10
-6.428044
 20
3.577082
 30
-2.380122
 11
-6.676792
 21
3.577082
 31
-2.592067
 12
-6.676792
 22
3.617671
 32
-2.592067
 13
-6.428044
 23
3.617671
 33
-2.380123
 62
0
  0
3DFACE
  8
Sphere001
 10
-6.676792
 20
3.577082
 30
-2.592067
 11
-6.839151
 21
3.577082
 31
-2.877620
 12
-6.839151
 22
3.617671
 32
-2.877620
 13
-6.676792
 23
3.617671
 33
-2.592067
 62
0
  0
3DFACE
  8
Sphere001
 10
-6.839151
 20
3.577082
 30
-2.877620
 11
-6.895538
 21
3.577082
 31
-3.202338
 12
-6.895538
 22
3.617671
 32
-3.202338
 13
-6.839151
 23
3.617671
 33
-2.877620
 62
0
  0
3DFACE
  8
Sphere001
 10
-6.782764
 20
3.538940
 30
-3.202338
 11
-6.733179
 21
3.538940
 31
-3.487890
 12
-6.839151
 22
3.577082
 32
-3.527056
 13
-6.895538
 23
3.577082
 33
-3.202338
 62
0
  0
3DFACE
  8
Sphere001
 10
-6.733179
 20
3.538940
 30
-3.487890
 11
-6.590403
 21
3.538940
 31
-3.739000
 12
-6.676792
 22
3.577082
 32
-3.812608
 13
-6.839151
 23
3.577082
 33
-3.527056
 62
0
  0
3DFACE
  8
Sphere001
 10
-6.590403
 20
3.538940
 30
-3.739000
 11
-6.371657
 21
3.538940
 31
-3.925381
 12
-6.428044
 22
3.577082
 32
-4.024552
 13
-6.676792
 23
3.577082
 33
-3.812608
 62
0
  0
3DFACE
  8
Sphere001
 10
-6.371657
 20
3.538940
 30
-3.925381
 11
-6.103326
 21
3.538940
 31
-4.024552
 12
-6.122909
 22
3.577082
 32
-4.137326
 13
-6.428044
 23
3.577082
 33
-4.024552
 62
0
  0
3DFACE
  8
Sphere001
 10
-6.103326
 20
3.538940
 30
-4.024552
 11
-5.817774
 21
3.538940
 31
-4.024552
 12
-5.798191
 22
3.577082
 32
-4.137326
 13
-6.122909
 23
3.577082
 33
-4.137326
 62
0
  0
3DFACE
  8
Sphere001
 10
-5.817774
 20
3.538940
 30
-4.024552
 11
-5.549443
 21
3.538940
 31
-3.925381
 12
-5.493056
 22
3.577082
 32
-4.024552
 13
-5.798191
 23
3.577082
 33
-4.137326
 62
0
  0
3DFACE
  8
Sphere001
 10
-5.549443
 20
3.538940
 30
-3.925381
 11
-5.330697
 21
3.538940
 31
-3.739000
 12
-5.244308
 22
3.577082
 32
-3.812608
 13
-5.493056
 23
3.577082
 33
-4.024552
 62
0
  0
3DFACE
  8
Sphere001
 10
-5.330697
 20
3.538940
 30
-3.739000
 11
-5.187921
 21
3.538940
 31
-3.487890
 12
-5.081949
 22
3.577082
 32
-3.527056
 13
-5.244308
 23
3.577082
 33
-3.812608
 62
0
  0
3DFACE
  8
Sphere001
 10
-5.187921
 20
3.538940
 30
-3.487890
 11
-5.138335
 21
3.538940
 31
-3.202338
 12
-5.025562
 22
3.577082
 32
-3.202338
 13
-5.081949
 23
3.577082
 33
-3.527056
 62
0
  0
3DFACE
  8
Sphere001
 10
-5.138335
 20
3.538940
 30
-3.202338
 11
-5.187921
 21
3.538940
 31
-2.916785
 12
-5.081949
 22
3.577082
 32
-2.877620
 13
-5.025562
 23
3.577082
 33
-3.202338
 62
0
  0
3DFACE
  8
Sphere001
 10
-5.187921
 20
3.538940
 30
-2.916785
 11
-5.330697
 21
3.538940
 31
-2.665675
 12
-5.244308
 22
3.577082
 32
-2.592067
 13
-5.081949
 23
3.577082
 33
-2.877620
 62
0
  0
3DFACE
  8
Sphere001
 10
-5.330697
 20
3.538940
 30
-2.665675
 11
-5.549443
 21
3.538940
 31
-2.479294
 12
-5.493056
 22
3.577082
 32
-2.380122
 13
-5.244308
 23
3.577082
 33
-2.592067
 62
0
  0
3DFACE
  8
Sphere001
 10
-5.549443
 20
3.538940
 30
-2.479294
 11
-5.817774
 21
3.538940
 31
-2.380123
 12
-5.798191
 22
3.577082
 32
-2.267349
 13
-5.493056
 23
3.577082
 33
-2.380122
 62
0
  0
3DFACE
  8
Sphere001
 10
-5.817774
 20
3.538940
 30
-2.380123
 11
-6.103326
 21
3.538940
 31
-2.380123
 12
-6.122909
 22
3.577082
 32
-2.267349
 13
-5.798191
 23
3.577082
 33
-2.267349
 62
0
  0
3DFACE
  8
Sphere001
 10
-6.103326
 20
3.538940
 30
-2.380123
 11
-6.371657
 21
3.538940
 31
-2.479294
 12
-6.428044
 22
3.577082
 32
-2.380122
 13
-6.122909
 23
3.577082
 33
-2.267349
 62
0
  0
3DFACE
  8
Sphere001
 10
-6.371657
 20
3.538940
 30
-2.479294
 11
-6.590403
 21
3.538940
 31
-2.665675
 12
-6.676792
 22
3.577082
 32
-2.592067
 13
-6.428044
 23
3.577082
 33
-2.380122
 62
0
  0
3DFACE
  8
Sphere001
 10
-6.590403
 20
3.538940
 30
-2.665675
 11
-6.733179
 21
3.538940
 31
-2.916785
 12
-6.839151
 22
3.577082
 32
-2.877620
 13
-6.676792
 23
3.577082
 33
-2.592067
 62
0
  0
3DFACE
  8
Sphere001
 10
-6.733179
 20
3.538940
 30
-2.916785
 11
-6.782764
 21
3.538940
 31
-3.202338
 12
-6.895538
 22
3.577082
 32
-3.202338
 13
-6.839151
 23
3.577082
 33
-2.877620
 62
0
  0
3DFACE
  8
Sphere001
 10
-6.570820
 20
3.507847
 30
-3.202338
 11
-6.534016
 21
3.507847
 31
-3.414282
 12
-6.733179
 22
3.538940
 32
-3.487890
 13
-6.782764
 23
3.538940
 33
-3.202338
 62
0
  0
3DFACE
  8
Sphere001
 10
-6.534016
 20
3.507847
 30
-3.414282
 11
-6.428044
 21
3.507847
 31
-3.600663
 12
-6.590403
 22
3.538940
 32
-3.739000
 13
-6.733179
 23
3.538940
 33
-3.487890
 62
0
  0
3DFACE
  8
Sphere001
 10
-6.428044
 20
3.507847
 30
-3.600663
 11
-6.265685
 21
3.507847
 31
-3.739000
 12
-6.371657
 22
3.538940
 32
-3.925381
 13
-6.590403
 23
3.538940
 33
-3.739000
 62
0
  0
3DFACE
  8
Sphere001
 10
-6.265685
 20
3.507847
 30
-3.739000
 11
-6.066522
 21
3.507847
 31
-3.812608
 12
-6.103326
 22
3.538940
 32
-4.024552
 13
-6.371657
 23
3.538940
 33
-3.925381
 62
0
  0
3DFACE
  8
Sphere001
 10
-6.066522
 20
3.507847
 30
-3.812608
 11
-5.854578
 21
3.507847
 31
-3.812608
 12
-5.817774
 22
3.538940
 32
-4.024552
 13
-6.103326
 23
3.538940
 33
-4.024552
 62
0
  0
3DFACE
  8
Sphere001
 10
-5.854578
 20
3.507847
 30
-3.812608
 11
-5.655415
 21
3.507847
 31
-3.739000
 12
-5.549443
 22
3.538940
 32
-3.925381
 13
-5.817774
 23
3.538940
 33
-4.024552
 62
0
  0
3DFACE
  8
Sphere001
 10
-5.655415
 20
3.507847
 30
-3.739000
 11
-5.493056
 21
3.507847
 31
-3.600663
 12
-5.330697
 22
3.538940
 32
-3.739000
 13
-5.549443
 23
3.538940
 33
-3.925381
 62
0
  0
3DFACE
  8
Sphere001
 10
-5.493056
 20
3.507847
 30
-3.600663
 11
-5.387084
 21
3.507847
 31
-3.414282
 12
-5.187921
 22
3.538940
 32
-3.487890
 13
-5.330697
 23
3.538940
 33
-3.739000
 62
0
  0
3DFACE
  8
Sphere001
 10
-5.387084
 20
3.507847
 30
-3.414282
 11
-5.350280
 21
3.507847
 31
-3.202338
 12
-5.138335
 22
3.538940
 32
-3.202338
 13
-5.187921
 23
3.538940
 33
-3.487890
 62
0
  0
3DFACE
  8
Sphere001
 10
-5.350280
 20
3.507847
 30
-3.202338
 11
-5.387084
 21
3.507847
 31
-2.990393
 12
-5.187921
 22
3.538940
 32
-2.916785
 13
-5.138335
 23
3.538940
 33
-3.202338
 62
0
  0
3DFACE
  8
Sphere001
 10
-5.387084
 20
3.507847
 30
-2.990393
 11
-5.493056
 21
3.507847
 31
-2.804012
 12
-5.330697
 22
3.538940
 32
-2.665675
 13
-5.187921
 23
3.538940
 33
-2.916785
 62
0
  0
3DFACE
  8
Sphere001
 10
-5.493056
 20
3.507847
 30
-2.804012
 11
-5.655415
 21
3.507847
 31
-2.665675
 12
-5.549443
 22
3.538940
 32
-2.479294
 13
-5.330697
 23
3.538940
 33
-2.665675
 62
0
  0
3DFACE
  8
Sphere001
 10
-5.655415
 20
3.507847
 30
-2.665675
 11
-5.854578
 21
3.507847
 31
-2.592067
 12
-5.817774
 22
3.538940
 32
-2.380123
 13
-5.549443
 23
3.538940
 33
-2.479294
 62
0
  0
3DFACE
  8
Sphere001
 10
-5.854578
 20
3.507847
 30
-2.592067
 11
-6.066522
 21
3.507847
 31
-2.592067
 12
-6.103326
 22
3.538940
 32
-2.380123
 13
-5.817774
 23
3.538940
 33
-2.380123
 62
0
  0
3DFACE
  8
Sphere001
 10
-6.066522
 20
3.507847
 30
-2.592067
 11
-6.265685
 21
3.507847
 31
-2.665675
 12
-6.371657
 22
3.538940
 32
-2.479294
 13
-6.103326
 23
3.538940
 33
-2.380123
 62
0
  0
3DFACE
  8
Sphere001
 10
-6.265685
 20
3.507847
 30
-2.665675
 11
-6.428044
 21
3.507847
 31
-2.804012
 12
-6.590403
 22
3.538940
 32
-2.665675
 13
-6.371657
 23
3.538940
 33
-2.479294
 62
0
  0
3DFACE
  8
Sphere001
 10
-6.428044
 20
3.507847
 30
-2.804012
 11
-6.534016
 21
3.507847
 31
-2.990393
 12
-6.733179
 22
3.538940
 32
-2.916785
 13
-6.590403
 23
3.538940
 33
-2.665675
 62
0
  0
3DFACE
  8
Sphere001
 10
-6.534016
 20
3.507847
 30
-2.990393
 11
-6.570820
 21
3.507847
 31
-3.202338
 12
-6.782764
 22
3.538940
 32
-3.202338
 13
-6.733179
 23
3.538940
 33
-2.916785
 62
0
  0
3DFACE
  8
Sphere001
 10
-6.285268
 20
3.487551
 30
-3.202338
 11
-6.265685
 21
3.487551
 31
-3.315111
 12
-6.534016
 22
3.507847
 32
-3.414282
 13
-6.570820
 23
3.507847
 33
-3.202338
 62
0
  0
3DFACE
  8
Sphere001
 10
-6.265685
 20
3.487551
 30
-3.315111
 11
-6.209298
 21
3.487551
 31
-3.414282
 12
-6.428044
 22
3.507847
 32
-3.600663
 13
-6.534016
 23
3.507847
 33
-3.414282
 62
0
  0
3DFACE
  8
Sphere001
 10
-6.209298
 20
3.487551
 30
-3.414282
 11
-6.122909
 21
3.487551
 31
-3.487890
 12
-6.265685
 22
3.507847
 32
-3.739000
 13
-6.428044
 23
3.507847
 33
-3.600663
 62
0
  0
3DFACE
  8
Sphere001
 10
-6.122909
 20
3.487551
 30
-3.487890
 11
-6.016936
 21
3.487551
 31
-3.527056
 12
-6.066522
 22
3.507847
 32
-3.812608
 13
-6.265685
 23
3.507847
 33
-3.739000
 62
0
  0
3DFACE
  8
Sphere001
 10
-6.016936
 20
3.487551
 30
-3.527056
 11
-5.904163
 21
3.487551
 31
-3.527056
 12
-5.854578
 22
3.507847
 32
-3.812608
 13
-6.066522
 23
3.507847
 33
-3.812608
 62
0
  0
3DFACE
  8
Sphere001
 10
-5.904163
 20
3.487551
 30
-3.527056
 11
-5.798191
 21
3.487551
 31
-3.487890
 12
-5.655415
 22
3.507847
 32
-3.739000
 13
-5.854578
 23
3.507847
 33
-3.812608
 62
0
  0
3DFACE
  8
Sphere001
 10
-5.798191
 20
3.487551
 30
-3.487890
 11
-5.711802
 21
3.487551
 31
-3.414282
 12
-5.493056
 22
3.507847
 32
-3.600663
 13
-5.655415
 23
3.507847
 33
-3.739000
 62
0
  0
3DFACE
  8
Sphere001
 10
-5.711802
 20
3.487551
 30
-3.414282
 11
-5.655415
 21
3.487551
 31
-3.315111
 12
-5.387084
 22
3.507847
 32
-3.414282
 13
-5.493056
 23
3.507847
 33
-3.600663
 62
0
  0
3DFACE
  8
Sphere001
 10
-5.655415
 20
3.487551
 30
-3.315111
 11
-5.635832
 21
3.487551
 31
-3.202338
 12
-5.350280
 22
3.507847
 32
-3.202338
 13
-5.387084
 23
3.507847
 33
-3.414282
 62
0
  0
3DFACE
  8
Sphere001
 10
-5.635832
 20
3.487551
 30
-3.202338
 11
-5.655415
 21
3.487551
 31
-3.089564
 12
-5.387084
 22
3.507847
 32
-2.990393
 13
-5.350280
 23
3.507847
 33
-3.202338
 62
0
  0
3DFACE
  8
Sphere001
 10
-5.655415
 20
3.487551
 30
-3.089564
 11
-5.711802
 21
3.487551
 31
-2.990393
 12
-5.493056
 22
3.507847
 32
-2.804012
 13
-5.387084
 23
3.507847
 33
-2.990393
 62
0
  0
3DFACE
  8
Sphere001
 10
-5.711802
 20
3.487551
 30
-2.990393
 11
-5.798191
 21
3.487551
 31
-2.916785
 12
-5.655415
 22
3.507847
 32
-2.665675
 13
-5.493056
 23
3.507847
 33
-2.804012
 62
0
  0
3DFACE
  8
Sphere001
 10
-5.798191
 20
3.487551
 30
-2.916785
 11
-5.904163
 21
3.487551
 31
-2.877619
 12
-5.854578
 22
3.507847
 32
-2.592067
 13
-5.655415
 23
3.507847
 33
-2.665675
 62
0
  0
3DFACE
  8
Sphere001
 10
-5.904163
 20
3.487551
 30
-2.877619
 11
-6.016936
 21
3.487551
 31
-2.877619
 12
-6.066522
 22
3.507847
 32
-2.592067
 13
-5.854578
 23
3.507847
 33
-2.592067
 62
0
  0
3DFACE
  8
Sphere001
 10
-6.016936
 20
3.487551
 30
-2.877619
 11
-6.122909
 21
3.487551
 31
-2.916785
 12
-6.265685
 22
3.507847
 32
-2.665675
 13
-6.066522
 23
3.507847
 33
-2.592067
 62
0
  0
3DFACE
  8
Sphere001
 10
-6.122909
 20
3.487551
 30
-2.916785
 11
-6.209298
 21
3.487551
 31
-2.990393
 12
-6.428044
 22
3.507847
 32
-2.804012
 13
-6.265685
 23
3.507847
 33
-2.665675
 62
0
  0
3DFACE
  8
Sphere001
 10
-6.209298
 20
3.487551
 30
-2.990393
 11
-6.265685
 21
3.487551
 31
-3.089564
 12
-6.534016
 22
3.507847
 32
-2.990393
 13
-6.428044
 23
3.507847
 33
-2.804012
 62
0
  0
3DFACE
  8
Sphere001
 10
-6.265685
 20
3.487551
 30
-3.089564
 11
-6.285268
 21
3.487551
 31
-3.202338
 12
-6.570820
 22
3.507847
 32
-3.202338
 13
-6.534016
 23
3.507847
 33
-2.990393
 62
0
  0
3DFACE
  8
Sphere001
 10
-5.960550
 20
3.480503
 30
-3.202338
 11
-6.265685
 21
3.487551
 31
-3.315111
 12
-6.285268
 22
3.487551
 32
-3.202338
 13
-6.285268
 23
3.487551
 33
-3.202338
 62
0
  0
3DFACE
  8
Sphere001
 10
-5.960550
 20
3.480503
 30
-3.202338
 11
-6.209298
 21
3.487551
 31
-3.414282
 12
-6.265685
 22
3.487551
 32
-3.315111
 13
-6.265685
 23
3.487551
 33
-3.315111
 62
0
  0
3DFACE
  8
Sphere001
 10
-5.960550
 20
3.480503
 30
-3.202338
 11
-6.122909
 21
3.487551
 31
-3.487890
 12
-6.209298
 22
3.487551
 32
-3.414282
 13
-6.209298
 23
3.487551
 33
-3.414282
 62
0
  0
3DFACE
  8
Sphere001
 10
-5.960550
 20
3.480503
 30
-3.202338
 11
-6.016936
 21
3.487551
 31
-3.527056
 12
-6.122909
 22
3.487551
 32
-3.487890
 13
-6.122909
 23
3.487551
 33
-3.487890
 62
0
  0
3DFACE
  8
Sphere001
 10
-5.960550
 20
3.480503
 30
-3.202338
 11
-5.904163
 21
3.487551
 31
-3.527056
 12
-6.016936
 22
3.487551
 32
-3.527056
 13
-6.016936
 23
3.487551
 33
-3.527056
 62
0
  0
3DFACE
  8
Sphere001
 10
-5.960550
 20
3.480503
 30
-3.202338
 11
-5.798191
 21
3.487551
 31
-3.487890
 12
-5.904163
 22
3.487551
 32
-3.527056
 13
-5.904163
 23
3.487551
 33
-3.527056
 62
0
  0
3DFACE
  8
Sphere001
 10
-5.960550
 20
3.480503
 30
-3.202338
 11
-5.711802
 21
3.487551
 31
-3.414282
 12
-5.798191
 22
3.487551
 32
-3.487890
 13
-5.798191
 23
3.487551
 33
-3.487890
 62
0
  0
3DFACE
  8
Sphere001
 10
-5.960550
 20
3.480503
 30
-3.202338
 11
-5.655415
 21
3.487551
 31
-3.315111
 12
-5.711802
 22
3.487551
 32
-3.414282
 13
-5.711802
 23
3.487551
 33
-3.414282
 62
0
  0
3DFACE
  8
Sphere001
 10
-5.960550
 20
3.480503
 30
-3.202338
 11
-5.635832
 21
3.487551
 31
-3.202338
 12
-5.655415
 22
3.487551
 32
-3.315111
 13
-5.655415
 23
3.487551
 33
-3.315111
 62
0
  0
3DFACE
  8
Sphere001
 10
-5.960550
 20
3.480503
 30
-3.202338
 11
-5.655415
 21
3.487551
 31
-3.089564
 12
-5.635832
 22
3.487551
 32
-3.202338
 13
-5.635832
 23
3.487551
 33
-3.202338
 62
0
  0
3DFACE
  8
Sphere001
 10
-5.960550
 20
3.480503
 30
-3.202338
 11
-5.711802
 21
3.487551
 31
-2.990393
 12
-5.655415
 22
3.487551
 32
-3.089564
 13
-5.655415
 23
3.487551
 33
-3.089564
 62
0
  0
3DFACE
  8
Sphere001
 10
-5.960550
 20
3.480503
 30
-3.202338
 11
-5.798191
 21
3.487551
 31
-2.916785
 12
-5.711802
 22
3.487551
 32
-2.990393
 13
-5.711802
 23
3.487551
 33
-2.990393
 62
0
  0
3DFACE
  8
Sphere001
 10
-5.960550
 20
3.480503
 30
-3.202338
 11
-5.904163
 21
3.487551
 31
-2.877619
 12
-5.798191
 22
3.487551
 32
-2.916785
 13
-5.798191
 23
3.487551
 33
-2.916785
 62
0
  0
3DFACE
  8
Sphere001
 10
-5.960550
 20
3.480503
 30
-3.202338
 11
-6.016936
 21
3.487551
 31
-2.877619
 12
-5.904163
 22
3.487551
 32
-2.877619
 13
-5.904163
 23
3.487551
 33
-2.877619
 62
0
  0
3DFACE
  8
Sphere001
 10
-5.960550
 20
3.480503
 30
-3.202338
 11
-6.122909
 21
3.487551
 31
-2.916785
 12
-6.016936
 22
3.487551
 32
-2.877619
 13
-6.016936
 23
3.487551
 33
-2.877619
 62
0
  0
3DFACE
  8
Sphere001
 10
-5.960550
 20
3.480503
 30
-3.202338
 11
-6.209298
 21
3.487551
 31
-2.990393
 12
-6.122909
 22
3.487551
 32
-2.916785
 13
-6.122909
 23
3.487551
 33
-2.916785
 62
0
  0
3DFACE
  8
Sphere001
 10
-5.960550
 20
3.480503
 30
-3.202338
 11
-6.265685
 21
3.487551
 31
-3.089564
 12
-6.209298
 22
3.487551
 32
-2.990393
 13
-6.209298
 23
3.487551
 33
-2.990393
 62
0
  0
3DFACE
  8
Sphere001
 10
-5.960550
 20
3.480503
 30
-3.202338
 11
-6.285268
 21
3.487551
 31
-3.202338
 12
-6.265685
 22
3.487551
 32
-3.089564
 13
-6.265685
 23
3.487551
 33
-3.089564
 62
0
  0
3DFACE
  8
Sphere1001
 10
-6.285268
 20
4.969349
 30
-3.202338
 11
-6.265685
 21
4.969349
 31
-3.315111
 12
-5.960550
 22
4.990494
 32
-3.202338
 13
-5.960550
 23
4.990494
 33
-3.202338
 62
0
  0
3DFACE
  8
Sphere1001
 10
-6.265685
 20
4.969349
 30
-3.315111
 11
-6.209298
 21
4.969349
 31
-3.414282
 12
-5.960550
 22
4.990494
 32
-3.202338
 13
-5.960550
 23
4.990494
 33
-3.202338
 62
0
  0
3DFACE
  8
Sphere1001
 10
-6.209298
 20
4.969349
 30
-3.414282
 11
-6.122909
 21
4.969349
 31
-3.487890
 12
-5.960550
 22
4.990494
 32
-3.202338
 13
-5.960550
 23
4.990494
 33
-3.202338
 62
0
  0
3DFACE
  8
Sphere1001
 10
-6.122909
 20
4.969349
 30
-3.487890
 11
-6.016936
 21
4.969349
 31
-3.527056
 12
-5.960550
 22
4.990494
 32
-3.202338
 13
-5.960550
 23
4.990494
 33
-3.202338
 62
0
  0
3DFACE
  8
Sphere1001
 10
-6.016936
 20
4.969349
 30
-3.527056
 11
-5.904163
 21
4.969349
 31
-3.527056
 12
-5.960550
 22
4.990494
 32
-3.202338
 13
-5.960550
 23
4.990494
 33
-3.202338
 62
0
  0
3DFACE
  8
Sphere1001
 10
-5.904163
 20
4.969349
 30
-3.527056
 11
-5.798191
 21
4.969349
 31
-3.487890
 12
-5.960550
 22
4.990494
 32
-3.202338
 13
-5.960550
 23
4.990494
 33
-3.202338
 62
0
  0
3DFACE
  8
Sphere1001
 10
-5.798191
 20
4.969349
 30
-3.487890
 11
-5.711802
 21
4.969349
 31
-3.414282
 12
-5.960550
 22
4.990494
 32
-3.202338
 13
-5.960550
 23
4.990494
 33
-3.202338
 62
0
  0
3DFACE
  8
Sphere1001
 10
-5.711802
 20
4.969349
 30
-3.414282
 11
-5.655415
 21
4.969349
 31
-3.315111
 12
-5.960550
 22
4.990494
 32
-3.202338
 13
-5.960550
 23
4.990494
 33
-3.202338
 62
0
  0
3DFACE
  8
Sphere1001
 10
-5.655415
 20
4.969349
 30
-3.315111
 11
-5.635832
 21
4.969349
 31
-3.202338
 12
-5.960550
 22
4.990494
 32
-3.202338
 13
-5.960550
 23
4.990494
 33
-3.202338
 62
0
  0
3DFACE
  8
Sphere1001
 10
-5.635832
 20
4.969349
 30
-3.202338
 11
-5.655415
 21
4.969349
 31
-3.089564
 12
-5.960550
 22
4.990494
 32
-3.202338
 13
-5.960550
 23
4.990494
 33
-3.202338
 62
0
  0
3DFACE
  8
Sphere1001
 10
-5.655415
 20
4.969349
 30
-3.089564
 11
-5.711802
 21
4.969349
 31
-2.990393
 12
-5.960550
 22
4.990494
 32
-3.202338
 13
-5.960550
 23
4.990494
 33
-3.202338
 62
0
  0
3DFACE
  8
Sphere1001
 10
-5.711802
 20
4.969349
 30
-2.990393
 11
-5.798191
 21
4.969349
 31
-2.916785
 12
-5.960550
 22
4.990494
 32
-3.202338
 13
-5.960550
 23
4.990494
 33
-3.202338
 62
0
  0
3DFACE
  8
Sphere1001
 10
-5.798191
 20
4.969349
 30
-2.916785
 11
-5.904163
 21
4.969349
 31
-2.877620
 12
-5.960550
 22
4.990494
 32
-3.202338
 13
-5.960550
 23
4.990494
 33
-3.202338
 62
0
  0
3DFACE
  8
Sphere1001
 10
-5.904163
 20
4.969349
 30
-2.877620
 11
-6.016936
 21
4.969349
 31
-2.877620
 12
-5.960550
 22
4.990494
 32
-3.202338
 13
-5.960550
 23
4.990494
 33
-3.202338
 62
0
  0
3DFACE
  8
Sphere1001
 10
-6.016936
 20
4.969349
 30
-2.877620
 11
-6.122909
 21
4.969349
 31
-2.916785
 12
-5.960550
 22
4.990494
 32
-3.202338
 13
-5.960550
 23
4.990494
 33
-3.202338
 62
0
  0
3DFACE
  8
Sphere1001
 10
-6.122909
 20
4.969349
 30
-2.916785
 11
-6.209298
 21
4.969349
 31
-2.990393
 12
-5.960550
 22
4.990494
 32
-3.202338
 13
-5.960550
 23
4.990494
 33
-3.202338
 62
0
  0
3DFACE
  8
Sphere1001
 10
-6.209298
 20
4.969349
 30
-2.990393
 11
-6.265685
 21
4.969349
 31
-3.089564
 12
-5.960550
 22
4.990494
 32
-3.202338
 13
-5.960550
 23
4.990494
 33
-3.202338
 62
0
  0
3DFACE
  8
Sphere1001
 10
-6.265685
 20
4.969349
 30
-3.089564
 11
-6.285268
 21
4.969349
 31
-3.202338
 12
-5.960550
 22
4.990494
 32
-3.202338
 13
-5.960550
 23
4.990494
 33
-3.202338
 62
0
  0
3DFACE
  8
Sphere1001
 10
-6.570820
 20
4.908464
 30
-3.202338
 11
-6.534016
 21
4.908464
 31
-3.414282
 12
-6.265685
 22
4.969349
 32
-3.315111
 13
-6.285268
 23
4.969349
 33
-3.202338
 62
0
  0
3DFACE
  8
Sphere1001
 10
-6.534016
 20
4.908464
 30
-3.414282
 11
-6.428044
 21
4.908464
 31
-3.600663
 12
-6.209298
 22
4.969349
 32
-3.414282
 13
-6.265685
 23
4.969349
 33
-3.315111
 62
0
  0
3DFACE
  8
Sphere1001
 10
-6.428044
 20
4.908464
 30
-3.600663
 11
-6.265685
 21
4.908464
 31
-3.739000
 12
-6.122909
 22
4.969349
 32
-3.487890
 13
-6.209298
 23
4.969349
 33
-3.414282
 62
0
  0
3DFACE
  8
Sphere1001
 10
-6.265685
 20
4.908464
 30
-3.739000
 11
-6.066522
 21
4.908464
 31
-3.812608
 12
-6.016936
 22
4.969349
 32
-3.527056
 13
-6.122909
 23
4.969349
 33
-3.487890
 62
0
  0
3DFACE
  8
Sphere1001
 10
-6.066522
 20
4.908464
 30
-3.812608
 11
-5.854578
 21
4.908464
 31
-3.812608
 12
-5.904163
 22
4.969349
 32
-3.527056
 13
-6.016936
 23
4.969349
 33
-3.527056
 62
0
  0
3DFACE
  8
Sphere1001
 10
-5.854578
 20
4.908464
 30
-3.812608
 11
-5.655415
 21
4.908464
 31
-3.739000
 12
-5.798191
 22
4.969349
 32
-3.487890
 13
-5.904163
 23
4.969349
 33
-3.527056
 62
0
  0
3DFACE
  8
Sphere1001
 10
-5.655415
 20
4.908464
 30
-3.739000
 11
-5.493056
 21
4.908464
 31
-3.600663
 12
-5.711802
 22
4.969349
 32
-3.414282
 13
-5.798191
 23
4.969349
 33
-3.487890
 62
0
  0
3DFACE
  8
Sphere1001
 10
-5.493056
 20
4.908464
 30
-3.600663
 11
-5.387084
 21
4.908464
 31
-3.414282
 12
-5.655415
 22
4.969349
 32
-3.315111
 13
-5.711802
 23
4.969349
 33
-3.414282
 62
0
  0
3DFACE
  8
Sphere1001
 10
-5.387084
 20
4.908464
 30
-3.414282
 11
-5.350280
 21
4.908464
 31
-3.202338
 12
-5.635832
 22
4.969349
 32
-3.202338
 13
-5.655415
 23
4.969349
 33
-3.315111
 62
0
  0
3DFACE
  8
Sphere1001
 10
-5.350280
 20
4.908464
 30
-3.202338
 11
-5.387084
 21
4.908464
 31
-2.990393
 12
-5.655415
 22
4.969349
 32
-3.089564
 13
-5.635832
 23
4.969349
 33
-3.202338
 62
0
  0
3DFACE
  8
Sphere1001
 10
-5.387084
 20
4.908464
 30
-2.990393
 11
-5.493056
 21
4.908464
 31
-2.804012
 12
-5.711802
 22
4.969349
 32
-2.990393
 13
-5.655415
 23
4.969349
 33
-3.089564
 62
0
  0
3DFACE
  8
Sphere1001
 10
-5.493056
 20
4.908464
 30
-2.804012
 11
-5.655415
 21
4.908464
 31
-2.665675
 12
-5.798191
 22
4.969349
 32
-2.916785
 13
-5.711802
 23
4.969349
 33
-2.990393
 62
0
  0
3DFACE
  8
Sphere1001
 10
-5.655415
 20
4.908464
 30
-2.665675
 11
-5.854578
 21
4.908464
 31
-2.592067
 12
-5.904163
 22
4.969349
 32
-2.877620
 13
-5.798191
 23
4.969349
 33
-2.916785
 62
0
  0
3DFACE
  8
Sphere1001
 10
-5.854578
 20
4.908464
 30
-2.592067
 11
-6.066522
 21
4.908464
 31
-2.592067
 12
-6.016936
 22
4.969349
 32
-2.877620
 13
-5.904163
 23
4.969349
 33
-2.877620
 62
0
  0
3DFACE
  8
Sphere1001
 10
-6.066522
 20
4.908464
 30
-2.592067
 11
-6.265685
 21
4.908464
 31
-2.665675
 12
-6.122909
 22
4.969349
 32
-2.916785
 13
-6.016936
 23
4.969349
 33
-2.877620
 62
0
  0
3DFACE
  8
Sphere1001
 10
-6.265685
 20
4.908464
 30
-2.665675
 11
-6.428044
 21
4.908464
 31
-2.804012
 12
-6.209298
 22
4.969349
 32
-2.990393
 13
-6.122909
 23
4.969349
 33
-2.916785
 62
0
  0
3DFACE
  8
Sphere1001
 10
-6.428044
 20
4.908464
 30
-2.804012
 11
-6.534016
 21
4.908464
 31
-2.990393
 12
-6.265685
 22
4.969349
 32
-3.089564
 13
-6.209298
 23
4.969349
 33
-2.990393
 62
0
  0
3DFACE
  8
Sphere1001
 10
-6.534016
 20
4.908464
 30
-2.990393
 11
-6.570820
 21
4.908464
 31
-3.202338
 12
-6.285268
 22
4.969349
 32
-3.202338
 13
-6.265685
 23
4.969349
 33
-3.089564
 62
0
  0
3DFACE
  8
Sphere1001
 10
-6.782764
 20
4.815184
 30
-3.202338
 11
-6.733179
 21
4.815184
 31
-3.487890
 12
-6.534016
 22
4.908464
 32
-3.414282
 13
-6.570820
 23
4.908464
 33
-3.202338
 62
0
  0
3DFACE
  8
Sphere1001
 10
-6.733179
 20
4.815184
 30
-3.487890
 11
-6.590403
 21
4.815184
 31
-3.739000
 12
-6.428044
 22
4.908464
 32
-3.600663
 13
-6.534016
 23
4.908464
 33
-3.414282
 62
0
  0
3DFACE
  8
Sphere1001
 10
-6.590403
 20
4.815184
 30
-3.739000
 11
-6.371657
 21
4.815184
 31
-3.925381
 12
-6.265685
 22
4.908464
 32
-3.739000
 13
-6.428044
 23
4.908464
 33
-3.600663
 62
0
  0
3DFACE
  8
Sphere1001
 10
-6.371657
 20
4.815184
 30
-3.925381
 11
-6.103326
 21
4.815184
 31
-4.024552
 12
-6.066522
 22
4.908464
 32
-3.812608
 13
-6.265685
 23
4.908464
 33
-3.739000
 62
0
  0
3DFACE
  8
Sphere1001
 10
-6.103326
 20
4.815184
 30
-4.024552
 11
-5.817774
 21
4.815184
 31
-4.024552
 12
-5.854578
 22
4.908464
 32
-3.812608
 13
-6.066522
 23
4.908464
 33
-3.812608
 62
0
  0
3DFACE
  8
Sphere1001
 10
-5.817774
 20
4.815184
 30
-4.024552
 11
-5.549442
 21
4.815184
 31
-3.925381
 12
-5.655415
 22
4.908464
 32
-3.739000
 13
-5.854578
 23
4.908464
 33
-3.812608
 62
0
  0
3DFACE
  8
Sphere1001
 10
-5.549442
 20
4.815184
 30
-3.925381
 11
-5.330697
 21
4.815184
 31
-3.739000
 12
-5.493056
 22
4.908464
 32
-3.600663
 13
-5.655415
 23
4.908464
 33
-3.739000
 62
0
  0
3DFACE
  8
Sphere1001
 10
-5.330697
 20
4.815184
 30
-3.739000
 11
-5.187921
 21
4.815184
 31
-3.487890
 12
-5.387084
 22
4.908464
 32
-3.414282
 13
-5.493056
 23
4.908464
 33
-3.600663
 62
0
  0
3DFACE
  8
Sphere1001
 10
-5.187921
 20
4.815184
 30
-3.487890
 11
-5.138335
 21
4.815184
 31
-3.202338
 12
-5.350280
 22
4.908464
 32
-3.202338
 13
-5.387084
 23
4.908464
 33
-3.414282
 62
0
  0
3DFACE
  8
Sphere1001
 10
-5.138335
 20
4.815184
 30
-3.202338
 11
-5.187921
 21
4.815184
 31
-2.916785
 12
-5.387084
 22
4.908464
 32
-2.990393
 13
-5.350280
 23
4.908464
 33
-3.202338
 62
0
  0
3DFACE
  8
Sphere1001
 10
-5.187921
 20
4.815184
 30
-2.916785
 11
-5.330697
 21
4.815184
 31
-2.665675
 12
-5.493056
 22
4.908464
 32
-2.804012
 13
-5.387084
 23
4.908464
 33
-2.990393
 62
0
  0
3DFACE
  8
Sphere1001
 10
-5.330697
 20
4.815184
 30
-2.665675
 11
-5.549442
 21
4.815184
 31
-2.479294
 12
-5.655415
 22
4.908464
 32
-2.665675
 13
-5.493056
 23
4.908464
 33
-2.804012
 62
0
  0
3DFACE
  8
Sphere1001
 10
-5.549442
 20
4.815184
 30
-2.479294
 11
-5.817774
 21
4.815184
 31
-2.380122
 12
-5.854578
 22
4.908464
 32
-2.592067
 13
-5.655415
 23
4.908464
 33
-2.665675
 62
0
  0
3DFACE
  8
Sphere1001
 10
-5.817774
 20
4.815184
 30
-2.380122
 11
-6.103326
 21
4.815184
 31
-2.380122
 12
-6.066522
 22
4.908464
 32
-2.592067
 13
-5.854578
 23
4.908464
 33
-2.592067
 62
0
  0
3DFACE
  8
Sphere1001
 10
-6.103326
 20
4.815184
 30
-2.380122
 11
-6.371657
 21
4.815184
 31
-2.479294
 12
-6.265685
 22
4.908464
 32
-2.665675
 13
-6.066522
 23
4.908464
 33
-2.592067
 62
0
  0
3DFACE
  8
Sphere1001
 10
-6.371657
 20
4.815184
 30
-2.479294
 11
-6.590403
 21
4.815184
 31
-2.665675
 12
-6.428044
 22
4.908464
 32
-2.804012
 13
-6.265685
 23
4.908464
 33
-2.665675
 62
0
  0
3DFACE
  8
Sphere1001
 10
-6.590403
 20
4.815184
 30
-2.665675
 11
-6.733179
 21
4.815184
 31
-2.916785
 12
-6.534016
 22
4.908464
 32
-2.990393
 13
-6.428044
 23
4.908464
 33
-2.804012
 62
0
  0
3DFACE
  8
Sphere1001
 10
-6.733179
 20
4.815184
 30
-2.916785
 11
-6.782764
 21
4.815184
 31
-3.202338
 12
-6.570820
 22
4.908464
 32
-3.202338
 13
-6.534016
 23
4.908464
 33
-2.990393
 62
0
  0
3DFACE
  8
Sphere1001
 10
-6.895538
 20
4.700758
 30
-3.202338
 11
-6.839151
 21
4.700758
 31
-3.527056
 12
-6.733179
 22
4.815184
 32
-3.487890
 13
-6.782764
 23
4.815184
 33
-3.202338
 62
0
  0
3DFACE
  8
Sphere1001
 10
-6.839151
 20
4.700758
 30
-3.527056
 11
-6.676792
 21
4.700758
 31
-3.812608
 12
-6.590403
 22
4.815184
 32
-3.739000
 13
-6.733179
 23
4.815184
 33
-3.487890
 62
0
  0
3DFACE
  8
Sphere1001
 10
-6.676792
 20
4.700758
 30
-3.812608
 11
-6.428044
 21
4.700758
 31
-4.024552
 12
-6.371657
 22
4.815184
 32
-3.925381
 13
-6.590403
 23
4.815184
 33
-3.739000
 62
0
  0
3DFACE
  8
Sphere1001
 10
-6.428044
 20
4.700758
 30
-4.024552
 11
-6.122909
 21
4.700758
 31
-4.137326
 12
-6.103326
 22
4.815184
 32
-4.024552
 13
-6.371657
 23
4.815184
 33
-3.925381
 62
0
  0
3DFACE
  8
Sphere1001
 10
-6.122909
 20
4.700758
 30
-4.137326
 11
-5.798191
 21
4.700758
 31
-4.137326
 12
-5.817774
 22
4.815184
 32
-4.024552
 13
-6.103326
 23
4.815184
 33
-4.024552
 62
0
  0
3DFACE
  8
Sphere1001
 10
-5.798191
 20
4.700758
 30
-4.137326
 11
-5.493056
 21
4.700758
 31
-4.024552
 12
-5.549442
 22
4.815184
 32
-3.925381
 13
-5.817774
 23
4.815184
 33
-4.024552
 62
0
  0
3DFACE
  8
Sphere1001
 10
-5.493056
 20
4.700758
 30
-4.024552
 11
-5.244308
 21
4.700758
 31
-3.812608
 12
-5.330697
 22
4.815184
 32
-3.739000
 13
-5.549442
 23
4.815184
 33
-3.925381
 62
0
  0
3DFACE
  8
Sphere1001
 10
-5.244308
 20
4.700758
 30
-3.812608
 11
-5.081949
 21
4.700758
 31
-3.527056
 12
-5.187921
 22
4.815184
 32
-3.487890
 13
-5.330697
 23
4.815184
 33
-3.739000
 62
0
  0
3DFACE
  8
Sphere1001
 10
-5.081949
 20
4.700758
 30
-3.527056
 11
-5.025562
 21
4.700758
 31
-3.202338
 12
-5.138335
 22
4.815184
 32
-3.202338
 13
-5.187921
 23
4.815184
 33
-3.487890
 62
0
  0
3DFACE
  8
Sphere1001
 10
-5.025562
 20
4.700758
 30
-3.202338
 11
-5.081949
 21
4.700758
 31
-2.877620
 12
-5.187921
 22
4.815184
 32
-2.916785
 13
-5.138335
 23
4.815184
 33
-3.202338
 62
0
  0
3DFACE
  8
Sphere1001
 10
-5.081949
 20
4.700758
 30
-2.877620
 11
-5.244308
 21
4.700758
 31
-2.592067
 12
-5.330697
 22
4.815184
 32
-2.665675
 13
-5.187921
 23
4.815184
 33
-2.916785
 62
0
  0
3DFACE
  8
Sphere1001
 10
-5.244308
 20
4.700758
 30
-2.592067
 11
-5.493056
 21
4.700758
 31
-2.380123
 12
-5.549442
 22
4.815184
 32
-2.479294
 13
-5.330697
 23
4.815184
 33
-2.665675
 62
0
  0
3DFACE
  8
Sphere1001
 10
-5.493056
 20
4.700758
 30
-2.380123
 11
-5.798191
 21
4.700758
 31
-2.267349
 12
-5.817774
 22
4.815184
 32
-2.380122
 13
-5.549442
 23
4.815184
 33
-2.479294
 62
0
  0
3DFACE
  8
Sphere1001
 10
-5.798191
 20
4.700758
 30
-2.267349
 11
-6.122909
 21
4.700758
 31
-2.267349
 12
-6.103326
 22
4.815184
 32
-2.380122
 13
-5.817774
 23
4.815184
 33
-2.380122
 62
0
  0
3DFACE
  8
Sphere1001
 10
-6.122909
 20
4.700758
 30
-2.267349
 11
-6.428044
 21
4.700758
 31
-2.380123
 12
-6.371657
 22
4.815184
 32
-2.479294
 13
-6.103326
 23
4.815184
 33
-2.380122
 62
0
  0
3DFACE
  8
Sphere1001
 10
-6.428044
 20
4.700758
 30
-2.380123
 11
-6.676792
 21
4.700758
 31
-2.592067
 12
-6.590403
 22
4.815184
 32
-2.665675
 13
-6.371657
 23
4.815184
 33
-2.479294
 62
0
  0
3DFACE
  8
Sphere1001
 10
-6.676792
 20
4.700758
 30
-2.592067
 11
-6.839151
 21
4.700758
 31
-2.877620
 12
-6.733179
 22
4.815184
 32
-2.916785
 13
-6.590403
 23
4.815184
 33
-2.665675
 62
0
  0
3DFACE
  8
Sphere1001
 10
-6.839151
 20
4.700758
 30
-2.877620
 11
-6.895538
 21
4.700758
 31
-3.202338
 12
-6.782764
 22
4.815184
 32
-3.202338
 13
-6.733179
 23
4.815184
 33
-2.916785
 62
0
  0
3DFACE
  8
Sphere1001
 10
-6.895538
 20
4.578989
 30
-3.202338
 11
-6.839151
 21
4.578989
 31
-3.527056
 12
-6.839151
 22
4.700758
 32
-3.527056
 13
-6.895538
 23
4.700758
 33
-3.202338
 62
0
  0
3DFACE
  8
Sphere1001
 10
-6.839151
 20
4.578989
 30
-3.527056
 11
-6.676792
 21
4.578989
 31
-3.812608
 12
-6.676792
 22
4.700758
 32
-3.812608
 13
-6.839151
 23
4.700758
 33
-3.527056
 62
0
  0
3DFACE
  8
Sphere1001
 10
-6.676792
 20
4.578989
 30
-3.812608
 11
-6.428044
 21
4.578989
 31
-4.024552
 12
-6.428044
 22
4.700758
 32
-4.024552
 13
-6.676792
 23
4.700758
 33
-3.812608
 62
0
  0
3DFACE
  8
Sphere1001
 10
-6.428044
 20
4.578989
 30
-4.024552
 11
-6.122909
 21
4.578989
 31
-4.137326
 12
-6.122909
 22
4.700758
 32
-4.137326
 13
-6.428044
 23
4.700758
 33
-4.024552
 62
0
  0
3DFACE
  8
Sphere1001
 10
-6.122909
 20
4.578989
 30
-4.137326
 11
-5.798191
 21
4.578989
 31
-4.137326
 12
-5.798191
 22
4.700758
 32
-4.137326
 13
-6.122909
 23
4.700758
 33
-4.137326
 62
0
  0
3DFACE
  8
Sphere1001
 10
-5.798191
 20
4.578989
 30
-4.137326
 11
-5.493056
 21
4.578989
 31
-4.024552
 12
-5.493056
 22
4.700758
 32
-4.024552
 13
-5.798191
 23
4.700758
 33
-4.137326
 62
0
  0
3DFACE
  8
Sphere1001
 10
-5.493056
 20
4.578989
 30
-4.024552
 11
-5.244308
 21
4.578989
 31
-3.812608
 12
-5.244308
 22
4.700758
 32
-3.812608
 13
-5.493056
 23
4.700758
 33
-4.024552
 62
0
  0
3DFACE
  8
Sphere1001
 10
-5.244308
 20
4.578989
 30
-3.812608
 11
-5.081949
 21
4.578989
 31
-3.527056
 12
-5.081949
 22
4.700758
 32
-3.527056
 13
-5.244308
 23
4.700758
 33
-3.812608
 62
0
  0
3DFACE
  8
Sphere1001
 10
-5.081949
 20
4.578989
 30
-3.527056
 11
-5.025562
 21
4.578989
 31
-3.202338
 12
-5.025562
 22
4.700758
 32
-3.202338
 13
-5.081949
 23
4.700758
 33
-3.527056
 62
0
  0
3DFACE
  8
Sphere1001
 10
-5.025562
 20
4.578989
 30
-3.202338
 11
-5.081949
 21
4.578989
 31
-2.877620
 12
-5.081949
 22
4.700758
 32
-2.877620
 13
-5.025562
 23
4.700758
 33
-3.202338
 62
0
  0
3DFACE
  8
Sphere1001
 10
-5.081949
 20
4.578989
 30
-2.877620
 11
-5.244308
 21
4.578989
 31
-2.592067
 12
-5.244308
 22
4.700758
 32
-2.592067
 13
-5.081949
 23
4.700758
 33
-2.877620
 62
0
  0
3DFACE
  8
Sphere1001
 10
-5.244308
 20
4.578989
 30
-2.592067
 11
-5.493056
 21
4.578989
 31
-2.380122
 12
-5.493056
 22
4.700758
 32
-2.380123
 13
-5.244308
 23
4.700758
 33
-2.592067
 62
0
  0
3DFACE
  8
Sphere1001
 10
-5.493056
 20
4.578989
 30
-2.380122
 11
-5.798191
 21
4.578989
 31
-2.267349
 12
-5.798191
 22
4.700758
 32
-2.267349
 13
-5.493056
 23
4.700758
 33
-2.380123
 62
0
  0
3DFACE
  8
Sphere1001
 10
-5.798191
 20
4.578989
 30
-2.267349
 11
-6.122909
 21
4.578989
 31
-2.267349
 12
-6.122909
 22
4.700758
 32
-2.267349
 13
-5.798191
 23
4.700758
 33
-2.267349
 62
0
  0
3DFACE
  8
Sphere1001
 10
-6.122909
 20
4.578989
 30
-2.267349
 11
-6.428044
 21
4.578989
 31
-2.380122
 12
-6.428044
 22
4.700758
 32
-2.380123
 13
-6.122909
 23
4.700758
 33
-2.267349
 62
0
  0
3DFACE
  8
Sphere1001
 10
-6.428044
 20
4.578989
 30
-2.380122
 11
-6.676792
 21
4.578989
 31
-2.592067
 12
-6.676792
 22
4.700758
 32
-2.592067
 13
-6.428044
 23
4.700758
 33
-2.380123
 62
0
  0
3DFACE
  8
Sphere1001
 10
-6.676792
 20
4.578989
 30
-2.592067
 11
-6.839151
 21
4.578989
 31
-2.877620
 12
-6.839151
 22
4.700758
 32
-2.877620
 13
-6.676792
 23
4.700758
 33
-2.592067
 62
0
  0
3DFACE
  8
Sphere1001
 10
-6.839151
 20
4.578989
 30
-2.877620
 11
-6.895538
 21
4.578989
 31
-3.202338
 12
-6.895538
 22
4.700758
 32
-3.202338
 13
-6.839151
 23
4.700758
 33
-2.877620
 62
0
  0
3DFACE
  8
Sphere1001
 10
-6.782764
 20
4.464563
 30
-3.202338
 11
-6.733179
 21
4.464563
 31
-3.487890
 12
-6.839151
 22
4.578989
 32
-3.527056
 13
-6.895538
 23
4.578989
 33
-3.202338
 62
0
  0
3DFACE
  8
Sphere1001
 10
-6.733179
 20
4.464563
 30
-3.487890
 11
-6.590403
 21
4.464563
 31
-3.739000
 12
-6.676792
 22
4.578989
 32
-3.812608
 13
-6.839151
 23
4.578989
 33
-3.527056
 62
0
  0
3DFACE
  8
Sphere1001
 10
-6.590403
 20
4.464563
 30
-3.739000
 11
-6.371657
 21
4.464563
 31
-3.925381
 12
-6.428044
 22
4.578989
 32
-4.024552
 13
-6.676792
 23
4.578989
 33
-3.812608
 62
0
  0
3DFACE
  8
Sphere1001
 10
-6.371657
 20
4.464563
 30
-3.925381
 11
-6.103326
 21
4.464563
 31
-4.024552
 12
-6.122909
 22
4.578989
 32
-4.137326
 13
-6.428044
 23
4.578989
 33
-4.024552
 62
0
  0
3DFACE
  8
Sphere1001
 10
-6.103326
 20
4.464563
 30
-4.024552
 11
-5.817774
 21
4.464563
 31
-4.024552
 12
-5.798191
 22
4.578989
 32
-4.137326
 13
-6.122909
 23
4.578989
 33
-4.137326
 62
0
  0
3DFACE
  8
Sphere1001
 10
-5.817774
 20
4.464563
 30
-4.024552
 11
-5.549443
 21
4.464563
 31
-3.925381
 12
-5.493056
 22
4.578989
 32
-4.024552
 13
-5.798191
 23
4.578989
 33
-4.137326
 62
0
  0
3DFACE
  8
Sphere1001
 10
-5.549443
 20
4.464563
 30
-3.925381
 11
-5.330697
 21
4.464563
 31
-3.739000
 12
-5.244308
 22
4.578989
 32
-3.812608
 13
-5.493056
 23
4.578989
 33
-4.024552
 62
0
  0
3DFACE
  8
Sphere1001
 10
-5.330697
 20
4.464563
 30
-3.739000
 11
-5.187921
 21
4.464563
 31
-3.487890
 12
-5.081949
 22
4.578989
 32
-3.527056
 13
-5.244308
 23
4.578989
 33
-3.812608
 62
0
  0
3DFACE
  8
Sphere1001
 10
-5.187921
 20
4.464563
 30
-3.487890
 11
-5.138335
 21
4.464563
 31
-3.202338
 12
-5.025562
 22
4.578989
 32
-3.202338
 13
-5.081949
 23
4.578989
 33
-3.527056
 62
0
  0
3DFACE
  8
Sphere1001
 10
-5.138335
 20
4.464563
 30
-3.202338
 11
-5.187921
 21
4.464563
 31
-2.916785
 12
-5.081949
 22
4.578989
 32
-2.877620
 13
-5.025562
 23
4.578989
 33
-3.202338
 62
0
  0
3DFACE
  8
Sphere1001
 10
-5.187921
 20
4.464563
 30
-2.916785
 11
-5.330697
 21
4.464563
 31
-2.665675
 12
-5.244308
 22
4.578989
 32
-2.592067
 13
-5.081949
 23
4.578989
 33
-2.877620
 62
0
  0
3DFACE
  8
Sphere1001
 10
-5.330697
 20
4.464563
 30
-2.665675
 11
-5.549443
 21
4.464563
 31
-2.479294
 12
-5.493056
 22
4.578989
 32
-2.380122
 13
-5.244308
 23
4.578989
 33
-2.592067
 62
0
  0
3DFACE
  8
Sphere1001
 10
-5.549443
 20
4.464563
 30
-2.479294
 11
-5.817774
 21
4.464563
 31
-2.380123
 12
-5.798191
 22
4.578989
 32
-2.267349
 13
-5.493056
 23
4.578989
 33
-2.380122
 62
0
  0
3DFACE
  8
Sphere1001
 10
-5.817774
 20
4.464563
 30
-2.380123
 11
-6.103326
 21
4.464563
 31
-2.380123
 12
-6.122909
 22
4.578989
 32
-2.267349
 13
-5.798191
 23
4.578989
 33
-2.267349
 62
0
  0
3DFACE
  8
Sphere1001
 10
-6.103326
 20
4.464563
 30
-2.380123
 11
-6.371657
 21
4.464563
 31
-2.479294
 12
-6.428044
 22
4.578989
 32
-2.380122
 13
-6.122909
 23
4.578989
 33
-2.267349
 62
0
  0
3DFACE
  8
Sphere1001
 10
-6.371657
 20
4.464563
 30
-2.479294
 11
-6.590403
 21
4.464563
 31
-2.665675
 12
-6.676792
 22
4.578989
 32
-2.592067
 13
-6.428044
 23
4.578989
 33
-2.380122
 62
0
  0
3DFACE
  8
Sphere1001
 10
-6.590403
 20
4.464563
 30
-2.665675
 11
-6.733179
 21
4.464563
 31
-2.916785
 12
-6.839151
 22
4.578989
 32
-2.877620
 13
-6.676792
 23
4.578989
 33
-2.592067
 62
0
  0
3DFACE
  8
Sphere1001
 10
-6.733179
 20
4.464563
 30
-2.916785
 11
-6.782764
 21
4.464563
 31
-3.202338
 12
-6.895538
 22
4.578989
 32
-3.202338
 13
-6.839151
 23
4.578989
 33
-2.877620
 62
0
  0
3DFACE
  8
Sphere1001
 10
-6.570820
 20
4.371282
 30
-3.202338
 11
-6.534016
 21
4.371282
 31
-3.414282
 12
-6.733179
 22
4.464563
 32
-3.487890
 13
-6.782764
 23
4.464563
 33
-3.202338
 62
0
  0
3DFACE
  8
Sphere1001
 10
-6.534016
 20
4.371282
 30
-3.414282
 11
-6.428044
 21
4.371282
 31
-3.600663
 12
-6.590403
 22
4.464563
 32
-3.739000
 13
-6.733179
 23
4.464563
 33
-3.487890
 62
0
  0
3DFACE
  8
Sphere1001
 10
-6.428044
 20
4.371282
 30
-3.600663
 11
-6.265685
 21
4.371282
 31
-3.739000
 12
-6.371657
 22
4.464563
 32
-3.925381
 13
-6.590403
 23
4.464563
 33
-3.739000
 62
0
  0
3DFACE
  8
Sphere1001
 10
-6.265685
 20
4.371282
 30
-3.739000
 11
-6.066522
 21
4.371282
 31
-3.812608
 12
-6.103326
 22
4.464563
 32
-4.024552
 13
-6.371657
 23
4.464563
 33
-3.925381
 62
0
  0
3DFACE
  8
Sphere1001
 10
-6.066522
 20
4.371282
 30
-3.812608
 11
-5.854578
 21
4.371282
 31
-3.812608
 12
-5.817774
 22
4.464563
 32
-4.024552
 13
-6.103326
 23
4.464563
 33
-4.024552
 62
0
  0
3DFACE
  8
Sphere1001
 10
-5.854578
 20
4.371282
 30
-3.812608
 11
-5.655415
 21
4.371282
 31
-3.739000
 12
-5.549443
 22
4.464563
 32
-3.925381
 13
-5.817774
 23
4.464563
 33
-4.024552
 62
0
  0
3DFACE
  8
Sphere1001
 10
-5.655415
 20
4.371282
 30
-3.739000
 11
-5.493056
 21
4.371282
 31
-3.600663
 12
-5.330697
 22
4.464563
 32
-3.739000
 13
-5.549443
 23
4.464563
 33
-3.925381
 62
0
  0
3DFACE
  8
Sphere1001
 10
-5.493056
 20
4.371282
 30
-3.600663
 11
-5.387084
 21
4.371282
 31
-3.414282
 12
-5.187921
 22
4.464563
 32
-3.487890
 13
-5.330697
 23
4.464563
 33
-3.739000
 62
0
  0
3DFACE
  8
Sphere1001
 10
-5.387084
 20
4.371282
 30
-3.414282
 11
-5.350280
 21
4.371282
 31
-3.202338
 12
-5.138335
 22
4.464563
 32
-3.202338
 13
-5.187921
 23
4.464563
 33
-3.487890
 62
0
  0
3DFACE
  8
Sphere1001
 10
-5.350280
 20
4.371282
 30
-3.202338
 11
-5.387084
 21
4.371282
 31
-2.990393
 12
-5.187921
 22
4.464563
 32
-2.916785
 13
-5.138335
 23
4.464563
 33
-3.202338
 62
0
  0
3DFACE
  8
Sphere1001
 10
-5.387084
 20
4.371282
 30
-2.990393
 11
-5.493056
 21
4.371282
 31
-2.804012
 12
-5.330697
 22
4.464563
 32
-2.665675
 13
-5.187921
 23
4.464563
 33
-2.916785
 62
0
  0
3DFACE
  8
Sphere1001
 10
-5.493056
 20
4.371282
 30
-2.804012
 11
-5.655415
 21
4.371282
 31
-2.665675
 12
-5.549443
 22
4.464563
 32
-2.479294
 13
-5.330697
 23
4.464563
 33
-2.665675
 62
0
  0
3DFACE
  8
Sphere1001
 10
-5.655415
 20
4.371282
 30
-2.665675
 11
-5.854578
 21
4.371282
 31
-2.592067
 12
-5.817774
 22
4.464563
 32
-2.380123
 13
-5.549443
 23
4.464563
 33
-2.479294
 62
0
  0
3DFACE
  8
Sphere1001
 10
-5.854578
 20
4.371282
 30
-2.592067
 11
-6.066522
 21
4.371282
 31
-2.592067
 12
-6.103326
 22
4.464563
 32
-2.380123
 13
-5.817774
 23
4.464563
 33
-2.380123
 62
0
  0
3DFACE
  8
Sphere1001
 10
-6.066522
 20
4.371282
 30
-2.592067
 11
-6.265685
 21
4.371282
 31
-2.665675
 12
-6.371657
 22
4.464563
 32
-2.479294
 13
-6.103326
 23
4.464563
 33
-2.380123
 62
0
  0
3DFACE
  8
Sphere1001
 10
-6.265685
 20
4.371282
 30
-2.665675
 11
-6.428044
 21
4.371282
 31
-2.804012
 12
-6.590403
 22
4.464563
 32
-2.665675
 13
-6.371657
 23
4.464563
 33
-2.479294
 62
0
  0
3DFACE
  8
Sphere1001
 10
-6.428044
 20
4.371282
 30
-2.804012
 11
-6.534016
 21
4.371282
 31
-2.990393
 12
-6.733179
 22
4.464563
 32
-2.916785
 13
-6.590403
 23
4.464563
 33
-2.665675
 62
0
  0
3DFACE
  8
Sphere1001
 10
-6.534016
 20
4.371282
 30
-2.990393
 11
-6.570820
 21
4.371282
 31
-3.202338
 12
-6.782764
 22
4.464563
 32
-3.202338
 13
-6.733179
 23
4.464563
 33
-2.916785
 62
0
  0
3DFACE
  8
Sphere1001
 10
-6.285268
 20
4.310397
 30
-3.202338
 11
-6.265685
 21
4.310397
 31
-3.315111
 12
-6.534016
 22
4.371282
 32
-3.414282
 13
-6.570820
 23
4.371282
 33
-3.202338
 62
0
  0
3DFACE
  8
Sphere1001
 10
-6.265685
 20
4.310397
 30
-3.315111
 11
-6.209298
 21
4.310397
 31
-3.414282
 12
-6.428044
 22
4.371282
 32
-3.600663
 13
-6.534016
 23
4.371282
 33
-3.414282
 62
0
  0
3DFACE
  8
Sphere1001
 10
-6.209298
 20
4.310397
 30
-3.414282
 11
-6.122909
 21
4.310397
 31
-3.487890
 12
-6.265685
 22
4.371282
 32
-3.739000
 13
-6.428044
 23
4.371282
 33
-3.600663
 62
0
  0
3DFACE
  8
Sphere1001
 10
-6.122909
 20
4.310397
 30
-3.487890
 11
-6.016936
 21
4.310397
 31
-3.527056
 12
-6.066522
 22
4.371282
 32
-3.812608
 13
-6.265685
 23
4.371282
 33
-3.739000
 62
0
  0
3DFACE
  8
Sphere1001
 10
-6.016936
 20
4.310397
 30
-3.527056
 11
-5.904163
 21
4.310397
 31
-3.527056
 12
-5.854578
 22
4.371282
 32
-3.812608
 13
-6.066522
 23
4.371282
 33
-3.812608
 62
0
  0
3DFACE
  8
Sphere1001
 10
-5.904163
 20
4.310397
 30
-3.527056
 11
-5.798191
 21
4.310397
 31
-3.487890
 12
-5.655415
 22
4.371282
 32
-3.739000
 13
-5.854578
 23
4.371282
 33
-3.812608
 62
0
  0
3DFACE
  8
Sphere1001
 10
-5.798191
 20
4.310397
 30
-3.487890
 11
-5.711802
 21
4.310397
 31
-3.414282
 12
-5.493056
 22
4.371282
 32
-3.600663
 13
-5.655415
 23
4.371282
 33
-3.739000
 62
0
  0
3DFACE
  8
Sphere1001
 10
-5.711802
 20
4.310397
 30
-3.414282
 11
-5.655415
 21
4.310397
 31
-3.315111
 12
-5.387084
 22
4.371282
 32
-3.414282
 13
-5.493056
 23
4.371282
 33
-3.600663
 62
0
  0
3DFACE
  8
Sphere1001
 10
-5.655415
 20
4.310397
 30
-3.315111
 11
-5.635832
 21
4.310397
 31
-3.202338
 12
-5.350280
 22
4.371282
 32
-3.202338
 13
-5.387084
 23
4.371282
 33
-3.414282
 62
0
  0
3DFACE
  8
Sphere1001
 10
-5.635832
 20
4.310397
 30
-3.202338
 11
-5.655415
 21
4.310397
 31
-3.089564
 12
-5.387084
 22
4.371282
 32
-2.990393
 13
-5.350280
 23
4.371282
 33
-3.202338
 62
0
  0
3DFACE
  8
Sphere1001
 10
-5.655415
 20
4.310397
 30
-3.089564
 11
-5.711802
 21
4.310397
 31
-2.990393
 12
-5.493056
 22
4.371282
 32
-2.804012
 13
-5.387084
 23
4.371282
 33
-2.990393
 62
0
  0
3DFACE
  8
Sphere1001
 10
-5.711802
 20
4.310397
 30
-2.990393
 11
-5.798191
 21
4.310397
 31
-2.916785
 12
-5.655415
 22
4.371282
 32
-2.665675
 13
-5.493056
 23
4.371282
 33
-2.804012
 62
0
  0
3DFACE
  8
Sphere1001
 10
-5.798191
 20
4.310397
 30
-2.916785
 11
-5.904163
 21
4.310397
 31
-2.877619
 12
-5.854578
 22
4.371282
 32
-2.592067
 13
-5.655415
 23
4.371282
 33
-2.665675
 62
0
  0
3DFACE
  8
Sphere1001
 10
-5.904163
 20
4.310397
 30
-2.877619
 11
-6.016936
 21
4.310397
 31
-2.877619
 12
-6.066522
 22
4.371282
 32
-2.592067
 13
-5.854578
 23
4.371282
 33
-2.592067
 62
0
  0
3DFACE
  8
Sphere1001
 10
-6.016936
 20
4.310397
 30
-2.877619
 11
-6.122909
 21
4.310397
 31
-2.916785
 12
-6.265685
 22
4.371282
 32
-2.665675
 13
-6.066522
 23
4.371282
 33
-2.592067
 62
0
  0
3DFACE
  8
Sphere1001
 10
-6.122909
 20
4.310397
 30
-2.916785
 11
-6.209298
 21
4.310397
 31
-2.990393
 12
-6.428044
 22
4.371282
 32
-2.804012
 13
-6.265685
 23
4.371282
 33
-2.665675
 62
0
  0
3DFACE
  8
Sphere1001
 10
-6.209298
 20
4.310397
 30
-2.990393
 11
-6.265685
 21
4.310397
 31
-3.089564
 12
-6.534016
 22
4.371282
 32
-2.990393
 13
-6.428044
 23
4.371282
 33
-2.804012
 62
0
  0
3DFACE
  8
Sphere1001
 10
-6.265685
 20
4.310397
 30
-3.089564
 11
-6.285268
 21
4.310397
 31
-3.202338
 12
-6.570820
 22
4.371282
 32
-3.202338
 13
-6.534016
 23
4.371282
 33
-2.990393
 62
0
  0
3DFACE
  8
Sphere1001
 10
-5.960550
 20
4.289252
 30
-3.202338
 11
-6.265685
 21
4.310397
 31
-3.315111
 12
-6.285268
 22
4.310397
 32
-3.202338
 13
-6.285268
 23
4.310397
 33
-3.202338
 62
0
  0
3DFACE
  8
Sphere1001
 10
-5.960550
 20
4.289252
 30
-3.202338
 11
-6.209298
 21
4.310397
 31
-3.414282
 12
-6.265685
 22
4.310397
 32
-3.315111
 13
-6.265685
 23
4.310397
 33
-3.315111
 62
0
  0
3DFACE
  8
Sphere1001
 10
-5.960550
 20
4.289252
 30
-3.202338
 11
-6.122909
 21
4.310397
 31
-3.487890
 12
-6.209298
 22
4.310397
 32
-3.414282
 13
-6.209298
 23
4.310397
 33
-3.414282
 62
0
  0
3DFACE
  8
Sphere1001
 10
-5.960550
 20
4.289252
 30
-3.202338
 11
-6.016936
 21
4.310397
 31
-3.527056
 12
-6.122909
 22
4.310397
 32
-3.487890
 13
-6.122909
 23
4.310397
 33
-3.487890
 62
0
  0
3DFACE
  8
Sphere1001
 10
-5.960550
 20
4.289252
 30
-3.202338
 11
-5.904163
 21
4.310397
 31
-3.527056
 12
-6.016936
 22
4.310397
 32
-3.527056
 13
-6.016936
 23
4.310397
 33
-3.527056
 62
0
  0
3DFACE
  8
Sphere1001
 10
-5.960550
 20
4.289252
 30
-3.202338
 11
-5.798191
 21
4.310397
 31
-3.487890
 12
-5.904163
 22
4.310397
 32
-3.527056
 13
-5.904163
 23
4.310397
 33
-3.527056
 62
0
  0
3DFACE
  8
Sphere1001
 10
-5.960550
 20
4.289252
 30
-3.202338
 11
-5.711802
 21
4.310397
 31
-3.414282
 12
-5.798191
 22
4.310397
 32
-3.487890
 13
-5.798191
 23
4.310397
 33
-3.487890
 62
0
  0
3DFACE
  8
Sphere1001
 10
-5.960550
 20
4.289252
 30
-3.202338
 11
-5.655415
 21
4.310397
 31
-3.315111
 12
-5.711802
 22
4.310397
 32
-3.414282
 13
-5.711802
 23
4.310397
 33
-3.414282
 62
0
  0
3DFACE
  8
Sphere1001
 10
-5.960550
 20
4.289252
 30
-3.202338
 11
-5.635832
 21
4.310397
 31
-3.202338
 12
-5.655415
 22
4.310397
 32
-3.315111
 13
-5.655415
 23
4.310397
 33
-3.315111
 62
0
  0
3DFACE
  8
Sphere1001
 10
-5.960550
 20
4.289252
 30
-3.202338
 11
-5.655415
 21
4.310397
 31
-3.089564
 12
-5.635832
 22
4.310397
 32
-3.202338
 13
-5.635832
 23
4.310397
 33
-3.202338
 62
0
  0
3DFACE
  8
Sphere1001
 10
-5.960550
 20
4.289252
 30
-3.202338
 11
-5.711802
 21
4.310397
 31
-2.990393
 12
-5.655415
 22
4.310397
 32
-3.089564
 13
-5.655415
 23
4.310397
 33
-3.089564
 62
0
  0
3DFACE
  8
Sphere1001
 10
-5.960550
 20
4.289252
 30
-3.202338
 11
-5.798191
 21
4.310397
 31
-2.916785
 12
-5.711802
 22
4.310397
 32
-2.990393
 13
-5.711802
 23
4.310397
 33
-2.990393
 62
0
  0
3DFACE
  8
Sphere1001
 10
-5.960550
 20
4.289252
 30
-3.202338
 11
-5.904163
 21
4.310397
 31
-2.877619
 12
-5.798191
 22
4.310397
 32
-2.916785
 13
-5.798191
 23
4.310397
 33
-2.916785
 62
0
  0
3DFACE
  8
Sphere1001
 10
-5.960550
 20
4.289252
 30
-3.202338
 11
-6.016936
 21
4.310397
 31
-2.877619
 12
-5.904163
 22
4.310397
 32
-2.877619
 13
-5.904163
 23
4.310397
 33
-2.877619
 62
0
  0
3DFACE
  8
Sphere1001
 10
-5.960550
 20
4.289252
 30
-3.202338
 11
-6.122909
 21
4.310397
 31
-2.916785
 12
-6.016936
 22
4.310397
 32
-2.877619
 13
-6.016936
 23
4.310397
 33
-2.877619
 62
0
  0
3DFACE
  8
Sphere1001
 10
-5.960550
 20
4.289252
 30
-3.202338
 11
-6.209298
 21
4.310397
 31
-2.990393
 12
-6.122909
 22
4.310397
 32
-2.916785
 13
-6.122909
 23
4.310397
 33
-2.916785
 62
0
  0
3DFACE
  8
Sphere1001
 10
-5.960550
 20
4.289252
 30
-3.202338
 11
-6.265685
 21
4.310397
 31
-3.089564
 12
-6.209298
 22
4.310397
 32
-2.990393
 13
-6.209298
 23
4.310397
 33
-2.990393
 62
0
  0
3DFACE
  8
Sphere1001
 10
-5.960550
 20
4.289252
 30
-3.202338
 11
-6.285268
 21
4.310397
 31
-3.202338
 12
-6.265685
 22
4.310397
 32
-3.089564
 13
-6.265685
 23
4.310397
 33
-3.089564
 62
0
 0
ENDSEC
 0
EOF
