  0
SECTION
  2
HEADER
  0
ENDSEC
  0
SECTION
  2
TABLES
  0
TABLE
  2
LAYER
  70
    153
  0
LAYER
  2
Sphere4
 70
0
 62
15
  6
CONTINUOUS
  0
LAYER
  2
Cylinder
 70
0
 62
15
  6
CONTINUOUS
  0
LAYER
  2
Cylinder1
 70
0
 62
15
  6
CONTINUOUS
  0
LAYER
  2
Cylinder2
 70
0
 62
15
  6
CONTINUOUS
  0
LAYER
  2
NoName6
 70
0
 62
15
  6
CONTINUOUS
  0
LAYER
  2
NoName2
 70
0
 62
15
  6
CONTINUOUS
  0
LAYER
  2
NoName4
 70
0
 62
15
  6
CONTINUOUS
  0
LAYER
  2
NoName3
 70
0
 62
15
  6
CONTINUOUS
  0
LAYER
  2
NoName6001
 70
0
 62
15
  6
CONTINUOUS
  0
LAYER
  2
NoName2001
 70
0
 62
15
  6
CONTINUOUS
  0
LAYER
  2
NoName4001
 70
0
 62
15
  6
CONTINUOUS
  0
LAYER
  2
NoName3001
 70
0
 62
15
  6
CONTINUOUS
  0
ENDTAB
  0
ENDSEC
  0
SECTION
  2
ENTITIES
  0
3DFACE
  8
Sphere4
 10
-1.617850
 20
0.566283
 30
-1.520950
 11
-0.000024
 21
1.730361
 31
-0.668911
 12
-0.163832
 22
1.521831
 32
-0.603272
 13
-0.163832
 23
1.521831
 33
-0.603272
 62
1
  0
3DFACE
  8
Sphere4
 10
-1.617850
 20
0.566283
 30
-1.520950
 11
-0.163832
 21
1.521831
 31
-0.603272
 12
-0.524034
 22
0.811996
 32
-0.038750
 13
-0.524034
 23
0.811996
 33
-0.038750
 62
1
  0
3DFACE
  8
Sphere4
 10
-1.617850
 20
0.566283
 30
-1.520950
 11
-0.524034
 21
0.811996
 31
-0.038750
 12
-0.272157
 22
0.636738
 32
0.690460
 13
-0.272157
 23
0.636738
 33
0.690460
 62
1
  0
3DFACE
  8
Sphere4
 10
-1.617850
 20
0.566283
 30
-1.520950
 11
-0.272157
 21
0.636738
 31
0.690460
 12
-0.000024
 22
0.578516
 32
1.260343
 13
-0.000024
 23
0.578516
 33
1.260343
 62
1
  0
3DFACE
  8
Sphere4
 10
-0.272157
 20
0.636738
 30
0.690460
 11
-0.163832
 21
1.521831
 31
-0.603272
 12
-0.000024
 22
1.730361
 32
-0.668911
 13
-0.000024
 23
1.730361
 33
-0.668911
 62
1
  0
3DFACE
  8
Sphere4
 10
-0.000024
 20
0.578516
 30
1.260343
 11
-0.272157
 21
0.636738
 31
0.690460
 12
-0.000024
 22
1.730361
 32
-0.668911
 13
-0.000024
 23
1.730361
 33
-0.668911
 62
1
  0
3DFACE
  8
Sphere4
 10
-0.000024
 20
0.578516
 30
1.260343
 11
-1.050830
 21
-1.409804
 31
0.736300
 12
-1.617850
 22
0.566283
 32
-1.520950
 13
-1.617850
 23
0.566283
 33
-1.520950
 62
0
  0
3DFACE
  8
Sphere4
 10
1.050821
 20
-1.409807
 30
0.736067
 11
0.707787
 21
-1.321300
 31
0.480487
 12
-0.707770
 22
-1.321298
 32
0.480644
 13
-1.050830
 23
-1.409804
 33
0.736300
 62
2
  0
3DFACE
  8
Sphere4
 10
-0.000024
 20
0.578516
 30
1.260343
 11
1.617804
 21
0.566572
 31
-1.520950
 12
1.050821
 22
-1.409807
 32
0.736067
 13
1.050821
 23
-1.409807
 33
0.736067
 62
0
  0
3DFACE
  8
Sphere4
 10
1.617804
 20
0.566572
 30
-1.520950
 11
0.163975
 21
1.521644
 31
-0.603272
 12
-0.000024
 22
1.730361
 32
-0.668911
 13
-0.000024
 23
1.730361
 33
-0.668911
 62
1
  0
3DFACE
  8
Sphere4
 10
1.617804
 20
0.566572
 30
-1.520950
 11
0.524257
 21
0.812127
 31
-0.038740
 12
0.163975
 22
1.521644
 32
-0.603272
 13
0.163975
 23
1.521644
 33
-0.603272
 62
1
  0
3DFACE
  8
Sphere4
 10
1.617804
 20
0.566572
 30
-1.520950
 11
0.272447
 21
0.636738
 31
0.690460
 12
0.524257
 22
0.812127
 32
-0.038740
 13
0.524257
 23
0.812127
 33
-0.038740
 62
1
  0
3DFACE
  8
Sphere4
 10
1.617804
 20
0.566572
 30
-1.520950
 11
-0.000024
 21
0.578516
 31
1.260343
 12
0.272447
 22
0.636738
 32
0.690460
 13
0.272447
 23
0.636738
 33
0.690460
 62
1
  0
3DFACE
  8
Sphere4
 10
0.272447
 20
0.636738
 30
0.690460
 11
-0.000024
 21
1.730361
 31
-0.668911
 12
0.163975
 22
1.521644
 32
-0.603272
 13
0.163975
 23
1.521644
 33
-0.603272
 62
1
  0
3DFACE
  8
Sphere4
 10
-0.000024
 20
0.578516
 30
1.260343
 11
-0.000024
 21
1.730361
 31
-0.668911
 12
0.272447
 22
0.636738
 32
0.690460
 13
0.272447
 23
0.636738
 33
0.690460
 62
1
  0
3DFACE
  8
Sphere4
 10
-0.000024
 20
1.730361
 30
-0.668911
 11
-1.617850
 21
0.566283
 31
-1.520950
 12
-0.000024
 22
-1.732970
 32
-0.255687
 13
-0.000024
 23
-1.732970
 33
-0.255687
 62
0
  0
3DFACE
  8
Sphere4
 10
-1.050830
 20
-1.409804
 30
0.736300
 11
-0.707770
 21
-1.321298
 31
0.480644
 12
-0.000005
 22
-1.538964
 32
-0.187502
 13
-0.000024
 23
-1.732970
 33
-0.255687
 62
2
  0
3DFACE
  8
Sphere4
 10
-0.707770
 20
-1.321298
 30
0.480644
 11
0.707787
 21
-1.321300
 31
0.480487
 12
-0.000005
 22
-1.538964
 32
-0.187502
 13
-0.000005
 23
-1.538964
 33
-0.187502
 62
2
  0
3DFACE
  8
Sphere4
 10
-0.000024
 20
-1.732970
 30
-0.255687
 11
-0.000005
 21
-1.538964
 31
-0.187502
 12
0.707787
 22
-1.321300
 32
0.480487
 13
1.050821
 23
-1.409807
 33
0.736067
 62
2
  0
3DFACE
  8
Sphere4
 10
1.617804
 20
0.566572
 30
-1.520950
 11
-0.000024
 21
1.730361
 31
-0.668911
 12
-0.000024
 22
-1.732970
 32
-0.255687
 13
-0.000024
 23
-1.732970
 33
-0.255687
 62
0
  0
3DFACE
  8
Sphere4
 10
0.272447
 20
0.636738
 30
0.690460
 11
0.163975
 21
1.521644
 31
-0.603272
 12
0.227932
 22
0.581101
 32
-0.349741
 13
0.292004
 23
0.581101
 33
0.414397
 62
1
  0
3DFACE
  8
Sphere4
 10
0.440743
 20
0.581101
 30
-0.016283
 11
0.292004
 21
0.581101
 31
0.414397
 12
0.227932
 22
0.581101
 32
-0.349741
 13
0.227932
 23
0.581101
 33
-0.349741
 62
1
  0
3DFACE
  8
Sphere4
 10
0.524257
 20
0.812127
 30
-0.038740
 11
0.272447
 21
0.636738
 31
0.690460
 12
0.292004
 22
0.581101
 32
0.414397
 13
0.440743
 23
0.581101
 33
-0.016283
 62
1
  0
3DFACE
  8
Sphere4
 10
0.163975
 20
1.521644
 30
-0.603272
 11
0.524257
 21
0.812127
 31
-0.038740
 12
0.440743
 22
0.581101
 32
-0.016283
 13
0.227932
 23
0.581101
 33
-0.349741
 62
1
  0
3DFACE
  8
Sphere4
 10
-0.440578
 20
0.581255
 30
-0.015852
 11
-0.524034
 21
0.811996
 31
-0.038750
 12
-0.163832
 22
1.521831
 32
-0.603272
 13
-0.228122
 23
0.581255
 33
-0.349634
 62
1
  0
3DFACE
  8
Sphere4
 10
-0.292413
 20
0.581255
 30
0.414805
 11
-0.440578
 21
0.581255
 31
-0.015852
 12
-0.228122
 22
0.581255
 32
-0.349634
 13
-0.228122
 23
0.581255
 33
-0.349634
 62
1
  0
3DFACE
  8
Sphere4
 10
-0.292413
 20
0.581255
 30
0.414805
 11
-0.272157
 21
0.636738
 31
0.690460
 12
-0.524034
 22
0.811996
 32
-0.038750
 13
-0.440578
 23
0.581255
 33
-0.015852
 62
1
  0
3DFACE
  8
Sphere4
 10
-0.228122
 20
0.581255
 30
-0.349634
 11
-0.163832
 21
1.521831
 31
-0.603272
 12
-0.272157
 22
0.636738
 32
0.690460
 13
-0.292413
 23
0.581255
 33
0.414805
 62
1
  0
3DFACE
  8
Sphere4
 10
1.050821
 20
-1.409807
 30
0.736067
 11
1.617804
 21
0.566572
 31
-1.520950
 12
-0.000024
 22
-1.732970
 32
-0.255687
 13
-0.000024
 23
-1.732970
 33
-0.255687
 62
0
  0
3DFACE
  8
Sphere4
 10
-1.050830
 20
-1.409804
 30
0.736300
 11
-0.000024
 21
0.578516
 31
1.260343
 12
1.050821
 22
-1.409807
 32
0.736067
 13
1.050821
 23
-1.409807
 33
0.736067
 62
0
  0
3DFACE
  8
Sphere4
 10
-0.000024
 20
-1.732970
 30
-0.255687
 11
-1.617850
 21
0.566283
 31
-1.520950
 12
-1.050830
 22
-1.409804
 32
0.736300
 13
-1.050830
 23
-1.409804
 33
0.736300
 62
0
  0
3DFACE
  8
Cylinder
 10
0.470021
 20
0.702747
 30
-0.028409
 11
0.470021
 21
0.528413
 31
-0.028406
 12
0.179471
 22
0.528415
 32
-0.568054
 13
0.179471
 23
1.369071
 33
-0.568055
 62
0
  0
3DFACE
  8
Cylinder
 10
0.179471
 20
1.369071
 30
-0.568055
 11
0.179471
 21
0.528415
 31
-0.568054
 12
0.285361
 22
0.528415
 32
0.597412
 13
0.285361
 23
0.609770
 33
0.597410
 62
0
  0
3DFACE
  8
Cylinder
 10
0.285361
 20
0.609770
 30
0.597410
 11
0.285361
 21
0.528415
 31
0.597412
 12
0.470021
 22
0.528413
 32
-0.028406
 13
0.470021
 23
0.702747
 33
-0.028409
 62
0
  0
3DFACE
  8
Cylinder
 10
0.470021
 20
0.702747
 30
-0.028409
 11
0.179471
 21
1.369071
 31
-0.568055
 12
0.285361
 22
0.609770
 32
0.597410
 13
0.285361
 23
0.609770
 33
0.597410
 62
0
  0
3DFACE
  8
Cylinder
 10
0.285361
 20
0.528415
 30
0.597412
 11
0.179471
 21
0.528415
 31
-0.568054
 12
0.470021
 22
0.528413
 32
-0.028406
 13
0.470021
 23
0.528413
 33
-0.028406
 62
0
  0
3DFACE
  8
Cylinder1
 10
-0.179723
 20
1.369071
 30
-0.568055
 11
-0.179723
 21
0.528415
 31
-0.568054
 12
-0.470273
 22
0.528414
 32
-0.028406
 13
-0.470273
 23
0.702747
 33
-0.028409
 62
0
  0
3DFACE
  8
Cylinder1
 10
-0.285613
 20
0.609771
 30
0.597410
 11
-0.285613
 21
0.528415
 31
0.597412
 12
-0.179723
 22
0.528415
 32
-0.568054
 13
-0.179723
 23
1.369071
 33
-0.568055
 62
0
  0
3DFACE
  8
Cylinder1
 10
-0.470273
 20
0.702747
 30
-0.028409
 11
-0.470273
 21
0.528414
 31
-0.028406
 12
-0.285613
 22
0.528415
 32
0.597412
 13
-0.285613
 23
0.609771
 33
0.597410
 62
0
  0
3DFACE
  8
Cylinder1
 10
-0.285613
 20
0.609771
 30
0.597410
 11
-0.179723
 21
1.369071
 31
-0.568055
 12
-0.470273
 22
0.702747
 32
-0.028409
 13
-0.470273
 23
0.702747
 33
-0.028409
 62
0
  0
3DFACE
  8
Cylinder1
 10
-0.470273
 20
0.528414
 30
-0.028406
 11
-0.179723
 21
0.528415
 31
-0.568054
 12
-0.285613
 22
0.528415
 32
0.597412
 13
-0.285613
 23
0.528415
 33
0.597412
 62
0
  0
3DFACE
  8
Cylinder2
 10
-0.841072
 20
-1.385718
 30
0.584664
 11
-0.841213
 21
-1.183306
 31
0.584706
 12
0.841158
 22
-1.183343
 32
0.584784
 13
0.841051
 23
-1.384911
 33
0.584736
 62
0
  0
3DFACE
  8
Cylinder2
 10
0.001368
 20
-1.657417
 30
-0.224415
 11
0.001357
 21
-1.183079
 31
-0.224569
 12
-0.841213
 22
-1.183306
 32
0.584706
 13
-0.841072
 23
-1.385718
 33
0.584664
 62
0
  0
3DFACE
  8
Cylinder2
 10
0.841051
 20
-1.384911
 30
0.584736
 11
0.841158
 21
-1.183343
 31
0.584784
 12
0.001357
 22
-1.183079
 32
-0.224569
 13
0.001368
 23
-1.657417
 33
-0.224415
 62
0
  0
3DFACE
  8
Cylinder2
 10
0.001368
 20
-1.657417
 30
-0.224415
 11
-0.841072
 21
-1.385718
 31
0.584664
 12
0.841051
 22
-1.384911
 32
0.584736
 13
0.841051
 23
-1.384911
 33
0.584736
 62
0
  0
3DFACE
  8
Cylinder2
 10
0.841158
 20
-1.183343
 30
0.584784
 11
-0.841213
 21
-1.183306
 31
0.584706
 12
0.001357
 22
-1.183079
 32
-0.224569
 13
0.001357
 23
-1.183079
 33
-0.224569
 62
0
  0
3DFACE
  8
NoName6
 10
0.236604
 20
-0.145119
 30
0.154996
 11
0.732655
 21
0.019693
 31
-0.720311
 12
2.490977
 22
1.764885
 32
0.901393
 13
2.490977
 23
1.764885
 33
0.901393
 62
0
  0
3DFACE
  8
NoName6
 10
0.494846
 20
-0.844138
 30
0.206438
 11
0.732655
 21
0.019693
 31
-0.720311
 12
0.236604
 22
-0.145119
 32
0.154996
 13
0.236604
 23
-0.145119
 33
0.154996
 62
0
  0
3DFACE
  8
NoName6
 10
2.490977
 20
1.764885
 30
0.901393
 11
0.732655
 21
0.019693
 31
-0.720311
 12
0.494846
 22
-0.844138
 32
0.206438
 13
0.494846
 23
-0.844138
 33
0.206438
 62
0
  0
3DFACE
  8
NoName6
 10
0.494846
 20
-0.844138
 30
0.206438
 11
0.236604
 21
-0.145119
 31
0.154996
 12
2.490977
 22
1.764885
 32
0.901393
 13
2.490977
 23
1.764885
 33
0.901393
 62
0
  0
3DFACE
  8
NoName2
 10
1.614283
 20
2.154729
 30
0.878128
 11
3.326468
 21
2.148746
 31
0.730839
 12
2.510377
 22
1.900845
 32
1.248284
 13
2.510377
 23
1.900845
 33
1.248284
 62
0
  0
3DFACE
  8
NoName2
 10
2.123040
 20
1.003914
 30
0.764508
 11
3.326468
 21
2.148746
 31
0.730839
 12
1.614283
 22
2.154729
 32
0.878128
 13
1.614283
 23
2.154729
 33
0.878128
 62
0
  0
3DFACE
  8
NoName2
 10
2.510377
 20
1.900845
 30
1.248284
 11
3.326468
 21
2.148746
 31
0.730839
 12
2.123040
 22
1.003914
 32
0.764508
 13
2.123040
 23
1.003914
 33
0.764508
 62
0
  0
3DFACE
  8
NoName2
 10
2.123040
 20
1.003914
 30
0.764508
 11
1.614283
 21
2.154729
 31
0.878128
 12
2.510377
 22
1.900845
 32
1.248284
 13
2.510377
 23
1.900845
 33
1.248284
 62
0
  0
3DFACE
  8
NoName4
 10
1.759675
 20
1.840759
 30
1.437100
 11
1.836472
 21
3.109025
 31
-0.942828
 12
2.018015
 22
2.311270
 32
1.123454
 13
2.018015
 23
2.311270
 33
1.123454
 62
0
  0
3DFACE
  8
NoName4
 10
2.327655
 20
1.840465
 30
1.399924
 11
1.836472
 21
3.109025
 31
-0.942828
 12
1.759675
 22
1.840759
 32
1.437100
 13
1.759675
 23
1.840759
 33
1.437100
 62
0
  0
3DFACE
  8
NoName4
 10
2.018015
 20
2.311270
 30
1.123454
 11
1.836472
 21
3.109025
 31
-0.942828
 12
2.327655
 22
1.840465
 32
1.399924
 13
2.327655
 23
1.840465
 33
1.399924
 62
0
  0
3DFACE
  8
NoName4
 10
2.327655
 20
1.840465
 30
1.399924
 11
1.759675
 21
1.840759
 31
1.437100
 12
2.018015
 22
2.311270
 32
1.123454
 13
2.018015
 23
2.311270
 33
1.123454
 62
0
  0
3DFACE
  8
NoName3
 10
2.920625
 20
1.762184
 30
1.459393
 11
2.515774
 21
2.984476
 31
-0.787772
 12
3.072744
 22
2.245249
 32
1.112434
 13
3.072744
 23
2.245249
 33
1.112434
 62
0
  0
3DFACE
  8
NoName3
 10
3.469603
 20
1.813247
 30
1.301011
 11
2.515774
 21
2.984476
 31
-0.787772
 12
2.920625
 22
1.762184
 32
1.459393
 13
2.920625
 23
1.762184
 33
1.459393
 62
0
  0
3DFACE
  8
NoName3
 10
3.072744
 20
2.245249
 30
1.112434
 11
2.515774
 21
2.984476
 31
-0.787772
 12
3.469603
 22
1.813247
 32
1.301011
 13
3.469603
 23
1.813247
 33
1.301011
 62
0
  0
3DFACE
  8
NoName3
 10
3.469603
 20
1.813247
 30
1.301011
 11
2.920625
 21
1.762184
 31
1.459393
 12
3.072744
 22
2.245249
 32
1.112434
 13
3.072744
 23
2.245249
 33
1.112434
 62
0
  0
3DFACE
  8
NoName6001
 10
-2.491344
 20
1.764884
 30
0.901392
 11
-0.733008
 21
0.019686
 31
-0.720325
 12
-0.236952
 22
-0.145128
 32
0.154991
 13
-0.236952
 23
-0.145128
 33
0.154991
 62
0
  0
3DFACE
  8
NoName6001
 10
-0.236952
 20
-0.145128
 30
0.154991
 11
-0.733008
 21
0.019686
 31
-0.720325
 12
-0.495199
 22
-0.844152
 32
0.206434
 13
-0.495199
 23
-0.844152
 33
0.206434
 62
0
  0
3DFACE
  8
NoName6001
 10
-0.495199
 20
-0.844152
 30
0.206434
 11
-0.733008
 21
0.019686
 31
-0.720325
 12
-2.491344
 22
1.764884
 32
0.901392
 13
-2.491344
 23
1.764884
 33
0.901392
 62
0
  0
3DFACE
  8
NoName6001
 10
-2.491344
 20
1.764884
 30
0.901392
 11
-0.236952
 21
-0.145128
 31
0.154991
 12
-0.495199
 22
-0.844152
 32
0.206434
 13
-0.495199
 23
-0.844152
 33
0.206434
 62
0
  0
3DFACE
  8
NoName2001
 10
-2.510737
 20
1.900843
 30
1.248288
 11
-3.326836
 21
2.148743
 31
0.730837
 12
-1.614635
 22
2.154730
 32
0.878128
 13
-1.614635
 23
2.154730
 33
0.878128
 62
0
  0
3DFACE
  8
NoName2001
 10
-1.614635
 20
2.154730
 30
0.878128
 11
-3.326836
 21
2.148743
 31
0.730837
 12
-2.123399
 22
1.003910
 32
0.764507
 13
-2.123399
 23
1.003910
 33
0.764507
 62
0
  0
3DFACE
  8
NoName2001
 10
-2.123399
 20
1.003910
 30
0.764507
 11
-3.326836
 21
2.148743
 31
0.730837
 12
-2.510737
 22
1.900843
 32
1.248288
 13
-2.510737
 23
1.900843
 33
1.248288
 62
0
  0
3DFACE
  8
NoName2001
 10
-2.510737
 20
1.900843
 30
1.248288
 11
-1.614635
 21
2.154730
 31
0.878128
 12
-2.123399
 22
1.003910
 32
0.764507
 13
-2.123399
 23
1.003910
 33
0.764507
 62
0
  0
3DFACE
  8
NoName4001
 10
-2.018365
 20
2.311293
 30
1.123412
 11
-1.836812
 21
3.109055
 31
-0.942917
 12
-1.760021
 22
1.840779
 32
1.437064
 13
-1.760021
 23
1.840779
 33
1.437064
 62
0
  0
3DFACE
  8
NoName4001
 10
-1.760021
 20
1.840779
 30
1.437064
 11
-1.836812
 21
3.109055
 31
-0.942917
 12
-2.328017
 22
1.840481
 32
1.399887
 13
-2.328017
 23
1.840481
 33
1.399887
 62
0
  0
3DFACE
  8
NoName4001
 10
-2.328017
 20
1.840481
 30
1.399887
 11
-1.836812
 21
3.109055
 31
-0.942917
 12
-2.018365
 22
2.311293
 32
1.123412
 13
-2.018365
 23
2.311293
 33
1.123412
 62
0
  0
3DFACE
  8
NoName4001
 10
-2.018365
 20
2.311293
 30
1.123412
 11
-1.760021
 21
1.840779
 31
1.437064
 12
-2.328017
 22
1.840481
 32
1.399887
 13
-2.328017
 23
1.840481
 33
1.399887
 62
0
  0
3DFACE
  8
NoName3001
 10
-3.073131
 20
2.245270
 30
1.112388
 11
-2.516140
 21
2.984509
 31
-0.787861
 12
-2.921010
 22
1.762200
 32
1.459354
 13
-2.921010
 23
1.762200
 33
1.459354
 62
0
  0
3DFACE
  8
NoName3001
 10
-2.921010
 20
1.762200
 30
1.459354
 11
-2.516140
 21
2.984509
 31
-0.787861
 12
-3.470004
 22
1.813260
 32
1.300968
 13
-3.470004
 23
1.813260
 33
1.300968
 62
0
  0
3DFACE
  8
NoName3001
 10
-3.470004
 20
1.813260
 30
1.300968
 11
-2.516140
 21
2.984509
 31
-0.787861
 12
-3.073131
 22
2.245270
 32
1.112388
 13
-3.073131
 23
2.245270
 33
1.112388
 62
0
  0
3DFACE
  8
NoName3001
 10
-3.073131
 20
2.245270
 30
1.112388
 11
-2.921010
 21
1.762200
 31
1.459354
 12
-3.470004
 22
1.813260
 32
1.300968
 13
-3.470004
 23
1.813260
 33
1.300968
 62
0
 0
ENDSEC
 0
EOF
